%TF.GenerationSoftware,Altium Limited,Altium Designer,21.8.1 (53)*%
G04 Layer_Color=39423*
%FSLAX45Y45*%
%MOMM*%
%TF.SameCoordinates,9CAB6441-B9E9-44DD-A1F1-36E89FF17874*%
%TF.FilePolarity,Positive*%
%TF.FileFunction,Legend,Bot*%
%TF.Part,Single*%
G01*
G75*
%TA.AperFunction,NonConductor*%
%ADD16C,0.33020*%
G36*
X677700Y294833D02*
X658734Y284535D01*
X624307Y347941D01*
X599763Y334615D01*
X597818Y333319D01*
X595959Y332309D01*
X594572Y331315D01*
X593558Y330524D01*
X592814Y330120D01*
X592543Y329732D01*
X592357Y329631D01*
X589802Y326799D01*
X588617Y325433D01*
X587719Y323983D01*
X586907Y322820D01*
X586466Y321858D01*
X586009Y321369D01*
X585924Y321082D01*
X584957Y318872D01*
X583990Y316662D01*
X583225Y314080D01*
X582647Y311599D01*
X582052Y309590D01*
X581829Y307784D01*
X581489Y306636D01*
X581505Y306163D01*
X580788Y302163D01*
X580273Y297790D01*
X579758Y293418D01*
X579243Y289045D01*
X578898Y285247D01*
X578675Y283440D01*
X578537Y281921D01*
X578383Y280874D01*
X578415Y279928D01*
X578245Y279355D01*
X578346Y279169D01*
X575618Y239407D01*
X551817Y226484D01*
X555548Y278588D01*
X556116Y284193D01*
X556886Y289426D01*
X557672Y294186D01*
X558676Y298102D01*
X559696Y301545D01*
X560275Y304026D01*
X560886Y305561D01*
X560870Y306034D01*
X561056Y306135D01*
X562022Y308345D01*
X562989Y310556D01*
X565396Y314992D01*
X566564Y316830D01*
X567462Y318281D01*
X568190Y319158D01*
X568461Y319545D01*
X564439Y318084D01*
X560502Y316910D01*
X556836Y316123D01*
X553357Y315438D01*
X549962Y315039D01*
X546753Y314741D01*
X543916Y314645D01*
X541265Y314650D01*
X538985Y314857D01*
X536892Y315165D01*
X535086Y315388D01*
X533566Y315526D01*
X532419Y315866D01*
X531372Y316020D01*
X531085Y316105D01*
X530798Y316190D01*
X528014Y317327D01*
X525230Y318464D01*
X522717Y319988D01*
X520491Y321428D01*
X516495Y324796D01*
X513158Y328281D01*
X510497Y331410D01*
X509503Y332796D01*
X508610Y333997D01*
X507819Y335012D01*
X507415Y335755D01*
X507112Y336313D01*
X507011Y336499D01*
X504875Y340877D01*
X503398Y345371D01*
X502308Y349595D01*
X501707Y353362D01*
X501410Y356571D01*
X501229Y359121D01*
X501197Y360067D01*
X501266Y360826D01*
X501351Y361113D01*
X501250Y361299D01*
X501850Y365959D01*
X502838Y370347D01*
X504129Y374178D01*
X505722Y377451D01*
X507146Y380150D01*
X508500Y382089D01*
X509042Y382865D01*
X509499Y383354D01*
X509584Y383640D01*
X509770Y383741D01*
X511226Y385495D01*
X513154Y387264D01*
X517298Y390718D01*
X521728Y394086D01*
X526175Y396982D01*
X528306Y398380D01*
X530250Y399676D01*
X531923Y400585D01*
X533496Y401679D01*
X600063Y437822D01*
X677700Y294833D01*
D02*
G37*
G36*
X549214Y225071D02*
X529318Y214268D01*
X490176Y249112D01*
X430303Y216604D01*
X437277Y164294D01*
X415894Y152684D01*
X396457Y327273D01*
X417096Y338479D01*
X549214Y225071D01*
D02*
G37*
G36*
X420852Y3016791D02*
X425008Y3016472D01*
X428303Y3015896D01*
X429807Y3015565D01*
X431126Y3015334D01*
X431971Y3015119D01*
X432816Y3014903D01*
X433289Y3014888D01*
X433475Y3014788D01*
X437415Y3013624D01*
X441813Y3011972D01*
X446297Y3010033D01*
X450594Y3008195D01*
X454132Y3006287D01*
X455908Y3005569D01*
X509349Y2976733D01*
X432087Y2833541D01*
X380508Y2861372D01*
X375954Y2864070D01*
X371585Y2866667D01*
X367876Y2869149D01*
X364825Y2871517D01*
X362233Y2873396D01*
X361216Y2874185D01*
X360386Y2874874D01*
X359741Y2875462D01*
X359183Y2875763D01*
X359097Y2876050D01*
X358911Y2876150D01*
X355875Y2878990D01*
X353127Y2881916D01*
X350850Y2884827D01*
X349033Y2887250D01*
X347487Y2889287D01*
X346499Y2891021D01*
X345870Y2892082D01*
X345598Y2892469D01*
X344096Y2895924D01*
X342595Y2899379D01*
X341566Y2902819D01*
X340809Y2905872D01*
X340138Y2908639D01*
X339824Y2910731D01*
X339396Y2912164D01*
X339410Y2912637D01*
X339070Y2916908D01*
X338931Y2921551D01*
X339164Y2925993D01*
X339669Y2930048D01*
X340059Y2933444D01*
X340390Y2934948D01*
X340620Y2936267D01*
X340650Y2937213D01*
X340865Y2938058D01*
X340880Y2938531D01*
X340981Y2938717D01*
X342289Y2944262D01*
X344071Y2949791D01*
X345938Y2955035D01*
X347977Y2959705D01*
X348896Y2961853D01*
X349715Y2963816D01*
X350619Y2965492D01*
X351136Y2966896D01*
X351839Y2968199D01*
X352241Y2968944D01*
X352543Y2969502D01*
X352643Y2969688D01*
X356547Y2976478D01*
X360808Y2982593D01*
X362788Y2985371D01*
X364854Y2987863D01*
X366819Y2990169D01*
X368497Y2992388D01*
X370262Y2994321D01*
X371825Y2995882D01*
X373288Y2997256D01*
X374464Y2998545D01*
X375439Y2999461D01*
X376214Y3000005D01*
X376701Y3000463D01*
X376802Y3000650D01*
X381950Y3004844D01*
X387255Y3007992D01*
X392359Y3010768D01*
X397061Y3012798D01*
X399168Y3013585D01*
X400988Y3014286D01*
X402708Y3014800D01*
X404142Y3015228D01*
X405288Y3015572D01*
X406149Y3015829D01*
X406621Y3015814D01*
X406908Y3015900D01*
X411666Y3016698D01*
X416410Y3017024D01*
X420852Y3016791D01*
D02*
G37*
G36*
X707653Y2863484D02*
X709071Y2863440D01*
X710490Y2863395D01*
X711622Y2863265D01*
X712382Y2863336D01*
X712855Y2863322D01*
X713041Y2863221D01*
X718786Y2862285D01*
X724331Y2860976D01*
X729489Y2859395D01*
X734359Y2857729D01*
X736322Y2856910D01*
X738284Y2856092D01*
X739774Y2855288D01*
X741364Y2854670D01*
X743971Y2853264D01*
X747781Y2850968D01*
X751404Y2848772D01*
X758164Y2843923D01*
X761114Y2841369D01*
X763691Y2839017D01*
X766269Y2836665D01*
X768373Y2834327D01*
X770392Y2832276D01*
X772124Y2830139D01*
X773584Y2828390D01*
X774773Y2827027D01*
X775674Y2825579D01*
X776404Y2824705D01*
X776862Y2824217D01*
X776948Y2823930D01*
X779023Y2820647D01*
X780711Y2817092D01*
X783528Y2810282D01*
X784557Y2806842D01*
X785400Y2803502D01*
X786056Y2800263D01*
X786526Y2797125D01*
X786911Y2794273D01*
X787209Y2791707D01*
X787422Y2789429D01*
X787550Y2787437D01*
X787591Y2785731D01*
X787647Y2784499D01*
X787532Y2783840D01*
X787618Y2783553D01*
X787299Y2779398D01*
X786694Y2775156D01*
X785211Y2767061D01*
X783184Y2759740D01*
X782035Y2756273D01*
X780900Y2753279D01*
X779765Y2750285D01*
X778832Y2747664D01*
X777812Y2745329D01*
X776807Y2743467D01*
X776190Y2741876D01*
X775587Y2740759D01*
X775185Y2740014D01*
X775085Y2739828D01*
X772788Y2736018D01*
X770593Y2732395D01*
X765743Y2725635D01*
X763190Y2722685D01*
X760838Y2720108D01*
X758485Y2717531D01*
X756047Y2715240D01*
X753996Y2713221D01*
X752046Y2711388D01*
X750296Y2709928D01*
X748647Y2708654D01*
X747385Y2707652D01*
X746511Y2706922D01*
X745837Y2706564D01*
X745736Y2706378D01*
X742353Y2704117D01*
X738983Y2702329D01*
X735428Y2700641D01*
X731888Y2699426D01*
X728533Y2698110D01*
X725193Y2697268D01*
X722040Y2696325D01*
X719087Y2695754D01*
X716236Y2695369D01*
X713756Y2694784D01*
X711477Y2694571D01*
X709485Y2694444D01*
X707966Y2694302D01*
X706734Y2694246D01*
X706075Y2694361D01*
X705788Y2694275D01*
X701632Y2694594D01*
X697477Y2694913D01*
X689754Y2696195D01*
X682433Y2698221D01*
X679152Y2699270D01*
X675872Y2700319D01*
X673064Y2701353D01*
X670543Y2702473D01*
X668107Y2703307D01*
X666245Y2704311D01*
X664655Y2704929D01*
X662607Y2706034D01*
X656935Y2709335D01*
X651751Y2713094D01*
X647039Y2716838D01*
X642886Y2720281D01*
X641326Y2721844D01*
X639765Y2723408D01*
X638290Y2724684D01*
X637188Y2725760D01*
X636272Y2726735D01*
X635728Y2727509D01*
X635269Y2727997D01*
X635083Y2728097D01*
X630703Y2733346D01*
X626996Y2738952D01*
X623561Y2744172D01*
X620599Y2749376D01*
X619441Y2751684D01*
X618368Y2753705D01*
X617380Y2755440D01*
X616579Y2757075D01*
X615864Y2758422D01*
X615421Y2759383D01*
X615249Y2759956D01*
X615163Y2760243D01*
X643898Y2813498D01*
X704601Y2780744D01*
X695458Y2763799D01*
X653376Y2786506D01*
X638908Y2759692D01*
X640410Y2756237D01*
X642198Y2752868D01*
X644273Y2749585D01*
X646262Y2746588D01*
X648166Y2743878D01*
X649898Y2741741D01*
X650543Y2741153D01*
X650900Y2740479D01*
X651172Y2740092D01*
X651358Y2739992D01*
X655023Y2736091D01*
X658703Y2732663D01*
X662111Y2729622D01*
X665534Y2727054D01*
X668499Y2724973D01*
X669802Y2724270D01*
X670819Y2723481D01*
X672867Y2722376D01*
X678181Y2719749D01*
X683611Y2717781D01*
X688582Y2716301D01*
X693195Y2715494D01*
X695359Y2715048D01*
X697150Y2714803D01*
X698841Y2714372D01*
X700259Y2714328D01*
X701391Y2714198D01*
X702337Y2714168D01*
X702810Y2714153D01*
X702996Y2714053D01*
X708872Y2714249D01*
X714203Y2715218D01*
X719364Y2716762D01*
X723578Y2718334D01*
X727133Y2720022D01*
X728768Y2720823D01*
X729929Y2721639D01*
X730890Y2722082D01*
X731664Y2722626D01*
X732237Y2722798D01*
X732338Y2722984D01*
X737285Y2726806D01*
X741688Y2731402D01*
X745719Y2736199D01*
X749363Y2740725D01*
X750755Y2742858D01*
X752146Y2744992D01*
X753337Y2746754D01*
X754242Y2748430D01*
X755131Y2749633D01*
X755633Y2750564D01*
X756035Y2751309D01*
X756136Y2751495D01*
X759064Y2757368D01*
X761233Y2763169D01*
X763101Y2768413D01*
X764294Y2773298D01*
X764926Y2775361D01*
X765272Y2777339D01*
X765703Y2779029D01*
X765848Y2780634D01*
X766164Y2781666D01*
X766194Y2782611D01*
X766208Y2783084D01*
X766309Y2783271D01*
X766513Y2786767D01*
X766530Y2790364D01*
X766346Y2793588D01*
X766148Y2796340D01*
X765749Y2798719D01*
X765335Y2800625D01*
X764992Y2801772D01*
X765007Y2802245D01*
X763978Y2805685D01*
X762577Y2809326D01*
X760874Y2812408D01*
X759257Y2815204D01*
X757912Y2817613D01*
X756452Y2819362D01*
X755636Y2820524D01*
X755550Y2820810D01*
X755364Y2820911D01*
X752343Y2824224D01*
X749222Y2827350D01*
X745714Y2830205D01*
X742377Y2832486D01*
X739598Y2834466D01*
X738295Y2835170D01*
X737278Y2835959D01*
X735044Y2837164D01*
X731033Y2839088D01*
X727108Y2840725D01*
X723354Y2841789D01*
X720260Y2842737D01*
X717437Y2843298D01*
X715173Y2843558D01*
X713855Y2843789D01*
X713569Y2843703D01*
X713382Y2843804D01*
X709413Y2844022D01*
X705716Y2843853D01*
X702391Y2843483D01*
X699725Y2842998D01*
X697432Y2842313D01*
X695712Y2841798D01*
X694565Y2841455D01*
X694178Y2841183D01*
X691196Y2839667D01*
X688013Y2837778D01*
X685102Y2835502D01*
X682578Y2833498D01*
X680240Y2831393D01*
X678491Y2829933D01*
X677903Y2829289D01*
X677415Y2828831D01*
X677028Y2828559D01*
X676928Y2828373D01*
X662308Y2842271D01*
X666611Y2846681D01*
X670985Y2850331D01*
X674771Y2853337D01*
X678441Y2855684D01*
X681624Y2857573D01*
X682786Y2858389D01*
X683932Y2858732D01*
X684707Y2859276D01*
X685380Y2859634D01*
X685853Y2859619D01*
X685954Y2859805D01*
X690455Y2861464D01*
X695128Y2862549D01*
X699785Y2863161D01*
X704056Y2863501D01*
X707653Y2863484D01*
D02*
G37*
G36*
X559439Y2949707D02*
X498754Y2837238D01*
X634666Y2909116D01*
X654031Y2898667D01*
X576769Y2755475D01*
X558521Y2765321D01*
X619105Y2877603D01*
X483480Y2805811D01*
X463928Y2816361D01*
X541190Y2959553D01*
X559439Y2949707D01*
D02*
G37*
G36*
X5269448Y2840736D02*
X5180196Y2792276D01*
X5171009Y2809197D01*
X5241295Y2847359D01*
X5172845Y2973428D01*
X5191812Y2983725D01*
X5269448Y2840736D01*
D02*
G37*
G36*
X5173317Y2788541D02*
X5153421Y2777738D01*
X5114278Y2812582D01*
X5054405Y2780073D01*
X5061380Y2727764D01*
X5039996Y2716154D01*
X5020559Y2890743D01*
X5041199Y2901949D01*
X5173317Y2788541D01*
D02*
G37*
G36*
X4832938Y507981D02*
X4836334Y507591D01*
X4839730Y507201D01*
X4842739Y506539D01*
X4845461Y505792D01*
X4848083Y504858D01*
X4850332Y504125D01*
X4852108Y503407D01*
X4853698Y502790D01*
X4855746Y501685D01*
X4859556Y499389D01*
X4863080Y497007D01*
X4866216Y494353D01*
X4869065Y491613D01*
X4871441Y488889D01*
X4873717Y485978D01*
X4875621Y483268D01*
X4877338Y480658D01*
X4878683Y478249D01*
X4879842Y475941D01*
X4880815Y473734D01*
X4881515Y471913D01*
X4882130Y470379D01*
X4882473Y469232D01*
X4882645Y468659D01*
X4882730Y468372D01*
X4883644Y464273D01*
X4884084Y460189D01*
X4883952Y455933D01*
X4883819Y451677D01*
X4883314Y447622D01*
X4882437Y443768D01*
X4881559Y439914D01*
X4880596Y436346D01*
X4879547Y433066D01*
X4878413Y430072D01*
X4877378Y427264D01*
X4876359Y424929D01*
X4875455Y423253D01*
X4874837Y421663D01*
X4874435Y420918D01*
X4874234Y420546D01*
X4871536Y415991D01*
X4868853Y411909D01*
X4865998Y408401D01*
X4863144Y404893D01*
X4860404Y402043D01*
X4857478Y399294D01*
X4854668Y397204D01*
X4851857Y395115D01*
X4849535Y393483D01*
X4847126Y392138D01*
X4845104Y391065D01*
X4843370Y390078D01*
X4842022Y389362D01*
X4840875Y389020D01*
X4840201Y388662D01*
X4839915Y388576D01*
X4836002Y387562D01*
X4832003Y386835D01*
X4828019Y386580D01*
X4824236Y386698D01*
X4820453Y386816D01*
X4816871Y387306D01*
X4813389Y387983D01*
X4810194Y388745D01*
X4807286Y389593D01*
X4804478Y390627D01*
X4802043Y391460D01*
X4800080Y392279D01*
X4798591Y393083D01*
X4797187Y393600D01*
X4796256Y394102D01*
X4793004Y396097D01*
X4789939Y397991D01*
X4784669Y402037D01*
X4782464Y404188D01*
X4780446Y406239D01*
X4778613Y408189D01*
X4777067Y410225D01*
X4775607Y411975D01*
X4774519Y413524D01*
X4773431Y415072D01*
X4772716Y416420D01*
X4772086Y417481D01*
X4771729Y418155D01*
X4771557Y418728D01*
X4771371Y418828D01*
X4769370Y424476D01*
X4768228Y430381D01*
X4767646Y435985D01*
X4767521Y441101D01*
X4767940Y445443D01*
X4768100Y447520D01*
X4768431Y449025D01*
X4768475Y450443D01*
X4768690Y451289D01*
X4768806Y451948D01*
X4768906Y452134D01*
X4788461Y444709D01*
X4787840Y439994D01*
X4787894Y435638D01*
X4788148Y431654D01*
X4788619Y428515D01*
X4789204Y426036D01*
X4789804Y424029D01*
X4790147Y422882D01*
X4790419Y422495D01*
X4792122Y419413D01*
X4794211Y416602D01*
X4796603Y414350D01*
X4798621Y412299D01*
X4800841Y410621D01*
X4802417Y409530D01*
X4804092Y408626D01*
X4806613Y407506D01*
X4808948Y406487D01*
X4813834Y405293D01*
X4818261Y404587D01*
X4822331Y404555D01*
X4825656Y404925D01*
X4828508Y405309D01*
X4829368Y405566D01*
X4830128Y405637D01*
X4830414Y405723D01*
X4830701Y405809D01*
X4833195Y406867D01*
X4835503Y408026D01*
X4839948Y410917D01*
X4843935Y414295D01*
X4847549Y417875D01*
X4850303Y421197D01*
X4851394Y422772D01*
X4852384Y424161D01*
X4853173Y425178D01*
X4853862Y426009D01*
X4854163Y426567D01*
X4854263Y426754D01*
X4776988Y468449D01*
X4777907Y470598D01*
X4778711Y472087D01*
X4779113Y472832D01*
X4779314Y473205D01*
X4782012Y477759D01*
X4784795Y482027D01*
X4787751Y485722D01*
X4790605Y489230D01*
X4793445Y492266D01*
X4796271Y494829D01*
X4799181Y497105D01*
X4801806Y499295D01*
X4804415Y501012D01*
X4806824Y502357D01*
X4808845Y503430D01*
X4810580Y504418D01*
X4811928Y505133D01*
X4813075Y505476D01*
X4813749Y505833D01*
X4814035Y505919D01*
X4817948Y506933D01*
X4821761Y507761D01*
X4825559Y508116D01*
X4829442Y508184D01*
X4832938Y507981D01*
D02*
G37*
G36*
X4940323Y451241D02*
X4940609Y451327D01*
X4940796Y451227D01*
X4944936Y450435D01*
X4948977Y449457D01*
X4953002Y448006D01*
X4956469Y446857D01*
X4959549Y445435D01*
X4960666Y444833D01*
X4961884Y444416D01*
X4966911Y441703D01*
X4969503Y439824D01*
X4971909Y438045D01*
X4973943Y436467D01*
X4975790Y434989D01*
X4976893Y433914D01*
X4977723Y433225D01*
X4977995Y432838D01*
X4980014Y430787D01*
X4981746Y428650D01*
X4983392Y426800D01*
X4984380Y425065D01*
X4985382Y423804D01*
X4986011Y422743D01*
X4986369Y422069D01*
X4986455Y421782D01*
X4987513Y419288D01*
X4988285Y416708D01*
X4988870Y414228D01*
X4989370Y412035D01*
X4989497Y410043D01*
X4989639Y408524D01*
X4989610Y407578D01*
X4989695Y407292D01*
X4989607Y404454D01*
X4989146Y401818D01*
X4988499Y399282D01*
X4987867Y397219D01*
X4987048Y395257D01*
X4986531Y393852D01*
X4986129Y393108D01*
X4985928Y392735D01*
X4984235Y390043D01*
X4982456Y387637D01*
X4980591Y385517D01*
X4978741Y383871D01*
X4977092Y382597D01*
X4975830Y381595D01*
X4975056Y381051D01*
X4974669Y380779D01*
X4971787Y379449D01*
X4969107Y378491D01*
X4966154Y377921D01*
X4963775Y377521D01*
X4961497Y377308D01*
X4959791Y377267D01*
X4958559Y377211D01*
X4958086Y377225D01*
X4956194Y377284D01*
X4954031Y377730D01*
X4951767Y377990D01*
X4949317Y378351D01*
X4944044Y379272D01*
X4938872Y380380D01*
X4934173Y381473D01*
X4932009Y381919D01*
X4930318Y382351D01*
X4928814Y382682D01*
X4927682Y382812D01*
X4926837Y383027D01*
X4926651Y383128D01*
X4923742Y383976D01*
X4921106Y384437D01*
X4918570Y385084D01*
X4916406Y385530D01*
X4914429Y385875D01*
X4912739Y386307D01*
X4911420Y386537D01*
X4910002Y386581D01*
X4907838Y387027D01*
X4906420Y387072D01*
X4905761Y387187D01*
X4905474Y387101D01*
X4902994Y386516D01*
X4900887Y385729D01*
X4899152Y384742D01*
X4897604Y383654D01*
X4896528Y382552D01*
X4895739Y381535D01*
X4895337Y380790D01*
X4895237Y380604D01*
X4894117Y378083D01*
X4893656Y375447D01*
X4893582Y373082D01*
X4893795Y370803D01*
X4894109Y368711D01*
X4894537Y367277D01*
X4894880Y366131D01*
X4894966Y365844D01*
X4896482Y362862D01*
X4898859Y360137D01*
X4901336Y357599D01*
X4903828Y355533D01*
X4906420Y353654D01*
X4908367Y352362D01*
X4910416Y351257D01*
X4914799Y349132D01*
X4918925Y347868D01*
X4922492Y346905D01*
X4925888Y346515D01*
X4928439Y346341D01*
X4930431Y346468D01*
X4931663Y346524D01*
X4932136Y346510D01*
X4935576Y347538D01*
X4938845Y349141D01*
X4941555Y351044D01*
X4944079Y353048D01*
X4946130Y355067D01*
X4947507Y356728D01*
X4948095Y357372D01*
X4948583Y357830D01*
X4948683Y358017D01*
X4948784Y358203D01*
X4964594Y346066D01*
X4962427Y343388D01*
X4960175Y340997D01*
X4957838Y338892D01*
X4955415Y337075D01*
X4953278Y335342D01*
X4951055Y333897D01*
X4948747Y332738D01*
X4946726Y331665D01*
X4944805Y330778D01*
X4943170Y329977D01*
X4941637Y329363D01*
X4940203Y328934D01*
X4939157Y328777D01*
X4938297Y328520D01*
X4938010Y328434D01*
X4937724Y328348D01*
X4934872Y327964D01*
X4931848Y328153D01*
X4925902Y328717D01*
X4919884Y330040D01*
X4914540Y331721D01*
X4911919Y332655D01*
X4909483Y333489D01*
X4907521Y334307D01*
X4905845Y335211D01*
X4904255Y335829D01*
X4902393Y336833D01*
X4898024Y339431D01*
X4894129Y342014D01*
X4890807Y344768D01*
X4888043Y347221D01*
X4885838Y349372D01*
X4884192Y351222D01*
X4883547Y351810D01*
X4883089Y352298D01*
X4883003Y352585D01*
X4882817Y352685D01*
X4880370Y356169D01*
X4878495Y359825D01*
X4876893Y363094D01*
X4875764Y366348D01*
X4875179Y368828D01*
X4874579Y370834D01*
X4874336Y372167D01*
X4874351Y372640D01*
X4874283Y376524D01*
X4874587Y380206D01*
X4875163Y383502D01*
X4875824Y386510D01*
X4876658Y388946D01*
X4877376Y390722D01*
X4877979Y391839D01*
X4878079Y392025D01*
X4878179Y392212D01*
X4880074Y395277D01*
X4882240Y397954D01*
X4884105Y400074D01*
X4886055Y401906D01*
X4887890Y403080D01*
X4889152Y404082D01*
X4890213Y404712D01*
X4890500Y404797D01*
X4893381Y406127D01*
X4896434Y406884D01*
X4899100Y407369D01*
X4901666Y407668D01*
X4903944Y407881D01*
X4905650Y407922D01*
X4906781Y407793D01*
X4907254Y407778D01*
X4909045Y407533D01*
X4911123Y407373D01*
X4915737Y406567D01*
X4920723Y405560D01*
X4925709Y404552D01*
X4930222Y403560D01*
X4932285Y402927D01*
X4934076Y402682D01*
X4935394Y402452D01*
X4936612Y402035D01*
X4937271Y401920D01*
X4937457Y401819D01*
X4939993Y401172D01*
X4942443Y400812D01*
X4944506Y400180D01*
X4946483Y399834D01*
X4948174Y399403D01*
X4949678Y399072D01*
X4952028Y398525D01*
X4953719Y398094D01*
X4954851Y397964D01*
X4955324Y397949D01*
X4955510Y397849D01*
X4957401Y397790D01*
X4959293Y397731D01*
X4960812Y397873D01*
X4962145Y398115D01*
X4963292Y398458D01*
X4964152Y398715D01*
X4964438Y398801D01*
X4964725Y398887D01*
X4966073Y399602D01*
X4967048Y400518D01*
X4968797Y401979D01*
X4969300Y402910D01*
X4969787Y403368D01*
X4969988Y403740D01*
X4970089Y403926D01*
X4971008Y406075D01*
X4971353Y408053D01*
X4971327Y410231D01*
X4971099Y412037D01*
X4970957Y413555D01*
X4970428Y414803D01*
X4970170Y415663D01*
X4970085Y415949D01*
X4968554Y418458D01*
X4966550Y420982D01*
X4963972Y423335D01*
X4961380Y425214D01*
X4958974Y426993D01*
X4957026Y428285D01*
X4954978Y429390D01*
X4951153Y431213D01*
X4947687Y432362D01*
X4944492Y433125D01*
X4941855Y433585D01*
X4939491Y433659D01*
X4937972Y433517D01*
X4936739Y433461D01*
X4936453Y433375D01*
X4933586Y432518D01*
X4931091Y431459D01*
X4928683Y430114D01*
X4926646Y428569D01*
X4925184Y427194D01*
X4924008Y425905D01*
X4923133Y425175D01*
X4922932Y424803D01*
X4907107Y436467D01*
X4909761Y439603D01*
X4912400Y442266D01*
X4914737Y444371D01*
X4917060Y446002D01*
X4918996Y447362D01*
X4920444Y448264D01*
X4921505Y448893D01*
X4921792Y448979D01*
X4924860Y450209D01*
X4928099Y450865D01*
X4931238Y451335D01*
X4934175Y451433D01*
X4936826Y451445D01*
X4939005Y451472D01*
X4940323Y451241D01*
D02*
G37*
G36*
X5214815Y349534D02*
X5218211Y349144D01*
X5221506Y348568D01*
X5224329Y348007D01*
X5226578Y347274D01*
X5227424Y347058D01*
X5227897Y347044D01*
X5228455Y346742D01*
X5231736Y345693D01*
X5235475Y344157D01*
X5239299Y342333D01*
X5242752Y340711D01*
X5246017Y339189D01*
X5304858Y307440D01*
X5227596Y164248D01*
X5208603Y174496D01*
X5239950Y232593D01*
X5203454Y252285D01*
X5198154Y255385D01*
X5193328Y258470D01*
X5188974Y261540D01*
X5185194Y264782D01*
X5181972Y267723D01*
X5179037Y270749D01*
X5176660Y273473D01*
X5174470Y276098D01*
X5172839Y278421D01*
X5171493Y280829D01*
X5170320Y282665D01*
X5169519Y284299D01*
X5169090Y285732D01*
X5168647Y286693D01*
X5168475Y287266D01*
X5168390Y287553D01*
X5167648Y291079D01*
X5167192Y294690D01*
X5167109Y298101D01*
X5167212Y301411D01*
X5167315Y304721D01*
X5167690Y307644D01*
X5169100Y313375D01*
X5169646Y315725D01*
X5170379Y317974D01*
X5171197Y319937D01*
X5171915Y321713D01*
X5172433Y323117D01*
X5172935Y324048D01*
X5173236Y324606D01*
X5173337Y324793D01*
X5175633Y328602D01*
X5178100Y331839D01*
X5180654Y334789D01*
X5183006Y337366D01*
X5185057Y339385D01*
X5186807Y340845D01*
X5187480Y341203D01*
X5187968Y341661D01*
X5188255Y341747D01*
X5188355Y341933D01*
X5191739Y344194D01*
X5195108Y345983D01*
X5198463Y347298D01*
X5201329Y348155D01*
X5203623Y348841D01*
X5205715Y349155D01*
X5206862Y349498D01*
X5207335Y349483D01*
X5211032Y349652D01*
X5214815Y349534D01*
D02*
G37*
G36*
X5062977Y437952D02*
X4985715Y294760D01*
X4968212Y304205D01*
X5045474Y447397D01*
X5062977Y437952D01*
D02*
G37*
G36*
X5086367Y374364D02*
X5056326Y318688D01*
X5054000Y313933D01*
X5051976Y309736D01*
X5050626Y305896D01*
X5049677Y302802D01*
X5049030Y300266D01*
X5048499Y298389D01*
X5048369Y297257D01*
X5048354Y296784D01*
X5048351Y293660D01*
X5048635Y290622D01*
X5049120Y287956D01*
X5049992Y285562D01*
X5050779Y283455D01*
X5051580Y281821D01*
X5052023Y280860D01*
X5052295Y280473D01*
X5054199Y277763D01*
X5056303Y275426D01*
X5058508Y273274D01*
X5060542Y271696D01*
X5062203Y270319D01*
X5063778Y269229D01*
X5065082Y268525D01*
X5067975Y267204D01*
X5070783Y266170D01*
X5073419Y265709D01*
X5075683Y265449D01*
X5077660Y265104D01*
X5079180Y265246D01*
X5080125Y265216D01*
X5080412Y265302D01*
X5083178Y265973D01*
X5085572Y266845D01*
X5087880Y268004D01*
X5089716Y269178D01*
X5091264Y270265D01*
X5092340Y271368D01*
X5093114Y271912D01*
X5093315Y272284D01*
X5094004Y273115D01*
X5094893Y274318D01*
X5096586Y277010D01*
X5098380Y279889D01*
X5100088Y283055D01*
X5101782Y285747D01*
X5102485Y287050D01*
X5103088Y288168D01*
X5103590Y289099D01*
X5103992Y289844D01*
X5104193Y290216D01*
X5104293Y290402D01*
X5135339Y347940D01*
X5152842Y338496D01*
X5118180Y274255D01*
X5116070Y270344D01*
X5114075Y267093D01*
X5112382Y264401D01*
X5110990Y262266D01*
X5109985Y260404D01*
X5109096Y259201D01*
X5108508Y258557D01*
X5108407Y258371D01*
X5106155Y255980D01*
X5104004Y253775D01*
X5101867Y252043D01*
X5099931Y250683D01*
X5098282Y249409D01*
X5096935Y248693D01*
X5096160Y248150D01*
X5095874Y248064D01*
X5093193Y247106D01*
X5090427Y246435D01*
X5087575Y246051D01*
X5085010Y245752D01*
X5082831Y245725D01*
X5080839Y245598D01*
X5079707Y245728D01*
X5079234Y245742D01*
X5075652Y246233D01*
X5072085Y247196D01*
X5068890Y247958D01*
X5066082Y248992D01*
X5063747Y250012D01*
X5061785Y250830D01*
X5060295Y251634D01*
X5056671Y253830D01*
X5053249Y256398D01*
X5050399Y259137D01*
X5047837Y261962D01*
X5045747Y264773D01*
X5043758Y267770D01*
X5042141Y270565D01*
X5040811Y273447D01*
X5039667Y276228D01*
X5038794Y278622D01*
X5038109Y280915D01*
X5037508Y282922D01*
X5037180Y284542D01*
X5036938Y285874D01*
X5036867Y286634D01*
X5036781Y286921D01*
X5028542Y271652D01*
X5012901Y280091D01*
X5068863Y383808D01*
X5086367Y374364D01*
D02*
G37*
G36*
X3288422Y-1617236D02*
X3290708Y-1617617D01*
X3292867Y-1617998D01*
X3294772Y-1618506D01*
X3296550Y-1619014D01*
X3298201Y-1619649D01*
X3299725Y-1620157D01*
X3300995Y-1620792D01*
X3302138Y-1621427D01*
X3303027Y-1622062D01*
X3303789Y-1622570D01*
X3304424Y-1622951D01*
X3304805Y-1623332D01*
X3305059Y-1623459D01*
X3305186Y-1623586D01*
X3306456Y-1624983D01*
X3307599Y-1626380D01*
X3308615Y-1627904D01*
X3309377Y-1629555D01*
X3310139Y-1631206D01*
X3310774Y-1632857D01*
X3311663Y-1636032D01*
X3311917Y-1637429D01*
X3312171Y-1638826D01*
X3312298Y-1640096D01*
X3312425Y-1641112D01*
X3312552Y-1642001D01*
Y-1643271D01*
X3312425Y-1646446D01*
X3312044Y-1649367D01*
X3311409Y-1651907D01*
X3310774Y-1654066D01*
X3310266Y-1655971D01*
X3309631Y-1657241D01*
X3309377Y-1657749D01*
X3309250Y-1658130D01*
X3309123Y-1658257D01*
Y-1658384D01*
X3307599Y-1660670D01*
X3305948Y-1662575D01*
X3304297Y-1664226D01*
X3302646Y-1665496D01*
X3301122Y-1666512D01*
X3299979Y-1667274D01*
X3299471Y-1667528D01*
X3299090Y-1667655D01*
X3298963Y-1667782D01*
X3298836D01*
X3297566Y-1668290D01*
X3296042Y-1668798D01*
X3292994Y-1669560D01*
X3289819Y-1670068D01*
X3286771Y-1670449D01*
X3285374Y-1670576D01*
X3283977Y-1670703D01*
X3282834D01*
X3281818Y-1670830D01*
X3280929D01*
X3280294D01*
X3279913D01*
X3279786D01*
X3213238D01*
Y-1657876D01*
X3280548D01*
X3283469D01*
X3286009Y-1657622D01*
X3288041Y-1657495D01*
X3289819Y-1657241D01*
X3291089Y-1656987D01*
X3291978Y-1656733D01*
X3292613Y-1656606D01*
X3292740Y-1656479D01*
X3294137Y-1655971D01*
X3295280Y-1655209D01*
X3296296Y-1654447D01*
X3297185Y-1653558D01*
X3297947Y-1652796D01*
X3298455Y-1652288D01*
X3298709Y-1651780D01*
X3298836Y-1651653D01*
X3299598Y-1650256D01*
X3300106Y-1648859D01*
X3300487Y-1647462D01*
X3300741Y-1646192D01*
X3300868Y-1645049D01*
X3300995Y-1644033D01*
Y-1643271D01*
X3300868Y-1640985D01*
X3300360Y-1638826D01*
X3299725Y-1637048D01*
X3298963Y-1635651D01*
X3298201Y-1634381D01*
X3297566Y-1633619D01*
X3297058Y-1632984D01*
X3296931Y-1632857D01*
X3296042Y-1632222D01*
X3295153Y-1631587D01*
X3292867Y-1630698D01*
X3290327Y-1629936D01*
X3287787Y-1629428D01*
X3285374Y-1629174D01*
X3284358Y-1629047D01*
X3283469Y-1628920D01*
X3282707Y-1628793D01*
X3282199D01*
X3281818D01*
X3281691D01*
X3283342Y-1617109D01*
X3286009D01*
X3288422Y-1617236D01*
D02*
G37*
G36*
X3248163Y-1698389D02*
X3247147Y-1700548D01*
X3246131Y-1702707D01*
X3245115Y-1704612D01*
X3244226Y-1706263D01*
X3243464Y-1707660D01*
X3243210Y-1708168D01*
X3242956Y-1708549D01*
X3242829Y-1708676D01*
Y-1708803D01*
X3241305Y-1711343D01*
X3239781Y-1713502D01*
X3238384Y-1715534D01*
X3237114Y-1717185D01*
X3236098Y-1718455D01*
X3235209Y-1719471D01*
X3234701Y-1719979D01*
X3234574Y-1720233D01*
X3310901D01*
Y-1732171D01*
X3212857D01*
Y-1724424D01*
X3215270Y-1723027D01*
X3217556Y-1721376D01*
X3219842Y-1719598D01*
X3221747Y-1717947D01*
X3223525Y-1716296D01*
X3224795Y-1715026D01*
X3225303Y-1714518D01*
X3225684Y-1714137D01*
X3225811Y-1713883D01*
X3225938Y-1713756D01*
X3228351Y-1710835D01*
X3230510Y-1707914D01*
X3232542Y-1704866D01*
X3234193Y-1702199D01*
X3235463Y-1699786D01*
X3236098Y-1698770D01*
X3236479Y-1697881D01*
X3236860Y-1697246D01*
X3237114Y-1696738D01*
X3237368Y-1696357D01*
Y-1696230D01*
X3249052D01*
X3248163Y-1698389D01*
D02*
G37*
%LPC*%
G36*
X589679Y411720D02*
X541706Y385672D01*
X539118Y383786D01*
X536802Y382288D01*
X534873Y380518D01*
X532844Y378935D01*
X531287Y377368D01*
X530018Y375715D01*
X528833Y374350D01*
X526937Y371635D01*
X525768Y369796D01*
X525056Y368447D01*
X524886Y367873D01*
X523883Y363957D01*
X523537Y360159D01*
X523750Y356663D01*
X524234Y353555D01*
X524989Y350835D01*
X525812Y348874D01*
X526030Y348030D01*
X526333Y347472D01*
X526434Y347286D01*
X526535Y347100D01*
X528134Y344598D01*
X529718Y342568D01*
X531673Y340741D01*
X533240Y339184D01*
X534893Y337915D01*
X536242Y337203D01*
X537119Y336475D01*
X537406Y336390D01*
X540004Y335152D01*
X542873Y334303D01*
X545540Y333825D01*
X547819Y333618D01*
X549997Y333596D01*
X551602Y333745D01*
X552733Y333878D01*
X553206Y333894D01*
X556686Y334580D01*
X560150Y335738D01*
X563986Y337099D01*
X567248Y338629D01*
X570324Y340059D01*
X571727Y340579D01*
X615423Y364304D01*
X589679Y411720D01*
D02*
G37*
G36*
X415318Y318253D02*
X416355Y312797D01*
X417593Y306969D01*
X418645Y301040D01*
X419496Y295483D01*
X419963Y292848D01*
X420330Y290398D01*
X420596Y288135D01*
X420846Y286345D01*
X421181Y284841D01*
X421314Y283710D01*
X421245Y282950D01*
X421345Y282764D01*
X427873Y235268D01*
X476404Y261618D01*
X438069Y294974D01*
X433484Y298985D01*
X429271Y303198D01*
X425445Y307140D01*
X422108Y310624D01*
X420541Y312181D01*
X419261Y313653D01*
X418081Y314938D01*
X417188Y316139D01*
X416397Y317154D01*
X415807Y317796D01*
X415419Y318067D01*
X415318Y318253D01*
D02*
G37*
G36*
X420319Y2996643D02*
X415475Y2996131D01*
X411089Y2995132D01*
X406975Y2993745D01*
X403621Y2992430D01*
X400840Y2991286D01*
X399779Y2990656D01*
X399105Y2990298D01*
X398532Y2990127D01*
X398431Y2989941D01*
X395821Y2988223D01*
X393298Y2986219D01*
X388522Y2981824D01*
X384104Y2976755D01*
X380159Y2971671D01*
X378380Y2969265D01*
X376887Y2966945D01*
X375596Y2964997D01*
X374591Y2963135D01*
X373601Y2961746D01*
X372898Y2960443D01*
X372496Y2959698D01*
X372396Y2959511D01*
X369467Y2953639D01*
X366926Y2948038D01*
X365159Y2942981D01*
X364426Y2940731D01*
X363507Y2938583D01*
X362975Y2936706D01*
X362544Y2935015D01*
X362213Y2933511D01*
X361983Y2932193D01*
X361667Y2931162D01*
X361551Y2930502D01*
X361537Y2930029D01*
X361436Y2929843D01*
X360716Y2924943D01*
X360482Y2920501D01*
X360450Y2916431D01*
X360720Y2912920D01*
X361290Y2909968D01*
X361604Y2907875D01*
X361846Y2906542D01*
X362018Y2905969D01*
X362975Y2903288D01*
X364406Y2900593D01*
X365851Y2898370D01*
X367297Y2896148D01*
X368757Y2894399D01*
X369945Y2893036D01*
X370675Y2892161D01*
X370761Y2891875D01*
X370947Y2891774D01*
X373611Y2889135D01*
X377033Y2886567D01*
X380456Y2883999D01*
X383893Y2881904D01*
X386958Y2880010D01*
X388161Y2879120D01*
X422237Y2860734D01*
X481213Y2970037D01*
X448069Y2987921D01*
X445175Y2989241D01*
X442569Y2990648D01*
X440047Y2991768D01*
X437612Y2992601D01*
X435463Y2993520D01*
X433501Y2994339D01*
X431810Y2994770D01*
X430220Y2995387D01*
X428902Y2995618D01*
X427684Y2996035D01*
X426839Y2996250D01*
X425994Y2996466D01*
X425521Y2996481D01*
X425048Y2996495D01*
X422683Y2996569D01*
X420319Y2996643D01*
D02*
G37*
G36*
X5039420Y2881723D02*
X5040457Y2876267D01*
X5041695Y2870439D01*
X5042748Y2864510D01*
X5043598Y2858952D01*
X5044066Y2856317D01*
X5044433Y2853868D01*
X5044698Y2851605D01*
X5044948Y2849814D01*
X5045283Y2848311D01*
X5045416Y2847179D01*
X5045347Y2846420D01*
X5045448Y2846234D01*
X5051976Y2798737D01*
X5100506Y2825087D01*
X5062172Y2858444D01*
X5057587Y2862455D01*
X5053373Y2866667D01*
X5049547Y2870609D01*
X5046211Y2874094D01*
X5044643Y2875651D01*
X5043363Y2877123D01*
X5042183Y2878408D01*
X5041291Y2879609D01*
X5040499Y2880623D01*
X5039909Y2881266D01*
X5039521Y2881537D01*
X5039420Y2881723D01*
D02*
G37*
G36*
X4833167Y491028D02*
X4828997Y490874D01*
X4825471Y490132D01*
X4822805Y489647D01*
X4821845Y489203D01*
X4820985Y488946D01*
X4820512Y488961D01*
X4820412Y488775D01*
X4817143Y487173D01*
X4813945Y484811D01*
X4811120Y482248D01*
X4808481Y479585D01*
X4806415Y477094D01*
X4805340Y475991D01*
X4804737Y474874D01*
X4804149Y474229D01*
X4803561Y473585D01*
X4803360Y473213D01*
X4803259Y473026D01*
X4861169Y441780D01*
X4863223Y446923D01*
X4864316Y451622D01*
X4864836Y456150D01*
X4864868Y460220D01*
X4864684Y463444D01*
X4864285Y465823D01*
X4863957Y467443D01*
X4863786Y468016D01*
X4862913Y470410D01*
X4861941Y472618D01*
X4859594Y476288D01*
X4856860Y479687D01*
X4854297Y482512D01*
X4851805Y484578D01*
X4850602Y485467D01*
X4849671Y485970D01*
X4848841Y486658D01*
X4847724Y487261D01*
X4845202Y488381D01*
X4842681Y489501D01*
X4837695Y490508D01*
X4833167Y491028D01*
D02*
G37*
G36*
X5215786Y329055D02*
X5213035Y328857D01*
X5210555Y328272D01*
X5208548Y327671D01*
X5206829Y327157D01*
X5205868Y326714D01*
X5205481Y326442D01*
X5202685Y324825D01*
X5200161Y322821D01*
X5197823Y320716D01*
X5195959Y318597D01*
X5194481Y316750D01*
X5193391Y315174D01*
X5192788Y314057D01*
X5192688Y313871D01*
X5192587Y313684D01*
X5190548Y309015D01*
X5189470Y304788D01*
X5188779Y300834D01*
X5188761Y297237D01*
X5189045Y294199D01*
X5189358Y292106D01*
X5189787Y290673D01*
X5189959Y290099D01*
X5190846Y288178D01*
X5192105Y286056D01*
X5195111Y282271D01*
X5198791Y278843D01*
X5202672Y275787D01*
X5206280Y273118D01*
X5207856Y272028D01*
X5209345Y271224D01*
X5210548Y270335D01*
X5249093Y249537D01*
X5276722Y300744D01*
X5235757Y322847D01*
X5231933Y324671D01*
X5228853Y326092D01*
X5226332Y327212D01*
X5224455Y327744D01*
X5223051Y328261D01*
X5222206Y328476D01*
X5222020Y328577D01*
X5218910Y329052D01*
X5215786Y329055D01*
D02*
G37*
%LPD*%
D16*
X3141947Y-1727400D02*
G03*
X3141947Y-1727400I-15240J0D01*
G01*
%TF.MD5,290b961d5ca5758de7a33c1ec697f964*%
M02*
