%TF.GenerationSoftware,Altium Limited,Altium Designer,21.8.1 (53)*%
G04 Layer_Color=16711935*
%FSLAX45Y45*%
%MOMM*%
%TF.SameCoordinates,9CAB6441-B9E9-44DD-A1F1-36E89FF17874*%
%TF.FilePolarity,Positive*%
%TF.FileFunction,Other,Mechanical_1*%
%TF.Part,Single*%
G01*
G75*
%TA.AperFunction,NonConductor*%
%ADD20C,0.15240*%
D20*
X2764505Y3254818D02*
X2894882Y3254706D01*
X3025056Y3244490D01*
X3154241Y3224189D01*
X3268999Y3197360D01*
X3381737Y3162528D01*
X3491896Y3119834D01*
X3598925Y3069459D01*
X3702285Y3011622D01*
X3801450Y2946579D01*
X3895917Y2874624D01*
X3985195Y2796085D01*
X4068824Y2711327D01*
X4148494Y2618063D01*
X4219339Y2521932D01*
X4264697Y2451927D01*
X4307314Y2378338D01*
X4364817Y2262668D01*
X4413361Y2142738D01*
X4452615Y2019242D01*
X4482302Y1892897D01*
X4502199Y1764446D01*
X4512144Y1634644D01*
X4512031Y1504267D02*
X4512144Y1634644D01*
X4501816Y1374093D02*
X4512031Y1504267D01*
X4481515Y1244908D02*
X4501816Y1374093D01*
X4454685Y1130151D02*
X4481515Y1244908D01*
X4419853Y1017412D02*
X4454685Y1130151D01*
X4377159Y907252D02*
X4419853Y1017412D01*
X4326785Y800224D02*
X4377159Y907252D01*
X4268947Y696864D02*
X4326785Y800224D01*
X4203905Y597699D02*
X4268947Y696864D01*
X4131950Y503233D02*
X4203905Y597699D01*
X4053411Y413953D02*
X4131950Y503233D01*
X3968652Y330324D02*
X4053411Y413953D01*
X3875389Y250656D02*
X3968652Y330324D01*
X3779258Y179811D02*
X3875389Y250656D01*
X3709252Y134452D02*
X3779258Y179811D01*
X3635663Y91835D02*
X3709252Y134452D01*
X3519993Y34332D02*
X3635663Y91835D01*
X3400064Y-14212D02*
X3519993Y34332D01*
X3276568Y-53466D02*
X3400064Y-14212D01*
X3150223Y-83153D02*
X3276568Y-53466D01*
X3021771Y-103050D02*
X3150223Y-83153D01*
X2891970Y-112995D02*
X3021771Y-103050D01*
X2761593Y-112882D02*
X2891970Y-112995D01*
X2631419Y-102667D02*
X2761593Y-112882D01*
X2502234Y-82366D02*
X2631419Y-102667D01*
X2387476Y-55536D02*
X2502234Y-82366D01*
X2274738Y-20704D02*
X2387476Y-55536D01*
X2164578Y21989D02*
X2274738Y-20704D01*
X2057549Y72365D02*
X2164578Y21989D01*
X1954190Y130202D02*
X2057549Y72365D01*
X1855024Y195245D02*
X1954190Y130202D01*
X1760558Y267200D02*
X1855024Y195245D01*
X1671279Y345738D02*
X1760558Y267200D01*
X1587650Y430497D02*
X1671279Y345738D01*
X1507982Y523760D02*
X1587650Y430497D01*
X1437136Y619891D02*
X1507982Y523760D01*
X1391778Y689897D02*
X1437136Y619891D01*
X1349161Y763486D02*
X1391778Y689897D01*
X1291658Y879156D02*
X1349161Y763486D01*
X1243114Y999085D02*
X1291658Y879156D01*
X1203860Y1122581D02*
X1243114Y999085D01*
X1174173Y1248926D02*
X1203860Y1122581D01*
X1154275Y1377378D02*
X1174173Y1248926D01*
X1144330Y1507179D02*
X1154275Y1377378D01*
X1144330Y1507179D02*
X1144443Y1637557D01*
X1154659Y1767730D01*
X1174960Y1896915D01*
X1201789Y2011673D01*
X1236621Y2124412D01*
X1279315Y2234571D01*
X1329691Y2341600D01*
X1387527Y2444959D01*
X1452571Y2544125D01*
X1524525Y2638591D01*
X1603064Y2727870D01*
X1687822Y2811499D01*
X1781086Y2891168D01*
X1877216Y2962013D01*
X1947223Y3007372D01*
X2020812Y3049988D01*
X2136482Y3107491D01*
X2256411Y3156035D01*
X2379907Y3195290D01*
X2506252Y3224976D01*
X2634704Y3244873D01*
X2764505Y3254818D01*
X2862780Y3923773D02*
X3016837Y3916456D01*
X2708740Y3920990D02*
X2862780Y3923773D01*
X2555379Y3908152D02*
X2708740Y3920990D01*
X2403349Y3885348D02*
X2555379Y3908152D01*
X2253297Y3852707D02*
X2403349Y3885348D01*
X2105856Y3810399D02*
X2253297Y3852707D01*
X1961645Y3758640D02*
X2105856Y3810399D01*
X1821266Y3697681D02*
X1961645Y3758640D01*
X1685302Y3627811D02*
X1821266Y3697681D01*
X1606380Y3581932D02*
X1685302Y3627811D01*
X1530437Y3533780D02*
X1606380Y3581932D01*
X1415835Y3453000D02*
X1530437Y3533780D01*
X1304715Y3364238D02*
X1415835Y3453000D01*
X1200802Y3270497D02*
X1304715Y3364238D01*
X1102732Y3170839D02*
X1200802Y3270497D01*
X1010835Y3065631D02*
X1102732Y3170839D01*
X935436Y2968925D02*
X1010835Y3065631D01*
X864867Y2867953D02*
X935436Y2968925D01*
X346789Y3147659D02*
X864867Y2867953D01*
X341145Y3202532D02*
X346789Y3147659D01*
X325754Y3258925D02*
X341145Y3202532D01*
X303128Y3308358D02*
X325754Y3258925D01*
X273271Y3353375D02*
X303128Y3308358D01*
X237030Y3392983D02*
X273271Y3353375D01*
X190457Y3429637D02*
X237030Y3392983D01*
X138719Y3457655D02*
X190457Y3429637D01*
X83403Y3476424D02*
X138719Y3457655D01*
X41245Y3484139D02*
X83403Y3476424D01*
X-1Y3486599D02*
X41245Y3484139D01*
X-54843Y3482236D02*
X-1Y3486599D01*
X-111133Y3468315D02*
X-54843Y3482236D01*
X-161000Y3446972D02*
X-111133Y3468315D01*
X-206656Y3418320D02*
X-161000Y3446972D01*
X-247092Y3383176D02*
X-206656Y3418320D01*
X-284852Y3337671D02*
X-247092Y3383176D01*
X-314155Y3286802D02*
X-284852Y3337671D01*
X-334346Y3232130D02*
X-314155Y3286802D01*
X-343877Y3185288D02*
X-334346Y3232130D01*
X-346884Y3139713D02*
X-343877Y3185288D01*
X-346884Y3139713D02*
X-342522Y3084870D01*
X-328600Y3028580D01*
X-307258Y2978712D01*
X-278608Y2933057D01*
X-243464Y2892621D01*
X-197960Y2854861D01*
X-147091Y2825559D01*
X-92420Y2805368D01*
X-45578Y2795838D01*
X-4Y2792831D01*
X59065Y2797898D01*
X115853Y2812752D01*
X145901Y2825010D01*
X174176Y2839734D01*
X692933Y2559656D01*
X638005Y2431154D02*
X692933Y2559656D01*
X590473Y2298607D02*
X638005Y2431154D01*
X551285Y2164726D02*
X590473Y2298607D01*
X520124Y2028879D02*
X551285Y2164726D01*
X497076Y1891548D02*
X520124Y2028879D01*
X481056Y1737802D02*
X497076Y1891548D01*
X475164Y1583503D02*
X481056Y1737802D01*
X475164Y1583503D02*
X479396Y1429316D01*
X493698Y1275902D01*
X517979Y1123917D01*
X552100Y974006D01*
X595885Y826804D01*
X641507Y701826D01*
X693326Y581341D01*
X174177Y301026D02*
X693326Y581341D01*
X125530Y324416D02*
X174177Y301026D01*
X73083Y340142D02*
X125530Y324416D01*
X36666Y345985D02*
X73083Y340142D01*
X-4Y347929D02*
X36666Y345985D01*
X-54846Y343566D02*
X-4Y347929D01*
X-111136Y329645D02*
X-54846Y343566D01*
X-161002Y308304D02*
X-111136Y329645D01*
X-206658Y279652D02*
X-161002Y308304D01*
X-247093Y244509D02*
X-206658Y279652D01*
X-284854Y199004D02*
X-247093Y244509D01*
X-314155Y148136D02*
X-284854Y199004D01*
X-334346Y93464D02*
X-314155Y148136D01*
X-343877Y46622D02*
X-334346Y93464D01*
X-346883Y1047D02*
X-343877Y46622D01*
X-346883Y1047D02*
X-342520Y-53797D01*
X-328599Y-110087D01*
X-307256Y-159954D01*
X-278604Y-205610D01*
X-243460Y-246047D01*
X-197955Y-283808D01*
X-147086Y-313110D01*
X-92415Y-333301D01*
X-45574Y-342832D01*
X0Y-345839D01*
X54753Y-341491D01*
X110772Y-327677D01*
X160594Y-306426D01*
X206228Y-277879D01*
X246667Y-242847D01*
X284457Y-197479D01*
X313823Y-146745D01*
X334113Y-92201D01*
X343250Y-49009D01*
X346789Y-6898D01*
X865382Y273106D01*
X946513Y158035D01*
X1036466Y45570D01*
X1130699Y-58652D01*
X1230882Y-156969D01*
X1336645Y-249053D01*
X1447597Y-334595D01*
X1563333Y-413312D01*
X1683434Y-484947D01*
X1807462Y-549265D01*
X1934974Y-606062D01*
X2065511Y-655158D01*
X2198609Y-696401D01*
X2333796Y-729668D01*
X2485868Y-757162D01*
X2639251Y-774601D01*
X2793281Y-781942D01*
X2947295Y-779188D01*
X3100632Y-766382D01*
X3252640Y-743613D01*
X3402672Y-711010D01*
X3550097Y-668745D01*
X3694295Y-617029D01*
X3834663Y-556116D01*
X3930791Y-507914D01*
X4023097Y-456266D01*
Y-659929D02*
Y-456266D01*
Y-1515946D02*
Y-659929D01*
X4022708Y-1524244D02*
X4023097Y-1515946D01*
X4021528Y-1529504D02*
X4022708Y-1524244D01*
X4019766Y-1533594D02*
X4021528Y-1529504D01*
X4017486Y-1537007D02*
X4019766Y-1533594D01*
X4014939Y-1539673D02*
X4017486Y-1537007D01*
X4011985Y-1541887D02*
X4014939Y-1539673D01*
X4008705Y-1543604D02*
X4011985Y-1541887D01*
X4005181Y-1544813D02*
X4008705Y-1543604D01*
X4001501Y-1545542D02*
X4005181Y-1544813D01*
X3997315Y-1545891D02*
X4001501Y-1545542D01*
X3993098Y-1545946D02*
X3997315Y-1545891D01*
X3985902Y-1545946D02*
X3993098D01*
X3406095Y-1545960D02*
X3985902Y-1545946D01*
X2821027Y-1545905D02*
X3406095Y-1545960D01*
X2816125Y-1545926D02*
X2821027Y-1545905D01*
X2811237Y-1546083D02*
X2816125Y-1545926D01*
X2806393Y-1546477D02*
X2811237Y-1546083D01*
X2801637Y-1547182D02*
X2806393Y-1546477D01*
X2797029Y-1548245D02*
X2801637Y-1547182D01*
X2792632Y-1549690D02*
X2797029Y-1548245D01*
X2788514Y-1551520D02*
X2792632Y-1549690D01*
X2784741Y-1553721D02*
X2788514Y-1551520D01*
X2781372Y-1556266D02*
X2784741Y-1553721D01*
X2778459Y-1559118D02*
X2781372Y-1556266D01*
X2776037Y-1562229D02*
X2778459Y-1559118D01*
X2774124Y-1565552D02*
X2776037Y-1562229D01*
X2772717Y-1569034D02*
X2774124Y-1565552D01*
X2771783Y-1572629D02*
X2772717Y-1569034D01*
X2771260Y-1576290D02*
X2771783Y-1572629D01*
X2771051Y-1579985D02*
X2771260Y-1576290D01*
X2771021Y-1583689D02*
X2771051Y-1579985D01*
X2771011Y-1672958D02*
X2771021Y-1583689D01*
X2771011Y-1672958D02*
X2771021Y-1762228D01*
X2771051Y-1765932D01*
X2771260Y-1769627D01*
X2771783Y-1773288D01*
X2772717Y-1776882D01*
X2774125Y-1780364D01*
X2776037Y-1783687D01*
X2778459Y-1786799D01*
X2781372Y-1789651D01*
X2784741Y-1792196D01*
X2788515Y-1794397D01*
X2792632Y-1796227D01*
X2797029Y-1797672D01*
X2801637Y-1798735D01*
X2806393Y-1799440D01*
X2811237Y-1799834D01*
X2816126Y-1799991D01*
X2821027Y-1800013D01*
X3406095Y-1799957D01*
X3985902Y-1799945D01*
X4023098Y-1799951D01*
X4109332D01*
X4130455Y-1799057D01*
X4152092Y-1796267D01*
X4174002Y-1791442D01*
X4195910Y-1784481D01*
X4217513Y-1775333D01*
X4238489Y-1764004D01*
X4258517Y-1750560D01*
X4277282Y-1735134D01*
X4294501Y-1717917D01*
X4309928Y-1699153D01*
X4323374Y-1679127D01*
X4334706Y-1658151D01*
X4343856Y-1636549D01*
X4350818Y-1614642D01*
X4355645Y-1592732D01*
X4358437Y-1571096D01*
X4359333Y-1549972D01*
X4359335Y-1515946D01*
X4359341Y-659929D01*
Y-215946D01*
X4457475Y-126947D01*
X4552927Y-29895D01*
X4644874Y75262D01*
X4791099Y273101D01*
X5309704Y-6898D01*
X5315349Y-61779D01*
X5330749Y-118194D01*
X5353383Y-167631D01*
X5383249Y-212649D01*
X5419499Y-252258D01*
X5466084Y-288908D01*
X5517833Y-316920D01*
X5573159Y-335680D01*
X5615277Y-343382D01*
X5656493Y-345838D01*
X5711336Y-341476D01*
X5767625Y-327554D01*
X5817493Y-306211D01*
X5863149Y-277560D01*
X5903584Y-242415D01*
X5941345Y-196910D01*
X5970647Y-146041D01*
X5990838Y-91369D01*
X6000370Y-44527D01*
X6003376Y1047D01*
X5999013Y55891D02*
X6003376Y1047D01*
X5985093Y112181D02*
X5999013Y55891D01*
X5963751Y162048D02*
X5985093Y112181D01*
X5935100Y207704D02*
X5963751Y162048D01*
X5899956Y248139D02*
X5935100Y207704D01*
X5854452Y285900D02*
X5899956Y248139D01*
X5803584Y315201D02*
X5854452Y285900D01*
X5748913Y335392D02*
X5803584Y315201D01*
X5702071Y344923D02*
X5748913Y335392D01*
X5656496Y347929D02*
X5702071Y344923D01*
X5597450Y342866D02*
X5656496Y347929D01*
X5540723Y328038D02*
X5597450Y342866D01*
X5510624Y315766D02*
X5540723Y328038D01*
X5482316Y301027D02*
X5510624Y315766D01*
X4963154Y581331D02*
X5482316Y301027D01*
X4963154Y581331D02*
X5018892Y711744D01*
X5067754Y848622D01*
X5108902Y991510D01*
X5142008Y1142420D01*
X5165092Y1294769D01*
X5178159Y1448381D01*
X5181143Y1602351D01*
X5174062Y1756021D02*
X5181143Y1602351D01*
X5156980Y1908733D02*
X5174062Y1756021D01*
X5130002Y2059838D02*
X5156980Y1908733D01*
X5093276Y2208698D02*
X5130002Y2059838D01*
X5046992Y2354687D02*
X5093276Y2208698D01*
X5007352Y2458965D02*
X5046992Y2354687D01*
X4963553Y2559653D02*
X5007352Y2458965D01*
X4963553Y2559653D02*
X5482316Y2839734D01*
X5530865Y2816382D01*
X5582998Y2800708D01*
X5619664Y2794793D01*
X5656496Y2792832D01*
X5711339Y2797194D01*
X5767628Y2811115D01*
X5817496Y2832457D01*
X5863151Y2861108D01*
X5903586Y2896252D01*
X5941346Y2941756D01*
X5970647Y2992625D01*
X5990838Y3047296D01*
X6000370Y3094139D01*
X6003376Y3139714D01*
X5999013Y3194557D02*
X6003376Y3139714D01*
X5985091Y3250847D02*
X5999013Y3194557D01*
X5963749Y3300715D02*
X5985091Y3250847D01*
X5935098Y3346371D02*
X5963749Y3300715D01*
X5899952Y3386808D02*
X5935098Y3346371D01*
X5854448Y3424569D02*
X5899952Y3386808D01*
X5803578Y3453871D02*
X5854448Y3424569D01*
X5748907Y3474062D02*
X5803578Y3453871D01*
X5702066Y3483593D02*
X5748907Y3474062D01*
X5656492Y3486600D02*
X5702066Y3483593D01*
X5601700Y3482246D02*
X5656492Y3486600D01*
X5545562Y3468385D02*
X5601700Y3482246D01*
X5495720Y3447093D02*
X5545562Y3468385D01*
X5450077Y3418501D02*
X5495720Y3447093D01*
X5409640Y3383420D02*
X5450077Y3418501D01*
X5371863Y3337992D02*
X5409640Y3383420D01*
X5342525Y3287198D02*
X5371863Y3337992D01*
X5322278Y3232598D02*
X5342525Y3287198D01*
X5313219Y3189614D02*
X5322278Y3232598D01*
X5309704Y3147659D02*
X5313219Y3189614D01*
X4791112Y2868718D02*
X5309704Y3147659D01*
X4709966Y2983808D02*
X4791112Y2868718D01*
X4619960Y3096332D02*
X4709966Y2983808D01*
X4525706Y3200567D02*
X4619960Y3096332D01*
X4425499Y3298895D02*
X4525706Y3200567D01*
X4319713Y3390986D02*
X4425499Y3298895D01*
X4208736Y3476534D02*
X4319713Y3390986D01*
X4092973Y3555254D02*
X4208736Y3476534D01*
X3972847Y3626887D02*
X4092973Y3555254D01*
X3848791Y3691203D02*
X3972847Y3626887D01*
X3721253Y3747994D02*
X3848791Y3691203D01*
X3590689Y3797081D02*
X3721253Y3747994D01*
X3457564Y3838313D02*
X3590689Y3797081D01*
X3322352Y3871566D02*
X3457564Y3838313D01*
X3170250Y3899040D02*
X3322352Y3871566D01*
X3016837Y3916456D02*
X3170250Y3899040D01*
%TF.MD5,94688ffdbe675839f72692e211a9f8fb*%
M02*
