%TF.GenerationSoftware,Altium Limited,Altium Designer,21.8.1 (53)*%
G04 Layer_Color=32896*
%FSLAX45Y45*%
%MOMM*%
%TF.SameCoordinates,9CAB6441-B9E9-44DD-A1F1-36E89FF17874*%
%TF.FilePolarity,Positive*%
%TF.FileFunction,Other,Mechanical_4*%
%TF.Part,Single*%
G01*
G75*
G36*
X2807816Y-1545551D02*
X3051048Y-1545548D01*
X3051047Y-1800013D01*
X2806965Y-1800013D01*
X2799820D01*
X2786618Y-1794545D01*
X2776514Y-1784440D01*
X2771045Y-1771238D01*
X2771045Y-1764093D01*
D01*
X2771046Y-1582321D01*
Y-1575007D01*
X2776644Y-1561492D01*
X2786987Y-1551149D01*
X2800502Y-1545551D01*
X2807816Y-1545551D01*
X2807816Y-1545551D01*
D02*
G37*
G36*
X3695095Y-1858712D02*
X3695970D01*
X3697969Y-1858962D01*
X3700344Y-1859462D01*
X3702843Y-1860086D01*
X3705468Y-1860961D01*
X3707967Y-1862086D01*
X3708092D01*
X3708217Y-1862211D01*
X3709092Y-1862711D01*
X3710216Y-1863461D01*
X3711716Y-1864585D01*
X3713216Y-1865960D01*
X3714965Y-1867709D01*
X3716590Y-1869709D01*
X3717964Y-1871958D01*
Y-1872083D01*
X3718089Y-1872208D01*
X3718339Y-1872583D01*
X3718589Y-1873083D01*
X3718839Y-1873708D01*
X3719089Y-1874458D01*
X3719839Y-1876207D01*
X3720589Y-1878457D01*
X3721214Y-1880956D01*
X3721713Y-1883830D01*
X3721963Y-1886955D01*
X3712216Y-1887829D01*
Y-1887704D01*
Y-1887454D01*
X3712091Y-1886955D01*
X3711966Y-1886330D01*
X3711841Y-1885580D01*
X3711716Y-1884705D01*
X3711216Y-1882706D01*
X3710466Y-1880456D01*
X3709467Y-1878207D01*
X3708217Y-1876082D01*
X3706592Y-1874208D01*
X3706342Y-1873958D01*
X3705718Y-1873458D01*
X3704593Y-1872833D01*
X3703093Y-1871958D01*
X3701219Y-1871084D01*
X3698969Y-1870459D01*
X3696220Y-1869959D01*
X3693221Y-1869709D01*
X3691721D01*
X3690971Y-1869834D01*
X3690221Y-1869959D01*
X3688222Y-1870209D01*
X3685973Y-1870709D01*
X3683848Y-1871334D01*
X3681599Y-1872333D01*
X3679724Y-1873708D01*
X3679474Y-1873833D01*
X3678974Y-1874458D01*
X3678350Y-1875208D01*
X3677475Y-1876457D01*
X3676600Y-1877832D01*
X3675975Y-1879581D01*
X3675475Y-1881581D01*
X3675225Y-1883830D01*
Y-1884080D01*
Y-1884705D01*
X3675350Y-1885830D01*
X3675600Y-1887080D01*
X3675975Y-1888454D01*
X3676600Y-1889954D01*
X3677350Y-1891328D01*
X3678474Y-1892703D01*
X3678599Y-1892828D01*
X3679224Y-1893203D01*
X3680224Y-1893828D01*
X3680849Y-1894203D01*
X3681599Y-1894703D01*
X3682598Y-1895077D01*
X3683723Y-1895577D01*
X3684973Y-1896202D01*
X3686347Y-1896702D01*
X3687847Y-1897327D01*
X3689722Y-1897827D01*
X3691596Y-1898452D01*
X3693721Y-1899076D01*
X3693846D01*
X3694220Y-1899201D01*
X3694845Y-1899326D01*
X3695595Y-1899576D01*
X3696470Y-1899826D01*
X3697595Y-1900201D01*
X3700094Y-1900951D01*
X3702718Y-1901826D01*
X3705343Y-1902701D01*
X3707842Y-1903700D01*
X3708842Y-1904075D01*
X3709841Y-1904575D01*
X3709966D01*
X3710216Y-1904700D01*
X3710466Y-1904950D01*
X3710966Y-1905200D01*
X3712341Y-1906075D01*
X3713840Y-1907074D01*
X3715590Y-1908574D01*
X3717340Y-1910199D01*
X3719089Y-1912073D01*
X3720589Y-1914198D01*
Y-1914323D01*
X3720714Y-1914448D01*
X3720964Y-1914822D01*
X3721214Y-1915197D01*
X3721838Y-1916447D01*
X3722463Y-1918197D01*
X3723213Y-1920196D01*
X3723713Y-1922570D01*
X3724213Y-1925195D01*
X3724338Y-1928194D01*
Y-1928319D01*
Y-1928569D01*
Y-1928944D01*
Y-1929569D01*
X3724213Y-1930318D01*
X3724088Y-1931193D01*
X3723838Y-1933193D01*
X3723338Y-1935442D01*
X3722713Y-1937942D01*
X3721713Y-1940566D01*
X3720464Y-1943190D01*
Y-1943315D01*
X3720339Y-1943440D01*
X3720089Y-1943815D01*
X3719714Y-1944315D01*
X3718839Y-1945440D01*
X3717714Y-1946939D01*
X3716215Y-1948564D01*
X3714465Y-1950188D01*
X3712341Y-1951813D01*
X3709966Y-1953313D01*
X3709841D01*
X3709716Y-1953438D01*
X3709342Y-1953563D01*
X3708842Y-1953812D01*
X3708217Y-1954062D01*
X3707467Y-1954437D01*
X3705593Y-1954937D01*
X3703218Y-1955562D01*
X3700594Y-1956187D01*
X3697595Y-1956562D01*
X3694220Y-1956687D01*
X3692846D01*
X3691846Y-1956562D01*
X3690596Y-1956437D01*
X3689222Y-1956187D01*
X3687597Y-1955937D01*
X3685848Y-1955562D01*
X3684098Y-1955187D01*
X3682224Y-1954562D01*
X3680349Y-1953937D01*
X3678350Y-1953063D01*
X3676475Y-1952063D01*
X3674600Y-1950938D01*
X3672726Y-1949564D01*
X3671101Y-1948064D01*
X3670976Y-1947939D01*
X3670726Y-1947689D01*
X3670352Y-1947189D01*
X3669727Y-1946439D01*
X3669102Y-1945565D01*
X3668352Y-1944440D01*
X3667602Y-1943190D01*
X3666852Y-1941816D01*
X3665978Y-1940191D01*
X3665228Y-1938441D01*
X3664478Y-1936442D01*
X3663853Y-1934317D01*
X3663228Y-1932068D01*
X3662853Y-1929694D01*
X3662479Y-1927069D01*
X3662354Y-1924320D01*
X3672101Y-1923445D01*
Y-1923570D01*
Y-1923820D01*
X3672226Y-1924195D01*
Y-1924695D01*
X3672476Y-1926195D01*
X3672851Y-1927944D01*
X3673351Y-1929944D01*
X3673851Y-1931943D01*
X3674725Y-1933943D01*
X3675600Y-1935692D01*
X3675725Y-1935942D01*
X3676100Y-1936442D01*
X3676725Y-1937192D01*
X3677600Y-1938191D01*
X3678724Y-1939316D01*
X3679974Y-1940441D01*
X3681599Y-1941691D01*
X3683348Y-1942690D01*
X3683598Y-1942815D01*
X3684223Y-1943065D01*
X3685348Y-1943565D01*
X3686722Y-1943940D01*
X3688472Y-1944440D01*
X3690471Y-1944940D01*
X3692596Y-1945190D01*
X3694970Y-1945315D01*
X3695845D01*
X3696470Y-1945190D01*
X3697220D01*
X3698094Y-1945065D01*
X3700219Y-1944815D01*
X3702468Y-1944190D01*
X3704843Y-1943440D01*
X3707092Y-1942440D01*
X3709217Y-1940941D01*
X3709467Y-1940691D01*
X3709966Y-1940066D01*
X3710841Y-1939191D01*
X3711841Y-1937817D01*
X3712716Y-1936067D01*
X3713590Y-1934192D01*
X3714090Y-1931818D01*
X3714340Y-1929319D01*
Y-1929069D01*
Y-1928569D01*
X3714215Y-1927819D01*
X3714090Y-1926819D01*
X3713840Y-1925695D01*
X3713590Y-1924445D01*
X3713091Y-1923195D01*
X3712466Y-1921946D01*
X3712341Y-1921821D01*
X3712091Y-1921446D01*
X3711716Y-1920821D01*
X3711091Y-1920071D01*
X3710216Y-1919321D01*
X3709342Y-1918447D01*
X3708217Y-1917572D01*
X3706842Y-1916822D01*
X3706717Y-1916697D01*
X3706092Y-1916447D01*
X3705593Y-1916197D01*
X3704968Y-1915947D01*
X3704343Y-1915697D01*
X3703468Y-1915322D01*
X3702468Y-1914947D01*
X3701219Y-1914572D01*
X3699969Y-1914073D01*
X3698469Y-1913573D01*
X3696845Y-1913073D01*
X3694970Y-1912448D01*
X3692971Y-1911823D01*
X3690721Y-1911198D01*
X3690596D01*
X3690221Y-1911073D01*
X3689722Y-1910823D01*
X3688972Y-1910574D01*
X3687972Y-1910324D01*
X3686972Y-1909949D01*
X3684598Y-1909199D01*
X3682099Y-1908199D01*
X3679474Y-1907074D01*
X3677100Y-1905950D01*
X3676100Y-1905325D01*
X3675100Y-1904700D01*
X3674850Y-1904575D01*
X3674351Y-1904075D01*
X3673476Y-1903325D01*
X3672476Y-1902326D01*
X3671351Y-1901201D01*
X3670102Y-1899701D01*
X3668977Y-1898077D01*
X3667852Y-1896327D01*
X3667727Y-1896077D01*
X3667477Y-1895452D01*
X3667102Y-1894328D01*
X3666603Y-1892953D01*
X3666103Y-1891203D01*
X3665728Y-1889329D01*
X3665478Y-1887205D01*
X3665353Y-1884830D01*
Y-1884705D01*
Y-1884330D01*
Y-1883705D01*
X3665478Y-1882956D01*
X3665603Y-1881956D01*
X3665728Y-1880706D01*
X3665978Y-1879456D01*
X3666228Y-1878082D01*
X3667102Y-1875083D01*
X3667727Y-1873583D01*
X3668477Y-1871958D01*
X3669352Y-1870334D01*
X3670352Y-1868834D01*
X3671476Y-1867335D01*
X3672726Y-1865960D01*
X3672851Y-1865835D01*
X3673101Y-1865585D01*
X3673476Y-1865335D01*
X3674101Y-1864835D01*
X3674850Y-1864210D01*
X3675725Y-1863586D01*
X3676850Y-1862961D01*
X3678100Y-1862211D01*
X3679474Y-1861586D01*
X3680974Y-1860961D01*
X3682598Y-1860336D01*
X3684348Y-1859712D01*
X3686347Y-1859212D01*
X3688347Y-1858962D01*
X3690596Y-1858712D01*
X3692846Y-1858587D01*
X3694345D01*
X3695095Y-1858712D01*
D02*
G37*
G36*
X2807822D02*
X2808697D01*
X2810697Y-1858962D01*
X2813071Y-1859462D01*
X2815570Y-1860086D01*
X2818195Y-1860961D01*
X2820694Y-1862086D01*
X2820819D01*
X2820944Y-1862211D01*
X2821819Y-1862711D01*
X2822944Y-1863461D01*
X2824443Y-1864585D01*
X2825943Y-1865960D01*
X2827692Y-1867709D01*
X2829317Y-1869709D01*
X2830692Y-1871958D01*
Y-1872083D01*
X2830817Y-1872208D01*
X2831066Y-1872583D01*
X2831316Y-1873083D01*
X2831566Y-1873708D01*
X2831816Y-1874458D01*
X2832566Y-1876207D01*
X2833316Y-1878457D01*
X2833941Y-1880956D01*
X2834441Y-1883830D01*
X2834691Y-1886955D01*
X2824943Y-1887829D01*
Y-1887704D01*
Y-1887454D01*
X2824818Y-1886955D01*
X2824693Y-1886330D01*
X2824568Y-1885580D01*
X2824443Y-1884705D01*
X2823943Y-1882706D01*
X2823193Y-1880456D01*
X2822194Y-1878207D01*
X2820944Y-1876082D01*
X2819319Y-1874208D01*
X2819070Y-1873958D01*
X2818445Y-1873458D01*
X2817320Y-1872833D01*
X2815820Y-1871958D01*
X2813946Y-1871084D01*
X2811696Y-1870459D01*
X2808947Y-1869959D01*
X2805948Y-1869709D01*
X2804448D01*
X2803698Y-1869834D01*
X2802949Y-1869959D01*
X2800949Y-1870209D01*
X2798700Y-1870709D01*
X2796575Y-1871334D01*
X2794326Y-1872333D01*
X2792451Y-1873708D01*
X2792201Y-1873833D01*
X2791702Y-1874458D01*
X2791077Y-1875208D01*
X2790202Y-1876457D01*
X2789327Y-1877832D01*
X2788702Y-1879581D01*
X2788202Y-1881581D01*
X2787953Y-1883830D01*
Y-1884080D01*
Y-1884705D01*
X2788077Y-1885830D01*
X2788327Y-1887080D01*
X2788702Y-1888454D01*
X2789327Y-1889954D01*
X2790077Y-1891328D01*
X2791202Y-1892703D01*
X2791327Y-1892828D01*
X2791951Y-1893203D01*
X2792951Y-1893828D01*
X2793576Y-1894203D01*
X2794326Y-1894703D01*
X2795326Y-1895077D01*
X2796450Y-1895577D01*
X2797700Y-1896202D01*
X2799075Y-1896702D01*
X2800574Y-1897327D01*
X2802449Y-1897827D01*
X2804323Y-1898452D01*
X2806448Y-1899076D01*
X2806573D01*
X2806948Y-1899201D01*
X2807572Y-1899326D01*
X2808322Y-1899576D01*
X2809197Y-1899826D01*
X2810322Y-1900201D01*
X2812821Y-1900951D01*
X2815445Y-1901826D01*
X2818070Y-1902701D01*
X2820569Y-1903700D01*
X2821569Y-1904075D01*
X2822569Y-1904575D01*
X2822694D01*
X2822944Y-1904700D01*
X2823193Y-1904950D01*
X2823693Y-1905200D01*
X2825068Y-1906075D01*
X2826568Y-1907074D01*
X2828317Y-1908574D01*
X2830067Y-1910199D01*
X2831816Y-1912073D01*
X2833316Y-1914198D01*
Y-1914323D01*
X2833441Y-1914448D01*
X2833691Y-1914822D01*
X2833941Y-1915197D01*
X2834566Y-1916447D01*
X2835190Y-1918197D01*
X2835940Y-1920196D01*
X2836440Y-1922570D01*
X2836940Y-1925195D01*
X2837065Y-1928194D01*
Y-1928319D01*
Y-1928569D01*
Y-1928944D01*
Y-1929569D01*
X2836940Y-1930318D01*
X2836815Y-1931193D01*
X2836565Y-1933193D01*
X2836065Y-1935442D01*
X2835440Y-1937942D01*
X2834441Y-1940566D01*
X2833191Y-1943190D01*
Y-1943315D01*
X2833066Y-1943440D01*
X2832816Y-1943815D01*
X2832441Y-1944315D01*
X2831566Y-1945440D01*
X2830442Y-1946939D01*
X2828942Y-1948564D01*
X2827192Y-1950188D01*
X2825068Y-1951813D01*
X2822694Y-1953313D01*
X2822569D01*
X2822444Y-1953438D01*
X2822069Y-1953563D01*
X2821569Y-1953812D01*
X2820944Y-1954062D01*
X2820194Y-1954437D01*
X2818320Y-1954937D01*
X2815945Y-1955562D01*
X2813321Y-1956187D01*
X2810322Y-1956562D01*
X2806948Y-1956687D01*
X2805573D01*
X2804573Y-1956562D01*
X2803324Y-1956437D01*
X2801949Y-1956187D01*
X2800324Y-1955937D01*
X2798575Y-1955562D01*
X2796825Y-1955187D01*
X2794951Y-1954562D01*
X2793076Y-1953937D01*
X2791077Y-1953063D01*
X2789202Y-1952063D01*
X2787328Y-1950938D01*
X2785453Y-1949564D01*
X2783829Y-1948064D01*
X2783704Y-1947939D01*
X2783454Y-1947689D01*
X2783079Y-1947189D01*
X2782454Y-1946439D01*
X2781829Y-1945565D01*
X2781079Y-1944440D01*
X2780329Y-1943190D01*
X2779580Y-1941816D01*
X2778705Y-1940191D01*
X2777955Y-1938441D01*
X2777205Y-1936442D01*
X2776580Y-1934317D01*
X2775956Y-1932068D01*
X2775581Y-1929694D01*
X2775206Y-1927069D01*
X2775081Y-1924320D01*
X2784828Y-1923445D01*
Y-1923570D01*
Y-1923820D01*
X2784953Y-1924195D01*
Y-1924695D01*
X2785203Y-1926195D01*
X2785578Y-1927944D01*
X2786078Y-1929944D01*
X2786578Y-1931943D01*
X2787453Y-1933943D01*
X2788327Y-1935692D01*
X2788452Y-1935942D01*
X2788827Y-1936442D01*
X2789452Y-1937192D01*
X2790327Y-1938191D01*
X2791452Y-1939316D01*
X2792701Y-1940441D01*
X2794326Y-1941691D01*
X2796075Y-1942690D01*
X2796325Y-1942815D01*
X2796950Y-1943065D01*
X2798075Y-1943565D01*
X2799450Y-1943940D01*
X2801199Y-1944440D01*
X2803199Y-1944940D01*
X2805323Y-1945190D01*
X2807697Y-1945315D01*
X2808572D01*
X2809197Y-1945190D01*
X2809947D01*
X2810822Y-1945065D01*
X2812946Y-1944815D01*
X2815196Y-1944190D01*
X2817570Y-1943440D01*
X2819819Y-1942440D01*
X2821944Y-1940941D01*
X2822194Y-1940691D01*
X2822694Y-1940066D01*
X2823568Y-1939191D01*
X2824568Y-1937817D01*
X2825443Y-1936067D01*
X2826318Y-1934192D01*
X2826818Y-1931818D01*
X2827067Y-1929319D01*
Y-1929069D01*
Y-1928569D01*
X2826943Y-1927819D01*
X2826818Y-1926819D01*
X2826568Y-1925695D01*
X2826318Y-1924445D01*
X2825818Y-1923195D01*
X2825193Y-1921946D01*
X2825068Y-1921821D01*
X2824818Y-1921446D01*
X2824443Y-1920821D01*
X2823818Y-1920071D01*
X2822944Y-1919321D01*
X2822069Y-1918447D01*
X2820944Y-1917572D01*
X2819569Y-1916822D01*
X2819444Y-1916697D01*
X2818820Y-1916447D01*
X2818320Y-1916197D01*
X2817695Y-1915947D01*
X2817070Y-1915697D01*
X2816195Y-1915322D01*
X2815196Y-1914947D01*
X2813946Y-1914572D01*
X2812696Y-1914073D01*
X2811197Y-1913573D01*
X2809572Y-1913073D01*
X2807697Y-1912448D01*
X2805698Y-1911823D01*
X2803449Y-1911198D01*
X2803324D01*
X2802949Y-1911073D01*
X2802449Y-1910823D01*
X2801699Y-1910574D01*
X2800699Y-1910324D01*
X2799700Y-1909949D01*
X2797325Y-1909199D01*
X2794826Y-1908199D01*
X2792201Y-1907074D01*
X2789827Y-1905950D01*
X2788827Y-1905325D01*
X2787828Y-1904700D01*
X2787578Y-1904575D01*
X2787078Y-1904075D01*
X2786203Y-1903325D01*
X2785203Y-1902326D01*
X2784079Y-1901201D01*
X2782829Y-1899701D01*
X2781704Y-1898077D01*
X2780579Y-1896327D01*
X2780454Y-1896077D01*
X2780204Y-1895452D01*
X2779830Y-1894328D01*
X2779330Y-1892953D01*
X2778830Y-1891203D01*
X2778455Y-1889329D01*
X2778205Y-1887205D01*
X2778080Y-1884830D01*
Y-1884705D01*
Y-1884330D01*
Y-1883705D01*
X2778205Y-1882956D01*
X2778330Y-1881956D01*
X2778455Y-1880706D01*
X2778705Y-1879456D01*
X2778955Y-1878082D01*
X2779830Y-1875083D01*
X2780454Y-1873583D01*
X2781204Y-1871958D01*
X2782079Y-1870334D01*
X2783079Y-1868834D01*
X2784203Y-1867335D01*
X2785453Y-1865960D01*
X2785578Y-1865835D01*
X2785828Y-1865585D01*
X2786203Y-1865335D01*
X2786828Y-1864835D01*
X2787578Y-1864210D01*
X2788452Y-1863586D01*
X2789577Y-1862961D01*
X2790827Y-1862211D01*
X2792201Y-1861586D01*
X2793701Y-1860961D01*
X2795326Y-1860336D01*
X2797075Y-1859712D01*
X2799075Y-1859212D01*
X2801074Y-1858962D01*
X2803324Y-1858712D01*
X2805573Y-1858587D01*
X2807073D01*
X2807822Y-1858712D01*
D02*
G37*
G36*
X3213843Y-1955062D02*
X3203221D01*
X3162482Y-1880831D01*
Y-1955062D01*
X3152609D01*
Y-1860211D01*
X3163106D01*
X3203971Y-1934692D01*
Y-1860211D01*
X3213843D01*
Y-1955062D01*
D02*
G37*
G36*
X3931910D02*
X3921037D01*
Y-1941816D01*
X3931910D01*
Y-1955062D01*
D02*
G37*
G36*
X3903292Y-1871459D02*
X3857429D01*
Y-1900326D01*
X3900543D01*
Y-1911573D01*
X3857429D01*
Y-1943815D01*
X3905166D01*
Y-1955062D01*
X3847181D01*
Y-1860211D01*
X3903292D01*
Y-1871459D01*
D02*
G37*
G36*
X3798569Y-1860336D02*
X3800693Y-1860461D01*
X3803193Y-1860586D01*
X3805692Y-1860961D01*
X3808066Y-1861336D01*
X3810191Y-1861961D01*
X3810316D01*
X3810441Y-1862086D01*
X3810816Y-1862211D01*
X3811315Y-1862461D01*
X3812565Y-1863086D01*
X3814190Y-1863835D01*
X3816064Y-1865085D01*
X3817939Y-1866460D01*
X3820063Y-1868209D01*
X3821938Y-1870334D01*
Y-1870459D01*
X3822188Y-1870584D01*
X3822438Y-1870959D01*
X3822813Y-1871459D01*
X3823687Y-1872708D01*
X3824812Y-1874458D01*
X3826062Y-1876707D01*
X3827311Y-1879207D01*
X3828561Y-1882206D01*
X3829686Y-1885455D01*
Y-1885580D01*
X3829811Y-1885830D01*
X3829936Y-1886330D01*
X3830186Y-1887080D01*
X3830311Y-1887954D01*
X3830561Y-1888954D01*
X3830810Y-1890204D01*
X3831185Y-1891578D01*
X3831435Y-1893078D01*
X3831685Y-1894828D01*
X3831935Y-1896577D01*
X3832060Y-1898452D01*
X3832435Y-1902576D01*
X3832560Y-1907199D01*
Y-1907324D01*
Y-1907949D01*
Y-1908699D01*
X3832435Y-1909949D01*
Y-1911323D01*
X3832310Y-1912948D01*
X3832185Y-1914697D01*
X3831935Y-1916697D01*
X3831685Y-1918821D01*
X3831435Y-1920946D01*
X3830561Y-1925570D01*
X3829436Y-1930193D01*
X3827811Y-1934567D01*
Y-1934692D01*
X3827561Y-1935067D01*
X3827311Y-1935567D01*
X3826936Y-1936317D01*
X3826437Y-1937317D01*
X3825937Y-1938316D01*
X3824562Y-1940691D01*
X3822813Y-1943315D01*
X3820688Y-1945939D01*
X3818314Y-1948439D01*
X3817064Y-1949439D01*
X3815689Y-1950438D01*
X3815564D01*
X3815314Y-1950688D01*
X3814940Y-1950813D01*
X3814315Y-1951188D01*
X3813565Y-1951563D01*
X3812690Y-1951938D01*
X3811690Y-1952313D01*
X3810566Y-1952688D01*
X3809191Y-1953188D01*
X3807691Y-1953563D01*
X3806192Y-1953937D01*
X3804442Y-1954312D01*
X3800568Y-1954812D01*
X3796319Y-1955062D01*
X3768326D01*
Y-1860211D01*
X3797569D01*
X3798569Y-1860336D01*
D02*
G37*
G36*
X3750581Y-1955062D02*
X3740334D01*
Y-1860211D01*
X3750581D01*
Y-1955062D01*
D02*
G37*
G36*
X3595871Y-1860336D02*
X3598120Y-1860461D01*
X3600619Y-1860711D01*
X3603244Y-1860961D01*
X3605618Y-1861461D01*
X3606618Y-1861711D01*
X3607618Y-1862086D01*
X3607743D01*
X3607868Y-1862211D01*
X3608242Y-1862336D01*
X3608742Y-1862586D01*
X3609992Y-1863211D01*
X3611492Y-1864210D01*
X3613241Y-1865460D01*
X3614991Y-1866960D01*
X3616740Y-1868959D01*
X3618365Y-1871209D01*
Y-1871334D01*
X3618490Y-1871459D01*
X3618740Y-1871833D01*
X3618990Y-1872333D01*
X3619365Y-1873083D01*
X3619615Y-1873833D01*
X3620489Y-1875707D01*
X3621239Y-1878082D01*
X3621864Y-1880956D01*
X3622364Y-1884080D01*
X3622489Y-1887579D01*
Y-1887704D01*
Y-1888204D01*
Y-1888829D01*
X3622364Y-1889704D01*
X3622239Y-1890829D01*
X3622114Y-1892078D01*
X3621989Y-1893453D01*
X3621614Y-1895077D01*
X3620864Y-1898327D01*
X3619740Y-1901826D01*
X3618990Y-1903575D01*
X3618115Y-1905325D01*
X3616990Y-1906949D01*
X3615866Y-1908574D01*
X3615741Y-1908699D01*
X3615616Y-1908949D01*
X3615116Y-1909324D01*
X3614616Y-1909824D01*
X3613866Y-1910449D01*
X3612991Y-1911073D01*
X3611867Y-1911823D01*
X3610617Y-1912573D01*
X3609117Y-1913323D01*
X3607493Y-1914073D01*
X3605618Y-1914697D01*
X3603619Y-1915322D01*
X3601369Y-1915822D01*
X3598870Y-1916197D01*
X3596121Y-1916447D01*
X3593246Y-1916572D01*
X3573376D01*
Y-1955062D01*
X3563129D01*
Y-1860211D01*
X3594871D01*
X3595871Y-1860336D01*
D02*
G37*
G36*
X3468278Y-1871459D02*
X3442535D01*
Y-1955062D01*
X3432288D01*
Y-1871459D01*
X3406669D01*
Y-1860211D01*
X3468278D01*
Y-1871459D01*
D02*
G37*
G36*
X3340686Y-1860336D02*
X3341811D01*
X3344185Y-1860586D01*
X3346809Y-1860836D01*
X3349434Y-1861336D01*
X3351933Y-1862086D01*
X3353058Y-1862461D01*
X3354058Y-1862961D01*
X3354307Y-1863086D01*
X3354932Y-1863461D01*
X3355807Y-1864085D01*
X3357057Y-1865085D01*
X3358306Y-1866335D01*
X3359806Y-1867834D01*
X3361181Y-1869709D01*
X3362430Y-1871833D01*
Y-1871958D01*
X3362555Y-1872083D01*
X3362805Y-1872458D01*
X3362930Y-1872958D01*
X3363555Y-1874208D01*
X3364180Y-1875957D01*
X3364680Y-1877957D01*
X3365305Y-1880456D01*
X3365680Y-1883081D01*
X3365805Y-1886080D01*
Y-1886205D01*
Y-1886580D01*
Y-1887080D01*
X3365680Y-1887829D01*
Y-1888829D01*
X3365555Y-1889829D01*
X3365055Y-1892328D01*
X3364430Y-1895077D01*
X3363430Y-1897952D01*
X3362056Y-1900826D01*
X3361181Y-1902201D01*
X3360181Y-1903575D01*
Y-1903700D01*
X3359931Y-1903825D01*
X3359556Y-1904200D01*
X3359181Y-1904575D01*
X3358556Y-1905200D01*
X3357807Y-1905700D01*
X3357057Y-1906450D01*
X3356057Y-1907074D01*
X3353808Y-1908574D01*
X3350933Y-1909949D01*
X3347684Y-1911073D01*
X3343935Y-1911948D01*
X3344185Y-1912073D01*
X3344685Y-1912448D01*
X3345435Y-1912948D01*
X3346310Y-1913573D01*
X3348559Y-1915322D01*
X3349559Y-1916197D01*
X3350558Y-1917197D01*
X3350808Y-1917447D01*
X3351308Y-1918197D01*
X3352183Y-1919321D01*
X3353308Y-1920821D01*
X3354432Y-1922570D01*
X3355807Y-1924570D01*
X3357182Y-1926944D01*
X3358556Y-1929319D01*
X3372178Y-1955062D01*
X3359181D01*
X3348809Y-1935442D01*
X3348684Y-1935317D01*
X3348559Y-1934942D01*
X3348184Y-1934317D01*
X3347809Y-1933568D01*
X3347309Y-1932568D01*
X3346809Y-1931568D01*
X3345435Y-1929069D01*
X3343935Y-1926569D01*
X3342436Y-1923945D01*
X3340936Y-1921696D01*
X3340311Y-1920696D01*
X3339686Y-1919821D01*
X3339561Y-1919696D01*
X3339186Y-1919196D01*
X3338562Y-1918447D01*
X3337812Y-1917697D01*
X3336937Y-1916697D01*
X3335937Y-1915822D01*
X3334937Y-1915072D01*
X3333813Y-1914448D01*
X3333688Y-1914323D01*
X3333313Y-1914198D01*
X3332688Y-1913948D01*
X3331688Y-1913698D01*
X3330564Y-1913448D01*
X3329189Y-1913198D01*
X3327689Y-1912948D01*
X3313943D01*
Y-1955062D01*
X3303695D01*
Y-1860211D01*
X3339811D01*
X3340686Y-1860336D01*
D02*
G37*
G36*
X3287575Y-1871459D02*
X3241711D01*
Y-1900326D01*
X3284825D01*
Y-1911573D01*
X3241711D01*
Y-1943815D01*
X3289449D01*
Y-1955062D01*
X3231464D01*
Y-1860211D01*
X3287575D01*
Y-1871459D01*
D02*
G37*
G36*
X3136738D02*
X3090875D01*
Y-1900326D01*
X3133989D01*
Y-1911573D01*
X3090875D01*
Y-1943815D01*
X3138613D01*
Y-1955062D01*
X3080628D01*
Y-1860211D01*
X3136738D01*
Y-1871459D01*
D02*
G37*
G36*
X3067256D02*
X3025017D01*
Y-1900701D01*
X3061507D01*
Y-1911948D01*
X3025017D01*
Y-1955062D01*
X3014769D01*
Y-1860211D01*
X3067256D01*
Y-1871459D01*
D02*
G37*
G36*
X3000898D02*
X2958659D01*
Y-1900701D01*
X2995149D01*
Y-1911948D01*
X2958659D01*
Y-1955062D01*
X2948411D01*
Y-1860211D01*
X3000898D01*
Y-1871459D01*
D02*
G37*
G36*
X2929666Y-1955062D02*
X2919419D01*
Y-1860211D01*
X2929666D01*
Y-1955062D01*
D02*
G37*
G36*
X2907047Y-1871459D02*
X2881304D01*
Y-1955062D01*
X2871056D01*
Y-1871459D01*
X2845438D01*
Y-1860211D01*
X2907047D01*
Y-1871459D01*
D02*
G37*
G36*
X3514766Y-1858712D02*
X3515641D01*
X3516766Y-1858837D01*
X3517891Y-1859087D01*
X3519140Y-1859337D01*
X3522015Y-1859961D01*
X3525139Y-1861086D01*
X3528388Y-1862461D01*
X3530012Y-1863461D01*
X3531637Y-1864460D01*
X3531762Y-1864585D01*
X3532012Y-1864710D01*
X3532512Y-1865085D01*
X3533012Y-1865585D01*
X3533762Y-1866210D01*
X3534636Y-1866960D01*
X3535511Y-1867834D01*
X3536511Y-1868834D01*
X3537511Y-1869959D01*
X3538635Y-1871209D01*
X3539760Y-1872583D01*
X3540885Y-1874083D01*
X3542009Y-1875707D01*
X3543134Y-1877582D01*
X3545134Y-1881456D01*
Y-1881581D01*
X3545384Y-1881956D01*
X3545633Y-1882581D01*
X3545883Y-1883455D01*
X3546258Y-1884455D01*
X3546758Y-1885705D01*
X3547133Y-1887205D01*
X3547633Y-1888829D01*
X3548133Y-1890704D01*
X3548508Y-1892703D01*
X3549008Y-1894953D01*
X3549383Y-1897202D01*
X3549632Y-1899701D01*
X3549882Y-1902326D01*
X3550132Y-1907824D01*
Y-1908074D01*
Y-1908699D01*
Y-1909824D01*
X3550007Y-1911323D01*
X3549882Y-1913073D01*
X3549632Y-1915197D01*
X3549383Y-1917447D01*
X3548883Y-1919946D01*
X3548383Y-1922695D01*
X3547758Y-1925445D01*
X3547008Y-1928319D01*
X3546133Y-1931193D01*
X3545009Y-1934068D01*
X3543634Y-1936817D01*
X3542259Y-1939566D01*
X3540510Y-1942190D01*
X3540385Y-1942315D01*
X3540010Y-1942815D01*
X3539385Y-1943565D01*
X3538635Y-1944440D01*
X3537511Y-1945565D01*
X3536261Y-1946814D01*
X3534761Y-1948064D01*
X3533137Y-1949439D01*
X3531262Y-1950813D01*
X3529138Y-1952063D01*
X3526888Y-1953313D01*
X3524389Y-1954437D01*
X3521765Y-1955312D01*
X3519015Y-1956062D01*
X3516016Y-1956562D01*
X3512892Y-1956687D01*
X3512142D01*
X3511267Y-1956562D01*
X3510018Y-1956437D01*
X3508518Y-1956187D01*
X3506893Y-1955937D01*
X3505019Y-1955437D01*
X3503019Y-1954812D01*
X3500770Y-1954062D01*
X3498521Y-1953063D01*
X3496271Y-1951813D01*
X3494022Y-1950313D01*
X3491647Y-1948689D01*
X3489398Y-1946689D01*
X3487273Y-1944315D01*
X3485274Y-1941691D01*
X3485149Y-1941566D01*
X3484899Y-1941066D01*
X3484399Y-1940316D01*
X3483774Y-1939316D01*
X3483025Y-1937942D01*
X3482275Y-1936442D01*
X3481400Y-1934567D01*
X3480525Y-1932568D01*
X3479650Y-1930193D01*
X3478776Y-1927819D01*
X3478026Y-1925070D01*
X3477276Y-1922196D01*
X3476651Y-1919071D01*
X3476151Y-1915822D01*
X3475901Y-1912448D01*
X3475776Y-1908949D01*
Y-1908824D01*
Y-1908699D01*
Y-1908324D01*
Y-1907824D01*
X3475901Y-1906575D01*
Y-1904950D01*
X3476151Y-1902950D01*
X3476401Y-1900576D01*
X3476651Y-1897952D01*
X3477151Y-1895202D01*
X3477651Y-1892203D01*
X3478401Y-1889204D01*
X3479275Y-1886080D01*
X3480275Y-1882956D01*
X3481525Y-1879956D01*
X3482900Y-1877082D01*
X3484524Y-1874208D01*
X3486399Y-1871708D01*
X3486524Y-1871584D01*
X3486899Y-1871084D01*
X3487523Y-1870459D01*
X3488273Y-1869709D01*
X3489398Y-1868709D01*
X3490648Y-1867585D01*
X3492022Y-1866335D01*
X3493772Y-1865085D01*
X3495521Y-1863960D01*
X3497521Y-1862711D01*
X3499770Y-1861586D01*
X3502145Y-1860586D01*
X3504644Y-1859837D01*
X3507268Y-1859087D01*
X3510143Y-1858712D01*
X3513017Y-1858587D01*
X3514017D01*
X3514766Y-1858712D01*
D02*
G37*
G36*
X3982522Y-1975782D02*
X3983396D01*
X3985396Y-1976032D01*
X3987770Y-1976532D01*
X3990270Y-1977157D01*
X3992894Y-1978031D01*
X3995393Y-1979156D01*
X3995518D01*
X3995643Y-1979281D01*
X3996518Y-1979781D01*
X3997643Y-1980531D01*
X3999142Y-1981655D01*
X4000642Y-1983030D01*
X4002392Y-1984780D01*
X4004016Y-1986779D01*
X4005391Y-1989029D01*
Y-1989154D01*
X4005516Y-1989278D01*
X4005766Y-1989653D01*
X4006016Y-1990153D01*
X4006266Y-1990778D01*
X4006515Y-1991528D01*
X4007265Y-1993277D01*
X4008015Y-1995527D01*
X4008640Y-1998026D01*
X4009140Y-2000900D01*
X4009390Y-2004025D01*
X3999642Y-2004899D01*
Y-2004775D01*
Y-2004525D01*
X3999517Y-2004025D01*
X3999392Y-2003400D01*
X3999267Y-2002650D01*
X3999142Y-2001775D01*
X3998642Y-1999776D01*
X3997893Y-1997526D01*
X3996893Y-1995277D01*
X3995643Y-1993152D01*
X3994019Y-1991278D01*
X3993769Y-1991028D01*
X3993144Y-1990528D01*
X3992019Y-1989903D01*
X3990520Y-1989029D01*
X3988645Y-1988154D01*
X3986396Y-1987529D01*
X3983646Y-1987029D01*
X3980647Y-1986779D01*
X3979147D01*
X3978398Y-1986904D01*
X3977648Y-1987029D01*
X3975648Y-1987279D01*
X3973399Y-1987779D01*
X3971275Y-1988404D01*
X3969025Y-1989403D01*
X3967151Y-1990778D01*
X3966901Y-1990903D01*
X3966401Y-1991528D01*
X3965776Y-1992278D01*
X3964901Y-1993527D01*
X3964026Y-1994902D01*
X3963402Y-1996652D01*
X3962902Y-1998651D01*
X3962652Y-2000900D01*
Y-2001150D01*
Y-2001775D01*
X3962777Y-2002900D01*
X3963027Y-2004150D01*
X3963402Y-2005524D01*
X3964026Y-2007024D01*
X3964776Y-2008399D01*
X3965901Y-2009773D01*
X3966026Y-2009898D01*
X3966651Y-2010273D01*
X3967650Y-2010898D01*
X3968275Y-2011273D01*
X3969025Y-2011773D01*
X3970025Y-2012148D01*
X3971150Y-2012647D01*
X3972399Y-2013272D01*
X3973774Y-2013772D01*
X3975273Y-2014397D01*
X3977148Y-2014897D01*
X3979023Y-2015522D01*
X3981147Y-2016147D01*
X3981272D01*
X3981647Y-2016272D01*
X3982272Y-2016397D01*
X3983021Y-2016646D01*
X3983896Y-2016896D01*
X3985021Y-2017271D01*
X3987520Y-2018021D01*
X3990145Y-2018896D01*
X3992769Y-2019771D01*
X3995268Y-2020770D01*
X3996268Y-2021145D01*
X3997268Y-2021645D01*
X3997393D01*
X3997643Y-2021770D01*
X3997893Y-2022020D01*
X3998393Y-2022270D01*
X3999767Y-2023145D01*
X4001267Y-2024145D01*
X4003016Y-2025644D01*
X4004766Y-2027269D01*
X4006515Y-2029143D01*
X4008015Y-2031268D01*
Y-2031393D01*
X4008140Y-2031518D01*
X4008390Y-2031893D01*
X4008640Y-2032267D01*
X4009265Y-2033517D01*
X4009890Y-2035267D01*
X4010639Y-2037266D01*
X4011139Y-2039641D01*
X4011639Y-2042265D01*
X4011764Y-2045264D01*
Y-2045389D01*
Y-2045639D01*
Y-2046014D01*
Y-2046639D01*
X4011639Y-2047389D01*
X4011514Y-2048263D01*
X4011264Y-2050263D01*
X4010764Y-2052512D01*
X4010140Y-2055012D01*
X4009140Y-2057636D01*
X4007890Y-2060260D01*
Y-2060385D01*
X4007765Y-2060510D01*
X4007515Y-2060885D01*
X4007140Y-2061385D01*
X4006266Y-2062510D01*
X4005141Y-2064009D01*
X4003641Y-2065634D01*
X4001892Y-2067259D01*
X3999767Y-2068883D01*
X3997393Y-2070383D01*
X3997268D01*
X3997143Y-2070508D01*
X3996768Y-2070633D01*
X3996268Y-2070883D01*
X3995643Y-2071133D01*
X3994893Y-2071507D01*
X3993019Y-2072007D01*
X3990645Y-2072632D01*
X3988020Y-2073257D01*
X3985021Y-2073632D01*
X3981647Y-2073757D01*
X3980272D01*
X3979272Y-2073632D01*
X3978023Y-2073507D01*
X3976648Y-2073257D01*
X3975024Y-2073007D01*
X3973274Y-2072632D01*
X3971524Y-2072257D01*
X3969650Y-2071632D01*
X3967775Y-2071008D01*
X3965776Y-2070133D01*
X3963901Y-2069133D01*
X3962027Y-2068008D01*
X3960152Y-2066634D01*
X3958528Y-2065134D01*
X3958403Y-2065009D01*
X3958153Y-2064759D01*
X3957778Y-2064259D01*
X3957153Y-2063509D01*
X3956528Y-2062635D01*
X3955778Y-2061510D01*
X3955029Y-2060260D01*
X3954279Y-2058886D01*
X3953404Y-2057261D01*
X3952654Y-2055512D01*
X3951904Y-2053512D01*
X3951280Y-2051388D01*
X3950655Y-2049138D01*
X3950280Y-2046764D01*
X3949905Y-2044139D01*
X3949780Y-2041390D01*
X3959528Y-2040515D01*
Y-2040640D01*
Y-2040890D01*
X3959652Y-2041265D01*
Y-2041765D01*
X3959902Y-2043265D01*
X3960277Y-2045014D01*
X3960777Y-2047014D01*
X3961277Y-2049013D01*
X3962152Y-2051013D01*
X3963027Y-2052762D01*
X3963152Y-2053012D01*
X3963526Y-2053512D01*
X3964151Y-2054262D01*
X3965026Y-2055262D01*
X3966151Y-2056386D01*
X3967400Y-2057511D01*
X3969025Y-2058761D01*
X3970775Y-2059760D01*
X3971025Y-2059885D01*
X3971649Y-2060135D01*
X3972774Y-2060635D01*
X3974149Y-2061010D01*
X3975898Y-2061510D01*
X3977898Y-2062010D01*
X3980022Y-2062260D01*
X3982397Y-2062385D01*
X3983271D01*
X3983896Y-2062260D01*
X3984646D01*
X3985521Y-2062135D01*
X3987645Y-2061885D01*
X3989895Y-2061260D01*
X3992269Y-2060510D01*
X3994519Y-2059510D01*
X3996643Y-2058011D01*
X3996893Y-2057761D01*
X3997393Y-2057136D01*
X3998268Y-2056261D01*
X3999267Y-2054887D01*
X4000142Y-2053137D01*
X4001017Y-2051263D01*
X4001517Y-2048888D01*
X4001767Y-2046389D01*
Y-2046139D01*
Y-2045639D01*
X4001642Y-2044889D01*
X4001517Y-2043889D01*
X4001267Y-2042765D01*
X4001017Y-2041515D01*
X4000517Y-2040265D01*
X3999892Y-2039016D01*
X3999767Y-2038891D01*
X3999517Y-2038516D01*
X3999142Y-2037891D01*
X3998518Y-2037141D01*
X3997643Y-2036391D01*
X3996768Y-2035517D01*
X3995643Y-2034642D01*
X3994269Y-2033892D01*
X3994144Y-2033767D01*
X3993519Y-2033517D01*
X3993019Y-2033267D01*
X3992394Y-2033017D01*
X3991769Y-2032767D01*
X3990894Y-2032392D01*
X3989895Y-2032018D01*
X3988645Y-2031643D01*
X3987395Y-2031143D01*
X3985896Y-2030643D01*
X3984271Y-2030143D01*
X3982397Y-2029518D01*
X3980397Y-2028893D01*
X3978148Y-2028268D01*
X3978023D01*
X3977648Y-2028144D01*
X3977148Y-2027894D01*
X3976398Y-2027644D01*
X3975398Y-2027394D01*
X3974399Y-2027019D01*
X3972024Y-2026269D01*
X3969525Y-2025269D01*
X3966901Y-2024145D01*
X3964526Y-2023020D01*
X3963526Y-2022395D01*
X3962527Y-2021770D01*
X3962277Y-2021645D01*
X3961777Y-2021145D01*
X3960902Y-2020396D01*
X3959902Y-2019396D01*
X3958778Y-2018271D01*
X3957528Y-2016771D01*
X3956403Y-2015147D01*
X3955279Y-2013397D01*
X3955154Y-2013147D01*
X3954904Y-2012523D01*
X3954529Y-2011398D01*
X3954029Y-2010023D01*
X3953529Y-2008274D01*
X3953154Y-2006399D01*
X3952904Y-2004275D01*
X3952779Y-2001900D01*
Y-2001775D01*
Y-2001400D01*
Y-2000776D01*
X3952904Y-2000026D01*
X3953029Y-1999026D01*
X3953154Y-1997776D01*
X3953404Y-1996527D01*
X3953654Y-1995152D01*
X3954529Y-1992153D01*
X3955154Y-1990653D01*
X3955903Y-1989029D01*
X3956778Y-1987404D01*
X3957778Y-1985904D01*
X3958903Y-1984405D01*
X3960152Y-1983030D01*
X3960277Y-1982905D01*
X3960527Y-1982655D01*
X3960902Y-1982405D01*
X3961527Y-1981905D01*
X3962277Y-1981281D01*
X3963152Y-1980656D01*
X3964276Y-1980031D01*
X3965526Y-1979281D01*
X3966901Y-1978656D01*
X3968400Y-1978031D01*
X3970025Y-1977407D01*
X3971774Y-1976782D01*
X3973774Y-1976282D01*
X3975773Y-1976032D01*
X3978023Y-1975782D01*
X3980272Y-1975657D01*
X3981772D01*
X3982522Y-1975782D01*
D02*
G37*
G36*
X3739334D02*
X3740209D01*
X3742208Y-1976032D01*
X3744583Y-1976532D01*
X3747082Y-1977157D01*
X3749706Y-1978031D01*
X3752206Y-1979156D01*
X3752331D01*
X3752456Y-1979281D01*
X3753330Y-1979781D01*
X3754455Y-1980531D01*
X3755955Y-1981655D01*
X3757454Y-1983030D01*
X3759204Y-1984780D01*
X3760828Y-1986779D01*
X3762203Y-1989029D01*
Y-1989154D01*
X3762328Y-1989278D01*
X3762578Y-1989653D01*
X3762828Y-1990153D01*
X3763078Y-1990778D01*
X3763328Y-1991528D01*
X3764078Y-1993277D01*
X3764827Y-1995527D01*
X3765452Y-1998026D01*
X3765952Y-2000900D01*
X3766202Y-2004025D01*
X3756455Y-2004899D01*
Y-2004775D01*
Y-2004525D01*
X3756330Y-2004025D01*
X3756205Y-2003400D01*
X3756080Y-2002650D01*
X3755955Y-2001775D01*
X3755455Y-1999776D01*
X3754705Y-1997526D01*
X3753705Y-1995277D01*
X3752456Y-1993152D01*
X3750831Y-1991278D01*
X3750581Y-1991028D01*
X3749956Y-1990528D01*
X3748831Y-1989903D01*
X3747332Y-1989029D01*
X3745457Y-1988154D01*
X3743208Y-1987529D01*
X3740459Y-1987029D01*
X3737459Y-1986779D01*
X3735960D01*
X3735210Y-1986904D01*
X3734460Y-1987029D01*
X3732461Y-1987279D01*
X3730211Y-1987779D01*
X3728087Y-1988404D01*
X3725837Y-1989403D01*
X3723963Y-1990778D01*
X3723713Y-1990903D01*
X3723213Y-1991528D01*
X3722588Y-1992278D01*
X3721713Y-1993527D01*
X3720839Y-1994902D01*
X3720214Y-1996652D01*
X3719714Y-1998651D01*
X3719464Y-2000900D01*
Y-2001150D01*
Y-2001775D01*
X3719589Y-2002900D01*
X3719839Y-2004150D01*
X3720214Y-2005524D01*
X3720839Y-2007024D01*
X3721588Y-2008399D01*
X3722713Y-2009773D01*
X3722838Y-2009898D01*
X3723463Y-2010273D01*
X3724463Y-2010898D01*
X3725088Y-2011273D01*
X3725837Y-2011773D01*
X3726837Y-2012148D01*
X3727962Y-2012647D01*
X3729211Y-2013272D01*
X3730586Y-2013772D01*
X3732086Y-2014397D01*
X3733960Y-2014897D01*
X3735835Y-2015522D01*
X3737959Y-2016147D01*
X3738084D01*
X3738459Y-2016272D01*
X3739084Y-2016397D01*
X3739834Y-2016646D01*
X3740709Y-2016896D01*
X3741833Y-2017271D01*
X3744333Y-2018021D01*
X3746957Y-2018896D01*
X3749581Y-2019771D01*
X3752081Y-2020770D01*
X3753080Y-2021145D01*
X3754080Y-2021645D01*
X3754205D01*
X3754455Y-2021770D01*
X3754705Y-2022020D01*
X3755205Y-2022270D01*
X3756579Y-2023145D01*
X3758079Y-2024145D01*
X3759829Y-2025644D01*
X3761578Y-2027269D01*
X3763328Y-2029143D01*
X3764827Y-2031268D01*
Y-2031393D01*
X3764952Y-2031518D01*
X3765202Y-2031893D01*
X3765452Y-2032267D01*
X3766077Y-2033517D01*
X3766702Y-2035267D01*
X3767452Y-2037266D01*
X3767952Y-2039641D01*
X3768451Y-2042265D01*
X3768576Y-2045264D01*
Y-2045389D01*
Y-2045639D01*
Y-2046014D01*
Y-2046639D01*
X3768451Y-2047389D01*
X3768326Y-2048263D01*
X3768077Y-2050263D01*
X3767577Y-2052512D01*
X3766952Y-2055012D01*
X3765952Y-2057636D01*
X3764702Y-2060260D01*
Y-2060385D01*
X3764577Y-2060510D01*
X3764327Y-2060885D01*
X3763953Y-2061385D01*
X3763078Y-2062510D01*
X3761953Y-2064009D01*
X3760453Y-2065634D01*
X3758704Y-2067259D01*
X3756579Y-2068883D01*
X3754205Y-2070383D01*
X3754080D01*
X3753955Y-2070508D01*
X3753580Y-2070633D01*
X3753080Y-2070883D01*
X3752456Y-2071133D01*
X3751706Y-2071507D01*
X3749831Y-2072007D01*
X3747457Y-2072632D01*
X3744832Y-2073257D01*
X3741833Y-2073632D01*
X3738459Y-2073757D01*
X3737084D01*
X3736085Y-2073632D01*
X3734835Y-2073507D01*
X3733460Y-2073257D01*
X3731836Y-2073007D01*
X3730086Y-2072632D01*
X3728337Y-2072257D01*
X3726462Y-2071632D01*
X3724588Y-2071008D01*
X3722588Y-2070133D01*
X3720714Y-2069133D01*
X3718839Y-2068008D01*
X3716965Y-2066634D01*
X3715340Y-2065134D01*
X3715215Y-2065009D01*
X3714965Y-2064759D01*
X3714590Y-2064259D01*
X3713965Y-2063509D01*
X3713341Y-2062635D01*
X3712591Y-2061510D01*
X3711841Y-2060260D01*
X3711091Y-2058886D01*
X3710216Y-2057261D01*
X3709467Y-2055512D01*
X3708717Y-2053512D01*
X3708092Y-2051388D01*
X3707467Y-2049138D01*
X3707092Y-2046764D01*
X3706717Y-2044139D01*
X3706592Y-2041390D01*
X3716340Y-2040515D01*
Y-2040640D01*
Y-2040890D01*
X3716465Y-2041265D01*
Y-2041765D01*
X3716715Y-2043265D01*
X3717090Y-2045014D01*
X3717589Y-2047014D01*
X3718089Y-2049013D01*
X3718964Y-2051013D01*
X3719839Y-2052762D01*
X3719964Y-2053012D01*
X3720339Y-2053512D01*
X3720964Y-2054262D01*
X3721838Y-2055262D01*
X3722963Y-2056386D01*
X3724213Y-2057511D01*
X3725837Y-2058761D01*
X3727587Y-2059760D01*
X3727837Y-2059885D01*
X3728462Y-2060135D01*
X3729586Y-2060635D01*
X3730961Y-2061010D01*
X3732711Y-2061510D01*
X3734710Y-2062010D01*
X3736835Y-2062260D01*
X3739209Y-2062385D01*
X3740084D01*
X3740709Y-2062260D01*
X3741458D01*
X3742333Y-2062135D01*
X3744458Y-2061885D01*
X3746707Y-2061260D01*
X3749081Y-2060510D01*
X3751331Y-2059510D01*
X3753455Y-2058011D01*
X3753705Y-2057761D01*
X3754205Y-2057136D01*
X3755080Y-2056261D01*
X3756080Y-2054887D01*
X3756954Y-2053137D01*
X3757829Y-2051263D01*
X3758329Y-2048888D01*
X3758579Y-2046389D01*
Y-2046139D01*
Y-2045639D01*
X3758454Y-2044889D01*
X3758329Y-2043889D01*
X3758079Y-2042765D01*
X3757829Y-2041515D01*
X3757329Y-2040265D01*
X3756704Y-2039016D01*
X3756579Y-2038891D01*
X3756330Y-2038516D01*
X3755955Y-2037891D01*
X3755330Y-2037141D01*
X3754455Y-2036391D01*
X3753580Y-2035517D01*
X3752456Y-2034642D01*
X3751081Y-2033892D01*
X3750956Y-2033767D01*
X3750331Y-2033517D01*
X3749831Y-2033267D01*
X3749206Y-2033017D01*
X3748582Y-2032767D01*
X3747707Y-2032392D01*
X3746707Y-2032018D01*
X3745457Y-2031643D01*
X3744208Y-2031143D01*
X3742708Y-2030643D01*
X3741083Y-2030143D01*
X3739209Y-2029518D01*
X3737209Y-2028893D01*
X3734960Y-2028268D01*
X3734835D01*
X3734460Y-2028144D01*
X3733960Y-2027894D01*
X3733210Y-2027644D01*
X3732211Y-2027394D01*
X3731211Y-2027019D01*
X3728837Y-2026269D01*
X3726337Y-2025269D01*
X3723713Y-2024145D01*
X3721339Y-2023020D01*
X3720339Y-2022395D01*
X3719339Y-2021770D01*
X3719089Y-2021645D01*
X3718589Y-2021145D01*
X3717714Y-2020396D01*
X3716715Y-2019396D01*
X3715590Y-2018271D01*
X3714340Y-2016771D01*
X3713216Y-2015147D01*
X3712091Y-2013397D01*
X3711966Y-2013147D01*
X3711716Y-2012523D01*
X3711341Y-2011398D01*
X3710841Y-2010023D01*
X3710341Y-2008274D01*
X3709966Y-2006399D01*
X3709716Y-2004275D01*
X3709592Y-2001900D01*
Y-2001775D01*
Y-2001400D01*
Y-2000776D01*
X3709716Y-2000026D01*
X3709841Y-1999026D01*
X3709966Y-1997776D01*
X3710216Y-1996527D01*
X3710466Y-1995152D01*
X3711341Y-1992153D01*
X3711966Y-1990653D01*
X3712716Y-1989029D01*
X3713590Y-1987404D01*
X3714590Y-1985904D01*
X3715715Y-1984405D01*
X3716965Y-1983030D01*
X3717090Y-1982905D01*
X3717340Y-1982655D01*
X3717714Y-1982405D01*
X3718339Y-1981905D01*
X3719089Y-1981281D01*
X3719964Y-1980656D01*
X3721089Y-1980031D01*
X3722338Y-1979281D01*
X3723713Y-1978656D01*
X3725213Y-1978031D01*
X3726837Y-1977407D01*
X3728587Y-1976782D01*
X3730586Y-1976282D01*
X3732586Y-1976032D01*
X3734835Y-1975782D01*
X3737084Y-1975657D01*
X3738584D01*
X3739334Y-1975782D01*
D02*
G37*
G36*
X3666852D02*
X3667727D01*
X3669727Y-1976032D01*
X3672101Y-1976532D01*
X3674600Y-1977157D01*
X3677225Y-1978031D01*
X3679724Y-1979156D01*
X3679849D01*
X3679974Y-1979281D01*
X3680849Y-1979781D01*
X3681974Y-1980531D01*
X3683473Y-1981655D01*
X3684973Y-1983030D01*
X3686722Y-1984780D01*
X3688347Y-1986779D01*
X3689722Y-1989029D01*
Y-1989154D01*
X3689847Y-1989278D01*
X3690097Y-1989653D01*
X3690346Y-1990153D01*
X3690596Y-1990778D01*
X3690846Y-1991528D01*
X3691596Y-1993277D01*
X3692346Y-1995527D01*
X3692971Y-1998026D01*
X3693471Y-2000900D01*
X3693721Y-2004025D01*
X3683973Y-2004899D01*
Y-2004775D01*
Y-2004525D01*
X3683848Y-2004025D01*
X3683723Y-2003400D01*
X3683598Y-2002650D01*
X3683473Y-2001775D01*
X3682973Y-1999776D01*
X3682224Y-1997526D01*
X3681224Y-1995277D01*
X3679974Y-1993152D01*
X3678350Y-1991278D01*
X3678100Y-1991028D01*
X3677475Y-1990528D01*
X3676350Y-1989903D01*
X3674850Y-1989029D01*
X3672976Y-1988154D01*
X3670726Y-1987529D01*
X3667977Y-1987029D01*
X3664978Y-1986779D01*
X3663478D01*
X3662729Y-1986904D01*
X3661979Y-1987029D01*
X3659979Y-1987279D01*
X3657730Y-1987779D01*
X3655605Y-1988404D01*
X3653356Y-1989403D01*
X3651481Y-1990778D01*
X3651231Y-1990903D01*
X3650732Y-1991528D01*
X3650107Y-1992278D01*
X3649232Y-1993527D01*
X3648357Y-1994902D01*
X3647732Y-1996652D01*
X3647232Y-1998651D01*
X3646983Y-2000900D01*
Y-2001150D01*
Y-2001775D01*
X3647108Y-2002900D01*
X3647357Y-2004150D01*
X3647732Y-2005524D01*
X3648357Y-2007024D01*
X3649107Y-2008399D01*
X3650232Y-2009773D01*
X3650357Y-2009898D01*
X3650982Y-2010273D01*
X3651981Y-2010898D01*
X3652606Y-2011273D01*
X3653356Y-2011773D01*
X3654356Y-2012148D01*
X3655480Y-2012647D01*
X3656730Y-2013272D01*
X3658105Y-2013772D01*
X3659604Y-2014397D01*
X3661479Y-2014897D01*
X3663353Y-2015522D01*
X3665478Y-2016147D01*
X3665603D01*
X3665978Y-2016272D01*
X3666603Y-2016397D01*
X3667352Y-2016646D01*
X3668227Y-2016896D01*
X3669352Y-2017271D01*
X3671851Y-2018021D01*
X3674476Y-2018896D01*
X3677100Y-2019771D01*
X3679599Y-2020770D01*
X3680599Y-2021145D01*
X3681599Y-2021645D01*
X3681724D01*
X3681974Y-2021770D01*
X3682224Y-2022020D01*
X3682723Y-2022270D01*
X3684098Y-2023145D01*
X3685598Y-2024145D01*
X3687347Y-2025644D01*
X3689097Y-2027269D01*
X3690846Y-2029143D01*
X3692346Y-2031268D01*
Y-2031393D01*
X3692471Y-2031518D01*
X3692721Y-2031893D01*
X3692971Y-2032267D01*
X3693596Y-2033517D01*
X3694220Y-2035267D01*
X3694970Y-2037266D01*
X3695470Y-2039641D01*
X3695970Y-2042265D01*
X3696095Y-2045264D01*
Y-2045389D01*
Y-2045639D01*
Y-2046014D01*
Y-2046639D01*
X3695970Y-2047389D01*
X3695845Y-2048263D01*
X3695595Y-2050263D01*
X3695095Y-2052512D01*
X3694470Y-2055012D01*
X3693471Y-2057636D01*
X3692221Y-2060260D01*
Y-2060385D01*
X3692096Y-2060510D01*
X3691846Y-2060885D01*
X3691471Y-2061385D01*
X3690596Y-2062510D01*
X3689472Y-2064009D01*
X3687972Y-2065634D01*
X3686222Y-2067259D01*
X3684098Y-2068883D01*
X3681724Y-2070383D01*
X3681599D01*
X3681474Y-2070508D01*
X3681099Y-2070633D01*
X3680599Y-2070883D01*
X3679974Y-2071133D01*
X3679224Y-2071507D01*
X3677350Y-2072007D01*
X3674975Y-2072632D01*
X3672351Y-2073257D01*
X3669352Y-2073632D01*
X3665978Y-2073757D01*
X3664603D01*
X3663603Y-2073632D01*
X3662354Y-2073507D01*
X3660979Y-2073257D01*
X3659354Y-2073007D01*
X3657605Y-2072632D01*
X3655855Y-2072257D01*
X3653981Y-2071632D01*
X3652106Y-2071008D01*
X3650107Y-2070133D01*
X3648232Y-2069133D01*
X3646358Y-2068008D01*
X3644483Y-2066634D01*
X3642859Y-2065134D01*
X3642734Y-2065009D01*
X3642484Y-2064759D01*
X3642109Y-2064259D01*
X3641484Y-2063509D01*
X3640859Y-2062635D01*
X3640109Y-2061510D01*
X3639359Y-2060260D01*
X3638610Y-2058886D01*
X3637735Y-2057261D01*
X3636985Y-2055512D01*
X3636235Y-2053512D01*
X3635610Y-2051388D01*
X3634986Y-2049138D01*
X3634611Y-2046764D01*
X3634236Y-2044139D01*
X3634111Y-2041390D01*
X3643858Y-2040515D01*
Y-2040640D01*
Y-2040890D01*
X3643983Y-2041265D01*
Y-2041765D01*
X3644233Y-2043265D01*
X3644608Y-2045014D01*
X3645108Y-2047014D01*
X3645608Y-2049013D01*
X3646483Y-2051013D01*
X3647357Y-2052762D01*
X3647482Y-2053012D01*
X3647857Y-2053512D01*
X3648482Y-2054262D01*
X3649357Y-2055262D01*
X3650482Y-2056386D01*
X3651731Y-2057511D01*
X3653356Y-2058761D01*
X3655105Y-2059760D01*
X3655355Y-2059885D01*
X3655980Y-2060135D01*
X3657105Y-2060635D01*
X3658480Y-2061010D01*
X3660229Y-2061510D01*
X3662229Y-2062010D01*
X3664353Y-2062260D01*
X3666727Y-2062385D01*
X3667602D01*
X3668227Y-2062260D01*
X3668977D01*
X3669852Y-2062135D01*
X3671976Y-2061885D01*
X3674226Y-2061260D01*
X3676600Y-2060510D01*
X3678849Y-2059510D01*
X3680974Y-2058011D01*
X3681224Y-2057761D01*
X3681724Y-2057136D01*
X3682598Y-2056261D01*
X3683598Y-2054887D01*
X3684473Y-2053137D01*
X3685348Y-2051263D01*
X3685848Y-2048888D01*
X3686098Y-2046389D01*
Y-2046139D01*
Y-2045639D01*
X3685973Y-2044889D01*
X3685848Y-2043889D01*
X3685598Y-2042765D01*
X3685348Y-2041515D01*
X3684848Y-2040265D01*
X3684223Y-2039016D01*
X3684098Y-2038891D01*
X3683848Y-2038516D01*
X3683473Y-2037891D01*
X3682848Y-2037141D01*
X3681974Y-2036391D01*
X3681099Y-2035517D01*
X3679974Y-2034642D01*
X3678599Y-2033892D01*
X3678474Y-2033767D01*
X3677850Y-2033517D01*
X3677350Y-2033267D01*
X3676725Y-2033017D01*
X3676100Y-2032767D01*
X3675225Y-2032392D01*
X3674226Y-2032018D01*
X3672976Y-2031643D01*
X3671726Y-2031143D01*
X3670227Y-2030643D01*
X3668602Y-2030143D01*
X3666727Y-2029518D01*
X3664728Y-2028893D01*
X3662479Y-2028268D01*
X3662354D01*
X3661979Y-2028144D01*
X3661479Y-2027894D01*
X3660729Y-2027644D01*
X3659729Y-2027394D01*
X3658730Y-2027019D01*
X3656355Y-2026269D01*
X3653856Y-2025269D01*
X3651231Y-2024145D01*
X3648857Y-2023020D01*
X3647857Y-2022395D01*
X3646858Y-2021770D01*
X3646608Y-2021645D01*
X3646108Y-2021145D01*
X3645233Y-2020396D01*
X3644233Y-2019396D01*
X3643109Y-2018271D01*
X3641859Y-2016771D01*
X3640734Y-2015147D01*
X3639609Y-2013397D01*
X3639484Y-2013147D01*
X3639235Y-2012523D01*
X3638860Y-2011398D01*
X3638360Y-2010023D01*
X3637860Y-2008274D01*
X3637485Y-2006399D01*
X3637235Y-2004275D01*
X3637110Y-2001900D01*
Y-2001775D01*
Y-2001400D01*
Y-2000776D01*
X3637235Y-2000026D01*
X3637360Y-1999026D01*
X3637485Y-1997776D01*
X3637735Y-1996527D01*
X3637985Y-1995152D01*
X3638860Y-1992153D01*
X3639484Y-1990653D01*
X3640234Y-1989029D01*
X3641109Y-1987404D01*
X3642109Y-1985904D01*
X3643234Y-1984405D01*
X3644483Y-1983030D01*
X3644608Y-1982905D01*
X3644858Y-1982655D01*
X3645233Y-1982405D01*
X3645858Y-1981905D01*
X3646608Y-1981281D01*
X3647482Y-1980656D01*
X3648607Y-1980031D01*
X3649857Y-1979281D01*
X3651231Y-1978656D01*
X3652731Y-1978031D01*
X3654356Y-1977407D01*
X3656105Y-1976782D01*
X3658105Y-1976282D01*
X3660104Y-1976032D01*
X3662354Y-1975782D01*
X3664603Y-1975657D01*
X3666103D01*
X3666852Y-1975782D01*
D02*
G37*
G36*
X3371303D02*
X3372303Y-1975907D01*
X3373428Y-1976032D01*
X3374677Y-1976282D01*
X3376052Y-1976532D01*
X3379051Y-1977407D01*
X3380676Y-1977906D01*
X3382300Y-1978656D01*
X3384050Y-1979531D01*
X3385674Y-1980406D01*
X3387299Y-1981530D01*
X3388799Y-1982780D01*
X3388924Y-1982905D01*
X3389174Y-1983155D01*
X3389548Y-1983530D01*
X3390173Y-1984030D01*
X3390798Y-1984780D01*
X3391548Y-1985654D01*
X3392423Y-1986779D01*
X3393298Y-1987904D01*
X3394172Y-1989278D01*
X3395172Y-1990903D01*
X3396047Y-1992528D01*
X3397047Y-1994402D01*
X3397921Y-1996402D01*
X3398796Y-1998526D01*
X3399546Y-2000776D01*
X3400171Y-2003275D01*
X3390048Y-2006149D01*
Y-2005899D01*
X3389798Y-2005274D01*
X3389423Y-2004275D01*
X3389049Y-2003025D01*
X3388299Y-2001525D01*
X3387549Y-1999901D01*
X3386549Y-1998151D01*
X3385425Y-1996277D01*
X3384175Y-1994402D01*
X3382675Y-1992653D01*
X3380926Y-1991028D01*
X3379051Y-1989528D01*
X3376927Y-1988279D01*
X3374552Y-1987279D01*
X3372053Y-1986654D01*
X3369179Y-1986404D01*
X3367929D01*
X3366429Y-1986654D01*
X3364555Y-1986904D01*
X3362430Y-1987404D01*
X3360181Y-1988029D01*
X3357932Y-1989029D01*
X3355682Y-1990403D01*
X3355432Y-1990528D01*
X3354807Y-1991153D01*
X3353683Y-1992153D01*
X3352433Y-1993402D01*
X3351058Y-1995152D01*
X3349559Y-1997401D01*
X3348059Y-1999901D01*
X3346684Y-2002900D01*
Y-2003025D01*
X3346559Y-2003275D01*
X3346435Y-2003775D01*
X3346185Y-2004400D01*
X3345935Y-2005274D01*
X3345560Y-2006274D01*
X3345310Y-2007399D01*
X3345060Y-2008649D01*
X3344685Y-2010148D01*
X3344435Y-2011773D01*
X3344060Y-2013522D01*
X3343810Y-2015397D01*
X3343685Y-2017396D01*
X3343435Y-2019521D01*
X3343310Y-2024145D01*
Y-2024394D01*
Y-2025019D01*
Y-2026019D01*
X3343435Y-2027394D01*
X3343560Y-2029018D01*
X3343685Y-2030768D01*
X3343935Y-2032892D01*
X3344185Y-2035142D01*
X3344935Y-2039891D01*
X3346185Y-2044639D01*
X3346934Y-2047014D01*
X3347809Y-2049388D01*
X3348934Y-2051388D01*
X3350059Y-2053387D01*
X3350184Y-2053512D01*
X3350433Y-2053762D01*
X3350808Y-2054262D01*
X3351308Y-2054887D01*
X3352058Y-2055636D01*
X3352808Y-2056386D01*
X3353808Y-2057261D01*
X3354932Y-2058136D01*
X3356182Y-2059136D01*
X3357557Y-2060010D01*
X3359056Y-2060760D01*
X3360681Y-2061510D01*
X3362430Y-2062135D01*
X3364305Y-2062635D01*
X3366179Y-2062885D01*
X3368304Y-2063010D01*
X3369179D01*
X3369679Y-2062885D01*
X3370428D01*
X3371303Y-2062635D01*
X3373303Y-2062260D01*
X3375552Y-2061510D01*
X3377926Y-2060510D01*
X3380426Y-2059011D01*
X3381675Y-2058136D01*
X3382800Y-2057136D01*
X3382925Y-2057011D01*
X3383050Y-2056886D01*
X3383425Y-2056511D01*
X3383800Y-2056011D01*
X3384300Y-2055387D01*
X3384800Y-2054637D01*
X3385425Y-2053637D01*
X3386174Y-2052637D01*
X3386799Y-2051388D01*
X3387549Y-2050013D01*
X3388174Y-2048513D01*
X3388924Y-2046889D01*
X3389548Y-2045139D01*
X3390048Y-2043140D01*
X3390548Y-2041140D01*
X3391048Y-2038891D01*
X3401420Y-2042015D01*
Y-2042140D01*
X3401295Y-2042765D01*
X3401046Y-2043515D01*
X3400796Y-2044639D01*
X3400296Y-2046014D01*
X3399921Y-2047514D01*
X3399296Y-2049263D01*
X3398546Y-2051013D01*
X3396922Y-2055012D01*
X3394797Y-2058886D01*
X3392298Y-2062760D01*
X3390798Y-2064384D01*
X3389299Y-2066009D01*
X3389174Y-2066134D01*
X3388924Y-2066384D01*
X3388424Y-2066759D01*
X3387799Y-2067259D01*
X3386924Y-2067758D01*
X3385924Y-2068508D01*
X3384800Y-2069133D01*
X3383550Y-2069883D01*
X3382050Y-2070633D01*
X3380551Y-2071257D01*
X3378801Y-2072007D01*
X3376927Y-2072507D01*
X3375052Y-2073007D01*
X3372928Y-2073382D01*
X3370803Y-2073632D01*
X3368554Y-2073757D01*
X3367554D01*
X3366679Y-2073632D01*
X3365805D01*
X3364680Y-2073507D01*
X3363555Y-2073257D01*
X3362180Y-2073132D01*
X3359306Y-2072507D01*
X3356182Y-2071507D01*
X3353058Y-2070258D01*
X3350059Y-2068508D01*
X3349934Y-2068383D01*
X3349684Y-2068258D01*
X3349309Y-2067883D01*
X3348809Y-2067508D01*
X3348184Y-2066884D01*
X3347434Y-2066259D01*
X3346559Y-2065384D01*
X3345685Y-2064384D01*
X3344685Y-2063260D01*
X3343685Y-2062135D01*
X3342685Y-2060635D01*
X3341561Y-2059136D01*
X3340561Y-2057511D01*
X3339561Y-2055636D01*
X3338562Y-2053762D01*
X3337562Y-2051638D01*
Y-2051513D01*
X3337312Y-2051138D01*
X3337062Y-2050513D01*
X3336812Y-2049513D01*
X3336437Y-2048513D01*
X3336062Y-2047139D01*
X3335562Y-2045639D01*
X3335187Y-2043889D01*
X3334688Y-2041890D01*
X3334188Y-2039766D01*
X3333813Y-2037516D01*
X3333438Y-2035142D01*
X3333188Y-2032517D01*
X3332938Y-2029893D01*
X3332688Y-2024145D01*
Y-2024020D01*
Y-2023395D01*
Y-2022645D01*
X3332813Y-2021520D01*
Y-2020146D01*
X3332938Y-2018646D01*
X3333063Y-2016896D01*
X3333313Y-2015022D01*
X3333563Y-2012897D01*
X3333938Y-2010773D01*
X3334688Y-2006399D01*
X3335937Y-2001900D01*
X3337562Y-1997651D01*
Y-1997526D01*
X3337812Y-1997151D01*
X3338062Y-1996652D01*
X3338437Y-1995902D01*
X3338936Y-1994902D01*
X3339561Y-1993902D01*
X3341061Y-1991528D01*
X3342935Y-1988904D01*
X3345185Y-1986154D01*
X3347809Y-1983530D01*
X3349184Y-1982405D01*
X3350683Y-1981281D01*
X3350808Y-1981156D01*
X3351058Y-1981031D01*
X3351558Y-1980781D01*
X3352183Y-1980406D01*
X3352933Y-1980031D01*
X3353933Y-1979531D01*
X3354932Y-1979031D01*
X3356182Y-1978406D01*
X3358931Y-1977407D01*
X3362180Y-1976532D01*
X3365680Y-1975907D01*
X3367554Y-1975657D01*
X3370553D01*
X3371303Y-1975782D01*
D02*
G37*
G36*
X3288324Y-2072132D02*
X3278077D01*
Y-2027394D01*
X3237587D01*
Y-2072132D01*
X3227340D01*
Y-1977282D01*
X3237587D01*
Y-2016147D01*
X3278077D01*
Y-1977282D01*
X3288324D01*
Y-2072132D01*
D02*
G37*
G36*
X4569246Y-2016646D02*
X4558374D01*
Y-2003400D01*
X4569246D01*
Y-2016646D01*
D02*
G37*
G36*
X4729830Y-1977032D02*
X4730580Y-1977157D01*
X4731580Y-1977282D01*
X4733829Y-1977781D01*
X4736329Y-1978656D01*
X4739078Y-1979906D01*
X4740328Y-1980656D01*
X4741702Y-1981530D01*
X4743077Y-1982655D01*
X4744327Y-1983905D01*
X4744452Y-1984030D01*
X4744576Y-1984280D01*
X4744951Y-1984655D01*
X4745326Y-1985155D01*
X4745826Y-1985904D01*
X4746451Y-1986654D01*
X4747076Y-1987654D01*
X4747701Y-1988779D01*
X4748825Y-1991278D01*
X4749950Y-1994277D01*
X4750700Y-1997776D01*
X4750825Y-1999526D01*
X4750950Y-2001525D01*
Y-2001650D01*
Y-2001775D01*
Y-2002150D01*
Y-2002650D01*
X4750825Y-2003900D01*
X4750575Y-2005399D01*
X4750200Y-2007149D01*
X4749700Y-2009148D01*
X4749075Y-2011148D01*
X4748076Y-2013022D01*
X4747951Y-2013272D01*
X4747576Y-2013772D01*
X4746951Y-2014772D01*
X4746076Y-2015772D01*
X4744951Y-2017021D01*
X4743702Y-2018396D01*
X4742077Y-2019646D01*
X4740328Y-2020770D01*
X4740578D01*
X4741077Y-2021020D01*
X4741952Y-2021395D01*
X4743077Y-2021770D01*
X4744202Y-2022395D01*
X4745451Y-2023145D01*
X4746826Y-2024145D01*
X4747951Y-2025144D01*
X4748076Y-2025269D01*
X4748450Y-2025644D01*
X4748950Y-2026269D01*
X4749700Y-2027144D01*
X4750450Y-2028268D01*
X4751325Y-2029643D01*
X4752075Y-2031268D01*
X4752824Y-2033017D01*
X4752949Y-2033267D01*
X4753074Y-2033892D01*
X4753449Y-2034892D01*
X4753824Y-2036266D01*
X4754074Y-2037891D01*
X4754449Y-2039766D01*
X4754574Y-2041890D01*
X4754699Y-2044139D01*
Y-2044264D01*
Y-2044764D01*
Y-2045389D01*
X4754574Y-2046264D01*
X4754449Y-2047389D01*
X4754324Y-2048763D01*
X4754074Y-2050138D01*
X4753699Y-2051762D01*
X4752824Y-2055137D01*
X4752200Y-2056886D01*
X4751450Y-2058636D01*
X4750575Y-2060510D01*
X4749450Y-2062260D01*
X4748326Y-2063884D01*
X4746951Y-2065509D01*
X4746826Y-2065634D01*
X4746576Y-2065884D01*
X4746201Y-2066259D01*
X4745576Y-2066759D01*
X4744826Y-2067383D01*
X4743952Y-2068133D01*
X4742952Y-2068883D01*
X4741702Y-2069633D01*
X4739078Y-2071133D01*
X4735954Y-2072507D01*
X4734204Y-2073007D01*
X4732455Y-2073382D01*
X4730580Y-2073632D01*
X4728581Y-2073757D01*
X4727581D01*
X4726956Y-2073632D01*
X4726081Y-2073507D01*
X4725081Y-2073382D01*
X4722707Y-2072882D01*
X4720083Y-2072007D01*
X4718583Y-2071382D01*
X4717208Y-2070633D01*
X4715709Y-2069883D01*
X4714334Y-2068883D01*
X4712960Y-2067758D01*
X4711585Y-2066509D01*
X4711460Y-2066384D01*
X4711335Y-2066134D01*
X4710960Y-2065759D01*
X4710460Y-2065134D01*
X4709960Y-2064509D01*
X4709336Y-2063509D01*
X4708711Y-2062510D01*
X4708086Y-2061385D01*
X4707336Y-2060010D01*
X4706711Y-2058511D01*
X4706086Y-2057011D01*
X4705462Y-2055262D01*
X4704837Y-2053387D01*
X4704462Y-2051388D01*
X4704087Y-2049263D01*
X4703837Y-2047014D01*
X4713334Y-2045514D01*
Y-2045764D01*
X4713459Y-2046264D01*
X4713709Y-2047264D01*
X4713959Y-2048388D01*
X4714334Y-2049888D01*
X4714834Y-2051388D01*
X4715584Y-2053137D01*
X4716334Y-2054762D01*
X4717208Y-2056511D01*
X4718208Y-2058261D01*
X4719458Y-2059760D01*
X4720833Y-2061260D01*
X4722457Y-2062385D01*
X4724207Y-2063384D01*
X4726206Y-2063884D01*
X4728331Y-2064134D01*
X4728955D01*
X4729455Y-2064009D01*
X4730705Y-2063884D01*
X4732205Y-2063384D01*
X4734079Y-2062760D01*
X4735954Y-2061760D01*
X4737828Y-2060385D01*
X4738828Y-2059635D01*
X4739703Y-2058636D01*
Y-2058511D01*
X4739953Y-2058386D01*
X4740453Y-2057636D01*
X4741202Y-2056386D01*
X4742202Y-2054762D01*
X4743077Y-2052762D01*
X4743827Y-2050263D01*
X4744327Y-2047514D01*
X4744576Y-2044389D01*
Y-2044264D01*
Y-2044014D01*
Y-2043640D01*
X4744452Y-2043015D01*
Y-2042265D01*
X4744327Y-2041515D01*
X4744077Y-2039516D01*
X4743452Y-2037391D01*
X4742702Y-2035267D01*
X4741577Y-2033017D01*
X4740078Y-2031018D01*
X4739828Y-2030768D01*
X4739328Y-2030268D01*
X4738328Y-2029393D01*
X4737078Y-2028393D01*
X4735579Y-2027519D01*
X4733704Y-2026644D01*
X4731580Y-2026144D01*
X4729330Y-2025894D01*
X4728831D01*
X4728206Y-2026019D01*
X4727456D01*
X4726456Y-2026269D01*
X4725331Y-2026519D01*
X4724082Y-2026769D01*
X4722582Y-2027269D01*
X4723707Y-2017021D01*
X4725206Y-2017271D01*
X4725831D01*
X4726331Y-2017146D01*
X4727706Y-2017021D01*
X4729330Y-2016771D01*
X4731080Y-2016147D01*
X4732954Y-2015397D01*
X4734954Y-2014397D01*
X4736704Y-2012897D01*
X4736953Y-2012647D01*
X4737453Y-2012148D01*
X4738078Y-2011148D01*
X4738953Y-2009773D01*
X4739828Y-2008149D01*
X4740453Y-2006149D01*
X4740952Y-2003900D01*
X4741202Y-2001275D01*
Y-2001150D01*
Y-2001025D01*
Y-2000651D01*
Y-2000151D01*
X4740952Y-1999026D01*
X4740702Y-1997401D01*
X4740328Y-1995777D01*
X4739578Y-1994027D01*
X4738703Y-1992278D01*
X4737453Y-1990653D01*
X4737328Y-1990528D01*
X4736828Y-1990028D01*
X4735954Y-1989403D01*
X4734954Y-1988529D01*
X4733579Y-1987779D01*
X4732080Y-1987154D01*
X4730330Y-1986654D01*
X4728456Y-1986529D01*
X4727581D01*
X4726456Y-1986779D01*
X4725206Y-1987029D01*
X4723707Y-1987529D01*
X4722207Y-1988279D01*
X4720583Y-1989403D01*
X4719083Y-1990778D01*
X4718958Y-1991028D01*
X4718458Y-1991528D01*
X4717833Y-1992528D01*
X4717084Y-1994027D01*
X4716334Y-1995777D01*
X4715459Y-1998026D01*
X4714834Y-2000651D01*
X4714334Y-2003650D01*
X4704837Y-2001525D01*
Y-2001400D01*
X4704962Y-2001025D01*
X4705087Y-2000401D01*
X4705212Y-1999526D01*
X4705462Y-1998526D01*
X4705711Y-1997401D01*
X4706086Y-1996027D01*
X4706461Y-1994652D01*
X4707586Y-1991653D01*
X4708961Y-1988654D01*
X4710710Y-1985779D01*
X4711710Y-1984405D01*
X4712835Y-1983155D01*
X4712960Y-1983030D01*
X4713085Y-1982905D01*
X4713459Y-1982530D01*
X4713959Y-1982155D01*
X4714584Y-1981655D01*
X4715334Y-1981156D01*
X4717208Y-1980031D01*
X4719333Y-1978906D01*
X4721957Y-1977906D01*
X4724957Y-1977157D01*
X4726581Y-1977032D01*
X4728206Y-1976907D01*
X4729080D01*
X4729830Y-1977032D01*
D02*
G37*
G36*
X3444035Y-2015772D02*
X3478276Y-2072132D01*
X3464654D01*
X3436911Y-2024270D01*
X3424165Y-2039266D01*
Y-2072132D01*
X3413917D01*
Y-1977282D01*
X3424165D01*
Y-2024394D01*
X3462905Y-1977282D01*
X3476776D01*
X3444035Y-2015772D01*
D02*
G37*
G36*
X4388543Y-2072132D02*
X4377920D01*
X4337181Y-1997901D01*
Y-2072132D01*
X4327308D01*
Y-1977282D01*
X4337806D01*
X4378670Y-2051762D01*
Y-1977282D01*
X4388543D01*
Y-2072132D01*
D02*
G37*
G36*
X3547758D02*
X3537136D01*
X3496396Y-1997901D01*
Y-2072132D01*
X3486524D01*
Y-1977282D01*
X3497021D01*
X3537885Y-2051762D01*
Y-1977282D01*
X3547758D01*
Y-2072132D01*
D02*
G37*
G36*
X4962771D02*
X4952898D01*
Y-1992903D01*
X4930279Y-2072132D01*
X4921031D01*
X4898537Y-1991528D01*
Y-2072132D01*
X4888665D01*
Y-1977282D01*
X4904036D01*
X4922531Y-2044514D01*
X4926155Y-2058511D01*
X4926280Y-2058261D01*
X4926405Y-2057511D01*
X4926780Y-2056386D01*
X4927155Y-2054637D01*
X4927780Y-2052512D01*
X4928529Y-2049888D01*
X4929279Y-2046889D01*
X4930279Y-2043390D01*
X4948899Y-1977282D01*
X4962771D01*
Y-2072132D01*
D02*
G37*
G36*
X4872294D02*
X4862421D01*
Y-1992903D01*
X4839802Y-2072132D01*
X4830554D01*
X4808060Y-1991528D01*
Y-2072132D01*
X4798188D01*
Y-1977282D01*
X4813559D01*
X4832054Y-2044514D01*
X4835678Y-2058511D01*
X4835803Y-2058261D01*
X4835928Y-2057511D01*
X4836303Y-2056386D01*
X4836678Y-2054637D01*
X4837303Y-2052512D01*
X4838053Y-2049888D01*
X4838802Y-2046889D01*
X4839802Y-2043390D01*
X4858422Y-1977282D01*
X4872294D01*
Y-2072132D01*
D02*
G37*
G36*
X3864927Y-1975782D02*
X3866051D01*
X3867426Y-1976032D01*
X3868801Y-1976157D01*
X3870425Y-1976407D01*
X3874049Y-1977157D01*
X3877798Y-1978281D01*
X3879798Y-1979031D01*
X3881797Y-1979781D01*
X3883797Y-1980781D01*
X3885671Y-1981905D01*
X3885796Y-1982030D01*
X3886171Y-1982155D01*
X3886671Y-1982530D01*
X3887296Y-1983030D01*
X3888171Y-1983655D01*
X3889171Y-1984530D01*
X3890295Y-1985404D01*
X3891545Y-1986529D01*
X3892795Y-1987654D01*
X3894044Y-1989029D01*
X3895419Y-1990528D01*
X3896794Y-1992153D01*
X3898168Y-1993902D01*
X3899418Y-1995777D01*
X3900668Y-1997776D01*
X3901917Y-1999901D01*
X3902042Y-2000026D01*
X3902167Y-2000401D01*
X3902542Y-2001025D01*
X3902917Y-2001900D01*
X3903292Y-2003025D01*
X3903917Y-2004400D01*
X3904417Y-2005899D01*
X3905041Y-2007524D01*
X3905541Y-2009398D01*
X3906166Y-2011398D01*
X3906666Y-2013647D01*
X3907041Y-2015897D01*
X3907791Y-2020770D01*
X3907916Y-2023395D01*
X3908041Y-2026019D01*
Y-2026269D01*
Y-2026894D01*
X3907916Y-2027894D01*
Y-2029268D01*
X3907666Y-2030893D01*
X3907416Y-2032892D01*
X3907041Y-2035142D01*
X3906666Y-2037516D01*
X3906041Y-2040140D01*
X3905291Y-2042765D01*
X3904417Y-2045639D01*
X3903292Y-2048513D01*
X3902042Y-2051388D01*
X3900543Y-2054387D01*
X3898793Y-2057261D01*
X3896794Y-2060010D01*
X3896669Y-2060135D01*
X3896419Y-2060510D01*
X3895794Y-2061135D01*
X3895169Y-2061885D01*
X3894294Y-2062885D01*
X3893170Y-2063884D01*
X3892045Y-2065009D01*
X3890670Y-2066134D01*
X3889171Y-2067383D01*
X3887546Y-2068508D01*
X3885796Y-2069508D01*
X3884047Y-2070383D01*
X3882172Y-2071257D01*
X3880173Y-2071882D01*
X3878173Y-2072257D01*
X3876049Y-2072382D01*
X3875174D01*
X3874299Y-2072257D01*
X3873175Y-2072007D01*
X3871925Y-2071757D01*
X3870675Y-2071382D01*
X3869551Y-2070758D01*
X3868551Y-2069883D01*
X3868426Y-2069758D01*
X3868176Y-2069383D01*
X3867801Y-2068758D01*
X3867426Y-2067883D01*
X3866926Y-2066759D01*
X3866551Y-2065259D01*
X3866176Y-2063634D01*
X3865926Y-2061635D01*
X3865802Y-2061885D01*
X3865302Y-2062510D01*
X3864552Y-2063384D01*
X3863552Y-2064634D01*
X3862302Y-2065884D01*
X3860928Y-2067259D01*
X3859428Y-2068508D01*
X3857804Y-2069633D01*
X3857679Y-2069758D01*
X3857054Y-2070008D01*
X3856304Y-2070508D01*
X3855179Y-2070883D01*
X3853930Y-2071382D01*
X3852680Y-2071882D01*
X3851180Y-2072132D01*
X3849806Y-2072257D01*
X3849056D01*
X3848556Y-2072132D01*
X3847056Y-2071882D01*
X3845307Y-2071382D01*
X3843182Y-2070508D01*
X3841058Y-2069258D01*
X3839933Y-2068508D01*
X3838933Y-2067508D01*
X3837809Y-2066509D01*
X3836809Y-2065259D01*
X3836684Y-2065134D01*
X3836559Y-2064884D01*
X3836184Y-2064384D01*
X3835809Y-2063759D01*
X3835309Y-2062885D01*
X3834809Y-2061885D01*
X3834185Y-2060635D01*
X3833685Y-2059261D01*
X3833060Y-2057761D01*
X3832435Y-2056136D01*
X3831935Y-2054387D01*
X3831435Y-2052387D01*
X3831060Y-2050263D01*
X3830686Y-2048138D01*
X3830561Y-2045764D01*
X3830436Y-2043265D01*
Y-2043140D01*
Y-2042765D01*
Y-2042140D01*
X3830561Y-2041390D01*
Y-2040390D01*
X3830686Y-2039266D01*
X3830810Y-2038016D01*
X3831060Y-2036516D01*
X3831560Y-2033267D01*
X3832310Y-2029768D01*
X3833435Y-2026019D01*
X3834934Y-2022145D01*
Y-2022020D01*
X3835184Y-2021645D01*
X3835434Y-2021145D01*
X3835809Y-2020396D01*
X3836184Y-2019646D01*
X3836684Y-2018646D01*
X3838059Y-2016397D01*
X3839683Y-2013897D01*
X3841433Y-2011273D01*
X3843557Y-2008898D01*
X3844682Y-2007899D01*
X3845807Y-2006899D01*
X3845932D01*
X3846057Y-2006649D01*
X3846431Y-2006399D01*
X3846931Y-2006149D01*
X3848056Y-2005274D01*
X3849681Y-2004400D01*
X3851555Y-2003525D01*
X3853555Y-2002650D01*
X3855804Y-2002150D01*
X3858053Y-2001900D01*
X3858803D01*
X3859678Y-2002025D01*
X3860803Y-2002275D01*
X3862177Y-2002650D01*
X3863552Y-2003150D01*
X3865177Y-2003900D01*
X3866676Y-2004899D01*
X3866926Y-2005024D01*
X3867426Y-2005399D01*
X3868176Y-2006149D01*
X3869176Y-2007149D01*
X3870300Y-2008399D01*
X3871550Y-2009898D01*
X3872800Y-2011773D01*
X3873924Y-2013897D01*
X3875674Y-2003900D01*
X3885297D01*
X3877549Y-2047389D01*
Y-2047514D01*
Y-2047763D01*
X3877424Y-2048263D01*
X3877299Y-2048763D01*
X3877049Y-2050263D01*
X3876799Y-2052012D01*
X3876549Y-2053762D01*
X3876299Y-2055387D01*
X3876174Y-2056136D01*
Y-2056636D01*
X3876049Y-2057136D01*
Y-2057386D01*
Y-2057511D01*
Y-2057636D01*
X3876174Y-2058511D01*
X3876424Y-2059510D01*
X3877049Y-2060510D01*
X3877299Y-2060635D01*
X3877798Y-2061010D01*
X3878673Y-2061510D01*
X3879673Y-2061635D01*
X3879798D01*
X3880173Y-2061510D01*
X3880923Y-2061385D01*
X3881797Y-2061010D01*
X3882922Y-2060510D01*
X3884297Y-2059760D01*
X3885921Y-2058636D01*
X3887796Y-2057136D01*
X3888046Y-2056886D01*
X3888671Y-2056261D01*
X3889670Y-2055262D01*
X3890920Y-2053762D01*
X3892295Y-2052012D01*
X3893669Y-2049638D01*
X3895169Y-2047014D01*
X3896544Y-2044014D01*
Y-2043889D01*
X3896669Y-2043640D01*
X3896919Y-2043140D01*
X3897168Y-2042515D01*
X3897418Y-2041765D01*
X3897668Y-2040765D01*
X3898043Y-2039766D01*
X3898418Y-2038516D01*
X3899043Y-2035767D01*
X3899668Y-2032767D01*
X3900043Y-2029393D01*
X3900168Y-2025894D01*
Y-2025769D01*
Y-2025394D01*
Y-2024769D01*
X3900043Y-2023895D01*
Y-2022895D01*
X3899918Y-2021770D01*
X3899793Y-2020396D01*
X3899543Y-2019021D01*
X3898918Y-2015772D01*
X3898043Y-2012273D01*
X3896794Y-2008649D01*
X3895169Y-2005149D01*
Y-2005024D01*
X3894919Y-2004775D01*
X3894669Y-2004275D01*
X3894294Y-2003650D01*
X3893794Y-2002775D01*
X3893170Y-2001900D01*
X3891545Y-1999776D01*
X3889670Y-1997401D01*
X3887296Y-1995027D01*
X3884547Y-1992653D01*
X3881423Y-1990528D01*
X3881298Y-1990403D01*
X3881048Y-1990278D01*
X3880548Y-1990028D01*
X3879923Y-1989653D01*
X3879048Y-1989278D01*
X3878173Y-1988904D01*
X3877049Y-1988404D01*
X3875799Y-1987904D01*
X3872925Y-1986904D01*
X3869676Y-1986154D01*
X3866051Y-1985529D01*
X3862302Y-1985279D01*
X3861178D01*
X3860303Y-1985404D01*
X3859178Y-1985529D01*
X3857929Y-1985654D01*
X3856554Y-1985779D01*
X3855054Y-1986154D01*
X3851555Y-1986904D01*
X3847806Y-1988029D01*
X3845932Y-1988779D01*
X3844057Y-1989653D01*
X3842058Y-1990778D01*
X3840183Y-1991903D01*
X3840058Y-1992028D01*
X3839808Y-1992153D01*
X3839183Y-1992653D01*
X3838558Y-1993152D01*
X3837684Y-1993777D01*
X3836684Y-1994652D01*
X3835684Y-1995652D01*
X3834435Y-1996777D01*
X3833185Y-1998151D01*
X3831935Y-1999651D01*
X3830561Y-2001150D01*
X3829311Y-2003025D01*
X3827936Y-2004899D01*
X3826687Y-2006899D01*
X3825437Y-2009148D01*
X3824187Y-2011523D01*
X3824062Y-2011648D01*
X3823937Y-2012148D01*
X3823687Y-2012772D01*
X3823187Y-2013772D01*
X3822813Y-2015022D01*
X3822313Y-2016521D01*
X3821688Y-2018146D01*
X3821188Y-2020146D01*
X3820563Y-2022145D01*
X3820063Y-2024519D01*
X3819438Y-2026894D01*
X3819063Y-2029518D01*
X3818689Y-2032267D01*
X3818314Y-2035142D01*
X3818189Y-2038016D01*
X3818064Y-2041140D01*
Y-2041265D01*
Y-2041890D01*
Y-2042640D01*
X3818189Y-2043765D01*
Y-2045139D01*
X3818314Y-2046639D01*
X3818564Y-2048513D01*
X3818814Y-2050388D01*
X3819063Y-2052387D01*
X3819438Y-2054637D01*
X3820438Y-2059011D01*
X3821813Y-2063634D01*
X3822563Y-2065759D01*
X3823562Y-2067883D01*
X3823687Y-2068008D01*
X3823812Y-2068383D01*
X3824187Y-2068883D01*
X3824562Y-2069633D01*
X3825187Y-2070633D01*
X3825812Y-2071632D01*
X3827561Y-2074132D01*
X3829811Y-2076756D01*
X3832560Y-2079630D01*
X3835684Y-2082255D01*
X3839308Y-2084629D01*
X3839433D01*
X3839808Y-2084879D01*
X3840308Y-2085129D01*
X3841183Y-2085504D01*
X3842183Y-2086004D01*
X3843307Y-2086504D01*
X3844682Y-2087003D01*
X3846307Y-2087503D01*
X3848056Y-2088003D01*
X3849931Y-2088503D01*
X3851930Y-2089003D01*
X3854055Y-2089503D01*
X3856429Y-2089878D01*
X3858803Y-2090128D01*
X3861303Y-2090253D01*
X3863927Y-2090378D01*
X3865177D01*
X3866051Y-2090253D01*
X3867176D01*
X3868426Y-2090128D01*
X3869925Y-2089878D01*
X3871550Y-2089753D01*
X3875049Y-2089003D01*
X3878798Y-2088128D01*
X3882547Y-2086754D01*
X3884422Y-2086004D01*
X3886296Y-2085004D01*
X3886421Y-2084879D01*
X3886671Y-2084754D01*
X3887171Y-2084504D01*
X3887921Y-2084004D01*
X3888671Y-2083504D01*
X3889670Y-2082880D01*
X3891795Y-2081255D01*
X3894169Y-2079130D01*
X3896544Y-2076756D01*
X3898918Y-2074007D01*
X3901042Y-2070883D01*
X3910665D01*
Y-2071008D01*
X3910540Y-2071257D01*
X3910290Y-2071632D01*
X3910040Y-2072257D01*
X3909665Y-2072882D01*
X3909290Y-2073757D01*
X3908166Y-2075631D01*
X3906666Y-2077881D01*
X3904916Y-2080380D01*
X3902667Y-2083004D01*
X3900168Y-2085754D01*
X3900043Y-2085879D01*
X3899793Y-2086129D01*
X3899418Y-2086504D01*
X3898918Y-2086878D01*
X3898168Y-2087503D01*
X3897418Y-2088253D01*
X3895419Y-2089753D01*
X3893045Y-2091502D01*
X3890295Y-2093377D01*
X3887296Y-2095001D01*
X3884047Y-2096501D01*
X3883922D01*
X3883672Y-2096626D01*
X3883172Y-2096876D01*
X3882547Y-2097001D01*
X3881672Y-2097251D01*
X3880673Y-2097626D01*
X3879548Y-2097876D01*
X3878298Y-2098251D01*
X3876799Y-2098625D01*
X3875299Y-2098875D01*
X3871800Y-2099500D01*
X3867926Y-2099875D01*
X3863802Y-2100000D01*
X3862177D01*
X3861053Y-2099875D01*
X3859553Y-2099750D01*
X3857929Y-2099625D01*
X3856054Y-2099375D01*
X3853930Y-2099125D01*
X3851805Y-2098750D01*
X3849431Y-2098376D01*
X3844682Y-2097126D01*
X3842308Y-2096376D01*
X3839933Y-2095501D01*
X3837559Y-2094377D01*
X3835309Y-2093252D01*
X3835184Y-2093127D01*
X3834809Y-2092877D01*
X3834185Y-2092502D01*
X3833435Y-2092002D01*
X3832435Y-2091252D01*
X3831310Y-2090378D01*
X3830061Y-2089378D01*
X3828686Y-2088253D01*
X3827186Y-2086878D01*
X3825687Y-2085379D01*
X3824187Y-2083754D01*
X3822688Y-2082005D01*
X3821188Y-2080130D01*
X3819688Y-2078006D01*
X3818314Y-2075756D01*
X3816939Y-2073382D01*
X3816814Y-2073257D01*
X3816689Y-2072757D01*
X3816314Y-2072007D01*
X3815939Y-2071008D01*
X3815439Y-2069758D01*
X3814815Y-2068258D01*
X3814190Y-2066509D01*
X3813565Y-2064634D01*
X3812940Y-2062385D01*
X3812315Y-2060010D01*
X3811815Y-2057386D01*
X3811190Y-2054637D01*
X3810816Y-2051762D01*
X3810441Y-2048638D01*
X3810316Y-2045389D01*
X3810191Y-2042015D01*
Y-2041765D01*
Y-2041140D01*
Y-2040140D01*
X3810316Y-2038641D01*
X3810441Y-2037016D01*
X3810566Y-2035017D01*
X3810816Y-2032642D01*
X3811066Y-2030268D01*
X3811565Y-2027519D01*
X3811940Y-2024769D01*
X3812565Y-2021770D01*
X3813315Y-2018771D01*
X3814190Y-2015647D01*
X3815189Y-2012647D01*
X3816314Y-2009523D01*
X3817564Y-2006524D01*
X3817689Y-2006399D01*
X3817939Y-2005774D01*
X3818314Y-2005024D01*
X3818939Y-2003900D01*
X3819688Y-2002650D01*
X3820563Y-2001150D01*
X3821563Y-1999401D01*
X3822688Y-1997651D01*
X3824062Y-1995777D01*
X3825437Y-1993902D01*
X3828686Y-1989903D01*
X3830436Y-1988154D01*
X3832310Y-1986279D01*
X3834310Y-1984655D01*
X3836309Y-1983155D01*
X3836434Y-1983030D01*
X3836809Y-1982780D01*
X3837434Y-1982405D01*
X3838309Y-1982030D01*
X3839433Y-1981405D01*
X3840683Y-1980781D01*
X3842183Y-1980156D01*
X3843932Y-1979406D01*
X3845807Y-1978656D01*
X3847806Y-1978031D01*
X3849931Y-1977407D01*
X3852305Y-1976782D01*
X3854804Y-1976407D01*
X3857304Y-1976032D01*
X3860053Y-1975782D01*
X3862802Y-1975657D01*
X3864052D01*
X3864927Y-1975782D01*
D02*
G37*
G36*
X4991888Y-2072132D02*
X4981016D01*
Y-2058886D01*
X4991888D01*
Y-2072132D01*
D02*
G37*
G36*
X4690090D02*
X4679218D01*
Y-2058886D01*
X4690090D01*
Y-2072132D01*
D02*
G37*
G36*
X4569246D02*
X4558374D01*
Y-2058886D01*
X4569246D01*
Y-2072132D01*
D02*
G37*
G36*
X4515385Y-1977407D02*
X4516510D01*
X4518884Y-1977656D01*
X4521509Y-1977906D01*
X4524133Y-1978406D01*
X4526632Y-1979156D01*
X4527757Y-1979531D01*
X4528757Y-1980031D01*
X4529007Y-1980156D01*
X4529632Y-1980531D01*
X4530506Y-1981156D01*
X4531756Y-1982155D01*
X4533006Y-1983405D01*
X4534505Y-1984905D01*
X4535880Y-1986779D01*
X4537130Y-1988904D01*
Y-1989029D01*
X4537255Y-1989154D01*
X4537505Y-1989528D01*
X4537629Y-1990028D01*
X4538254Y-1991278D01*
X4538879Y-1993028D01*
X4539379Y-1995027D01*
X4540004Y-1997526D01*
X4540379Y-2000151D01*
X4540504Y-2003150D01*
Y-2003275D01*
Y-2003650D01*
Y-2004150D01*
X4540379Y-2004899D01*
Y-2005899D01*
X4540254Y-2006899D01*
X4539754Y-2009398D01*
X4539129Y-2012148D01*
X4538129Y-2015022D01*
X4536755Y-2017896D01*
X4535880Y-2019271D01*
X4534880Y-2020645D01*
Y-2020770D01*
X4534630Y-2020895D01*
X4534255Y-2021270D01*
X4533880Y-2021645D01*
X4533256Y-2022270D01*
X4532506Y-2022770D01*
X4531756Y-2023520D01*
X4530756Y-2024145D01*
X4528507Y-2025644D01*
X4525633Y-2027019D01*
X4522383Y-2028144D01*
X4518634Y-2029018D01*
X4518884Y-2029143D01*
X4519384Y-2029518D01*
X4520134Y-2030018D01*
X4521009Y-2030643D01*
X4523258Y-2032392D01*
X4524258Y-2033267D01*
X4525258Y-2034267D01*
X4525508Y-2034517D01*
X4526007Y-2035267D01*
X4526882Y-2036391D01*
X4528007Y-2037891D01*
X4529132Y-2039641D01*
X4530506Y-2041640D01*
X4531881Y-2044014D01*
X4533256Y-2046389D01*
X4546877Y-2072132D01*
X4533880D01*
X4523508Y-2052512D01*
X4523383Y-2052387D01*
X4523258Y-2052012D01*
X4522883Y-2051388D01*
X4522508Y-2050638D01*
X4522008Y-2049638D01*
X4521509Y-2048638D01*
X4520134Y-2046139D01*
X4518634Y-2043640D01*
X4517135Y-2041015D01*
X4515635Y-2038766D01*
X4515010Y-2037766D01*
X4514385Y-2036891D01*
X4514260Y-2036766D01*
X4513886Y-2036266D01*
X4513261Y-2035517D01*
X4512511Y-2034767D01*
X4511636Y-2033767D01*
X4510636Y-2032892D01*
X4509637Y-2032142D01*
X4508512Y-2031518D01*
X4508387Y-2031393D01*
X4508012Y-2031268D01*
X4507387Y-2031018D01*
X4506387Y-2030768D01*
X4505263Y-2030518D01*
X4503888Y-2030268D01*
X4502389Y-2030018D01*
X4488642D01*
Y-2072132D01*
X4478395D01*
Y-1977282D01*
X4514510D01*
X4515385Y-1977407D01*
D02*
G37*
G36*
X4462274Y-1988529D02*
X4416411D01*
Y-2017396D01*
X4459524D01*
Y-2028643D01*
X4416411D01*
Y-2060885D01*
X4464148D01*
Y-2072132D01*
X4406163D01*
Y-1977282D01*
X4462274D01*
Y-1988529D01*
D02*
G37*
G36*
X4311437D02*
X4265574D01*
Y-2017396D01*
X4308688D01*
Y-2028643D01*
X4265574D01*
Y-2060885D01*
X4313312D01*
Y-2072132D01*
X4255327D01*
Y-1977282D01*
X4311437D01*
Y-1988529D01*
D02*
G37*
G36*
X4241955D02*
X4199716D01*
Y-2017771D01*
X4236207D01*
Y-2029018D01*
X4199716D01*
Y-2072132D01*
X4189469D01*
Y-1977282D01*
X4241955D01*
Y-1988529D01*
D02*
G37*
G36*
X4175597D02*
X4133358D01*
Y-2017771D01*
X4169849D01*
Y-2029018D01*
X4133358D01*
Y-2072132D01*
X4123111D01*
Y-1977282D01*
X4175597D01*
Y-1988529D01*
D02*
G37*
G36*
X4104365Y-2072132D02*
X4094118D01*
Y-1977282D01*
X4104365D01*
Y-2072132D01*
D02*
G37*
G36*
X4081746Y-1988529D02*
X4056003D01*
Y-2072132D01*
X4045755D01*
Y-1988529D01*
X4020137D01*
Y-1977282D01*
X4081746D01*
Y-1988529D01*
D02*
G37*
G36*
X3621489D02*
X3575626D01*
Y-2017396D01*
X3618740D01*
Y-2028643D01*
X3575626D01*
Y-2060885D01*
X3623364D01*
Y-2072132D01*
X3565378D01*
Y-1977282D01*
X3621489D01*
Y-1988529D01*
D02*
G37*
G36*
X3317942Y-2072132D02*
X3307694D01*
Y-1977282D01*
X3317942D01*
Y-2072132D01*
D02*
G37*
G36*
X3216968Y-1988529D02*
X3191224D01*
Y-2072132D01*
X3180977D01*
Y-1988529D01*
X3155358D01*
Y-1977282D01*
X3216968D01*
Y-1988529D01*
D02*
G37*
G36*
X3080003Y-2060885D02*
X3118368D01*
Y-2072132D01*
X3069755D01*
Y-1977282D01*
X3080003D01*
Y-2060885D01*
D02*
G37*
G36*
X3062132Y-2072132D02*
X3050260D01*
X3041263Y-2043390D01*
X3008646D01*
X3000273Y-2072132D01*
X2989401D01*
X3019143Y-1977282D01*
X3030390D01*
X3062132Y-2072132D01*
D02*
G37*
G36*
X2987526Y-1988529D02*
X2961783D01*
Y-2072132D01*
X2951536D01*
Y-1988529D01*
X2925917D01*
Y-1977282D01*
X2987526D01*
Y-1988529D01*
D02*
G37*
G36*
X2836690D02*
X2810947D01*
Y-2072132D01*
X2800699D01*
Y-1988529D01*
X2775081D01*
Y-1977282D01*
X2836690D01*
Y-1988529D01*
D02*
G37*
G36*
X4640478Y-1977032D02*
X4641353Y-1977157D01*
X4642478Y-1977407D01*
X4644977Y-1978156D01*
X4646227Y-1978656D01*
X4647726Y-1979281D01*
X4649226Y-1980156D01*
X4650601Y-1981156D01*
X4652100Y-1982280D01*
X4653475Y-1983655D01*
X4654849Y-1985155D01*
X4656099Y-1986904D01*
X4656224Y-1987029D01*
X4656474Y-1987529D01*
X4656849Y-1988154D01*
X4657349Y-1989154D01*
X4657849Y-1990528D01*
X4658599Y-1992153D01*
X4659223Y-1994027D01*
X4659973Y-1996277D01*
X4660723Y-1998776D01*
X4661348Y-2001650D01*
X4662098Y-2004775D01*
X4662597Y-2008274D01*
X4663097Y-2012023D01*
X4663472Y-2016147D01*
X4663722Y-2020645D01*
X4663847Y-2025394D01*
Y-2025519D01*
Y-2025644D01*
Y-2026019D01*
Y-2026394D01*
Y-2027644D01*
X4663722Y-2029268D01*
X4663597Y-2031268D01*
X4663472Y-2033517D01*
X4663347Y-2036141D01*
X4663097Y-2038766D01*
X4662722Y-2041640D01*
X4662223Y-2044639D01*
X4661098Y-2050638D01*
X4660348Y-2053637D01*
X4659473Y-2056386D01*
X4658474Y-2059011D01*
X4657349Y-2061510D01*
X4657224Y-2061635D01*
X4657099Y-2062010D01*
X4656724Y-2062635D01*
X4656099Y-2063384D01*
X4655474Y-2064384D01*
X4654724Y-2065384D01*
X4653725Y-2066509D01*
X4652600Y-2067633D01*
X4651350Y-2068758D01*
X4649976Y-2069883D01*
X4648351Y-2070883D01*
X4646602Y-2071882D01*
X4644852Y-2072632D01*
X4642853Y-2073257D01*
X4640603Y-2073632D01*
X4638354Y-2073757D01*
X4637854D01*
X4637354Y-2073632D01*
X4636479D01*
X4635604Y-2073382D01*
X4634480Y-2073132D01*
X4633230Y-2072882D01*
X4631980Y-2072382D01*
X4630606Y-2071882D01*
X4629106Y-2071133D01*
X4627606Y-2070258D01*
X4626107Y-2069258D01*
X4624607Y-2068008D01*
X4623108Y-2066509D01*
X4621608Y-2064884D01*
X4620233Y-2063010D01*
X4620108Y-2062885D01*
X4619983Y-2062510D01*
X4619608Y-2061885D01*
X4619109Y-2060885D01*
X4618609Y-2059635D01*
X4617984Y-2058136D01*
X4617359Y-2056386D01*
X4616734Y-2054262D01*
X4616109Y-2051762D01*
X4615485Y-2049013D01*
X4614860Y-2046014D01*
X4614360Y-2042515D01*
X4613860Y-2038766D01*
X4613485Y-2034642D01*
X4613360Y-2030268D01*
X4613235Y-2025394D01*
Y-2025269D01*
Y-2025144D01*
Y-2024769D01*
Y-2024394D01*
Y-2023145D01*
X4613360Y-2021520D01*
X4613485Y-2019521D01*
X4613610Y-2017146D01*
X4613735Y-2014647D01*
X4613985Y-2011898D01*
X4614360Y-2009023D01*
X4614735Y-2006024D01*
X4615984Y-2000026D01*
X4616609Y-1997151D01*
X4617484Y-1994402D01*
X4618484Y-1991653D01*
X4619608Y-1989278D01*
X4619733Y-1989154D01*
X4619858Y-1988779D01*
X4620233Y-1988154D01*
X4620858Y-1987279D01*
X4621483Y-1986404D01*
X4622233Y-1985404D01*
X4623233Y-1984280D01*
X4624357Y-1983030D01*
X4625607Y-1981905D01*
X4627107Y-1980781D01*
X4628606Y-1979781D01*
X4630356Y-1978781D01*
X4632105Y-1978031D01*
X4634230Y-1977407D01*
X4636354Y-1977032D01*
X4638604Y-1976907D01*
X4639603D01*
X4640478Y-1977032D01*
D02*
G37*
G36*
X2883178Y-1975782D02*
X2884053D01*
X2885178Y-1975907D01*
X2886302Y-1976157D01*
X2887552Y-1976407D01*
X2890426Y-1977032D01*
X2893550Y-1978156D01*
X2896800Y-1979531D01*
X2898424Y-1980531D01*
X2900049Y-1981530D01*
X2900174Y-1981655D01*
X2900424Y-1981780D01*
X2900924Y-1982155D01*
X2901423Y-1982655D01*
X2902173Y-1983280D01*
X2903048Y-1984030D01*
X2903923Y-1984905D01*
X2904923Y-1985904D01*
X2905922Y-1987029D01*
X2907047Y-1988279D01*
X2908172Y-1989653D01*
X2909296Y-1991153D01*
X2910421Y-1992778D01*
X2911546Y-1994652D01*
X2913545Y-1998526D01*
Y-1998651D01*
X2913795Y-1999026D01*
X2914045Y-1999651D01*
X2914295Y-2000526D01*
X2914670Y-2001525D01*
X2915170Y-2002775D01*
X2915545Y-2004275D01*
X2916045Y-2005899D01*
X2916545Y-2007774D01*
X2916919Y-2009773D01*
X2917419Y-2012023D01*
X2917794Y-2014272D01*
X2918044Y-2016771D01*
X2918294Y-2019396D01*
X2918544Y-2024894D01*
Y-2025144D01*
Y-2025769D01*
Y-2026894D01*
X2918419Y-2028393D01*
X2918294Y-2030143D01*
X2918044Y-2032267D01*
X2917794Y-2034517D01*
X2917294Y-2037016D01*
X2916795Y-2039766D01*
X2916170Y-2042515D01*
X2915420Y-2045389D01*
X2914545Y-2048263D01*
X2913420Y-2051138D01*
X2912046Y-2053887D01*
X2910671Y-2056636D01*
X2908922Y-2059261D01*
X2908797Y-2059386D01*
X2908422Y-2059885D01*
X2907797Y-2060635D01*
X2907047Y-2061510D01*
X2905922Y-2062635D01*
X2904673Y-2063884D01*
X2903173Y-2065134D01*
X2901548Y-2066509D01*
X2899674Y-2067883D01*
X2897549Y-2069133D01*
X2895300Y-2070383D01*
X2892801Y-2071507D01*
X2890176Y-2072382D01*
X2887427Y-2073132D01*
X2884428Y-2073632D01*
X2881304Y-2073757D01*
X2880554D01*
X2879679Y-2073632D01*
X2878429Y-2073507D01*
X2876930Y-2073257D01*
X2875305Y-2073007D01*
X2873431Y-2072507D01*
X2871431Y-2071882D01*
X2869182Y-2071133D01*
X2866932Y-2070133D01*
X2864683Y-2068883D01*
X2862433Y-2067383D01*
X2860059Y-2065759D01*
X2857810Y-2063759D01*
X2855685Y-2061385D01*
X2853686Y-2058761D01*
X2853561Y-2058636D01*
X2853311Y-2058136D01*
X2852811Y-2057386D01*
X2852186Y-2056386D01*
X2851436Y-2055012D01*
X2850686Y-2053512D01*
X2849812Y-2051638D01*
X2848937Y-2049638D01*
X2848062Y-2047264D01*
X2847187Y-2044889D01*
X2846438Y-2042140D01*
X2845688Y-2039266D01*
X2845063Y-2036141D01*
X2844563Y-2032892D01*
X2844313Y-2029518D01*
X2844188Y-2026019D01*
Y-2025894D01*
Y-2025769D01*
Y-2025394D01*
Y-2024894D01*
X2844313Y-2023645D01*
Y-2022020D01*
X2844563Y-2020021D01*
X2844813Y-2017646D01*
X2845063Y-2015022D01*
X2845563Y-2012273D01*
X2846063Y-2009273D01*
X2846812Y-2006274D01*
X2847687Y-2003150D01*
X2848687Y-2000026D01*
X2849937Y-1997026D01*
X2851311Y-1994152D01*
X2852936Y-1991278D01*
X2854810Y-1988779D01*
X2854935Y-1988654D01*
X2855310Y-1988154D01*
X2855935Y-1987529D01*
X2856685Y-1986779D01*
X2857810Y-1985779D01*
X2859059Y-1984655D01*
X2860434Y-1983405D01*
X2862184Y-1982155D01*
X2863933Y-1981031D01*
X2865933Y-1979781D01*
X2868182Y-1978656D01*
X2870556Y-1977656D01*
X2873056Y-1976907D01*
X2875680Y-1976157D01*
X2878554Y-1975782D01*
X2881429Y-1975657D01*
X2882428D01*
X2883178Y-1975782D01*
D02*
G37*
%LPC*%
G36*
X3794820Y-1871459D02*
X3778574D01*
Y-1943815D01*
X3796694D01*
X3797569Y-1943690D01*
X3798569D01*
X3800693Y-1943440D01*
X3803193Y-1943065D01*
X3805692Y-1942440D01*
X3808066Y-1941691D01*
X3810191Y-1940566D01*
X3810441Y-1940441D01*
X3811066Y-1939941D01*
X3811940Y-1939191D01*
X3813190Y-1938066D01*
X3814440Y-1936567D01*
X3815814Y-1934817D01*
X3817064Y-1932568D01*
X3818189Y-1930069D01*
Y-1929944D01*
X3818314Y-1929569D01*
X3818564Y-1929069D01*
X3818814Y-1928319D01*
X3819063Y-1927444D01*
X3819438Y-1926319D01*
X3819688Y-1925070D01*
X3820063Y-1923570D01*
X3820438Y-1921946D01*
X3820813Y-1920196D01*
X3821063Y-1918322D01*
X3821313Y-1916322D01*
X3821813Y-1911948D01*
X3821938Y-1907074D01*
Y-1906949D01*
Y-1906450D01*
Y-1905700D01*
Y-1904700D01*
X3821813Y-1903450D01*
X3821688Y-1902076D01*
X3821563Y-1900576D01*
X3821438Y-1898827D01*
X3820938Y-1895202D01*
X3820313Y-1891453D01*
X3819313Y-1887829D01*
X3818689Y-1886080D01*
X3817939Y-1884455D01*
Y-1884330D01*
X3817814Y-1884080D01*
X3817564Y-1883705D01*
X3817189Y-1883081D01*
X3816439Y-1881706D01*
X3815189Y-1879956D01*
X3813815Y-1878082D01*
X3812065Y-1876332D01*
X3810191Y-1874583D01*
X3809066Y-1873958D01*
X3807941Y-1873333D01*
X3807691Y-1873208D01*
X3807192Y-1873083D01*
X3806192Y-1872708D01*
X3804817Y-1872333D01*
X3802943Y-1872083D01*
X3800693Y-1871708D01*
X3797944Y-1871584D01*
X3794820Y-1871459D01*
D02*
G37*
G36*
X3596121D02*
X3573376D01*
Y-1905325D01*
X3594371D01*
X3594996Y-1905200D01*
X3595871D01*
X3596745Y-1905075D01*
X3598745Y-1904825D01*
X3601119Y-1904325D01*
X3603369Y-1903575D01*
X3605493Y-1902451D01*
X3607368Y-1901076D01*
X3607618Y-1900826D01*
X3608117Y-1900326D01*
X3608742Y-1899326D01*
X3609617Y-1897827D01*
X3610492Y-1896077D01*
X3611117Y-1893828D01*
X3611617Y-1891203D01*
X3611867Y-1888079D01*
Y-1887954D01*
Y-1887829D01*
Y-1887080D01*
X3611742Y-1886080D01*
X3611617Y-1884705D01*
X3611367Y-1883206D01*
X3610867Y-1881581D01*
X3610367Y-1879956D01*
X3609617Y-1878457D01*
X3609492Y-1878332D01*
X3609242Y-1877832D01*
X3608742Y-1877082D01*
X3608117Y-1876207D01*
X3607368Y-1875333D01*
X3606493Y-1874458D01*
X3605493Y-1873583D01*
X3604368Y-1872958D01*
X3604243Y-1872833D01*
X3603744Y-1872708D01*
X3602994Y-1872458D01*
X3601869Y-1872208D01*
X3600369Y-1871958D01*
X3598370Y-1871708D01*
X3596121Y-1871459D01*
D02*
G37*
G36*
X3338437Y-1870709D02*
X3313943D01*
Y-1902076D01*
X3337187D01*
X3338437Y-1901951D01*
X3340061Y-1901826D01*
X3341811Y-1901701D01*
X3343685Y-1901326D01*
X3345435Y-1900951D01*
X3346934Y-1900451D01*
X3347059Y-1900326D01*
X3347559Y-1900076D01*
X3348184Y-1899701D01*
X3349059Y-1899076D01*
X3350059Y-1898327D01*
X3351058Y-1897327D01*
X3352058Y-1896202D01*
X3352933Y-1894953D01*
X3353058Y-1894828D01*
X3353308Y-1894328D01*
X3353683Y-1893453D01*
X3354058Y-1892453D01*
X3354432Y-1891203D01*
X3354807Y-1889704D01*
X3355057Y-1887954D01*
X3355182Y-1886205D01*
Y-1886080D01*
Y-1885830D01*
Y-1885455D01*
Y-1884955D01*
X3354932Y-1883705D01*
X3354682Y-1882081D01*
X3354183Y-1880206D01*
X3353433Y-1878332D01*
X3352308Y-1876457D01*
X3350933Y-1874833D01*
X3350683Y-1874708D01*
X3350184Y-1874208D01*
X3349184Y-1873583D01*
X3347809Y-1872708D01*
X3346060Y-1871958D01*
X3343935Y-1871334D01*
X3341311Y-1870834D01*
X3338437Y-1870709D01*
D02*
G37*
G36*
X3513017Y-1869334D02*
X3511892D01*
X3511142Y-1869459D01*
X3510143Y-1869584D01*
X3508893Y-1869834D01*
X3507643Y-1870209D01*
X3506269Y-1870584D01*
X3504769Y-1871084D01*
X3503269Y-1871708D01*
X3501645Y-1872458D01*
X3500020Y-1873458D01*
X3498396Y-1874583D01*
X3496896Y-1875832D01*
X3495396Y-1877332D01*
X3493897Y-1879082D01*
X3493772Y-1879207D01*
X3493522Y-1879581D01*
X3493147Y-1880081D01*
X3492772Y-1880956D01*
X3492147Y-1881956D01*
X3491522Y-1883206D01*
X3490898Y-1884705D01*
X3490148Y-1886455D01*
X3489398Y-1888454D01*
X3488773Y-1890704D01*
X3488148Y-1893203D01*
X3487523Y-1895827D01*
X3487148Y-1898827D01*
X3486774Y-1901951D01*
X3486524Y-1905450D01*
X3486399Y-1909074D01*
Y-1909324D01*
Y-1909824D01*
Y-1910698D01*
X3486524Y-1911948D01*
X3486649Y-1913448D01*
X3486774Y-1915197D01*
X3487024Y-1917072D01*
X3487398Y-1919071D01*
X3488273Y-1923445D01*
X3488898Y-1925695D01*
X3489648Y-1927944D01*
X3490523Y-1930193D01*
X3491522Y-1932318D01*
X3492647Y-1934442D01*
X3494022Y-1936317D01*
X3494147Y-1936442D01*
X3494397Y-1936692D01*
X3494772Y-1937192D01*
X3495396Y-1937817D01*
X3496146Y-1938566D01*
X3497021Y-1939316D01*
X3498146Y-1940191D01*
X3499270Y-1941066D01*
X3500520Y-1942065D01*
X3502020Y-1942940D01*
X3505144Y-1944440D01*
X3507018Y-1945065D01*
X3508768Y-1945565D01*
X3510767Y-1945814D01*
X3512767Y-1945939D01*
X3513267D01*
X3513892Y-1945814D01*
X3514641D01*
X3515641Y-1945690D01*
X3516766Y-1945440D01*
X3518016Y-1945065D01*
X3519390Y-1944690D01*
X3520890Y-1944190D01*
X3522389Y-1943565D01*
X3524014Y-1942815D01*
X3525639Y-1941816D01*
X3527138Y-1940691D01*
X3528763Y-1939441D01*
X3530262Y-1937942D01*
X3531762Y-1936192D01*
X3531887Y-1936067D01*
X3532137Y-1935692D01*
X3532512Y-1935192D01*
X3533012Y-1934317D01*
X3533512Y-1933318D01*
X3534261Y-1932068D01*
X3534886Y-1930693D01*
X3535636Y-1928944D01*
X3536386Y-1927069D01*
X3537011Y-1924945D01*
X3537761Y-1922570D01*
X3538260Y-1919946D01*
X3538760Y-1917197D01*
X3539135Y-1914073D01*
X3539385Y-1910948D01*
X3539510Y-1907449D01*
Y-1907324D01*
Y-1906949D01*
Y-1906325D01*
Y-1905450D01*
X3539385Y-1904325D01*
X3539260Y-1903075D01*
X3539135Y-1901701D01*
X3539010Y-1900201D01*
X3538510Y-1896827D01*
X3537885Y-1893078D01*
X3536886Y-1889329D01*
X3535511Y-1885580D01*
Y-1885455D01*
X3535386Y-1885205D01*
X3535136Y-1884830D01*
X3535011Y-1884330D01*
X3534261Y-1882956D01*
X3533262Y-1881331D01*
X3532012Y-1879456D01*
X3530387Y-1877457D01*
X3528513Y-1875582D01*
X3526388Y-1873833D01*
X3526263D01*
X3526138Y-1873583D01*
X3525764Y-1873458D01*
X3525264Y-1873083D01*
X3524014Y-1872458D01*
X3522389Y-1871584D01*
X3520390Y-1870709D01*
X3518141Y-1870084D01*
X3515641Y-1869584D01*
X3513017Y-1869334D01*
D02*
G37*
G36*
X3858553Y-2011523D02*
X3857929D01*
X3857054Y-2011648D01*
X3856054Y-2011898D01*
X3854804Y-2012398D01*
X3853555Y-2012897D01*
X3852055Y-2013772D01*
X3850555Y-2014897D01*
X3850430Y-2015022D01*
X3849931Y-2015522D01*
X3849181Y-2016397D01*
X3848181Y-2017646D01*
X3847056Y-2019396D01*
X3845807Y-2021395D01*
X3844557Y-2024020D01*
X3843932Y-2025394D01*
X3843307Y-2027019D01*
Y-2027144D01*
X3843182Y-2027394D01*
X3843057Y-2027894D01*
X3842807Y-2028518D01*
X3842557Y-2029268D01*
X3842308Y-2030143D01*
X3841808Y-2032392D01*
X3841183Y-2034892D01*
X3840683Y-2037766D01*
X3840308Y-2040890D01*
X3840183Y-2044014D01*
Y-2044139D01*
Y-2044389D01*
Y-2044889D01*
Y-2045514D01*
X3840308Y-2046264D01*
X3840433Y-2047014D01*
X3840683Y-2049013D01*
X3841058Y-2051263D01*
X3841683Y-2053512D01*
X3842557Y-2055761D01*
X3843682Y-2057761D01*
X3843807Y-2058011D01*
X3844307Y-2058511D01*
X3845057Y-2059261D01*
X3845932Y-2060135D01*
X3847181Y-2061135D01*
X3848431Y-2061885D01*
X3849931Y-2062385D01*
X3851555Y-2062635D01*
X3851680D01*
X3852180Y-2062510D01*
X3852930Y-2062385D01*
X3854055Y-2062135D01*
X3855179Y-2061760D01*
X3856679Y-2061010D01*
X3858178Y-2060135D01*
X3859803Y-2058886D01*
X3860053Y-2058761D01*
X3860553Y-2058136D01*
X3861428Y-2057261D01*
X3862552Y-2056011D01*
X3863802Y-2054387D01*
X3865052Y-2052387D01*
X3866426Y-2049888D01*
X3867676Y-2047139D01*
Y-2047014D01*
X3867801Y-2046764D01*
X3867926Y-2046389D01*
X3868176Y-2045764D01*
X3868426Y-2045014D01*
X3868676Y-2044139D01*
X3869301Y-2042015D01*
X3869925Y-2039516D01*
X3870425Y-2036641D01*
X3870800Y-2033517D01*
X3870925Y-2030268D01*
Y-2030143D01*
Y-2029893D01*
Y-2029393D01*
Y-2028768D01*
X3870800Y-2028019D01*
Y-2027144D01*
X3870425Y-2025144D01*
X3870050Y-2022895D01*
X3869426Y-2020520D01*
X3868551Y-2018396D01*
X3867301Y-2016397D01*
X3867176Y-2016147D01*
X3866676Y-2015647D01*
X3865926Y-2014897D01*
X3864802Y-2013897D01*
X3863552Y-2013022D01*
X3862052Y-2012273D01*
X3860428Y-2011773D01*
X3858553Y-2011523D01*
D02*
G37*
G36*
X4513136Y-1987779D02*
X4488642D01*
Y-2019146D01*
X4511886D01*
X4513136Y-2019021D01*
X4514760Y-2018896D01*
X4516510Y-2018771D01*
X4518384Y-2018396D01*
X4520134Y-2018021D01*
X4521634Y-2017521D01*
X4521759Y-2017396D01*
X4522258Y-2017146D01*
X4522883Y-2016771D01*
X4523758Y-2016147D01*
X4524758Y-2015397D01*
X4525758Y-2014397D01*
X4526757Y-2013272D01*
X4527632Y-2012023D01*
X4527757Y-2011898D01*
X4528007Y-2011398D01*
X4528382Y-2010523D01*
X4528757Y-2009523D01*
X4529132Y-2008274D01*
X4529507Y-2006774D01*
X4529756Y-2005024D01*
X4529881Y-2003275D01*
Y-2003150D01*
Y-2002900D01*
Y-2002525D01*
Y-2002025D01*
X4529632Y-2000776D01*
X4529382Y-1999151D01*
X4528882Y-1997276D01*
X4528132Y-1995402D01*
X4527007Y-1993527D01*
X4525633Y-1991903D01*
X4525383Y-1991778D01*
X4524883Y-1991278D01*
X4523883Y-1990653D01*
X4522508Y-1989778D01*
X4520759Y-1989029D01*
X4518634Y-1988404D01*
X4516010Y-1987904D01*
X4513136Y-1987779D01*
D02*
G37*
G36*
X3024517Y-1987279D02*
Y-1987404D01*
X3024392Y-1987654D01*
Y-1988154D01*
X3024267Y-1988779D01*
X3024142Y-1989653D01*
X3023892Y-1990653D01*
X3023642Y-1991778D01*
X3023392Y-1992903D01*
X3022767Y-1995652D01*
X3022143Y-1998776D01*
X3021268Y-2002025D01*
X3020268Y-2005399D01*
X3011645Y-2033142D01*
X3038013D01*
X3030016Y-2006899D01*
Y-2006774D01*
X3029891Y-2006399D01*
X3029641Y-2005774D01*
X3029391Y-2004899D01*
X3029141Y-2003900D01*
X3028766Y-2002650D01*
X3028391Y-2001400D01*
X3027891Y-1999901D01*
X3027016Y-1996777D01*
X3026142Y-1993527D01*
X3025267Y-1990278D01*
X3024517Y-1987279D01*
D02*
G37*
G36*
X4638104Y-1986529D02*
X4637479D01*
X4636979Y-1986654D01*
X4635854Y-1986904D01*
X4634355Y-1987529D01*
X4632605Y-1988529D01*
X4631730Y-1989154D01*
X4630731Y-1989903D01*
X4629856Y-1990778D01*
X4628981Y-1991903D01*
X4628106Y-1993152D01*
X4627232Y-1994527D01*
Y-1994652D01*
X4627107Y-1994902D01*
X4626857Y-1995402D01*
X4626607Y-1996152D01*
X4626232Y-1997026D01*
X4625857Y-1998276D01*
X4625482Y-1999651D01*
X4625107Y-2001400D01*
X4624732Y-2003400D01*
X4624357Y-2005524D01*
X4623982Y-2008149D01*
X4623607Y-2010898D01*
X4623358Y-2014022D01*
X4623108Y-2017521D01*
X4622983Y-2021270D01*
Y-2025394D01*
Y-2025519D01*
Y-2025644D01*
Y-2026394D01*
Y-2027519D01*
X4623108Y-2029143D01*
Y-2031018D01*
X4623233Y-2033142D01*
X4623358Y-2035392D01*
X4623482Y-2037891D01*
X4624107Y-2043140D01*
X4624357Y-2045764D01*
X4624857Y-2048263D01*
X4625357Y-2050638D01*
X4625857Y-2052762D01*
X4626607Y-2054762D01*
X4627357Y-2056386D01*
Y-2056511D01*
X4627606Y-2056761D01*
X4627856Y-2057136D01*
X4628106Y-2057636D01*
X4629106Y-2058886D01*
X4630481Y-2060260D01*
X4632105Y-2061635D01*
X4633980Y-2062885D01*
X4635105Y-2063384D01*
X4636229Y-2063759D01*
X4637479Y-2064009D01*
X4638729Y-2064134D01*
X4639353D01*
X4639853Y-2064009D01*
X4640978Y-2063759D01*
X4642478Y-2063135D01*
X4644227Y-2062260D01*
X4645102Y-2061510D01*
X4646102Y-2060760D01*
X4646976Y-2059885D01*
X4647851Y-2058886D01*
X4648726Y-2057636D01*
X4649601Y-2056261D01*
Y-2056136D01*
X4649851Y-2055886D01*
X4649976Y-2055387D01*
X4650351Y-2054637D01*
X4650601Y-2053762D01*
X4650975Y-2052512D01*
X4651475Y-2051138D01*
X4651850Y-2049388D01*
X4652225Y-2047389D01*
X4652725Y-2045264D01*
X4653100Y-2042640D01*
X4653350Y-2039891D01*
X4653725Y-2036766D01*
X4653850Y-2033267D01*
X4654100Y-2029518D01*
Y-2025394D01*
Y-2025269D01*
Y-2025144D01*
Y-2024394D01*
Y-2023145D01*
X4653975Y-2021645D01*
Y-2019771D01*
X4653850Y-2017646D01*
X4653725Y-2015272D01*
X4653600Y-2012897D01*
X4652975Y-2007649D01*
X4652600Y-2005024D01*
X4652225Y-2002525D01*
X4651725Y-2000151D01*
X4651100Y-1998026D01*
X4650351Y-1996027D01*
X4649601Y-1994402D01*
Y-1994277D01*
X4649351Y-1994027D01*
X4649101Y-1993652D01*
X4648851Y-1993152D01*
X4647851Y-1991903D01*
X4646477Y-1990403D01*
X4644852Y-1989029D01*
X4642853Y-1987779D01*
X4641853Y-1987279D01*
X4640603Y-1986904D01*
X4639353Y-1986654D01*
X4638104Y-1986529D01*
D02*
G37*
G36*
X2881429Y-1986404D02*
X2880304D01*
X2879554Y-1986529D01*
X2878554Y-1986654D01*
X2877305Y-1986904D01*
X2876055Y-1987279D01*
X2874680Y-1987654D01*
X2873181Y-1988154D01*
X2871681Y-1988779D01*
X2870056Y-1989528D01*
X2868432Y-1990528D01*
X2866807Y-1991653D01*
X2865308Y-1992903D01*
X2863808Y-1994402D01*
X2862308Y-1996152D01*
X2862184Y-1996277D01*
X2861934Y-1996652D01*
X2861559Y-1997151D01*
X2861184Y-1998026D01*
X2860559Y-1999026D01*
X2859934Y-2000276D01*
X2859309Y-2001775D01*
X2858559Y-2003525D01*
X2857810Y-2005524D01*
X2857185Y-2007774D01*
X2856560Y-2010273D01*
X2855935Y-2012897D01*
X2855560Y-2015897D01*
X2855185Y-2019021D01*
X2854935Y-2022520D01*
X2854810Y-2026144D01*
Y-2026394D01*
Y-2026894D01*
Y-2027769D01*
X2854935Y-2029018D01*
X2855060Y-2030518D01*
X2855185Y-2032267D01*
X2855435Y-2034142D01*
X2855810Y-2036141D01*
X2856685Y-2040515D01*
X2857310Y-2042765D01*
X2858060Y-2045014D01*
X2858934Y-2047264D01*
X2859934Y-2049388D01*
X2861059Y-2051513D01*
X2862433Y-2053387D01*
X2862558Y-2053512D01*
X2862808Y-2053762D01*
X2863183Y-2054262D01*
X2863808Y-2054887D01*
X2864558Y-2055636D01*
X2865433Y-2056386D01*
X2866557Y-2057261D01*
X2867682Y-2058136D01*
X2868932Y-2059136D01*
X2870431Y-2060010D01*
X2873556Y-2061510D01*
X2875430Y-2062135D01*
X2877180Y-2062635D01*
X2879179Y-2062885D01*
X2881179Y-2063010D01*
X2881679D01*
X2882303Y-2062885D01*
X2883053D01*
X2884053Y-2062760D01*
X2885178Y-2062510D01*
X2886427Y-2062135D01*
X2887802Y-2061760D01*
X2889302Y-2061260D01*
X2890801Y-2060635D01*
X2892426Y-2059885D01*
X2894050Y-2058886D01*
X2895550Y-2057761D01*
X2897175Y-2056511D01*
X2898674Y-2055012D01*
X2900174Y-2053262D01*
X2900299Y-2053137D01*
X2900549Y-2052762D01*
X2900924Y-2052262D01*
X2901423Y-2051388D01*
X2901923Y-2050388D01*
X2902673Y-2049138D01*
X2903298Y-2047763D01*
X2904048Y-2046014D01*
X2904798Y-2044139D01*
X2905422Y-2042015D01*
X2906172Y-2039641D01*
X2906672Y-2037016D01*
X2907172Y-2034267D01*
X2907547Y-2031143D01*
X2907797Y-2028019D01*
X2907922Y-2024519D01*
Y-2024394D01*
Y-2024020D01*
Y-2023395D01*
Y-2022520D01*
X2907797Y-2021395D01*
X2907672Y-2020146D01*
X2907547Y-2018771D01*
X2907422Y-2017271D01*
X2906922Y-2013897D01*
X2906297Y-2010148D01*
X2905297Y-2006399D01*
X2903923Y-2002650D01*
Y-2002525D01*
X2903798Y-2002275D01*
X2903548Y-2001900D01*
X2903423Y-2001400D01*
X2902673Y-2000026D01*
X2901673Y-1998401D01*
X2900424Y-1996527D01*
X2898799Y-1994527D01*
X2896925Y-1992653D01*
X2894800Y-1990903D01*
X2894675D01*
X2894550Y-1990653D01*
X2894175Y-1990528D01*
X2893675Y-1990153D01*
X2892426Y-1989528D01*
X2890801Y-1988654D01*
X2888802Y-1987779D01*
X2886552Y-1987154D01*
X2884053Y-1986654D01*
X2881429Y-1986404D01*
D02*
G37*
%LPD*%
%TF.MD5,cfdb13261d8b897ee2b612a585c94dde*%
M02*
