%TF.GenerationSoftware,Altium Limited,Altium Designer,21.8.1 (53)*%
G04 Layer_Color=65535*
%FSLAX45Y45*%
%MOMM*%
%TF.SameCoordinates,9CAB6441-B9E9-44DD-A1F1-36E89FF17874*%
%TF.FilePolarity,Positive*%
%TF.FileFunction,Legend,Top*%
%TF.Part,Single*%
G01*
G75*
%TA.AperFunction,NonConductor*%
%ADD16C,0.33020*%
G36*
X459441Y348276D02*
X463050Y347798D01*
X466956Y346760D01*
X471161Y345162D01*
X475378Y343090D01*
X475477Y342904D01*
X475763Y342816D01*
X476435Y342454D01*
X477206Y341906D01*
X479232Y340347D01*
X481744Y338328D01*
X484554Y335748D01*
X487474Y332508D01*
X490407Y328796D01*
X492878Y324598D01*
X492978Y324412D01*
X493276Y323851D01*
X493673Y323104D01*
X494082Y321884D01*
X494591Y320477D01*
X495198Y318883D01*
X496339Y314936D01*
X497403Y310230D01*
X498006Y305039D01*
X497978Y302388D01*
X497862Y299451D01*
X497274Y296502D01*
X496685Y293553D01*
X496597Y293267D01*
X496510Y292981D01*
X496060Y292023D01*
X495711Y290879D01*
X494987Y289535D01*
X494176Y287906D01*
X493277Y285990D01*
X492192Y283976D01*
X490733Y281762D01*
X489087Y279449D01*
X487068Y276937D01*
X484862Y274327D01*
X482369Y271803D01*
X479690Y269181D01*
X476538Y266546D01*
X473100Y263999D01*
X473573Y264011D01*
X474705Y264134D01*
X476410Y264082D01*
X478588Y264042D01*
X483616Y263600D01*
X485993Y263186D01*
X488369Y262772D01*
X488556Y262872D01*
X488942Y262597D01*
X490559Y262259D01*
X492948Y261373D01*
X496382Y260323D01*
X500201Y258999D01*
X504604Y257027D01*
X509393Y254780D01*
X514380Y252160D01*
X559888Y226514D01*
X535976Y213799D01*
X501313Y233470D01*
X501214Y233657D01*
X500642Y233832D01*
X499871Y234381D01*
X498913Y234830D01*
X497570Y235554D01*
X495940Y236365D01*
X492582Y238174D01*
X488652Y240158D01*
X484721Y242142D01*
X480791Y244125D01*
X477059Y245736D01*
X476674Y246010D01*
X475529Y246360D01*
X473900Y247171D01*
X471897Y247783D01*
X469508Y248670D01*
X466933Y249457D01*
X464556Y249871D01*
X462179Y250285D01*
X461893Y250372D01*
X461234Y250261D01*
X460188Y250424D01*
X458769Y250389D01*
X457064Y250440D01*
X455272Y250206D01*
X451500Y249639D01*
X451313Y249539D01*
X450840Y249527D01*
X450093Y249130D01*
X448873Y248721D01*
X447279Y248113D01*
X445411Y247120D01*
X443256Y246214D01*
X418597Y233102D01*
X452469Y169398D01*
X433414Y159266D01*
X357027Y302928D01*
X423908Y338488D01*
X425688Y339195D01*
X427370Y340089D01*
X429524Y340995D01*
X431865Y342000D01*
X436734Y344110D01*
X441989Y345945D01*
X447156Y347495D01*
X449696Y348126D01*
X451961Y348372D01*
X452148Y348471D01*
X452434Y348384D01*
X453094Y348495D01*
X454040Y348519D01*
X456404Y348578D01*
X459441Y348276D01*
D02*
G37*
G36*
X696450Y299125D02*
X674966Y287702D01*
X635196Y322389D01*
X575041Y290405D01*
X582493Y238533D01*
X562503Y227904D01*
X540854Y400670D01*
X561591Y411696D01*
X696450Y299125D01*
D02*
G37*
G36*
X397072Y3029511D02*
X400096Y3029328D01*
X403779Y3029030D01*
X407735Y3028346D01*
X411777Y3027375D01*
X411963Y3027275D01*
X412249Y3027361D01*
X412809Y3027060D01*
X413654Y3026846D01*
X414686Y3026532D01*
X415905Y3026117D01*
X418901Y3024988D01*
X422556Y3023745D01*
X426670Y3022014D01*
X431243Y3019797D01*
X436003Y3017480D01*
X487631Y2989740D01*
X410618Y2846413D01*
X357127Y2875155D01*
X355550Y2876242D01*
X352009Y2878145D01*
X348109Y2880721D01*
X344022Y2883397D01*
X340222Y2886160D01*
X337082Y2888808D01*
X336895Y2888908D01*
X336623Y2889295D01*
X335977Y2889882D01*
X335332Y2890468D01*
X334414Y2891442D01*
X333309Y2892516D01*
X331015Y2894950D01*
X328461Y2898244D01*
X325821Y2901824D01*
X323481Y2905963D01*
X321529Y2910375D01*
X321442Y2910662D01*
X321170Y2911049D01*
X320911Y2911908D01*
X320566Y2913054D01*
X320135Y2914487D01*
X319618Y2916206D01*
X319200Y2918112D01*
X318697Y2920304D01*
X317804Y2925347D01*
X317312Y2931136D01*
X317019Y2937298D01*
X317687Y2943904D01*
X317787Y2944091D01*
X317901Y2944750D01*
X317929Y2945696D01*
X318157Y2947014D01*
X318586Y2948706D01*
X318928Y2950684D01*
X319370Y2952848D01*
X320013Y2955385D01*
X320942Y2958008D01*
X321785Y2960918D01*
X322728Y2964014D01*
X323957Y2967197D01*
X326717Y2974120D01*
X330236Y2981116D01*
X330336Y2981303D01*
X330637Y2981862D01*
X331037Y2982608D01*
X331738Y2983912D01*
X332626Y2985117D01*
X333527Y2986794D01*
X334715Y2988558D01*
X336003Y2990508D01*
X338779Y2994781D01*
X342128Y2999226D01*
X345764Y3003758D01*
X349673Y3007903D01*
X349773Y3008089D01*
X350159Y3008362D01*
X350746Y3009007D01*
X351520Y3009552D01*
X352493Y3010470D01*
X353567Y3011574D01*
X356188Y3013769D01*
X359295Y3016423D01*
X362875Y3019063D01*
X366828Y3021503D01*
X370581Y3023570D01*
X370968Y3023842D01*
X372400Y3024273D01*
X374320Y3025163D01*
X376998Y3026126D01*
X379964Y3027175D01*
X383402Y3028210D01*
X387113Y3028858D01*
X390824Y3029506D01*
X391297Y3029492D01*
X392529Y3029550D01*
X394521Y3029681D01*
X397072Y3029511D01*
D02*
G37*
G36*
X539072Y2962099D02*
X553795Y2809353D01*
X614183Y2921740D01*
X632449Y2911926D01*
X555436Y2768599D01*
X536053Y2779015D01*
X521243Y2932047D01*
X460755Y2819473D01*
X442490Y2829288D01*
X519502Y2972615D01*
X539072Y2962099D01*
D02*
G37*
G36*
X680613Y2879081D02*
X687406Y2878313D01*
X687592Y2878213D01*
X688251Y2878099D01*
X689197Y2878071D01*
X690516Y2877843D01*
X692021Y2877515D01*
X693898Y2876986D01*
X696063Y2876544D01*
X698227Y2876102D01*
X703387Y2874530D01*
X709107Y2872658D01*
X715099Y2870399D01*
X720976Y2867481D01*
X723027Y2866379D01*
X724418Y2865392D01*
X726281Y2864390D01*
X728318Y2862815D01*
X730640Y2861327D01*
X733050Y2859553D01*
X735731Y2857391D01*
X738413Y2855229D01*
X744135Y2850233D01*
X749456Y2844492D01*
X752010Y2841198D01*
X754564Y2837904D01*
X754650Y2837618D01*
X755109Y2837131D01*
X755741Y2836071D01*
X756458Y2834725D01*
X757449Y2832992D01*
X758525Y2830972D01*
X759401Y2828580D01*
X760650Y2825987D01*
X761799Y2823208D01*
X762748Y2820056D01*
X763883Y2816804D01*
X764631Y2813280D01*
X765566Y2809655D01*
X766114Y2805758D01*
X766475Y2801961D01*
X766450Y2797891D01*
X766350Y2797704D01*
X766423Y2796945D01*
X766295Y2795813D01*
X766153Y2794208D01*
X765997Y2792130D01*
X765741Y2789865D01*
X765285Y2787228D01*
X764728Y2784405D01*
X764158Y2781108D01*
X763301Y2777725D01*
X762444Y2774343D01*
X761387Y2770587D01*
X758414Y2762818D01*
X756597Y2758990D01*
X754680Y2754976D01*
X754580Y2754790D01*
X754180Y2754044D01*
X753579Y2752926D01*
X752591Y2751535D01*
X751590Y2749671D01*
X750202Y2747535D01*
X748527Y2745312D01*
X746652Y2742717D01*
X744777Y2740121D01*
X742515Y2737253D01*
X737519Y2731531D01*
X731577Y2725837D01*
X728370Y2722996D01*
X725076Y2720443D01*
X724790Y2720357D01*
X724303Y2719898D01*
X723243Y2719266D01*
X721796Y2718362D01*
X720063Y2717372D01*
X718044Y2716295D01*
X715738Y2715132D01*
X713145Y2713883D01*
X710266Y2712548D01*
X707200Y2711313D01*
X703948Y2710178D01*
X700510Y2709143D01*
X693274Y2707747D01*
X689377Y2707199D01*
X685494Y2707124D01*
X685207Y2707037D01*
X684548Y2707151D01*
X683416Y2707279D01*
X681711Y2707235D01*
X679919Y2707477D01*
X677655Y2707733D01*
X674917Y2708003D01*
X672094Y2708559D01*
X668984Y2709029D01*
X665601Y2709886D01*
X662218Y2710743D01*
X658463Y2711800D01*
X650693Y2714774D01*
X646866Y2716590D01*
X642851Y2718507D01*
X640242Y2719909D01*
X638851Y2720897D01*
X637360Y2721698D01*
X635597Y2722886D01*
X633833Y2724073D01*
X629760Y2727222D01*
X625601Y2730658D01*
X621457Y2734566D01*
X617512Y2738848D01*
X617326Y2738948D01*
X617053Y2739334D01*
X616694Y2740008D01*
X615963Y2740881D01*
X615145Y2742041D01*
X614327Y2743201D01*
X612333Y2746194D01*
X610265Y2749947D01*
X608213Y2754173D01*
X606546Y2758671D01*
X605453Y2763341D01*
X605553Y2763528D01*
X605281Y2763914D01*
X605208Y2764674D01*
X605236Y2765620D01*
X604891Y2766766D01*
X604933Y2768185D01*
X604758Y2771882D01*
X604697Y2776238D01*
X605122Y2781053D01*
X605762Y2786714D01*
X607075Y2792734D01*
X626726Y2788180D01*
X626626Y2787994D01*
X626612Y2787521D01*
X626498Y2786862D01*
X626283Y2786016D01*
X626027Y2783752D01*
X625557Y2780641D01*
X625274Y2777431D01*
X624976Y2773748D01*
X625151Y2770051D01*
X625527Y2766727D01*
X625513Y2766254D01*
X625858Y2765108D01*
X626375Y2763389D01*
X627065Y2761097D01*
X628128Y2758604D01*
X629649Y2755625D01*
X631544Y2752445D01*
X633911Y2749252D01*
X634097Y2749151D01*
X634184Y2748865D01*
X635102Y2747891D01*
X636565Y2746144D01*
X638587Y2744097D01*
X641082Y2742035D01*
X644037Y2739487D01*
X647564Y2737112D01*
X651378Y2734822D01*
X653614Y2733620D01*
X654833Y2733206D01*
X656137Y2732505D01*
X659320Y2731275D01*
X663061Y2729745D01*
X667376Y2728388D01*
X671705Y2727503D01*
X676133Y2726805D01*
X676319Y2726705D01*
X676606Y2726791D01*
X678025Y2726749D01*
X680289Y2726493D01*
X683040Y2726696D01*
X686264Y2726886D01*
X689775Y2727161D01*
X693586Y2727996D01*
X697025Y2729030D01*
X697411Y2729303D01*
X698557Y2729648D01*
X700377Y2730352D01*
X702583Y2731328D01*
X704989Y2732677D01*
X707782Y2734299D01*
X710775Y2736293D01*
X713582Y2738388D01*
X713682Y2738575D01*
X714069Y2738847D01*
X714842Y2739392D01*
X715529Y2740224D01*
X716789Y2741228D01*
X717963Y2742519D01*
X719424Y2743896D01*
X720798Y2745560D01*
X724220Y2749245D01*
X727569Y2753691D01*
X731219Y2758695D01*
X734510Y2764373D01*
X734610Y2764559D01*
X735010Y2765305D01*
X735511Y2766237D01*
X736026Y2767642D01*
X736927Y2769319D01*
X737742Y2771283D01*
X738757Y2773620D01*
X739773Y2775956D01*
X741545Y2781489D01*
X743331Y2787495D01*
X744744Y2793702D01*
X745211Y2799935D01*
X745311Y2800122D01*
X745139Y2800695D01*
X745167Y2801641D01*
X745008Y2802687D01*
X745050Y2804105D01*
X744819Y2805911D01*
X744271Y2809808D01*
X743264Y2814192D01*
X741712Y2819350D01*
X739587Y2824335D01*
X736515Y2829348D01*
X736329Y2829448D01*
X736056Y2829834D01*
X735511Y2830608D01*
X734780Y2831481D01*
X733962Y2832641D01*
X732671Y2833815D01*
X731480Y2835175D01*
X729917Y2836736D01*
X726704Y2840144D01*
X722732Y2843479D01*
X718100Y2846929D01*
X712982Y2849919D01*
X710931Y2851021D01*
X709713Y2851435D01*
X708408Y2852136D01*
X705039Y2853466D01*
X701011Y2854910D01*
X696597Y2856081D01*
X691709Y2857266D01*
X686435Y2858178D01*
X686248Y2858279D01*
X685775Y2858292D01*
X685016Y2858220D01*
X684170Y2858434D01*
X681433Y2858704D01*
X678123Y2858802D01*
X674526Y2858813D01*
X670642Y2858738D01*
X666845Y2858376D01*
X663134Y2857728D01*
X648713Y2830889D01*
X690835Y2808256D01*
X681722Y2791295D01*
X620962Y2823943D01*
X649604Y2877248D01*
X649890Y2877334D01*
X650463Y2877507D01*
X651509Y2877665D01*
X653028Y2877810D01*
X654834Y2878041D01*
X656825Y2878172D01*
X659104Y2878388D01*
X661668Y2878692D01*
X667644Y2879084D01*
X673892Y2879089D01*
X680613Y2879081D01*
D02*
G37*
G36*
X5305458Y2855497D02*
X5284075Y2843887D01*
X5244002Y2878226D01*
X5184129Y2845717D01*
X5192033Y2793912D01*
X5172137Y2783110D01*
X5148982Y2955680D01*
X5169621Y2966886D01*
X5305458Y2855497D01*
D02*
G37*
G36*
X5085785Y2758133D02*
X5156070Y2796295D01*
X5165258Y2779374D01*
X5076006Y2730914D01*
X4998369Y2873904D01*
X5017335Y2884201D01*
X5085785Y2758133D01*
D02*
G37*
G36*
X4901678Y527698D02*
X4904743Y525804D01*
X4907995Y523809D01*
X4911618Y521614D01*
X4914955Y519332D01*
X4917633Y517166D01*
X4918192Y516865D01*
X4918464Y516478D01*
X4919108Y515890D01*
X4920955Y514412D01*
X4922974Y512361D01*
X4925265Y509923D01*
X4927455Y507299D01*
X4929631Y504202D01*
X4931519Y501019D01*
X4931792Y500631D01*
X4932134Y499485D01*
X4933021Y497564D01*
X4933707Y495271D01*
X4934564Y492404D01*
X4935307Y488878D01*
X4935661Y485080D01*
X4935629Y481010D01*
X4935529Y480824D01*
X4935615Y480537D01*
X4935499Y479878D01*
X4935571Y479119D01*
X4935310Y476855D01*
X4934749Y474032D01*
X4933886Y470651D01*
X4932823Y466897D01*
X4931472Y463058D01*
X4929549Y459047D01*
X4929448Y458861D01*
X4929147Y458303D01*
X4928645Y457371D01*
X4927755Y456169D01*
X4926665Y454593D01*
X4925474Y452832D01*
X4923996Y450984D01*
X4922332Y449237D01*
X4918316Y444913D01*
X4916079Y442995D01*
X4913369Y441091D01*
X4910659Y439188D01*
X4907763Y437385D01*
X4904494Y435782D01*
X4901140Y434467D01*
X4900853Y434381D01*
X4900280Y434210D01*
X4899234Y434053D01*
X4897800Y433624D01*
X4895994Y433397D01*
X4893816Y433370D01*
X4891064Y433172D01*
X4888227Y433260D01*
X4884831Y433650D01*
X4881249Y434140D01*
X4877108Y434932D01*
X4872882Y436010D01*
X4868097Y437390D01*
X4863140Y439343D01*
X4857912Y441683D01*
X4852411Y444411D01*
X4815915Y464103D01*
X4784568Y406007D01*
X4765575Y416255D01*
X4842837Y559447D01*
X4901678Y527698D01*
D02*
G37*
G36*
X4969757Y439997D02*
X4938712Y382459D01*
X4938611Y382273D01*
X4938410Y381901D01*
X4938008Y381156D01*
X4937506Y380225D01*
X4936903Y379107D01*
X4936200Y377804D01*
X4934879Y374911D01*
X4933171Y371745D01*
X4931750Y368665D01*
X4930429Y365772D01*
X4929912Y364368D01*
X4929595Y363336D01*
X4929395Y362964D01*
X4929365Y362018D01*
X4929034Y360514D01*
X4928975Y358622D01*
X4929002Y356444D01*
X4929301Y353879D01*
X4929886Y351399D01*
X4930844Y348718D01*
X4930930Y348432D01*
X4931474Y347657D01*
X4932189Y346310D01*
X4933563Y344847D01*
X4935024Y343097D01*
X4936856Y341147D01*
X4939262Y339368D01*
X4941955Y337675D01*
X4943258Y336971D01*
X4945035Y336253D01*
X4947098Y335621D01*
X4949533Y334788D01*
X4952542Y334126D01*
X4955651Y333651D01*
X4958961Y333547D01*
X4959434Y333532D01*
X4960480Y333689D01*
X4962286Y333917D01*
X4964479Y334417D01*
X4966959Y335002D01*
X4969453Y336061D01*
X4972148Y337491D01*
X4974758Y339209D01*
X4975145Y339480D01*
X4976020Y340211D01*
X4977296Y341685D01*
X4979061Y343619D01*
X4981126Y346110D01*
X4983594Y349347D01*
X4985991Y353343D01*
X4988688Y357897D01*
X5018729Y413573D01*
X5036232Y404128D01*
X4980270Y300412D01*
X4964629Y308852D01*
X4972868Y324121D01*
X4972581Y324035D01*
X4971907Y323677D01*
X4970660Y323148D01*
X4969126Y322533D01*
X4967119Y321933D01*
X4964826Y321247D01*
X4962346Y320662D01*
X4959394Y320091D01*
X4956255Y319621D01*
X4953030Y319437D01*
X4949434Y319455D01*
X4945937Y319658D01*
X4942169Y320249D01*
X4938315Y321127D01*
X4934289Y322577D01*
X4930465Y324400D01*
X4928975Y325204D01*
X4927214Y326395D01*
X4925080Y327787D01*
X4922674Y329566D01*
X4920283Y331818D01*
X4917519Y334271D01*
X4915143Y336996D01*
X4914871Y337383D01*
X4914141Y338257D01*
X4913153Y339992D01*
X4911980Y341828D01*
X4910821Y344136D01*
X4909576Y346731D01*
X4908619Y349411D01*
X4907948Y352177D01*
X4907862Y352464D01*
X4907891Y353410D01*
X4907749Y354929D01*
X4907909Y357007D01*
X4907982Y359371D01*
X4908257Y362108D01*
X4908919Y365117D01*
X4909681Y368312D01*
X4909781Y368498D01*
X4909997Y369343D01*
X4910514Y370747D01*
X4911519Y372609D01*
X4912538Y374944D01*
X4913859Y377838D01*
X4915481Y381290D01*
X4917591Y385200D01*
X4952254Y449441D01*
X4969757Y439997D01*
D02*
G37*
G36*
X5117099Y356168D02*
X5119091Y356295D01*
X5121541Y355935D01*
X5124278Y355660D01*
X5127101Y355099D01*
X5127574Y355084D01*
X5128605Y354768D01*
X5130110Y354437D01*
X5132359Y353704D01*
X5134794Y352871D01*
X5137602Y351837D01*
X5140596Y350702D01*
X5145624Y347989D01*
X5146640Y347200D01*
X5147758Y346597D01*
X5150636Y344804D01*
X5153500Y342537D01*
X5156923Y339969D01*
X5159959Y337129D01*
X5162894Y334103D01*
X5163080Y334002D01*
X5163166Y333716D01*
X5164082Y332741D01*
X5165256Y330905D01*
X5166701Y328683D01*
X5168232Y326174D01*
X5169562Y323292D01*
X5170792Y320224D01*
X5171449Y316985D01*
X5171534Y316699D01*
X5171591Y315466D01*
X5171632Y313761D01*
X5171558Y311396D01*
X5171470Y308559D01*
X5170994Y305450D01*
X5170217Y301782D01*
X5169053Y297842D01*
X5150616Y304665D01*
X5150817Y305037D01*
X5150947Y306169D01*
X5151379Y307860D01*
X5151724Y309837D01*
X5151898Y312388D01*
X5151700Y315139D01*
X5151215Y317805D01*
X5150358Y320672D01*
X5150272Y320959D01*
X5149642Y322020D01*
X5148927Y323367D01*
X5147567Y325303D01*
X5145735Y327254D01*
X5143344Y329505D01*
X5140479Y331772D01*
X5136856Y333968D01*
X5134808Y335073D01*
X5132659Y335992D01*
X5129851Y337026D01*
X5126857Y338161D01*
X5123476Y339023D01*
X5120266Y339313D01*
X5117328Y339215D01*
X5117042Y339129D01*
X5116182Y338872D01*
X5114849Y338629D01*
X5113501Y337914D01*
X5111867Y337113D01*
X5110031Y335940D01*
X5108569Y334565D01*
X5107277Y332617D01*
X5107177Y332431D01*
X5106976Y332059D01*
X5106861Y331400D01*
X5106358Y330469D01*
X5106098Y328205D01*
X5105868Y326887D01*
X5106010Y325367D01*
X5106096Y325081D01*
X5106182Y324794D01*
X5106439Y323934D01*
X5106782Y322787D01*
X5107311Y321540D01*
X5108026Y320192D01*
X5109114Y318644D01*
X5110202Y317095D01*
X5110388Y316995D01*
X5110660Y316608D01*
X5111390Y315733D01*
X5112679Y314557D01*
X5114425Y312893D01*
X5115528Y311817D01*
X5116817Y310641D01*
X5118191Y309178D01*
X5119852Y307801D01*
X5121499Y305951D01*
X5123432Y304187D01*
X5123618Y304086D01*
X5124076Y303599D01*
X5125093Y302810D01*
X5126009Y301835D01*
X5127197Y300472D01*
X5128858Y299095D01*
X5132166Y295868D01*
X5135745Y292254D01*
X5139325Y288639D01*
X5142532Y285226D01*
X5143806Y283577D01*
X5144994Y282215D01*
X5145266Y281827D01*
X5145996Y280953D01*
X5146898Y279504D01*
X5147970Y277483D01*
X5149129Y275175D01*
X5150188Y272680D01*
X5151231Y269713D01*
X5151701Y266575D01*
X5151787Y266288D01*
X5151843Y265055D01*
X5151699Y263451D01*
X5151725Y261272D01*
X5151265Y258636D01*
X5150517Y255914D01*
X5149468Y252633D01*
X5147946Y249367D01*
X5147846Y249181D01*
X5147745Y248995D01*
X5147143Y247878D01*
X5146052Y246302D01*
X5144474Y244269D01*
X5142323Y242064D01*
X5139885Y239773D01*
X5136973Y237497D01*
X5133690Y235422D01*
X5133303Y235150D01*
X5132056Y234621D01*
X5130049Y234021D01*
X5127655Y233149D01*
X5124316Y232306D01*
X5120704Y231851D01*
X5116619Y231410D01*
X5112364Y231543D01*
X5112177Y231643D01*
X5111891Y231557D01*
X5111232Y231672D01*
X5110386Y231888D01*
X5107936Y232248D01*
X5104927Y232910D01*
X5101360Y233874D01*
X5097234Y235138D01*
X5092936Y236976D01*
X5088367Y239201D01*
X5086505Y240206D01*
X5085116Y241196D01*
X5083440Y242100D01*
X5081678Y243291D01*
X5079645Y244869D01*
X5077425Y246548D01*
X5073086Y250091D01*
X5068676Y254394D01*
X5064940Y259054D01*
X5063122Y261478D01*
X5061878Y264072D01*
X5061792Y264359D01*
X5061706Y264646D01*
X5061449Y265506D01*
X5061006Y266466D01*
X5060577Y267900D01*
X5060249Y269519D01*
X5060021Y271325D01*
X5059708Y273418D01*
X5059495Y275696D01*
X5059196Y278262D01*
X5059184Y280913D01*
X5059459Y283649D01*
X5059647Y286673D01*
X5060123Y289782D01*
X5060885Y292977D01*
X5061934Y296258D01*
X5080758Y289707D01*
X5080658Y289521D01*
X5080557Y289335D01*
X5080442Y288676D01*
X5080227Y287830D01*
X5079594Y285767D01*
X5079033Y282945D01*
X5078743Y279735D01*
X5078640Y276425D01*
X5079096Y272813D01*
X5080125Y269373D01*
X5080396Y268986D01*
X5081026Y267925D01*
X5082013Y266190D01*
X5083559Y264154D01*
X5085750Y261530D01*
X5088513Y259077D01*
X5091835Y256323D01*
X5096018Y253826D01*
X5098066Y252720D01*
X5100215Y251801D01*
X5103209Y250667D01*
X5106303Y249718D01*
X5109785Y249042D01*
X5113367Y248551D01*
X5116692Y248921D01*
X5116979Y249007D01*
X5118125Y249350D01*
X5119559Y249779D01*
X5121480Y250665D01*
X5123501Y251738D01*
X5125437Y253098D01*
X5127387Y254931D01*
X5128880Y257251D01*
X5128980Y257437D01*
X5129382Y258182D01*
X5129799Y259400D01*
X5130129Y260904D01*
X5130189Y262796D01*
X5130061Y264788D01*
X5129561Y266980D01*
X5128690Y269374D01*
X5128604Y269661D01*
X5128146Y270149D01*
X5127330Y271310D01*
X5125769Y272873D01*
X5124953Y274035D01*
X5124037Y275010D01*
X5122748Y276186D01*
X5121374Y277649D01*
X5119813Y279213D01*
X5117880Y280977D01*
X5116048Y282927D01*
X5113742Y284892D01*
X5113556Y284993D01*
X5112912Y285581D01*
X5112182Y286456D01*
X5111079Y287532D01*
X5109790Y288708D01*
X5108230Y290271D01*
X5104736Y293599D01*
X5100970Y297313D01*
X5097305Y301214D01*
X5095659Y303064D01*
X5094199Y304814D01*
X5092638Y306377D01*
X5091550Y307926D01*
X5091278Y308313D01*
X5090649Y309374D01*
X5089747Y310822D01*
X5088674Y312843D01*
X5087702Y315051D01*
X5086558Y317832D01*
X5085886Y320599D01*
X5085416Y323737D01*
X5085431Y324210D01*
X5085460Y325156D01*
X5085605Y326761D01*
X5085765Y328838D01*
X5086125Y331289D01*
X5086872Y334011D01*
X5087907Y336818D01*
X5089227Y339712D01*
X5089428Y340084D01*
X5089830Y340829D01*
X5090720Y342032D01*
X5091911Y343794D01*
X5093288Y345455D01*
X5095052Y347388D01*
X5097003Y349221D01*
X5099325Y350852D01*
X5099612Y350938D01*
X5100386Y351482D01*
X5101734Y352197D01*
X5103469Y353184D01*
X5105576Y353971D01*
X5107970Y354843D01*
X5110550Y355614D01*
X5113216Y356099D01*
X5113503Y356185D01*
X5114262Y356256D01*
X5115494Y356312D01*
X5117099Y356168D01*
D02*
G37*
G36*
X5102222Y419491D02*
X5024959Y276299D01*
X5007456Y285743D01*
X5084719Y428935D01*
X5102222Y419491D01*
D02*
G37*
G36*
X5225456Y297221D02*
X5228767Y297118D01*
X5232449Y296813D01*
X5236031Y296323D01*
X5239885Y295446D01*
X5243825Y294282D01*
X5247750Y292645D01*
X5251761Y290721D01*
X5253809Y289616D01*
X5255198Y288626D01*
X5256774Y287535D01*
X5258621Y286058D01*
X5260841Y284379D01*
X5262960Y282514D01*
X5265165Y280363D01*
X5267355Y277739D01*
X5269545Y275114D01*
X5271635Y272304D01*
X5273710Y269021D01*
X5275499Y265651D01*
X5276900Y262010D01*
X5278201Y258183D01*
X5278286Y257896D01*
X5278357Y257137D01*
X5278700Y255990D01*
X5278842Y254471D01*
X5278970Y252479D01*
X5279182Y250200D01*
X5279381Y247449D01*
X5279378Y244325D01*
X5278988Y240929D01*
X5278684Y237246D01*
X5278093Y233478D01*
X5277115Y229438D01*
X5275750Y225126D01*
X5274285Y220627D01*
X5272246Y215957D01*
X5269920Y211202D01*
X5269719Y210829D01*
X5269318Y210084D01*
X5268514Y208595D01*
X5267222Y206647D01*
X5189947Y248342D01*
X5189847Y248156D01*
X5189545Y247598D01*
X5189229Y246566D01*
X5188813Y245348D01*
X5188195Y243758D01*
X5187477Y241982D01*
X5186212Y237856D01*
X5185205Y232870D01*
X5184570Y227683D01*
X5184594Y222381D01*
X5184893Y219815D01*
X5185378Y217150D01*
X5185463Y216863D01*
X5185549Y216576D01*
X5185907Y215902D01*
X5186164Y215042D01*
X5187408Y212448D01*
X5188925Y209466D01*
X5191186Y206082D01*
X5194207Y202769D01*
X5197887Y199341D01*
X5200021Y197949D01*
X5202341Y196457D01*
X5204017Y195552D01*
X5205793Y194834D01*
X5208415Y193901D01*
X5211237Y193339D01*
X5214432Y192577D01*
X5217929Y192374D01*
X5221440Y192643D01*
X5221913Y192628D01*
X5223059Y192971D01*
X5225066Y193571D01*
X5227460Y194443D01*
X5230342Y195773D01*
X5233811Y197748D01*
X5237482Y200095D01*
X5241081Y203202D01*
X5258023Y190935D01*
X5257923Y190748D01*
X5257435Y190290D01*
X5256847Y189646D01*
X5255686Y188830D01*
X5254610Y187728D01*
X5252961Y186454D01*
X5249562Y183719D01*
X5245218Y181015D01*
X5240215Y178425D01*
X5234652Y176137D01*
X5228833Y174709D01*
X5228647Y174810D01*
X5228074Y174638D01*
X5227314Y174567D01*
X5226081Y174511D01*
X5224563Y174369D01*
X5222671Y174428D01*
X5220779Y174487D01*
X5218516Y174747D01*
X5215965Y174921D01*
X5213328Y175382D01*
X5210506Y175943D01*
X5207497Y176605D01*
X5201223Y178789D01*
X5197957Y180310D01*
X5194504Y181933D01*
X5193573Y182435D01*
X5192370Y183324D01*
X5190881Y184128D01*
X5189119Y185319D01*
X5187086Y186897D01*
X5184680Y188676D01*
X5182374Y190641D01*
X5179983Y192893D01*
X5177506Y195432D01*
X5175130Y198157D01*
X5172954Y201254D01*
X5170779Y204351D01*
X5168804Y207821D01*
X5167216Y211562D01*
X5165916Y215389D01*
X5165830Y215676D01*
X5165759Y216436D01*
X5165416Y217582D01*
X5165274Y219101D01*
X5165147Y221094D01*
X5164934Y223372D01*
X5164736Y226124D01*
X5164824Y228961D01*
X5165028Y232457D01*
X5165231Y235954D01*
X5165923Y239908D01*
X5166800Y243762D01*
X5168165Y248074D01*
X5169530Y252387D01*
X5171468Y256870D01*
X5173794Y261626D01*
X5173995Y261998D01*
X5174397Y262743D01*
X5175387Y264132D01*
X5176291Y265808D01*
X5177683Y267942D01*
X5179462Y270348D01*
X5181341Y272940D01*
X5183508Y275618D01*
X5185960Y278382D01*
X5188700Y281231D01*
X5191439Y284080D01*
X5194551Y286729D01*
X5198036Y289176D01*
X5201520Y291624D01*
X5205176Y293498D01*
X5209104Y294985D01*
X5209390Y295071D01*
X5209964Y295242D01*
X5211110Y295585D01*
X5212730Y295913D01*
X5214636Y296327D01*
X5217015Y296726D01*
X5219581Y297025D01*
X5222332Y297223D01*
X5225456Y297221D01*
D02*
G37*
G36*
X3314244Y-1630926D02*
X3237917D01*
X3238044Y-1631180D01*
X3238552Y-1631688D01*
X3239441Y-1632704D01*
X3240457Y-1633974D01*
X3241727Y-1635625D01*
X3243124Y-1637657D01*
X3244648Y-1639816D01*
X3246172Y-1642356D01*
Y-1642483D01*
X3246299Y-1642610D01*
X3246553Y-1642991D01*
X3246807Y-1643499D01*
X3247569Y-1644896D01*
X3248458Y-1646547D01*
X3249474Y-1648452D01*
X3250490Y-1650611D01*
X3251506Y-1652770D01*
X3252395Y-1654929D01*
X3240711D01*
Y-1654802D01*
X3240457Y-1654421D01*
X3240203Y-1653913D01*
X3239822Y-1653278D01*
X3239441Y-1652389D01*
X3238806Y-1651373D01*
X3237536Y-1648960D01*
X3235885Y-1646293D01*
X3233853Y-1643245D01*
X3231694Y-1640324D01*
X3229281Y-1637403D01*
X3229154Y-1637276D01*
X3229027Y-1637022D01*
X3228646Y-1636641D01*
X3228138Y-1636133D01*
X3226868Y-1634863D01*
X3225090Y-1633212D01*
X3223185Y-1631561D01*
X3220899Y-1629783D01*
X3218613Y-1628132D01*
X3216200Y-1626735D01*
Y-1618988D01*
X3314244D01*
Y-1630926D01*
D02*
G37*
G36*
X3286177Y-1680456D02*
X3287320D01*
X3288717Y-1680583D01*
X3290114Y-1680710D01*
X3293162Y-1681091D01*
X3296337Y-1681599D01*
X3299385Y-1682361D01*
X3300909Y-1682869D01*
X3302179Y-1683377D01*
X3302306D01*
X3302433Y-1683504D01*
X3302814Y-1683631D01*
X3303322Y-1683885D01*
X3304465Y-1684647D01*
X3305989Y-1685663D01*
X3307640Y-1686933D01*
X3309291Y-1688584D01*
X3310942Y-1690489D01*
X3312466Y-1692775D01*
Y-1692902D01*
X3312593Y-1693029D01*
X3312720Y-1693410D01*
X3312974Y-1693918D01*
X3313609Y-1695188D01*
X3314117Y-1697093D01*
X3314752Y-1699252D01*
X3315387Y-1701792D01*
X3315768Y-1704713D01*
X3315895Y-1707888D01*
Y-1709158D01*
X3315768Y-1710047D01*
X3315641Y-1711063D01*
X3315514Y-1712333D01*
X3315260Y-1713730D01*
X3315006Y-1715127D01*
X3314117Y-1718302D01*
X3313482Y-1719953D01*
X3312720Y-1721604D01*
X3311958Y-1723255D01*
X3310942Y-1724779D01*
X3309799Y-1726176D01*
X3308529Y-1727573D01*
X3308402Y-1727700D01*
X3308148Y-1727827D01*
X3307767Y-1728208D01*
X3307132Y-1728589D01*
X3306370Y-1729097D01*
X3305481Y-1729732D01*
X3304338Y-1730367D01*
X3303068Y-1731002D01*
X3301544Y-1731510D01*
X3299893Y-1732145D01*
X3298115Y-1732653D01*
X3296210Y-1733161D01*
X3294051Y-1733542D01*
X3291765Y-1733923D01*
X3289352Y-1734050D01*
X3286685D01*
X3285034Y-1722366D01*
X3285161D01*
X3285542D01*
X3286050D01*
X3286812Y-1722239D01*
X3287701Y-1722112D01*
X3288717Y-1721985D01*
X3291130Y-1721731D01*
X3293670Y-1721223D01*
X3296210Y-1720461D01*
X3298496Y-1719572D01*
X3299385Y-1718937D01*
X3300274Y-1718302D01*
X3300401Y-1718175D01*
X3300909Y-1717540D01*
X3301544Y-1716778D01*
X3302306Y-1715508D01*
X3303068Y-1714111D01*
X3303703Y-1712333D01*
X3304211Y-1710174D01*
X3304338Y-1707888D01*
Y-1707126D01*
X3304211Y-1706110D01*
X3304084Y-1704967D01*
X3303830Y-1703697D01*
X3303449Y-1702300D01*
X3302941Y-1700903D01*
X3302179Y-1699506D01*
X3302052Y-1699379D01*
X3301798Y-1698871D01*
X3301290Y-1698363D01*
X3300528Y-1697601D01*
X3299639Y-1696712D01*
X3298623Y-1695950D01*
X3297480Y-1695188D01*
X3296083Y-1694680D01*
X3295956Y-1694553D01*
X3295321Y-1694426D01*
X3294432Y-1694172D01*
X3293162Y-1693918D01*
X3291384Y-1693664D01*
X3289352Y-1693537D01*
X3286812Y-1693283D01*
X3283891D01*
X3216581D01*
Y-1680329D01*
X3283129D01*
X3283256D01*
X3283637D01*
X3284272D01*
X3285161D01*
X3286177Y-1680456D01*
D02*
G37*
%LPC*%
G36*
X452582Y327375D02*
X449271Y327292D01*
X447478Y327058D01*
X445400Y326911D01*
X443234Y326478D01*
X440793Y325660D01*
X438253Y325028D01*
X435725Y323924D01*
X432725Y322808D01*
X384526Y297180D01*
X409856Y249542D01*
X453757Y272885D01*
X454966Y273767D01*
X457855Y275543D01*
X460932Y277419D01*
X464183Y279866D01*
X467061Y282116D01*
X469554Y284639D01*
X469828Y285024D01*
X470563Y285895D01*
X471573Y287150D01*
X472758Y288978D01*
X473843Y290993D01*
X474917Y293481D01*
X475792Y296343D01*
X476193Y299192D01*
X476281Y299478D01*
X476158Y300611D01*
X476309Y302129D01*
X476162Y304208D01*
X475730Y306374D01*
X475285Y309013D01*
X474466Y311454D01*
X473263Y314169D01*
X473163Y314355D01*
X473064Y314542D01*
X472766Y315102D01*
X472182Y315750D01*
X471002Y317519D01*
X469150Y319650D01*
X466825Y321769D01*
X464028Y323876D01*
X460669Y325685D01*
X456850Y327009D01*
X456278Y327184D01*
X454760Y327335D01*
X452582Y327375D01*
D02*
G37*
G36*
X558702Y390989D02*
X558802Y390802D01*
X558813Y390329D01*
X559024Y389483D01*
X559433Y388263D01*
X559941Y386855D01*
X560363Y385162D01*
X560883Y383282D01*
X561316Y381116D01*
X562380Y376410D01*
X563556Y371044D01*
X564743Y365206D01*
X565557Y359168D01*
X572214Y308791D01*
X620973Y334717D01*
X584969Y366375D01*
X584870Y366562D01*
X584198Y366924D01*
X583328Y367659D01*
X582259Y368768D01*
X580904Y369965D01*
X579163Y371436D01*
X577323Y373093D01*
X575384Y374938D01*
X571220Y378714D01*
X566856Y382864D01*
X562680Y387114D01*
X558702Y390989D01*
D02*
G37*
G36*
X399698Y3009366D02*
X397047Y3009349D01*
X394396Y3009332D01*
X391358Y3009043D01*
X388593Y3008367D01*
X388020Y3008194D01*
X386774Y3007663D01*
X384854Y3006773D01*
X382075Y3005624D01*
X378996Y3003916D01*
X375616Y3001649D01*
X372036Y2999009D01*
X368341Y2995710D01*
X368241Y2995523D01*
X367854Y2995251D01*
X367368Y2994792D01*
X366680Y2993960D01*
X365707Y2993042D01*
X364633Y2991938D01*
X363459Y2990647D01*
X362185Y2989170D01*
X360897Y2987220D01*
X359423Y2985370D01*
X356174Y2981111D01*
X352897Y2975906D01*
X349606Y2970229D01*
X349506Y2970042D01*
X349105Y2969297D01*
X348404Y2967992D01*
X347789Y2966401D01*
X346788Y2964537D01*
X345873Y2962387D01*
X344757Y2959864D01*
X343728Y2957054D01*
X341655Y2950962D01*
X339855Y2944483D01*
X338815Y2938076D01*
X338531Y2934866D01*
X338534Y2931742D01*
X338434Y2931556D01*
X338606Y2930983D01*
X338679Y2930223D01*
X338737Y2928991D01*
X339313Y2926040D01*
X340061Y2922515D01*
X341168Y2918317D01*
X342748Y2914105D01*
X344988Y2909780D01*
X346351Y2907846D01*
X347714Y2905913D01*
X347986Y2905526D01*
X348259Y2905140D01*
X348904Y2904553D01*
X349550Y2903966D01*
X350568Y2903179D01*
X351486Y2902205D01*
X352877Y2901217D01*
X354167Y2900043D01*
X355931Y2898856D01*
X357881Y2897568D01*
X359917Y2895993D01*
X362240Y2894505D01*
X364850Y2893103D01*
X367545Y2891414D01*
X400721Y2873588D01*
X459507Y2982994D01*
X425399Y3001320D01*
X423994Y3001835D01*
X420726Y3003351D01*
X417084Y3005067D01*
X413056Y3006511D01*
X409028Y3007955D01*
X405359Y3008726D01*
X405172Y3008826D01*
X404886Y3008739D01*
X403754Y3008867D01*
X401962Y3009110D01*
X399698Y3009366D01*
D02*
G37*
G36*
X5166913Y2946155D02*
X5167014Y2945969D01*
X5167030Y2945496D01*
X5167248Y2944652D01*
X5167668Y2943435D01*
X5168189Y2942032D01*
X5168624Y2940343D01*
X5169161Y2938468D01*
X5169613Y2936305D01*
X5170718Y2931609D01*
X5171941Y2926254D01*
X5173179Y2920425D01*
X5174046Y2914395D01*
X5181142Y2864078D01*
X5229673Y2890428D01*
X5193394Y2921771D01*
X5193293Y2921957D01*
X5192619Y2922313D01*
X5191742Y2923041D01*
X5190663Y2924140D01*
X5189298Y2925325D01*
X5187544Y2926781D01*
X5185690Y2928422D01*
X5183735Y2930250D01*
X5179538Y2933990D01*
X5175138Y2938102D01*
X5170925Y2942314D01*
X5166913Y2946155D01*
D02*
G37*
G36*
X4852688Y532254D02*
X4825058Y481048D01*
X4863602Y460251D01*
X4865007Y459733D01*
X4866496Y458930D01*
X4868272Y458212D01*
X4872484Y456660D01*
X4877169Y455094D01*
X4882054Y453901D01*
X4886869Y453467D01*
X4889334Y453579D01*
X4891426Y453893D01*
X4892000Y454064D01*
X4893433Y454493D01*
X4895354Y455380D01*
X4898049Y456810D01*
X4901046Y458800D01*
X4903972Y461548D01*
X4906912Y464770D01*
X4909696Y469038D01*
X4909796Y469224D01*
X4909897Y469411D01*
X4910500Y470528D01*
X4911218Y472304D01*
X4911950Y474553D01*
X4912698Y477275D01*
X4913174Y480385D01*
X4913463Y483594D01*
X4913279Y486819D01*
X4913294Y487292D01*
X4913137Y488338D01*
X4912623Y490058D01*
X4912023Y492065D01*
X4911151Y494459D01*
X4909806Y496867D01*
X4908088Y499477D01*
X4905984Y501815D01*
X4905798Y501915D01*
X4905153Y502503D01*
X4903950Y503392D01*
X4902475Y504669D01*
X4900155Y506162D01*
X4897276Y507955D01*
X4893653Y510151D01*
X4852688Y532254D01*
D02*
G37*
G36*
X5228422Y279993D02*
X5224066Y279940D01*
X5221687Y279540D01*
X5219207Y278955D01*
X5218633Y278784D01*
X5217100Y278169D01*
X5214892Y277196D01*
X5212096Y275579D01*
X5208712Y273318D01*
X5205213Y270398D01*
X5201886Y266904D01*
X5198715Y262364D01*
X5256625Y231118D01*
X5256725Y231304D01*
X5256926Y231676D01*
X5257142Y232522D01*
X5257358Y233367D01*
X5257961Y234484D01*
X5258291Y235988D01*
X5259240Y239083D01*
X5260017Y242751D01*
X5260607Y246519D01*
X5260826Y250488D01*
X5260370Y254100D01*
X5260471Y254286D01*
X5260199Y254673D01*
X5259942Y255533D01*
X5259785Y256580D01*
X5258727Y259074D01*
X5257411Y262428D01*
X5255250Y265998D01*
X5252330Y269497D01*
X5248751Y273112D01*
X5246430Y274604D01*
X5244110Y276096D01*
X5242993Y276699D01*
X5241962Y277015D01*
X5241030Y277518D01*
X5239627Y278035D01*
X5236532Y278983D01*
X5232764Y279574D01*
X5228422Y279993D01*
D02*
G37*
%LPD*%
D16*
X3141947Y-1727400D02*
G03*
X3141947Y-1727400I-15240J0D01*
G01*
%TF.MD5,a81387de473c7b8e10975392c501c880*%
M02*
