%TF.GenerationSoftware,Altium Limited,Altium Designer,21.8.1 (53)*%
G04 Layer_Physical_Order=2*
G04 Layer_Color=16711680*
%FSLAX45Y45*%
%MOMM*%
%TF.SameCoordinates,9CAB6441-B9E9-44DD-A1F1-36E89FF17874*%
%TF.FilePolarity,Positive*%
%TF.FileFunction,Copper,L2,Bot,Signal*%
%TF.Part,Single*%
G01*
G75*
%TA.AperFunction,Conductor*%
%ADD10C,0.50800*%
%TA.AperFunction,SMDPad,CuDef*%
%ADD12R,2.50000X0.30000*%
%TA.AperFunction,Conductor*%
%ADD13C,0.25400*%
%TA.AperFunction,ComponentPad*%
%ADD14C,5.50000*%
%TA.AperFunction,ViaPad*%
%ADD15C,0.45000*%
G36*
X3014760Y3890630D02*
X3166483Y3873405D01*
X3316952Y3846226D01*
X3450637Y3813349D01*
X3582292Y3772571D01*
X3711422Y3724024D01*
X3837556Y3667858D01*
X3960244Y3604252D01*
X4079048Y3533406D01*
X4193534Y3455554D01*
X4303292Y3370947D01*
X4407915Y3279869D01*
X4507018Y3182623D01*
X4600228Y3079542D01*
X4689253Y2968245D01*
X4769947Y2853796D01*
X4772496Y2851372D01*
X4774736Y2848657D01*
X4776128Y2847918D01*
X4777269Y2846833D01*
X4780552Y2845568D01*
X4783660Y2843917D01*
X4785229Y2843767D01*
X4786699Y2843201D01*
X4790215Y2843289D01*
X4793718Y2842953D01*
X4795225Y2843415D01*
X4796800Y2843454D01*
X4800016Y2844882D01*
X4803380Y2845912D01*
X5321970Y3124852D01*
X5324056Y3126573D01*
X5326422Y3127882D01*
X5327915Y3129757D01*
X5329765Y3131283D01*
X5331034Y3133672D01*
X5332718Y3135786D01*
X5333380Y3138089D01*
X5334505Y3140207D01*
X5334763Y3142899D01*
X5335510Y3145497D01*
X5338891Y3185848D01*
X5347224Y3225388D01*
X5366044Y3276141D01*
X5393185Y3323130D01*
X5428203Y3365241D01*
X5465529Y3397622D01*
X5507754Y3424074D01*
X5553807Y3443746D01*
X5605856Y3456598D01*
X5656667Y3460635D01*
X5698616Y3457868D01*
X5741798Y3449082D01*
X5792550Y3430338D01*
X5839610Y3403230D01*
X5881791Y3368227D01*
X5914233Y3330901D01*
X5940738Y3288665D01*
X5960456Y3242590D01*
X5973366Y3190393D01*
X5977412Y3139539D01*
X5974644Y3097589D01*
X5965858Y3054406D01*
X5947114Y3003652D01*
X5920007Y2956594D01*
X5885006Y2914414D01*
X5847681Y2881973D01*
X5805445Y2855468D01*
X5759371Y2835749D01*
X5707176Y2822841D01*
X5656157Y2818783D01*
X5622423Y2820579D01*
X5588812Y2826001D01*
X5540263Y2840598D01*
X5493542Y2863071D01*
X5491549Y2863584D01*
X5489730Y2864546D01*
X5486701Y2864832D01*
X5483756Y2865590D01*
X5481720Y2865302D01*
X5479670Y2865495D01*
X5476762Y2864600D01*
X5473751Y2864173D01*
X5471979Y2863127D01*
X5470013Y2862521D01*
X4951251Y2582441D01*
X4948188Y2579906D01*
X4944922Y2577639D01*
X4944322Y2576706D01*
X4943467Y2575998D01*
X4941607Y2572484D01*
X4939457Y2569140D01*
X4939260Y2568048D01*
X4938740Y2567066D01*
X4938367Y2563108D01*
X4937661Y2559196D01*
X4937896Y2558111D01*
X4937792Y2557006D01*
X4938962Y2553207D01*
X4939806Y2549322D01*
X4983362Y2449196D01*
X5022526Y2346167D01*
X5068334Y2201679D01*
X5104657Y2054454D01*
X5131338Y1905013D01*
X5148232Y1753984D01*
X5155235Y1602006D01*
X5152284Y1449730D01*
X5139360Y1297808D01*
X5116532Y1147142D01*
X5083785Y997872D01*
X5043093Y856566D01*
X4994770Y721196D01*
X4939342Y591510D01*
X4938540Y587698D01*
X4937394Y583978D01*
X4937506Y582790D01*
X4937260Y581622D01*
X4937977Y577794D01*
X4938342Y573918D01*
X4938900Y572863D01*
X4939120Y571690D01*
X4941247Y568428D01*
X4943068Y564987D01*
X4943988Y564226D01*
X4944640Y563226D01*
X4947852Y561027D01*
X4950852Y558543D01*
X5470012Y278240D01*
X5472368Y277515D01*
X5474531Y276328D01*
X5477151Y276042D01*
X5479670Y275266D01*
X5482125Y275498D01*
X5484576Y275229D01*
X5487106Y275967D01*
X5489730Y276214D01*
X5491910Y277368D01*
X5494277Y278058D01*
X5521515Y292241D01*
X5548922Y303415D01*
X5601864Y317254D01*
X5656751Y321960D01*
X5698622Y319198D01*
X5741803Y310412D01*
X5792557Y291668D01*
X5839613Y264562D01*
X5881796Y229558D01*
X5914235Y192234D01*
X5940740Y149998D01*
X5960458Y103924D01*
X5973366Y51729D01*
X5977412Y872D01*
X5974644Y-41077D01*
X5965858Y-84260D01*
X5947114Y-135014D01*
X5920007Y-182072D01*
X5885004Y-224254D01*
X5847679Y-256695D01*
X5805443Y-283200D01*
X5759368Y-302919D01*
X5707172Y-315829D01*
X5656235Y-319881D01*
X5618388Y-317625D01*
X5579681Y-310547D01*
X5528228Y-293100D01*
X5480357Y-267187D01*
X5437174Y-233213D01*
X5403714Y-196653D01*
X5376084Y-155005D01*
X5355175Y-109336D01*
X5340892Y-57012D01*
X5335464Y-4249D01*
X5334745Y-1915D01*
X5334516Y515D01*
X5333272Y2867D01*
X5332489Y5408D01*
X5330932Y7289D01*
X5329790Y9447D01*
X5327741Y11143D01*
X5326045Y13191D01*
X5323887Y14333D01*
X5322006Y15890D01*
X4803403Y295888D01*
X4800294Y296845D01*
X4797351Y298231D01*
X4795508Y298318D01*
X4793746Y298861D01*
X4790507Y298556D01*
X4787257Y298710D01*
X4785522Y298086D01*
X4783685Y297913D01*
X4780810Y296391D01*
X4777749Y295290D01*
X4776384Y294050D01*
X4774754Y293187D01*
X4772679Y290681D01*
X4770273Y288492D01*
X4624681Y91510D01*
X4533932Y-12277D01*
X4439532Y-108260D01*
X4341944Y-196763D01*
X4341562Y-197278D01*
X4341029Y-197634D01*
X4338567Y-201319D01*
X4335927Y-204881D01*
X4335772Y-205503D01*
X4335416Y-206036D01*
X4334551Y-210384D01*
X4333475Y-214684D01*
X4333569Y-215318D01*
X4333444Y-215946D01*
Y-659929D01*
X4333439Y-1515944D01*
X4333437Y-1549425D01*
X4332612Y-1568883D01*
X4330108Y-1588282D01*
X4325782Y-1607921D01*
X4319541Y-1627557D01*
X4311338Y-1646922D01*
X4310032Y-1649341D01*
X4298250Y-1644430D01*
X4310042Y-1605555D01*
X4314276Y-1562569D01*
X4314011D01*
Y-513883D01*
X4314327D01*
X4309891Y-468843D01*
X4305742Y-455167D01*
X4304900Y-450933D01*
X4304090Y-449720D01*
X4296753Y-425535D01*
X4275419Y-385621D01*
X4246708Y-350637D01*
X4211724Y-321925D01*
X4171810Y-300591D01*
X4128502Y-287454D01*
X4083462Y-283018D01*
Y-283333D01*
X4067605Y-286487D01*
X4064527Y-288544D01*
X4062411Y-288710D01*
X4021408Y-298554D01*
X3982449Y-314692D01*
X3946495Y-336724D01*
X3914430Y-364111D01*
X3914452Y-364133D01*
X3914451Y-364134D01*
X3888378Y-390207D01*
X3800981Y-434032D01*
X3665006Y-493039D01*
X3525689Y-543003D01*
X3418656Y-573689D01*
X3383249Y-583840D01*
X3341919Y-592821D01*
X3341918Y-592822D01*
X3238286Y-615341D01*
X3091419Y-637340D01*
X2943271Y-649712D01*
X2878267Y-650875D01*
X2763025D01*
X2645644Y-645280D01*
X2567669Y-636415D01*
X2497449Y-628431D01*
X2424232Y-615195D01*
X2424231D01*
X2350390Y-601844D01*
X2271447Y-582418D01*
X2219900Y-569733D01*
X2091306Y-529885D01*
X1965178Y-482448D01*
X1928183Y-465970D01*
X1521705Y-124315D01*
X1520001Y-123378D01*
X1490503Y-88321D01*
X1490502Y-88320D01*
X1008547Y484471D01*
X1006251Y486309D01*
X1003186Y490303D01*
X984085Y504960D01*
X961841Y514174D01*
X937970Y517316D01*
X914099Y514174D01*
X891855Y504960D01*
X891029Y504326D01*
X890354Y504083D01*
X732837Y409136D01*
X239576Y165532D01*
X235535Y172126D01*
X205865Y206865D01*
X171126Y236535D01*
X132173Y260405D01*
X89966Y277888D01*
X45544Y288553D01*
X0Y292137D01*
X-45544Y288553D01*
X-89966Y277888D01*
X-132173Y260405D01*
X-171126Y236535D01*
X-205865Y206865D01*
X-235535Y172126D01*
X-259405Y133173D01*
X-276888Y90966D01*
X-287553Y46544D01*
X-291137Y1000D01*
X-287553Y-44544D01*
X-276888Y-88966D01*
X-259405Y-131173D01*
X-235535Y-170126D01*
X-205865Y-204865D01*
X-171126Y-234535D01*
X-132173Y-258405D01*
X-89966Y-275888D01*
X-45544Y-286553D01*
X0Y-290137D01*
X45544Y-286553D01*
X89966Y-275888D01*
X132173Y-258405D01*
X171126Y-234535D01*
X205865Y-204865D01*
X235535Y-170126D01*
X259405Y-131173D01*
X276888Y-88966D01*
X287553Y-44544D01*
X291137Y1000D01*
X287553Y46544D01*
X276888Y90966D01*
X276694Y91435D01*
X771090Y335599D01*
X772482Y336668D01*
X774133Y337264D01*
X922374Y426620D01*
X933329Y432787D01*
X945106Y431091D01*
X945107Y431091D01*
X945160Y431086D01*
X1427092Y-141676D01*
X1462332Y-183559D01*
X1474955Y-193662D01*
X1475650Y-193863D01*
X1879329Y-533165D01*
X1884403Y-535954D01*
X1889130Y-539296D01*
X1931984Y-558385D01*
X1933847Y-558806D01*
X1935469Y-559815D01*
X2062619Y-607636D01*
X2064554Y-607955D01*
X2066277Y-608890D01*
X2195916Y-649061D01*
X2197816Y-649260D01*
X2199546Y-650069D01*
X2251644Y-662889D01*
X2331133Y-682451D01*
X2333185Y-682543D01*
X2335094Y-683295D01*
X2409488Y-696745D01*
X2409489Y-696745D01*
X2483332Y-710095D01*
X2485442Y-710058D01*
X2487452Y-710701D01*
X2558307Y-718757D01*
X2636883Y-727691D01*
X2639018Y-727513D01*
X2641096Y-728030D01*
X2760065Y-733701D01*
X2761056Y-733552D01*
X2762038Y-733748D01*
X2878397D01*
X2878993Y-733629D01*
X2879592Y-733737D01*
X2945355Y-732561D01*
X2947443Y-732106D01*
X2949567Y-732348D01*
X3098841Y-719881D01*
X3100969Y-719270D01*
X3103179Y-719376D01*
X3251903Y-697098D01*
X3253193Y-696635D01*
X3254564Y-696611D01*
X3359516Y-673804D01*
X3401424Y-664697D01*
X3403389Y-663843D01*
X3405522Y-663666D01*
X3441495Y-653352D01*
X3532757Y-627188D01*
X3549823Y-622295D01*
X3551039Y-621669D01*
X3552392Y-621467D01*
X3694254Y-570590D01*
X3695426Y-569887D01*
X3696761Y-569598D01*
X3835024Y-509598D01*
X3835980Y-508935D01*
X3837103Y-508627D01*
X3931515Y-461285D01*
X3936739Y-457221D01*
X3942241Y-453544D01*
X3973052Y-422733D01*
X3973858Y-421526D01*
X4000976Y-399271D01*
X4033176Y-382060D01*
X4068114Y-371462D01*
X4092079Y-369102D01*
X4104449Y-368307D01*
X4116426Y-370055D01*
X4140067Y-377227D01*
X4165639Y-390896D01*
X4188054Y-409291D01*
X4206449Y-431705D01*
X4220118Y-457278D01*
X4226159Y-477193D01*
X4228535Y-485026D01*
X4231298Y-513081D01*
X4231139Y-513883D01*
Y-1201808D01*
X4218439Y-1208378D01*
X4207976Y-1201387D01*
X4201987Y-1200196D01*
Y-1246508D01*
Y-1292820D01*
X4207976Y-1291629D01*
X4218439Y-1284638D01*
X4231139Y-1291208D01*
Y-1562569D01*
X4231564Y-1564706D01*
X4227146Y-1598261D01*
X4213370Y-1631521D01*
X4191454Y-1660082D01*
X4168695Y-1677545D01*
X4162893Y-1681997D01*
X4129634Y-1695774D01*
X4106262Y-1698851D01*
X4093942Y-1699766D01*
X4093941Y-1699767D01*
X4078085Y-1702921D01*
X4075070Y-1704935D01*
X4060693Y-1702076D01*
X3978519D01*
X3963403Y-1705082D01*
X3407544D01*
X3391687Y-1708237D01*
X3380461Y-1715737D01*
X3372079Y-1712161D01*
X3368765Y-1709441D01*
X3370910Y-1698654D01*
X3367981Y-1683929D01*
X3359640Y-1671445D01*
X3347157Y-1663104D01*
X3332431Y-1660175D01*
X3317706Y-1663104D01*
X3307135Y-1670167D01*
X3200743D01*
X3193033Y-1659990D01*
X3144308D01*
Y-1634590D01*
X3193763D01*
X3201196Y-1625093D01*
X3248331D01*
X3260396Y-1633154D01*
X3275122Y-1636083D01*
X3289847Y-1633154D01*
X3302331Y-1624813D01*
X3310672Y-1612330D01*
X3313601Y-1597604D01*
X3311004Y-1584548D01*
X3313194Y-1578161D01*
X3316569Y-1571848D01*
X3406092Y-1571856D01*
X3406094Y-1571856D01*
X3406096Y-1571856D01*
X3985902Y-1571842D01*
X3993098D01*
X3993267Y-1571809D01*
X3993435Y-1571840D01*
X3997652Y-1571785D01*
X3998553Y-1571594D01*
X3999467Y-1571698D01*
X4003653Y-1571349D01*
X4005066Y-1570943D01*
X4006537Y-1570944D01*
X4010217Y-1570215D01*
X4011841Y-1569543D01*
X4013584Y-1569308D01*
X4017107Y-1568099D01*
X4018816Y-1567105D01*
X4020713Y-1566548D01*
X4023993Y-1564831D01*
X4025626Y-1563515D01*
X4027517Y-1562608D01*
X4030471Y-1560394D01*
X4031906Y-1558795D01*
X4033665Y-1557560D01*
X4036212Y-1554894D01*
X4037422Y-1552990D01*
X4039018Y-1551394D01*
X4041298Y-1547982D01*
X4042206Y-1545791D01*
X4043550Y-1543838D01*
X4045312Y-1539748D01*
X4045816Y-1537385D01*
X4046795Y-1535175D01*
X4047976Y-1529915D01*
X4048031Y-1527653D01*
X4048576Y-1525457D01*
X4048965Y-1517159D01*
X4048874Y-1516550D01*
X4048994Y-1515946D01*
Y-659929D01*
Y-456268D01*
X4048694Y-454763D01*
X4048815Y-453234D01*
X4047717Y-449848D01*
X4047022Y-446357D01*
X4046170Y-445082D01*
X4045697Y-443622D01*
X4043386Y-440915D01*
X4041408Y-437955D01*
X4040133Y-437103D01*
X4039137Y-435936D01*
X4035967Y-434319D01*
X4033007Y-432342D01*
X4031501Y-432042D01*
X4030135Y-431345D01*
X4026588Y-431065D01*
X4023096Y-430370D01*
X4021591Y-430669D01*
X4020062Y-430549D01*
X4016676Y-431647D01*
X4013186Y-432342D01*
X4011910Y-433194D01*
X4010450Y-433667D01*
X3918658Y-485028D01*
X3823698Y-532645D01*
X3684758Y-592938D01*
X3542152Y-644083D01*
X3396348Y-685884D01*
X3247966Y-718128D01*
X3097632Y-740646D01*
X2945986Y-753311D01*
X2793663Y-756035D01*
X2641333Y-748774D01*
X2489638Y-731527D01*
X2339199Y-704329D01*
X2205545Y-671439D01*
X2073909Y-630649D01*
X1944807Y-582093D01*
X1818702Y-525922D01*
X1696040Y-462313D01*
X1577260Y-391466D01*
X1462798Y-313616D01*
X1353069Y-229017D01*
X1248469Y-137946D01*
X1149389Y-40710D01*
X1056199Y62359D01*
X967227Y173597D01*
X886547Y288027D01*
X883983Y290466D01*
X881726Y293192D01*
X880352Y293919D01*
X879225Y294991D01*
X875923Y296263D01*
X872795Y297918D01*
X871247Y298064D01*
X869796Y298623D01*
X866258Y298534D01*
X862735Y298866D01*
X861249Y298408D01*
X859694Y298369D01*
X856460Y296934D01*
X853078Y295892D01*
X334487Y15889D01*
X332422Y14180D01*
X330076Y12883D01*
X328567Y10989D01*
X326702Y9446D01*
X325449Y7077D01*
X323778Y4981D01*
X323109Y2654D01*
X321977Y515D01*
X321725Y-2153D01*
X320984Y-4730D01*
X317580Y-45230D01*
X309174Y-84967D01*
X290315Y-135665D01*
X263149Y-182599D01*
X228118Y-224654D01*
X190790Y-256990D01*
X148575Y-283398D01*
X102539Y-303035D01*
X50600Y-315843D01*
X-173Y-319875D01*
X-42124Y-317107D01*
X-85306Y-308321D01*
X-136059Y-289576D01*
X-183117Y-262470D01*
X-225299Y-227466D01*
X-257739Y-190141D01*
X-284245Y-147903D01*
X-303964Y-101830D01*
X-316873Y-49634D01*
X-320919Y1222D01*
X-318152Y43173D01*
X-309366Y86355D01*
X-290622Y137109D01*
X-263516Y184166D01*
X-228512Y226348D01*
X-191190Y258786D01*
X-148952Y285293D01*
X-102879Y305011D01*
X-50684Y317920D01*
X339Y321978D01*
X33922Y320198D01*
X67287Y314844D01*
X116143Y300196D01*
X162955Y277688D01*
X164946Y277175D01*
X166764Y276214D01*
X169794Y275928D01*
X172741Y275170D01*
X174777Y275459D01*
X176824Y275266D01*
X179732Y276161D01*
X182745Y276588D01*
X184516Y277635D01*
X186481Y278240D01*
X705628Y558554D01*
X708651Y561056D01*
X711881Y563278D01*
X712515Y564254D01*
X713412Y564997D01*
X715247Y568464D01*
X717382Y571754D01*
X717593Y572899D01*
X718138Y573928D01*
X718506Y577833D01*
X719219Y581690D01*
X718977Y582829D01*
X719086Y583989D01*
X717932Y587736D01*
X717115Y591573D01*
X665584Y711389D01*
X620481Y834944D01*
X577162Y980581D01*
X543418Y1128838D01*
X519404Y1279148D01*
X505259Y1430874D01*
X501074Y1583364D01*
X506901Y1735965D01*
X522750Y1888059D01*
X545536Y2023837D01*
X576354Y2158188D01*
X615110Y2290592D01*
X662120Y2421684D01*
X716745Y2549476D01*
X717548Y2553288D01*
X718694Y2557009D01*
X718582Y2558196D01*
X718828Y2559364D01*
X718111Y2563192D01*
X717746Y2567069D01*
X717188Y2568123D01*
X716968Y2569296D01*
X714841Y2572558D01*
X713019Y2576000D01*
X712101Y2576761D01*
X711449Y2577760D01*
X708235Y2579961D01*
X705235Y2582443D01*
X186480Y2862521D01*
X184123Y2863246D01*
X181961Y2864432D01*
X179341Y2864719D01*
X176823Y2865494D01*
X174368Y2865263D01*
X171916Y2865531D01*
X169386Y2864793D01*
X166762Y2864546D01*
X164582Y2863392D01*
X162215Y2862702D01*
X135006Y2848534D01*
X107651Y2837374D01*
X54649Y2823510D01*
X-260Y2818801D01*
X-42129Y2821563D01*
X-85311Y2830348D01*
X-136064Y2849093D01*
X-183122Y2876199D01*
X-225302Y2911201D01*
X-257742Y2948526D01*
X-284247Y2990763D01*
X-303966Y3036837D01*
X-316875Y3089033D01*
X-320920Y3139888D01*
X-318152Y3181838D01*
X-309366Y3225020D01*
X-290621Y3275775D01*
X-263514Y3322832D01*
X-228511Y3365015D01*
X-191187Y3397455D01*
X-148949Y3423961D01*
X-102875Y3443680D01*
X-50680Y3456589D01*
X257Y3460641D01*
X38133Y3458382D01*
X76877Y3451292D01*
X128318Y3433837D01*
X176180Y3407919D01*
X219352Y3373942D01*
X252804Y3337381D01*
X280426Y3295735D01*
X301328Y3250068D01*
X315602Y3197767D01*
X321028Y3145010D01*
X321747Y3142676D01*
X321976Y3140245D01*
X323220Y3137895D01*
X324003Y3135353D01*
X325560Y3133472D01*
X326702Y3131314D01*
X328752Y3129618D01*
X330447Y3127570D01*
X332605Y3126428D01*
X334487Y3124871D01*
X852564Y2845167D01*
X855994Y2844110D01*
X859284Y2842666D01*
X860786Y2842635D01*
X862221Y2842193D01*
X865796Y2842530D01*
X869386Y2842455D01*
X870786Y2843000D01*
X872281Y2843141D01*
X875456Y2844821D01*
X878801Y2846125D01*
X879884Y2847164D01*
X881213Y2847867D01*
X883503Y2850634D01*
X886094Y2853119D01*
X956273Y2953533D01*
X1030815Y3049140D01*
X1121730Y3153224D01*
X1218720Y3251785D01*
X1321485Y3344489D01*
X1431389Y3432280D01*
X1544839Y3512248D01*
X1619828Y3559795D01*
X1697737Y3605086D01*
X1832353Y3674263D01*
X1971188Y3734552D01*
X2113810Y3785740D01*
X2259628Y3827582D01*
X2408027Y3859863D01*
X2558381Y3882416D01*
X2710059Y3895113D01*
X2862398Y3897865D01*
X3014760Y3890630D01*
D02*
G37*
%LPC*%
G36*
X2921486Y3602304D02*
Y3568692D01*
X2955098D01*
X2953907Y3574681D01*
X2943320Y3590526D01*
X2927476Y3601113D01*
X2921486Y3602304D01*
D02*
G37*
G36*
X2896086D02*
X2890097Y3601113D01*
X2874252Y3590526D01*
X2863665Y3574681D01*
X2862474Y3568692D01*
X2896086D01*
Y3602304D01*
D02*
G37*
G36*
X2955098Y3543292D02*
X2921486D01*
Y3509680D01*
X2927476Y3510871D01*
X2943320Y3521458D01*
X2953907Y3537302D01*
X2955098Y3543292D01*
D02*
G37*
G36*
X2896086D02*
X2862474D01*
X2863665Y3537302D01*
X2874252Y3521458D01*
X2890097Y3510871D01*
X2896086Y3509680D01*
Y3543292D01*
D02*
G37*
G36*
X2764527Y3280716D02*
X2763532Y3280519D01*
X2762526Y3280640D01*
X2632725Y3270695D01*
X2631751Y3270422D01*
X2630739Y3270466D01*
X2502287Y3250568D01*
X2501338Y3250222D01*
X2500328Y3250187D01*
X2373984Y3220501D01*
X2373065Y3220083D01*
X2372063Y3219970D01*
X2248566Y3180716D01*
X2247684Y3180229D01*
X2246694Y3180041D01*
X2126765Y3131497D01*
X2125925Y3130945D01*
X2124953Y3130682D01*
X2009283Y3073178D01*
X2008623Y3072668D01*
X2007833Y3072399D01*
X1934245Y3029782D01*
X1933752Y3029349D01*
X1933141Y3029106D01*
X1863134Y2983747D01*
X1862568Y2983196D01*
X1861853Y2982861D01*
X1765721Y2912016D01*
X1765087Y2911320D01*
X1764265Y2910859D01*
X1671001Y2831190D01*
X1670419Y2830451D01*
X1669633Y2829934D01*
X1584874Y2746305D01*
X1584354Y2745538D01*
X1583619Y2744975D01*
X1505081Y2655696D01*
X1504616Y2654895D01*
X1503924Y2654283D01*
X1431969Y2559817D01*
X1431563Y2558988D01*
X1430916Y2558329D01*
X1365872Y2459162D01*
X1365526Y2458307D01*
X1364927Y2457605D01*
X1307091Y2354246D01*
X1306806Y2353369D01*
X1306259Y2352628D01*
X1255883Y2245600D01*
X1255661Y2244707D01*
X1255168Y2243930D01*
X1212474Y2133770D01*
X1212315Y2132865D01*
X1211878Y2132057D01*
X1177046Y2019318D01*
X1176951Y2018405D01*
X1176572Y2017568D01*
X1149742Y1902811D01*
X1149710Y1901844D01*
X1149376Y1900936D01*
X1129075Y1771751D01*
X1129116Y1770735D01*
X1128841Y1769756D01*
X1118625Y1639583D01*
X1118745Y1638575D01*
X1118546Y1637579D01*
X1118433Y1507201D01*
X1118630Y1506207D01*
X1118509Y1505201D01*
X1128453Y1375400D01*
X1128726Y1374425D01*
X1128683Y1373414D01*
X1148581Y1244962D01*
X1148928Y1244012D01*
X1148962Y1243002D01*
X1178649Y1116658D01*
X1179067Y1115739D01*
X1179179Y1114737D01*
X1218433Y991240D01*
X1218920Y990358D01*
X1219108Y989368D01*
X1267653Y869439D01*
X1268205Y868598D01*
X1268468Y867627D01*
X1325971Y751958D01*
X1326481Y751298D01*
X1326750Y750508D01*
X1369367Y676919D01*
X1369801Y676425D01*
X1370043Y675815D01*
X1415402Y605809D01*
X1415952Y605242D01*
X1416288Y604527D01*
X1487134Y508395D01*
X1487830Y507760D01*
X1488291Y506939D01*
X1567959Y413676D01*
X1568698Y413094D01*
X1569216Y412308D01*
X1652845Y327549D01*
X1653612Y327029D01*
X1654174Y326294D01*
X1743453Y247755D01*
X1744254Y247291D01*
X1744866Y246598D01*
X1839332Y174643D01*
X1840162Y174237D01*
X1840821Y173590D01*
X1939986Y108547D01*
X1940842Y108201D01*
X1941544Y107602D01*
X2044903Y49765D01*
X2045780Y49480D01*
X2046521Y48933D01*
X2153550Y-1443D01*
X2154443Y-1665D01*
X2155220Y-2158D01*
X2265379Y-44852D01*
X2266285Y-45010D01*
X2267093Y-45447D01*
X2379831Y-80279D01*
X2380744Y-80374D01*
X2381580Y-80754D01*
X2496338Y-107583D01*
X2497305Y-107615D01*
X2498213Y-107949D01*
X2627399Y-128251D01*
X2628414Y-128210D01*
X2629393Y-128486D01*
X2759567Y-138701D01*
X2760575Y-138581D01*
X2761570Y-138780D01*
X2891948Y-138893D01*
X2892942Y-138696D01*
X2893948Y-138817D01*
X3023749Y-128872D01*
X3024724Y-128599D01*
X3025735Y-128643D01*
X3154187Y-108745D01*
X3155136Y-108399D01*
X3156147Y-108364D01*
X3282492Y-78677D01*
X3283410Y-78259D01*
X3284413Y-78147D01*
X3407909Y-38892D01*
X3408791Y-38406D01*
X3409781Y-38217D01*
X3529710Y10327D01*
X3530551Y10879D01*
X3531522Y11142D01*
X3647192Y68645D01*
X3647852Y69155D01*
X3648642Y69425D01*
X3722230Y112041D01*
X3722723Y112475D01*
X3723334Y112718D01*
X3793340Y158076D01*
X3793907Y158627D01*
X3794622Y158963D01*
X3890753Y229808D01*
X3891388Y230504D01*
X3892210Y230965D01*
X3985473Y310633D01*
X3986055Y311372D01*
X3986841Y311890D01*
X4071600Y395519D01*
X4072120Y396286D01*
X4072855Y396848D01*
X4151394Y486128D01*
X4151858Y486929D01*
X4152551Y487541D01*
X4224506Y582006D01*
X4224912Y582836D01*
X4225560Y583495D01*
X4290602Y682661D01*
X4290948Y683516D01*
X4291547Y684218D01*
X4349385Y787578D01*
X4349669Y788454D01*
X4350217Y789196D01*
X4400591Y896224D01*
X4400813Y897117D01*
X4401306Y897894D01*
X4444001Y1008053D01*
X4444160Y1008959D01*
X4444597Y1009767D01*
X4479429Y1122506D01*
X4479523Y1123419D01*
X4479903Y1124255D01*
X4506732Y1239013D01*
X4506764Y1239979D01*
X4507098Y1240888D01*
X4527400Y1370073D01*
X4527359Y1371088D01*
X4527635Y1372067D01*
X4537849Y1502241D01*
X4537730Y1503249D01*
X4537929Y1504244D01*
X4538041Y1634622D01*
X4537845Y1635616D01*
X4537966Y1636623D01*
X4528021Y1766424D01*
X4527748Y1767399D01*
X4527792Y1768410D01*
X4507894Y1896862D01*
X4507548Y1897811D01*
X4507513Y1898821D01*
X4477826Y2025166D01*
X4477409Y2026084D01*
X4477296Y2027087D01*
X4438042Y2150583D01*
X4437555Y2151466D01*
X4437367Y2152455D01*
X4388822Y2272384D01*
X4388270Y2273225D01*
X4388007Y2274196D01*
X4330504Y2389866D01*
X4329994Y2390527D01*
X4329725Y2391316D01*
X4287108Y2464905D01*
X4286674Y2465398D01*
X4286431Y2466009D01*
X4241073Y2536014D01*
X4240522Y2536581D01*
X4240187Y2537296D01*
X4169342Y2633427D01*
X4168646Y2634062D01*
X4168185Y2634884D01*
X4088516Y2728147D01*
X4087777Y2728730D01*
X4087259Y2729515D01*
X4003630Y2814275D01*
X4002863Y2814794D01*
X4002301Y2815530D01*
X3913022Y2894068D01*
X3912221Y2894532D01*
X3911609Y2895225D01*
X3817143Y2967181D01*
X3816313Y2967586D01*
X3815654Y2968234D01*
X3716488Y3033277D01*
X3715633Y3033622D01*
X3714931Y3034222D01*
X3611572Y3092059D01*
X3610696Y3092343D01*
X3609954Y3092891D01*
X3502925Y3143266D01*
X3502032Y3143488D01*
X3501255Y3143981D01*
X3391096Y3186675D01*
X3390190Y3186834D01*
X3389382Y3187271D01*
X3276644Y3222103D01*
X3275731Y3222198D01*
X3274894Y3222577D01*
X3160137Y3249406D01*
X3159170Y3249439D01*
X3158262Y3249772D01*
X3029077Y3270074D01*
X3028060Y3270033D01*
X3027082Y3270308D01*
X2896908Y3280524D01*
X2895900Y3280404D01*
X2894905Y3280603D01*
X2764527Y3280716D01*
D02*
G37*
G36*
X12700Y3440029D02*
Y3152400D01*
X300329D01*
X297619Y3186838D01*
X286581Y3232816D01*
X268486Y3276500D01*
X243780Y3316817D01*
X213072Y3352772D01*
X177117Y3383480D01*
X136800Y3408186D01*
X93116Y3426281D01*
X47138Y3437319D01*
X12700Y3440029D01*
D02*
G37*
G36*
X-12700D02*
X-47138Y3437319D01*
X-93116Y3426281D01*
X-136800Y3408186D01*
X-177117Y3383480D01*
X-213072Y3352772D01*
X-243780Y3316817D01*
X-268486Y3276500D01*
X-286581Y3232816D01*
X-297619Y3186838D01*
X-300329Y3152400D01*
X-12700D01*
Y3440029D01*
D02*
G37*
G36*
X5656500Y3430837D02*
X5610956Y3427253D01*
X5566534Y3416588D01*
X5524327Y3399105D01*
X5485374Y3375235D01*
X5450635Y3345565D01*
X5420965Y3310826D01*
X5397095Y3271874D01*
X5379612Y3229666D01*
X5368947Y3185244D01*
X5365363Y3139700D01*
X5368947Y3094156D01*
X5379612Y3049734D01*
X5397095Y3007527D01*
X5420965Y2968574D01*
X5450635Y2933835D01*
X5485374Y2904165D01*
X5524327Y2880295D01*
X5566534Y2862812D01*
X5610956Y2852147D01*
X5656500Y2848563D01*
X5702044Y2852147D01*
X5746466Y2862812D01*
X5788673Y2880295D01*
X5827626Y2904165D01*
X5862365Y2933835D01*
X5892035Y2968574D01*
X5915905Y3007527D01*
X5933388Y3049734D01*
X5944053Y3094156D01*
X5947637Y3139700D01*
X5944053Y3185244D01*
X5933388Y3229666D01*
X5915905Y3271874D01*
X5892035Y3310826D01*
X5862365Y3345565D01*
X5827626Y3375235D01*
X5788673Y3399105D01*
X5746466Y3416588D01*
X5702044Y3427253D01*
X5656500Y3430837D01*
D02*
G37*
G36*
X300329Y3127000D02*
X12700D01*
Y2839371D01*
X47138Y2842081D01*
X93116Y2853119D01*
X136800Y2871214D01*
X177117Y2895920D01*
X213072Y2926628D01*
X243780Y2962583D01*
X268486Y3002900D01*
X286581Y3046584D01*
X297619Y3092562D01*
X300329Y3127000D01*
D02*
G37*
G36*
X-12700D02*
X-300329D01*
X-297619Y3092562D01*
X-286581Y3046584D01*
X-268486Y3002900D01*
X-243780Y2962583D01*
X-213072Y2926628D01*
X-177117Y2895920D01*
X-136800Y2871214D01*
X-93116Y2853119D01*
X-47138Y2842081D01*
X-12700Y2839371D01*
Y3127000D01*
D02*
G37*
G36*
X4988660Y1694261D02*
Y1660649D01*
X5022272D01*
X5021081Y1666639D01*
X5010494Y1682483D01*
X4994650Y1693070D01*
X4988660Y1694261D01*
D02*
G37*
G36*
X4963260D02*
X4957271Y1693070D01*
X4941426Y1682483D01*
X4930839Y1666639D01*
X4929648Y1660649D01*
X4963260D01*
Y1694261D01*
D02*
G37*
G36*
X774361Y1669890D02*
Y1636278D01*
X807973D01*
X806781Y1642267D01*
X796194Y1658111D01*
X780350Y1668698D01*
X774361Y1669890D01*
D02*
G37*
G36*
X748961D02*
X742971Y1668698D01*
X727127Y1658111D01*
X716540Y1642267D01*
X715349Y1636278D01*
X748961D01*
Y1669890D01*
D02*
G37*
G36*
X5022272Y1635249D02*
X4988660D01*
Y1601637D01*
X4994650Y1602828D01*
X5010494Y1613415D01*
X5021081Y1629259D01*
X5022272Y1635249D01*
D02*
G37*
G36*
X4963260D02*
X4929648D01*
X4930839Y1629259D01*
X4941426Y1613415D01*
X4957271Y1602828D01*
X4963260Y1601637D01*
Y1635249D01*
D02*
G37*
G36*
X807973Y1610878D02*
X774361D01*
Y1577266D01*
X780350Y1578457D01*
X796194Y1589044D01*
X806781Y1604888D01*
X807973Y1610878D01*
D02*
G37*
G36*
X748961D02*
X715349D01*
X716540Y1604888D01*
X727127Y1589044D01*
X742971Y1578457D01*
X748961Y1577266D01*
Y1610878D01*
D02*
G37*
G36*
X4215974Y-181024D02*
Y-214636D01*
X4249586D01*
X4248395Y-208646D01*
X4237808Y-192802D01*
X4221964Y-182215D01*
X4215974Y-181024D01*
D02*
G37*
G36*
X4190574D02*
X4184585Y-182215D01*
X4168740Y-192802D01*
X4158153Y-208646D01*
X4156962Y-214636D01*
X4190574D01*
Y-181024D01*
D02*
G37*
G36*
X2819693Y-222555D02*
Y-256167D01*
X2853305D01*
X2852113Y-250177D01*
X2841526Y-234333D01*
X2825682Y-223746D01*
X2819693Y-222555D01*
D02*
G37*
G36*
X2794293D02*
X2788303Y-223746D01*
X2772459Y-234333D01*
X2761872Y-250177D01*
X2760681Y-256167D01*
X2794293D01*
Y-222555D01*
D02*
G37*
G36*
X4249586Y-240036D02*
X4215974D01*
Y-273648D01*
X4221964Y-272456D01*
X4237808Y-261869D01*
X4248395Y-246025D01*
X4249586Y-240036D01*
D02*
G37*
G36*
X4190574D02*
X4156962D01*
X4158153Y-246025D01*
X4168740Y-261869D01*
X4184585Y-272456D01*
X4190574Y-273648D01*
Y-240036D01*
D02*
G37*
G36*
X5656500Y292137D02*
X5610956Y288553D01*
X5566534Y277888D01*
X5524327Y260405D01*
X5485374Y236535D01*
X5450635Y206865D01*
X5420965Y172126D01*
X5397095Y133173D01*
X5379612Y90966D01*
X5368947Y46544D01*
X5365363Y1000D01*
X5368947Y-44544D01*
X5379612Y-88966D01*
X5397095Y-131173D01*
X5420965Y-170126D01*
X5450635Y-204865D01*
X5485374Y-234535D01*
X5524327Y-258405D01*
X5566534Y-275888D01*
X5610956Y-286553D01*
X5656500Y-290137D01*
X5702044Y-286553D01*
X5746466Y-275888D01*
X5788673Y-258405D01*
X5827626Y-234535D01*
X5862365Y-204865D01*
X5892035Y-170126D01*
X5915905Y-131173D01*
X5933388Y-88966D01*
X5944053Y-44544D01*
X5947637Y1000D01*
X5944053Y46544D01*
X5933388Y90966D01*
X5915905Y133173D01*
X5892035Y172126D01*
X5862365Y206865D01*
X5827626Y236535D01*
X5788673Y260405D01*
X5746466Y277888D01*
X5702044Y288553D01*
X5656500Y292137D01*
D02*
G37*
G36*
X2853305Y-281567D02*
X2819693D01*
Y-315179D01*
X2825682Y-313988D01*
X2841526Y-303401D01*
X2852113Y-287556D01*
X2853305Y-281567D01*
D02*
G37*
G36*
X2794293D02*
X2760681D01*
X2761872Y-287556D01*
X2772459Y-303401D01*
X2788303Y-313988D01*
X2794293Y-315179D01*
Y-281567D01*
D02*
G37*
G36*
X4176587Y-1200196D02*
X4170597Y-1201387D01*
X4154753Y-1211974D01*
X4144166Y-1227818D01*
X4142974Y-1233808D01*
X4176587D01*
Y-1200196D01*
D02*
G37*
G36*
Y-1259208D02*
X4142974D01*
X4144166Y-1265198D01*
X4154753Y-1281042D01*
X4170597Y-1291629D01*
X4176587Y-1292820D01*
Y-1259208D01*
D02*
G37*
%LPD*%
D10*
X4266618Y-466790D02*
G03*
X4083462Y-324769I-183156J-47093D01*
G01*
X4104449Y-326870D02*
G03*
X3943752Y-393433I0J-227261D01*
G01*
X4272575Y-513883D02*
G03*
X4266618Y-466790I-189113J0D01*
G01*
X4191312Y-1712332D02*
G03*
X4272575Y-1562569I-97371J149763D01*
G01*
X4097431Y-1741169D02*
G03*
X4191312Y-1712332I-3490J178600D01*
G01*
X4093942Y-1741203D02*
G03*
X4097431Y-1741169I0J178634D01*
G01*
X976841Y457794D02*
G03*
X911745Y468595I-38871J-32707D01*
G01*
X3912941Y-424244D02*
X3943752Y-393433D01*
X3680266Y-531586D02*
X3818529Y-471587D01*
X3912941Y-424244D01*
X4272575Y-1562569D02*
Y-513883D01*
X3978519Y-1743512D02*
X4060693D01*
X3407544Y-1746519D02*
X3978519D01*
X1905990Y-501445D02*
X1948844Y-520534D01*
X1950056Y-521031D02*
X2077205Y-568852D01*
X1458797Y-114999D02*
X1494038Y-156881D01*
X1495044Y-156035D02*
X1905990Y-501445D01*
X976841Y457794D02*
X1458797Y-114999D01*
X0Y1000D02*
X752742Y372752D01*
X911745Y468595D01*
X0Y1000D02*
X0D01*
X2416861Y-655970D02*
X2490704Y-669320D01*
X2342466Y-642520D02*
X2416861Y-655970D01*
X3394102Y-623834D02*
X3430076Y-613520D01*
X3350717Y-633313D02*
X3392626Y-624206D01*
X3097041Y-678397D02*
X3245765Y-656119D01*
X2946119Y-691055D02*
X3095392Y-678589D01*
X2878851Y-692307D02*
X2944614Y-691131D01*
X2762038Y-692311D02*
X2878397D01*
X2261546Y-622654D02*
X2341035Y-642215D01*
X2078542Y-569310D02*
X2208181Y-609482D01*
X3538404Y-582464D02*
X3680266Y-531586D01*
X3521338Y-587356D02*
X3538404Y-582464D01*
X3430076Y-613520D02*
X3521338Y-587356D01*
X3245765Y-656119D02*
X3350717Y-633313D01*
X2643069Y-686641D02*
X2762038Y-692311D01*
X2562988Y-677586D02*
X2641564Y-686520D01*
X2492133Y-669530D02*
X2562988Y-677586D01*
X2209447Y-609833D02*
X2261546Y-622654D01*
D12*
X2926047Y-1746520D02*
D03*
Y-1696520D02*
D03*
Y-1646520D02*
D03*
Y-1596520D02*
D03*
D13*
X1948844Y-520533D02*
G03*
X1950056Y-521030I10245J23242D01*
G01*
X3392626Y-624206D02*
G03*
X3394102Y-623834I-5462J24806D01*
G01*
X3095392Y-678589D02*
G03*
X3097041Y-678397I-2114J25312D01*
G01*
X2878397Y-692311D02*
G03*
X2878851Y-692307I0J25400D01*
G01*
X2341035Y-642214D02*
G03*
X2342466Y-642520I6009J24679D01*
G01*
X2077205Y-568852D02*
G03*
X2078542Y-569310I8898J23791D01*
G01*
X2944614Y-691131D02*
G03*
X2946119Y-691055I-533J25394D01*
G01*
X2641564Y-686520D02*
G03*
X2643069Y-686641I2791J25246D01*
G01*
X2490704Y-669320D02*
G03*
X2492133Y-669530I4409J25014D01*
G01*
X2208181Y-609481D02*
G03*
X2209447Y-609833I7427J24290D01*
G01*
X3139655Y-1650597D02*
X3142962Y-1647290D01*
X3144308D01*
X2928182Y-1698654D02*
X3332431D01*
X3332431Y-1698654D01*
X2926047Y-1696520D02*
X2928182Y-1698654D01*
X3269008Y-1753540D02*
X3386663D01*
X3387295Y-1752908D01*
X3401154D02*
X3404905Y-1749158D01*
X2926048Y-1746519D02*
X3268488Y-1753535D01*
X3387295Y-1752908D02*
X3401154D01*
X3268488Y-1753535D02*
X3269008Y-1753540D01*
X3147106Y-1596605D02*
X3274123D01*
X3275122Y-1597604D01*
X3147096Y-1596605D02*
X3147106Y-1596606D01*
X2926133Y-1596605D02*
X3147096D01*
X3038347Y-1648820D02*
X3139655Y-1650597D01*
X2926047Y-1646520D02*
X3038347Y-1648820D01*
X2926047Y-1596520D02*
X2926133Y-1596605D01*
D14*
X0Y1000D02*
D03*
Y3139700D02*
D03*
X5656500Y1000D02*
D03*
Y3139700D02*
D03*
D15*
X3144308Y-1647290D02*
D03*
X761661Y1623578D02*
D03*
X2908786Y3555992D02*
D03*
X4975960Y1647949D02*
D03*
X4203274Y-227336D02*
D03*
X4189287Y-1246508D02*
D03*
X3404905Y-1749158D02*
D03*
X3275122Y-1597604D02*
D03*
X3332431Y-1698654D02*
D03*
X2806993Y-268867D02*
D03*
%TF.MD5,66be0d0be5b8bc762633d77fa95c724f*%
M02*
