%TF.GenerationSoftware,Altium Limited,Altium Designer,21.8.1 (53)*%
G04 Layer_Physical_Order=1*
G04 Layer_Color=255*
%FSLAX45Y45*%
%MOMM*%
%TF.SameCoordinates,9CAB6441-B9E9-44DD-A1F1-36E89FF17874*%
%TF.FilePolarity,Positive*%
%TF.FileFunction,Copper,L1,Top,Signal*%
%TF.Part,Single*%
G01*
G75*
%TA.AperFunction,Conductor*%
%ADD10C,0.50800*%
%ADD11C,0.30480*%
%TA.AperFunction,SMDPad,CuDef*%
%ADD12R,2.50000X0.30000*%
%TA.AperFunction,Conductor*%
%ADD13C,0.25400*%
%TA.AperFunction,ComponentPad*%
%ADD14C,5.50000*%
%TA.AperFunction,ViaPad*%
%ADD15C,0.45000*%
G36*
X3014760Y3890630D02*
X3166483Y3873405D01*
X3316952Y3846226D01*
X3450637Y3813349D01*
X3582292Y3772571D01*
X3711422Y3724024D01*
X3837556Y3667858D01*
X3960244Y3604252D01*
X4079048Y3533406D01*
X4193534Y3455554D01*
X4303292Y3370947D01*
X4407915Y3279869D01*
X4507018Y3182623D01*
X4600228Y3079542D01*
X4689253Y2968245D01*
X4769947Y2853796D01*
X4772496Y2851372D01*
X4774736Y2848657D01*
X4776128Y2847918D01*
X4777269Y2846833D01*
X4780552Y2845568D01*
X4783660Y2843917D01*
X4785229Y2843767D01*
X4786699Y2843201D01*
X4790215Y2843289D01*
X4793718Y2842953D01*
X4795225Y2843415D01*
X4796800Y2843454D01*
X4800016Y2844882D01*
X4803380Y2845912D01*
X5321970Y3124852D01*
X5324056Y3126573D01*
X5326422Y3127882D01*
X5327915Y3129757D01*
X5329765Y3131283D01*
X5331034Y3133672D01*
X5332718Y3135786D01*
X5333380Y3138089D01*
X5334505Y3140207D01*
X5334763Y3142899D01*
X5335510Y3145497D01*
X5338891Y3185848D01*
X5347224Y3225388D01*
X5366044Y3276141D01*
X5393185Y3323130D01*
X5428203Y3365241D01*
X5465529Y3397622D01*
X5507754Y3424074D01*
X5553807Y3443746D01*
X5605856Y3456598D01*
X5656667Y3460635D01*
X5698616Y3457868D01*
X5741798Y3449082D01*
X5792550Y3430338D01*
X5839610Y3403230D01*
X5881791Y3368227D01*
X5914233Y3330901D01*
X5940738Y3288665D01*
X5960456Y3242590D01*
X5973366Y3190393D01*
X5977412Y3139539D01*
X5974644Y3097589D01*
X5965858Y3054406D01*
X5947114Y3003652D01*
X5920007Y2956594D01*
X5885006Y2914414D01*
X5847681Y2881973D01*
X5805445Y2855468D01*
X5759371Y2835749D01*
X5707176Y2822841D01*
X5656157Y2818783D01*
X5622423Y2820579D01*
X5588812Y2826001D01*
X5540263Y2840598D01*
X5493542Y2863071D01*
X5491549Y2863584D01*
X5489730Y2864546D01*
X5486701Y2864832D01*
X5483756Y2865590D01*
X5481720Y2865302D01*
X5479670Y2865495D01*
X5476762Y2864600D01*
X5473751Y2864173D01*
X5471979Y2863127D01*
X5470013Y2862521D01*
X4951251Y2582441D01*
X4948188Y2579906D01*
X4944922Y2577639D01*
X4944322Y2576706D01*
X4943467Y2575998D01*
X4941607Y2572484D01*
X4939457Y2569140D01*
X4939260Y2568048D01*
X4938740Y2567066D01*
X4938367Y2563108D01*
X4937661Y2559196D01*
X4937896Y2558111D01*
X4937792Y2557006D01*
X4938962Y2553207D01*
X4939806Y2549322D01*
X4983362Y2449196D01*
X5022526Y2346167D01*
X5068334Y2201679D01*
X5104657Y2054454D01*
X5131338Y1905013D01*
X5148232Y1753984D01*
X5155235Y1602006D01*
X5152284Y1449730D01*
X5139360Y1297808D01*
X5116532Y1147142D01*
X5083785Y997872D01*
X5043093Y856566D01*
X4994770Y721196D01*
X4939342Y591510D01*
X4938540Y587698D01*
X4937394Y583978D01*
X4937506Y582790D01*
X4937260Y581622D01*
X4937977Y577794D01*
X4938342Y573918D01*
X4938900Y572863D01*
X4939120Y571690D01*
X4941247Y568428D01*
X4943068Y564987D01*
X4943988Y564226D01*
X4944640Y563226D01*
X4947852Y561027D01*
X4950852Y558543D01*
X5470012Y278240D01*
X5472368Y277515D01*
X5474531Y276328D01*
X5477151Y276042D01*
X5479670Y275266D01*
X5482125Y275498D01*
X5484576Y275229D01*
X5487106Y275967D01*
X5489730Y276214D01*
X5491910Y277368D01*
X5494277Y278058D01*
X5521515Y292241D01*
X5548922Y303415D01*
X5601864Y317254D01*
X5656751Y321960D01*
X5698622Y319198D01*
X5741803Y310412D01*
X5792557Y291668D01*
X5839613Y264562D01*
X5881796Y229558D01*
X5914235Y192234D01*
X5940740Y149998D01*
X5960458Y103924D01*
X5973366Y51729D01*
X5977412Y872D01*
X5974644Y-41077D01*
X5965858Y-84260D01*
X5947114Y-135014D01*
X5920007Y-182072D01*
X5885004Y-224254D01*
X5847679Y-256695D01*
X5805443Y-283200D01*
X5759368Y-302919D01*
X5707172Y-315829D01*
X5656235Y-319881D01*
X5618388Y-317625D01*
X5579681Y-310547D01*
X5528228Y-293100D01*
X5480357Y-267187D01*
X5437174Y-233213D01*
X5403714Y-196653D01*
X5376084Y-155005D01*
X5355175Y-109336D01*
X5340892Y-57012D01*
X5335464Y-4249D01*
X5334745Y-1915D01*
X5334516Y515D01*
X5333272Y2867D01*
X5332489Y5408D01*
X5330932Y7289D01*
X5329790Y9447D01*
X5327741Y11143D01*
X5326045Y13191D01*
X5323887Y14333D01*
X5322006Y15890D01*
X4803403Y295888D01*
X4800294Y296845D01*
X4797351Y298231D01*
X4795508Y298318D01*
X4793746Y298861D01*
X4790507Y298556D01*
X4787257Y298710D01*
X4785522Y298086D01*
X4783685Y297913D01*
X4780810Y296391D01*
X4777749Y295290D01*
X4776384Y294050D01*
X4774754Y293187D01*
X4772679Y290681D01*
X4770273Y288492D01*
X4624681Y91510D01*
X4533932Y-12277D01*
X4439532Y-108260D01*
X4341944Y-196763D01*
X4341562Y-197278D01*
X4341029Y-197634D01*
X4338567Y-201319D01*
X4335927Y-204881D01*
X4335772Y-205503D01*
X4335416Y-206036D01*
X4334551Y-210384D01*
X4333475Y-214684D01*
X4333569Y-215318D01*
X4333444Y-215946D01*
Y-659929D01*
X4333439Y-1515944D01*
X4333437Y-1549425D01*
X4332612Y-1568883D01*
X4330108Y-1588282D01*
X4325782Y-1607921D01*
X4319541Y-1627557D01*
X4311338Y-1646922D01*
X4301181Y-1665725D01*
X4289128Y-1683676D01*
X4275299Y-1700496D01*
X4259863Y-1715930D01*
X4243042Y-1729758D01*
X4225088Y-1741810D01*
X4206286Y-1751965D01*
X4186922Y-1760165D01*
X4167284Y-1766404D01*
X4147642Y-1770731D01*
X4133576Y-1772544D01*
X4130694Y-1760111D01*
X4138241Y-1757549D01*
X4188355Y-1732835D01*
X4232317Y-1703461D01*
X4234816Y-1701792D01*
X4242074Y-1695426D01*
X4245666Y-1692745D01*
X4246412Y-1691630D01*
X4249695Y-1688935D01*
X4271238Y-1662684D01*
X4287247Y-1632735D01*
X4297105Y-1600237D01*
X4299219Y-1578776D01*
X4300197Y-1574215D01*
X4321692Y-131672D01*
X4809274Y387709D01*
X4821281Y390353D01*
X4832740Y384860D01*
X5382343Y97558D01*
X5379612Y90966D01*
X5368947Y46544D01*
X5365363Y1000D01*
X5368947Y-44544D01*
X5379612Y-88966D01*
X5397095Y-131173D01*
X5420965Y-170126D01*
X5450635Y-204865D01*
X5485374Y-234535D01*
X5524327Y-258405D01*
X5566534Y-275888D01*
X5610956Y-286553D01*
X5656500Y-290137D01*
X5702044Y-286553D01*
X5746466Y-275888D01*
X5788673Y-258405D01*
X5827626Y-234535D01*
X5862365Y-204865D01*
X5892035Y-170126D01*
X5915905Y-131173D01*
X5933388Y-88966D01*
X5944053Y-44544D01*
X5947637Y1000D01*
X5944053Y46544D01*
X5933388Y90966D01*
X5915905Y133173D01*
X5892035Y172126D01*
X5862365Y206865D01*
X5827626Y236535D01*
X5788673Y260405D01*
X5746466Y277888D01*
X5702044Y288553D01*
X5656500Y292137D01*
X5610956Y288553D01*
X5566534Y277888D01*
X5524327Y260405D01*
X5485374Y236535D01*
X5450635Y206865D01*
X5420965Y172126D01*
X5420387Y171183D01*
X4859896Y464176D01*
X4859832Y464195D01*
X4859779Y464238D01*
X4859670Y464294D01*
X4855721Y465439D01*
X4841037Y471521D01*
X4817166Y474664D01*
X4793295Y471521D01*
X4771052Y462307D01*
X4751950Y447650D01*
X4751020Y446439D01*
X4750210Y445872D01*
X4750199Y445860D01*
X4750087Y445684D01*
X4749919Y445564D01*
X4250289Y-86650D01*
X4246512Y-92708D01*
X4242458Y-98585D01*
X4242253Y-99541D01*
X4241736Y-100370D01*
X4240565Y-107413D01*
X4239067Y-114393D01*
X4238124Y-177738D01*
X4225322Y-184459D01*
X4221964Y-182215D01*
X4215974Y-181024D01*
Y-227336D01*
Y-273648D01*
X4221964Y-272456D01*
X4225501Y-270093D01*
X4236657Y-276163D01*
X4222921Y-1197957D01*
X4211677Y-1203860D01*
X4207976Y-1201387D01*
X4201987Y-1200196D01*
Y-1246508D01*
Y-1292820D01*
X4207976Y-1291629D01*
X4210303Y-1290074D01*
X4221458Y-1296144D01*
X4217360Y-1571168D01*
X4217180Y-1571336D01*
X4217180D01*
X4217180Y-1571336D01*
X4214737Y-1589896D01*
X4205683Y-1611753D01*
X4197986Y-1621784D01*
X4190204Y-1630900D01*
Y-1630900D01*
X4177420Y-1641818D01*
X4131292Y-1670086D01*
X4081309Y-1690789D01*
X4028703Y-1703419D01*
X3976893Y-1707496D01*
X3974770Y-1707074D01*
X3490734D01*
X3490315Y-1707157D01*
X3486465Y-1707664D01*
X3483703Y-1701410D01*
X3480745Y-1697196D01*
X3478048Y-1692817D01*
X3477280Y-1692262D01*
X3476735Y-1691486D01*
X3472393Y-1688728D01*
X3468222Y-1685712D01*
X3439926Y-1672744D01*
X3436617Y-1671957D01*
X3426692Y-1667846D01*
X3404905Y-1664978D01*
X3402707Y-1665267D01*
X3401998Y-1665151D01*
X3352770Y-1666855D01*
X3347157Y-1663104D01*
X3332431Y-1660175D01*
X3317706Y-1663104D01*
X3307136Y-1670167D01*
X3200743D01*
X3193034Y-1659990D01*
X3144308D01*
Y-1634590D01*
X3193763D01*
X3201196Y-1625093D01*
X3244611D01*
X3245822Y-1626904D01*
X3259265Y-1635886D01*
X3275122Y-1639040D01*
X3277286Y-1638610D01*
X4000329D01*
X4005250Y-1637631D01*
X4031023Y-1635092D01*
X4060184Y-1626246D01*
X4087060Y-1611881D01*
X4110249Y-1592850D01*
X4110650Y-1592582D01*
X4110918Y-1592850D01*
X4132746Y-1564404D01*
X4146467Y-1531277D01*
X4151147Y-1495728D01*
X4150769D01*
Y-1293654D01*
X4163469Y-1286866D01*
X4170597Y-1291629D01*
X4176587Y-1292820D01*
Y-1246508D01*
Y-1200196D01*
X4170597Y-1201387D01*
X4163469Y-1206150D01*
X4150769Y-1199362D01*
Y-294898D01*
X4150333Y-292707D01*
X4152173Y-259935D01*
X4165091Y-256409D01*
X4168740Y-261869D01*
X4184585Y-272456D01*
X4190574Y-273648D01*
Y-227336D01*
Y-181024D01*
X4184585Y-182215D01*
X4172510Y-190283D01*
X4160759Y-183628D01*
X4166661Y-148886D01*
X4187032Y-78178D01*
X4215192Y-10195D01*
X4250786Y54208D01*
X4293367Y114220D01*
X4333804Y159470D01*
X4342618Y168521D01*
X4344363Y170373D01*
X4351026Y177914D01*
X4511975Y360085D01*
X4568050Y423553D01*
X4791905Y647408D01*
X4791986Y647327D01*
X4822106Y682592D01*
X4846338Y722136D01*
X4861626Y759043D01*
X4862141Y759815D01*
X4862322Y760725D01*
X4864086Y764983D01*
X4874912Y810079D01*
X4878551Y856313D01*
X4878436D01*
Y2501298D01*
X4878067Y2503155D01*
X4881979Y2542875D01*
X4894106Y2582854D01*
X4913800Y2619699D01*
X4939120Y2650551D01*
X4940695Y2651603D01*
X4989101Y2700009D01*
X5429576Y2958491D01*
X5450635Y2933835D01*
X5485374Y2904165D01*
X5524327Y2880295D01*
X5566534Y2862812D01*
X5610956Y2852147D01*
X5656500Y2848563D01*
X5702044Y2852147D01*
X5746466Y2862812D01*
X5788673Y2880295D01*
X5827626Y2904165D01*
X5862365Y2933835D01*
X5892035Y2968574D01*
X5915905Y3007527D01*
X5933388Y3049734D01*
X5944053Y3094156D01*
X5947637Y3139700D01*
X5944053Y3185244D01*
X5933388Y3229666D01*
X5915905Y3271874D01*
X5892035Y3310826D01*
X5862365Y3345565D01*
X5827626Y3375235D01*
X5788673Y3399105D01*
X5746466Y3416588D01*
X5702044Y3427253D01*
X5656500Y3430837D01*
X5610956Y3427253D01*
X5566534Y3416588D01*
X5524327Y3399105D01*
X5485374Y3375235D01*
X5450635Y3345565D01*
X5420965Y3310826D01*
X5397095Y3271874D01*
X5379612Y3229666D01*
X5368947Y3185244D01*
X5365363Y3139700D01*
X5368947Y3094156D01*
X5379612Y3049734D01*
X5387767Y3030045D01*
X4942581Y2768798D01*
X4938640Y2765292D01*
X4934253Y2762361D01*
X4882095Y2710203D01*
X4882014Y2710284D01*
X4851894Y2675018D01*
X4827662Y2635475D01*
X4809914Y2592628D01*
X4799088Y2547532D01*
X4795449Y2501298D01*
X4795564D01*
Y856313D01*
X4795933Y854455D01*
X4792021Y814736D01*
X4779894Y774757D01*
X4760200Y737912D01*
X4734880Y707060D01*
X4733305Y706008D01*
X4508545Y481248D01*
X4447638Y420341D01*
X4438656Y406898D01*
X4437466Y400916D01*
X4284123Y227356D01*
X4283750Y227344D01*
X4283751D01*
X4228725Y165770D01*
X4180778Y98196D01*
X4140699Y25679D01*
X4108992Y-50870D01*
X4086055Y-130488D01*
X4072175Y-212173D01*
X4067530Y-294898D01*
X4067896D01*
X4067896Y-294899D01*
Y-1495728D01*
X4068185Y-1497178D01*
X4065788Y-1509228D01*
X4061694Y-1512042D01*
X4048994Y-1505360D01*
Y-659929D01*
Y-456268D01*
X4048694Y-454763D01*
X4048815Y-453234D01*
X4047717Y-449848D01*
X4047022Y-446357D01*
X4046170Y-445082D01*
X4045697Y-443622D01*
X4043386Y-440915D01*
X4041408Y-437955D01*
X4040133Y-437103D01*
X4039137Y-435936D01*
X4035967Y-434319D01*
X4033007Y-432342D01*
X4031501Y-432042D01*
X4030135Y-431345D01*
X4026588Y-431065D01*
X4023096Y-430370D01*
X4021591Y-430669D01*
X4020062Y-430549D01*
X4016676Y-431647D01*
X4013186Y-432342D01*
X4011910Y-433194D01*
X4010450Y-433667D01*
X3918658Y-485028D01*
X3823698Y-532645D01*
X3684758Y-592938D01*
X3542152Y-644083D01*
X3396348Y-685884D01*
X3247966Y-718128D01*
X3097632Y-740646D01*
X2945986Y-753311D01*
X2793663Y-756035D01*
X2641333Y-748774D01*
X2489638Y-731527D01*
X2339199Y-704329D01*
X2205545Y-671439D01*
X2073909Y-630649D01*
X1944807Y-582093D01*
X1818702Y-525922D01*
X1696040Y-462313D01*
X1577260Y-391466D01*
X1462798Y-313616D01*
X1353069Y-229017D01*
X1248469Y-137946D01*
X1149389Y-40710D01*
X1056199Y62359D01*
X967227Y173597D01*
X886547Y288027D01*
X883983Y290466D01*
X881726Y293192D01*
X880352Y293919D01*
X879225Y294991D01*
X875923Y296263D01*
X872795Y297918D01*
X871247Y298064D01*
X869796Y298623D01*
X866258Y298534D01*
X862735Y298866D01*
X861249Y298408D01*
X859694Y298369D01*
X856460Y296934D01*
X853078Y295892D01*
X334487Y15889D01*
X332422Y14180D01*
X330076Y12883D01*
X328567Y10989D01*
X326702Y9446D01*
X325449Y7077D01*
X323778Y4981D01*
X323109Y2654D01*
X321977Y515D01*
X321725Y-2153D01*
X320984Y-4730D01*
X317580Y-45230D01*
X309174Y-84967D01*
X290315Y-135665D01*
X263149Y-182599D01*
X228118Y-224654D01*
X190790Y-256990D01*
X148575Y-283398D01*
X102539Y-303035D01*
X50600Y-315843D01*
X-173Y-319875D01*
X-42124Y-317107D01*
X-85306Y-308321D01*
X-136059Y-289576D01*
X-183117Y-262470D01*
X-225299Y-227466D01*
X-257739Y-190141D01*
X-284245Y-147903D01*
X-303964Y-101830D01*
X-316873Y-49634D01*
X-320919Y1222D01*
X-318152Y43173D01*
X-309366Y86355D01*
X-290622Y137109D01*
X-263516Y184166D01*
X-228512Y226348D01*
X-191190Y258786D01*
X-148952Y285293D01*
X-102879Y305011D01*
X-50684Y317920D01*
X339Y321978D01*
X33922Y320198D01*
X67287Y314844D01*
X116143Y300196D01*
X162955Y277688D01*
X164946Y277175D01*
X166764Y276214D01*
X169794Y275928D01*
X172741Y275170D01*
X174777Y275459D01*
X176824Y275266D01*
X179732Y276161D01*
X182745Y276588D01*
X184516Y277635D01*
X186481Y278240D01*
X705628Y558554D01*
X708651Y561056D01*
X711881Y563278D01*
X712515Y564254D01*
X713412Y564997D01*
X715247Y568464D01*
X717382Y571754D01*
X717593Y572899D01*
X718138Y573928D01*
X718506Y577833D01*
X719219Y581690D01*
X718977Y582829D01*
X719086Y583989D01*
X717932Y587736D01*
X717115Y591573D01*
X665584Y711389D01*
X620481Y834944D01*
X577162Y980581D01*
X543418Y1128838D01*
X519404Y1279148D01*
X505259Y1430874D01*
X501074Y1583364D01*
X506901Y1735965D01*
X522750Y1888059D01*
X545536Y2023837D01*
X576354Y2158188D01*
X615110Y2290592D01*
X662120Y2421684D01*
X716745Y2549476D01*
X717548Y2553288D01*
X718694Y2557009D01*
X718582Y2558196D01*
X718828Y2559364D01*
X718111Y2563192D01*
X717746Y2567069D01*
X717188Y2568123D01*
X716968Y2569296D01*
X714841Y2572558D01*
X713019Y2576000D01*
X712101Y2576761D01*
X711449Y2577760D01*
X708235Y2579961D01*
X705235Y2582443D01*
X186480Y2862521D01*
X184123Y2863246D01*
X181961Y2864432D01*
X179341Y2864719D01*
X176823Y2865494D01*
X174368Y2865263D01*
X171916Y2865531D01*
X169386Y2864793D01*
X166762Y2864546D01*
X164582Y2863392D01*
X162215Y2862702D01*
X135006Y2848534D01*
X107651Y2837374D01*
X54649Y2823510D01*
X-260Y2818801D01*
X-42129Y2821563D01*
X-85311Y2830348D01*
X-136064Y2849093D01*
X-183122Y2876199D01*
X-225302Y2911201D01*
X-257742Y2948526D01*
X-284247Y2990763D01*
X-303966Y3036837D01*
X-316875Y3089033D01*
X-320920Y3139888D01*
X-318152Y3181838D01*
X-309366Y3225020D01*
X-290621Y3275775D01*
X-263514Y3322832D01*
X-228511Y3365015D01*
X-191187Y3397455D01*
X-148949Y3423961D01*
X-102875Y3443680D01*
X-50680Y3456589D01*
X257Y3460641D01*
X38133Y3458382D01*
X76877Y3451292D01*
X128318Y3433837D01*
X176180Y3407919D01*
X219352Y3373942D01*
X252804Y3337381D01*
X280426Y3295735D01*
X301328Y3250068D01*
X315602Y3197767D01*
X321028Y3145010D01*
X321747Y3142676D01*
X321976Y3140245D01*
X323220Y3137895D01*
X324003Y3135353D01*
X325560Y3133472D01*
X326702Y3131314D01*
X328752Y3129618D01*
X330447Y3127570D01*
X332605Y3126428D01*
X334487Y3124871D01*
X852564Y2845167D01*
X855994Y2844110D01*
X859284Y2842666D01*
X860786Y2842635D01*
X862221Y2842193D01*
X865796Y2842530D01*
X869386Y2842455D01*
X870786Y2843000D01*
X872281Y2843141D01*
X875456Y2844821D01*
X878801Y2846125D01*
X879884Y2847164D01*
X881213Y2847867D01*
X883503Y2850634D01*
X886094Y2853119D01*
X956273Y2953533D01*
X1030815Y3049140D01*
X1121730Y3153224D01*
X1218720Y3251785D01*
X1321485Y3344489D01*
X1431389Y3432280D01*
X1544839Y3512248D01*
X1619828Y3559795D01*
X1697737Y3605086D01*
X1832353Y3674263D01*
X1971188Y3734552D01*
X2113810Y3785740D01*
X2259628Y3827582D01*
X2408027Y3859863D01*
X2558381Y3882416D01*
X2710059Y3895113D01*
X2862398Y3897865D01*
X3014760Y3890630D01*
D02*
G37*
%LPC*%
G36*
X2921486Y3602304D02*
Y3568692D01*
X2955098D01*
X2953907Y3574681D01*
X2943320Y3590526D01*
X2927476Y3601113D01*
X2921486Y3602304D01*
D02*
G37*
G36*
X2896086D02*
X2890097Y3601113D01*
X2874252Y3590526D01*
X2863665Y3574681D01*
X2862474Y3568692D01*
X2896086D01*
Y3602304D01*
D02*
G37*
G36*
X2955098Y3543292D02*
X2921486D01*
Y3509680D01*
X2927476Y3510871D01*
X2943320Y3521458D01*
X2953907Y3537302D01*
X2955098Y3543292D01*
D02*
G37*
G36*
X2896086D02*
X2862474D01*
X2863665Y3537302D01*
X2874252Y3521458D01*
X2890097Y3510871D01*
X2896086Y3509680D01*
Y3543292D01*
D02*
G37*
G36*
X2764527Y3280716D02*
X2763532Y3280519D01*
X2762526Y3280640D01*
X2632725Y3270695D01*
X2631751Y3270422D01*
X2630739Y3270466D01*
X2502287Y3250568D01*
X2501338Y3250222D01*
X2500328Y3250187D01*
X2373984Y3220501D01*
X2373065Y3220083D01*
X2372063Y3219970D01*
X2248566Y3180716D01*
X2247684Y3180229D01*
X2246694Y3180041D01*
X2126765Y3131497D01*
X2125925Y3130945D01*
X2124953Y3130682D01*
X2009283Y3073178D01*
X2008623Y3072668D01*
X2007833Y3072399D01*
X1934245Y3029782D01*
X1933752Y3029349D01*
X1933141Y3029106D01*
X1863134Y2983747D01*
X1862568Y2983196D01*
X1861853Y2982861D01*
X1765721Y2912016D01*
X1765087Y2911320D01*
X1764265Y2910859D01*
X1671001Y2831190D01*
X1670419Y2830451D01*
X1669633Y2829934D01*
X1584874Y2746305D01*
X1584354Y2745538D01*
X1583619Y2744975D01*
X1505081Y2655696D01*
X1504616Y2654895D01*
X1503924Y2654283D01*
X1431969Y2559817D01*
X1431563Y2558988D01*
X1430916Y2558329D01*
X1365872Y2459162D01*
X1365526Y2458307D01*
X1364927Y2457605D01*
X1307091Y2354246D01*
X1306806Y2353369D01*
X1306259Y2352628D01*
X1255883Y2245600D01*
X1255661Y2244707D01*
X1255168Y2243930D01*
X1212474Y2133770D01*
X1212315Y2132865D01*
X1211878Y2132057D01*
X1177046Y2019318D01*
X1176951Y2018405D01*
X1176572Y2017568D01*
X1149742Y1902811D01*
X1149710Y1901844D01*
X1149376Y1900936D01*
X1129075Y1771751D01*
X1129116Y1770735D01*
X1128841Y1769756D01*
X1118625Y1639583D01*
X1118745Y1638575D01*
X1118546Y1637579D01*
X1118433Y1507201D01*
X1118630Y1506207D01*
X1118509Y1505201D01*
X1128453Y1375400D01*
X1128726Y1374425D01*
X1128683Y1373414D01*
X1148581Y1244962D01*
X1148928Y1244012D01*
X1148962Y1243002D01*
X1178649Y1116658D01*
X1179067Y1115739D01*
X1179179Y1114737D01*
X1218433Y991240D01*
X1218920Y990358D01*
X1219108Y989368D01*
X1267653Y869439D01*
X1268205Y868598D01*
X1268468Y867627D01*
X1325971Y751958D01*
X1326481Y751298D01*
X1326750Y750508D01*
X1369367Y676919D01*
X1369801Y676425D01*
X1370043Y675815D01*
X1415402Y605809D01*
X1415952Y605242D01*
X1416288Y604527D01*
X1487134Y508395D01*
X1487830Y507760D01*
X1488291Y506939D01*
X1567959Y413676D01*
X1568698Y413094D01*
X1569216Y412308D01*
X1652845Y327549D01*
X1653612Y327029D01*
X1654174Y326294D01*
X1743453Y247755D01*
X1744254Y247291D01*
X1744866Y246598D01*
X1839332Y174643D01*
X1840162Y174237D01*
X1840821Y173590D01*
X1939986Y108547D01*
X1940842Y108201D01*
X1941544Y107602D01*
X2044903Y49765D01*
X2045780Y49480D01*
X2046521Y48933D01*
X2153550Y-1443D01*
X2154443Y-1665D01*
X2155220Y-2158D01*
X2265379Y-44852D01*
X2266285Y-45010D01*
X2267093Y-45447D01*
X2379831Y-80279D01*
X2380744Y-80374D01*
X2381580Y-80754D01*
X2496338Y-107583D01*
X2497305Y-107615D01*
X2498213Y-107949D01*
X2627399Y-128251D01*
X2628414Y-128210D01*
X2629393Y-128486D01*
X2759567Y-138701D01*
X2760575Y-138581D01*
X2761570Y-138780D01*
X2891948Y-138893D01*
X2892942Y-138696D01*
X2893948Y-138817D01*
X3023749Y-128872D01*
X3024724Y-128599D01*
X3025735Y-128643D01*
X3154187Y-108745D01*
X3155136Y-108399D01*
X3156147Y-108364D01*
X3282492Y-78677D01*
X3283410Y-78259D01*
X3284413Y-78147D01*
X3407909Y-38892D01*
X3408791Y-38406D01*
X3409781Y-38217D01*
X3529710Y10327D01*
X3530551Y10879D01*
X3531522Y11142D01*
X3647192Y68645D01*
X3647852Y69155D01*
X3648642Y69425D01*
X3722230Y112041D01*
X3722723Y112475D01*
X3723334Y112718D01*
X3793340Y158076D01*
X3793907Y158627D01*
X3794622Y158963D01*
X3890753Y229808D01*
X3891388Y230504D01*
X3892210Y230965D01*
X3985473Y310633D01*
X3986055Y311372D01*
X3986841Y311890D01*
X4071600Y395519D01*
X4072120Y396286D01*
X4072855Y396848D01*
X4151394Y486128D01*
X4151858Y486929D01*
X4152551Y487541D01*
X4224506Y582006D01*
X4224912Y582836D01*
X4225560Y583495D01*
X4290602Y682661D01*
X4290948Y683516D01*
X4291547Y684218D01*
X4349385Y787578D01*
X4349669Y788454D01*
X4350217Y789196D01*
X4400591Y896224D01*
X4400813Y897117D01*
X4401306Y897894D01*
X4444001Y1008053D01*
X4444160Y1008959D01*
X4444597Y1009767D01*
X4479429Y1122506D01*
X4479523Y1123419D01*
X4479903Y1124255D01*
X4506732Y1239013D01*
X4506764Y1239979D01*
X4507098Y1240888D01*
X4527400Y1370073D01*
X4527359Y1371088D01*
X4527635Y1372067D01*
X4537849Y1502241D01*
X4537730Y1503249D01*
X4537929Y1504244D01*
X4538041Y1634622D01*
X4537845Y1635616D01*
X4537966Y1636623D01*
X4528021Y1766424D01*
X4527748Y1767399D01*
X4527792Y1768410D01*
X4507894Y1896862D01*
X4507548Y1897811D01*
X4507513Y1898821D01*
X4477826Y2025166D01*
X4477409Y2026084D01*
X4477296Y2027087D01*
X4438042Y2150583D01*
X4437555Y2151466D01*
X4437367Y2152455D01*
X4388822Y2272384D01*
X4388270Y2273225D01*
X4388007Y2274196D01*
X4330504Y2389866D01*
X4329994Y2390527D01*
X4329725Y2391316D01*
X4287108Y2464905D01*
X4286674Y2465398D01*
X4286431Y2466009D01*
X4241073Y2536014D01*
X4240522Y2536581D01*
X4240187Y2537296D01*
X4169342Y2633427D01*
X4168646Y2634062D01*
X4168185Y2634884D01*
X4088516Y2728147D01*
X4087777Y2728730D01*
X4087259Y2729515D01*
X4003630Y2814275D01*
X4002863Y2814794D01*
X4002301Y2815530D01*
X3913022Y2894068D01*
X3912221Y2894532D01*
X3911609Y2895225D01*
X3817143Y2967181D01*
X3816313Y2967586D01*
X3815654Y2968234D01*
X3716488Y3033277D01*
X3715633Y3033622D01*
X3714931Y3034222D01*
X3611572Y3092059D01*
X3610696Y3092343D01*
X3609954Y3092891D01*
X3502925Y3143266D01*
X3502032Y3143488D01*
X3501255Y3143981D01*
X3391096Y3186675D01*
X3390190Y3186834D01*
X3389382Y3187271D01*
X3276644Y3222103D01*
X3275731Y3222198D01*
X3274894Y3222577D01*
X3160137Y3249406D01*
X3159170Y3249439D01*
X3158262Y3249772D01*
X3029077Y3270074D01*
X3028060Y3270033D01*
X3027082Y3270308D01*
X2896908Y3280524D01*
X2895900Y3280404D01*
X2894905Y3280603D01*
X2764527Y3280716D01*
D02*
G37*
G36*
X12700Y3440029D02*
Y3152400D01*
X300329D01*
X297619Y3186838D01*
X286581Y3232816D01*
X268486Y3276500D01*
X243780Y3316817D01*
X213072Y3352772D01*
X177117Y3383480D01*
X136800Y3408186D01*
X93116Y3426281D01*
X47138Y3437319D01*
X12700Y3440029D01*
D02*
G37*
G36*
X-12700D02*
X-47138Y3437319D01*
X-93116Y3426281D01*
X-136800Y3408186D01*
X-177117Y3383480D01*
X-213072Y3352772D01*
X-243780Y3316817D01*
X-268486Y3276500D01*
X-286581Y3232816D01*
X-297619Y3186838D01*
X-300329Y3152400D01*
X-12700D01*
Y3440029D01*
D02*
G37*
G36*
X300329Y3127000D02*
X12700D01*
Y2839371D01*
X47138Y2842081D01*
X93116Y2853119D01*
X136800Y2871214D01*
X177117Y2895920D01*
X213072Y2926628D01*
X243780Y2962583D01*
X268486Y3002900D01*
X286581Y3046584D01*
X297619Y3092562D01*
X300329Y3127000D01*
D02*
G37*
G36*
X-12700D02*
X-300329D01*
X-297619Y3092562D01*
X-286581Y3046584D01*
X-268486Y3002900D01*
X-243780Y2962583D01*
X-213072Y2926628D01*
X-177117Y2895920D01*
X-136800Y2871214D01*
X-93116Y2853119D01*
X-47138Y2842081D01*
X-12700Y2839371D01*
Y3127000D01*
D02*
G37*
G36*
X4988660Y1694261D02*
Y1660649D01*
X5022272D01*
X5021081Y1666639D01*
X5010494Y1682483D01*
X4994650Y1693070D01*
X4988660Y1694261D01*
D02*
G37*
G36*
X4963260D02*
X4957271Y1693070D01*
X4941426Y1682483D01*
X4930839Y1666639D01*
X4929648Y1660649D01*
X4963260D01*
Y1694261D01*
D02*
G37*
G36*
X774361Y1669890D02*
Y1636278D01*
X807973D01*
X806781Y1642267D01*
X796194Y1658111D01*
X780350Y1668698D01*
X774361Y1669890D01*
D02*
G37*
G36*
X748961D02*
X742971Y1668698D01*
X727127Y1658111D01*
X716540Y1642267D01*
X715349Y1636278D01*
X748961D01*
Y1669890D01*
D02*
G37*
G36*
X5022272Y1635249D02*
X4988660D01*
Y1601637D01*
X4994650Y1602828D01*
X5010494Y1613415D01*
X5021081Y1629259D01*
X5022272Y1635249D01*
D02*
G37*
G36*
X4963260D02*
X4929648D01*
X4930839Y1629259D01*
X4941426Y1613415D01*
X4957271Y1602828D01*
X4963260Y1601637D01*
Y1635249D01*
D02*
G37*
G36*
X807973Y1610878D02*
X774361D01*
Y1577266D01*
X780350Y1578457D01*
X796194Y1589044D01*
X806781Y1604888D01*
X807973Y1610878D01*
D02*
G37*
G36*
X748961D02*
X715349D01*
X716540Y1604888D01*
X727127Y1589044D01*
X742971Y1578457D01*
X748961Y1577266D01*
Y1610878D01*
D02*
G37*
G36*
X2819693Y-222555D02*
Y-256167D01*
X2853305D01*
X2852113Y-250177D01*
X2841526Y-234333D01*
X2825682Y-223746D01*
X2819693Y-222555D01*
D02*
G37*
G36*
X2794293D02*
X2788303Y-223746D01*
X2772459Y-234333D01*
X2761872Y-250177D01*
X2760681Y-256167D01*
X2794293D01*
Y-222555D01*
D02*
G37*
G36*
X0Y292137D02*
X-45544Y288553D01*
X-89966Y277888D01*
X-132173Y260405D01*
X-171126Y236535D01*
X-205865Y206865D01*
X-235535Y172126D01*
X-259405Y133173D01*
X-276888Y90966D01*
X-287553Y46544D01*
X-291137Y1000D01*
X-287553Y-44544D01*
X-276888Y-88966D01*
X-259405Y-131173D01*
X-235535Y-170126D01*
X-205865Y-204865D01*
X-171126Y-234535D01*
X-132173Y-258405D01*
X-89966Y-275888D01*
X-45544Y-286553D01*
X0Y-290137D01*
X45544Y-286553D01*
X89966Y-275888D01*
X132173Y-258405D01*
X171126Y-234535D01*
X205865Y-204865D01*
X235535Y-170126D01*
X259405Y-131173D01*
X276888Y-88966D01*
X287553Y-44544D01*
X291137Y1000D01*
X287553Y46544D01*
X276888Y90966D01*
X259405Y133173D01*
X235535Y172126D01*
X205865Y206865D01*
X171126Y236535D01*
X132173Y260405D01*
X89966Y277888D01*
X45544Y288553D01*
X0Y292137D01*
D02*
G37*
G36*
X2853305Y-281567D02*
X2819693D01*
Y-315179D01*
X2825682Y-313988D01*
X2841526Y-303401D01*
X2852113Y-287556D01*
X2853305Y-281567D01*
D02*
G37*
G36*
X2794293D02*
X2760681D01*
X2761872Y-287556D01*
X2772459Y-303401D01*
X2788303Y-313988D01*
X2794293Y-315179D01*
Y-281567D01*
D02*
G37*
%LPD*%
D10*
X4823859Y775672D02*
G03*
X4837000Y856313I-240859J80641D01*
G01*
X4762605Y676708D02*
G03*
X4823859Y775672I-179605J179605D01*
G01*
X4313309Y197807D02*
G03*
X4109332Y-294898I493075J-492706D01*
G01*
X4216366Y-1663446D02*
G03*
X4258765Y-1573598I-89165J97004D01*
G01*
X3974770Y-1748511D02*
G03*
X4216366Y-1663446I-0J385617D01*
G01*
X4081350Y-1563282D02*
G03*
X4109332Y-1495728I-67554J67554D01*
G01*
X4000811Y-1596691D02*
G03*
X4081350Y-1563282I-116J114064D01*
G01*
X4840592Y427511D02*
G03*
X4780140Y417216I-23425J-45077D01*
G01*
X3490734Y-1748510D02*
G03*
X3483623Y-1749033I161J-50800D01*
G01*
X4911395Y2680903D02*
G03*
X4837000Y2501298I179605J-179605D01*
G01*
X4480923Y387520D02*
X4537845Y451948D01*
X4313310Y197808D02*
X4480923Y387520D01*
X4313309Y197807D02*
X4313310Y197808D01*
X4537845Y451948D02*
X4762605Y676708D01*
X4476938Y391041D02*
X4537845Y451948D01*
X4837000Y856313D02*
Y2501298D01*
X4258765Y-1573598D02*
X4280499Y-115011D01*
X4780129Y417204D01*
X3491214Y-1748510D02*
X3974770D01*
X4000329Y-1597174D02*
X4000811Y-1596691D01*
X3275552Y-1597174D02*
X4000329D01*
X4109332Y-1495728D02*
Y-294898D01*
X4780129Y417204D02*
X4780140Y417216D01*
X4840592Y427511D02*
X4840700Y427455D01*
X5656500Y1000D01*
X3490734Y-1748510D02*
X3491214D01*
X3490734D02*
X3490734D01*
X3275122Y-1597604D02*
X3275552Y-1597174D01*
X4911395Y2680903D02*
X4963553Y2733061D01*
X5656500Y3139700D01*
D11*
X3426978Y-1700995D02*
G03*
X3403072Y-1696210I-22073J-48163D01*
G01*
X3455275Y-1713964D02*
X3472860Y-1753786D01*
X3474500Y-1757500D01*
X3332431Y-1698654D02*
X3403072Y-1696210D01*
X3426978Y-1700995D02*
X3455275Y-1713964D01*
D12*
X2926047Y-1746520D02*
D03*
Y-1696520D02*
D03*
Y-1646520D02*
D03*
Y-1596520D02*
D03*
D13*
Y-1696520D02*
X2928182Y-1698654D01*
X3332431D01*
X3038347Y-1648820D02*
Y-1646905D01*
X3143923D02*
X3144308Y-1647290D01*
X3038347Y-1646905D02*
X3143923D01*
X3330316Y-1751953D02*
X3331177Y-1751968D01*
X3170481Y-1746534D02*
X3330316Y-1751953D01*
X3331177Y-1751968D02*
X3402095D01*
X3404905Y-1749158D01*
X3474500Y-1757500D02*
X3491214Y-1748510D01*
X3147106Y-1596605D02*
X3274123D01*
X3275122Y-1597604D01*
X2926133Y-1596605D02*
X3147096D01*
X3147106Y-1596606D01*
X2926048Y-1746519D02*
X3169633D01*
X3169644Y-1746519D01*
X3491214Y-1748510D02*
X3491442Y-1748387D01*
X2926047Y-1646520D02*
X3038347Y-1648820D01*
X2926047Y-1596520D02*
X2926133Y-1596605D01*
D14*
X0Y1000D02*
D03*
Y3139700D02*
D03*
X5656500Y1000D02*
D03*
Y3139700D02*
D03*
D15*
X3144308Y-1647290D02*
D03*
X761661Y1623578D02*
D03*
X2908786Y3555992D02*
D03*
X4975960Y1647949D02*
D03*
X4203274Y-227336D02*
D03*
X4189287Y-1246508D02*
D03*
X3404905Y-1749158D02*
D03*
X3275122Y-1597604D02*
D03*
X3332431Y-1698654D02*
D03*
X2806993Y-268867D02*
D03*
%TF.MD5,d59d8365f6bc24414179697956646394*%
M02*
