%TF.GenerationSoftware,Altium Limited,Altium Designer,21.4.1 (30)*%
G04 Layer_Color=0*
%FSLAX45Y45*%
%MOMM*%
%TF.SameCoordinates,F4A6E2B2-E63A-418B-8CEE-B9A354165880*%
%TF.FilePolarity,Positive*%
%TF.FileFunction,Plated,1,4,PTH,Drill*%
%TF.Part,Single*%
G01*
G75*
%TA.AperFunction,ComponentDrill*%
%ADD145O,1.10000X0.50000*%
%ADD146C,0.50000*%
%ADD147C,0.80000*%
%ADD148C,0.90000*%
%ADD149C,1.00000*%
%ADD150C,0.90000*%
%TA.AperFunction,ViaDrill,NotFilled*%
%ADD151C,0.15200*%
D145*
X60000Y2920000D02*
D03*
Y3818000D02*
D03*
D146*
X300000D02*
D03*
Y2920000D02*
D03*
D147*
X584200Y2072000D02*
D03*
Y2580000D02*
D03*
Y2326000D02*
D03*
D148*
X1442500Y2120901D02*
D03*
X1955000Y2120900D02*
D03*
X119300Y2562601D02*
D03*
Y2054600D02*
D03*
X1955000Y88900D02*
D03*
X1447000Y1612900D02*
D03*
X1955000Y1104900D02*
D03*
Y596900D02*
D03*
X373300Y2054600D02*
D03*
Y2562600D02*
D03*
X372300Y2304401D02*
D03*
D149*
X2937000Y140000D02*
D03*
X2683000D02*
D03*
D150*
X119300Y2308600D02*
D03*
X1447000Y88900D02*
D03*
Y1104900D02*
D03*
Y596900D02*
D03*
X1955000Y1612900D02*
D03*
D151*
X2700507Y1046123D02*
D03*
X2765300Y1051300D02*
D03*
X2811535Y995114D02*
D03*
X2723346Y1269079D02*
D03*
X1895300Y946000D02*
D03*
X2343700Y887800D02*
D03*
X2780200Y747875D02*
D03*
X2242400Y819600D02*
D03*
X2181888Y979000D02*
D03*
X1793982Y694146D02*
D03*
X1729008Y692328D02*
D03*
X1779240Y2150527D02*
D03*
X949164Y1557589D02*
D03*
X475100Y757538D02*
D03*
X569489Y2987254D02*
D03*
X1026515Y3167701D02*
D03*
X2655200Y1398800D02*
D03*
X3233200Y270400D02*
D03*
X2015000Y1314000D02*
D03*
X993120Y1647821D02*
D03*
X1331415Y1509100D02*
D03*
X1060026Y2959135D02*
D03*
X704351Y3201626D02*
D03*
X424455Y2853589D02*
D03*
X3003000Y704000D02*
D03*
X1890729Y2538329D02*
D03*
X1657989Y3070258D02*
D03*
X1587000Y3225000D02*
D03*
X1751070Y2578611D02*
D03*
X1608375Y2534882D02*
D03*
X2614000Y656000D02*
D03*
X1203960Y985520D02*
D03*
X866100Y1410300D02*
D03*
X2323000Y814000D02*
D03*
X936840Y1445036D02*
D03*
X2083181Y1034031D02*
D03*
X584300Y1944215D02*
D03*
X1294000Y1952100D02*
D03*
X1283240Y1772633D02*
D03*
X1049509Y3408343D02*
D03*
X928628Y3342308D02*
D03*
X1083673Y3228856D02*
D03*
X1196000Y3248099D02*
D03*
X1029101Y1484430D02*
D03*
X1283232Y506768D02*
D03*
X891055Y951008D02*
D03*
X3041000Y981000D02*
D03*
X3080000Y917000D02*
D03*
X3140000Y3470000D02*
D03*
X3074998Y2274842D02*
D03*
X596992Y3444000D02*
D03*
X658950Y1914050D02*
D03*
X831911Y1646089D02*
D03*
X938000Y2677000D02*
D03*
X860000Y275000D02*
D03*
X1159500Y2135300D02*
D03*
X1304921Y2100021D02*
D03*
X1015000Y2428000D02*
D03*
X1529000Y2052700D02*
D03*
X1527440Y1676427D02*
D03*
X2598675Y1862666D02*
D03*
X834600Y2587407D02*
D03*
X1184543Y2614156D02*
D03*
X2188043Y1875705D02*
D03*
X1780846Y1739997D02*
D03*
X1724006Y2639336D02*
D03*
X1368320Y3073441D02*
D03*
X743986Y882200D02*
D03*
X597502Y3294369D02*
D03*
X1383359Y3655090D02*
D03*
X1495800D02*
D03*
X1539000Y2949192D02*
D03*
X1460000Y2606850D02*
D03*
X1570000Y2616000D02*
D03*
X1269553Y2617017D02*
D03*
X1416767Y2507115D02*
D03*
X303380Y3668425D02*
D03*
X645000Y3629689D02*
D03*
X436753Y3637518D02*
D03*
X417200Y3516700D02*
D03*
X507200Y3840028D02*
D03*
X600000Y3370000D02*
D03*
X419988Y3404883D02*
D03*
X442498Y3343906D02*
D03*
X439000Y3279000D02*
D03*
X443903Y3175871D02*
D03*
X442339Y3110891D02*
D03*
X1722096Y3527904D02*
D03*
X1408043Y3356043D02*
D03*
X1299561Y3493839D02*
D03*
X1095600Y1153000D02*
D03*
X890000Y1016000D02*
D03*
X606000Y531000D02*
D03*
X303000Y693000D02*
D03*
X3280160Y761000D02*
D03*
X2469453Y1414953D02*
D03*
X2292938Y1562535D02*
D03*
X2272000Y1501000D02*
D03*
X1537454Y2159500D02*
D03*
X1489315Y2505315D02*
D03*
X1178000Y3349000D02*
D03*
X1297828Y3250000D02*
D03*
X1483149Y3223058D02*
D03*
X754183Y3429967D02*
D03*
X-110000Y3201000D02*
D03*
X-105000Y3294000D02*
D03*
X2719000Y487000D02*
D03*
X2154000Y153000D02*
D03*
X1050000Y654000D02*
D03*
X3012000Y822000D02*
D03*
X2911000Y794000D02*
D03*
X2490000Y488321D02*
D03*
X3026000Y354000D02*
D03*
X2491205Y1850606D02*
D03*
X3006000Y569000D02*
D03*
X3353000Y242000D02*
D03*
X200000Y162000D02*
D03*
X1879286Y491849D02*
D03*
X1625397Y183080D02*
D03*
X191420Y901338D02*
D03*
X472440Y162560D02*
D03*
X467500Y1029078D02*
D03*
X2880000Y1570000D02*
D03*
X1030000Y3780000D02*
D03*
X586000Y3184650D02*
D03*
X2130000Y500000D02*
D03*
X2090000Y3620000D02*
D03*
X1153160Y172720D02*
D03*
X2293087Y2157276D02*
D03*
X889000Y563880D02*
D03*
X669816Y198863D02*
D03*
X1188900Y554309D02*
D03*
X1344413Y484815D02*
D03*
X2680000Y2220000D02*
D03*
X1016000Y172720D02*
D03*
X340000Y780000D02*
D03*
X440620Y1130086D02*
D03*
X1559094Y3399553D02*
D03*
X1655700Y3212200D02*
D03*
X721000Y603000D02*
D03*
X1890000Y3510000D02*
D03*
X1822100Y3648100D02*
D03*
X1790446Y3372866D02*
D03*
X1779997Y3099994D02*
D03*
X1940000Y3593000D02*
D03*
%TF.MD5,8d923f64cafb3fe77f7af75601137117*%
M02*
