%TF.GenerationSoftware,Altium Limited,Altium Designer,21.4.1 (30)*%
G04 Layer_Physical_Order=3*
G04 Layer_Color=16440176*
%FSLAX45Y45*%
%MOMM*%
%TF.SameCoordinates,F4A6E2B2-E63A-418B-8CEE-B9A354165880*%
%TF.FilePolarity,Positive*%
%TF.FileFunction,Copper,L3,Inr,Signal*%
%TF.Part,Single*%
G01*
G75*
%TA.AperFunction,Conductor*%
%ADD10C,0.20000*%
%ADD11C,0.20320*%
%ADD56C,0.30000*%
%ADD57C,0.50800*%
%TA.AperFunction,ComponentPad*%
%ADD66C,0.63000*%
%ADD67O,1.35200X0.75200*%
%ADD68O,1.24000X0.75200*%
%ADD69R,1.30000X1.30000*%
%ADD70C,1.30000*%
%ADD71C,0.70000*%
%ADD72C,1.25000*%
%ADD73C,1.50000*%
%ADD74R,1.50000X1.50000*%
%TA.AperFunction,WasherPad*%
%ADD75C,2.50000*%
%TA.AperFunction,ViaPad*%
%ADD76C,0.50000*%
%TA.AperFunction,Conductor*%
%ADD77C,0.38100*%
G36*
X2145000Y3828903D02*
X2140200D01*
X2134347Y3827739D01*
X2129386Y3824423D01*
X2126070Y3819461D01*
X2124906Y3813609D01*
Y3665997D01*
X2120966Y3662614D01*
X2112206Y3659155D01*
X2107304Y3661776D01*
X2100000Y3663991D01*
Y3620000D01*
Y3576009D01*
X2107304Y3578224D01*
X2112206Y3580845D01*
X2120966Y3577386D01*
X2124906Y3574004D01*
Y2384037D01*
X2112573Y2381005D01*
X2000425Y2595362D01*
X2000430Y2595376D01*
X2000330Y2595617D01*
X2000120Y2595960D01*
X1999390Y2597336D01*
X1994466Y2606448D01*
X1768874Y3023944D01*
X1751977Y3055214D01*
X1761334Y3064613D01*
X1764615Y3062860D01*
X1772155Y3060572D01*
X1779997Y3059800D01*
X1787838Y3060572D01*
X1795378Y3062860D01*
X1802327Y3066574D01*
X1808418Y3071572D01*
X1813416Y3077663D01*
X1817131Y3084612D01*
X1819418Y3092152D01*
X1820190Y3099994D01*
X1819418Y3107835D01*
X1817131Y3115375D01*
X1813416Y3122324D01*
X1808418Y3128415D01*
X1802327Y3133413D01*
X1795378Y3137128D01*
X1787838Y3139415D01*
X1779997Y3140187D01*
X1772155Y3139415D01*
X1764615Y3137128D01*
X1757666Y3133413D01*
X1751576Y3128415D01*
X1746577Y3122324D01*
X1742863Y3115375D01*
X1740576Y3107835D01*
X1740175Y3103771D01*
X1727236Y3101002D01*
X1724480Y3106102D01*
X1724480Y3106103D01*
X1724458Y3106142D01*
X1723657Y3107251D01*
X1719113Y3114667D01*
X1711413Y3123682D01*
X1702398Y3131381D01*
X1696293Y3135122D01*
X1694904Y3136160D01*
X1694768Y3136237D01*
X1694765Y3136238D01*
X1694764Y3136239D01*
X1655901Y3158005D01*
X1655923Y3170986D01*
X1656713Y3172106D01*
X1663541Y3172779D01*
X1671081Y3175066D01*
X1678030Y3178781D01*
X1684121Y3183779D01*
X1689120Y3189870D01*
X1692834Y3196819D01*
X1695121Y3204359D01*
X1695893Y3212200D01*
X1695121Y3220041D01*
X1692834Y3227582D01*
X1689120Y3234530D01*
X1684121Y3240621D01*
X1678030Y3245620D01*
X1671081Y3249334D01*
X1663541Y3251621D01*
X1655700Y3252394D01*
X1647859Y3251621D01*
X1640319Y3249334D01*
X1633370Y3245620D01*
X1620781Y3247283D01*
X1618749Y3249366D01*
X1615421Y3253421D01*
X1609330Y3258419D01*
X1602381Y3262134D01*
X1594841Y3264421D01*
X1587000Y3265193D01*
X1579159Y3264421D01*
X1571618Y3262134D01*
X1564669Y3258419D01*
X1564002Y3257871D01*
X1558318Y3257656D01*
X1549816Y3259799D01*
X1548293Y3260907D01*
X1544273Y3267467D01*
X1536573Y3276482D01*
X1534015Y3278667D01*
X1533074Y3279745D01*
X1448093Y3354587D01*
X1448237Y3356043D01*
X1447464Y3363885D01*
X1445177Y3371425D01*
X1441463Y3378374D01*
X1436464Y3384464D01*
X1430374Y3389463D01*
X1423425Y3393177D01*
X1415885Y3395464D01*
X1408043Y3396237D01*
X1400202Y3395464D01*
X1392662Y3393177D01*
X1385713Y3389463D01*
X1379622Y3384464D01*
X1374624Y3378374D01*
X1370909Y3371425D01*
X1368622Y3363885D01*
X1367850Y3356043D01*
X1368622Y3348202D01*
X1370909Y3340662D01*
X1374624Y3333713D01*
X1379622Y3327622D01*
X1385713Y3322624D01*
X1392662Y3318909D01*
X1400202Y3316622D01*
X1408043Y3315850D01*
X1414556Y3316491D01*
X1464528Y3272481D01*
X1465086Y3270364D01*
X1462477Y3257364D01*
X1460819Y3256478D01*
X1454728Y3251479D01*
X1449730Y3245388D01*
X1446015Y3238440D01*
X1443728Y3230899D01*
X1443548Y3229066D01*
X1430320Y3224333D01*
X1238777Y3415877D01*
X1233521Y3419910D01*
X1232031Y3420527D01*
X1124035Y3496884D01*
X1123648Y3497088D01*
X1123315Y3497375D01*
X1122654Y3497694D01*
X1122073Y3498141D01*
X1120080Y3498966D01*
X1118173Y3499970D01*
X1117745Y3500067D01*
X1117350Y3500258D01*
X682447Y3644036D01*
X682134Y3645070D01*
X678420Y3652019D01*
X673421Y3658110D01*
X667330Y3663108D01*
X660381Y3666823D01*
X652841Y3669110D01*
X645000Y3669882D01*
X637159Y3669110D01*
X629619Y3666823D01*
X622670Y3663108D01*
X616579Y3658110D01*
X611580Y3652019D01*
X609237Y3647636D01*
X596567Y3649749D01*
X596537Y3649761D01*
Y3756900D01*
X595673Y3763468D01*
X593137Y3769589D01*
X589104Y3774844D01*
X588908Y3774995D01*
X546204Y3830811D01*
X546621Y3832187D01*
X547393Y3840028D01*
X546621Y3847869D01*
X545417Y3851838D01*
X550198Y3861031D01*
X553855Y3864538D01*
X2145000Y3864538D01*
Y3828903D01*
D02*
G37*
G36*
X464202Y3861031D02*
X468983Y3851838D01*
X467779Y3847869D01*
X467006Y3840028D01*
X467779Y3832187D01*
X470066Y3824646D01*
X473780Y3817697D01*
X478779Y3811607D01*
X484869Y3806608D01*
X491818Y3802894D01*
X499359Y3800607D01*
X505901Y3799962D01*
X545783Y3747835D01*
Y3631161D01*
X513681Y3599060D01*
X472963D01*
X470176Y3602651D01*
X467359Y3611760D01*
X470173Y3615187D01*
X473887Y3622136D01*
X476174Y3629677D01*
X476946Y3637518D01*
X476174Y3645359D01*
X473887Y3652899D01*
X470173Y3659848D01*
X465174Y3665939D01*
X459659Y3670465D01*
X459415Y3676168D01*
X461679Y3683951D01*
X467881Y3685832D01*
X475959Y3690150D01*
X483040Y3695961D01*
X488850Y3703041D01*
X493168Y3711119D01*
X495827Y3719885D01*
X496725Y3729000D01*
X495827Y3738116D01*
X493168Y3746881D01*
X488850Y3754959D01*
X483040Y3762040D01*
X475959Y3767850D01*
X467881Y3772168D01*
X459116Y3774827D01*
X450000Y3775725D01*
X440885Y3774827D01*
X432119Y3772168D01*
X424041Y3767850D01*
X416961Y3762040D01*
X411150Y3754959D01*
X406832Y3746881D01*
X404173Y3738116D01*
X403275Y3729000D01*
X404173Y3719885D01*
X406832Y3711119D01*
X411150Y3703041D01*
X416961Y3695961D01*
X424041Y3690150D01*
X426200Y3688996D01*
X424385Y3675566D01*
X421372Y3674652D01*
X414423Y3670937D01*
X408332Y3665939D01*
X403333Y3659848D01*
X399619Y3652899D01*
X397332Y3645359D01*
X396560Y3637518D01*
X397332Y3629677D01*
X399619Y3622136D01*
X403333Y3615187D01*
X408332Y3609097D01*
X411473Y3606519D01*
X410500Y3595815D01*
X408769Y3592720D01*
X408081Y3592537D01*
X407962Y3592489D01*
X407836Y3592471D01*
X397138Y3589524D01*
X396148Y3589106D01*
X393853Y3588555D01*
X382900Y3584018D01*
X372791Y3577824D01*
X363922Y3570249D01*
X363777Y3570124D01*
X363652Y3569978D01*
X360901Y3566757D01*
X359646Y3565622D01*
X347705Y3551574D01*
X347704Y3551573D01*
X292128Y3486191D01*
X280208Y3490573D01*
Y3621055D01*
X282171Y3623633D01*
X292908Y3629802D01*
X295539Y3629004D01*
X303380Y3628232D01*
X311221Y3629004D01*
X318762Y3631291D01*
X325711Y3635005D01*
X331801Y3640004D01*
X336800Y3646095D01*
X340514Y3653043D01*
X342801Y3660584D01*
X343574Y3668425D01*
X342801Y3676266D01*
X340514Y3683806D01*
X336800Y3690755D01*
X331801Y3696846D01*
X325711Y3701845D01*
X318762Y3705559D01*
X311221Y3707846D01*
X303380Y3708618D01*
X295539Y3707846D01*
X292908Y3707048D01*
X282171Y3713217D01*
X280208Y3715795D01*
Y3742994D01*
X279327Y3747422D01*
X280050Y3750312D01*
X286784Y3760122D01*
X290000D01*
Y3818000D01*
X300000D01*
Y3828000D01*
X381294D01*
X381167Y3829292D01*
X377873Y3840149D01*
X372524Y3850156D01*
X371144Y3851838D01*
X377150Y3864538D01*
X460545D01*
X464202Y3861031D01*
D02*
G37*
G36*
X711085Y3459534D02*
X717438Y3446076D01*
X717049Y3445349D01*
X714762Y3437808D01*
X713989Y3429967D01*
X714762Y3422126D01*
X717049Y3414586D01*
X720763Y3407637D01*
X725762Y3401546D01*
X731852Y3396548D01*
X738801Y3392833D01*
X746342Y3390546D01*
X754183Y3389774D01*
X762024Y3390546D01*
X769564Y3392833D01*
X776513Y3396548D01*
X779266Y3398807D01*
X882641Y3377226D01*
X884843Y3374655D01*
X888661Y3362995D01*
X886853Y3359612D01*
X884637Y3352308D01*
X928628D01*
Y3342308D01*
X938628D01*
Y3298317D01*
X945932Y3300533D01*
X953750Y3304711D01*
X960602Y3310335D01*
X965205Y3315943D01*
X968377Y3317170D01*
X980566Y3317074D01*
X1044428Y3237279D01*
X1044252Y3236697D01*
X1043479Y3228856D01*
X1044252Y3221015D01*
X1045462Y3217025D01*
X1039382Y3208973D01*
X1035762Y3206695D01*
X1034356Y3207122D01*
X1026515Y3207894D01*
X1018673Y3207122D01*
X1011133Y3204835D01*
X1004184Y3201120D01*
X998094Y3196122D01*
X993095Y3190031D01*
X989381Y3183082D01*
X987094Y3175542D01*
X986321Y3167701D01*
X987094Y3159860D01*
X989381Y3152319D01*
X993095Y3145370D01*
X998094Y3139280D01*
X1004184Y3134281D01*
X1011133Y3130567D01*
X1018673Y3128280D01*
X1026515Y3127507D01*
X1034356Y3128280D01*
X1041896Y3130567D01*
X1048845Y3134281D01*
X1054936Y3139280D01*
X1059934Y3145370D01*
X1063649Y3152319D01*
X1065936Y3159860D01*
X1066708Y3167701D01*
X1065936Y3175542D01*
X1064725Y3179532D01*
X1070805Y3187584D01*
X1074426Y3189861D01*
X1075832Y3189435D01*
X1083673Y3188662D01*
X1091514Y3189435D01*
X1099054Y3191722D01*
X1106003Y3195436D01*
X1112094Y3200435D01*
X1116784Y3206150D01*
X1117143Y3206528D01*
X1131949Y3207378D01*
X1136512Y3201547D01*
X1137715Y3200368D01*
X1142576Y3194676D01*
X1151591Y3186976D01*
X1161700Y3180781D01*
X1167013Y3178581D01*
X1168620Y3177699D01*
X1333942Y3113402D01*
X1334486Y3112348D01*
X1329929Y3100458D01*
X1015469Y3113711D01*
X1015408Y3113706D01*
X1006234Y3114609D01*
X994920Y3118041D01*
X984493Y3123615D01*
X983175Y3124697D01*
X982828Y3125024D01*
X639951Y3372464D01*
X639421Y3377841D01*
X637134Y3385382D01*
X633420Y3392331D01*
X628421Y3398421D01*
X626091Y3400333D01*
X626053Y3400390D01*
X624831Y3413285D01*
X625372Y3415416D01*
X625751Y3415992D01*
X630411Y3421670D01*
X634126Y3428619D01*
X636413Y3436159D01*
X637185Y3444000D01*
X636413Y3451841D01*
X635485Y3454900D01*
X641827Y3464745D01*
X644620Y3466690D01*
X711085Y3459534D01*
D02*
G37*
G36*
X608384Y3613337D02*
X611580Y3607358D01*
X616579Y3601268D01*
X622670Y3596269D01*
X629619Y3592555D01*
X637159Y3590268D01*
X645000Y3589495D01*
X652841Y3590268D01*
X660381Y3592555D01*
X666532Y3595842D01*
X1097824Y3453257D01*
X1171315Y3401296D01*
X1170607Y3393412D01*
X1168316Y3387862D01*
X1162618Y3386134D01*
X1155670Y3382419D01*
X1149579Y3377421D01*
X1144580Y3371330D01*
X1140866Y3364381D01*
X1138579Y3356841D01*
X1137806Y3349000D01*
X1138579Y3341159D01*
X1140866Y3333618D01*
X1144580Y3326669D01*
X1149579Y3320579D01*
X1155670Y3315580D01*
X1162618Y3311866D01*
X1170159Y3309579D01*
X1178000Y3308806D01*
X1185841Y3309579D01*
X1193381Y3311866D01*
X1200330Y3315580D01*
X1206421Y3320579D01*
X1211419Y3326669D01*
X1215134Y3333618D01*
X1217421Y3341159D01*
X1217989Y3346926D01*
X1223364Y3350346D01*
X1230636Y3352240D01*
X1282465Y3300411D01*
X1282457Y3294882D01*
X1279406Y3285509D01*
X1275497Y3283420D01*
X1269407Y3278421D01*
X1264408Y3272331D01*
X1260694Y3265382D01*
X1258407Y3257841D01*
X1257634Y3250000D01*
X1258407Y3242159D01*
X1260694Y3234619D01*
X1264408Y3227670D01*
X1269407Y3221579D01*
X1275497Y3216581D01*
X1282446Y3212866D01*
X1289986Y3210579D01*
X1297828Y3209807D01*
X1305669Y3210579D01*
X1313209Y3212866D01*
X1320158Y3216581D01*
X1326249Y3221579D01*
X1331247Y3227670D01*
X1333337Y3231578D01*
X1342710Y3234629D01*
X1348239Y3234637D01*
X1448863Y3134013D01*
X1543592Y3001695D01*
X1540909Y2994504D01*
X1536931Y2989182D01*
X1531159Y2988613D01*
X1523618Y2986326D01*
X1516670Y2982612D01*
X1510579Y2977613D01*
X1505580Y2971523D01*
X1501866Y2964574D01*
X1499579Y2957033D01*
X1499172Y2952904D01*
X1486270Y2951480D01*
X1483149Y2960960D01*
X1440376Y3096109D01*
X1440373Y3096114D01*
X1440372Y3096120D01*
X1440333Y3096244D01*
X1440277Y3096363D01*
X1440175Y3096788D01*
X1435638Y3107741D01*
X1429444Y3117850D01*
X1425731Y3122197D01*
X1425224Y3122857D01*
Y3122858D01*
X1424137Y3124275D01*
X1424114Y3124292D01*
X1424055Y3124369D01*
X1423627Y3124697D01*
X1421744Y3126865D01*
X1412729Y3134564D01*
X1402620Y3140759D01*
X1397162Y3143020D01*
X1395581Y3143887D01*
X1230378Y3208138D01*
X1228477Y3211821D01*
X1227160Y3223016D01*
X1229419Y3225769D01*
X1233134Y3232718D01*
X1235421Y3240258D01*
X1236193Y3248099D01*
X1235421Y3255941D01*
X1233134Y3263481D01*
X1229419Y3270430D01*
X1224421Y3276520D01*
X1218330Y3281519D01*
X1211381Y3285233D01*
X1203841Y3287520D01*
X1196000Y3288293D01*
X1188159Y3287520D01*
X1180618Y3285233D01*
X1173669Y3281519D01*
X1167579Y3276520D01*
X1162889Y3270805D01*
X1162531Y3270427D01*
X1147724Y3269577D01*
X1143160Y3275408D01*
X1141960Y3276585D01*
X1138543Y3280586D01*
X1137937Y3281404D01*
X1064065Y3357687D01*
X1064477Y3364436D01*
X1067368Y3372533D01*
X1071840Y3374924D01*
X1077931Y3379922D01*
X1082929Y3386013D01*
X1086643Y3392962D01*
X1088931Y3400502D01*
X1089703Y3408343D01*
X1088931Y3416184D01*
X1086643Y3423725D01*
X1082929Y3430674D01*
X1077931Y3436764D01*
X1071840Y3441763D01*
X1064891Y3445477D01*
X1057351Y3447764D01*
X1049509Y3448537D01*
X1041668Y3447764D01*
X1034128Y3445477D01*
X1027179Y3441763D01*
X1021088Y3436764D01*
X1016090Y3430674D01*
X1015627Y3429807D01*
X1001797Y3426393D01*
X1000047Y3426835D01*
X996126Y3430273D01*
X984067Y3438331D01*
X971059Y3444746D01*
X960834Y3448217D01*
X959661Y3448733D01*
X817350Y3490231D01*
X793821Y3497092D01*
X793820Y3497092D01*
X775329Y3502484D01*
X773781Y3502722D01*
X769750Y3503690D01*
X769179Y3503927D01*
X768262Y3504047D01*
X766002Y3504590D01*
X763407Y3504794D01*
X762269Y3505070D01*
X714652Y3510197D01*
X478672Y3535605D01*
X479353Y3548305D01*
X524193D01*
X530761Y3549170D01*
X536882Y3551705D01*
X542137Y3555738D01*
X589104Y3602705D01*
X593137Y3607961D01*
X595090Y3612674D01*
X600976Y3614179D01*
X604059Y3614237D01*
X608384Y3613337D01*
D02*
G37*
G36*
X1520334Y3188259D02*
X1521856Y3187151D01*
X1525876Y3180591D01*
X1533576Y3171576D01*
X1539223Y3166753D01*
X1539262Y3166702D01*
X1539464Y3166548D01*
X1542150Y3164254D01*
X1542591Y3163876D01*
X1544348Y3162800D01*
X1544518Y3162669D01*
X1544650Y3162614D01*
X1548696Y3160135D01*
X1550088Y3159096D01*
X1630135Y3114263D01*
X1630543Y3099478D01*
X1629568Y3098679D01*
X1624570Y3092588D01*
X1620855Y3085639D01*
X1618568Y3078099D01*
X1617796Y3070258D01*
X1618568Y3062417D01*
X1620855Y3054876D01*
X1624570Y3047927D01*
X1629568Y3041837D01*
X1635659Y3036838D01*
X1641468Y3033733D01*
X1649324Y3004285D01*
X1650076Y3002463D01*
X1651256Y2998575D01*
X1653791Y2993831D01*
X1654602Y2992044D01*
X1654627Y2992004D01*
X1818965Y2726057D01*
X1808388Y2719014D01*
X1591143Y3022464D01*
X1504189Y3143922D01*
X1488916Y3165255D01*
X1487494Y3166775D01*
X1486226Y3168427D01*
X1484425Y3170229D01*
X1489157Y3183456D01*
X1490991Y3183637D01*
X1498531Y3185924D01*
X1505480Y3189639D01*
X1506148Y3190187D01*
X1511831Y3190402D01*
X1520334Y3188259D01*
D02*
G37*
G36*
X817784Y2981767D02*
X1246833Y2664629D01*
X1247153Y2652951D01*
X1246011Y2649443D01*
X1241132Y2645438D01*
X1236133Y2639348D01*
X1233243Y2633940D01*
X1231888Y2633424D01*
X1227982Y2632809D01*
X1219509Y2633593D01*
X1217963Y2636486D01*
X1212964Y2642577D01*
X1206874Y2647576D01*
X1199925Y2651290D01*
X1192384Y2653577D01*
X1184543Y2654350D01*
X1177119Y2653618D01*
X729073Y3031546D01*
X736950Y3041516D01*
X817784Y2981767D01*
D02*
G37*
G36*
X374006Y3484540D02*
X351649Y3437065D01*
X351166Y3435551D01*
X348133Y3428230D01*
X345508Y3417298D01*
X345365Y3416702D01*
X344447Y3405032D01*
X344451Y3404982D01*
Y3274100D01*
X344654Y3272556D01*
X344641Y3270998D01*
X345085Y3269286D01*
X345316Y3267532D01*
X345912Y3266092D01*
X346302Y3264585D01*
X347173Y3263046D01*
X347851Y3261411D01*
X348799Y3260176D01*
X349566Y3258821D01*
X404976Y3185343D01*
X404482Y3183713D01*
X403709Y3175871D01*
X404482Y3168030D01*
X406769Y3160490D01*
X410483Y3153541D01*
X415482Y3147451D01*
Y3140595D01*
X413918Y3139312D01*
X408919Y3133221D01*
X405205Y3126272D01*
X402918Y3118732D01*
X402145Y3110891D01*
X402918Y3103049D01*
X405205Y3095509D01*
X408919Y3088560D01*
X413918Y3082470D01*
X420008Y3077471D01*
X426957Y3073757D01*
X434497Y3071470D01*
X442339Y3070697D01*
X450180Y3071470D01*
X457720Y3073757D01*
X464669Y3077471D01*
X470760Y3082470D01*
X475758Y3088560D01*
X479473Y3095509D01*
X481760Y3103049D01*
X482532Y3110891D01*
X481760Y3118732D01*
X479473Y3126272D01*
X475758Y3133221D01*
X470760Y3139311D01*
Y3146167D01*
X472324Y3147450D01*
X477322Y3153541D01*
X481037Y3160490D01*
X483324Y3168030D01*
X484096Y3175871D01*
X483324Y3183713D01*
X481037Y3191253D01*
X477322Y3198202D01*
X472324Y3204293D01*
X466233Y3209291D01*
X459284Y3213006D01*
X451744Y3215293D01*
X445495Y3215908D01*
X437758Y3226168D01*
X438032Y3228962D01*
X443778Y3239277D01*
X446841Y3239579D01*
X454381Y3241866D01*
X461330Y3245581D01*
X464624Y3248283D01*
X474748Y3247414D01*
X479550Y3245339D01*
X516089Y3156044D01*
X516941Y3154555D01*
X518682Y3150350D01*
X524877Y3140242D01*
X532452Y3131372D01*
X532576Y3131227D01*
X532722Y3131102D01*
X536127Y3128193D01*
X537297Y3126911D01*
X1144414Y2614806D01*
X1144350Y2614156D01*
X1145122Y2606315D01*
X1145623Y2604662D01*
X1138116Y2593559D01*
X1136331Y2592558D01*
X867274Y2610645D01*
X863021Y2615828D01*
X856930Y2620827D01*
X849981Y2624541D01*
X842441Y2626828D01*
X834600Y2627601D01*
X826758Y2626828D01*
X819218Y2624541D01*
X812269Y2620827D01*
X806178Y2615828D01*
X801180Y2609737D01*
X797466Y2602789D01*
X795178Y2595248D01*
X795155Y2595006D01*
X781855Y2589545D01*
X464611Y2853212D01*
X464648Y2853589D01*
X463876Y2861430D01*
X461589Y2868971D01*
X457874Y2875920D01*
X452876Y2882010D01*
X446785Y2887009D01*
X439836Y2890723D01*
X432296Y2893010D01*
X424455Y2893783D01*
X416613Y2893010D01*
X409073Y2890723D01*
X402124Y2887009D01*
X396033Y2882010D01*
X394133Y2879694D01*
X381364Y2879261D01*
X379092Y2881467D01*
X374567Y2891666D01*
X377873Y2897851D01*
X381167Y2908708D01*
X381294Y2910000D01*
X300000D01*
Y2920000D01*
X290000D01*
Y2977878D01*
X286792D01*
X280079Y2987637D01*
X279330Y2990579D01*
X280208Y2994994D01*
Y3393801D01*
X363235Y3491479D01*
X374006Y3484540D01*
D02*
G37*
G36*
X1762219Y1963364D02*
X1763742Y1962529D01*
X1770843Y1957491D01*
X1785207Y1949552D01*
X1800370Y1943271D01*
X1801223Y1943025D01*
X1801459Y1942908D01*
X1968862Y1885802D01*
X1976657Y1883143D01*
X1976727Y1883129D01*
X1976734Y1883117D01*
Y1883116D01*
X1988426Y1878624D01*
X1990497Y1877827D01*
X1990672Y1877785D01*
X1990825Y1877694D01*
X2124306Y1820768D01*
X2499635Y1573411D01*
X2503298Y1571633D01*
X2637611Y1448536D01*
X2637611Y1448535D01*
X2630529Y1437800D01*
X2331589Y1572915D01*
X2330072Y1577917D01*
X2326357Y1584866D01*
X2321359Y1590956D01*
X2315268Y1595955D01*
X2308319Y1599669D01*
X2300779Y1601956D01*
X2292938Y1602729D01*
X2285097Y1601956D01*
X2278444Y1599939D01*
X2028219Y1741930D01*
X2026607Y1742584D01*
X2020444Y1745990D01*
X2020144Y1746189D01*
X1829625Y1839545D01*
X1828080Y1840065D01*
X1823277Y1842434D01*
X1809543Y1847096D01*
X1795318Y1849926D01*
X1794456Y1849982D01*
X1794211Y1850045D01*
X1736176Y1857094D01*
X1734771Y1857862D01*
X1728334Y1859429D01*
X1622309Y1870920D01*
X1561037Y1877561D01*
X1560212Y1877542D01*
X1559398Y1877685D01*
X1426781Y1883414D01*
X1425779Y1883326D01*
X1424110Y1883457D01*
X1423896Y1883487D01*
X1350461Y1884042D01*
X1345817Y1896778D01*
X1347708Y1898392D01*
X1355448Y1907455D01*
X1359162Y1913516D01*
X1359311Y1913428D01*
X1359483Y1913651D01*
X1359586Y1913900D01*
X1360834Y1916048D01*
X1365351Y1924423D01*
X1365366Y1924451D01*
X1365383Y1924482D01*
X1365384Y1924484D01*
X1429965Y2044208D01*
X1430339Y2044118D01*
X1442500Y2043161D01*
X1454661Y2044118D01*
X1466523Y2046966D01*
X1476214Y2050980D01*
X1482547Y2048901D01*
X1489340Y2044996D01*
X1489808Y2044102D01*
X1491866Y2037319D01*
X1495580Y2030370D01*
X1500579Y2024279D01*
X1506670Y2019280D01*
X1513619Y2015566D01*
X1521159Y2013279D01*
X1529000Y2012507D01*
X1536841Y2013279D01*
X1544381Y2015566D01*
X1551330Y2019280D01*
X1557421Y2024279D01*
X1562420Y2030370D01*
X1566134Y2037319D01*
X1568421Y2044859D01*
X1569193Y2052700D01*
X1568421Y2060541D01*
X1566134Y2068081D01*
X1562420Y2075030D01*
X1557421Y2081121D01*
X1551330Y2086120D01*
X1544381Y2089834D01*
X1536841Y2092121D01*
X1529000Y2092893D01*
X1528168Y2092811D01*
X1527854Y2092920D01*
X1518372Y2103477D01*
X1518193Y2104203D01*
X1519282Y2108740D01*
X1519375Y2109913D01*
X1525140Y2115637D01*
X1532889Y2119756D01*
X1537454Y2119307D01*
X1545295Y2120079D01*
X1547435Y2120728D01*
X1762219Y1963364D01*
D02*
G37*
G36*
X2669002Y1094437D02*
X2669985Y1092785D01*
X2671849Y1080817D01*
X2668533Y1078096D01*
X2662910Y1071244D01*
X2658731Y1063427D01*
X2656158Y1054944D01*
X2655289Y1046123D01*
X2655444Y1044548D01*
X2644071Y1035023D01*
X2229134Y1177357D01*
X2232553Y1189588D01*
X2669002Y1094437D01*
D02*
G37*
G36*
X1059524Y1538951D02*
X1302755Y1439210D01*
X1304320Y1438797D01*
X1306369Y1437949D01*
X1307133Y1437572D01*
X1979467Y1209330D01*
X1980034Y1209217D01*
X1980486Y1208992D01*
X2653327Y978190D01*
X2651207Y965491D01*
X2341574Y965607D01*
X2341574Y965609D01*
X2341572D01*
X2341557Y965611D01*
X2341541Y965609D01*
X2341458Y965608D01*
X2341428Y965604D01*
X2336423Y965410D01*
X2336390Y965407D01*
X2336378Y965406D01*
X2329192Y964882D01*
X2329175Y964881D01*
X2328951Y964865D01*
X2230227Y957673D01*
X2228629Y958521D01*
X2220875Y969725D01*
X2221310Y971159D01*
X2222082Y979000D01*
X2221310Y986841D01*
X2219022Y994382D01*
X2215308Y1001330D01*
X2210310Y1007421D01*
X2204219Y1012420D01*
X2197270Y1016134D01*
X2189730Y1018421D01*
X2181888Y1019194D01*
X2174047Y1018421D01*
X2166507Y1016134D01*
X2159558Y1012420D01*
X2153467Y1007421D01*
X2148469Y1001330D01*
X2144754Y994382D01*
X2142467Y986841D01*
X2141695Y979000D01*
X2142046Y975437D01*
X2134757Y966875D01*
X2131110Y964849D01*
X2078267Y976537D01*
X2080268Y989101D01*
X2083181Y988814D01*
X2092002Y989683D01*
X2100485Y992256D01*
X2108302Y996434D01*
X2115155Y1002058D01*
X2120778Y1008910D01*
X2124956Y1016727D01*
X2127172Y1024031D01*
X2039189D01*
X2041405Y1016727D01*
X2045584Y1008910D01*
X2051207Y1002058D01*
X2058059Y996434D01*
X2065876Y992256D01*
X2062317Y980064D01*
X1972315Y999971D01*
X1935812Y1015375D01*
X1928291Y1018550D01*
X1932268Y1030655D01*
X1942839Y1028118D01*
X1955000Y1027161D01*
X1967161Y1028118D01*
X1979023Y1030965D01*
X1990293Y1035634D01*
X2000694Y1042007D01*
X2009970Y1049930D01*
X2017893Y1059206D01*
X2024266Y1069607D01*
X2028934Y1080877D01*
X2031782Y1092739D01*
X2032739Y1104900D01*
X2031782Y1117061D01*
X2028934Y1128923D01*
X2024266Y1140193D01*
X2017893Y1150594D01*
X2009970Y1159870D01*
X2000694Y1167793D01*
X1990293Y1174166D01*
X1979023Y1178835D01*
X1967161Y1181682D01*
X1955000Y1182639D01*
X1942839Y1181682D01*
X1930977Y1178835D01*
X1919707Y1174166D01*
X1909306Y1167793D01*
X1900030Y1159870D01*
X1892107Y1150594D01*
X1885734Y1140193D01*
X1881065Y1128923D01*
X1878217Y1117061D01*
X1877260Y1104900D01*
X1878217Y1092739D01*
X1881065Y1080877D01*
X1885734Y1069607D01*
X1892107Y1059206D01*
X1900030Y1049930D01*
X1909306Y1042007D01*
X1919707Y1035634D01*
X1921872Y1020990D01*
X1921808Y1020881D01*
X1916251Y1022169D01*
X1524096Y1113078D01*
X1523782Y1117061D01*
X1520934Y1128923D01*
X1516266Y1140193D01*
X1509893Y1150594D01*
X1501970Y1159870D01*
X1492694Y1167793D01*
X1482293Y1174166D01*
X1471023Y1178835D01*
X1459161Y1181682D01*
X1447000Y1182639D01*
X1434839Y1181682D01*
X1422977Y1178835D01*
X1411707Y1174166D01*
X1401306Y1167793D01*
X1392030Y1159870D01*
X1384107Y1150594D01*
X1377734Y1140193D01*
X1373065Y1128923D01*
X1370217Y1117061D01*
X1369930Y1113412D01*
X1356821Y1108712D01*
X1047437Y1429696D01*
X1047128Y1433573D01*
X1050484Y1444835D01*
X1054223Y1446833D01*
X1061075Y1452457D01*
X1066698Y1459309D01*
X1070877Y1467126D01*
X1073092Y1474430D01*
X1029101D01*
Y1484430D01*
X1019101D01*
Y1528422D01*
X1011797Y1526206D01*
X1003979Y1522027D01*
X1002583Y1520881D01*
X987954Y1524133D01*
X983440Y1536862D01*
X986298Y1542207D01*
X988585Y1549748D01*
X989017Y1554136D01*
X996534Y1560579D01*
X1001616Y1562696D01*
X1059524Y1538951D01*
D02*
G37*
G36*
X1858415Y983476D02*
X1858898Y982959D01*
X1862781Y969427D01*
X1861880Y968330D01*
X1858166Y961381D01*
X1855879Y953841D01*
X1855107Y946000D01*
X1855879Y938159D01*
X1858166Y930618D01*
X1861880Y923669D01*
X1866879Y917579D01*
X1872970Y912580D01*
X1879919Y908866D01*
X1887459Y906579D01*
X1895300Y905806D01*
X1903141Y906579D01*
X1910681Y908866D01*
X1917630Y912580D01*
X1923721Y917579D01*
X1928720Y923669D01*
X1932434Y930618D01*
X1934721Y938159D01*
X1935493Y946000D01*
X1935428Y946664D01*
X1947134Y955509D01*
X1954711Y952311D01*
X1956932Y951700D01*
X1959097Y950914D01*
X2165399Y905284D01*
X2165432Y905281D01*
X2165464Y905269D01*
X2165613Y905237D01*
X2166043Y905201D01*
X2167365Y905027D01*
X2170070Y904377D01*
X2181889Y903447D01*
X2185793Y903755D01*
X2187377Y903662D01*
X2296678Y911625D01*
X2300250Y908575D01*
X2305458Y899531D01*
X2304279Y895641D01*
X2303506Y887800D01*
X2304279Y879959D01*
X2306566Y872419D01*
X2307995Y869745D01*
X2306578Y861134D01*
X2305541Y858226D01*
X2302993Y854331D01*
X2297878Y851597D01*
X2291026Y845974D01*
X2289229Y843784D01*
X2282214Y842814D01*
X2275930Y843417D01*
X2273812Y844377D01*
X2270821Y848021D01*
X2264730Y853020D01*
X2257781Y856734D01*
X2250241Y859021D01*
X2242400Y859794D01*
X2234559Y859021D01*
X2227018Y856734D01*
X2220069Y853020D01*
X2213979Y848021D01*
X2208980Y841930D01*
X2205266Y834982D01*
X2202979Y827441D01*
X2202206Y819600D01*
X2202979Y811759D01*
X2205266Y804219D01*
X2208980Y797270D01*
X2212490Y792993D01*
X2210541Y786525D01*
X2206423Y780950D01*
X2186370Y783450D01*
X1995908Y809345D01*
X1993887Y809884D01*
X1884484Y854421D01*
X1882408Y854964D01*
X1880391Y855697D01*
X1845066Y863503D01*
X1844202Y863861D01*
X1844202Y863861D01*
X1844138Y863829D01*
X1486771Y1023742D01*
X1485670Y1026666D01*
X1486090Y1037961D01*
X1492694Y1042007D01*
X1501970Y1049930D01*
X1509893Y1059206D01*
X1512610Y1063640D01*
X1858415Y983476D01*
D02*
G37*
G36*
X2725769Y785119D02*
X2724602Y772399D01*
X2356351Y766727D01*
X2351721Y779357D01*
X2354974Y782026D01*
X2360597Y788878D01*
X2364776Y796696D01*
X2366991Y804000D01*
X2323000D01*
Y824000D01*
X2366991D01*
X2364776Y831304D01*
X2361180Y838031D01*
X2360855Y839988D01*
X2364969Y853813D01*
X2366030Y854381D01*
X2369012Y856828D01*
X2725769Y785119D01*
D02*
G37*
G36*
X-16743Y3851838D02*
X-18124Y3850156D01*
X-23473Y3840149D01*
X-26766Y3829292D01*
X-26894Y3828000D01*
X60000D01*
Y3808000D01*
X-26894D01*
X-26766Y3806709D01*
X-23473Y3795851D01*
X-18124Y3785845D01*
X-10926Y3777074D01*
X-3510Y3770988D01*
X-3838Y3766171D01*
X-7417Y3758288D01*
X-61086D01*
X-66939Y3757124D01*
X-71900Y3753808D01*
X-75216Y3748847D01*
X-76380Y3742994D01*
Y3338251D01*
X-89080Y3330846D01*
X-89619Y3331134D01*
X-97159Y3333421D01*
X-105000Y3334193D01*
X-112841Y3333421D01*
X-120382Y3331134D01*
X-127330Y3327420D01*
X-133421Y3322421D01*
X-138420Y3316330D01*
X-142134Y3309381D01*
X-144421Y3301841D01*
X-145194Y3294000D01*
X-144421Y3286159D01*
X-142134Y3278619D01*
X-138420Y3271670D01*
X-133421Y3265579D01*
X-127330Y3260580D01*
X-120382Y3256866D01*
X-112841Y3254579D01*
X-105000Y3253807D01*
X-97159Y3254579D01*
X-92633Y3255952D01*
X-82189Y3249133D01*
X-81269Y3248176D01*
X-81219Y3244090D01*
X-93473Y3237522D01*
X-94619Y3238134D01*
X-102159Y3240421D01*
X-110000Y3241193D01*
X-117841Y3240421D01*
X-125382Y3238134D01*
X-132330Y3234419D01*
X-138421Y3229421D01*
X-143420Y3223330D01*
X-147134Y3216381D01*
X-149421Y3208841D01*
X-150194Y3201000D01*
X-149421Y3193159D01*
X-147134Y3185618D01*
X-143420Y3178670D01*
X-138421Y3172579D01*
X-132330Y3167580D01*
X-125382Y3163866D01*
X-117841Y3161579D01*
X-110000Y3160806D01*
X-102159Y3161579D01*
X-94619Y3163866D01*
X-89080Y3166827D01*
X-83941Y3165214D01*
X-76380Y3160416D01*
Y2994994D01*
X-75216Y2989141D01*
X-71900Y2984180D01*
X-66939Y2980864D01*
X-61086Y2979700D01*
X-7440D01*
X-3866Y2971872D01*
X-3525Y2967000D01*
X-10926Y2960926D01*
X-18124Y2952156D01*
X-23473Y2942149D01*
X-26766Y2931292D01*
X-26894Y2930000D01*
X146894D01*
X146767Y2931292D01*
X143473Y2942149D01*
X138124Y2952156D01*
X130926Y2960926D01*
X123525Y2967000D01*
X123866Y2971872D01*
X127440Y2979700D01*
X179463D01*
Y2894046D01*
X180327Y2887477D01*
X182862Y2881357D01*
X186895Y2876101D01*
X227352Y2835645D01*
X232608Y2831612D01*
X238728Y2829077D01*
X245296Y2828212D01*
X393535D01*
X396033Y2825168D01*
X402124Y2820170D01*
X409073Y2816455D01*
X416613Y2814168D01*
X424455Y2813396D01*
X432195Y2814158D01*
X605333Y2670260D01*
X599492Y2658602D01*
X596753Y2659259D01*
X584200Y2660247D01*
X571647Y2659259D01*
X559402Y2656320D01*
X547769Y2651501D01*
X537032Y2644921D01*
X527457Y2636743D01*
X519279Y2627168D01*
X512699Y2616431D01*
X507880Y2604798D01*
X504941Y2592553D01*
X503953Y2580000D01*
X504941Y2567446D01*
X507880Y2555202D01*
X512699Y2543568D01*
X519279Y2532832D01*
X527457Y2523257D01*
X537032Y2515079D01*
X547769Y2508499D01*
X559402Y2503680D01*
X571647Y2500741D01*
X584200Y2499753D01*
X596753Y2500741D01*
X608998Y2503680D01*
X614731Y2506055D01*
X977847Y2231723D01*
X978025Y2231615D01*
X979166Y2230640D01*
X985050Y2227034D01*
X985711Y2226491D01*
X987465Y2225554D01*
X991374Y2223159D01*
X1004601Y2217680D01*
X1018523Y2214338D01*
X1025277Y2213806D01*
X1027545Y2213451D01*
X1387892Y2192882D01*
X1392261Y2179912D01*
X1387530Y2175871D01*
X1379607Y2166595D01*
X1373234Y2156194D01*
X1368565Y2144924D01*
X1365718Y2133062D01*
X1364761Y2120901D01*
X1365718Y2108740D01*
X1368565Y2096878D01*
X1373234Y2085608D01*
X1379607Y2075207D01*
X1385375Y2068453D01*
X1338130Y1980868D01*
X1323286Y1980098D01*
X1322706Y1980805D01*
X1321055Y1982455D01*
X1319697Y1983570D01*
X1314797Y1988387D01*
X1308143Y1992752D01*
X1139437Y2081090D01*
X1144269Y2092896D01*
X1149500Y2091309D01*
Y2125300D01*
X1115509D01*
X1117724Y2117996D01*
X1121903Y2110178D01*
X1127526Y2103326D01*
X1133128Y2098729D01*
X1126080Y2088084D01*
X664135Y2329968D01*
X663459Y2338553D01*
X660520Y2350798D01*
X655701Y2362431D01*
X649121Y2373168D01*
X640943Y2382743D01*
X631368Y2390921D01*
X620631Y2397501D01*
X608998Y2402320D01*
X596753Y2405259D01*
X584200Y2406247D01*
X571647Y2405259D01*
X559402Y2402320D01*
X547769Y2397501D01*
X537032Y2390921D01*
X527457Y2382743D01*
X519279Y2373168D01*
X512699Y2362431D01*
X507880Y2350798D01*
X504941Y2338553D01*
X503953Y2326000D01*
X504941Y2313446D01*
X507880Y2301202D01*
X512699Y2289568D01*
X519279Y2278832D01*
X527457Y2269257D01*
X537032Y2261079D01*
X547769Y2254499D01*
X559402Y2249680D01*
X571647Y2246741D01*
X584200Y2245753D01*
X596753Y2246741D01*
X608998Y2249680D01*
X620631Y2254499D01*
X626439Y2258058D01*
X1232943Y1940480D01*
X1229788Y1928178D01*
X690373Y1938813D01*
X687371Y1942471D01*
X681280Y1947470D01*
X674331Y1951184D01*
X666791Y1953471D01*
X658950Y1954243D01*
X651109Y1953471D01*
X643568Y1951184D01*
X636620Y1947470D01*
X626986Y1950895D01*
X623416Y1953063D01*
X621434Y1959596D01*
X617720Y1966545D01*
X612721Y1972636D01*
X610693Y1974300D01*
X615238Y1987000D01*
X669200D01*
Y2062000D01*
X499200D01*
Y1999336D01*
X486500Y1993384D01*
X445847Y2027227D01*
X447235Y2030577D01*
X450082Y2042439D01*
X451039Y2054600D01*
X450082Y2066761D01*
X447235Y2078623D01*
X442566Y2089893D01*
X436193Y2100294D01*
X428270Y2109570D01*
X418994Y2117493D01*
X408593Y2123866D01*
X397323Y2128534D01*
X385461Y2131382D01*
X373300Y2132339D01*
X361139Y2131382D01*
X349277Y2128534D01*
X338007Y2123866D01*
X327606Y2117493D01*
X318330Y2109570D01*
X310407Y2100294D01*
X304034Y2089893D01*
X299365Y2078623D01*
X296518Y2066761D01*
X295560Y2054600D01*
X296518Y2042439D01*
X299365Y2030577D01*
X304034Y2019307D01*
X307438Y2013751D01*
X298692Y2003717D01*
X196556Y2048461D01*
X197039Y2054600D01*
X196082Y2066761D01*
X193235Y2078623D01*
X188566Y2089893D01*
X182193Y2100294D01*
X174270Y2109570D01*
X164994Y2117493D01*
X154593Y2123866D01*
X143323Y2128534D01*
X131461Y2131382D01*
X119300Y2132339D01*
X107139Y2131382D01*
X95277Y2128534D01*
X84007Y2123866D01*
X73606Y2117493D01*
X64330Y2109570D01*
X56407Y2100294D01*
X50034Y2089893D01*
X45365Y2078623D01*
X42518Y2066761D01*
X41560Y2054600D01*
X42518Y2042439D01*
X45365Y2030577D01*
X50034Y2019307D01*
X56407Y2008906D01*
X64330Y1999630D01*
X73606Y1991707D01*
X84007Y1985334D01*
X95277Y1980665D01*
X107139Y1977817D01*
X119300Y1976860D01*
X131461Y1977817D01*
X143323Y1980665D01*
X154593Y1985334D01*
X164994Y1991707D01*
X174270Y1999630D01*
X176249Y2001946D01*
X539907Y1842634D01*
X540453Y1842476D01*
X541869Y1841777D01*
X542586Y1841534D01*
X542767Y1841432D01*
X617417Y1811267D01*
X617922Y1811136D01*
X630253Y1806951D01*
X644478Y1804121D01*
X646458Y1803992D01*
X647163Y1803821D01*
X764927Y1791228D01*
X766427Y1791264D01*
X767847Y1791015D01*
X1056987Y1778688D01*
X1062288Y1777118D01*
X1068911Y1776944D01*
X1229464Y1793809D01*
X1238595Y1782633D01*
X1283240D01*
Y1762633D01*
X1239249D01*
X1239314Y1762418D01*
X1230593Y1750080D01*
X1202717Y1751274D01*
X1056440Y1757537D01*
X1056440Y1757538D01*
X1056425Y1757539D01*
X1054993Y1757599D01*
X1046067Y1757982D01*
X1043909Y1758071D01*
X1043909Y1758035D01*
X843646Y1759429D01*
X843645Y1759429D01*
X830981Y1759590D01*
Y1759516D01*
X814487Y1759515D01*
X814412Y1759590D01*
Y1759590D01*
X813654Y1759515D01*
X799914D01*
X793388Y1758656D01*
X787307Y1756137D01*
X782084Y1752130D01*
X173590Y1143635D01*
X169582Y1138413D01*
X167063Y1132331D01*
X166204Y1125805D01*
Y932390D01*
X162999Y929759D01*
X158000Y923669D01*
X154286Y916720D01*
X151999Y909180D01*
X151226Y901338D01*
X151999Y893497D01*
X154286Y885957D01*
X158000Y879008D01*
X162999Y872917D01*
X169089Y867919D01*
X176038Y864204D01*
X183578Y861917D01*
X191420Y861145D01*
X199261Y861917D01*
X206801Y864204D01*
X213750Y867919D01*
X219841Y872917D01*
X224839Y879008D01*
X228554Y885957D01*
X230841Y893497D01*
X231613Y901338D01*
X230841Y909180D01*
X228554Y916720D01*
X224839Y923669D01*
X219841Y929759D01*
X216635Y932390D01*
Y1115361D01*
X301940Y1200666D01*
X313674Y1195806D01*
Y1054378D01*
X314533Y1047852D01*
X314784Y1047245D01*
Y811052D01*
X311579Y808421D01*
X306581Y802330D01*
X302866Y795381D01*
X300579Y787841D01*
X299807Y780000D01*
X300579Y772159D01*
X302866Y764618D01*
X306581Y757670D01*
X311579Y751579D01*
X317670Y746580D01*
X324619Y742866D01*
X332159Y740579D01*
X340000Y739806D01*
X347841Y740579D01*
X355382Y742866D01*
X362330Y746580D01*
X368421Y751579D01*
X373420Y757670D01*
X377134Y764618D01*
X379421Y772159D01*
X380194Y780000D01*
X379421Y787841D01*
X377134Y795381D01*
X373420Y802330D01*
X368421Y808421D01*
X365216Y811052D01*
Y1054378D01*
X364356Y1060904D01*
X364105Y1061511D01*
Y1213333D01*
X781499Y1630727D01*
X787031Y1630719D01*
X796401Y1627669D01*
X798491Y1623758D01*
X803490Y1617668D01*
X809581Y1612669D01*
X816529Y1608955D01*
X824070Y1606668D01*
X831911Y1605895D01*
X839752Y1606668D01*
X847292Y1608955D01*
X854241Y1612669D01*
X854579Y1612946D01*
X912678Y1595813D01*
X913938Y1594281D01*
X916900Y1581328D01*
X915744Y1579919D01*
X912030Y1572970D01*
X909743Y1565430D01*
X908970Y1557589D01*
X909743Y1549748D01*
X912030Y1542207D01*
X915744Y1535259D01*
X920743Y1529168D01*
X926833Y1524169D01*
X933782Y1520455D01*
X935603Y1519903D01*
X943611Y1497324D01*
X939756Y1490438D01*
X934506Y1484999D01*
X928998Y1484457D01*
X921458Y1482170D01*
X914509Y1478455D01*
X908419Y1473457D01*
X903420Y1467366D01*
X899706Y1460417D01*
X897419Y1452877D01*
X897409Y1452780D01*
X895261Y1450613D01*
X884078Y1446046D01*
X881482Y1447434D01*
X873941Y1449721D01*
X866100Y1450493D01*
X858259Y1449721D01*
X850719Y1447434D01*
X843770Y1443719D01*
X837679Y1438721D01*
X832681Y1432630D01*
X828966Y1425681D01*
X826679Y1418141D01*
X825907Y1410300D01*
X826679Y1402459D01*
X828966Y1394918D01*
X832681Y1387970D01*
X837679Y1381879D01*
X843770Y1376880D01*
X850719Y1373166D01*
X858259Y1370879D01*
X866100Y1370106D01*
X873709Y1370856D01*
X1076200Y1201528D01*
X1074002Y1186811D01*
X1073270Y1186420D01*
X1067179Y1181421D01*
X1062181Y1175330D01*
X1058466Y1168381D01*
X1056179Y1160841D01*
X1055407Y1153000D01*
X1056179Y1145159D01*
X1058466Y1137619D01*
X1062181Y1130670D01*
X1067179Y1124579D01*
X1073270Y1119580D01*
X1080219Y1115866D01*
X1087759Y1113579D01*
X1095600Y1112807D01*
X1103442Y1113579D01*
X1110982Y1115866D01*
X1112469Y1116661D01*
X1112791Y1116618D01*
X1130211Y1099950D01*
X1130212Y1099949D01*
X1195345Y1037626D01*
X1195533Y1034549D01*
X1191649Y1023585D01*
X1188579Y1022654D01*
X1181630Y1018940D01*
X1175539Y1013941D01*
X1170540Y1007850D01*
X1166826Y1000901D01*
X1164539Y993361D01*
X1163767Y985520D01*
X1164539Y977679D01*
X1166826Y970139D01*
X1170540Y963190D01*
X1175539Y957099D01*
X1181630Y952100D01*
X1188579Y948386D01*
X1196119Y946099D01*
X1203960Y945327D01*
X1211801Y946099D01*
X1219341Y948386D01*
X1226290Y952100D01*
X1232381Y957099D01*
X1237380Y963190D01*
X1241094Y970139D01*
X1242537Y974894D01*
X1250368Y978555D01*
X1256302Y979300D01*
X1287906Y949059D01*
X1287908Y949058D01*
X1360974Y879145D01*
X1361584Y878698D01*
X1363540Y877093D01*
X1364741Y875827D01*
X1383328Y860777D01*
X1754347Y560361D01*
X1754348Y560360D01*
X1839105Y491732D01*
X1839865Y484008D01*
X1842152Y476468D01*
X1845867Y469519D01*
X1850865Y463428D01*
X1856956Y458430D01*
X1863905Y454715D01*
X1871445Y452428D01*
X1879286Y451656D01*
X1887128Y452428D01*
X1894668Y454715D01*
X1901617Y458430D01*
X1907707Y463428D01*
X1912706Y469519D01*
X1916420Y476468D01*
X1918707Y484008D01*
X1919480Y491849D01*
X1918707Y499690D01*
X1916420Y507231D01*
X1914631Y510578D01*
X1923130Y520804D01*
X1929427Y518195D01*
X1942054Y515164D01*
X1945000Y514932D01*
Y596900D01*
X1955000D01*
Y606900D01*
X2036968D01*
X2036736Y609846D01*
X2033705Y622473D01*
X2028735Y634470D01*
X2027435Y636591D01*
X2035444Y647829D01*
X2152665Y621949D01*
X2154252Y621812D01*
X2155804Y621461D01*
X2972543Y546740D01*
X2972581Y546669D01*
X2977579Y540579D01*
X2983670Y535580D01*
X2990619Y531866D01*
X2998159Y529579D01*
X3006000Y528806D01*
X3013841Y529579D01*
X3021382Y531866D01*
X3028330Y535580D01*
X3034421Y540579D01*
X3039420Y546669D01*
X3043134Y553618D01*
X3045421Y561159D01*
X3046194Y569000D01*
X3045421Y576841D01*
X3043134Y584381D01*
X3039420Y591330D01*
X3034421Y597421D01*
X3028330Y602419D01*
X3021382Y606134D01*
X3013841Y608421D01*
X3006000Y609193D01*
X2998159Y608421D01*
X2990619Y606134D01*
X2983670Y602419D01*
X2977579Y597421D01*
X2977197Y596956D01*
X2656887Y626260D01*
X2650584Y639590D01*
X2651134Y640618D01*
X2653421Y648159D01*
X2654194Y656000D01*
X2653421Y663841D01*
X2652727Y666131D01*
X2659578Y676863D01*
X2661825Y678321D01*
X2758019Y672703D01*
X2758756Y672756D01*
X2759490Y672660D01*
X2800910D01*
X2801294Y672710D01*
X2801678Y672672D01*
X2972688Y677883D01*
X2974579Y675579D01*
X2980670Y670581D01*
X2987619Y666866D01*
X2995159Y664579D01*
X3003000Y663807D01*
X3010841Y664579D01*
X3018382Y666866D01*
X3025330Y670581D01*
X3031421Y675579D01*
X3036420Y681670D01*
X3036997Y682750D01*
X3051670Y686038D01*
X3207823Y529885D01*
Y301319D01*
X3204779Y298821D01*
X3199780Y292730D01*
X3196066Y285781D01*
X3193779Y278241D01*
X3193007Y270400D01*
X3193779Y262559D01*
X3196066Y255019D01*
X3199780Y248070D01*
X3204779Y241979D01*
X3210870Y236980D01*
X3217819Y233266D01*
X3225359Y230979D01*
X3233200Y230207D01*
X3241041Y230979D01*
X3248582Y233266D01*
X3255530Y236980D01*
X3261621Y241979D01*
X3266620Y248070D01*
X3270334Y255019D01*
X3272621Y262559D01*
X3273394Y270400D01*
X3272621Y278241D01*
X3270334Y285781D01*
X3266620Y292730D01*
X3261621Y298821D01*
X3258577Y301319D01*
Y540397D01*
X3257713Y546965D01*
X3255177Y553086D01*
X3251144Y558341D01*
X3068946Y740540D01*
X3064124Y748409D01*
X3056424Y757424D01*
X3051472Y761654D01*
X3047409Y765124D01*
X3041510Y768940D01*
X3041485Y768960D01*
X3033162Y775625D01*
X3033771Y788281D01*
X3034330Y788580D01*
X3040421Y793579D01*
X3045420Y799669D01*
X3049134Y806618D01*
X3051421Y814159D01*
X3052194Y822000D01*
X3051421Y829841D01*
X3049134Y837381D01*
X3045420Y844330D01*
X3040421Y850421D01*
X3034330Y855419D01*
X3027382Y859134D01*
X3019841Y861421D01*
X3012000Y862193D01*
X3004159Y861421D01*
X2996619Y859134D01*
X2989670Y855419D01*
X2983579Y850421D01*
X2978581Y844330D01*
X2974866Y837381D01*
X2972579Y829841D01*
X2971807Y822000D01*
X2972579Y814159D01*
X2974866Y806618D01*
X2978581Y799669D01*
X2983579Y793579D01*
X2986810Y790927D01*
X2985562Y781472D01*
X2983398Y777727D01*
X2960294Y774954D01*
X2950437Y786141D01*
X2950461Y786566D01*
X2951193Y794000D01*
X2950421Y801841D01*
X2948134Y809381D01*
X2944420Y816330D01*
X2939421Y822421D01*
X2933330Y827419D01*
X2926381Y831134D01*
X2918841Y833421D01*
X2911000Y834193D01*
X2903159Y833421D01*
X2895619Y831134D01*
X2888670Y827419D01*
X2882579Y822421D01*
X2877580Y816330D01*
X2873866Y809381D01*
X2871579Y801841D01*
X2871487Y800910D01*
X2858789Y793195D01*
X2815022Y815932D01*
X2814887Y815981D01*
X2814500Y816218D01*
X2803547Y820755D01*
X2799823Y821840D01*
X2799799Y821850D01*
X2799769Y821854D01*
X2799081Y822031D01*
X2796197Y822714D01*
X2796136Y822729D01*
X2796023Y822741D01*
X2795287Y822915D01*
X2787614Y824457D01*
X2401182Y902131D01*
X2402449Y914830D01*
X2767527Y914693D01*
X2767531Y914694D01*
X2767536Y914693D01*
X2805137D01*
X2806993Y914937D01*
X2808868Y914969D01*
X2810265Y915368D01*
X2811705Y915558D01*
X2813437Y916275D01*
X2815237Y916790D01*
X2823000Y920158D01*
X2827819Y920537D01*
X2828098Y920604D01*
X2828148Y920605D01*
X3014533Y950976D01*
X3018670Y947581D01*
X3025619Y943866D01*
X3033159Y941579D01*
X3033371Y941558D01*
X3036697Y938343D01*
X3041605Y929098D01*
X3041643Y928350D01*
X3040579Y924841D01*
X3039806Y917000D01*
X3040579Y909159D01*
X3042866Y901618D01*
X3046580Y894670D01*
X3051579Y888579D01*
X3057670Y883580D01*
X3064618Y879866D01*
X3072159Y877579D01*
X3080000Y876806D01*
X3087841Y877579D01*
X3095381Y879866D01*
X3102330Y883580D01*
X3108421Y888579D01*
X3113419Y894670D01*
X3117134Y901618D01*
X3119421Y909159D01*
X3120193Y917000D01*
X3119421Y924841D01*
X3117134Y932381D01*
X3113419Y939330D01*
X3108421Y945421D01*
X3102330Y950419D01*
X3095381Y954134D01*
X3087841Y956421D01*
X3087629Y956442D01*
X3084303Y959657D01*
X3079395Y968902D01*
X3079357Y969650D01*
X3080421Y973159D01*
X3081193Y981000D01*
X3080421Y988841D01*
X3078134Y996382D01*
X3074420Y1003330D01*
X3069421Y1009421D01*
X3063330Y1014420D01*
X3056381Y1018134D01*
X3048841Y1020421D01*
X3041000Y1021194D01*
X3033159Y1020421D01*
X3025619Y1018134D01*
X3018670Y1014420D01*
X3012579Y1009421D01*
X3007580Y1003330D01*
X3006372Y1001070D01*
X2861240Y977421D01*
X2852153Y986126D01*
X2851090Y988635D01*
X2851728Y995114D01*
X2850956Y1002955D01*
X2848669Y1010495D01*
X2844954Y1017444D01*
X2839956Y1023535D01*
X2833865Y1028533D01*
X2826916Y1032248D01*
X2819376Y1034535D01*
X2815405Y1034926D01*
X2809049Y1040002D01*
X2805113Y1047436D01*
X2805493Y1051300D01*
X2804721Y1059141D01*
X2802434Y1066681D01*
X2798720Y1073630D01*
X2793721Y1079721D01*
X2787630Y1084719D01*
X2780682Y1088434D01*
X2773141Y1090721D01*
X2771898Y1090843D01*
X2761350Y1109487D01*
X2761283Y1109576D01*
X2761241Y1109678D01*
X2759302Y1112205D01*
X2757388Y1114744D01*
X2757301Y1114812D01*
X2757234Y1114900D01*
X2747226Y1124908D01*
X2746753Y1125271D01*
X2746366Y1125729D01*
X2744145Y1127272D01*
X2742004Y1128915D01*
X2741451Y1129144D01*
X2740961Y1129485D01*
X2738419Y1130400D01*
X2735923Y1131434D01*
X2735330Y1131512D01*
X2734767Y1131715D01*
X2055170Y1279876D01*
X2051716Y1285910D01*
X2049701Y1294067D01*
X2052134Y1298618D01*
X2054421Y1306159D01*
X2055194Y1314000D01*
X2054421Y1321841D01*
X2052134Y1329381D01*
X2048420Y1336330D01*
X2043421Y1342421D01*
X2037330Y1347419D01*
X2030382Y1351134D01*
X2022841Y1353421D01*
X2015000Y1354193D01*
X2007159Y1353421D01*
X1999619Y1351134D01*
X1992670Y1347419D01*
X1986579Y1342421D01*
X1981580Y1336330D01*
X1977866Y1329381D01*
X1975579Y1321841D01*
X1975246Y1318460D01*
X1966162Y1311398D01*
X1962412Y1310270D01*
X1474802Y1527208D01*
X1474756Y1527354D01*
X1475475Y1540809D01*
X1482293Y1543634D01*
X1492694Y1550007D01*
X1501970Y1557930D01*
X1509893Y1567206D01*
X1516266Y1577607D01*
X1520934Y1588877D01*
X1523782Y1600739D01*
X1524739Y1612900D01*
X1523880Y1623823D01*
X1524445Y1625853D01*
X1534006Y1636880D01*
X1535281Y1637006D01*
X1542821Y1639293D01*
X1549770Y1643007D01*
X1555861Y1648006D01*
X1560859Y1654097D01*
X1564574Y1661045D01*
X1566861Y1668586D01*
X1567633Y1676427D01*
X1566861Y1684268D01*
X1564574Y1691808D01*
X1560859Y1698757D01*
X1560617Y1699053D01*
X1566556Y1711836D01*
X1750142Y1714357D01*
X1752425Y1711576D01*
X1758515Y1706577D01*
X1765464Y1702863D01*
X1773005Y1700576D01*
X1780846Y1699804D01*
X1788687Y1700576D01*
X1796227Y1702863D01*
X1803176Y1706577D01*
X1809267Y1711576D01*
X1814265Y1717667D01*
X1817980Y1724616D01*
X1820267Y1732156D01*
X1820453Y1734044D01*
X1831445Y1741429D01*
X1833630Y1741730D01*
X1917746Y1700513D01*
X1917430Y1686635D01*
X1906358Y1679850D01*
X1896483Y1671417D01*
X1888050Y1661542D01*
X1881265Y1650470D01*
X1876295Y1638473D01*
X1873264Y1625846D01*
X1873032Y1622900D01*
X1955001D01*
Y1612901D01*
X1965001D01*
Y1530932D01*
X1967946Y1531164D01*
X1980573Y1534195D01*
X1992570Y1539165D01*
X2003642Y1545950D01*
X2013516Y1554383D01*
X2021950Y1564258D01*
X2028735Y1575330D01*
X2033705Y1587327D01*
X2036736Y1599954D01*
X2037755Y1612900D01*
X2037488Y1616293D01*
X2049674Y1623321D01*
X2232136Y1497658D01*
X2232579Y1493159D01*
X2234866Y1485619D01*
X2238580Y1478670D01*
X2243579Y1472579D01*
X2249670Y1467581D01*
X2256619Y1463866D01*
X2264159Y1461579D01*
X2272000Y1460807D01*
X2279841Y1461579D01*
X2281475Y1462075D01*
X2423978Y1354637D01*
X2424332Y1354437D01*
X2425044Y1353829D01*
X2435152Y1347635D01*
X2441685Y1344929D01*
X2443234Y1344112D01*
X2650625Y1267356D01*
X2650898Y1267294D01*
X2651148Y1267169D01*
X2685752Y1255216D01*
X2686212Y1253697D01*
X2689927Y1246748D01*
X2694925Y1240658D01*
X2701016Y1235659D01*
X2707965Y1231945D01*
X2715505Y1229658D01*
X2723346Y1228885D01*
X2731188Y1229658D01*
X2738728Y1231945D01*
X2745677Y1235659D01*
X2751767Y1240658D01*
X2756766Y1246748D01*
X2760480Y1253697D01*
X2762767Y1261238D01*
X2763540Y1269079D01*
X2762767Y1276920D01*
X2760480Y1284460D01*
X2756766Y1291409D01*
X2751767Y1297500D01*
X2745677Y1302498D01*
X2738728Y1306213D01*
X2731188Y1308500D01*
X2723346Y1309272D01*
X2715505Y1308500D01*
X2707965Y1306213D01*
X2702314Y1303192D01*
X2667979Y1315052D01*
X2504513Y1375551D01*
X2502817Y1378356D01*
X2501033Y1390381D01*
X2502872Y1392622D01*
X2506587Y1399571D01*
X2508874Y1407111D01*
X2509646Y1414953D01*
X2508874Y1422794D01*
X2508748Y1423207D01*
X2519229Y1432407D01*
X2616549Y1388421D01*
X2618066Y1383419D01*
X2621780Y1376470D01*
X2626779Y1370379D01*
X2632870Y1365381D01*
X2639818Y1361666D01*
X2647359Y1359379D01*
X2655200Y1358607D01*
X2663041Y1359379D01*
X2670581Y1361666D01*
X2677530Y1365381D01*
X2683621Y1370379D01*
X2688619Y1376470D01*
X2691522Y1381900D01*
X2696095Y1384010D01*
X2706270Y1385611D01*
X3214330Y919978D01*
X3254783Y879525D01*
Y791919D01*
X3251739Y789421D01*
X3246740Y783330D01*
X3243026Y776381D01*
X3240739Y768841D01*
X3239966Y761000D01*
X3240739Y753159D01*
X3243026Y745619D01*
X3246740Y738670D01*
X3251739Y732579D01*
X3257829Y727580D01*
X3264778Y723866D01*
X3272319Y721579D01*
X3280160Y720807D01*
X3288001Y721579D01*
X3295541Y723866D01*
X3297474Y724899D01*
X3309153Y719329D01*
X3310443Y717732D01*
X3326652Y272123D01*
X3324579Y270421D01*
X3319580Y264330D01*
X3315866Y257382D01*
X3313579Y249841D01*
X3312806Y242000D01*
X3313579Y234159D01*
X3315866Y226619D01*
X3319580Y219670D01*
X3324579Y213579D01*
X3330669Y208580D01*
X3337618Y204866D01*
X3345159Y202579D01*
X3353000Y201807D01*
X3360841Y202579D01*
X3368381Y204866D01*
X3375330Y208580D01*
X3381421Y213579D01*
X3386419Y219670D01*
X3390134Y226619D01*
X3392421Y234159D01*
X3393193Y242000D01*
X3392421Y249841D01*
X3390134Y257382D01*
X3386419Y264330D01*
X3381421Y270421D01*
X3377048Y274010D01*
X3354412Y896292D01*
X3353940Y899089D01*
X3353570Y901902D01*
X3353393Y902327D01*
X3353316Y902783D01*
X3352135Y905365D01*
X3351051Y907983D01*
X3350770Y908349D01*
X3350578Y908769D01*
X3348769Y910957D01*
X3347043Y913205D01*
X3320181Y940068D01*
X3319921Y940267D01*
X3319715Y940522D01*
X3196817Y1057245D01*
X3203854Y1068076D01*
X3204888Y1067648D01*
X3219998Y1063295D01*
X3235500Y1060661D01*
X3251200Y1059779D01*
X3266900Y1060661D01*
X3282402Y1063295D01*
X3297512Y1067648D01*
X3312039Y1073666D01*
X3325802Y1081272D01*
X3338626Y1090371D01*
X3350351Y1100849D01*
X3360829Y1112574D01*
X3369928Y1125398D01*
X3377534Y1139161D01*
X3383552Y1153688D01*
X3387905Y1168798D01*
X3390539Y1184300D01*
X3391420Y1200000D01*
X3390539Y1215700D01*
X3387905Y1231202D01*
X3383552Y1246312D01*
X3377534Y1260839D01*
X3369928Y1274602D01*
X3360829Y1287426D01*
X3350351Y1299151D01*
X3338626Y1309629D01*
X3325802Y1318728D01*
X3312039Y1326334D01*
X3297512Y1332352D01*
X3282402Y1336705D01*
X3266900Y1339339D01*
X3251200Y1340220D01*
X3235500Y1339339D01*
X3219998Y1336705D01*
X3204888Y1332352D01*
X3190361Y1326334D01*
X3176598Y1318728D01*
X3163774Y1309629D01*
X3152049Y1299151D01*
X3141571Y1287426D01*
X3132472Y1274602D01*
X3124866Y1260839D01*
X3118848Y1246312D01*
X3114495Y1231202D01*
X3111861Y1215700D01*
X3110980Y1200000D01*
X3111861Y1184300D01*
X3114495Y1168798D01*
X3118848Y1153688D01*
X3122178Y1145648D01*
X3111477Y1138297D01*
X2326269Y1884052D01*
X2310853Y1899467D01*
X2309298Y1900660D01*
X2307878Y1902012D01*
X2157324Y2011776D01*
X2156249Y2012362D01*
X2146107Y2019139D01*
X2131298Y2026441D01*
X2115663Y2031749D01*
X2106717Y2033528D01*
X2106175Y2033753D01*
X2104440Y2033981D01*
X2103417Y2034185D01*
X2102345Y2034502D01*
X2016371Y2048119D01*
X2012575Y2061579D01*
X2013516Y2062383D01*
X2021950Y2072258D01*
X2028735Y2083330D01*
X2033705Y2095327D01*
X2036736Y2107954D01*
X2036968Y2110900D01*
X1955000D01*
Y2120900D01*
X1945000D01*
Y2202868D01*
X1942054Y2202636D01*
X1929427Y2199605D01*
X1917430Y2194635D01*
X1906358Y2187850D01*
X1896483Y2179417D01*
X1888050Y2169542D01*
X1881265Y2158470D01*
X1880243Y2156004D01*
X1866221Y2155337D01*
X1851514Y2183055D01*
X1851251Y2183425D01*
X1851077Y2183845D01*
X1849346Y2186100D01*
X1847696Y2188418D01*
X1847346Y2188707D01*
X1847070Y2189067D01*
X1817780Y2218356D01*
X1817039Y2218925D01*
X1816419Y2219621D01*
X1814439Y2220920D01*
X1812558Y2222364D01*
X1811695Y2222721D01*
X1810915Y2223233D01*
X1616676Y2317033D01*
X1616275Y2317166D01*
X1613990Y2318429D01*
X1595715Y2325999D01*
X1576706Y2331475D01*
X1575138Y2331741D01*
X1574994Y2331793D01*
X1426017Y2364253D01*
X1085191Y2438513D01*
X1050721Y2446024D01*
X1048419Y2450330D01*
X1043421Y2456421D01*
X1037330Y2461420D01*
X1030381Y2465134D01*
X1022841Y2467421D01*
X1015000Y2468193D01*
X1007159Y2467421D01*
X999618Y2465134D01*
X992669Y2461420D01*
X986579Y2456421D01*
X981580Y2450330D01*
X977866Y2443381D01*
X977810Y2443198D01*
X963521Y2438561D01*
X846387Y2535912D01*
X849246Y2550050D01*
X849981Y2550273D01*
X856930Y2553988D01*
X863021Y2558986D01*
X863858Y2560006D01*
X1179477Y2538789D01*
X1180972Y2538884D01*
X1184543Y2538603D01*
X1196362Y2539533D01*
X1207890Y2542301D01*
X1218843Y2546838D01*
X1228952Y2553032D01*
X1230371Y2554244D01*
X1231116Y2554684D01*
X1260747Y2577889D01*
X1261711Y2577596D01*
X1269553Y2576824D01*
X1277394Y2577596D01*
X1284934Y2579883D01*
X1291883Y2583598D01*
X1297974Y2588596D01*
X1302972Y2594687D01*
X1306687Y2601636D01*
X1307364Y2603868D01*
X1319078Y2609037D01*
X1321718Y2609000D01*
X1394263Y2554842D01*
X1394418Y2542077D01*
X1393371Y2539659D01*
X1388346Y2535536D01*
X1383348Y2529445D01*
X1379633Y2522496D01*
X1377346Y2514956D01*
X1376574Y2507115D01*
X1377346Y2499274D01*
X1379633Y2491733D01*
X1383348Y2484784D01*
X1388346Y2478694D01*
X1394437Y2473695D01*
X1401386Y2469981D01*
X1408926Y2467694D01*
X1416767Y2466921D01*
X1424608Y2467694D01*
X1432149Y2469981D01*
X1439097Y2473695D01*
X1444215Y2477895D01*
X1445929Y2478642D01*
X1460281Y2477640D01*
X1460894Y2476894D01*
X1466984Y2471895D01*
X1473933Y2468181D01*
X1481474Y2465894D01*
X1489315Y2465121D01*
X1497156Y2465894D01*
X1504696Y2468181D01*
X1511645Y2471895D01*
X1517736Y2476894D01*
X1522734Y2482984D01*
X1526449Y2489933D01*
X1528736Y2497474D01*
X1529508Y2505315D01*
X1528736Y2513156D01*
X1526449Y2520696D01*
X1522734Y2527645D01*
X1517736Y2533736D01*
X1511645Y2538734D01*
X1504696Y2542449D01*
X1497156Y2544736D01*
X1489315Y2545508D01*
X1485497Y2545132D01*
X1474507Y2556179D01*
X1475064Y2564804D01*
X1476353Y2569248D01*
X1477608Y2570906D01*
X1482331Y2573430D01*
X1488421Y2578429D01*
X1493420Y2584519D01*
X1497134Y2591468D01*
X1499421Y2599009D01*
X1500194Y2606850D01*
X1499421Y2614691D01*
X1497134Y2622231D01*
X1493420Y2629180D01*
X1488421Y2635271D01*
X1482331Y2640269D01*
X1475382Y2643984D01*
X1467841Y2646271D01*
X1460000Y2647043D01*
X1452159Y2646271D01*
X1444619Y2643984D01*
X1437670Y2640269D01*
X1431579Y2635271D01*
X1426581Y2629180D01*
X1422866Y2622231D01*
X1420579Y2614691D01*
X1420551Y2614404D01*
X1407209Y2608515D01*
X1317643Y2675380D01*
X1317642Y2675381D01*
X1314741Y2677547D01*
X1314583Y2677635D01*
X1314453Y2677761D01*
X1301163Y2687584D01*
X847952Y3022582D01*
X625997Y3186643D01*
X625421Y3192492D01*
X623134Y3200032D01*
X619420Y3206981D01*
X614421Y3213072D01*
X608331Y3218070D01*
X601382Y3221785D01*
X593841Y3224072D01*
X586000Y3224844D01*
X578159Y3224072D01*
X570619Y3221785D01*
X563670Y3218070D01*
X560376Y3215367D01*
X550253Y3216236D01*
X545449Y3218311D01*
X508910Y3307607D01*
X508061Y3309093D01*
X506318Y3313300D01*
X500123Y3323409D01*
X492548Y3332278D01*
X492424Y3332424D01*
X492278Y3332549D01*
X490753Y3333851D01*
X490109Y3334621D01*
X482468Y3341642D01*
X482691Y3343906D01*
X481919Y3351747D01*
X479632Y3359287D01*
X475918Y3366236D01*
X470919Y3372327D01*
X464828Y3377325D01*
X457880Y3381040D01*
X458522Y3394116D01*
X459409Y3397042D01*
X460181Y3404883D01*
X459409Y3412724D01*
X457122Y3420265D01*
X453408Y3427214D01*
X448409Y3433304D01*
X442318Y3438303D01*
X435369Y3442017D01*
X427829Y3444304D01*
X425313Y3444552D01*
X417987Y3454792D01*
X417412Y3457585D01*
X426961Y3477861D01*
X432582Y3479566D01*
X439531Y3483281D01*
X445446Y3488135D01*
X555328Y3476304D01*
X558155Y3472883D01*
X561708Y3462843D01*
X559858Y3459382D01*
X557571Y3451841D01*
X556798Y3444000D01*
X557571Y3436159D01*
X559858Y3428619D01*
X563572Y3421670D01*
X568571Y3415579D01*
X570901Y3413667D01*
X570938Y3413610D01*
X572160Y3400715D01*
X571620Y3398584D01*
X571240Y3398009D01*
X566581Y3392331D01*
X562866Y3385382D01*
X560579Y3377841D01*
X559807Y3370000D01*
X560579Y3362159D01*
X562866Y3354619D01*
X566581Y3347670D01*
X571579Y3341579D01*
X572546Y3340786D01*
X573578Y3335677D01*
X572847Y3326870D01*
X572018Y3325201D01*
X569081Y3322790D01*
X564082Y3316699D01*
X560368Y3309751D01*
X558081Y3302210D01*
X557308Y3294369D01*
X558081Y3286528D01*
X560368Y3278988D01*
X564082Y3272039D01*
X569081Y3265948D01*
X575171Y3260950D01*
X582120Y3257235D01*
X589660Y3254948D01*
X597502Y3254176D01*
X605343Y3254948D01*
X612883Y3257235D01*
X619832Y3260950D01*
X625923Y3265948D01*
X630921Y3272039D01*
X634636Y3278988D01*
X636923Y3286528D01*
X637695Y3294369D01*
X637539Y3295953D01*
X649617Y3302899D01*
X720371Y3251838D01*
X714657Y3240300D01*
X712192Y3241047D01*
X704351Y3241820D01*
X696509Y3241047D01*
X688969Y3238760D01*
X682020Y3235046D01*
X675930Y3230047D01*
X670931Y3223957D01*
X667217Y3217008D01*
X664930Y3209468D01*
X664157Y3201626D01*
X664930Y3193785D01*
X667217Y3186245D01*
X670931Y3179296D01*
X675930Y3173205D01*
X682020Y3168207D01*
X688969Y3164492D01*
X696509Y3162205D01*
X704351Y3161433D01*
X712192Y3162205D01*
X719732Y3164492D01*
X726681Y3168207D01*
X732772Y3173205D01*
X737770Y3179296D01*
X741485Y3186245D01*
X743772Y3193785D01*
X744544Y3201626D01*
X743772Y3209468D01*
X741485Y3217008D01*
X737770Y3223956D01*
X747218Y3232463D01*
X953127Y3083867D01*
X954479Y3083139D01*
X962561Y3077738D01*
X975569Y3071323D01*
X989303Y3066661D01*
X1003528Y3063832D01*
X1011617Y3063302D01*
X1013332Y3063002D01*
X1336312Y3049390D01*
X1339899Y3045020D01*
X1345990Y3040021D01*
X1352939Y3036307D01*
X1360479Y3034020D01*
X1368320Y3033247D01*
X1376161Y3034020D01*
X1383702Y3036307D01*
X1390651Y3040021D01*
X1391381Y3040621D01*
X1405815Y3037104D01*
X1434804Y2945509D01*
X1454606Y2882943D01*
X1457290Y2877202D01*
X1536179Y2637579D01*
X1532866Y2631382D01*
X1530579Y2623841D01*
X1529806Y2616000D01*
X1530579Y2608159D01*
X1532866Y2600619D01*
X1536580Y2593670D01*
X1541579Y2587579D01*
X1547669Y2582581D01*
X1554618Y2578866D01*
X1562159Y2576579D01*
X1570000Y2575807D01*
X1575876Y2576385D01*
X1579041Y2572422D01*
X1581344Y2564444D01*
X1579954Y2563303D01*
X1574955Y2557212D01*
X1571241Y2550263D01*
X1568954Y2542723D01*
X1568182Y2534882D01*
X1568954Y2527041D01*
X1571241Y2519500D01*
X1574955Y2512551D01*
X1579954Y2506461D01*
X1586045Y2501462D01*
X1592994Y2497748D01*
X1600534Y2495461D01*
X1608375Y2494688D01*
X1616216Y2495461D01*
X1623756Y2497748D01*
X1630705Y2501462D01*
X1636796Y2506461D01*
X1641795Y2512551D01*
X1645509Y2519500D01*
X1647796Y2527041D01*
X1648568Y2534882D01*
X1647796Y2542723D01*
X1645509Y2550263D01*
X1641795Y2557212D01*
X1636796Y2563303D01*
X1630705Y2568301D01*
X1623756Y2572016D01*
X1616216Y2574303D01*
X1608375Y2575075D01*
X1602499Y2574497D01*
X1599334Y2578460D01*
X1597031Y2586438D01*
X1598421Y2587579D01*
X1603419Y2593670D01*
X1607134Y2600619D01*
X1609421Y2608159D01*
X1610193Y2616000D01*
X1609421Y2623841D01*
X1607134Y2631382D01*
X1603419Y2638331D01*
X1598421Y2644421D01*
X1592330Y2649420D01*
X1585381Y2653134D01*
X1584393Y2653434D01*
X1503623Y2898772D01*
X1497874Y2916232D01*
X1509196Y2922456D01*
X1510579Y2920771D01*
X1516670Y2915773D01*
X1523618Y2912058D01*
X1527840Y2910778D01*
X1580975Y2784845D01*
X1654745Y2610004D01*
X1655105Y2609390D01*
X1655305Y2608717D01*
X1682369Y2547992D01*
X1683000Y2546963D01*
X1684038Y2544456D01*
X1690206Y2534391D01*
X1697873Y2525414D01*
X1699423Y2524090D01*
X1700022Y2523370D01*
X1714408Y2510077D01*
X2081706Y2170656D01*
X2081707Y2170655D01*
X2082722Y2169718D01*
X2083992Y2168821D01*
X2084110Y2168720D01*
X2085165Y2167536D01*
X2122021Y2135746D01*
X2218566Y2052471D01*
X2451136Y1851868D01*
X2451012Y1850606D01*
X2451784Y1842765D01*
X2454071Y1835225D01*
X2457786Y1828276D01*
X2462784Y1822185D01*
X2468875Y1817187D01*
X2475824Y1813472D01*
X2483364Y1811185D01*
X2491205Y1810413D01*
X2499046Y1811185D01*
X2506587Y1813472D01*
X2513535Y1817187D01*
X2519626Y1822185D01*
X2524625Y1828276D01*
X2528339Y1835225D01*
X2530626Y1842765D01*
X2531399Y1850606D01*
X2530626Y1858448D01*
X2528339Y1865988D01*
X2524625Y1872937D01*
X2519626Y1879027D01*
X2513535Y1884026D01*
X2506587Y1887740D01*
X2499046Y1890027D01*
X2491205Y1890800D01*
X2484032Y1890093D01*
X2251505Y2090659D01*
X2251504Y2090660D01*
X2178967Y2153227D01*
X2185276Y2164557D01*
X2255802Y2142393D01*
X2255953Y2141894D01*
X2259667Y2134945D01*
X2264666Y2128855D01*
X2270756Y2123856D01*
X2277705Y2120142D01*
X2285246Y2117855D01*
X2293087Y2117082D01*
X2300928Y2117855D01*
X2308468Y2120142D01*
X2315417Y2123856D01*
X2321508Y2128855D01*
X2326506Y2134945D01*
X2326679Y2135269D01*
X2341544Y2137151D01*
X2559318Y1870718D01*
X2559254Y1870508D01*
X2558481Y1862666D01*
X2559254Y1854825D01*
X2561541Y1847285D01*
X2565255Y1840336D01*
X2570254Y1834245D01*
X2576344Y1829247D01*
X2583293Y1825532D01*
X2590834Y1823245D01*
X2598675Y1822473D01*
X2606516Y1823245D01*
X2614056Y1825532D01*
X2621005Y1829247D01*
X2627096Y1834245D01*
X2631231Y1839284D01*
X2633563Y1840320D01*
X2646414Y1840184D01*
X2841122Y1579632D01*
X2840579Y1577841D01*
X2839807Y1570000D01*
X2840579Y1562159D01*
X2842866Y1554618D01*
X2846581Y1547669D01*
X2851579Y1541579D01*
X2857670Y1536580D01*
X2864619Y1532866D01*
X2872159Y1530579D01*
X2880000Y1529806D01*
X2887841Y1530579D01*
X2895382Y1532866D01*
X2902330Y1536580D01*
X2908421Y1541579D01*
X2913420Y1547669D01*
X2917134Y1554618D01*
X2918354Y1558641D01*
X2919591Y1560090D01*
X2922439Y1566071D01*
X2923643Y1572586D01*
X2923120Y1579190D01*
X2920905Y1585433D01*
X2917150Y1590891D01*
X2912110Y1595191D01*
X2910406Y1596002D01*
X2908421Y1598421D01*
X2902330Y1603419D01*
X2895382Y1607134D01*
X2887841Y1609421D01*
X2881775Y1610019D01*
X2659281Y1907752D01*
X2658790Y1908256D01*
X2658664Y1908403D01*
X2658264Y1909088D01*
X2641761Y1930366D01*
X2641583Y1930880D01*
X2637864Y1936363D01*
X2631400Y1943633D01*
X2375930Y2230939D01*
X2374750Y2231960D01*
X2371489Y2235678D01*
X2360585Y2245241D01*
X2348525Y2253299D01*
X2342924Y2256061D01*
X2341479Y2257013D01*
X2299392Y2277433D01*
X2298436Y2277751D01*
X2296153Y2278972D01*
X2289371Y2281029D01*
X2287717Y2281685D01*
X2195100Y2305006D01*
X2196675Y2317706D01*
X3044156D01*
X3048700Y2305006D01*
X3046577Y2303263D01*
X3041578Y2297173D01*
X3037864Y2290224D01*
X3035577Y2282684D01*
X3034804Y2274842D01*
X3035577Y2267001D01*
X3037864Y2259461D01*
X3041578Y2252512D01*
X3046577Y2246421D01*
X3052668Y2241423D01*
X3059616Y2237708D01*
X3067157Y2235421D01*
X3074998Y2234649D01*
X3082839Y2235421D01*
X3090379Y2237708D01*
X3097328Y2241423D01*
X3103419Y2246421D01*
X3108417Y2252512D01*
X3112132Y2259461D01*
X3114419Y2267001D01*
X3115191Y2274842D01*
X3114419Y2282684D01*
X3112132Y2290224D01*
X3108417Y2297173D01*
X3103419Y2303263D01*
X3097328Y2308262D01*
X3090379Y2311976D01*
X3087822Y2312752D01*
X3086951Y2313805D01*
X3083146Y2324449D01*
X3083223Y2326987D01*
X3083330Y2327147D01*
X3084494Y2333000D01*
Y3813609D01*
X3085635Y3815000D01*
X3435416D01*
X3444390Y3806014D01*
X3439544Y25415D01*
X2014748Y21309D01*
X2010048Y33726D01*
X2010026Y33996D01*
X2017893Y43206D01*
X2024266Y53607D01*
X2028934Y64877D01*
X2031782Y76739D01*
X2032739Y88900D01*
X2031782Y101061D01*
X2028934Y112923D01*
X2024266Y124193D01*
X2017893Y134594D01*
X2009970Y143870D01*
X2005723Y147498D01*
X2009484Y160987D01*
X2101000Y176049D01*
X2102613Y175223D01*
X2110539Y164748D01*
X2110009Y163000D01*
X2197991D01*
X2195776Y170304D01*
X2191597Y178121D01*
X2196790Y191813D01*
X2872140Y302960D01*
X2999583Y323934D01*
X3003670Y320581D01*
X3010619Y316866D01*
X3018159Y314579D01*
X3026000Y313807D01*
X3033841Y314579D01*
X3041382Y316866D01*
X3048330Y320581D01*
X3054421Y325579D01*
X3059420Y331670D01*
X3063134Y338619D01*
X3065421Y346159D01*
X3066194Y354000D01*
X3065421Y361841D01*
X3063134Y369382D01*
X3059420Y376330D01*
X3054421Y382421D01*
X3048330Y387420D01*
X3041382Y391134D01*
X3033841Y393421D01*
X3026000Y394194D01*
X3018159Y393421D01*
X3010619Y391134D01*
X3003670Y387420D01*
X2997579Y382421D01*
X2992581Y376330D01*
X2991343Y374015D01*
X2863897Y353040D01*
X1936643Y200437D01*
X1936080Y200266D01*
X1935494Y200241D01*
X1734278Y164991D01*
X1668889Y153536D01*
X1667946Y154211D01*
X1661125Y165069D01*
X1662531Y167698D01*
X1664818Y175238D01*
X1665590Y183080D01*
X1664818Y190921D01*
X1662531Y198461D01*
X1658816Y205410D01*
X1653818Y211501D01*
X1647727Y216499D01*
X1640778Y220214D01*
X1633238Y222501D01*
X1625397Y223273D01*
X1617556Y222501D01*
X1610015Y220214D01*
X1603066Y216499D01*
X1596976Y211501D01*
X1591977Y205410D01*
X1588263Y198461D01*
X1585976Y190921D01*
X1585203Y183080D01*
X1585976Y175238D01*
X1588263Y167698D01*
X1591977Y160749D01*
X1596976Y154659D01*
X1597807Y153976D01*
X1594256Y140461D01*
X1514825Y126546D01*
X1509893Y134594D01*
X1501970Y143870D01*
X1492694Y151793D01*
X1482293Y158166D01*
X1471023Y162835D01*
X1459161Y165682D01*
X1447000Y166639D01*
X1434839Y165682D01*
X1422977Y162835D01*
X1411707Y158166D01*
X1401306Y151793D01*
X1392030Y143870D01*
X1384107Y134594D01*
X1377734Y124193D01*
X1373065Y112923D01*
X1370217Y101061D01*
X1369260Y88900D01*
X1370217Y76739D01*
X1373065Y64877D01*
X1377734Y53607D01*
X1384107Y43206D01*
X1392030Y33930D01*
X1394031Y32220D01*
X1389361Y19507D01*
X29534Y15588D01*
X20549Y24563D01*
X22564Y1181443D01*
X22795Y1182520D01*
X27705Y1193672D01*
X49372D01*
X51823Y1193994D01*
X54291Y1194156D01*
X75543Y1198383D01*
X77887Y1199179D01*
X80274Y1199818D01*
X100293Y1208110D01*
X102435Y1209347D01*
X104652Y1210441D01*
X122668Y1222479D01*
X124529Y1224110D01*
X126489Y1225615D01*
X141811Y1240936D01*
X143317Y1242898D01*
X144947Y1244757D01*
X156985Y1262773D01*
X158078Y1264991D01*
X159315Y1267133D01*
X167607Y1287152D01*
X168247Y1289541D01*
X169042Y1291882D01*
X173269Y1313134D01*
X173431Y1315600D01*
X173754Y1318053D01*
Y1339721D01*
X173431Y1342174D01*
X173269Y1344641D01*
X169042Y1365893D01*
X168247Y1368235D01*
X167607Y1370623D01*
X159315Y1390642D01*
X158078Y1392784D01*
X156985Y1395001D01*
X144947Y1413017D01*
X143315Y1414878D01*
X141811Y1416838D01*
X126489Y1432160D01*
X124527Y1433666D01*
X122668Y1435296D01*
X104652Y1447334D01*
X102435Y1448427D01*
X100293Y1449664D01*
X80274Y1457956D01*
X77885Y1458596D01*
X75543Y1459391D01*
X54292Y1463618D01*
X51825Y1463780D01*
X49372Y1464103D01*
X35757D01*
X23762Y1474302D01*
X23077Y1476074D01*
X25471Y2849806D01*
X25475Y2849977D01*
X27109Y2854362D01*
X31261Y2858808D01*
X35570Y2861903D01*
X36214Y2862122D01*
X50000D01*
Y2910000D01*
X-26894D01*
X-26766Y2908708D01*
X-23473Y2897851D01*
X-31265Y2885488D01*
X-204512Y2885488D01*
X-204512Y3864538D01*
X-22750D01*
X-16743Y3851838D01*
D02*
G37*
G36*
X1887731Y127453D02*
X1885734Y124193D01*
X1881065Y112923D01*
X1878217Y101061D01*
X1877260Y88900D01*
X1878217Y76739D01*
X1881065Y64877D01*
X1885734Y53607D01*
X1892107Y43206D01*
X1900030Y33930D01*
X1900323Y33680D01*
X1895653Y20966D01*
X1505028Y19840D01*
X1500327Y32527D01*
X1501970Y33930D01*
X1509893Y43206D01*
X1516266Y53607D01*
X1520934Y64877D01*
X1523744Y76581D01*
X1743036Y114998D01*
X1879896Y138974D01*
X1887731Y127453D01*
D02*
G37*
%LPC*%
G36*
X1040000Y3823991D02*
Y3790000D01*
X1073991D01*
X1071776Y3797304D01*
X1067597Y3805122D01*
X1061974Y3811974D01*
X1055122Y3817597D01*
X1047304Y3821776D01*
X1040000Y3823991D01*
D02*
G37*
G36*
X1020000D02*
X1012696Y3821776D01*
X1004878Y3817597D01*
X998026Y3811974D01*
X992403Y3805122D01*
X988224Y3797304D01*
X986009Y3790000D01*
X1020000D01*
Y3823991D01*
D02*
G37*
G36*
X1073991Y3770000D02*
X1040000D01*
Y3736009D01*
X1047304Y3738224D01*
X1055122Y3742403D01*
X1061974Y3748026D01*
X1067597Y3754878D01*
X1071776Y3762696D01*
X1073991Y3770000D01*
D02*
G37*
G36*
X1020000D02*
X986009D01*
X988224Y3762696D01*
X992403Y3754878D01*
X998026Y3748026D01*
X1004878Y3742403D01*
X1012696Y3738224D01*
X1020000Y3736009D01*
Y3770000D01*
D02*
G37*
G36*
X2080000Y3663991D02*
X2072696Y3661776D01*
X2064878Y3657597D01*
X2058026Y3651974D01*
X2052403Y3645122D01*
X2048224Y3637304D01*
X2046009Y3630000D01*
X2080000D01*
Y3663991D01*
D02*
G37*
G36*
X1495800Y3695283D02*
X1487959Y3694511D01*
X1480418Y3692224D01*
X1473469Y3688510D01*
X1467379Y3683511D01*
X1462380Y3677420D01*
X1458666Y3670471D01*
X1456379Y3662931D01*
X1455606Y3655090D01*
X1456379Y3647249D01*
X1458666Y3639708D01*
X1462380Y3632760D01*
X1467379Y3626669D01*
X1473469Y3621670D01*
X1480418Y3617956D01*
X1487959Y3615669D01*
X1495800Y3614897D01*
X1503641Y3615669D01*
X1511181Y3617956D01*
X1518130Y3621670D01*
X1524221Y3626669D01*
X1529219Y3632760D01*
X1532934Y3639708D01*
X1535221Y3647249D01*
X1535993Y3655090D01*
X1535221Y3662931D01*
X1532934Y3670471D01*
X1529219Y3677420D01*
X1524221Y3683511D01*
X1518130Y3688510D01*
X1511181Y3692224D01*
X1503641Y3694511D01*
X1495800Y3695283D01*
D02*
G37*
G36*
X1383359D02*
X1375518Y3694511D01*
X1367977Y3692224D01*
X1361029Y3688510D01*
X1354938Y3683511D01*
X1349939Y3677420D01*
X1346225Y3670471D01*
X1343938Y3662931D01*
X1343165Y3655090D01*
X1343938Y3647249D01*
X1346225Y3639708D01*
X1349939Y3632760D01*
X1354938Y3626669D01*
X1361029Y3621670D01*
X1367977Y3617956D01*
X1375518Y3615669D01*
X1383359Y3614897D01*
X1391200Y3615669D01*
X1398740Y3617956D01*
X1405689Y3621670D01*
X1411780Y3626669D01*
X1416778Y3632760D01*
X1420493Y3639708D01*
X1422780Y3647249D01*
X1423552Y3655090D01*
X1422780Y3662931D01*
X1420493Y3670471D01*
X1416778Y3677420D01*
X1411780Y3683511D01*
X1405689Y3688510D01*
X1398740Y3692224D01*
X1391200Y3694511D01*
X1383359Y3695283D01*
D02*
G37*
G36*
X1822100Y3688293D02*
X1814259Y3687521D01*
X1806719Y3685234D01*
X1799770Y3681519D01*
X1793679Y3676521D01*
X1788680Y3670430D01*
X1784966Y3663481D01*
X1782679Y3655941D01*
X1781907Y3648100D01*
X1782679Y3640259D01*
X1784966Y3632718D01*
X1788680Y3625769D01*
X1793679Y3619679D01*
X1799770Y3614680D01*
X1806719Y3610966D01*
X1814259Y3608679D01*
X1822100Y3607906D01*
X1829941Y3608679D01*
X1837481Y3610966D01*
X1844430Y3614680D01*
X1850521Y3619679D01*
X1855520Y3625769D01*
X1859234Y3632718D01*
X1861521Y3640259D01*
X1862293Y3648100D01*
X1861521Y3655941D01*
X1859234Y3663481D01*
X1855520Y3670430D01*
X1850521Y3676521D01*
X1844430Y3681519D01*
X1837481Y3685234D01*
X1829941Y3687521D01*
X1822100Y3688293D01*
D02*
G37*
G36*
X2080000Y3610000D02*
X2046009D01*
X2048224Y3602696D01*
X2052403Y3594879D01*
X2058026Y3588026D01*
X2064878Y3582403D01*
X2072696Y3578224D01*
X2080000Y3576009D01*
Y3610000D01*
D02*
G37*
G36*
X1940000Y3633193D02*
X1932159Y3632421D01*
X1924618Y3630134D01*
X1917670Y3626419D01*
X1911579Y3621421D01*
X1906580Y3615330D01*
X1902866Y3608381D01*
X1900579Y3600841D01*
X1899806Y3593000D01*
X1900579Y3585159D01*
X1902866Y3577618D01*
X1906580Y3570670D01*
X1911579Y3564579D01*
X1917670Y3559580D01*
X1924618Y3555866D01*
X1932159Y3553579D01*
X1940000Y3552806D01*
X1947841Y3553579D01*
X1955381Y3555866D01*
X1962330Y3559580D01*
X1968421Y3564579D01*
X1973419Y3570670D01*
X1977134Y3577618D01*
X1979421Y3585159D01*
X1980193Y3593000D01*
X1979421Y3600841D01*
X1977134Y3608381D01*
X1973419Y3615330D01*
X1968421Y3621421D01*
X1962330Y3626419D01*
X1955381Y3630134D01*
X1947841Y3632421D01*
X1940000Y3633193D01*
D02*
G37*
G36*
X1722096Y3568098D02*
X1714255Y3567325D01*
X1706715Y3565038D01*
X1699766Y3561324D01*
X1693675Y3556325D01*
X1688677Y3550234D01*
X1684962Y3543286D01*
X1682675Y3535745D01*
X1681903Y3527904D01*
X1682675Y3520063D01*
X1684962Y3512523D01*
X1688677Y3505574D01*
X1693675Y3499483D01*
X1699766Y3494485D01*
X1706715Y3490770D01*
X1714255Y3488483D01*
X1722096Y3487711D01*
X1729937Y3488483D01*
X1737478Y3490770D01*
X1744427Y3494485D01*
X1750517Y3499483D01*
X1755516Y3505574D01*
X1759230Y3512523D01*
X1761517Y3520063D01*
X1762290Y3527904D01*
X1761517Y3535745D01*
X1759230Y3543286D01*
X1755516Y3550234D01*
X1750517Y3556325D01*
X1744427Y3561324D01*
X1737478Y3565038D01*
X1729937Y3567325D01*
X1722096Y3568098D01*
D02*
G37*
G36*
X1890000Y3550194D02*
X1882159Y3549421D01*
X1874619Y3547134D01*
X1867670Y3543420D01*
X1861579Y3538421D01*
X1856580Y3532331D01*
X1852866Y3525382D01*
X1850579Y3517841D01*
X1849807Y3510000D01*
X1850579Y3502159D01*
X1852866Y3494619D01*
X1856580Y3487670D01*
X1861579Y3481579D01*
X1867670Y3476581D01*
X1874619Y3472866D01*
X1882159Y3470579D01*
X1890000Y3469807D01*
X1897841Y3470579D01*
X1905382Y3472866D01*
X1912330Y3476581D01*
X1918421Y3481579D01*
X1923420Y3487670D01*
X1927134Y3494619D01*
X1929421Y3502159D01*
X1930193Y3510000D01*
X1929421Y3517841D01*
X1927134Y3525382D01*
X1923420Y3532331D01*
X1918421Y3538421D01*
X1912330Y3543420D01*
X1905382Y3547134D01*
X1897841Y3549421D01*
X1890000Y3550194D01*
D02*
G37*
G36*
X1299561Y3534032D02*
X1291720Y3533260D01*
X1284180Y3530973D01*
X1277231Y3527258D01*
X1271140Y3522260D01*
X1266142Y3516169D01*
X1262427Y3509220D01*
X1260140Y3501680D01*
X1259368Y3493839D01*
X1260140Y3485998D01*
X1262427Y3478457D01*
X1266142Y3471508D01*
X1271140Y3465418D01*
X1277231Y3460419D01*
X1284180Y3456705D01*
X1291720Y3454418D01*
X1299561Y3453645D01*
X1307403Y3454418D01*
X1314943Y3456705D01*
X1321892Y3460419D01*
X1327982Y3465418D01*
X1332981Y3471508D01*
X1336695Y3478457D01*
X1338982Y3485998D01*
X1339755Y3493839D01*
X1338982Y3501680D01*
X1336695Y3509220D01*
X1332981Y3516169D01*
X1327982Y3522260D01*
X1321892Y3527258D01*
X1314943Y3530973D01*
X1307403Y3533260D01*
X1299561Y3534032D01*
D02*
G37*
G36*
X1559094Y3439746D02*
X1551252Y3438974D01*
X1543712Y3436687D01*
X1536763Y3432972D01*
X1530673Y3427974D01*
X1525674Y3421883D01*
X1521960Y3414934D01*
X1519673Y3407394D01*
X1518900Y3399553D01*
X1519673Y3391711D01*
X1521960Y3384171D01*
X1525674Y3377222D01*
X1530673Y3371131D01*
X1536763Y3366133D01*
X1543712Y3362418D01*
X1551252Y3360131D01*
X1559094Y3359359D01*
X1566935Y3360131D01*
X1574475Y3362418D01*
X1581424Y3366133D01*
X1587515Y3371131D01*
X1592513Y3377222D01*
X1596228Y3384171D01*
X1598515Y3391711D01*
X1599287Y3399553D01*
X1598515Y3407394D01*
X1596228Y3414934D01*
X1592513Y3421883D01*
X1587515Y3427974D01*
X1581424Y3432972D01*
X1574475Y3436687D01*
X1566935Y3438974D01*
X1559094Y3439746D01*
D02*
G37*
G36*
X1790446Y3413059D02*
X1782605Y3412287D01*
X1775065Y3410000D01*
X1768116Y3406286D01*
X1762025Y3401287D01*
X1757026Y3395196D01*
X1753312Y3388247D01*
X1751025Y3380707D01*
X1750253Y3372866D01*
X1751025Y3365025D01*
X1753312Y3357485D01*
X1757026Y3350536D01*
X1762025Y3344445D01*
X1768116Y3339446D01*
X1775065Y3335732D01*
X1782605Y3333445D01*
X1790446Y3332673D01*
X1798287Y3333445D01*
X1805827Y3335732D01*
X1812776Y3339446D01*
X1818867Y3344445D01*
X1823866Y3350536D01*
X1827580Y3357485D01*
X1829867Y3365025D01*
X1830639Y3372866D01*
X1829867Y3380707D01*
X1827580Y3388247D01*
X1823866Y3395196D01*
X1818867Y3401287D01*
X1812776Y3406286D01*
X1805827Y3410000D01*
X1798287Y3412287D01*
X1790446Y3413059D01*
D02*
G37*
G36*
X381294Y3808000D02*
X310000D01*
Y3760122D01*
X324400D01*
X335692Y3761234D01*
X346549Y3764527D01*
X356556Y3769876D01*
X365326Y3777074D01*
X372524Y3785845D01*
X377873Y3795851D01*
X381167Y3806709D01*
X381294Y3808000D01*
D02*
G37*
G36*
X918628Y3332308D02*
X884637D01*
X886853Y3325004D01*
X891031Y3317187D01*
X896655Y3310335D01*
X903507Y3304711D01*
X911324Y3300533D01*
X918628Y3298317D01*
Y3332308D01*
D02*
G37*
G36*
X450000Y3055725D02*
X440885Y3054827D01*
X432119Y3052168D01*
X424041Y3047850D01*
X416961Y3042040D01*
X411150Y3034959D01*
X406832Y3026881D01*
X404173Y3018116D01*
X403275Y3009000D01*
X404173Y2999885D01*
X406832Y2991119D01*
X411150Y2983041D01*
X416961Y2975961D01*
X424041Y2970150D01*
X432119Y2965832D01*
X440885Y2963173D01*
X450000Y2962275D01*
X459116Y2963173D01*
X467881Y2965832D01*
X475959Y2970150D01*
X483040Y2975961D01*
X488850Y2983041D01*
X493168Y2991119D01*
X495827Y2999885D01*
X496725Y3009000D01*
X495827Y3018116D01*
X493168Y3026881D01*
X488850Y3034959D01*
X483040Y3042040D01*
X475959Y3047850D01*
X467881Y3052168D01*
X459116Y3054827D01*
X450000Y3055725D01*
D02*
G37*
G36*
X569489Y3027448D02*
X561648Y3026675D01*
X554107Y3024388D01*
X547158Y3020674D01*
X541068Y3015675D01*
X536069Y3009585D01*
X532355Y3002636D01*
X530068Y2995095D01*
X529295Y2987254D01*
X530068Y2979413D01*
X532355Y2971873D01*
X536069Y2964924D01*
X541068Y2958833D01*
X547158Y2953835D01*
X554107Y2950120D01*
X561648Y2947833D01*
X569489Y2947061D01*
X577330Y2947833D01*
X584870Y2950120D01*
X591819Y2953835D01*
X597910Y2958833D01*
X602908Y2964924D01*
X606623Y2971873D01*
X608910Y2979413D01*
X609682Y2987254D01*
X608910Y2995095D01*
X606623Y3002636D01*
X602908Y3009585D01*
X597910Y3015675D01*
X591819Y3020674D01*
X584870Y3024388D01*
X577330Y3026675D01*
X569489Y3027448D01*
D02*
G37*
G36*
X324400Y2977878D02*
X310000D01*
Y2930000D01*
X381294D01*
X381167Y2931292D01*
X377873Y2942149D01*
X372524Y2952156D01*
X365326Y2960926D01*
X356556Y2968124D01*
X346549Y2973473D01*
X335692Y2976766D01*
X324400Y2977878D01*
D02*
G37*
G36*
X938000Y2717193D02*
X930159Y2716421D01*
X922618Y2714134D01*
X915669Y2710420D01*
X909579Y2705421D01*
X904580Y2699330D01*
X900866Y2692381D01*
X898579Y2684841D01*
X897806Y2677000D01*
X898579Y2669159D01*
X900866Y2661619D01*
X904580Y2654670D01*
X909579Y2648579D01*
X915669Y2643580D01*
X922618Y2639866D01*
X930159Y2637579D01*
X938000Y2636807D01*
X945841Y2637579D01*
X953381Y2639866D01*
X960330Y2643580D01*
X966421Y2648579D01*
X971419Y2654670D01*
X975134Y2661619D01*
X977421Y2669159D01*
X978193Y2677000D01*
X977421Y2684841D01*
X975134Y2692381D01*
X971419Y2699330D01*
X966421Y2705421D01*
X960330Y2710420D01*
X953381Y2714134D01*
X945841Y2716421D01*
X938000Y2717193D01*
D02*
G37*
G36*
X1039101Y1528422D02*
Y1494430D01*
X1073092D01*
X1070877Y1501734D01*
X1066698Y1509552D01*
X1061075Y1516404D01*
X1054223Y1522027D01*
X1046405Y1526206D01*
X1039101Y1528422D01*
D02*
G37*
G36*
X2093181Y1078023D02*
Y1044031D01*
X2127172D01*
X2124956Y1051335D01*
X2120778Y1059153D01*
X2115155Y1066005D01*
X2108302Y1071629D01*
X2100485Y1075807D01*
X2093181Y1078023D01*
D02*
G37*
G36*
X2073181D02*
X2065877Y1075807D01*
X2058059Y1071629D01*
X2051207Y1066005D01*
X2045584Y1059153D01*
X2041405Y1051335D01*
X2039189Y1044031D01*
X2073181D01*
Y1078023D01*
D02*
G37*
G36*
X3140000Y3510193D02*
X3132159Y3509421D01*
X3124619Y3507134D01*
X3117670Y3503419D01*
X3111579Y3498421D01*
X3106581Y3492330D01*
X3102866Y3485381D01*
X3100579Y3477841D01*
X3099807Y3470000D01*
X3100579Y3462159D01*
X3102866Y3454618D01*
X3106581Y3447670D01*
X3111579Y3441579D01*
X3117670Y3436580D01*
X3124619Y3432866D01*
X3132159Y3430579D01*
X3140000Y3429806D01*
X3147841Y3430579D01*
X3155382Y3432866D01*
X3162330Y3436580D01*
X3168421Y3441579D01*
X3173420Y3447670D01*
X3177134Y3454618D01*
X3179421Y3462159D01*
X3180194Y3470000D01*
X3179421Y3477841D01*
X3177134Y3485381D01*
X3173420Y3492330D01*
X3168421Y3498421D01*
X3162330Y3503419D01*
X3155382Y3507134D01*
X3147841Y3509421D01*
X3140000Y3510193D01*
D02*
G37*
G36*
X3251200Y3233020D02*
X3235500Y3232139D01*
X3219998Y3229505D01*
X3204888Y3225152D01*
X3190361Y3219134D01*
X3176598Y3211528D01*
X3163774Y3202429D01*
X3152049Y3191951D01*
X3141571Y3180226D01*
X3132472Y3167402D01*
X3124866Y3153639D01*
X3118848Y3139112D01*
X3114495Y3124002D01*
X3111861Y3108500D01*
X3110980Y3092800D01*
X3111861Y3077100D01*
X3114495Y3061598D01*
X3118848Y3046488D01*
X3124866Y3031961D01*
X3132472Y3018198D01*
X3141571Y3005374D01*
X3152049Y2993649D01*
X3163774Y2983171D01*
X3176598Y2974072D01*
X3190361Y2966466D01*
X3204888Y2960448D01*
X3219998Y2956095D01*
X3235500Y2953461D01*
X3251200Y2952580D01*
X3266900Y2953461D01*
X3282402Y2956095D01*
X3297512Y2960448D01*
X3312039Y2966466D01*
X3325802Y2974072D01*
X3338626Y2983171D01*
X3350351Y2993649D01*
X3360829Y3005374D01*
X3369928Y3018198D01*
X3377534Y3031961D01*
X3383552Y3046488D01*
X3387905Y3061598D01*
X3390539Y3077100D01*
X3391420Y3092800D01*
X3390539Y3108500D01*
X3387905Y3124002D01*
X3383552Y3139112D01*
X3377534Y3153639D01*
X3369928Y3167402D01*
X3360829Y3180226D01*
X3350351Y3191951D01*
X3338626Y3202429D01*
X3325802Y3211528D01*
X3312039Y3219134D01*
X3297512Y3225152D01*
X3282402Y3229505D01*
X3266900Y3232139D01*
X3251200Y3233020D01*
D02*
G37*
G36*
X1060026Y2999329D02*
X1052185Y2998556D01*
X1044645Y2996269D01*
X1037696Y2992555D01*
X1031605Y2987556D01*
X1026607Y2981465D01*
X1022892Y2974517D01*
X1020605Y2966976D01*
X1019833Y2959135D01*
X1020605Y2951294D01*
X1022892Y2943754D01*
X1026607Y2936805D01*
X1031605Y2930714D01*
X1037696Y2925716D01*
X1044645Y2922001D01*
X1052185Y2919714D01*
X1060026Y2918942D01*
X1067868Y2919714D01*
X1075408Y2922001D01*
X1082357Y2925716D01*
X1088447Y2930714D01*
X1093446Y2936805D01*
X1097160Y2943754D01*
X1099447Y2951294D01*
X1100220Y2959135D01*
X1099447Y2966976D01*
X1097160Y2974517D01*
X1093446Y2981465D01*
X1088447Y2987556D01*
X1082357Y2992555D01*
X1075408Y2996269D01*
X1067868Y2998556D01*
X1060026Y2999329D01*
D02*
G37*
G36*
X146894Y2910000D02*
X70000D01*
Y2862122D01*
X90000D01*
X101292Y2863234D01*
X112149Y2866527D01*
X122156Y2871876D01*
X130926Y2879074D01*
X138124Y2887844D01*
X143473Y2897851D01*
X146767Y2908708D01*
X146894Y2910000D01*
D02*
G37*
G36*
X119300Y2640340D02*
X107139Y2639383D01*
X95277Y2636535D01*
X84007Y2631867D01*
X73606Y2625494D01*
X64330Y2617571D01*
X56407Y2608295D01*
X50034Y2597894D01*
X45365Y2586624D01*
X42518Y2574762D01*
X41560Y2562601D01*
X42518Y2550440D01*
X45365Y2538578D01*
X50034Y2527308D01*
X56407Y2516907D01*
X64330Y2507631D01*
X73606Y2499708D01*
X84007Y2493335D01*
X95277Y2488666D01*
X107139Y2485818D01*
X119300Y2484861D01*
X131461Y2485818D01*
X143323Y2488666D01*
X154593Y2493335D01*
X164994Y2499708D01*
X174270Y2507631D01*
X182193Y2516907D01*
X188566Y2527308D01*
X193235Y2538578D01*
X196082Y2550440D01*
X197039Y2562601D01*
X196082Y2574762D01*
X193235Y2586624D01*
X188566Y2597894D01*
X182193Y2608295D01*
X174270Y2617571D01*
X164994Y2625494D01*
X154593Y2631867D01*
X143323Y2636535D01*
X131461Y2639383D01*
X119300Y2640340D01*
D02*
G37*
G36*
X373300Y2640339D02*
X361139Y2639382D01*
X349277Y2636534D01*
X338007Y2631866D01*
X327606Y2625493D01*
X318330Y2617570D01*
X310407Y2608294D01*
X304034Y2597893D01*
X299365Y2586623D01*
X296518Y2574761D01*
X295560Y2562600D01*
X296518Y2550439D01*
X299365Y2538577D01*
X304034Y2527307D01*
X310407Y2516906D01*
X318330Y2507630D01*
X327606Y2499707D01*
X338007Y2493334D01*
X349277Y2488665D01*
X361139Y2485817D01*
X373300Y2484860D01*
X385461Y2485817D01*
X397323Y2488665D01*
X408593Y2493334D01*
X418994Y2499707D01*
X428270Y2507630D01*
X436193Y2516906D01*
X442566Y2527307D01*
X447235Y2538577D01*
X450082Y2550439D01*
X451039Y2562600D01*
X450082Y2574761D01*
X447235Y2586623D01*
X442566Y2597893D01*
X436193Y2608294D01*
X428270Y2617570D01*
X418994Y2625493D01*
X408593Y2631866D01*
X397323Y2636534D01*
X385461Y2639382D01*
X373300Y2640339D01*
D02*
G37*
G36*
X119300Y2386339D02*
X107139Y2385382D01*
X95277Y2382534D01*
X84007Y2377866D01*
X73606Y2371493D01*
X64330Y2363570D01*
X56407Y2354294D01*
X50034Y2343893D01*
X45365Y2332623D01*
X42518Y2320761D01*
X41560Y2308600D01*
X42518Y2296439D01*
X45365Y2284577D01*
X50034Y2273307D01*
X56407Y2262906D01*
X64330Y2253630D01*
X73606Y2245707D01*
X84007Y2239334D01*
X95277Y2234665D01*
X107139Y2231817D01*
X119300Y2230860D01*
X131461Y2231817D01*
X143323Y2234665D01*
X154593Y2239334D01*
X164994Y2245707D01*
X174270Y2253630D01*
X182193Y2262906D01*
X188566Y2273307D01*
X193235Y2284577D01*
X196082Y2296439D01*
X197039Y2308600D01*
X196082Y2320761D01*
X193235Y2332623D01*
X188566Y2343893D01*
X182193Y2354294D01*
X174270Y2363570D01*
X164994Y2371493D01*
X154593Y2377866D01*
X143323Y2382534D01*
X131461Y2385382D01*
X119300Y2386339D01*
D02*
G37*
G36*
X2690000Y2263991D02*
Y2230000D01*
X2723991D01*
X2721776Y2237304D01*
X2717597Y2245121D01*
X2711974Y2251974D01*
X2705122Y2257597D01*
X2697304Y2261776D01*
X2690000Y2263991D01*
D02*
G37*
G36*
X2670000D02*
X2662696Y2261776D01*
X2654878Y2257597D01*
X2648026Y2251974D01*
X2642403Y2245121D01*
X2638224Y2237304D01*
X2636009Y2230000D01*
X2670000D01*
Y2263991D01*
D02*
G37*
G36*
X372300Y2382140D02*
X360139Y2381183D01*
X348277Y2378335D01*
X337007Y2373667D01*
X326606Y2367293D01*
X317330Y2359371D01*
X309407Y2350095D01*
X303034Y2339694D01*
X298365Y2328424D01*
X295518Y2316562D01*
X294560Y2304401D01*
X295518Y2292240D01*
X298365Y2280378D01*
X303034Y2269108D01*
X309407Y2258707D01*
X317330Y2249431D01*
X326606Y2241508D01*
X337007Y2235134D01*
X348277Y2230466D01*
X360139Y2227618D01*
X372300Y2226661D01*
X384461Y2227618D01*
X396323Y2230466D01*
X407593Y2235134D01*
X417994Y2241508D01*
X427270Y2249431D01*
X435193Y2258707D01*
X441566Y2269108D01*
X446235Y2280378D01*
X449082Y2292240D01*
X450039Y2304401D01*
X449082Y2316562D01*
X446235Y2328424D01*
X441566Y2339694D01*
X435193Y2350095D01*
X427270Y2359371D01*
X417994Y2367293D01*
X407593Y2373667D01*
X396323Y2378335D01*
X384461Y2381183D01*
X372300Y2382140D01*
D02*
G37*
G36*
X2723991Y2210000D02*
X2690000D01*
Y2176009D01*
X2697304Y2178224D01*
X2705122Y2182403D01*
X2711974Y2188026D01*
X2717597Y2194878D01*
X2721776Y2202696D01*
X2723991Y2210000D01*
D02*
G37*
G36*
X2670000D02*
X2636009D01*
X2638224Y2202696D01*
X2642403Y2194878D01*
X2648026Y2188026D01*
X2654878Y2182403D01*
X2662696Y2178224D01*
X2670000Y2176009D01*
Y2210000D01*
D02*
G37*
G36*
X1169500Y2179291D02*
Y2145300D01*
X1203491D01*
X1201276Y2152604D01*
X1197097Y2160422D01*
X1191474Y2167274D01*
X1184622Y2172897D01*
X1176804Y2177076D01*
X1169500Y2179291D01*
D02*
G37*
G36*
X1149500D02*
X1142196Y2177076D01*
X1134378Y2172897D01*
X1127526Y2167274D01*
X1121903Y2160422D01*
X1117724Y2152604D01*
X1115509Y2145300D01*
X1149500D01*
Y2179291D01*
D02*
G37*
G36*
X1965000Y2202868D02*
Y2130900D01*
X2036968D01*
X2036736Y2133846D01*
X2033705Y2146473D01*
X2028735Y2158470D01*
X2021950Y2169542D01*
X2013516Y2179417D01*
X2003642Y2187850D01*
X1992570Y2194635D01*
X1980573Y2199605D01*
X1967946Y2202636D01*
X1965000Y2202868D01*
D02*
G37*
G36*
X3250000Y2196202D02*
X3240198Y2195237D01*
X3230773Y2192378D01*
X3222087Y2187735D01*
X3214474Y2181487D01*
X3208226Y2173873D01*
X3203583Y2165187D01*
X3200724Y2155762D01*
X3199758Y2145960D01*
X3200724Y2136159D01*
X3203583Y2126734D01*
X3208226Y2118048D01*
X3214474Y2110434D01*
X3222087Y2104186D01*
X3230773Y2099543D01*
X3240198Y2096684D01*
X3250000Y2095719D01*
X3259802Y2096684D01*
X3269227Y2099543D01*
X3277913Y2104186D01*
X3285526Y2110434D01*
X3291774Y2118048D01*
X3296417Y2126734D01*
X3299276Y2136159D01*
X3300242Y2145960D01*
X3299276Y2155762D01*
X3296417Y2165187D01*
X3291774Y2173873D01*
X3285526Y2181487D01*
X3277913Y2187735D01*
X3269227Y2192378D01*
X3259802Y2195237D01*
X3250000Y2196202D01*
D02*
G37*
G36*
X1203491Y2125300D02*
X1169500D01*
Y2091309D01*
X1176804Y2093524D01*
X1184622Y2097703D01*
X1191474Y2103326D01*
X1197097Y2110178D01*
X1201276Y2117996D01*
X1203491Y2125300D01*
D02*
G37*
G36*
X669200Y2157000D02*
X594200D01*
Y2082000D01*
X669200D01*
Y2157000D01*
D02*
G37*
G36*
X574200D02*
X499200D01*
Y2082000D01*
X574200D01*
Y2157000D01*
D02*
G37*
G36*
X1304921Y2140214D02*
X1297080Y2139442D01*
X1289539Y2137155D01*
X1282591Y2133440D01*
X1276500Y2128442D01*
X1271501Y2122351D01*
X1267787Y2115402D01*
X1265500Y2107862D01*
X1264727Y2100021D01*
X1265500Y2092180D01*
X1267787Y2084639D01*
X1271501Y2077691D01*
X1276500Y2071600D01*
X1282591Y2066601D01*
X1289539Y2062887D01*
X1297080Y2060600D01*
X1304921Y2059827D01*
X1312762Y2060600D01*
X1320302Y2062887D01*
X1327251Y2066601D01*
X1333342Y2071600D01*
X1338340Y2077691D01*
X1342055Y2084639D01*
X1344342Y2092180D01*
X1345114Y2100021D01*
X1344342Y2107862D01*
X1342055Y2115402D01*
X1338340Y2122351D01*
X1333342Y2128442D01*
X1327251Y2133440D01*
X1320302Y2137155D01*
X1312762Y2139442D01*
X1304921Y2140214D01*
D02*
G37*
G36*
X1945001Y1602901D02*
X1873032D01*
X1873264Y1599954D01*
X1876295Y1587327D01*
X1881265Y1575330D01*
X1888050Y1564258D01*
X1896483Y1554383D01*
X1906358Y1545950D01*
X1917430Y1539165D01*
X1929427Y1534195D01*
X1942054Y1531164D01*
X1945001Y1530932D01*
Y1602901D01*
D02*
G37*
G36*
X890000Y1091553D02*
X885123Y1091169D01*
X883361Y1091244D01*
X826313Y1086211D01*
X496256Y1057091D01*
X495921Y1057499D01*
X489831Y1062497D01*
X482882Y1066212D01*
X475341Y1068499D01*
X467500Y1069271D01*
X459659Y1068499D01*
X452119Y1066212D01*
X445170Y1062497D01*
X439079Y1057499D01*
X434081Y1051408D01*
X430366Y1044459D01*
X428079Y1036919D01*
X427307Y1029078D01*
X428079Y1021237D01*
X430366Y1013696D01*
X434081Y1006748D01*
X439079Y1000657D01*
X445170Y995658D01*
X452119Y991944D01*
X459659Y989657D01*
X467500Y988884D01*
X475341Y989657D01*
X482882Y991944D01*
X489831Y995658D01*
X495921Y1000657D01*
X500746Y1006535D01*
X842007Y1036645D01*
X850831Y1024674D01*
X850579Y1023841D01*
X849807Y1016000D01*
X849885Y1015200D01*
X842067Y1008553D01*
X840934Y1007299D01*
X837577Y1004432D01*
X829877Y995417D01*
X823682Y985308D01*
X819145Y974355D01*
X816378Y962827D01*
X815726Y954541D01*
X815495Y952786D01*
X815514Y952643D01*
X815496Y952500D01*
X819261Y617712D01*
X820200Y611154D01*
X822804Y605062D01*
X825208Y602001D01*
X825227Y601970D01*
X825371Y601793D01*
X826895Y599852D01*
X827043Y599742D01*
X849659Y571986D01*
X849579Y571721D01*
X848807Y563880D01*
X849579Y556039D01*
X851866Y548499D01*
X855580Y541550D01*
X860579Y535459D01*
X866670Y530460D01*
X873619Y526746D01*
X881159Y524459D01*
X889000Y523687D01*
X896841Y524459D01*
X904381Y526746D01*
X911330Y530460D01*
X917421Y535459D01*
X922420Y541550D01*
X926134Y548499D01*
X928421Y556039D01*
X929193Y563880D01*
X928421Y571721D01*
X926134Y579261D01*
X922420Y586210D01*
X917421Y592301D01*
X911330Y597300D01*
X904381Y601014D01*
X896841Y603301D01*
X889000Y604073D01*
X888985Y604072D01*
X869909Y627482D01*
X866797Y904218D01*
X870030Y907735D01*
X879402Y912743D01*
X883214Y911587D01*
X891055Y910815D01*
X895881Y911290D01*
X1263326Y560077D01*
X1260210Y545487D01*
X1258111Y544365D01*
X1251258Y538741D01*
X1245635Y531889D01*
X1241456Y524072D01*
X1239241Y516768D01*
X1283232D01*
Y506768D01*
X1293232D01*
Y462776D01*
X1300536Y464992D01*
X1307627Y468782D01*
X1310993Y462484D01*
X1315992Y456394D01*
X1322082Y451395D01*
X1329031Y447681D01*
X1336571Y445394D01*
X1344413Y444621D01*
X1352254Y445394D01*
X1359794Y447681D01*
X1366743Y451395D01*
X1372834Y456394D01*
X1377832Y462484D01*
X1381547Y469433D01*
X1383834Y476973D01*
X1384606Y484815D01*
X1383834Y492656D01*
X1381547Y500196D01*
X1377832Y507145D01*
X1372834Y513236D01*
X1366743Y518234D01*
X1359794Y521949D01*
X1357826Y522546D01*
X1354323Y532299D01*
X1353604Y533696D01*
X1350550Y541068D01*
X1344356Y551176D01*
X1336656Y560191D01*
X1335758Y560958D01*
X1335425Y561373D01*
X930950Y947980D01*
X931249Y951008D01*
X930476Y958849D01*
X928189Y966390D01*
X924475Y973339D01*
X919476Y979429D01*
X918421Y980295D01*
Y987579D01*
X923420Y993670D01*
X927134Y1000619D01*
X927741Y1002620D01*
X939742Y1007755D01*
X942134Y1007662D01*
X1095678Y891611D01*
X1105275Y883843D01*
X1105276Y883843D01*
X1114418Y875807D01*
X1114935Y875337D01*
X1376296Y628723D01*
X1373065Y620923D01*
X1370217Y609061D01*
X1369260Y596900D01*
X1370217Y584739D01*
X1373065Y572877D01*
X1377734Y561607D01*
X1384107Y551206D01*
X1392030Y541930D01*
X1401306Y534007D01*
X1411707Y527634D01*
X1422977Y522965D01*
X1434839Y520118D01*
X1447000Y519161D01*
X1459161Y520118D01*
X1471023Y522965D01*
X1482293Y527634D01*
X1492694Y534007D01*
X1501970Y541930D01*
X1509893Y551206D01*
X1516266Y561607D01*
X1520934Y572877D01*
X1523782Y584739D01*
X1524739Y596900D01*
X1523782Y609061D01*
X1520934Y620923D01*
X1516266Y632193D01*
X1509893Y642594D01*
X1501970Y651870D01*
X1492694Y659793D01*
X1482293Y666166D01*
X1471023Y670835D01*
X1459161Y673682D01*
X1447000Y674639D01*
X1434839Y673682D01*
X1422977Y670835D01*
X1411707Y666166D01*
X1411017Y665744D01*
X1140411Y921080D01*
X1138996Y922102D01*
X1138123Y922819D01*
X1136743Y924193D01*
X1136711Y924217D01*
X1136652Y924251D01*
X1136604Y924299D01*
X935546Y1076261D01*
X935166Y1076477D01*
X934409Y1077124D01*
X924300Y1083318D01*
X913347Y1087855D01*
X901819Y1090623D01*
X890000Y1091553D01*
D02*
G37*
G36*
X440620Y1170280D02*
X432779Y1169507D01*
X425239Y1167220D01*
X418290Y1163506D01*
X412199Y1158507D01*
X407201Y1152417D01*
X403486Y1145468D01*
X401199Y1137927D01*
X400427Y1130086D01*
X401199Y1122245D01*
X403486Y1114705D01*
X407201Y1107756D01*
X412199Y1101665D01*
X418290Y1096667D01*
X425239Y1092952D01*
X432779Y1090665D01*
X440620Y1089893D01*
X448461Y1090665D01*
X456002Y1092952D01*
X462951Y1096667D01*
X469041Y1101665D01*
X474040Y1107756D01*
X477754Y1114705D01*
X480041Y1122245D01*
X480814Y1130086D01*
X480041Y1137927D01*
X477754Y1145468D01*
X474040Y1152417D01*
X469041Y1158507D01*
X462951Y1163506D01*
X456002Y1167220D01*
X448461Y1169507D01*
X440620Y1170280D01*
D02*
G37*
G36*
X743986Y922393D02*
X736145Y921621D01*
X728605Y919334D01*
X721656Y915619D01*
X715565Y910621D01*
X710567Y904530D01*
X706852Y897581D01*
X704565Y890041D01*
X703793Y882200D01*
X704565Y874358D01*
X706852Y866818D01*
X710567Y859869D01*
X715565Y853779D01*
X721656Y848780D01*
X728605Y845066D01*
X736145Y842779D01*
X743986Y842006D01*
X751828Y842779D01*
X759368Y845066D01*
X766317Y848780D01*
X772407Y853779D01*
X777406Y859869D01*
X781120Y866818D01*
X783407Y874358D01*
X784180Y882200D01*
X783407Y890041D01*
X781120Y897581D01*
X777406Y904530D01*
X772407Y910621D01*
X766317Y915619D01*
X759368Y919334D01*
X751828Y921621D01*
X743986Y922393D01*
D02*
G37*
G36*
X475100Y797732D02*
X467259Y796960D01*
X459719Y794673D01*
X452770Y790958D01*
X446679Y785960D01*
X441681Y779869D01*
X437966Y772920D01*
X435679Y765380D01*
X434907Y757538D01*
X435679Y749697D01*
X437966Y742157D01*
X441681Y735208D01*
X446679Y729117D01*
X452770Y724119D01*
X459719Y720404D01*
X467259Y718117D01*
X475100Y717345D01*
X482942Y718117D01*
X490482Y720404D01*
X497431Y724119D01*
X503521Y729117D01*
X508520Y735208D01*
X512234Y742157D01*
X514521Y749697D01*
X515294Y757538D01*
X514521Y765380D01*
X512234Y772920D01*
X508520Y779869D01*
X503521Y785960D01*
X497431Y790958D01*
X490482Y794673D01*
X482942Y796960D01*
X475100Y797732D01*
D02*
G37*
G36*
X303000Y733193D02*
X295159Y732421D01*
X287618Y730134D01*
X280669Y726419D01*
X274579Y721421D01*
X269580Y715330D01*
X265866Y708381D01*
X263579Y700841D01*
X262806Y693000D01*
X263579Y685159D01*
X265866Y677618D01*
X269580Y670669D01*
X274579Y664579D01*
X280669Y659580D01*
X287618Y655866D01*
X295159Y653579D01*
X303000Y652806D01*
X310841Y653579D01*
X318381Y655866D01*
X325330Y659580D01*
X331421Y664579D01*
X336419Y670669D01*
X340134Y677618D01*
X342421Y685159D01*
X343193Y693000D01*
X342421Y700841D01*
X340134Y708381D01*
X336419Y715330D01*
X331421Y721421D01*
X325330Y726419D01*
X318381Y730134D01*
X310841Y732421D01*
X303000Y733193D01*
D02*
G37*
G36*
X1050000Y694193D02*
X1042159Y693421D01*
X1034618Y691134D01*
X1027670Y687420D01*
X1021579Y682421D01*
X1016580Y676330D01*
X1012866Y669381D01*
X1010579Y661841D01*
X1009806Y654000D01*
X1010579Y646159D01*
X1012866Y638618D01*
X1016580Y631670D01*
X1021579Y625579D01*
X1027670Y620580D01*
X1034618Y616866D01*
X1042159Y614579D01*
X1050000Y613806D01*
X1057841Y614579D01*
X1065381Y616866D01*
X1072330Y620580D01*
X1078421Y625579D01*
X1083419Y631670D01*
X1087134Y638618D01*
X1089421Y646159D01*
X1090193Y654000D01*
X1089421Y661841D01*
X1087134Y669381D01*
X1083419Y676330D01*
X1078421Y682421D01*
X1072330Y687420D01*
X1065381Y691134D01*
X1057841Y693421D01*
X1050000Y694193D01*
D02*
G37*
G36*
X731000Y646991D02*
Y613000D01*
X764991D01*
X762776Y620304D01*
X758597Y628122D01*
X752974Y634974D01*
X746122Y640597D01*
X738304Y644776D01*
X731000Y646991D01*
D02*
G37*
G36*
X711000D02*
X703696Y644776D01*
X695878Y640597D01*
X689026Y634974D01*
X683403Y628122D01*
X679224Y620304D01*
X677009Y613000D01*
X711000D01*
Y646991D01*
D02*
G37*
G36*
X764991Y593000D02*
X731000D01*
Y559009D01*
X738304Y561224D01*
X746122Y565403D01*
X752974Y571026D01*
X758597Y577878D01*
X762776Y585696D01*
X764991Y593000D01*
D02*
G37*
G36*
X711000D02*
X677009D01*
X679224Y585696D01*
X683403Y577878D01*
X689026Y571026D01*
X695878Y565403D01*
X703696Y561224D01*
X711000Y559009D01*
Y593000D01*
D02*
G37*
G36*
X2036968Y586900D02*
X1965000D01*
Y514932D01*
X1967946Y515164D01*
X1980573Y518195D01*
X1992570Y523165D01*
X2003642Y529950D01*
X2013516Y538383D01*
X2021950Y548258D01*
X2028735Y559330D01*
X2033705Y571327D01*
X2036736Y583954D01*
X2036968Y586900D01*
D02*
G37*
G36*
X1188900Y594502D02*
X1181059Y593730D01*
X1173519Y591443D01*
X1166570Y587728D01*
X1160479Y582730D01*
X1155481Y576639D01*
X1151766Y569690D01*
X1149479Y562150D01*
X1148707Y554309D01*
X1149479Y546468D01*
X1151766Y538927D01*
X1155481Y531978D01*
X1160479Y525888D01*
X1166570Y520889D01*
X1173519Y517175D01*
X1181059Y514888D01*
X1188900Y514115D01*
X1196741Y514888D01*
X1204282Y517175D01*
X1211230Y520889D01*
X1217321Y525888D01*
X1222320Y531978D01*
X1226034Y538927D01*
X1228321Y546468D01*
X1229094Y554309D01*
X1228321Y562150D01*
X1226034Y569690D01*
X1222320Y576639D01*
X1217321Y582730D01*
X1211230Y587728D01*
X1204282Y591443D01*
X1196741Y593730D01*
X1188900Y594502D01*
D02*
G37*
G36*
X606000Y571193D02*
X598159Y570421D01*
X590619Y568134D01*
X583670Y564419D01*
X577579Y559421D01*
X572581Y553330D01*
X568866Y546381D01*
X566579Y538841D01*
X565807Y531000D01*
X566579Y523159D01*
X568866Y515618D01*
X572581Y508670D01*
X577579Y502579D01*
X583670Y497580D01*
X590619Y493866D01*
X598159Y491579D01*
X606000Y490806D01*
X613841Y491579D01*
X621382Y493866D01*
X628330Y497580D01*
X634421Y502579D01*
X639420Y508670D01*
X643134Y515618D01*
X645421Y523159D01*
X646194Y531000D01*
X645421Y538841D01*
X643134Y546381D01*
X639420Y553330D01*
X634421Y559421D01*
X628330Y564419D01*
X621382Y568134D01*
X613841Y570421D01*
X606000Y571193D01*
D02*
G37*
G36*
X1273232Y496768D02*
X1239241D01*
X1241456Y489464D01*
X1245635Y481646D01*
X1251258Y474794D01*
X1258111Y469171D01*
X1265928Y464992D01*
X1273232Y462776D01*
Y496768D01*
D02*
G37*
G36*
X2130000Y540193D02*
X2122159Y539421D01*
X2114619Y537134D01*
X2107670Y533420D01*
X2101579Y528421D01*
X2096581Y522330D01*
X2092866Y515381D01*
X2090579Y507841D01*
X2089807Y500000D01*
X2090579Y492159D01*
X2092866Y484619D01*
X2096581Y477670D01*
X2101579Y471579D01*
X2107670Y466580D01*
X2114619Y462866D01*
X2122159Y460579D01*
X2130000Y459807D01*
X2137841Y460579D01*
X2145382Y462866D01*
X2152330Y466580D01*
X2158421Y471579D01*
X2163420Y477670D01*
X2167134Y484619D01*
X2169421Y492159D01*
X2170194Y500000D01*
X2169421Y507841D01*
X2167134Y515381D01*
X2163420Y522330D01*
X2158421Y528421D01*
X2152330Y533420D01*
X2145382Y537134D01*
X2137841Y539421D01*
X2130000Y540193D01*
D02*
G37*
G36*
X2490000Y528514D02*
X2482159Y527742D01*
X2474619Y525455D01*
X2467670Y521740D01*
X2461579Y516742D01*
X2456581Y510651D01*
X2452866Y503702D01*
X2450579Y496162D01*
X2449807Y488321D01*
X2450579Y480480D01*
X2452866Y472939D01*
X2456581Y465990D01*
X2461579Y459900D01*
X2467670Y454901D01*
X2474619Y451187D01*
X2482159Y448900D01*
X2490000Y448127D01*
X2497841Y448900D01*
X2505382Y451187D01*
X2512331Y454901D01*
X2518421Y459900D01*
X2523420Y465990D01*
X2527134Y472939D01*
X2529421Y480480D01*
X2530194Y488321D01*
X2529421Y496162D01*
X2527134Y503702D01*
X2523420Y510651D01*
X2518421Y516742D01*
X2512331Y521740D01*
X2505382Y525455D01*
X2497841Y527742D01*
X2490000Y528514D01*
D02*
G37*
G36*
X2719000Y527194D02*
X2711159Y526421D01*
X2703618Y524134D01*
X2696669Y520420D01*
X2690579Y515421D01*
X2685580Y509330D01*
X2681866Y502382D01*
X2679579Y494841D01*
X2678806Y487000D01*
X2679579Y479159D01*
X2681866Y471619D01*
X2685580Y464670D01*
X2690579Y458579D01*
X2696669Y453580D01*
X2703618Y449866D01*
X2711159Y447579D01*
X2719000Y446807D01*
X2726841Y447579D01*
X2734381Y449866D01*
X2741330Y453580D01*
X2747421Y458579D01*
X2752419Y464670D01*
X2756134Y471619D01*
X2758421Y479159D01*
X2759193Y487000D01*
X2758421Y494841D01*
X2756134Y502382D01*
X2752419Y509330D01*
X2747421Y515421D01*
X2741330Y520420D01*
X2734381Y524134D01*
X2726841Y526421D01*
X2719000Y527194D01*
D02*
G37*
G36*
X860000Y315193D02*
X852159Y314421D01*
X844619Y312134D01*
X837670Y308419D01*
X831579Y303421D01*
X826581Y297330D01*
X822866Y290381D01*
X820579Y282841D01*
X819807Y275000D01*
X820579Y267159D01*
X822866Y259618D01*
X826581Y252670D01*
X831579Y246579D01*
X837670Y241580D01*
X844619Y237866D01*
X852159Y235579D01*
X860000Y234806D01*
X867841Y235579D01*
X875382Y237866D01*
X882330Y241580D01*
X888421Y246579D01*
X893420Y252670D01*
X897134Y259618D01*
X899421Y267159D01*
X900194Y275000D01*
X899421Y282841D01*
X897134Y290381D01*
X893420Y297330D01*
X888421Y303421D01*
X882330Y308419D01*
X875382Y312134D01*
X867841Y314421D01*
X860000Y315193D01*
D02*
G37*
G36*
X1026000Y216711D02*
Y182720D01*
X1059991D01*
X1057776Y190024D01*
X1053597Y197842D01*
X1047974Y204694D01*
X1041122Y210317D01*
X1033304Y214496D01*
X1026000Y216711D01*
D02*
G37*
G36*
X1006000D02*
X998696Y214496D01*
X990878Y210317D01*
X984026Y204694D01*
X978403Y197842D01*
X974224Y190024D01*
X972009Y182720D01*
X1006000D01*
Y216711D01*
D02*
G37*
G36*
X669816Y239057D02*
X661975Y238285D01*
X654435Y235997D01*
X647486Y232283D01*
X641395Y227285D01*
X636397Y221194D01*
X632682Y214245D01*
X630395Y206705D01*
X629623Y198863D01*
X630395Y191022D01*
X632682Y183482D01*
X636397Y176533D01*
X641395Y170442D01*
X647486Y165444D01*
X654435Y161729D01*
X661975Y159442D01*
X669816Y158670D01*
X677658Y159442D01*
X685198Y161729D01*
X692147Y165444D01*
X698237Y170442D01*
X703236Y176533D01*
X706950Y183482D01*
X709237Y191022D01*
X710010Y198863D01*
X709237Y206705D01*
X706950Y214245D01*
X703236Y221194D01*
X698237Y227285D01*
X692147Y232283D01*
X685198Y235997D01*
X677658Y238285D01*
X669816Y239057D01*
D02*
G37*
G36*
X2778000Y235000D02*
X2693000D01*
Y150000D01*
X2778000D01*
Y235000D01*
D02*
G37*
G36*
X2673000D02*
X2588000D01*
Y150000D01*
X2673000D01*
Y235000D01*
D02*
G37*
G36*
X1153160Y212913D02*
X1145319Y212141D01*
X1137779Y209854D01*
X1130830Y206140D01*
X1124739Y201141D01*
X1119740Y195050D01*
X1116026Y188101D01*
X1113739Y180561D01*
X1112967Y172720D01*
X1113739Y164879D01*
X1116026Y157339D01*
X1119740Y150390D01*
X1124739Y144299D01*
X1130830Y139300D01*
X1137779Y135586D01*
X1145319Y133299D01*
X1153160Y132527D01*
X1161001Y133299D01*
X1168541Y135586D01*
X1175490Y139300D01*
X1181581Y144299D01*
X1186580Y150390D01*
X1190294Y157339D01*
X1192581Y164879D01*
X1193353Y172720D01*
X1192581Y180561D01*
X1190294Y188101D01*
X1186580Y195050D01*
X1181581Y201141D01*
X1175490Y206140D01*
X1168541Y209854D01*
X1161001Y212141D01*
X1153160Y212913D01*
D02*
G37*
G36*
X1059991Y162720D02*
X1026000D01*
Y128729D01*
X1033304Y130944D01*
X1041122Y135123D01*
X1047974Y140746D01*
X1053597Y147598D01*
X1057776Y155416D01*
X1059991Y162720D01*
D02*
G37*
G36*
X1006000D02*
X972009D01*
X974224Y155416D01*
X978403Y147598D01*
X984026Y140746D01*
X990878Y135123D01*
X998696Y130944D01*
X1006000Y128729D01*
Y162720D01*
D02*
G37*
G36*
X472440Y202753D02*
X464599Y201981D01*
X457059Y199694D01*
X450110Y195980D01*
X444019Y190981D01*
X439020Y184890D01*
X435306Y177941D01*
X433019Y170401D01*
X432247Y162560D01*
X433019Y154719D01*
X435306Y147179D01*
X439020Y140230D01*
X444019Y134139D01*
X450110Y129140D01*
X457059Y125426D01*
X464599Y123139D01*
X472440Y122367D01*
X480281Y123139D01*
X487821Y125426D01*
X494770Y129140D01*
X500861Y134139D01*
X505860Y140230D01*
X509574Y147179D01*
X511861Y154719D01*
X512633Y162560D01*
X511861Y170401D01*
X509574Y177941D01*
X505860Y184890D01*
X500861Y190981D01*
X494770Y195980D01*
X487821Y199694D01*
X480281Y201981D01*
X472440Y202753D01*
D02*
G37*
G36*
X200000Y202193D02*
X192159Y201421D01*
X184619Y199134D01*
X177670Y195419D01*
X171579Y190421D01*
X166581Y184330D01*
X162866Y177381D01*
X160579Y169841D01*
X159807Y162000D01*
X160579Y154159D01*
X162866Y146618D01*
X166581Y139670D01*
X171579Y133579D01*
X177670Y128580D01*
X184619Y124866D01*
X192159Y122579D01*
X200000Y121806D01*
X207841Y122579D01*
X215382Y124866D01*
X222331Y128580D01*
X228421Y133579D01*
X233420Y139670D01*
X237134Y146618D01*
X239421Y154159D01*
X240194Y162000D01*
X239421Y169841D01*
X237134Y177381D01*
X233420Y184330D01*
X228421Y190421D01*
X222331Y195419D01*
X215382Y199134D01*
X207841Y201421D01*
X200000Y202193D01*
D02*
G37*
G36*
X2197991Y143000D02*
X2164000D01*
Y109009D01*
X2171304Y111224D01*
X2179122Y115403D01*
X2185974Y121026D01*
X2191597Y127878D01*
X2195776Y135696D01*
X2197991Y143000D01*
D02*
G37*
G36*
X2144000D02*
X2110009D01*
X2112224Y135696D01*
X2116403Y127878D01*
X2122026Y121026D01*
X2128878Y115403D01*
X2136696Y111224D01*
X2144000Y109009D01*
Y143000D01*
D02*
G37*
G36*
X2370080Y198641D02*
X2360278Y197675D01*
X2350853Y194816D01*
X2342167Y190174D01*
X2334554Y183925D01*
X2328306Y176312D01*
X2323663Y167626D01*
X2320804Y158201D01*
X2319838Y148399D01*
X2320804Y138598D01*
X2323663Y129172D01*
X2328306Y120486D01*
X2334554Y112873D01*
X2342167Y106625D01*
X2350853Y101982D01*
X2360278Y99123D01*
X2370080Y98158D01*
X2379882Y99123D01*
X2389307Y101982D01*
X2397993Y106625D01*
X2405606Y112873D01*
X2411854Y120486D01*
X2416497Y129172D01*
X2419356Y138598D01*
X2420322Y148399D01*
X2419356Y158201D01*
X2416497Y167626D01*
X2411854Y176312D01*
X2405606Y183925D01*
X2397993Y190174D01*
X2389307Y194816D01*
X2379882Y197675D01*
X2370080Y198641D01*
D02*
G37*
G36*
X2937000Y230278D02*
X2922877Y229167D01*
X2909102Y225860D01*
X2896015Y220438D01*
X2883936Y213037D01*
X2873164Y203836D01*
X2863963Y193064D01*
X2856561Y180985D01*
X2851140Y167898D01*
X2847833Y154123D01*
X2846722Y140000D01*
X2847833Y125877D01*
X2851140Y112102D01*
X2856561Y99015D01*
X2863963Y86936D01*
X2873164Y76164D01*
X2883936Y66963D01*
X2896015Y59561D01*
X2909102Y54140D01*
X2922877Y50833D01*
X2937000Y49722D01*
X2951123Y50833D01*
X2964898Y54140D01*
X2977985Y59561D01*
X2990064Y66963D01*
X3000836Y76164D01*
X3010037Y86936D01*
X3017438Y99015D01*
X3022860Y112102D01*
X3026167Y125877D01*
X3027278Y140000D01*
X3026167Y154123D01*
X3022860Y167898D01*
X3017438Y180985D01*
X3010037Y193064D01*
X3000836Y203836D01*
X2990064Y213037D01*
X2977985Y220438D01*
X2964898Y225860D01*
X2951123Y229167D01*
X2937000Y230278D01*
D02*
G37*
G36*
X2778000Y130000D02*
X2693000D01*
Y45000D01*
X2778000D01*
Y130000D01*
D02*
G37*
G36*
X2673000D02*
X2588000D01*
Y45000D01*
X2673000D01*
Y130000D01*
D02*
G37*
%LPD*%
D10*
X1994826Y1268251D02*
G03*
X2004221Y1265176I20174J45749D01*
G01*
X2616037Y705958D02*
G03*
X2613823Y706000I-2037J-49958D01*
G01*
X2616162Y705953D02*
G03*
X2616037Y705958I-2162J-49953D01*
G01*
X1877776Y2079758D02*
G03*
X1879362Y2076909I77224J41142D01*
G01*
X1605711Y2294327D02*
G03*
X1569626Y2307156I-68257J-134827D01*
G01*
X1356349Y1552439D02*
G03*
X1343880Y1557521I-24934J-43339D01*
G01*
X1044988Y1732789D02*
G03*
X1043734Y1732821I-1497J-34968D01*
G01*
X1356349Y1552439D02*
G03*
X1358230Y1551474I10059J17287D01*
G01*
X814412Y1734300D02*
G03*
X808957Y1733872I0J-35000D01*
G01*
X831224Y1734299D02*
G03*
X830981Y1734300I-243J-34999D01*
G01*
X2099649Y2009397D02*
G03*
X2098401Y2009597I-16657J-99576D01*
G01*
X2142469Y1991401D02*
G03*
X2099649Y2009397I-59477J-81580D01*
G01*
X2099835Y2188238D02*
G03*
X2101635Y2186631I47834J51762D01*
G01*
X1677978Y2619807D02*
G03*
X1678336Y2618982I46028J19530D01*
G01*
X1705401Y2558257D02*
G03*
X1717136Y2541890I45669J20354D01*
G01*
X2316039Y706284D02*
G03*
X2326210Y705687I10078J84722D01*
G01*
X2315565Y706342D02*
G03*
X2316039Y706284I10552J84665D01*
G01*
X1283304Y1687633D02*
G03*
X1290140Y1687913I-64J85000D01*
G01*
X1460831Y1699300D02*
G03*
X1439699Y1700095I-13831J-86400D01*
G01*
X1477374Y1694959D02*
G03*
X1460831Y1699300I-30374J-82059D01*
G01*
X1359779Y1018429D02*
G03*
X1396116Y993116I87221J86471D01*
G01*
X1726562Y776049D02*
G03*
X1729530Y774929I33437J84076D01*
G01*
X1972879Y687900D02*
G03*
X1979452Y686013I18431J51821D01*
G01*
X1283240Y1722633D02*
G03*
X1287299Y1722798I0J50000D01*
G01*
X1281022Y1722682D02*
G03*
X1283240Y1722633I2218J49951D01*
G01*
X1445317Y1735388D02*
G03*
X1437055Y1734996I1682J-122488D01*
G01*
X1930707Y2036840D02*
G03*
X1941371Y2034468I24293J84060D01*
G01*
X1879362Y2076909D02*
G03*
X1930707Y2036840I75638J43991D01*
G01*
X1358230Y1551473D02*
X1994826Y1268250D01*
X2004221Y1265176D02*
X2729396Y1107078D01*
X2739403Y1097070D02*
X2765300Y1051300D01*
X2729396Y1107078D02*
X2739403Y1097070D01*
X2295588Y708716D02*
X2315565Y706341D01*
X2759490Y697875D02*
X2800910D01*
X2635598Y705112D02*
X2759490Y697875D01*
X2616162Y705953D02*
X2635598Y705112D01*
X2294566Y708838D02*
X2295588Y708716D01*
X2998411Y703895D02*
X3003000Y704000D01*
X2800910Y697875D02*
X2998411Y703895D01*
X1829240Y2171237D02*
X1877776Y2079758D01*
X1799950Y2200526D02*
X1829240Y2171237D01*
X1605711Y2294327D02*
X1799950Y2200526D01*
X1006052Y1644492D02*
X1343880Y1557521D01*
X993120Y1647821D02*
X1006052Y1644492D01*
X1201638Y1726081D02*
X1281022Y1722682D01*
X1043491Y1697821D02*
X1248032Y1687633D01*
X830981Y1699300D02*
X1043491Y1697821D01*
X1044988Y1732789D02*
X1201638Y1726081D01*
X831224Y1734299D02*
X1043734Y1732820D01*
X814412Y1699300D02*
X830981D01*
X2308671Y1865989D02*
X3302164Y922415D01*
X3302351Y922238D01*
X3329213Y895375D01*
X3352887Y244557D01*
X2022118Y2021679D02*
X2098401Y2009597D01*
X3352887Y244557D02*
X3353000Y242000D01*
X2296955Y1877705D02*
X2308671Y1865989D01*
X2293023Y1881637D02*
X2296955Y1877705D01*
X1678336Y2618982D02*
X1705401Y2558257D01*
X1534400Y2958200D02*
X1539000Y2949192D01*
X1717136Y2541890D02*
X1731521Y2528596D01*
X2098821Y2189174D02*
X2099835Y2188237D01*
X1731521Y2528596D02*
X2098821Y2189174D01*
X2101635Y2186630D02*
X2138491Y2154840D01*
X1923718Y752952D02*
X2294566Y708838D01*
X1635378Y884204D02*
X1923718Y752952D01*
X2326210Y705687D02*
X2613823Y705999D01*
X1248032Y1687633D02*
X1283304D01*
X1439625Y1700089D02*
X1439699Y1700095D01*
X1290140Y1687913D02*
X1439625Y1700089D01*
X1514551Y1681198D02*
X1527440Y1676427D01*
X1477374Y1694959D02*
X1514551Y1681198D01*
X1396116Y993116D02*
X1635378Y884204D01*
X936840Y1445036D02*
X1359779Y1018429D01*
X1551458Y845689D02*
X1726562Y776049D01*
X1729530Y774928D02*
X1972879Y687900D01*
X2158101Y646572D02*
X3006000Y569000D01*
X1979452Y686013D02*
X2158101Y646572D01*
X1436976Y1734989D02*
X1437055Y1734996D01*
X1287299Y1722798D02*
X1436976Y1734989D01*
X1445495Y1735391D02*
X1780846Y1739997D01*
X1445317Y1735388D02*
X1445495Y1735391D01*
X799914Y1734300D02*
X814412D01*
X830981D01*
X1079822Y2413876D02*
X1420649Y2339615D01*
X1015000Y2428000D02*
X1079822Y2413876D01*
X338889Y1223778D02*
X808554Y1693442D01*
X191420Y1125805D02*
X799914Y1734300D01*
X808554Y1693442D02*
X814412Y1699300D01*
X338889Y1054378D02*
Y1223778D01*
X191420Y901338D02*
Y1125805D01*
X2142469Y1991400D02*
X2293023Y1881637D01*
X1941371Y2034468D02*
X2022118Y2021679D01*
X1420649Y2339615D02*
X1569626Y2307156D01*
X1539000Y2949192D02*
X1604207Y2794647D01*
X1677978Y2619807D01*
X2489715Y1851892D02*
X2491205Y1850606D01*
X2235036Y2071565D02*
X2489715Y1851892D01*
X2138491Y2154840D02*
X2235036Y2071565D01*
X340000Y780000D02*
Y1054378D01*
D11*
X2341565Y940231D02*
G03*
X2341458Y940230I-8J-20321D01*
G01*
X972584Y1602058D02*
G03*
X974183Y1601373I20536J45763D01*
G01*
X1987624Y1233360D02*
G03*
X1988720Y1232996I27376J80640D01*
G01*
X2004986Y1684911D02*
G03*
X1993429Y1691687I-49986J-72011D01*
G01*
X550090Y1865879D02*
G03*
X552274Y1864961I34210J78336D01*
G01*
X1803027Y1784986D02*
G03*
X1785388Y1789951I-22181J-44989D01*
G01*
X2171029Y930030D02*
G03*
X2172481Y929730I10860J48970D01*
G01*
D02*
G03*
X2185533Y928973I9408J49270D01*
G01*
X2803323Y793412D02*
G03*
X2793231Y797337I-23123J-44512D01*
G01*
X983065Y1464509D02*
G03*
X982458Y1465892I-46226J-19473D01*
G01*
X1596993Y2259008D02*
G03*
X1545095Y2275208I-59539J-99508D01*
G01*
X983167Y1464279D02*
G03*
X992986Y1449620I45934J20152D01*
G01*
X1425686Y1858061D02*
G03*
X1423705Y1858111I-2401J-55589D01*
G01*
X2015694Y1719859D02*
G03*
X2008977Y1723401I-60695J-106959D01*
G01*
X1312384Y1462690D02*
G03*
X1315290Y1461602I19031J46410D01*
G01*
X1940764Y175396D02*
G03*
X1939873Y175245I14235J-86496D01*
G01*
X3048514Y725083D02*
G03*
X3009565Y753728I-45514J-21083D01*
G01*
X3028585Y747144D02*
G03*
X2997023Y753803I-25585J-43144D01*
G01*
X2820049Y945163D02*
G03*
X2824066Y945652I-4049J49996D01*
G01*
X2817278Y945016D02*
G03*
X2820049Y945163I-1278J50144D01*
G01*
X2816640Y945004D02*
G03*
X2817278Y945016I-640J50156D01*
G01*
X2816504Y945002D02*
G03*
X2816640Y945004I-504J50157D01*
G01*
X2341458Y940230D02*
G03*
X2338282Y940100I468J-50158D01*
G01*
X2887877Y749488D02*
G03*
X2916976Y744197I23123J44512D01*
G01*
X2356966Y2214076D02*
G03*
X2330401Y2234181I-63879J-56800D01*
G01*
X2288314Y2254602D02*
G03*
X2281520Y2257076I-15418J-31777D01*
G01*
X1557206Y3184647D02*
G03*
X1562489Y3181236I29793J40353D01*
G01*
X1538805Y3211097D02*
G03*
X1557206Y3184647I48195J13903D01*
G01*
X1864443Y2596448D02*
G03*
X1862588Y2599709I-18515J-8374D01*
G01*
X2035333Y2304340D02*
G03*
X2034850Y2304893I-15531J-13104D01*
G01*
X1847407Y2513048D02*
G03*
X1853487Y2504728I43323J25281D01*
G01*
X1673843Y3010826D02*
G03*
X1676149Y3005451I19634J5238D01*
G01*
X1944459Y2571210D02*
G03*
X1944118Y2571796I-17726J-9936D01*
G01*
X2331988Y2188941D02*
G03*
X2314857Y2202465I-38901J-31665D01*
G01*
X1977770Y2583922D02*
G03*
X1977064Y2585272I-49657J-25101D01*
G01*
X1702125Y3094092D02*
G03*
X1682500Y3114021I-44135J-23835D01*
G01*
X1531344Y3236961D02*
G03*
X1516301Y3260701I-48195J-13903D01*
G01*
X1794393Y2603892D02*
G03*
X1791179Y2608733I-43323J-25281D01*
G01*
X1946169Y2568143D02*
G03*
X1945878Y2568680I-18016J-9399D01*
G01*
X2137378Y2250291D02*
G03*
X2156880Y2240418I24920J25029D01*
G01*
X2137323Y2250345D02*
G03*
X2137378Y2250291I24975J24975D01*
G01*
X2081029Y2306640D02*
G03*
X2081083Y2306585I25029J24920D01*
G01*
X2074601Y2315500D02*
G03*
X2081029Y2306640I31458J16060D01*
G01*
X1786737Y2613880D02*
G03*
X1765587Y2626624I-35667J-35269D01*
G01*
X1791179Y2608733D02*
G03*
X1786737Y2613880I-40108J-30122D01*
G01*
X2638953Y1892561D02*
G03*
X2638211Y1893536I-40278J-29895D01*
G01*
X2122752Y2214967D02*
G03*
X2137079Y2206305I24916J25033D01*
G01*
X2319913Y741232D02*
G03*
X2327007Y740854I6204J49775D01*
G01*
X2319738Y741254D02*
G03*
X2319913Y741232I6379J49753D01*
G01*
X2319715Y741257D02*
G03*
X2319738Y741254I6402J49750D01*
G01*
X1385108Y1042822D02*
G03*
X1426427Y1019688I61891J62078D01*
G01*
X1834852Y840182D02*
G03*
X1838691Y838923I8223J18583D01*
G01*
X1337799Y990738D02*
G03*
X1359509Y973359I109200J114162D01*
G01*
X1130360Y1189163D02*
G03*
X1127778Y1191479I-34760J-36163D01*
G01*
X1383885Y1044066D02*
G03*
X1384922Y1043009I63115J60834D01*
G01*
D02*
G03*
X1385108Y1042822I62078J61891D01*
G01*
X1378518Y897481D02*
G03*
X1380710Y895550I24418J25519D01*
G01*
X1818459Y1816757D02*
G03*
X1791151Y1824853I-37613J-76760D01*
G01*
X767641Y1816460D02*
G03*
X768928Y1816369I2073J20215D01*
G01*
X626925Y1834796D02*
G03*
X649861Y1829055I32025J79254D01*
G01*
X555649Y1903043D02*
G03*
X565507Y1897708I28651J41172D01*
G01*
X552208Y1905665D02*
G03*
X555649Y1903043I32092J38550D01*
G01*
X649834Y1864726D02*
G03*
X658570Y1863892I9116J49325D01*
G01*
X640157Y1867544D02*
G03*
X649834Y1864726I18793J46506D01*
G01*
X2271921Y1501058D02*
G03*
X2271559Y1501320I-12084J-16338D01*
G01*
X1293003Y1901550D02*
G03*
X1337505Y1926340I997J50550D01*
G01*
X1293003Y1901550D02*
G03*
X1338499Y1928096I997J50550D01*
G01*
X762610Y3479414D02*
G03*
X759552Y3479839I-8427J-49447D01*
G01*
X768225Y3478122D02*
G03*
X762610Y3479414I-14042J-48154D01*
G01*
X1386501Y3120190D02*
G03*
X1386383Y3120236I-18181J-46749D01*
G01*
X1406110Y3106424D02*
G03*
X1386501Y3120190I-37790J-32983D01*
G01*
X1406189Y3106334D02*
G03*
X1406110Y3106424I-37869J-32893D01*
G01*
X1416142Y3088576D02*
G03*
X1406193Y3106330I-47822J-15135D01*
G01*
X1156498Y3217187D02*
G03*
X1177818Y3201351I39502J30913D01*
G01*
X1010448Y3376876D02*
G03*
X1013476Y3373449I39062J31467D01*
G01*
X995368Y3395719D02*
G03*
X952557Y3424371I-66739J-53411D01*
G01*
X1123175Y3259768D02*
G03*
X1119706Y3263750I-39502J-30913D01*
G01*
X967790Y3373651D02*
G03*
X938879Y3391410I-39162J-31342D01*
G01*
X967978Y3104446D02*
G03*
X1014401Y3088357I50022J69315D01*
G01*
X1181179Y2564109D02*
G03*
X1215469Y2574664I3364J50047D01*
G01*
X1299560Y2657212D02*
G03*
X1299368Y2657354I-30007J-40194D01*
G01*
X550621Y3149093D02*
G03*
X553659Y3146309I35379J35558D01*
G01*
X550442Y3149272D02*
G03*
X550621Y3149093I35558J35379D01*
G01*
X539576Y3165654D02*
G03*
X550442Y3149272I46424J18996D01*
G01*
X474379Y3314558D02*
G03*
X472938Y3315935I-35379J-35558D01*
G01*
X474558Y3314379D02*
G03*
X474379Y3314558I-35558J-35379D01*
G01*
X485424Y3297996D02*
G03*
X474558Y3314379I-46424J-18996D01*
G01*
X959142Y1608092D02*
G03*
X952789Y1610442I-20541J-45761D01*
G01*
X2439256Y1374900D02*
G03*
X2452042Y1367911I30197J40052D01*
G01*
X1122995Y902622D02*
G03*
X1121334Y904030I-13946J-14780D01*
G01*
X920245Y1056016D02*
G03*
X885591Y1065966I-30245J-40016D01*
G01*
X1330440Y523721D02*
G03*
X1317891Y543028I-47208J-16954D01*
G01*
X858507Y989220D02*
G03*
X840872Y952786I32494J-38212D01*
G01*
X1777217Y1983835D02*
G03*
X1809652Y1966927I71489J97574D01*
G01*
X2000780Y1901037D02*
G03*
X1999615Y1901510I-13856J-32489D01*
G01*
X1986244Y1906658D02*
G03*
X1984850Y1907161I-12690J-32962D01*
G01*
X1081785Y2311872D02*
G03*
X1100942Y2304540I21599J27743D01*
G01*
X982939Y2389424D02*
G03*
X983978Y2388583I32061J38576D01*
G01*
X374608Y3426253D02*
G03*
X369828Y3404982I45380J-21370D01*
G01*
X381642Y3552079D02*
G03*
X378982Y3549186I35558J-35379D01*
G01*
X381822Y3552258D02*
G03*
X381642Y3552079I35379J-35558D01*
G01*
X403878Y3565058D02*
G03*
X381822Y3552258I13323J-48358D01*
G01*
X1452074Y2542744D02*
G03*
X1446671Y2547386I-35307J-35630D01*
G01*
X1452326Y2542493D02*
G03*
X1452074Y2542744I-35558J-35378D01*
G01*
X2043495Y2294452D02*
G03*
X2045705Y2292014I27244J22478D01*
G01*
X1988720Y1232996D02*
X2678999Y996213D01*
X2685592Y995114D01*
X2811535D01*
X2341565Y940230D02*
X2767536Y940070D01*
X2805137D02*
X2816504Y945002D01*
X1964577Y975692D02*
X2170880Y930062D01*
X2171029Y930030D01*
X2767536Y940070D02*
X2805137D01*
X972462Y1602113D02*
X972584Y1602058D01*
X974183Y1601373D02*
X1069152Y1562430D01*
X1803027Y1784986D02*
X1993429Y1691687D01*
X2659433Y1291156D02*
X2723346Y1269079D01*
X1423144Y1822793D02*
X1425234Y1822699D01*
X1262463Y1822793D02*
X1423144D01*
X119300Y2054600D02*
X550090Y1865879D01*
X2004986Y1684911D02*
X2271559Y1501320D01*
X1425234Y1822699D02*
X1785282Y1789960D01*
X1785388Y1789951D01*
X2452042Y1367911D02*
X2659433Y1291156D01*
X959142Y1608092D02*
X972462Y1602113D01*
X1916077Y996159D02*
X1964577Y975692D01*
X1447000Y1104900D02*
X1916077Y996159D01*
X978941Y1473625D02*
X982391Y1466038D01*
X982458Y1465892D01*
X2790286Y798035D02*
X2793231Y797337D01*
X983065Y1464509D02*
X983167Y1464279D01*
X2327007Y740854D02*
X2344177Y741159D01*
X2343700Y887800D02*
X2790286Y798035D01*
X2344177Y741159D02*
X2780200Y747875D01*
X1544997Y2275214D02*
X1545095Y2275208D01*
X414575Y3568005D02*
X415468Y3568242D01*
X436800Y3573682D01*
X1656791Y2223309D02*
X1721356Y2184763D01*
X1779240Y2150527D01*
X1596992Y2259008D02*
X1656791Y2223309D01*
X1102226Y2304455D02*
X1544997Y2275214D01*
X403878Y3565058D02*
X414575Y3568005D01*
X1985801Y785776D02*
X1990909Y784414D01*
X1874915Y830917D02*
X1985801Y785776D01*
X1990909Y784414D02*
X2183103Y758283D01*
X2319589Y741272D02*
X2319715Y741257D01*
X2287122Y745319D02*
X2319589Y741272D01*
X949164Y1557589D02*
X978941Y1473625D01*
X1425686Y1858061D02*
X1558303Y1852331D01*
X1619575Y1845691D02*
X1725600Y1834200D01*
X2655200Y1398800D02*
X2663200Y1399400D01*
X373300Y2054600D02*
X552208Y1905664D01*
X2015694Y1719859D02*
X2292938Y1562535D01*
X677838Y1863746D02*
X1423705Y1858111D01*
X362600Y2058800D02*
X373300Y2054600D01*
X1818459Y1816757D02*
X2008977Y1723401D01*
X565507Y1897708D02*
X640157Y1867543D01*
X3233200Y270400D02*
Y540397D01*
X3048514Y725083D02*
X3233200Y540397D01*
X1315290Y1461602D02*
X1987624Y1233360D01*
X1069152Y1562430D02*
X1312384Y1462690D01*
X2514603Y1595695D02*
X3231881Y938315D01*
X3276600Y893500D02*
X3280160Y889940D01*
X3276600Y893500D02*
Y893596D01*
X3231881Y938315D02*
X3276600Y893596D01*
X3280160Y761000D02*
Y889940D01*
X369828Y3274100D02*
Y3404982D01*
Y3274100D02*
X443903Y3175871D01*
X444200Y3174500D01*
X245296Y2853589D02*
X421411D01*
X424455D02*
X435709Y2844235D01*
X982939Y2389424D01*
X1738657Y139994D02*
X1939873Y175245D01*
X1447000Y88900D02*
X1738657Y139994D01*
X3025111Y353854D02*
X3026000Y354000D01*
X2868019Y328000D02*
X3025111Y353854D01*
X1940764Y175396D02*
X2868019Y328000D01*
X3025700Y360000D02*
X3026000Y354000D01*
X2916976Y744197D02*
X2966874Y750185D01*
X2988118Y752734D02*
X2997023Y753803D01*
X2966874Y750185D02*
X2988118Y752734D01*
X2338237Y940097D02*
X2338282Y940100D01*
X2185533Y928972D02*
X2338237Y940097D01*
X2824066Y945652D02*
X3041000Y981000D01*
X2803323Y793412D02*
X2887877Y749488D01*
X2612435Y1926771D02*
X2618384Y1919100D01*
X2638211Y1893536D01*
X2356966Y2214076D02*
X2612435Y1926771D01*
X2618900Y1919500D01*
X2113909Y2323710D02*
X2146559Y2291059D01*
X2209066Y2275320D02*
X2281520Y2257076D01*
X2146559Y2291059D02*
X2209066Y2275320D01*
X2288314Y2254602D02*
X2330401Y2234181D01*
X1977770Y2583922D02*
X2106059Y2338715D01*
X2113909Y2323710D01*
X2113909Y2323709D01*
X2106059Y2331560D02*
Y2338715D01*
X1682363Y3114098D02*
X1682500Y3114021D01*
X1562489Y3181236D02*
X1682363Y3114098D01*
X1531344Y3236961D02*
X1536480Y3219156D01*
X1538805Y3211097D01*
X1702125Y3094092D02*
X1702154Y3094038D01*
X1746547Y3011880D01*
X1977064Y2585272D01*
X1862504Y2599830D02*
X1862588Y2599709D01*
X1864443Y2596448D02*
X1890729Y2538329D01*
X2035333Y2304340D02*
X2035420Y2304237D01*
X1853487Y2504728D02*
X2034850Y2304893D01*
X1794393Y2603892D02*
X1847406Y2513048D01*
X1676149Y3005450D02*
X1676191Y3005382D01*
X1657989Y3070258D02*
X1673843Y3010826D01*
X1944459Y2571210D02*
X1945877Y2568680D01*
X1946168Y2568143D02*
X1946228Y2568030D01*
X1408043Y3356043D02*
X1516301Y3260701D01*
X1944053Y2571903D02*
X1944118Y2571796D01*
X2331988Y2188941D02*
X2598675Y1862666D01*
X2272896Y2222825D02*
X2314857Y2202465D01*
X1946228Y2568030D02*
X2070739Y2323098D01*
X1676191Y3005382D02*
X1944053Y2571903D01*
X1570508Y3007692D02*
X1862504Y2599830D01*
X2035420Y2304237D02*
X2043494Y2294452D01*
X2159636Y2240000D02*
X2272896Y2222825D01*
X2156880Y2240418D02*
X2159636Y2240000D01*
X2070739Y2323098D02*
X2074601Y2315500D01*
X2081083Y2306585D02*
X2137323Y2250345D01*
X2638953Y1892561D02*
X2880000Y1570000D01*
X1742582Y2633657D02*
X1765587Y2626624D01*
X1724006Y2639336D02*
X1742582Y2633657D01*
X2137079Y2206305D02*
X2188960Y2190000D01*
X2281375Y2160957D01*
X2045705Y2292013D02*
X2122752Y2214967D01*
X2230134Y752422D02*
X2287122Y745319D01*
X2183113Y758282D02*
X2230134Y752422D01*
X2183103Y758283D02*
X2183113Y758282D01*
X1838691Y838922D02*
X1874915Y830917D01*
X1426557Y1019657D02*
X1442224Y1015874D01*
X1426427Y1019688D02*
X1426557Y1019657D01*
X1442225Y1015874D02*
X1834776Y840216D01*
X1442224Y1015874D02*
X1442225D01*
X1834776Y840216D02*
X1834852Y840182D01*
X1725434Y1832835D02*
X1791151Y1824853D01*
X1619575Y1845691D02*
X1725434Y1832835D01*
X1558303Y1852331D02*
X1619575Y1845691D01*
X1558303Y1852331D02*
X1558303D01*
X1547024Y848638D02*
X1551458Y845689D01*
X1435222Y923000D02*
X1547024Y848638D01*
X1359509Y973359D02*
X1435222Y923000D01*
X1277951Y1047986D02*
X1337799Y990738D01*
X1130360Y1189163D02*
X1277951Y1047986D01*
X866100Y1410300D02*
X1127777Y1191479D01*
X1359340Y1069531D02*
X1383885Y1044066D01*
X992986Y1449620D02*
X1359340Y1069531D01*
X1380710Y895550D02*
X1399297Y880500D01*
X1305451Y967395D02*
X1378518Y897480D01*
X1399297Y880500D02*
X1770317Y580082D01*
X1147756Y1118285D02*
X1305451Y967395D01*
X1119000Y1145800D02*
X1147756Y1118285D01*
X2880000Y1570000D02*
X2898300Y1573900D01*
X2000780Y1901037D02*
X2136365Y1843213D01*
X2136365Y1843213D02*
X2513600Y1594600D01*
X2136365Y1843213D02*
X2136365Y1843213D01*
X767553Y1816469D02*
X767641Y1816460D01*
X1066259Y1802182D02*
X1262463Y1822793D01*
X768928Y1816369D02*
X1066100Y1803700D01*
X649861Y1829055D02*
X767553Y1816469D01*
X552274Y1864961D02*
X626925Y1834796D01*
X661425Y1863870D02*
X677838Y1863746D01*
X658570Y1863891D02*
X661425Y1863870D01*
X2271921Y1501058D02*
X2272000Y1501000D01*
X658950Y1914050D02*
X1293003Y1901550D01*
X1338499Y1928096D02*
X1442500Y2120901D01*
X1464000Y2136700D01*
X645000Y3629689D02*
X1109384Y3476163D01*
X1220832Y3397932D02*
X1468282Y3150482D01*
X1109385Y3476163D02*
X1220500Y3397600D01*
X1109384Y3476163D02*
X1109385Y3476163D01*
X711936Y3484966D02*
X759552Y3479839D01*
X418955Y3516511D02*
X711936Y3484966D01*
X417200Y3516700D02*
X418955Y3516511D01*
X810245Y3465868D02*
X952557Y3424370D01*
X786717Y3472729D02*
X810245Y3465868D01*
X768225Y3478122D02*
X786717Y3472729D01*
X417200Y3516700D02*
X418900Y3516000D01*
X1458998Y2953166D02*
X1479518Y2890836D01*
X1564307Y2633293D01*
X1177818Y3201350D02*
X1386383Y3120236D01*
X1416142Y3088576D02*
X1416181Y3088452D01*
X1458998Y2953166D01*
X1478800Y2890600D01*
X1123175Y3259768D02*
X1156498Y3217187D01*
X1013476Y3373449D02*
X1119706Y3263750D01*
X995367Y3395719D02*
X1010447Y3376876D01*
X967790Y3373651D02*
X1083673Y3228856D01*
X754183Y3429967D02*
X938879Y3391410D01*
X1083673Y3228856D02*
X1090500Y3226700D01*
X603730Y3367308D02*
X967978Y3104445D01*
X1014401Y3088357D02*
X1368320Y3073441D01*
X600000Y3370000D02*
X603730Y3367308D01*
X1215469Y2574664D02*
X1269553Y2617017D01*
X834600Y2587407D02*
X1181179Y2564109D01*
X1268300Y2621200D02*
X1269553Y2617017D01*
X1420643Y2566817D02*
X1446671Y2547386D01*
X1299560Y2657211D02*
X1302461Y2655045D01*
X1420643Y2566817D01*
X1286078Y2667177D02*
X1299368Y2657354D01*
X832868Y3002174D02*
X1286078Y2667177D01*
X588549Y3182766D02*
X832868Y3002174D01*
X445137Y3343799D02*
X447600Y3343700D01*
X442498Y3343906D02*
X445137Y3343799D01*
X553659Y3146309D02*
X1184543Y2614156D01*
X445367Y3341270D02*
X472938Y3315935D01*
X442498Y3343906D02*
X445367Y3341270D01*
X485423Y3297996D02*
X504817Y3250602D01*
X539576Y3165654D01*
X831911Y1646089D02*
X952789Y1610442D01*
X2272000Y1501000D02*
X2439256Y1374900D01*
X2292938Y1562535D02*
X2655200Y1398800D01*
X1103632Y1153000D02*
X1114916Y1141716D01*
X1872273Y497528D02*
X1879286Y491849D01*
X1770317Y580082D02*
X1872273Y497528D01*
X1121302Y904054D02*
X1121334Y904030D01*
X828543Y1060932D02*
X885591Y1065966D01*
X467500Y1029078D02*
X828543Y1060932D01*
X1122995Y902622D02*
X1447000Y596900D01*
X920245Y1056016D02*
X1121302Y904054D01*
X1447000Y596900D02*
X1461300Y574500D01*
X1330440Y523721D02*
X1344413Y484815D01*
X1350100Y484700D01*
X891055Y951008D02*
X1317890Y543028D01*
X840872Y952785D02*
X844637Y617997D01*
X844900Y618000D02*
X889000Y563880D01*
X840872Y952785D02*
Y952786D01*
X858507Y989220D02*
X890000Y1016000D01*
X1977055Y1909820D02*
X1984850Y1907161D01*
X1809652Y1966926D02*
X1977055Y1909820D01*
X1537454Y2159500D02*
X1777217Y1983835D01*
X1986244Y1906658D02*
X1999615Y1901510D01*
X1100942Y2304540D02*
X1102226Y2304455D01*
X983978Y2388583D02*
X1081785Y2311872D01*
X382493Y3442998D02*
X411521Y3504641D01*
X374608Y3426253D02*
X382493Y3442998D01*
X436800Y3573682D02*
X524193D01*
X204840Y3343240D02*
X206750Y3345150D01*
X367040Y3535138D02*
X378982Y3549186D01*
X206100Y3345800D02*
X367040Y3535138D01*
X524193Y3573682D02*
X571160Y3620650D01*
Y3756900D01*
X507200Y3840028D02*
X570800Y3756900D01*
X1564307Y2633293D02*
X1564321Y2633250D01*
X1566058Y2627973D01*
X1570000Y2616000D01*
X1452326Y2542493D02*
X1452375Y2542443D01*
X1489315Y2505315D01*
X586000Y3184650D02*
X588549Y3182766D01*
X2281375Y2160957D02*
X2293087Y2157276D01*
X1468282Y3150482D02*
X1483555Y3129149D01*
X1570508Y3007692D01*
X204840Y2894046D02*
Y3343240D01*
Y2894046D02*
X245296Y2853589D01*
X1095600Y1153000D02*
X1103632D01*
D56*
X300000Y3818000D02*
X308000Y3826000D01*
X60000Y3818000D02*
X300000D01*
D57*
X1691758Y2117173D02*
G03*
X1692234Y2116786I32136J39033D01*
G01*
X1008265Y2260245D02*
G03*
X1029858Y2253981I24531J44210D01*
G01*
X1002319Y2264114D02*
G03*
X1008265Y2260245I30478J40341D01*
G01*
X2107523Y1954030D02*
G03*
X2090845Y1959766I-24531J-44210D01*
G01*
X2113970Y1949779D02*
G03*
X2107523Y1954030I-30978J-39959D01*
G01*
X2116027Y1948095D02*
G03*
X2113970Y1949779I-33035J-38275D01*
G01*
X1804622Y2026520D02*
G03*
X1829123Y2013787I44084J54889D01*
G01*
X1916641Y1988443D02*
G03*
X1933428Y1984698I38359J132457D01*
G01*
X1579071Y2209950D02*
G03*
X1541181Y2224794I-41617J-50450D01*
G01*
X584200Y2326000D02*
X1289312Y1956788D01*
X1292350Y1953750D02*
X1294000Y1952100D01*
X628371Y2546629D02*
X1002319Y2264114D01*
X584200Y2580000D02*
X628371Y2546629D01*
X1723125Y2091975D02*
X1804621Y2026520D01*
X1692234Y2116785D02*
X1723125Y2091975D01*
X1933428Y1984698D02*
X2090845Y1959766D01*
X1829123Y2013787D02*
X1916641Y1988442D01*
X1579071Y2209950D02*
X1691758Y2117173D01*
X1029858Y2253981D02*
X1541181Y2224794D01*
X2116027Y1948095D02*
X2191100Y1883300D01*
D66*
X450000Y3009000D02*
D03*
Y3729000D02*
D03*
D67*
X60000Y2920000D02*
D03*
Y3818000D02*
D03*
D68*
X300000D02*
D03*
Y2920000D02*
D03*
D69*
X584200Y2072000D02*
D03*
D70*
Y2580000D02*
D03*
Y2326000D02*
D03*
D71*
X2370080Y148399D02*
D03*
X3250000Y2145960D02*
D03*
D72*
X1442500Y2120901D02*
D03*
X1955000Y2120900D02*
D03*
X119300Y2562601D02*
D03*
Y2308600D02*
D03*
Y2054600D02*
D03*
X1955000Y88900D02*
D03*
X1447000D02*
D03*
Y1104900D02*
D03*
Y596900D02*
D03*
X1955000Y1612900D02*
D03*
X1447000D02*
D03*
X1955000Y1104900D02*
D03*
Y596900D02*
D03*
X373300Y2054600D02*
D03*
Y2562600D02*
D03*
X372300Y2304401D02*
D03*
D73*
X2937000Y140000D02*
D03*
D74*
X2683000D02*
D03*
D75*
X3251200Y3092800D02*
D03*
Y1200000D02*
D03*
D76*
X2700507Y1046123D02*
D03*
X2765300Y1051300D02*
D03*
X2811535Y995114D02*
D03*
X2723346Y1269079D02*
D03*
X1895300Y946000D02*
D03*
X2343700Y887800D02*
D03*
X2780200Y747875D02*
D03*
X2242400Y819600D02*
D03*
X2181888Y979000D02*
D03*
X1793982Y694146D02*
D03*
X1729008Y692328D02*
D03*
X1779240Y2150527D02*
D03*
X949164Y1557589D02*
D03*
X475100Y757538D02*
D03*
X569489Y2987254D02*
D03*
X1026515Y3167701D02*
D03*
X2655200Y1398800D02*
D03*
X3233200Y270400D02*
D03*
X2015000Y1314000D02*
D03*
X993120Y1647821D02*
D03*
X1331415Y1509100D02*
D03*
X1060026Y2959135D02*
D03*
X704351Y3201626D02*
D03*
X424455Y2853589D02*
D03*
X3003000Y704000D02*
D03*
X1890729Y2538329D02*
D03*
X1657989Y3070258D02*
D03*
X1587000Y3225000D02*
D03*
X1751070Y2578611D02*
D03*
X1608375Y2534882D02*
D03*
X2614000Y656000D02*
D03*
X1203960Y985520D02*
D03*
X866100Y1410300D02*
D03*
X2323000Y814000D02*
D03*
X936840Y1445036D02*
D03*
X2083181Y1034031D02*
D03*
X584300Y1944215D02*
D03*
X1294000Y1952100D02*
D03*
X1283240Y1772633D02*
D03*
X1049509Y3408343D02*
D03*
X928628Y3342308D02*
D03*
X1083673Y3228856D02*
D03*
X1196000Y3248099D02*
D03*
X1029101Y1484430D02*
D03*
X1283232Y506768D02*
D03*
X891055Y951008D02*
D03*
X3041000Y981000D02*
D03*
X3080000Y917000D02*
D03*
X3140000Y3470000D02*
D03*
X3074998Y2274842D02*
D03*
X596992Y3444000D02*
D03*
X658950Y1914050D02*
D03*
X831911Y1646089D02*
D03*
X938000Y2677000D02*
D03*
X860000Y275000D02*
D03*
X1159500Y2135300D02*
D03*
X1304921Y2100021D02*
D03*
X1015000Y2428000D02*
D03*
X1529000Y2052700D02*
D03*
X1527440Y1676427D02*
D03*
X2598675Y1862666D02*
D03*
X834600Y2587407D02*
D03*
X1184543Y2614156D02*
D03*
X2188043Y1875705D02*
D03*
X1780846Y1739997D02*
D03*
X1724006Y2639336D02*
D03*
X1368320Y3073441D02*
D03*
X743986Y882200D02*
D03*
X597502Y3294369D02*
D03*
X1383359Y3655090D02*
D03*
X1495800D02*
D03*
X1539000Y2949192D02*
D03*
X1460000Y2606850D02*
D03*
X1570000Y2616000D02*
D03*
X1269553Y2617017D02*
D03*
X1416767Y2507115D02*
D03*
X303380Y3668425D02*
D03*
X645000Y3629689D02*
D03*
X436753Y3637518D02*
D03*
X417200Y3516700D02*
D03*
X507200Y3840028D02*
D03*
X600000Y3370000D02*
D03*
X419988Y3404883D02*
D03*
X442498Y3343906D02*
D03*
X439000Y3279000D02*
D03*
X443903Y3175871D02*
D03*
X442339Y3110891D02*
D03*
X1722096Y3527904D02*
D03*
X1408043Y3356043D02*
D03*
X1299561Y3493839D02*
D03*
X1095600Y1153000D02*
D03*
X890000Y1016000D02*
D03*
X606000Y531000D02*
D03*
X303000Y693000D02*
D03*
X3280160Y761000D02*
D03*
X2469453Y1414953D02*
D03*
X2292938Y1562535D02*
D03*
X2272000Y1501000D02*
D03*
X1537454Y2159500D02*
D03*
X1489315Y2505315D02*
D03*
X1178000Y3349000D02*
D03*
X1297828Y3250000D02*
D03*
X1483149Y3223058D02*
D03*
X754183Y3429967D02*
D03*
X-110000Y3201000D02*
D03*
X-105000Y3294000D02*
D03*
X2719000Y487000D02*
D03*
X2154000Y153000D02*
D03*
X1050000Y654000D02*
D03*
X3012000Y822000D02*
D03*
X2911000Y794000D02*
D03*
X2490000Y488321D02*
D03*
X3026000Y354000D02*
D03*
X2491205Y1850606D02*
D03*
X3006000Y569000D02*
D03*
X3353000Y242000D02*
D03*
X200000Y162000D02*
D03*
X1879286Y491849D02*
D03*
X1625397Y183080D02*
D03*
X191420Y901338D02*
D03*
X472440Y162560D02*
D03*
X467500Y1029078D02*
D03*
X2880000Y1570000D02*
D03*
X1030000Y3780000D02*
D03*
X586000Y3184650D02*
D03*
X2130000Y500000D02*
D03*
X2090000Y3620000D02*
D03*
X1153160Y172720D02*
D03*
X2293087Y2157276D02*
D03*
X889000Y563880D02*
D03*
X669816Y198863D02*
D03*
X1188900Y554309D02*
D03*
X1344413Y484815D02*
D03*
X2680000Y2220000D02*
D03*
X1016000Y172720D02*
D03*
X340000Y780000D02*
D03*
X440620Y1130086D02*
D03*
X1559094Y3399553D02*
D03*
X1655700Y3212200D02*
D03*
X721000Y603000D02*
D03*
X1890000Y3510000D02*
D03*
X1822100Y3648100D02*
D03*
X1790446Y3372866D02*
D03*
X1779997Y3099994D02*
D03*
X1940000Y3593000D02*
D03*
D77*
X604133Y2570867D02*
X628371Y2546629D01*
X604133Y2570867D02*
Y2590800D01*
X2185774Y1877974D02*
X2188043Y1875705D01*
%TF.MD5,6f6700e7d161f4295cd6169869c8a4c5*%
M02*
