%TF.GenerationSoftware,Altium Limited,Altium Designer,21.4.1 (30)*%
G04 Layer_Color=255*
%FSLAX45Y45*%
%MOMM*%
%TF.SameCoordinates,F4A6E2B2-E63A-418B-8CEE-B9A354165880*%
%TF.FilePolarity,Positive*%
%TF.FileFunction,Pads,Bot*%
%TF.Part,Single*%
G01*
G75*
%TA.AperFunction,SMDPad,CuDef*%
%ADD18R,0.70000X0.80000*%
%ADD27R,2.00000X1.00000*%
%ADD29R,0.80000X0.70000*%
%ADD30R,0.52000X0.52000*%
%ADD31R,0.50000X0.52000*%
%ADD33R,0.52000X0.50000*%
%ADD37R,0.52000X0.52000*%
%TA.AperFunction,ComponentPad*%
%ADD66C,0.63000*%
%ADD67O,1.35200X0.75200*%
%ADD68O,1.24000X0.75200*%
%ADD69R,1.30000X1.30000*%
%ADD70C,1.30000*%
%ADD71C,0.70000*%
%ADD72C,1.25000*%
%ADD73C,1.50000*%
%ADD74R,1.50000X1.50000*%
%TA.AperFunction,WasherPad*%
%ADD75C,2.50000*%
%TA.AperFunction,ConnectorPad*%
%ADD78R,0.70000X0.30000*%
%TA.AperFunction,SMDPad,CuDef*%
%ADD79R,0.55000X0.80000*%
%ADD80R,1.25000X2.20000*%
%ADD81R,0.80000X0.65000*%
%ADD82R,1.30000X1.90000*%
%ADD83R,1.00000X2.80000*%
%ADD84R,1.00000X1.20000*%
%ADD85R,1.00000X1.20000*%
%ADD86R,0.70000X1.20000*%
%ADD87R,1.00000X0.80000*%
%ADD88R,0.65000X0.35000*%
%ADD89O,0.25000X1.45000*%
%ADD90R,0.90000X0.70000*%
G04:AMPARAMS|DCode=91|XSize=0.6mm|YSize=1mm|CornerRadius=0.051mm|HoleSize=0mm|Usage=FLASHONLY|Rotation=90.000|XOffset=0mm|YOffset=0mm|HoleType=Round|Shape=RoundedRectangle|*
%AMROUNDEDRECTD91*
21,1,0.60000,0.89800,0,0,90.0*
21,1,0.49800,1.00000,0,0,90.0*
1,1,0.10200,0.44900,0.24900*
1,1,0.10200,0.44900,-0.24900*
1,1,0.10200,-0.44900,-0.24900*
1,1,0.10200,-0.44900,0.24900*
%
%ADD91ROUNDEDRECTD91*%
%ADD92R,0.95000X1.70000*%
%ADD93R,0.60000X0.80000*%
%ADD94R,1.00000X0.70000*%
D18*
X1634500Y1917000D02*
D03*
X1769500D02*
D03*
D27*
X3276600Y889000D02*
D03*
Y635000D02*
D03*
Y127000D02*
D03*
Y381000D02*
D03*
D29*
X516641Y237300D02*
D03*
Y372300D02*
D03*
X95500D02*
D03*
Y237300D02*
D03*
X1910600Y880900D02*
D03*
Y745900D02*
D03*
X1489200Y392500D02*
D03*
Y257500D02*
D03*
X606200Y810500D02*
D03*
Y675500D02*
D03*
X1910000Y392500D02*
D03*
Y257500D02*
D03*
X1280000Y880500D02*
D03*
Y745500D02*
D03*
X770000Y242500D02*
D03*
Y377500D02*
D03*
X1229180Y237500D02*
D03*
Y372500D02*
D03*
X2579100Y464600D02*
D03*
Y329600D02*
D03*
X2120900Y267500D02*
D03*
Y402500D02*
D03*
X2574700Y730700D02*
D03*
Y865700D02*
D03*
D30*
X555400Y1496500D02*
D03*
Y1576500D02*
D03*
X642620Y1120780D02*
D03*
Y1200780D02*
D03*
X2065800Y1413900D02*
D03*
Y1493900D02*
D03*
X1332400Y1448100D02*
D03*
Y1368100D02*
D03*
X1292500Y1171100D02*
D03*
Y1251100D02*
D03*
X2530000Y1643000D02*
D03*
Y1563000D02*
D03*
X2586900Y1053100D02*
D03*
Y973100D02*
D03*
D31*
X2562000Y1937400D02*
D03*
X2478000D02*
D03*
X2562000Y2027400D02*
D03*
X2478000D02*
D03*
X2562000Y2119400D02*
D03*
X2478000D02*
D03*
D33*
X2099660Y2025400D02*
D03*
Y2109400D02*
D03*
D37*
X1912000Y1760000D02*
D03*
X1992000D02*
D03*
D66*
X450000Y3009000D02*
D03*
Y3729000D02*
D03*
D67*
X60000Y2920000D02*
D03*
Y3818000D02*
D03*
D68*
X300000D02*
D03*
Y2920000D02*
D03*
D69*
X584200Y2072000D02*
D03*
D70*
Y2580000D02*
D03*
Y2326000D02*
D03*
D71*
X2370080Y148399D02*
D03*
X3250000Y2145960D02*
D03*
D72*
X1442500Y2120901D02*
D03*
X1955000Y2120900D02*
D03*
X119300Y2562601D02*
D03*
Y2308600D02*
D03*
Y2054600D02*
D03*
X1955000Y88900D02*
D03*
X1447000D02*
D03*
Y1104900D02*
D03*
Y596900D02*
D03*
X1955000Y1612900D02*
D03*
X1447000D02*
D03*
X1955000Y1104900D02*
D03*
Y596900D02*
D03*
X373300Y2054600D02*
D03*
Y2562600D02*
D03*
X372300Y2304401D02*
D03*
D73*
X2937000Y140000D02*
D03*
D74*
X2683000D02*
D03*
D75*
X3251200Y3092800D02*
D03*
Y1200000D02*
D03*
D78*
X516000Y3094000D02*
D03*
X346000Y3619000D02*
D03*
X516000Y3144000D02*
D03*
Y3194000D02*
D03*
Y3244000D02*
D03*
Y3294000D02*
D03*
Y3344000D02*
D03*
Y3394000D02*
D03*
Y3444000D02*
D03*
Y3494000D02*
D03*
Y3544000D02*
D03*
Y3594000D02*
D03*
Y3644000D02*
D03*
X346000Y3569000D02*
D03*
Y3519000D02*
D03*
Y3469000D02*
D03*
Y3419000D02*
D03*
Y3369000D02*
D03*
Y3319000D02*
D03*
Y3269000D02*
D03*
Y3219000D02*
D03*
Y3169000D02*
D03*
Y3119000D02*
D03*
Y3069000D02*
D03*
D79*
X1785000Y1566000D02*
D03*
X1595000D02*
D03*
X1690000Y1786000D02*
D03*
X314160Y1682260D02*
D03*
X219160Y1462260D02*
D03*
X409160D02*
D03*
X2270760Y1788940D02*
D03*
X2175760Y1568940D02*
D03*
X2365760D02*
D03*
X1117600Y1588280D02*
D03*
X1022600Y1368280D02*
D03*
X1212600D02*
D03*
D80*
X976977Y2029492D02*
D03*
X756977D02*
D03*
D81*
X2104321Y880500D02*
D03*
Y745500D02*
D03*
X235837Y372300D02*
D03*
Y237300D02*
D03*
X113000Y1098500D02*
D03*
Y963500D02*
D03*
X243165Y1236840D02*
D03*
Y1101840D02*
D03*
X380671D02*
D03*
Y1236840D02*
D03*
X380000Y372300D02*
D03*
Y237300D02*
D03*
X1430000Y745500D02*
D03*
Y880500D02*
D03*
X1785140Y392500D02*
D03*
Y257500D02*
D03*
X1960880Y1418780D02*
D03*
Y1283780D02*
D03*
X1700000Y1315500D02*
D03*
Y1180500D02*
D03*
X1827000Y1315500D02*
D03*
Y1180500D02*
D03*
X1573000Y1315500D02*
D03*
Y1180500D02*
D03*
X515620Y1100900D02*
D03*
Y1235900D02*
D03*
X1177020Y1230500D02*
D03*
Y1095500D02*
D03*
X784100Y814700D02*
D03*
Y679700D02*
D03*
X1032240Y1095500D02*
D03*
Y1230500D02*
D03*
X890000Y1095500D02*
D03*
Y1230500D02*
D03*
X2118360Y1290180D02*
D03*
Y1155180D02*
D03*
X2389288Y1290180D02*
D03*
Y1155180D02*
D03*
X2253832Y1290180D02*
D03*
Y1155180D02*
D03*
X2521700Y1290500D02*
D03*
Y1155500D02*
D03*
X2455169Y420821D02*
D03*
Y285821D02*
D03*
X1086391Y372500D02*
D03*
Y237500D02*
D03*
X117000Y803500D02*
D03*
Y668500D02*
D03*
D82*
X2064100Y3764500D02*
D03*
D83*
X730000Y3719500D02*
D03*
D84*
Y2684500D02*
D03*
D85*
X1835000Y2254500D02*
D03*
D86*
X815000D02*
D03*
X910000D02*
D03*
X1020000D02*
D03*
X1130000D02*
D03*
X1240000D02*
D03*
X1350000D02*
D03*
X1460000D02*
D03*
X1570000D02*
D03*
X1680000D02*
D03*
D87*
X730000Y3304500D02*
D03*
D88*
X2197500Y2117400D02*
D03*
Y2067400D02*
D03*
Y2017400D02*
D03*
X2352500D02*
D03*
Y2067400D02*
D03*
Y2117400D02*
D03*
D89*
X2240000Y989900D02*
D03*
X2290000D02*
D03*
X2340000D02*
D03*
X2390000D02*
D03*
X2440000D02*
D03*
X2240000Y584900D02*
D03*
X2290000D02*
D03*
X2340000D02*
D03*
X2390000D02*
D03*
X2440000D02*
D03*
X1576400Y989900D02*
D03*
X1626400D02*
D03*
X1676400D02*
D03*
X1726400D02*
D03*
X1776400D02*
D03*
X1576400Y584900D02*
D03*
X1626400D02*
D03*
X1676400D02*
D03*
X1726400D02*
D03*
X1776400D02*
D03*
X941400Y939100D02*
D03*
X991400D02*
D03*
X1041400D02*
D03*
X1091400D02*
D03*
X1141400D02*
D03*
X941400Y534100D02*
D03*
X991400D02*
D03*
X1041400D02*
D03*
X1091400D02*
D03*
X1141400D02*
D03*
X256574Y922500D02*
D03*
X306574D02*
D03*
X356574D02*
D03*
X406574D02*
D03*
X456574D02*
D03*
X256574Y517500D02*
D03*
X306574D02*
D03*
X356574D02*
D03*
X406574D02*
D03*
X456574D02*
D03*
D90*
X2250440Y405000D02*
D03*
Y265000D02*
D03*
X1642900Y395000D02*
D03*
Y255000D02*
D03*
X943644Y375000D02*
D03*
Y235000D02*
D03*
D91*
X1162500Y1925000D02*
D03*
Y1735000D02*
D03*
X1437500D02*
D03*
Y1830000D02*
D03*
Y1925000D02*
D03*
D92*
X710019Y1790019D02*
D03*
X990018D02*
D03*
D93*
X815000Y1569600D02*
D03*
X685000D02*
D03*
D94*
X750000Y1334600D02*
D03*
%TF.MD5,9284f6a989dccd9b7f507e975b8f55ad*%
M02*
