%TF.GenerationSoftware,Altium Limited,Altium Designer,21.4.1 (30)*%
G04 Layer_Color=0*
%FSLAX45Y45*%
%MOMM*%
%TF.SameCoordinates,F4A6E2B2-E63A-418B-8CEE-B9A354165880*%
%TF.FilePolarity,Positive*%
%TF.FileFunction,Other,Bottom_Assembly*%
%TF.Part,Single*%
G01*
G75*
%TA.AperFunction,NonConductor*%
%ADD113C,0.05000*%
%ADD134C,0.07620*%
D113*
X-445000Y2855000D02*
X560000D01*
Y3883000D01*
X-445000D02*
X560000D01*
X-445000Y2855000D02*
Y3883000D01*
X2195440Y450000D02*
X2305440D01*
X2195440Y220000D02*
X2305440D01*
X2195440D02*
Y450000D01*
X2305440Y220000D02*
Y450000D01*
X2250440Y287500D02*
Y382500D01*
X2202940Y335000D02*
X2297940D01*
X1587900Y440000D02*
X1697900D01*
X1587900Y210000D02*
X1697900D01*
X1587900D02*
Y440000D01*
X1697900Y210000D02*
Y440000D01*
X1642900Y277500D02*
Y372500D01*
X1595400Y325000D02*
X1690400D01*
X888644Y420000D02*
X998644D01*
X888644Y190000D02*
X998644D01*
X888644D02*
Y420000D01*
X998644Y190000D02*
Y420000D01*
X943644Y257500D02*
Y352500D01*
X896143Y305000D02*
X991144D01*
D134*
X-345800Y1796000D02*
Y2876000D01*
X650240D01*
Y1796000D02*
Y2876000D01*
X-345800Y1796000D02*
X650240D01*
X175260Y2326000D02*
X289560D01*
X231140Y2265040D02*
Y2389500D01*
X1530000Y1518500D02*
X1850000D01*
X1530000Y1833500D02*
X1850000D01*
Y1518500D02*
Y1833500D01*
X1530000Y1518500D02*
Y1833500D01*
X1690000Y1626000D02*
Y1726000D01*
X1640000Y1676000D02*
X1740000D01*
X1702000Y1873820D02*
Y1959500D01*
X1654500Y1917000D02*
X1749500D01*
X1587000Y1970340D02*
X1817000D01*
Y1863660D02*
Y1970340D01*
X1587000Y1863660D02*
X1817000D01*
X1587000D02*
Y1970340D01*
X1047800Y1910620D02*
Y2146840D01*
X687120D02*
X1047800D01*
X687120Y1910620D02*
Y2146840D01*
Y1910620D02*
X1047800D01*
X826693Y2030177D02*
X912113D01*
X869213Y1982527D02*
Y2077625D01*
X463300Y419800D02*
X569980D01*
X463300Y189800D02*
Y419800D01*
Y189800D02*
X569980D01*
Y419800D01*
X516641Y257300D02*
Y352300D01*
X473460Y304800D02*
X559141D01*
X52320D02*
X138000D01*
X95500Y257300D02*
Y352300D01*
X148840Y189800D02*
Y419800D01*
X42160Y189800D02*
X148840D01*
X42160D02*
Y419800D01*
X148840D01*
X1857260Y698400D02*
X1963940D01*
Y928400D01*
X1857260D02*
X1963940D01*
X1857260Y698400D02*
Y928400D01*
X1910600Y765900D02*
Y860900D01*
X1868100Y813400D02*
X1953780D01*
X1446020Y325000D02*
X1531700D01*
X1489200Y277500D02*
Y372500D01*
X1542540Y210000D02*
Y440000D01*
X1435860Y210000D02*
X1542540D01*
X1435860D02*
Y440000D01*
X1542540D01*
X552860Y628000D02*
X659540D01*
Y858000D01*
X552860D02*
X659540D01*
X552860Y628000D02*
Y858000D01*
X606200Y695500D02*
Y790500D01*
X563700Y743000D02*
X649380D01*
X1866820Y325000D02*
X1952500D01*
X1910000Y277500D02*
Y372500D01*
X1963340Y210000D02*
Y440000D01*
X1856660Y210000D02*
X1963340D01*
X1856660D02*
Y440000D01*
X1963340D01*
X1226660Y698000D02*
X1333340D01*
Y928000D01*
X1226660D02*
X1333340D01*
X1226660Y698000D02*
Y928000D01*
X1280000Y765500D02*
Y860500D01*
X1237500Y813000D02*
X1323180D01*
X727500Y310000D02*
X813180D01*
X770000Y262500D02*
Y357500D01*
X716660Y195000D02*
Y425000D01*
X823340D01*
Y195000D02*
Y425000D01*
X716660Y195000D02*
X823340D01*
X1175840Y420000D02*
X1282520D01*
X1175840Y190000D02*
Y420000D01*
Y190000D02*
X1282520D01*
Y420000D01*
X1229180Y257500D02*
Y352500D01*
X1186000Y305000D02*
X1271680D01*
X2535920Y397100D02*
X2621600D01*
X2579100Y349600D02*
Y444600D01*
X2632440Y282100D02*
Y512100D01*
X2525760Y282100D02*
X2632440D01*
X2525760D02*
Y512100D01*
X2632440D01*
X2067560Y450000D02*
X2174240D01*
X2067560Y220000D02*
Y450000D01*
Y220000D02*
X2174240D01*
Y450000D01*
X2120900Y287500D02*
Y382500D01*
X2077720Y335000D02*
X2163400D01*
X2532200Y798200D02*
X2617880D01*
X2574700Y750700D02*
Y845700D01*
X2521360Y683200D02*
Y913200D01*
X2628040D01*
Y683200D02*
Y913200D01*
X2521360Y683200D02*
X2628040D01*
X2068761Y813000D02*
X2139881D01*
X2104321Y779980D02*
Y848560D01*
X2049321Y702000D02*
Y924000D01*
X2159321Y702000D02*
Y924000D01*
X2049321D02*
X2159321D01*
X2049321Y702000D02*
X2159321D01*
X264160Y1572260D02*
X364160D01*
X314160Y1522260D02*
Y1622260D01*
X154160Y1414760D02*
Y1729760D01*
X474160Y1414760D02*
Y1729760D01*
X154160D02*
X474160D01*
X154160Y1414760D02*
X474160D01*
X180837Y415800D02*
X290837D01*
X180837Y193800D02*
X290837D01*
X180837D02*
Y415800D01*
X290837Y193800D02*
Y415800D01*
X235837Y269240D02*
Y337820D01*
X200277Y304800D02*
X271397D01*
X1398060Y2862180D02*
Y3106020D01*
X1268520Y2986640D02*
X1527600D01*
X671620Y2186540D02*
X2132120Y2186540D01*
X671620Y2186540D02*
Y3868020D01*
X2132120D01*
Y2186540D02*
Y3868020D01*
X1872000Y1800000D02*
X2032000D01*
X1952000Y1730000D02*
Y1790000D01*
X1922000Y1760000D02*
X1982000D01*
X2032000Y1720000D02*
Y1800000D01*
X1872000Y1720000D02*
X2032000D01*
X1872000D02*
Y1800000D01*
X2275000Y2017400D02*
Y2117400D01*
X2225000Y2067400D02*
X2325000D01*
X2152500Y1967400D02*
X2397500D01*
X2152500Y2167400D02*
X2397500D01*
X2152500Y1967400D02*
Y2167400D01*
X2397500Y1967400D02*
Y2167400D01*
X2520000Y1909900D02*
Y1964900D01*
X2492500Y1937400D02*
X2547500D01*
X2440000Y1977400D02*
X2600000D01*
X2440000Y1897400D02*
X2600000D01*
Y1977400D01*
X2440000Y1897400D02*
Y1977400D01*
X2600000Y1987400D02*
Y2067400D01*
X2440000Y1987400D02*
Y2067400D01*
X2600000D01*
X2440000Y1987400D02*
X2600000D01*
X2492500Y2027400D02*
X2547500D01*
X2520000Y1999900D02*
Y2054900D01*
X2072160Y2067400D02*
X2127160D01*
X2099660Y2039900D02*
Y2094900D01*
X2139660Y1987400D02*
Y2147400D01*
X2059660Y1987400D02*
Y2147400D01*
Y1987400D02*
X2139660D01*
X2059660Y2147400D02*
X2139660D01*
X2600000Y2079400D02*
Y2159400D01*
X2440000Y2079400D02*
Y2159400D01*
X2600000D01*
X2440000Y2079400D02*
X2600000D01*
X2492500Y2119400D02*
X2547500D01*
X2520000Y2091900D02*
Y2146900D01*
X515400Y1456500D02*
Y1616500D01*
X525400Y1536500D02*
X585400D01*
X555400Y1506500D02*
Y1566500D01*
X515400Y1616500D02*
X595400D01*
Y1456500D02*
Y1616500D01*
X515400Y1456500D02*
X595400D01*
X602620Y1080780D02*
Y1240780D01*
X612620Y1160780D02*
X672620D01*
X642620Y1130780D02*
Y1190780D01*
X602620Y1240780D02*
X682620D01*
Y1080780D02*
Y1240780D01*
X602620Y1080780D02*
X682620D01*
X2025800Y1373900D02*
Y1533900D01*
X2035800Y1453900D02*
X2095800D01*
X2065800Y1423900D02*
Y1483900D01*
X2025800Y1533900D02*
X2105800D01*
Y1373900D02*
Y1533900D01*
X2025800Y1373900D02*
X2105800D01*
X1292400Y1328100D02*
X1372400D01*
Y1488100D01*
X1292400D02*
X1372400D01*
X1332400Y1378100D02*
Y1438100D01*
X1302400Y1408100D02*
X1362400D01*
X1292400Y1328100D02*
Y1488100D01*
X1252500Y1131100D02*
Y1291100D01*
X1262500Y1211100D02*
X1322500D01*
X1292500Y1181100D02*
Y1241100D01*
X1252500Y1291100D02*
X1332500D01*
Y1131100D02*
Y1291100D01*
X1252500Y1131100D02*
X1332500D01*
X2490000Y1523000D02*
X2570000D01*
Y1683000D01*
X2490000D02*
X2570000D01*
X2530000Y1573000D02*
Y1633000D01*
X2500000Y1603000D02*
X2560000D01*
X2490000Y1523000D02*
Y1683000D01*
X2626900Y933100D02*
Y1093100D01*
X2556900Y1013100D02*
X2616900D01*
X2586900Y983100D02*
Y1043100D01*
X2546900Y933100D02*
X2626900D01*
X2546900D02*
Y1093100D01*
X2626900D01*
X2175000Y1072400D02*
X2505000D01*
X2175000Y502400D02*
X2505000D01*
X2175000D02*
Y1072400D01*
X2505000Y502400D02*
Y1072400D01*
X2340000Y737400D02*
Y837400D01*
X2290000Y787400D02*
X2390000D01*
X1511400Y1072400D02*
X1841400D01*
X1511400Y502400D02*
X1841400D01*
X1511400D02*
Y1072400D01*
X1841400Y502400D02*
Y1072400D01*
X1676400Y737400D02*
Y837400D01*
X1626400Y787400D02*
X1726400D01*
X876400Y1021600D02*
X1206400D01*
X876400Y451600D02*
X1206400D01*
X876400D02*
Y1021600D01*
X1206400Y451600D02*
Y1021600D01*
X1041400Y686600D02*
Y786600D01*
X991400Y736600D02*
X1091400D01*
X191574Y1005000D02*
X521574D01*
X191574Y435000D02*
X521574D01*
X191574D02*
Y1005000D01*
X521574Y435000D02*
Y1005000D01*
X356574Y670000D02*
Y770000D01*
X306574Y720000D02*
X406574D01*
X2220760Y1678940D02*
X2320760D01*
X2270760Y1628940D02*
Y1728940D01*
X2110760Y1521440D02*
Y1836440D01*
X2430760Y1521440D02*
Y1836440D01*
X2110760D02*
X2430760D01*
X2110760Y1521440D02*
X2430760D01*
X1067600Y1478280D02*
X1167600D01*
X1117600Y1428280D02*
Y1528280D01*
X957600Y1320780D02*
Y1635780D01*
X1277600Y1320780D02*
Y1635780D01*
X957600D02*
X1277600D01*
X957600Y1320780D02*
X1277600D01*
X1300000Y1780000D02*
Y1880000D01*
X1250000Y1830000D02*
X1350000D01*
X1101880Y1680140D02*
X1498120D01*
X1101880Y1990020D02*
X1498120D01*
X1101880Y1680140D02*
Y1990020D01*
X1498120Y1680140D02*
Y1990020D01*
X650019Y1695018D02*
X1050018D01*
X650019Y1885020D02*
X1050018D01*
X800016Y1790019D02*
X900016D01*
X850018Y1740022D02*
Y1840022D01*
X1050018Y1695018D02*
Y1885020D01*
X650019Y1695018D02*
Y1885020D01*
X77440Y1031000D02*
X148560D01*
X113000Y997980D02*
Y1066560D01*
X58000Y920000D02*
Y1142000D01*
X168000Y920000D02*
Y1142000D01*
X58000D02*
X168000D01*
X58000Y920000D02*
X168000D01*
X188165Y1280340D02*
X298165D01*
X188165Y1058340D02*
X298165D01*
X188165D02*
Y1280340D01*
X298165Y1058340D02*
Y1280340D01*
X243165Y1133780D02*
Y1202360D01*
X207605Y1169340D02*
X278725D01*
X345111D02*
X416231D01*
X380671Y1133780D02*
Y1202360D01*
X435671Y1058340D02*
Y1280340D01*
X325671Y1058340D02*
Y1280340D01*
Y1058340D02*
X435671D01*
X325671Y1280340D02*
X435671D01*
X325000Y415800D02*
X435000D01*
X325000Y193800D02*
X435000D01*
X325000D02*
Y415800D01*
X435000Y193800D02*
Y415800D01*
X380000Y269240D02*
Y337820D01*
X344440Y304800D02*
X415560D01*
X1375000Y702000D02*
X1485000D01*
X1375000Y924000D02*
X1485000D01*
Y702000D02*
Y924000D01*
X1375000Y702000D02*
Y924000D01*
X1430000Y779980D02*
Y848560D01*
X1394440Y813000D02*
X1465560D01*
X1749580Y325000D02*
X1820700D01*
X1785140Y291980D02*
Y360560D01*
X1730140Y214000D02*
Y436000D01*
X1840140Y214000D02*
Y436000D01*
X1730140D02*
X1840140D01*
X1730140Y214000D02*
X1840140D01*
X1925320Y1351280D02*
X1996440D01*
X1960880Y1318260D02*
Y1386840D01*
X1905880Y1240280D02*
Y1462280D01*
X2015880Y1240280D02*
Y1462280D01*
X1905880D02*
X2015880D01*
X1905880Y1240280D02*
X2015880D01*
X1645000Y1359000D02*
X1755000D01*
X1645000Y1137000D02*
X1755000D01*
X1645000D02*
Y1359000D01*
X1755000Y1137000D02*
Y1359000D01*
X1700000Y1212440D02*
Y1281020D01*
X1664440Y1248000D02*
X1735560D01*
X1791440Y1248000D02*
X1862560D01*
X1827000Y1214980D02*
Y1283560D01*
X1772000Y1137000D02*
Y1359000D01*
X1882000Y1137000D02*
Y1359000D01*
X1772000D02*
X1882000D01*
X1772000Y1137000D02*
X1882000D01*
X1518000Y1359000D02*
X1628000D01*
X1518000Y1137000D02*
X1628000D01*
X1518000D02*
Y1359000D01*
X1628000Y1137000D02*
Y1359000D01*
X1573000Y1212440D02*
Y1281020D01*
X1537440Y1248000D02*
X1608560D01*
X460620Y1057400D02*
X570620D01*
X460620Y1279400D02*
X570620D01*
Y1057400D02*
Y1279400D01*
X460620Y1057400D02*
Y1279400D01*
X515620Y1135380D02*
Y1203960D01*
X480060Y1168400D02*
X551180D01*
X1141460Y1163000D02*
X1212580D01*
X1177020Y1129980D02*
Y1198560D01*
X1122020Y1052000D02*
Y1274000D01*
X1232020Y1052000D02*
Y1274000D01*
X1122020D02*
X1232020D01*
X1122020Y1052000D02*
X1232020D01*
X748540Y747200D02*
X819660D01*
X784100Y714180D02*
Y782760D01*
X729100Y636200D02*
Y858200D01*
X839100Y636200D02*
Y858200D01*
X729100D02*
X839100D01*
X729100Y636200D02*
X839100D01*
X977240Y1052000D02*
X1087240D01*
X977240Y1274000D02*
X1087240D01*
Y1052000D02*
Y1274000D01*
X977240Y1052000D02*
Y1274000D01*
X1032240Y1129980D02*
Y1198560D01*
X996680Y1163000D02*
X1067800D01*
X854440Y1163000D02*
X925560D01*
X890000Y1127440D02*
Y1196020D01*
X945000Y1052000D02*
Y1274000D01*
X835000Y1052000D02*
Y1274000D01*
Y1052000D02*
X945000D01*
X835000Y1274000D02*
X945000D01*
X2063360Y1333680D02*
X2173360D01*
X2063360Y1111680D02*
X2173360D01*
X2063360D02*
Y1333680D01*
X2173360Y1111680D02*
Y1333680D01*
X2118360Y1187120D02*
Y1255700D01*
X2082800Y1222680D02*
X2153920D01*
X2353728Y1222680D02*
X2424848D01*
X2389288Y1189660D02*
Y1258240D01*
X2334288Y1111680D02*
Y1333680D01*
X2444288Y1111680D02*
Y1333680D01*
X2334288D02*
X2444288D01*
X2334288Y1111680D02*
X2444288D01*
X2198832Y1333680D02*
X2308832D01*
X2198832Y1111680D02*
X2308832D01*
X2198832D02*
Y1333680D01*
X2308832Y1111680D02*
Y1333680D01*
X2253832Y1187120D02*
Y1255700D01*
X2218272Y1222680D02*
X2289392D01*
X2486140Y1223000D02*
X2557260D01*
X2521700Y1189980D02*
Y1258560D01*
X2466700Y1112000D02*
Y1334000D01*
X2576700Y1112000D02*
Y1334000D01*
X2466700D02*
X2576700D01*
X2466700Y1112000D02*
X2576700D01*
X2419609Y353321D02*
X2490729D01*
X2455169Y320301D02*
Y388881D01*
X2400169Y242321D02*
Y464321D01*
X2510169Y242321D02*
Y464321D01*
X2400169D02*
X2510169D01*
X2400169Y242321D02*
X2510169D01*
X1050831Y305000D02*
X1121951D01*
X1086391Y271980D02*
Y340560D01*
X1031391Y194000D02*
Y416000D01*
X1141391Y194000D02*
Y416000D01*
X1031391D02*
X1141391D01*
X1031391Y194000D02*
X1141391D01*
X81440Y736000D02*
X152560D01*
X117000Y702980D02*
Y771560D01*
X62000Y625000D02*
Y847000D01*
X172000Y625000D02*
Y847000D01*
X62000D02*
X172000D01*
X62000Y625000D02*
X172000D01*
X616000Y1653100D02*
X878000D01*
X616000Y1279100D02*
Y1653100D01*
X878000Y1279100D02*
Y1652100D01*
X616000Y1279100D02*
X878000D01*
X750000Y1419980D02*
Y1491100D01*
X714440Y1453000D02*
X783020D01*
%TF.MD5,a3a3b9b036ac758e2e9dae848ce55a46*%
M02*
