%TF.GenerationSoftware,Altium Limited,Altium Designer,21.4.1 (30)*%
G04 Layer_Color=16711935*
%FSLAX45Y45*%
%MOMM*%
%TF.SameCoordinates,F4A6E2B2-E63A-418B-8CEE-B9A354165880*%
%TF.FilePolarity,Positive*%
%TF.FileFunction,Other,Mechanical_1*%
%TF.Part,Single*%
G01*
G75*
%TA.AperFunction,NonConductor*%
%ADD104C,0.15240*%
%ADD112C,0.00000*%
%ADD134C,0.07620*%
D104*
X3459991Y3890027D02*
X3461979Y3890026D01*
X-219984Y3890027D02*
X3459991Y3890027D01*
X-221979Y3890022D02*
X-219984Y3890027D01*
X-225662Y3888489D02*
X-221979Y3890022D01*
X-228479Y3885665D02*
X-225662Y3888489D01*
X-230002Y3881977D02*
X-228479Y3885665D01*
X-230002Y3881977D02*
X-230000Y3879984D01*
X-230000Y2870000D01*
X-230001Y2868011D02*
X-230000Y2870000D01*
X-230001Y2868011D02*
X-228479Y2864335D01*
X-225666Y2861522D01*
X-221991Y2859999D01*
X-220000Y2860000D01*
X-9990Y2860000D01*
X-8042Y2859808D01*
X-4443Y2858316D01*
X-1692Y2855559D01*
X-207Y2851957D01*
X-18Y2850010D01*
X-2490Y1430956D02*
X-18Y2850010D01*
X-2490Y1430956D02*
X6452Y1434660D01*
X27704Y1438887D01*
X49372D01*
X70624Y1434660D01*
X90643Y1426368D01*
X108659Y1414330D01*
X123981Y1399008D01*
X136019Y1380992D01*
X144311Y1360973D01*
X148538Y1339721D01*
Y1328887D02*
Y1339721D01*
Y1318053D02*
Y1328887D01*
X144311Y1296801D02*
X148538Y1318053D01*
X136019Y1276783D02*
X144311Y1296801D01*
X123981Y1258766D02*
X136019Y1276783D01*
X108659Y1243445D02*
X123981Y1258766D01*
X90643Y1231406D02*
X108659Y1243445D01*
X70624Y1223114D02*
X90643Y1231406D01*
X49372Y1218887D02*
X70624Y1223114D01*
X27704Y1218887D02*
X49372D01*
X6452Y1223114D02*
X27704Y1218887D01*
X-2845Y1226966D02*
X6452Y1223114D01*
X-5000Y-10000D02*
X-2845Y1226966D01*
X-5000Y-10000D02*
X3454979Y-29D01*
X3456975Y-23D01*
X3460660Y1511D01*
X3463481Y4336D01*
X3465009Y8024D01*
X3465013Y10021D01*
X3469974Y3880018D01*
X3469979Y3882007D01*
X3468463Y3885685D02*
X3469979Y3882007D01*
X3465654Y3888501D02*
X3468463Y3885685D01*
X3461979Y3890026D02*
X3465654Y3888501D01*
D112*
X481500Y3745000D02*
G03*
X450000Y3776500I-31500J0D01*
G01*
D02*
G03*
X418500Y3745000I0J-31500D01*
G01*
Y3713000D02*
G03*
X450000Y3681500I31500J0D01*
G01*
D02*
G03*
X481500Y3713000I0J31500D01*
G01*
X330000Y2895000D02*
G03*
X355000Y2920000I0J25000D01*
G01*
Y2987500D02*
G03*
X327500Y3015000I-27500J0D01*
G01*
X327500D02*
G03*
X300000Y2987500I0J-27500D01*
G01*
X270000Y2945000D02*
G03*
X300000Y2975000I0J30000D01*
G01*
X270000Y2945000D02*
G03*
X245000Y2920000I0J-25000D01*
G01*
D02*
G03*
X270000Y2895000I25000J0D01*
G01*
X355000Y3818000D02*
G03*
X330000Y3843000I-25000J0D01*
G01*
X327500Y3723000D02*
G03*
X355000Y3750500I0J27500D01*
G01*
X300000Y3750500D02*
G03*
X327500Y3723000I27500J0D01*
G01*
X300000Y3763000D02*
G03*
X270000Y3793000I-30000J0D01*
G01*
X245000Y3818000D02*
G03*
X270000Y3793000I25000J0D01*
G01*
Y3843000D02*
G03*
X245000Y3818000I0J-25000D01*
G01*
X418500Y3713000D02*
Y3745000D01*
X481500Y3713000D02*
Y3745000D01*
X355000Y2920000D02*
Y2987500D01*
X300000Y2975000D02*
Y2987500D01*
X270000Y2895000D02*
X330000D01*
X355000Y3750500D02*
Y3818000D01*
X300000Y3750500D02*
Y3763000D01*
X270000Y3843000D02*
X330000D01*
D134*
X2666000Y3896000D02*
X3470001Y3900001D01*
X2664000Y3898000D02*
X2666000Y3896000D01*
X0Y3898000D02*
X2664000D01*
X0Y1000D02*
X1000Y0D01*
%TF.MD5,b7b4310c7a63129562015589a5c0a196*%
M02*
