%TF.GenerationSoftware,Altium Limited,Altium Designer,21.4.1 (30)*%
G04 Layer_Color=2752767*
%FSLAX45Y45*%
%MOMM*%
%TF.SameCoordinates,F4A6E2B2-E63A-418B-8CEE-B9A354165880*%
%TF.FilePolarity,Positive*%
%TF.FileFunction,Drawing*%
%TF.Part,Single*%
G01*
G75*
%TA.AperFunction,NonConductor*%
%ADD103C,0.12700*%
%ADD153C,0.16933*%
D103*
X399200Y2958200D02*
Y3059800D01*
X500800D01*
Y2958200D01*
X399200D01*
Y3678200D02*
Y3779800D01*
X500800D01*
Y3678200D01*
X399200D01*
X300000Y3767200D02*
X249200Y3868800D01*
X350800D01*
X300000Y3767200D01*
Y2869200D02*
X249200Y2970800D01*
X350800D01*
X300000Y2869200D01*
X584200Y2021200D02*
X609600Y2046600D01*
X635000D01*
X609600Y2072000D01*
X635000Y2097400D01*
X609600D01*
X584200Y2122800D01*
X558800Y2097400D01*
X533400D01*
X558800Y2072000D01*
X533400Y2046600D01*
X558800D01*
X584200Y2021200D01*
Y2529200D02*
X609600Y2554600D01*
X635000D01*
X609600Y2580000D01*
X635000Y2605400D01*
X609600D01*
X584200Y2630800D01*
X558800Y2605400D01*
X533400D01*
X558800Y2580000D01*
X533400Y2554600D01*
X558800D01*
X584200Y2529200D01*
Y2275200D02*
X609600Y2300600D01*
X635000D01*
X609600Y2326000D01*
X635000Y2351400D01*
X609600D01*
X584200Y2376800D01*
X558800Y2351400D01*
X533400D01*
X558800Y2326000D01*
X533400Y2300600D01*
X558800D01*
X584200Y2275200D01*
X2319280Y97599D02*
X2344680Y148399D01*
X2319280Y199199D01*
X2370080Y173799D01*
X2420880Y199199D01*
X2395480Y148399D01*
X2420880Y97599D01*
X2370080Y122999D01*
X2319280Y97599D01*
X3199200Y2095160D02*
X3224600Y2145960D01*
X3199200Y2196760D01*
X3250000Y2171360D01*
X3300800Y2196760D01*
X3275400Y2145960D01*
X3300800Y2095160D01*
X3250000Y2120560D01*
X3199200Y2095160D01*
X1417100Y2095501D02*
Y2070101D01*
X1467900D01*
Y2095501D01*
X1493300D01*
Y2146301D01*
X1467900D01*
Y2171701D01*
X1417100D01*
Y2146301D01*
X1391700D01*
Y2095501D01*
X1417100D01*
X1929600Y2095500D02*
Y2070100D01*
X1980400D01*
Y2095500D01*
X2005800D01*
Y2146300D01*
X1980400D01*
Y2171700D01*
X1929600D01*
Y2146300D01*
X1904200D01*
Y2095500D01*
X1929600D01*
X2886200Y89200D02*
X2911600D01*
X2937000Y114600D01*
X2962400Y89200D01*
X2987800D01*
Y114600D01*
X2962400Y140000D01*
X2987800Y165400D01*
Y190800D01*
X2962400D01*
X2937000Y165400D01*
X2911600Y190800D01*
X2886200D01*
Y165400D01*
X2911600Y140000D01*
X2886200Y114600D01*
Y89200D01*
X2632200D02*
X2657600D01*
X2683000Y114600D01*
X2708400Y89200D01*
X2733800D01*
Y114600D01*
X2708400Y140000D01*
X2733800Y165400D01*
Y190800D01*
X2708400D01*
X2683000Y165400D01*
X2657600Y190800D01*
X2632200D01*
Y165400D01*
X2657600Y140000D01*
X2632200Y114600D01*
Y89200D01*
X3200400Y3092800D02*
X3251200Y3143600D01*
X3302000Y3092800D01*
X3251200Y3042000D01*
X3200400Y3092800D01*
Y1200000D02*
X3251200Y1250800D01*
X3302000Y1200000D01*
X3251200Y1149200D01*
X3200400Y1200000D01*
X93900Y2537201D02*
Y2511801D01*
X144700D01*
Y2537201D01*
X170100D01*
Y2588001D01*
X144700D01*
Y2613401D01*
X93900D01*
Y2588001D01*
X68500D01*
Y2537201D01*
X93900D01*
Y2283200D02*
Y2257800D01*
X144700D01*
Y2283200D01*
X170100D01*
Y2334000D01*
X144700D01*
Y2359400D01*
X93900D01*
Y2334000D01*
X68500D01*
Y2283200D01*
X93900D01*
Y2029200D02*
Y2003800D01*
X144700D01*
Y2029200D01*
X170100D01*
Y2080000D01*
X144700D01*
Y2105400D01*
X93900D01*
Y2080000D01*
X68500D01*
Y2029200D01*
X93900D01*
X1929600Y63500D02*
Y38100D01*
X1980400D01*
Y63500D01*
X2005800D01*
Y114300D01*
X1980400D01*
Y139700D01*
X1929600D01*
Y114300D01*
X1904200D01*
Y63500D01*
X1929600D01*
X1421600D02*
Y38100D01*
X1472400D01*
Y63500D01*
X1497800D01*
Y114300D01*
X1472400D01*
Y139700D01*
X1421600D01*
Y114300D01*
X1396200D01*
Y63500D01*
X1421600D01*
Y1079500D02*
Y1054100D01*
X1472400D01*
Y1079500D01*
X1497800D01*
Y1130300D01*
X1472400D01*
Y1155700D01*
X1421600D01*
Y1130300D01*
X1396200D01*
Y1079500D01*
X1421600D01*
Y571500D02*
Y546100D01*
X1472400D01*
Y571500D01*
X1497800D01*
Y622300D01*
X1472400D01*
Y647700D01*
X1421600D01*
Y622300D01*
X1396200D01*
Y571500D01*
X1421600D01*
X1929600Y1587500D02*
Y1562100D01*
X1980400D01*
Y1587500D01*
X2005800D01*
Y1638300D01*
X1980400D01*
Y1663700D01*
X1929600D01*
Y1638300D01*
X1904200D01*
Y1587500D01*
X1929600D01*
X1421600D02*
Y1562100D01*
X1472400D01*
Y1587500D01*
X1497800D01*
Y1638300D01*
X1472400D01*
Y1663700D01*
X1421600D01*
Y1638300D01*
X1396200D01*
Y1587500D01*
X1421600D01*
X1929600Y1079500D02*
Y1054100D01*
X1980400D01*
Y1079500D01*
X2005800D01*
Y1130300D01*
X1980400D01*
Y1155700D01*
X1929600D01*
Y1130300D01*
X1904200D01*
Y1079500D01*
X1929600D01*
Y571500D02*
Y546100D01*
X1980400D01*
Y571500D01*
X2005800D01*
Y622300D01*
X1980400D01*
Y647700D01*
X1929600D01*
Y622300D01*
X1904200D01*
Y571500D01*
X1929600D01*
X347900Y2029200D02*
Y2003800D01*
X398700D01*
Y2029200D01*
X424100D01*
Y2080000D01*
X398700D01*
Y2105400D01*
X347900D01*
Y2080000D01*
X322500D01*
Y2029200D01*
X347900D01*
Y2537200D02*
Y2511800D01*
X398700D01*
Y2537200D01*
X424100D01*
Y2588000D01*
X398700D01*
Y2613400D01*
X347900D01*
Y2588000D01*
X322500D01*
Y2537200D01*
X347900D01*
X346900Y2279001D02*
Y2253601D01*
X397700D01*
Y2279001D01*
X423100D01*
Y2329801D01*
X397700D01*
Y2355201D01*
X346900D01*
Y2329801D01*
X321500D01*
Y2279001D01*
X346900D01*
X2649707Y995323D02*
Y1096923D01*
X2751307D01*
Y995323D01*
X2649707D01*
X2670027Y1015643D02*
Y1076603D01*
X2730987D01*
Y1015643D01*
X2670027D01*
X2714500Y1000500D02*
Y1102100D01*
X2816100D01*
Y1000500D01*
X2714500D01*
X2734820Y1020820D02*
Y1081780D01*
X2795780D01*
Y1020820D01*
X2734820D01*
X2760735Y944314D02*
Y1045914D01*
X2862335D01*
Y944314D01*
X2760735D01*
X2781055Y964634D02*
Y1025594D01*
X2842015D01*
Y964634D01*
X2781055D01*
X2672546Y1218279D02*
Y1319879D01*
X2774146D01*
Y1218279D01*
X2672546D01*
X2692866Y1238599D02*
Y1299559D01*
X2753826D01*
Y1238599D01*
X2692866D01*
X1844500Y895200D02*
Y996800D01*
X1946100D01*
Y895200D01*
X1844500D01*
X1864820Y915520D02*
Y976480D01*
X1925780D01*
Y915520D01*
X1864820D01*
X2292900Y837000D02*
Y938600D01*
X2394500D01*
Y837000D01*
X2292900D01*
X2313220Y857320D02*
Y918280D01*
X2374180D01*
Y857320D01*
X2313220D01*
X2729400Y697075D02*
Y798675D01*
X2831000D01*
Y697075D01*
X2729400D01*
X2749720Y717395D02*
Y778355D01*
X2810680D01*
Y717395D01*
X2749720D01*
X2191600Y768800D02*
Y870400D01*
X2293200D01*
Y768800D01*
X2191600D01*
X2211920Y789120D02*
Y850080D01*
X2272880D01*
Y789120D01*
X2211920D01*
X2131088Y928200D02*
Y1029800D01*
X2232688D01*
Y928200D01*
X2131088D01*
X2151408Y948520D02*
Y1009480D01*
X2212368D01*
Y948520D01*
X2151408D01*
X1743182Y643346D02*
Y744946D01*
X1844782D01*
Y643346D01*
X1743182D01*
X1763502Y663666D02*
Y724626D01*
X1824462D01*
Y663666D01*
X1763502D01*
X1678208Y641528D02*
Y743128D01*
X1779808D01*
Y641528D01*
X1678208D01*
X1698528Y661848D02*
Y722808D01*
X1759488D01*
Y661848D01*
X1698528D01*
X1728440Y2099727D02*
Y2201327D01*
X1830040D01*
Y2099727D01*
X1728440D01*
X1748760Y2120047D02*
Y2181007D01*
X1809720D01*
Y2120047D01*
X1748760D01*
X898364Y1506789D02*
Y1608389D01*
X999964D01*
Y1506789D01*
X898364D01*
X918684Y1527109D02*
Y1588069D01*
X979644D01*
Y1527109D01*
X918684D01*
X424300Y706738D02*
Y808338D01*
X525900D01*
Y706738D01*
X424300D01*
X444620Y727058D02*
Y788018D01*
X505580D01*
Y727058D01*
X444620D01*
X518689Y2936454D02*
Y3038054D01*
X620289D01*
Y2936454D01*
X518689D01*
X539009Y2956774D02*
Y3017734D01*
X599969D01*
Y2956774D01*
X539009D01*
X975715Y3116901D02*
Y3218501D01*
X1077315D01*
Y3116901D01*
X975715D01*
X996035Y3137221D02*
Y3198181D01*
X1056995D01*
Y3137221D01*
X996035D01*
X2604400Y1348000D02*
Y1449600D01*
X2706000D01*
Y1348000D01*
X2604400D01*
X2624720Y1368320D02*
Y1429280D01*
X2685680D01*
Y1368320D01*
X2624720D01*
X3182400Y219600D02*
Y321200D01*
X3284000D01*
Y219600D01*
X3182400D01*
X3202720Y239920D02*
Y300880D01*
X3263680D01*
Y239920D01*
X3202720D01*
X1964200Y1263200D02*
Y1364800D01*
X2065800D01*
Y1263200D01*
X1964200D01*
X1984520Y1283520D02*
Y1344480D01*
X2045480D01*
Y1283520D01*
X1984520D01*
X942320Y1597021D02*
Y1698621D01*
X1043920D01*
Y1597021D01*
X942320D01*
X962640Y1617341D02*
Y1678301D01*
X1023600D01*
Y1617341D01*
X962640D01*
X1280615Y1458300D02*
Y1559900D01*
X1382215D01*
Y1458300D01*
X1280615D01*
X1300935Y1478620D02*
Y1539580D01*
X1361895D01*
Y1478620D01*
X1300935D01*
X1009226Y2908335D02*
Y3009935D01*
X1110826D01*
Y2908335D01*
X1009226D01*
X1029546Y2928655D02*
Y2989615D01*
X1090506D01*
Y2928655D01*
X1029546D01*
X653551Y3150826D02*
Y3252426D01*
X755151D01*
Y3150826D01*
X653551D01*
X673871Y3171146D02*
Y3232106D01*
X734831D01*
Y3171146D01*
X673871D01*
X373655Y2802789D02*
Y2904389D01*
X475255D01*
Y2802789D01*
X373655D01*
X393975Y2823109D02*
Y2884069D01*
X454935D01*
Y2823109D01*
X393975D01*
X2952200Y653200D02*
Y754800D01*
X3053800D01*
Y653200D01*
X2952200D01*
X2972520Y673520D02*
Y734480D01*
X3033480D01*
Y673520D01*
X2972520D01*
X1839929Y2487529D02*
Y2589129D01*
X1941529D01*
Y2487529D01*
X1839929D01*
X1860249Y2507849D02*
Y2568809D01*
X1921209D01*
Y2507849D01*
X1860249D01*
X1607189Y3019458D02*
Y3121058D01*
X1708789D01*
Y3019458D01*
X1607189D01*
X1627509Y3039778D02*
Y3100738D01*
X1688469D01*
Y3039778D01*
X1627509D01*
X1536200Y3174200D02*
Y3275800D01*
X1637800D01*
Y3174200D01*
X1536200D01*
X1556520Y3194520D02*
Y3255480D01*
X1617480D01*
Y3194520D01*
X1556520D01*
X1700270Y2527811D02*
Y2629411D01*
X1801870D01*
Y2527811D01*
X1700270D01*
X1720590Y2548131D02*
Y2609091D01*
X1781550D01*
Y2548131D01*
X1720590D01*
X1557575Y2484082D02*
Y2585682D01*
X1659175D01*
Y2484082D01*
X1557575D01*
X1577895Y2504402D02*
Y2565362D01*
X1638855D01*
Y2504402D01*
X1577895D01*
X2563200Y605200D02*
Y706800D01*
X2664800D01*
Y605200D01*
X2563200D01*
X2583520Y625520D02*
Y686480D01*
X2644480D01*
Y625520D01*
X2583520D01*
X1153160Y934720D02*
Y1036320D01*
X1254760D01*
Y934720D01*
X1153160D01*
X1173480Y955040D02*
Y1016000D01*
X1234440D01*
Y955040D01*
X1173480D01*
X815300Y1359500D02*
Y1461100D01*
X916900D01*
Y1359500D01*
X815300D01*
X835620Y1379820D02*
Y1440780D01*
X896580D01*
Y1379820D01*
X835620D01*
X2272200Y763200D02*
Y864800D01*
X2373800D01*
Y763200D01*
X2272200D01*
X2292520Y783520D02*
Y844480D01*
X2353480D01*
Y783520D01*
X2292520D01*
X886040Y1394236D02*
Y1495836D01*
X987640D01*
Y1394236D01*
X886040D01*
X906360Y1414556D02*
Y1475516D01*
X967320D01*
Y1414556D01*
X906360D01*
X2032381Y983231D02*
Y1084831D01*
X2133981D01*
Y983231D01*
X2032381D01*
X2052701Y1003551D02*
Y1064511D01*
X2113661D01*
Y1003551D01*
X2052701D01*
X533500Y1893415D02*
Y1995015D01*
X635100D01*
Y1893415D01*
X533500D01*
X553820Y1913735D02*
Y1974695D01*
X614780D01*
Y1913735D01*
X553820D01*
X1243200Y1901300D02*
Y2002900D01*
X1344800D01*
Y1901300D01*
X1243200D01*
X1263520Y1921620D02*
Y1982580D01*
X1324480D01*
Y1921620D01*
X1263520D01*
X1232440Y1721833D02*
Y1823433D01*
X1334040D01*
Y1721833D01*
X1232440D01*
X1252760Y1742153D02*
Y1803113D01*
X1313720D01*
Y1742153D01*
X1252760D01*
X998709Y3357543D02*
Y3459143D01*
X1100309D01*
Y3357543D01*
X998709D01*
X1019029Y3377863D02*
Y3438823D01*
X1079989D01*
Y3377863D01*
X1019029D01*
X877828Y3291508D02*
Y3393108D01*
X979428D01*
Y3291508D01*
X877828D01*
X898148Y3311828D02*
Y3372788D01*
X959108D01*
Y3311828D01*
X898148D01*
X1032873Y3178056D02*
Y3279656D01*
X1134473D01*
Y3178056D01*
X1032873D01*
X1053193Y3198376D02*
Y3259336D01*
X1114153D01*
Y3198376D01*
X1053193D01*
X1145200Y3197299D02*
Y3298899D01*
X1246800D01*
Y3197299D01*
X1145200D01*
X1165520Y3217619D02*
Y3278579D01*
X1226480D01*
Y3217619D01*
X1165520D01*
X978301Y1433630D02*
Y1535230D01*
X1079901D01*
Y1433630D01*
X978301D01*
X998621Y1453950D02*
Y1514910D01*
X1059581D01*
Y1453950D01*
X998621D01*
X1232432Y455968D02*
Y557568D01*
X1334032D01*
Y455968D01*
X1232432D01*
X1252752Y476288D02*
Y537248D01*
X1313712D01*
Y476288D01*
X1252752D01*
X840255Y900208D02*
Y1001808D01*
X941855D01*
Y900208D01*
X840255D01*
X860575Y920528D02*
Y981488D01*
X921535D01*
Y920528D01*
X860575D01*
X2990200Y930200D02*
Y1031800D01*
X3091800D01*
Y930200D01*
X2990200D01*
X3010520Y950520D02*
Y1011480D01*
X3071480D01*
Y950520D01*
X3010520D01*
X3029200Y866200D02*
Y967800D01*
X3130800D01*
Y866200D01*
X3029200D01*
X3049520Y886520D02*
Y947480D01*
X3110480D01*
Y886520D01*
X3049520D01*
X3089200Y3419200D02*
Y3520800D01*
X3190800D01*
Y3419200D01*
X3089200D01*
X3109520Y3439520D02*
Y3500480D01*
X3170480D01*
Y3439520D01*
X3109520D01*
X3024198Y2224042D02*
Y2325642D01*
X3125798D01*
Y2224042D01*
X3024198D01*
X3044518Y2244362D02*
Y2305322D01*
X3105478D01*
Y2244362D01*
X3044518D01*
X546192Y3393200D02*
Y3494800D01*
X647792D01*
Y3393200D01*
X546192D01*
X566512Y3413520D02*
Y3474480D01*
X627472D01*
Y3413520D01*
X566512D01*
X608150Y1863250D02*
Y1964850D01*
X709750D01*
Y1863250D01*
X608150D01*
X628470Y1883570D02*
Y1944530D01*
X689430D01*
Y1883570D01*
X628470D01*
X781111Y1595289D02*
Y1696889D01*
X882711D01*
Y1595289D01*
X781111D01*
X801431Y1615609D02*
Y1676569D01*
X862391D01*
Y1615609D01*
X801431D01*
X887200Y2626200D02*
Y2727800D01*
X988800D01*
Y2626200D01*
X887200D01*
X907520Y2646520D02*
Y2707480D01*
X968480D01*
Y2646520D01*
X907520D01*
X809200Y224200D02*
Y325800D01*
X910800D01*
Y224200D01*
X809200D01*
X829520Y244520D02*
Y305480D01*
X890480D01*
Y244520D01*
X829520D01*
X1108700Y2084500D02*
Y2186100D01*
X1210300D01*
Y2084500D01*
X1108700D01*
X1129020Y2104820D02*
Y2165780D01*
X1189980D01*
Y2104820D01*
X1129020D01*
X1254121Y2049221D02*
Y2150821D01*
X1355721D01*
Y2049221D01*
X1254121D01*
X1274441Y2069541D02*
Y2130501D01*
X1335401D01*
Y2069541D01*
X1274441D01*
X964200Y2377200D02*
Y2478800D01*
X1065800D01*
Y2377200D01*
X964200D01*
X984520Y2397520D02*
Y2458480D01*
X1045480D01*
Y2397520D01*
X984520D01*
X1478200Y2001900D02*
Y2103500D01*
X1579800D01*
Y2001900D01*
X1478200D01*
X1498520Y2022220D02*
Y2083180D01*
X1559480D01*
Y2022220D01*
X1498520D01*
X1476640Y1625627D02*
Y1727227D01*
X1578240D01*
Y1625627D01*
X1476640D01*
X1496960Y1645947D02*
Y1706907D01*
X1557920D01*
Y1645947D01*
X1496960D01*
X2547875Y1811866D02*
Y1913466D01*
X2649475D01*
Y1811866D01*
X2547875D01*
X2568195Y1832186D02*
Y1893146D01*
X2629155D01*
Y1832186D01*
X2568195D01*
X783800Y2536607D02*
Y2638207D01*
X885400D01*
Y2536607D01*
X783800D01*
X804120Y2556927D02*
Y2617887D01*
X865080D01*
Y2556927D01*
X804120D01*
X1133743Y2563356D02*
Y2664956D01*
X1235343D01*
Y2563356D01*
X1133743D01*
X1154063Y2583676D02*
Y2644636D01*
X1215023D01*
Y2583676D01*
X1154063D01*
X2137243Y1824905D02*
Y1926505D01*
X2238843D01*
Y1824905D01*
X2137243D01*
X2157563Y1845225D02*
Y1906185D01*
X2218523D01*
Y1845225D01*
X2157563D01*
X1730046Y1689197D02*
Y1790797D01*
X1831646D01*
Y1689197D01*
X1730046D01*
X1750366Y1709517D02*
Y1770477D01*
X1811326D01*
Y1709517D01*
X1750366D01*
X1673206Y2588536D02*
Y2690136D01*
X1774806D01*
Y2588536D01*
X1673206D01*
X1693526Y2608856D02*
Y2669816D01*
X1754486D01*
Y2608856D01*
X1693526D01*
X1317520Y3022641D02*
Y3124241D01*
X1419120D01*
Y3022641D01*
X1317520D01*
X1337840Y3042961D02*
Y3103921D01*
X1398800D01*
Y3042961D01*
X1337840D01*
X693186Y831400D02*
Y933000D01*
X794786D01*
Y831400D01*
X693186D01*
X713506Y851720D02*
Y912680D01*
X774466D01*
Y851720D01*
X713506D01*
X546702Y3243569D02*
Y3345169D01*
X648302D01*
Y3243569D01*
X546702D01*
X567022Y3263889D02*
Y3324849D01*
X627982D01*
Y3263889D01*
X567022D01*
X1332559Y3604290D02*
Y3705890D01*
X1434159D01*
Y3604290D01*
X1332559D01*
X1352879Y3624610D02*
Y3685570D01*
X1413839D01*
Y3624610D01*
X1352879D01*
X1445000Y3604290D02*
Y3705890D01*
X1546600D01*
Y3604290D01*
X1445000D01*
X1465320Y3624610D02*
Y3685570D01*
X1526280D01*
Y3624610D01*
X1465320D01*
X1488200Y2898392D02*
Y2999992D01*
X1589800D01*
Y2898392D01*
X1488200D01*
X1508520Y2918712D02*
Y2979672D01*
X1569480D01*
Y2918712D01*
X1508520D01*
X1409200Y2556050D02*
Y2657650D01*
X1510800D01*
Y2556050D01*
X1409200D01*
X1429520Y2576370D02*
Y2637330D01*
X1490480D01*
Y2576370D01*
X1429520D01*
X1519200Y2565200D02*
Y2666800D01*
X1620800D01*
Y2565200D01*
X1519200D01*
X1539520Y2585520D02*
Y2646480D01*
X1600480D01*
Y2585520D01*
X1539520D01*
X1218753Y2566217D02*
Y2667817D01*
X1320353D01*
Y2566217D01*
X1218753D01*
X1239073Y2586537D02*
Y2647497D01*
X1300033D01*
Y2586537D01*
X1239073D01*
X1365967Y2456315D02*
Y2557915D01*
X1467567D01*
Y2456315D01*
X1365967D01*
X1386287Y2476635D02*
Y2537595D01*
X1447247D01*
Y2476635D01*
X1386287D01*
X252580Y3617625D02*
Y3719225D01*
X354180D01*
Y3617625D01*
X252580D01*
X272900Y3637945D02*
Y3698905D01*
X333860D01*
Y3637945D01*
X272900D01*
X594200Y3578889D02*
Y3680489D01*
X695800D01*
Y3578889D01*
X594200D01*
X614520Y3599209D02*
Y3660169D01*
X675480D01*
Y3599209D01*
X614520D01*
X385953Y3586718D02*
Y3688318D01*
X487553D01*
Y3586718D01*
X385953D01*
X406273Y3607038D02*
Y3667998D01*
X467233D01*
Y3607038D01*
X406273D01*
X366400Y3465900D02*
Y3567500D01*
X468000D01*
Y3465900D01*
X366400D01*
X386720Y3486220D02*
Y3547180D01*
X447680D01*
Y3486220D01*
X386720D01*
X456400Y3789228D02*
Y3890828D01*
X558000D01*
Y3789228D01*
X456400D01*
X476720Y3809548D02*
Y3870508D01*
X537680D01*
Y3809548D01*
X476720D01*
X549200Y3319200D02*
Y3420800D01*
X650800D01*
Y3319200D01*
X549200D01*
X569520Y3339520D02*
Y3400480D01*
X630480D01*
Y3339520D01*
X569520D01*
X369188Y3354083D02*
Y3455683D01*
X470788D01*
Y3354083D01*
X369188D01*
X389508Y3374403D02*
Y3435363D01*
X450468D01*
Y3374403D01*
X389508D01*
X391698Y3293106D02*
Y3394706D01*
X493298D01*
Y3293106D01*
X391698D01*
X412018Y3313426D02*
Y3374386D01*
X472978D01*
Y3313426D01*
X412018D01*
X388200Y3228200D02*
Y3329800D01*
X489800D01*
Y3228200D01*
X388200D01*
X408520Y3248520D02*
Y3309480D01*
X469480D01*
Y3248520D01*
X408520D01*
X393103Y3125071D02*
Y3226671D01*
X494703D01*
Y3125071D01*
X393103D01*
X413423Y3145391D02*
Y3206351D01*
X474383D01*
Y3145391D01*
X413423D01*
X391539Y3060091D02*
Y3161691D01*
X493139D01*
Y3060091D01*
X391539D01*
X411859Y3080411D02*
Y3141371D01*
X472819D01*
Y3080411D01*
X411859D01*
X1671296Y3477104D02*
Y3578704D01*
X1772896D01*
Y3477104D01*
X1671296D01*
X1691616Y3497424D02*
Y3558384D01*
X1752576D01*
Y3497424D01*
X1691616D01*
X1357243Y3305243D02*
Y3406843D01*
X1458843D01*
Y3305243D01*
X1357243D01*
X1377563Y3325563D02*
Y3386523D01*
X1438523D01*
Y3325563D01*
X1377563D01*
X1248761Y3443039D02*
Y3544639D01*
X1350361D01*
Y3443039D01*
X1248761D01*
X1269081Y3463359D02*
Y3524319D01*
X1330041D01*
Y3463359D01*
X1269081D01*
X1044800Y1102200D02*
Y1203800D01*
X1146400D01*
Y1102200D01*
X1044800D01*
X1065120Y1122520D02*
Y1183480D01*
X1126080D01*
Y1122520D01*
X1065120D01*
X839200Y965200D02*
Y1066800D01*
X940800D01*
Y965200D01*
X839200D01*
X859520Y985520D02*
Y1046480D01*
X920480D01*
Y985520D01*
X859520D01*
X555200Y480200D02*
Y581800D01*
X656800D01*
Y480200D01*
X555200D01*
X575520Y500520D02*
Y561480D01*
X636480D01*
Y500520D01*
X575520D01*
X252200Y642200D02*
Y743800D01*
X353800D01*
Y642200D01*
X252200D01*
X272520Y662520D02*
Y723480D01*
X333480D01*
Y662520D01*
X272520D01*
X3229360Y710200D02*
Y811800D01*
X3330960D01*
Y710200D01*
X3229360D01*
X3249680Y730520D02*
Y791480D01*
X3310640D01*
Y730520D01*
X3249680D01*
X2418653Y1364153D02*
Y1465753D01*
X2520253D01*
Y1364153D01*
X2418653D01*
X2438973Y1384473D02*
Y1445433D01*
X2499933D01*
Y1384473D01*
X2438973D01*
X2242138Y1511735D02*
Y1613335D01*
X2343738D01*
Y1511735D01*
X2242138D01*
X2262458Y1532055D02*
Y1593015D01*
X2323418D01*
Y1532055D01*
X2262458D01*
X2221200Y1450200D02*
Y1551800D01*
X2322800D01*
Y1450200D01*
X2221200D01*
X2241520Y1470520D02*
Y1531480D01*
X2302480D01*
Y1470520D01*
X2241520D01*
X1486654Y2108700D02*
Y2210300D01*
X1588254D01*
Y2108700D01*
X1486654D01*
X1506974Y2129020D02*
Y2189980D01*
X1567934D01*
Y2129020D01*
X1506974D01*
X1438515Y2454515D02*
Y2556115D01*
X1540115D01*
Y2454515D01*
X1438515D01*
X1458835Y2474835D02*
Y2535795D01*
X1519795D01*
Y2474835D01*
X1458835D01*
X1127200Y3298200D02*
Y3399800D01*
X1228800D01*
Y3298200D01*
X1127200D01*
X1147520Y3318520D02*
Y3379480D01*
X1208480D01*
Y3318520D01*
X1147520D01*
X1247028Y3199200D02*
Y3300800D01*
X1348628D01*
Y3199200D01*
X1247028D01*
X1267348Y3219520D02*
Y3280480D01*
X1328308D01*
Y3219520D01*
X1267348D01*
X1432349Y3172258D02*
Y3273858D01*
X1533949D01*
Y3172258D01*
X1432349D01*
X1452669Y3192578D02*
Y3253538D01*
X1513629D01*
Y3192578D01*
X1452669D01*
X703383Y3379167D02*
Y3480767D01*
X804983D01*
Y3379167D01*
X703383D01*
X723703Y3399487D02*
Y3460447D01*
X784663D01*
Y3399487D01*
X723703D01*
X-160800Y3150200D02*
Y3251800D01*
X-59200D01*
Y3150200D01*
X-160800D01*
X-140480Y3170520D02*
Y3231480D01*
X-79520D01*
Y3170520D01*
X-140480D01*
X-155800Y3243200D02*
Y3344800D01*
X-54200D01*
Y3243200D01*
X-155800D01*
X-135480Y3263520D02*
Y3324480D01*
X-74520D01*
Y3263520D01*
X-135480D01*
X2668200Y436200D02*
Y537800D01*
X2769800D01*
Y436200D01*
X2668200D01*
X2688520Y456520D02*
Y517480D01*
X2749480D01*
Y456520D01*
X2688520D01*
X2103200Y102200D02*
Y203800D01*
X2204800D01*
Y102200D01*
X2103200D01*
X2123520Y122520D02*
Y183480D01*
X2184480D01*
Y122520D01*
X2123520D01*
X999200Y603200D02*
Y704800D01*
X1100800D01*
Y603200D01*
X999200D01*
X1019520Y623520D02*
Y684480D01*
X1080480D01*
Y623520D01*
X1019520D01*
X2961200Y771200D02*
Y872800D01*
X3062800D01*
Y771200D01*
X2961200D01*
X2981520Y791520D02*
Y852480D01*
X3042480D01*
Y791520D01*
X2981520D01*
X2860200Y743200D02*
Y844800D01*
X2961800D01*
Y743200D01*
X2860200D01*
X2880520Y763520D02*
Y824480D01*
X2941480D01*
Y763520D01*
X2880520D01*
X2439200Y437521D02*
Y539121D01*
X2540800D01*
Y437521D01*
X2439200D01*
X2459520Y457841D02*
Y518801D01*
X2520480D01*
Y457841D01*
X2459520D01*
X2975200Y303200D02*
Y404800D01*
X3076800D01*
Y303200D01*
X2975200D01*
X2995520Y323520D02*
Y384480D01*
X3056480D01*
Y323520D01*
X2995520D01*
X2440405Y1799806D02*
Y1901406D01*
X2542005D01*
Y1799806D01*
X2440405D01*
X2460725Y1820126D02*
Y1881086D01*
X2521685D01*
Y1820126D01*
X2460725D01*
X2955200Y518200D02*
Y619800D01*
X3056800D01*
Y518200D01*
X2955200D01*
X2975520Y538520D02*
Y599480D01*
X3036480D01*
Y538520D01*
X2975520D01*
X3302200Y191200D02*
Y292800D01*
X3403800D01*
Y191200D01*
X3302200D01*
X3322520Y211520D02*
Y272480D01*
X3383480D01*
Y211520D01*
X3322520D01*
X149200Y111200D02*
Y212800D01*
X250800D01*
Y111200D01*
X149200D01*
X169520Y131520D02*
Y192480D01*
X230480D01*
Y131520D01*
X169520D01*
X1828486Y441049D02*
Y542649D01*
X1930086D01*
Y441049D01*
X1828486D01*
X1848806Y461369D02*
Y522329D01*
X1909766D01*
Y461369D01*
X1848806D01*
X1574597Y132280D02*
Y233880D01*
X1676197D01*
Y132280D01*
X1574597D01*
X1594917Y152600D02*
Y213560D01*
X1655877D01*
Y152600D01*
X1594917D01*
X140620Y850538D02*
Y952138D01*
X242220D01*
Y850538D01*
X140620D01*
X160940Y870858D02*
Y931818D01*
X221900D01*
Y870858D01*
X160940D01*
X421640Y111760D02*
Y213360D01*
X523240D01*
Y111760D01*
X421640D01*
X441960Y132080D02*
Y193040D01*
X502920D01*
Y132080D01*
X441960D01*
X416700Y978278D02*
Y1079878D01*
X518300D01*
Y978278D01*
X416700D01*
X437020Y998598D02*
Y1059558D01*
X497980D01*
Y998598D01*
X437020D01*
X2829200Y1519200D02*
Y1620800D01*
X2930800D01*
Y1519200D01*
X2829200D01*
X2849520Y1539520D02*
Y1600480D01*
X2910480D01*
Y1539520D01*
X2849520D01*
X979200Y3729200D02*
Y3830800D01*
X1080800D01*
Y3729200D01*
X979200D01*
X999520Y3749520D02*
Y3810480D01*
X1060480D01*
Y3749520D01*
X999520D01*
X535200Y3133850D02*
Y3235450D01*
X636800D01*
Y3133850D01*
X535200D01*
X555520Y3154170D02*
Y3215130D01*
X616480D01*
Y3154170D01*
X555520D01*
X2079200Y449200D02*
Y550800D01*
X2180800D01*
Y449200D01*
X2079200D01*
X2099520Y469520D02*
Y530480D01*
X2160480D01*
Y469520D01*
X2099520D01*
X2039200Y3569200D02*
Y3670800D01*
X2140800D01*
Y3569200D01*
X2039200D01*
X2059520Y3589520D02*
Y3650480D01*
X2120480D01*
Y3589520D01*
X2059520D01*
X1102360Y121920D02*
Y223520D01*
X1203960D01*
Y121920D01*
X1102360D01*
X1122680Y142240D02*
Y203200D01*
X1183640D01*
Y142240D01*
X1122680D01*
X2242287Y2106476D02*
Y2208076D01*
X2343887D01*
Y2106476D01*
X2242287D01*
X2262607Y2126796D02*
Y2187756D01*
X2323567D01*
Y2126796D01*
X2262607D01*
X838200Y513080D02*
Y614680D01*
X939800D01*
Y513080D01*
X838200D01*
X858520Y533400D02*
Y594360D01*
X919480D01*
Y533400D01*
X858520D01*
X619016Y148063D02*
Y249663D01*
X720616D01*
Y148063D01*
X619016D01*
X639336Y168383D02*
Y229343D01*
X700296D01*
Y168383D01*
X639336D01*
X1138100Y503509D02*
Y605109D01*
X1239700D01*
Y503509D01*
X1138100D01*
X1158420Y523829D02*
Y584789D01*
X1219380D01*
Y523829D01*
X1158420D01*
X1293613Y434015D02*
Y535615D01*
X1395213D01*
Y434015D01*
X1293613D01*
X1313933Y454335D02*
Y515295D01*
X1374893D01*
Y454335D01*
X1313933D01*
X2629200Y2169200D02*
Y2270800D01*
X2730800D01*
Y2169200D01*
X2629200D01*
X2649520Y2189520D02*
Y2250480D01*
X2710480D01*
Y2189520D01*
X2649520D01*
X965200Y121920D02*
Y223520D01*
X1066800D01*
Y121920D01*
X965200D01*
X985520Y142240D02*
Y203200D01*
X1046480D01*
Y142240D01*
X985520D01*
X289200Y729200D02*
Y830800D01*
X390800D01*
Y729200D01*
X289200D01*
X309520Y749520D02*
Y810480D01*
X370480D01*
Y749520D01*
X309520D01*
X389820Y1079286D02*
Y1180886D01*
X491420D01*
Y1079286D01*
X389820D01*
X410140Y1099606D02*
Y1160566D01*
X471100D01*
Y1099606D01*
X410140D01*
X1508294Y3348753D02*
Y3450353D01*
X1609894D01*
Y3348753D01*
X1508294D01*
X1528614Y3369073D02*
Y3430033D01*
X1589574D01*
Y3369073D01*
X1528614D01*
X1604900Y3161400D02*
Y3263000D01*
X1706500D01*
Y3161400D01*
X1604900D01*
X1625220Y3181720D02*
Y3242680D01*
X1686180D01*
Y3181720D01*
X1625220D01*
X670200Y552200D02*
Y653800D01*
X771800D01*
Y552200D01*
X670200D01*
X690520Y572520D02*
Y633480D01*
X751480D01*
Y572520D01*
X690520D01*
X1839200Y3459200D02*
Y3560800D01*
X1940800D01*
Y3459200D01*
X1839200D01*
X1859520Y3479520D02*
Y3540480D01*
X1920480D01*
Y3479520D01*
X1859520D01*
X1771300Y3597300D02*
Y3698900D01*
X1872900D01*
Y3597300D01*
X1771300D01*
X1791620Y3617620D02*
Y3678580D01*
X1852580D01*
Y3617620D01*
X1791620D01*
X1739646Y3322066D02*
Y3423666D01*
X1841246D01*
Y3322066D01*
X1739646D01*
X1759966Y3342386D02*
Y3403346D01*
X1820926D01*
Y3342386D01*
X1759966D01*
X1729197Y3049194D02*
Y3150794D01*
X1830797D01*
Y3049194D01*
X1729197D01*
X1749517Y3069514D02*
Y3130474D01*
X1810477D01*
Y3069514D01*
X1749517D01*
X1889200Y3542200D02*
Y3643800D01*
X1990800D01*
Y3542200D01*
X1889200D01*
X1909520Y3562520D02*
Y3623480D01*
X1970480D01*
Y3562520D01*
X1909520D01*
D153*
X110800Y2920000D02*
G03*
X110800Y2920000I-50800J0D01*
G01*
Y3818000D02*
G03*
X110800Y3818000I-50800J0D01*
G01*
%TF.MD5,ab61b20e051b39cae64f3199ef50c4c7*%
M02*
