%TF.GenerationSoftware,Altium Limited,Altium Designer,21.4.1 (30)*%
G04 Layer_Color=16711935*
%FSLAX45Y45*%
%MOMM*%
%TF.SameCoordinates,F4A6E2B2-E63A-418B-8CEE-B9A354165880*%
%TF.FilePolarity,Negative*%
%TF.FileFunction,Soldermask,Bot*%
%TF.Part,Single*%
G01*
G75*
%TA.AperFunction,SMDPad,CuDef*%
%ADD18R,0.70000X0.80000*%
%ADD27R,2.00000X1.00000*%
%ADD29R,0.80000X0.70000*%
%ADD30R,0.52000X0.52000*%
%ADD31R,0.50000X0.52000*%
%ADD33R,0.52000X0.50000*%
%ADD37R,0.52000X0.52000*%
%TA.AperFunction,ComponentPad*%
%ADD66C,0.63000*%
%ADD69R,1.30000X1.30000*%
%ADD70C,1.30000*%
%ADD71C,0.70000*%
%ADD72C,1.25000*%
%ADD73C,1.50000*%
%ADD74R,1.50000X1.50000*%
%TA.AperFunction,ViaPad*%
%ADD76C,0.50000*%
%TA.AperFunction,ConnectorPad*%
%ADD78R,0.70000X0.30000*%
%TA.AperFunction,SMDPad,CuDef*%
%ADD79R,0.55000X0.80000*%
%ADD80R,1.25000X2.20000*%
%ADD81R,0.80000X0.65000*%
%ADD82R,1.30000X1.90000*%
%ADD83R,1.00000X2.80000*%
%ADD84R,1.00000X1.20000*%
%ADD85R,1.00000X1.20000*%
%ADD86R,0.70000X1.20000*%
%ADD87R,1.00000X0.80000*%
%ADD88R,0.65000X0.35000*%
%ADD89O,0.25000X1.45000*%
%ADD90R,0.90000X0.70000*%
G04:AMPARAMS|DCode=91|XSize=0.6mm|YSize=1mm|CornerRadius=0.051mm|HoleSize=0mm|Usage=FLASHONLY|Rotation=90.000|XOffset=0mm|YOffset=0mm|HoleType=Round|Shape=RoundedRectangle|*
%AMROUNDEDRECTD91*
21,1,0.60000,0.89800,0,0,90.0*
21,1,0.49800,1.00000,0,0,90.0*
1,1,0.10200,0.44900,0.24900*
1,1,0.10200,0.44900,-0.24900*
1,1,0.10200,-0.44900,-0.24900*
1,1,0.10200,-0.44900,0.24900*
%
%ADD91ROUNDEDRECTD91*%
%ADD92R,0.95000X1.70000*%
%ADD93R,0.60000X0.80000*%
%ADD94R,1.00000X0.70000*%
%TA.AperFunction,NonConductor*%
%ADD95R,0.52000X0.39000*%
G36*
X139932Y2922617D02*
X139726Y2925227D01*
X139385Y2927822D01*
X138908Y2930396D01*
X138296Y2932941D01*
X137553Y2935451D01*
X136679Y2937918D01*
X135677Y2940337D01*
X134550Y2942700D01*
X133301Y2945000D01*
X131934Y2947232D01*
X130451Y2949389D01*
X128858Y2951466D01*
X127157Y2953457D01*
X125355Y2955356D01*
X123457Y2957157D01*
X121466Y2958857D01*
X119389Y2960451D01*
X117232Y2961934D01*
X115000Y2963301D01*
X112700Y2964550D01*
X110337Y2965677D01*
X107919Y2966679D01*
X105451Y2967553D01*
X102941Y2968296D01*
X100396Y2968907D01*
X97822Y2969384D01*
X95227Y2969726D01*
X92617Y2969932D01*
X90000Y2970000D01*
X30000D01*
X27383Y2969932D01*
X24774Y2969726D01*
X22179Y2969384D01*
X19604Y2968907D01*
X17059Y2968296D01*
X14549Y2967553D01*
X12082Y2966679D01*
X9663Y2965677D01*
X7300Y2964550D01*
X5000Y2963301D01*
X2768Y2961934D01*
X611Y2960451D01*
X-1466Y2958857D01*
X-3456Y2957157D01*
X-5355Y2955356D01*
X-7157Y2953457D01*
X-8857Y2951466D01*
X-10451Y2949389D01*
X-11933Y2947232D01*
X-13301Y2945000D01*
X-14550Y2942700D01*
X-15677Y2940337D01*
X-16679Y2937918D01*
X-17553Y2935451D01*
X-18296Y2932941D01*
X-18907Y2930396D01*
X-19384Y2927822D01*
X-19726Y2925227D01*
X-19931Y2922617D01*
X-20000Y2920000D01*
X-19931Y2917383D01*
X-19726Y2914774D01*
X-19384Y2912178D01*
X-18907Y2909605D01*
X-18296Y2907059D01*
X-17553Y2904549D01*
X-16679Y2902082D01*
X-15677Y2899663D01*
X-14550Y2897301D01*
X-13301Y2895000D01*
X-11933Y2892768D01*
X-10451Y2890611D01*
X-8857Y2888534D01*
X-7157Y2886544D01*
X-5355Y2884645D01*
X-3456Y2882843D01*
X-1466Y2881143D01*
X611Y2879549D01*
X2768Y2878067D01*
X5000Y2876699D01*
X7300Y2875450D01*
X9663Y2874323D01*
X12082Y2873321D01*
X14549Y2872447D01*
X17059Y2871704D01*
X19604Y2871093D01*
X22179Y2870616D01*
X24774Y2870274D01*
X27383Y2870069D01*
X30000Y2870000D01*
X90000D01*
X92617Y2870069D01*
X95227Y2870274D01*
X97822Y2870616D01*
X100396Y2871093D01*
X102941Y2871704D01*
X105451Y2872447D01*
X107919Y2873321D01*
X110337Y2874323D01*
X112700Y2875450D01*
X115000Y2876699D01*
X117232Y2878067D01*
X119389Y2879549D01*
X121466Y2881143D01*
X123457Y2882843D01*
X125355Y2884645D01*
X127157Y2886544D01*
X128858Y2888534D01*
X130451Y2890611D01*
X131934Y2892768D01*
X133301Y2895000D01*
X134550Y2897301D01*
X135677Y2899663D01*
X136679Y2902082D01*
X137553Y2904549D01*
X138296Y2907059D01*
X138908Y2909605D01*
X139385Y2912178D01*
X139726Y2914774D01*
X139932Y2917383D01*
X140000Y2920000D01*
X139932Y2922617D01*
D02*
G37*
G36*
X379928Y2990248D02*
X379712Y2992988D01*
X379354Y2995713D01*
X378853Y2998415D01*
X378211Y3001088D01*
X377431Y3003723D01*
X376513Y3006315D01*
X375461Y3008854D01*
X374278Y3011335D01*
X372966Y3013750D01*
X371530Y3016094D01*
X369974Y3018359D01*
X368300Y3020540D01*
X366515Y3022629D01*
X364623Y3024623D01*
X362629Y3026515D01*
X360540Y3028300D01*
X358359Y3029974D01*
X356094Y3031530D01*
X353750Y3032967D01*
X351335Y3034278D01*
X348854Y3035461D01*
X346315Y3036513D01*
X343723Y3037431D01*
X341088Y3038211D01*
X338415Y3038853D01*
X335713Y3039354D01*
X332988Y3039712D01*
X330248Y3039928D01*
X327500Y3040000D01*
X324752Y3039928D01*
X322012Y3039712D01*
X319287Y3039354D01*
X316585Y3038853D01*
X313912Y3038211D01*
X311277Y3037431D01*
X308686Y3036513D01*
X306146Y3035461D01*
X303666Y3034278D01*
X301250Y3032967D01*
X298907Y3031530D01*
X296641Y3029974D01*
X294461Y3028300D01*
X292371Y3026515D01*
X290377Y3024623D01*
X288485Y3022629D01*
X286700Y3020540D01*
X285027Y3018359D01*
X283470Y3016094D01*
X282034Y3013750D01*
X280722Y3011335D01*
X279539Y3008854D01*
X278487Y3006315D01*
X277570Y3003723D01*
X276789Y3001088D01*
X276147Y2998415D01*
X275646Y2995713D01*
X275288Y2992988D01*
X275072Y2990248D01*
X275000Y2987500D01*
Y2975000D01*
X274993Y2974739D01*
X274973Y2974477D01*
X274938Y2974218D01*
X274891Y2973961D01*
X274830Y2973706D01*
X274755Y2973455D01*
X274668Y2973208D01*
X274568Y2972966D01*
X274455Y2972730D01*
X274330Y2972500D01*
X274194Y2972277D01*
X274045Y2972061D01*
X273886Y2971854D01*
X273716Y2971654D01*
X273536Y2971464D01*
X273346Y2971284D01*
X273147Y2971114D01*
X272939Y2970955D01*
X272723Y2970807D01*
X272500Y2970670D01*
X272270Y2970545D01*
X272034Y2970432D01*
X271792Y2970332D01*
X271545Y2970245D01*
X271294Y2970171D01*
X271040Y2970109D01*
X270782Y2970062D01*
X270523Y2970028D01*
X270262Y2970007D01*
X270000Y2970000D01*
X267383Y2969932D01*
X264774Y2969726D01*
X262178Y2969384D01*
X259605Y2968907D01*
X257059Y2968296D01*
X254549Y2967553D01*
X252082Y2966679D01*
X249663Y2965677D01*
X247300Y2964550D01*
X245000Y2963301D01*
X242768Y2961934D01*
X240611Y2960451D01*
X238534Y2958857D01*
X236544Y2957157D01*
X234645Y2955356D01*
X232843Y2953457D01*
X231143Y2951466D01*
X229549Y2949389D01*
X228067Y2947232D01*
X226699Y2945000D01*
X225450Y2942700D01*
X224323Y2940337D01*
X223321Y2937918D01*
X222447Y2935451D01*
X221704Y2932941D01*
X221093Y2930396D01*
X220616Y2927822D01*
X220274Y2925227D01*
X220069Y2922617D01*
X220000Y2920000D01*
X220069Y2917383D01*
X220274Y2914774D01*
X220616Y2912178D01*
X221093Y2909605D01*
X221704Y2907059D01*
X222447Y2904549D01*
X223321Y2902082D01*
X224323Y2899663D01*
X225450Y2897301D01*
X226699Y2895000D01*
X228067Y2892768D01*
X229549Y2890611D01*
X231143Y2888534D01*
X232843Y2886544D01*
X234645Y2884645D01*
X236544Y2882843D01*
X238534Y2881143D01*
X240611Y2879549D01*
X242768Y2878067D01*
X245000Y2876699D01*
X247300Y2875450D01*
X249663Y2874323D01*
X252082Y2873321D01*
X254549Y2872447D01*
X257059Y2871704D01*
X259605Y2871093D01*
X262178Y2870616D01*
X264774Y2870274D01*
X267383Y2870069D01*
X270000Y2870000D01*
X330000D01*
X332617Y2870069D01*
X335227Y2870274D01*
X337822Y2870616D01*
X340396Y2871093D01*
X342941Y2871704D01*
X345451Y2872447D01*
X347919Y2873321D01*
X350337Y2874323D01*
X352700Y2875450D01*
X355000Y2876699D01*
X357232Y2878067D01*
X359389Y2879549D01*
X361466Y2881143D01*
X363457Y2882843D01*
X365355Y2884645D01*
X367157Y2886544D01*
X368858Y2888534D01*
X370451Y2890611D01*
X371934Y2892768D01*
X373301Y2895000D01*
X374550Y2897301D01*
X375677Y2899663D01*
X376679Y2902082D01*
X377553Y2904549D01*
X378296Y2907059D01*
X378908Y2909605D01*
X379385Y2912178D01*
X379726Y2914774D01*
X379932Y2917383D01*
X380000Y2920000D01*
Y2987500D01*
X379928Y2990248D01*
D02*
G37*
G36*
X139932Y3820617D02*
X139726Y3823227D01*
X139385Y3825822D01*
X138908Y3828396D01*
X138296Y3830941D01*
X137553Y3833451D01*
X136679Y3835918D01*
X135677Y3838337D01*
X134550Y3840700D01*
X133301Y3843000D01*
X131934Y3845232D01*
X130451Y3847389D01*
X128858Y3849466D01*
X127157Y3851457D01*
X125355Y3853356D01*
X123457Y3855157D01*
X121466Y3856857D01*
X119389Y3858451D01*
X117232Y3859934D01*
X115000Y3861301D01*
X112700Y3862551D01*
X110337Y3863677D01*
X107919Y3864679D01*
X105451Y3865553D01*
X102941Y3866296D01*
X100396Y3866907D01*
X97822Y3867384D01*
X95227Y3867726D01*
X92617Y3867932D01*
X90000Y3868000D01*
X30000D01*
X27383Y3867932D01*
X24774Y3867726D01*
X22179Y3867384D01*
X19604Y3866907D01*
X17059Y3866296D01*
X14549Y3865553D01*
X12082Y3864679D01*
X9663Y3863677D01*
X7300Y3862551D01*
X5000Y3861301D01*
X2768Y3859934D01*
X611Y3858451D01*
X-1466Y3856857D01*
X-3456Y3855157D01*
X-5355Y3853356D01*
X-7157Y3851457D01*
X-8857Y3849466D01*
X-10451Y3847389D01*
X-11933Y3845232D01*
X-13301Y3843000D01*
X-14550Y3840700D01*
X-15677Y3838337D01*
X-16679Y3835918D01*
X-17553Y3833451D01*
X-18296Y3830941D01*
X-18907Y3828396D01*
X-19384Y3825822D01*
X-19726Y3823227D01*
X-19931Y3820617D01*
X-20000Y3818000D01*
X-19931Y3815383D01*
X-19726Y3812774D01*
X-19384Y3810178D01*
X-18907Y3807605D01*
X-18296Y3805059D01*
X-17553Y3802549D01*
X-16679Y3800082D01*
X-15677Y3797663D01*
X-14550Y3795301D01*
X-13301Y3793000D01*
X-11933Y3790768D01*
X-10451Y3788611D01*
X-8857Y3786534D01*
X-7157Y3784544D01*
X-5355Y3782645D01*
X-3456Y3780843D01*
X-1466Y3779143D01*
X611Y3777549D01*
X2768Y3776067D01*
X5000Y3774699D01*
X7300Y3773450D01*
X9663Y3772323D01*
X12082Y3771321D01*
X14549Y3770447D01*
X17059Y3769704D01*
X19604Y3769093D01*
X22179Y3768616D01*
X24774Y3768274D01*
X27383Y3768069D01*
X30000Y3768000D01*
X90000D01*
X92617Y3768069D01*
X95227Y3768274D01*
X97822Y3768616D01*
X100396Y3769093D01*
X102941Y3769704D01*
X105451Y3770447D01*
X107919Y3771321D01*
X110337Y3772323D01*
X112700Y3773450D01*
X115000Y3774699D01*
X117232Y3776067D01*
X119389Y3777549D01*
X121466Y3779143D01*
X123457Y3780843D01*
X125355Y3782645D01*
X127157Y3784544D01*
X128858Y3786534D01*
X130451Y3788611D01*
X131934Y3790768D01*
X133301Y3793000D01*
X134550Y3795301D01*
X135677Y3797663D01*
X136679Y3800082D01*
X137553Y3802549D01*
X138296Y3805059D01*
X138908Y3807605D01*
X139385Y3810178D01*
X139726Y3812774D01*
X139932Y3815383D01*
X140000Y3818000D01*
X139932Y3820617D01*
D02*
G37*
G36*
X379932D02*
X379726Y3823227D01*
X379385Y3825822D01*
X378908Y3828396D01*
X378296Y3830941D01*
X377553Y3833451D01*
X376679Y3835918D01*
X375677Y3838337D01*
X374550Y3840700D01*
X373301Y3843000D01*
X371934Y3845232D01*
X370451Y3847389D01*
X368858Y3849466D01*
X367157Y3851457D01*
X365355Y3853356D01*
X363457Y3855157D01*
X361466Y3856857D01*
X359389Y3858451D01*
X357232Y3859934D01*
X355000Y3861301D01*
X352700Y3862551D01*
X350337Y3863677D01*
X347919Y3864679D01*
X345451Y3865553D01*
X342941Y3866296D01*
X340396Y3866907D01*
X337822Y3867384D01*
X335227Y3867726D01*
X332617Y3867932D01*
X330000Y3868000D01*
X270000D01*
X267383Y3867932D01*
X264774Y3867726D01*
X262178Y3867384D01*
X259605Y3866907D01*
X257059Y3866296D01*
X254549Y3865553D01*
X252082Y3864679D01*
X249663Y3863677D01*
X247300Y3862551D01*
X245000Y3861301D01*
X242768Y3859934D01*
X240611Y3858451D01*
X238534Y3856857D01*
X236544Y3855157D01*
X234645Y3853356D01*
X232843Y3851457D01*
X231143Y3849466D01*
X229549Y3847389D01*
X228067Y3845232D01*
X226699Y3843000D01*
X225450Y3840700D01*
X224323Y3838337D01*
X223321Y3835918D01*
X222447Y3833451D01*
X221704Y3830941D01*
X221093Y3828396D01*
X220616Y3825822D01*
X220274Y3823227D01*
X220069Y3820617D01*
X220000Y3818000D01*
X220069Y3815383D01*
X220274Y3812774D01*
X220616Y3810178D01*
X221093Y3807605D01*
X221704Y3805059D01*
X222447Y3802549D01*
X223321Y3800082D01*
X224323Y3797663D01*
X225450Y3795301D01*
X226699Y3793000D01*
X228067Y3790768D01*
X229549Y3788611D01*
X231143Y3786534D01*
X232843Y3784544D01*
X234645Y3782645D01*
X236544Y3780843D01*
X238534Y3779143D01*
X240611Y3777549D01*
X242768Y3776067D01*
X245000Y3774699D01*
X247300Y3773450D01*
X249663Y3772323D01*
X252082Y3771321D01*
X254549Y3770447D01*
X257059Y3769704D01*
X259605Y3769093D01*
X262178Y3768616D01*
X264774Y3768274D01*
X267383Y3768069D01*
X270000Y3768000D01*
X270262Y3767993D01*
X270523Y3767973D01*
X270782Y3767939D01*
X271040Y3767891D01*
X271294Y3767830D01*
X271545Y3767755D01*
X271792Y3767668D01*
X272034Y3767568D01*
X272270Y3767455D01*
X272500Y3767330D01*
X272723Y3767193D01*
X272939Y3767045D01*
X273147Y3766886D01*
X273346Y3766716D01*
X273536Y3766536D01*
X273716Y3766346D01*
X273886Y3766147D01*
X274045Y3765939D01*
X274194Y3765723D01*
X274330Y3765500D01*
X274455Y3765270D01*
X274568Y3765034D01*
X274668Y3764792D01*
X274755Y3764545D01*
X274830Y3764294D01*
X274891Y3764040D01*
X274938Y3763782D01*
X274973Y3763523D01*
X274993Y3763262D01*
X275000Y3763000D01*
Y3750500D01*
X275072Y3747752D01*
X275288Y3745012D01*
X275646Y3742287D01*
X276147Y3739585D01*
X276789Y3736912D01*
X277570Y3734277D01*
X278487Y3731686D01*
X279539Y3729146D01*
X280722Y3726666D01*
X282034Y3724250D01*
X283470Y3721906D01*
X285027Y3719641D01*
X286700Y3717461D01*
X288485Y3715371D01*
X290377Y3713377D01*
X292371Y3711485D01*
X294461Y3709700D01*
X296641Y3708027D01*
X298907Y3706470D01*
X301250Y3705034D01*
X303666Y3703722D01*
X306146Y3702539D01*
X308686Y3701487D01*
X311277Y3700570D01*
X313912Y3699789D01*
X316585Y3699147D01*
X319287Y3698646D01*
X322012Y3698288D01*
X324752Y3698072D01*
X327500Y3698000D01*
X330248Y3698072D01*
X332988Y3698288D01*
X335713Y3698646D01*
X338415Y3699147D01*
X341088Y3699789D01*
X343723Y3700570D01*
X346315Y3701487D01*
X348854Y3702539D01*
X351335Y3703722D01*
X353750Y3705034D01*
X356094Y3706470D01*
X358359Y3708027D01*
X360540Y3709700D01*
X362629Y3711485D01*
X364623Y3713377D01*
X366515Y3715371D01*
X368300Y3717461D01*
X369974Y3719641D01*
X371530Y3721906D01*
X372966Y3724250D01*
X374278Y3726666D01*
X375461Y3729146D01*
X376513Y3731686D01*
X377431Y3734277D01*
X378211Y3736912D01*
X378853Y3739585D01*
X379354Y3742287D01*
X379712Y3745012D01*
X379928Y3747752D01*
X380000Y3750500D01*
Y3818000D01*
X379932Y3820617D01*
D02*
G37*
G36*
X491443Y3747172D02*
X491273Y3749338D01*
X490989Y3751492D01*
X490593Y3753629D01*
X490086Y3755741D01*
X489469Y3757824D01*
X488744Y3759872D01*
X487912Y3761880D01*
X486977Y3763841D01*
X485940Y3765750D01*
X484805Y3767603D01*
X483574Y3769393D01*
X482252Y3771117D01*
X480841Y3772769D01*
X479345Y3774345D01*
X477769Y3775841D01*
X476117Y3777252D01*
X474393Y3778574D01*
X472603Y3779805D01*
X470750Y3780940D01*
X468841Y3781977D01*
X466880Y3782912D01*
X464872Y3783744D01*
X462824Y3784469D01*
X460741Y3785086D01*
X458628Y3785593D01*
X456492Y3785989D01*
X454338Y3786273D01*
X452172Y3786443D01*
X450000Y3786500D01*
X447828Y3786443D01*
X445662Y3786273D01*
X443508Y3785989D01*
X441372Y3785593D01*
X439259Y3785086D01*
X437176Y3784469D01*
X435128Y3783744D01*
X433121Y3782912D01*
X431159Y3781977D01*
X429250Y3780940D01*
X427398Y3779805D01*
X425607Y3778574D01*
X423883Y3777252D01*
X422231Y3775841D01*
X420655Y3774345D01*
X419160Y3772769D01*
X417748Y3771117D01*
X416426Y3769393D01*
X415195Y3767603D01*
X414060Y3765750D01*
X413023Y3763841D01*
X412088Y3761880D01*
X411256Y3759872D01*
X410531Y3757824D01*
X409914Y3755741D01*
X409407Y3753629D01*
X409011Y3751492D01*
X408727Y3749338D01*
X408557Y3747172D01*
X408500Y3745000D01*
Y3713000D01*
X408557Y3710828D01*
X408727Y3708662D01*
X409011Y3706508D01*
X409407Y3704372D01*
X409914Y3702259D01*
X410531Y3700176D01*
X411256Y3698128D01*
X412088Y3696121D01*
X413023Y3694159D01*
X414060Y3692250D01*
X415195Y3690397D01*
X416426Y3688607D01*
X417748Y3686883D01*
X419160Y3685231D01*
X420655Y3683655D01*
X422231Y3682160D01*
X423883Y3680749D01*
X425607Y3679426D01*
X427398Y3678195D01*
X429250Y3677060D01*
X431159Y3676023D01*
X433121Y3675088D01*
X435128Y3674257D01*
X437176Y3673531D01*
X439259Y3672914D01*
X441372Y3672407D01*
X443508Y3672011D01*
X445662Y3671727D01*
X447828Y3671557D01*
X450000Y3671500D01*
X452172Y3671557D01*
X454338Y3671727D01*
X456492Y3672011D01*
X458628Y3672407D01*
X460741Y3672914D01*
X462824Y3673531D01*
X464872Y3674257D01*
X466880Y3675088D01*
X468841Y3676023D01*
X470750Y3677060D01*
X472603Y3678195D01*
X474393Y3679426D01*
X476117Y3680749D01*
X477769Y3682160D01*
X479345Y3683655D01*
X480841Y3685231D01*
X482252Y3686883D01*
X483574Y3688607D01*
X484805Y3690397D01*
X485940Y3692250D01*
X486977Y3694159D01*
X487912Y3696121D01*
X488744Y3698128D01*
X489469Y3700176D01*
X490086Y3702259D01*
X490593Y3704372D01*
X490989Y3706508D01*
X491273Y3708662D01*
X491443Y3710828D01*
X491500Y3713000D01*
Y3745000D01*
X491443Y3747172D01*
D02*
G37*
D18*
X1634500Y1917000D02*
D03*
X1769500D02*
D03*
D27*
X3276600Y889000D02*
D03*
Y635000D02*
D03*
Y127000D02*
D03*
Y381000D02*
D03*
D29*
X516641Y237300D02*
D03*
Y372300D02*
D03*
X95500D02*
D03*
Y237300D02*
D03*
X1910600Y880900D02*
D03*
Y745900D02*
D03*
X1489200Y392500D02*
D03*
Y257500D02*
D03*
X606200Y810500D02*
D03*
Y675500D02*
D03*
X1910000Y392500D02*
D03*
Y257500D02*
D03*
X1280000Y880500D02*
D03*
Y745500D02*
D03*
X770000Y242500D02*
D03*
Y377500D02*
D03*
X1229180Y237500D02*
D03*
Y372500D02*
D03*
X2579100Y464600D02*
D03*
Y329600D02*
D03*
X2120900Y267500D02*
D03*
Y402500D02*
D03*
X2574700Y730700D02*
D03*
Y865700D02*
D03*
D30*
X555400Y1496500D02*
D03*
Y1576500D02*
D03*
X642620Y1120780D02*
D03*
Y1200780D02*
D03*
X2065800Y1413900D02*
D03*
Y1493900D02*
D03*
X1332400Y1448100D02*
D03*
Y1368100D02*
D03*
X1292500Y1171100D02*
D03*
Y1251100D02*
D03*
X2530000Y1643000D02*
D03*
Y1563000D02*
D03*
X2586900Y1053100D02*
D03*
Y973100D02*
D03*
D31*
X2562000Y1937400D02*
D03*
X2478000D02*
D03*
X2562000Y2027400D02*
D03*
X2478000D02*
D03*
X2562000Y2119400D02*
D03*
X2478000D02*
D03*
D33*
X2099660Y2025400D02*
D03*
Y2109400D02*
D03*
D37*
X1912000Y1760000D02*
D03*
X1992000D02*
D03*
D66*
X450000Y3009000D02*
D03*
Y3729000D02*
D03*
D69*
X584200Y2072000D02*
D03*
D70*
Y2580000D02*
D03*
Y2326000D02*
D03*
D71*
X2370080Y148399D02*
D03*
X3250000Y2145960D02*
D03*
D72*
X1442500Y2120901D02*
D03*
X1955000Y2120900D02*
D03*
X119300Y2562601D02*
D03*
Y2308600D02*
D03*
Y2054600D02*
D03*
X1955000Y88900D02*
D03*
X1447000D02*
D03*
Y1104900D02*
D03*
Y596900D02*
D03*
X1955000Y1612900D02*
D03*
X1447000D02*
D03*
X1955000Y1104900D02*
D03*
Y596900D02*
D03*
X373300Y2054600D02*
D03*
Y2562600D02*
D03*
X372300Y2304401D02*
D03*
D73*
X2937000Y140000D02*
D03*
D74*
X2683000D02*
D03*
D76*
X1529000Y2052700D02*
D03*
X303380Y3668425D02*
D03*
D78*
X516000Y3094000D02*
D03*
X346000Y3619000D02*
D03*
X516000Y3144000D02*
D03*
Y3194000D02*
D03*
Y3244000D02*
D03*
Y3294000D02*
D03*
Y3344000D02*
D03*
Y3394000D02*
D03*
Y3444000D02*
D03*
Y3494000D02*
D03*
Y3544000D02*
D03*
Y3594000D02*
D03*
Y3644000D02*
D03*
X346000Y3569000D02*
D03*
Y3519000D02*
D03*
Y3469000D02*
D03*
Y3419000D02*
D03*
Y3369000D02*
D03*
Y3319000D02*
D03*
Y3269000D02*
D03*
Y3219000D02*
D03*
Y3169000D02*
D03*
Y3119000D02*
D03*
Y3069000D02*
D03*
D79*
X1785000Y1566000D02*
D03*
X1595000D02*
D03*
X1690000Y1786000D02*
D03*
X314160Y1682260D02*
D03*
X219160Y1462260D02*
D03*
X409160D02*
D03*
X2270760Y1788940D02*
D03*
X2175760Y1568940D02*
D03*
X2365760D02*
D03*
X1117600Y1588280D02*
D03*
X1022600Y1368280D02*
D03*
X1212600D02*
D03*
D80*
X976977Y2029492D02*
D03*
X756977D02*
D03*
D81*
X2104321Y880500D02*
D03*
Y745500D02*
D03*
X235837Y372300D02*
D03*
Y237300D02*
D03*
X113000Y1098500D02*
D03*
Y963500D02*
D03*
X243165Y1236840D02*
D03*
Y1101840D02*
D03*
X380671D02*
D03*
Y1236840D02*
D03*
X380000Y372300D02*
D03*
Y237300D02*
D03*
X1430000Y745500D02*
D03*
Y880500D02*
D03*
X1785140Y392500D02*
D03*
Y257500D02*
D03*
X1960880Y1418780D02*
D03*
Y1283780D02*
D03*
X1700000Y1315500D02*
D03*
Y1180500D02*
D03*
X1827000Y1315500D02*
D03*
Y1180500D02*
D03*
X1573000Y1315500D02*
D03*
Y1180500D02*
D03*
X515620Y1100900D02*
D03*
Y1235900D02*
D03*
X1177020Y1230500D02*
D03*
Y1095500D02*
D03*
X784100Y814700D02*
D03*
Y679700D02*
D03*
X1032240Y1095500D02*
D03*
Y1230500D02*
D03*
X890000Y1095500D02*
D03*
Y1230500D02*
D03*
X2118360Y1290180D02*
D03*
Y1155180D02*
D03*
X2389288Y1290180D02*
D03*
Y1155180D02*
D03*
X2253832Y1290180D02*
D03*
Y1155180D02*
D03*
X2521700Y1290500D02*
D03*
Y1155500D02*
D03*
X2455169Y420821D02*
D03*
Y285821D02*
D03*
X1086391Y372500D02*
D03*
Y237500D02*
D03*
X117000Y803500D02*
D03*
Y668500D02*
D03*
D82*
X2064100Y3764500D02*
D03*
D83*
X730000Y3719500D02*
D03*
D84*
Y2684500D02*
D03*
D85*
X1835000Y2254500D02*
D03*
D86*
X815000D02*
D03*
X910000D02*
D03*
X1020000D02*
D03*
X1130000D02*
D03*
X1240000D02*
D03*
X1350000D02*
D03*
X1460000D02*
D03*
X1570000D02*
D03*
X1680000D02*
D03*
D87*
X730000Y3304500D02*
D03*
D88*
X2197500Y2117400D02*
D03*
Y2067400D02*
D03*
Y2017400D02*
D03*
X2352500D02*
D03*
Y2067400D02*
D03*
Y2117400D02*
D03*
D89*
X2240000Y989900D02*
D03*
X2290000D02*
D03*
X2340000D02*
D03*
X2390000D02*
D03*
X2440000D02*
D03*
X2240000Y584900D02*
D03*
X2290000D02*
D03*
X2340000D02*
D03*
X2390000D02*
D03*
X2440000D02*
D03*
X1576400Y989900D02*
D03*
X1626400D02*
D03*
X1676400D02*
D03*
X1726400D02*
D03*
X1776400D02*
D03*
X1576400Y584900D02*
D03*
X1626400D02*
D03*
X1676400D02*
D03*
X1726400D02*
D03*
X1776400D02*
D03*
X941400Y939100D02*
D03*
X991400D02*
D03*
X1041400D02*
D03*
X1091400D02*
D03*
X1141400D02*
D03*
X941400Y534100D02*
D03*
X991400D02*
D03*
X1041400D02*
D03*
X1091400D02*
D03*
X1141400D02*
D03*
X256574Y922500D02*
D03*
X306574D02*
D03*
X356574D02*
D03*
X406574D02*
D03*
X456574D02*
D03*
X256574Y517500D02*
D03*
X306574D02*
D03*
X356574D02*
D03*
X406574D02*
D03*
X456574D02*
D03*
D90*
X2250440Y405000D02*
D03*
Y265000D02*
D03*
X1642900Y395000D02*
D03*
Y255000D02*
D03*
X943644Y375000D02*
D03*
Y235000D02*
D03*
D91*
X1162500Y1925000D02*
D03*
Y1735000D02*
D03*
X1437500D02*
D03*
Y1830000D02*
D03*
Y1925000D02*
D03*
D92*
X710019Y1790019D02*
D03*
X990018D02*
D03*
D93*
X815000Y1569600D02*
D03*
X685000D02*
D03*
D94*
X750000Y1334600D02*
D03*
D95*
X1978200Y3839992D02*
D03*
%TF.MD5,291ce88944b28a3426c41ee50a4eda3d*%
M02*
