%TF.GenerationSoftware,Altium Limited,Altium Designer,21.4.1 (30)*%
G04 Layer_Physical_Order=2*
G04 Layer_Color=36540*
%FSLAX45Y45*%
%MOMM*%
%TF.SameCoordinates,F4A6E2B2-E63A-418B-8CEE-B9A354165880*%
%TF.FilePolarity,Positive*%
%TF.FileFunction,Copper,L2,Inr,Signal*%
%TF.Part,Single*%
G01*
G75*
%TA.AperFunction,Conductor*%
%ADD10C,0.20000*%
%ADD11C,0.20320*%
%ADD13C,0.30480*%
%ADD55C,0.15240*%
%TA.AperFunction,ComponentPad*%
%ADD66C,0.63000*%
%ADD67O,1.35200X0.75200*%
%ADD68O,1.24000X0.75200*%
%ADD69R,1.30000X1.30000*%
%ADD70C,1.30000*%
%ADD71C,0.70000*%
%ADD72C,1.25000*%
%ADD73C,1.50000*%
%ADD74R,1.50000X1.50000*%
%TA.AperFunction,WasherPad*%
%ADD75C,2.50000*%
%TA.AperFunction,ViaPad*%
%ADD76C,0.50000*%
%TA.AperFunction,Conductor*%
%ADD77C,0.38100*%
G36*
X2145000Y3828903D02*
X2140200D01*
X2134347Y3827739D01*
X2129386Y3824423D01*
X2126070Y3819461D01*
X2124906Y3813609D01*
Y3659528D01*
X2112330Y3653420D01*
X2105381Y3657134D01*
X2097841Y3659421D01*
X2090000Y3660194D01*
X2082159Y3659421D01*
X2074618Y3657134D01*
X2067669Y3653420D01*
X2061579Y3648421D01*
X2056580Y3642331D01*
X2052866Y3635382D01*
X2050579Y3627841D01*
X2049806Y3620000D01*
X2050348Y3614501D01*
X2045157Y3610508D01*
X2038430Y3608459D01*
X1980844Y3666044D01*
X1975589Y3670077D01*
X1969468Y3672612D01*
X1962900Y3673477D01*
X1853019D01*
X1850521Y3676521D01*
X1844430Y3681519D01*
X1837481Y3685234D01*
X1829941Y3687521D01*
X1822100Y3688293D01*
X1814259Y3687521D01*
X1806719Y3685234D01*
X1799770Y3681519D01*
X1793679Y3676521D01*
X1788680Y3670430D01*
X1784966Y3663481D01*
X1782679Y3655941D01*
X1781907Y3648100D01*
X1782679Y3640259D01*
X1784966Y3632718D01*
X1788680Y3625769D01*
X1793679Y3619679D01*
X1799770Y3614680D01*
X1806719Y3610966D01*
X1814259Y3608679D01*
X1822100Y3607906D01*
X1829941Y3608679D01*
X1837481Y3610966D01*
X1844430Y3614680D01*
X1850521Y3619679D01*
X1853019Y3622723D01*
X1896561D01*
X1897427Y3622084D01*
X1903743Y3610023D01*
X1902866Y3608381D01*
X1900579Y3600841D01*
X1899806Y3593000D01*
X1900579Y3585159D01*
X1902866Y3577618D01*
X1906580Y3570670D01*
X1911579Y3564579D01*
X1917670Y3559580D01*
X1924618Y3555866D01*
X1932159Y3553579D01*
X1940000Y3552806D01*
X1943919Y3553193D01*
X2054343Y3442768D01*
Y3235343D01*
X2042274Y3231390D01*
X2026791Y3252487D01*
X2026791Y3252488D01*
X2009709Y3275764D01*
X2008371Y3277161D01*
X2007194Y3278694D01*
X1761904Y3523985D01*
X1762290Y3527904D01*
X1761517Y3535745D01*
X1759230Y3543286D01*
X1755516Y3550234D01*
X1750517Y3556325D01*
X1744427Y3561324D01*
X1737478Y3565038D01*
X1729937Y3567325D01*
X1722096Y3568098D01*
X1714255Y3567325D01*
X1706715Y3565038D01*
X1699766Y3561324D01*
X1693675Y3556325D01*
X1688677Y3550234D01*
X1684962Y3543286D01*
X1682675Y3535745D01*
X1681903Y3527904D01*
X1682675Y3520063D01*
X1684962Y3512523D01*
X1688677Y3505574D01*
X1693675Y3499483D01*
X1699766Y3494485D01*
X1706715Y3490770D01*
X1714255Y3488483D01*
X1722096Y3487711D01*
X1726015Y3488097D01*
X1788484Y3425628D01*
X1783751Y3412400D01*
X1782605Y3412287D01*
X1775065Y3410000D01*
X1768116Y3406286D01*
X1762025Y3401287D01*
X1757026Y3395196D01*
X1753312Y3388247D01*
X1751025Y3380707D01*
X1750253Y3372866D01*
X1751025Y3365025D01*
X1753312Y3357485D01*
X1757026Y3350536D01*
X1762025Y3344445D01*
X1768116Y3339446D01*
X1775065Y3335732D01*
X1782605Y3333445D01*
X1790446Y3332673D01*
X1796217Y3333241D01*
X1984024Y3160028D01*
Y2940846D01*
X1977468Y2378641D01*
X1977486Y2378494D01*
X1977466Y2378347D01*
Y2377106D01*
X1977652Y2375698D01*
X1977626Y2374277D01*
X1977752Y2373155D01*
X1977753Y2373152D01*
Y2373149D01*
X1984854Y2310374D01*
X1984950Y2309990D01*
X1985081Y2307991D01*
X1985974Y2303496D01*
X1986030Y2302261D01*
X2004011Y2201076D01*
X2004012Y2201075D01*
X2004893Y2196114D01*
X1993388Y2188269D01*
X1990293Y2190166D01*
X1979023Y2194835D01*
X1967161Y2197682D01*
X1955000Y2198639D01*
X1942839Y2197682D01*
X1930977Y2194835D01*
X1919707Y2190166D01*
X1909306Y2183793D01*
X1904447Y2179643D01*
X1891653Y2185275D01*
X1891386Y2201584D01*
X1891809Y2202847D01*
X1892216Y2209459D01*
X1890913Y2228204D01*
X1882948Y2342820D01*
X1882804Y2343532D01*
X1882836Y2344258D01*
X1870049Y2490365D01*
X1882027Y2499170D01*
X1882888Y2498908D01*
X1890729Y2498136D01*
X1898570Y2498908D01*
X1906111Y2501195D01*
X1913060Y2504910D01*
X1919150Y2509908D01*
X1924149Y2515999D01*
X1927863Y2522948D01*
X1930150Y2530488D01*
X1930923Y2538329D01*
X1930150Y2546171D01*
X1927863Y2553711D01*
X1924149Y2560660D01*
X1919150Y2566751D01*
X1913060Y2571749D01*
X1906111Y2575463D01*
X1898570Y2577750D01*
X1890729Y2578523D01*
X1882888Y2577750D01*
X1880945Y2577161D01*
X1869978Y2584351D01*
X1868771Y2586348D01*
X1876510Y2715895D01*
X1876412Y2717260D01*
X1876690Y2720785D01*
X1876443Y2723918D01*
X1876529Y2724568D01*
X1876336Y2726028D01*
X1876397Y2727263D01*
X1874021Y2756386D01*
X1860509Y2922004D01*
X1860127Y2923776D01*
X1859611Y2929011D01*
X1858215Y2933613D01*
X1857918Y2935330D01*
X1813495Y3077810D01*
X1817131Y3084612D01*
X1819418Y3092152D01*
X1820190Y3099994D01*
X1819418Y3107835D01*
X1817131Y3115375D01*
X1813416Y3122324D01*
X1808418Y3128415D01*
X1802327Y3133413D01*
X1795378Y3137128D01*
X1787838Y3139415D01*
X1779997Y3140187D01*
X1772155Y3139415D01*
X1764615Y3137128D01*
X1757666Y3133413D01*
X1751576Y3128415D01*
X1746577Y3122324D01*
X1744151Y3117785D01*
X1736189Y3116438D01*
X1730203Y3117392D01*
X1692038Y3195329D01*
X1692834Y3196819D01*
X1695121Y3204359D01*
X1695893Y3212200D01*
X1695121Y3220041D01*
X1692834Y3227582D01*
X1689120Y3234530D01*
X1684121Y3240621D01*
X1678030Y3245620D01*
X1671081Y3249334D01*
X1663541Y3251621D01*
X1655700Y3252394D01*
X1647859Y3251621D01*
X1640319Y3249334D01*
X1633370Y3245620D01*
X1620781Y3247283D01*
X1618749Y3249366D01*
X1615421Y3253421D01*
X1609330Y3258419D01*
X1602381Y3262134D01*
X1594841Y3264421D01*
X1587000Y3265193D01*
X1579947Y3264499D01*
X1578971Y3264596D01*
X1568431Y3274439D01*
X1573389Y3312605D01*
X1573390Y3312607D01*
X1580262Y3365512D01*
X1581424Y3366133D01*
X1587515Y3371131D01*
X1592513Y3377222D01*
X1596228Y3384171D01*
X1598515Y3391711D01*
X1599287Y3399553D01*
X1598515Y3407394D01*
X1596228Y3414934D01*
X1592513Y3421883D01*
X1587515Y3427974D01*
X1581424Y3432972D01*
X1574475Y3436687D01*
X1566935Y3438974D01*
X1559094Y3439746D01*
X1551252Y3438974D01*
X1543712Y3436687D01*
X1536763Y3432972D01*
X1530673Y3427974D01*
X1525674Y3421883D01*
X1521960Y3414934D01*
X1519673Y3407394D01*
X1518900Y3399553D01*
X1519673Y3391711D01*
X1521960Y3384171D01*
X1525674Y3377222D01*
X1529929Y3372038D01*
X1515937Y3264325D01*
X1511861Y3261267D01*
X1502329Y3258162D01*
X1498531Y3260192D01*
X1490991Y3262479D01*
X1483149Y3263252D01*
X1475308Y3262479D01*
X1467768Y3260192D01*
X1460819Y3256478D01*
X1454728Y3251479D01*
X1449730Y3245388D01*
X1446015Y3238440D01*
X1443728Y3230899D01*
X1442956Y3223058D01*
X1443728Y3215217D01*
X1446015Y3207677D01*
X1449730Y3200728D01*
X1454728Y3194637D01*
X1458419Y3191608D01*
X1463479Y2947626D01*
X1463668Y2946390D01*
X1463885Y2943630D01*
X1463825Y2941807D01*
X1481311Y2763812D01*
X1481302Y2763801D01*
X1481301D01*
X1482413Y2751161D01*
X1491274Y2649359D01*
X1488107Y2646141D01*
X1479170Y2641959D01*
X1475382Y2643984D01*
X1467841Y2646271D01*
X1460000Y2647043D01*
X1452159Y2646271D01*
X1444619Y2643984D01*
X1437670Y2640269D01*
X1431579Y2635271D01*
X1426581Y2629180D01*
X1422866Y2622231D01*
X1420579Y2614691D01*
X1419807Y2606850D01*
X1420579Y2599009D01*
X1422866Y2591468D01*
X1426581Y2584519D01*
X1431579Y2578429D01*
X1437670Y2573430D01*
X1444619Y2569716D01*
X1452159Y2567429D01*
X1460000Y2566656D01*
X1463526Y2567004D01*
X1474351Y2555847D01*
X1474163Y2549825D01*
X1471116Y2540943D01*
X1466984Y2538734D01*
X1465808Y2537769D01*
X1464676Y2537221D01*
X1451705Y2537749D01*
X1448799Y2539018D01*
X1448741Y2539089D01*
X1441889Y2544712D01*
X1434071Y2548891D01*
X1426767Y2551106D01*
Y2507115D01*
Y2463124D01*
X1434071Y2465339D01*
X1441889Y2469518D01*
X1448741Y2475141D01*
X1464244Y2474144D01*
X1466984Y2471895D01*
X1473933Y2468181D01*
X1481474Y2465894D01*
X1489315Y2465121D01*
X1497156Y2465894D01*
X1504696Y2468181D01*
X1511645Y2471895D01*
X1517736Y2476894D01*
X1522734Y2482984D01*
X1524825Y2486896D01*
X1534193Y2489946D01*
X1539727Y2489955D01*
X1598384Y2431297D01*
Y1653123D01*
X1483309Y1425978D01*
X1346451Y1155839D01*
X1345873Y1154194D01*
X1342841Y1148044D01*
X1338100Y1134080D01*
X1335223Y1119616D01*
X1334901Y1114697D01*
X1334591Y1113203D01*
X1325955Y996301D01*
X1167064Y678756D01*
X1121635Y587966D01*
X1121499Y587573D01*
X1121331Y587166D01*
X1120983Y586629D01*
X1120571Y585763D01*
X1120308Y585654D01*
X1120065Y585068D01*
X673365Y307844D01*
X673364Y307843D01*
X493881Y196455D01*
X487821Y199694D01*
X480281Y201981D01*
X472440Y202753D01*
X464599Y201981D01*
X457059Y199694D01*
X450110Y195980D01*
X444019Y190981D01*
X439020Y184890D01*
X435306Y177941D01*
X433019Y170401D01*
X432247Y162560D01*
X433019Y154719D01*
X435306Y147179D01*
X439020Y140230D01*
X444019Y134139D01*
X450110Y129140D01*
X457059Y125426D01*
X464599Y123139D01*
X472440Y122367D01*
X480281Y123139D01*
X487821Y125426D01*
X494770Y129140D01*
X500861Y134139D01*
X504388Y138436D01*
X509908Y140723D01*
X515130Y144730D01*
X519137Y149952D01*
X520711Y153753D01*
X619695Y215182D01*
X630459Y206915D01*
X630395Y206705D01*
X629623Y198863D01*
X630395Y191022D01*
X632682Y183482D01*
X636397Y176533D01*
X641395Y170442D01*
X647486Y165444D01*
X654435Y161729D01*
X661975Y159442D01*
X669816Y158670D01*
X677658Y159442D01*
X685198Y161729D01*
X692147Y165444D01*
X698237Y170442D01*
X703236Y176533D01*
X706950Y183482D01*
X709237Y191022D01*
X709779Y196524D01*
X807765Y267691D01*
X810998Y267557D01*
X822035Y262359D01*
X822866Y259618D01*
X826581Y252670D01*
X831579Y246579D01*
X837670Y241580D01*
X844619Y237866D01*
X852159Y235579D01*
X860000Y234806D01*
X867841Y235579D01*
X875382Y237866D01*
X882330Y241580D01*
X888421Y246579D01*
X893420Y252670D01*
X897134Y259618D01*
X899421Y267159D01*
X899801Y271017D01*
X1230771Y491438D01*
X1231503Y492079D01*
X1232442Y492654D01*
X1234129Y493070D01*
X1239055Y492377D01*
X1246772Y490124D01*
X1249813Y484437D01*
X1254811Y478347D01*
X1260902Y473348D01*
X1267851Y469634D01*
X1275391Y467347D01*
X1283232Y466574D01*
X1291073Y467347D01*
X1294340Y468337D01*
X1307278Y469433D01*
X1310993Y462484D01*
X1315992Y456394D01*
X1322082Y451395D01*
X1329031Y447681D01*
X1336571Y445394D01*
X1344413Y444621D01*
X1352254Y445394D01*
X1359794Y447681D01*
X1366743Y451395D01*
X1372834Y456394D01*
X1377832Y462484D01*
X1381547Y469433D01*
X1383834Y476973D01*
X1384606Y484815D01*
X1383834Y492656D01*
X1381547Y500196D01*
X1377832Y507145D01*
X1372834Y513236D01*
X1366743Y518234D01*
X1359794Y521949D01*
X1352254Y524236D01*
X1344413Y525008D01*
X1336571Y524236D01*
X1333305Y523245D01*
X1320366Y522149D01*
X1316652Y529098D01*
X1311653Y535189D01*
X1305563Y540187D01*
X1298614Y543902D01*
X1291073Y546189D01*
X1283232Y546961D01*
X1280190Y546661D01*
X1271978Y555218D01*
X1270891Y558095D01*
X1445238Y1027299D01*
X1447000Y1027161D01*
X1459161Y1028118D01*
X1471023Y1030965D01*
X1482293Y1035634D01*
X1492694Y1042007D01*
X1501970Y1049930D01*
X1509893Y1059206D01*
X1516266Y1069607D01*
X1520934Y1080877D01*
X1523782Y1092739D01*
X1524739Y1104900D01*
X1523782Y1117061D01*
X1520934Y1128923D01*
X1516266Y1140193D01*
X1509893Y1150594D01*
X1501970Y1159870D01*
X1492694Y1167793D01*
X1482293Y1174166D01*
X1471023Y1178835D01*
X1459161Y1181682D01*
X1447000Y1182639D01*
X1434839Y1181682D01*
X1429689Y1180446D01*
X1421013Y1191424D01*
X1528296Y1403187D01*
X1646094Y1635705D01*
X1646959Y1638166D01*
X1647956Y1640574D01*
X1648047Y1641261D01*
X1648277Y1641915D01*
X1648475Y1644516D01*
X1648816Y1647100D01*
Y1827837D01*
X1661503Y1828412D01*
X1670449Y1729906D01*
X1670704Y1728771D01*
X1670917Y1725525D01*
X1671131Y1724452D01*
X1671135Y1724095D01*
X1676234Y1688914D01*
X1703552Y1500437D01*
X1703631Y1499344D01*
Y723247D01*
X1700587Y720749D01*
X1695589Y714658D01*
X1691874Y707710D01*
X1689587Y700169D01*
X1688815Y692328D01*
X1689587Y684487D01*
X1691874Y676947D01*
X1695589Y669998D01*
X1700587Y663907D01*
X1706678Y658909D01*
X1713627Y655194D01*
X1721167Y652907D01*
X1729008Y652135D01*
X1736849Y652907D01*
X1744390Y655194D01*
X1751339Y658909D01*
X1753363Y660570D01*
X1765562Y665725D01*
X1771652Y660726D01*
X1778601Y657012D01*
X1786141Y654725D01*
X1789856Y654359D01*
X1796742Y645759D01*
X1798142Y641601D01*
X1614723Y221642D01*
X1610015Y220214D01*
X1603066Y216499D01*
X1596976Y211501D01*
X1591977Y205410D01*
X1588263Y198461D01*
X1585976Y190921D01*
X1585203Y183080D01*
X1585976Y175238D01*
X1588263Y167698D01*
X1591977Y160749D01*
X1596976Y154659D01*
X1603066Y149660D01*
X1610015Y145946D01*
X1617556Y143659D01*
X1625397Y142886D01*
X1633238Y143659D01*
X1640778Y145946D01*
X1647727Y149660D01*
X1653818Y154659D01*
X1658816Y160749D01*
X1662531Y167698D01*
X1664818Y175238D01*
X1665590Y183080D01*
X1664818Y190921D01*
X1662531Y198461D01*
X1660935Y201447D01*
X1850600Y635707D01*
X1850600Y635708D01*
X1852271Y639535D01*
X1852751Y641200D01*
X1853435Y642792D01*
X1853660Y644349D01*
X1854096Y645860D01*
X1854129Y647592D01*
X1854185Y647978D01*
X1861813Y655605D01*
X1865820Y660828D01*
X1868339Y666909D01*
X1869198Y673436D01*
Y714856D01*
X1868339Y721383D01*
X1865820Y727464D01*
X1861812Y732686D01*
X1854362Y740136D01*
X1854363Y764157D01*
X1855605Y903933D01*
X1868359Y909896D01*
X1870178Y908403D01*
X1877996Y904224D01*
X1885300Y902009D01*
Y946000D01*
X1905300D01*
Y902009D01*
X1912604Y904224D01*
X1920422Y908403D01*
X1927274Y914026D01*
X1932897Y920878D01*
X1937076Y928696D01*
X1939649Y937178D01*
X1939794Y938650D01*
X1953156Y944746D01*
X2039655Y883441D01*
X2097297Y541352D01*
X2099835Y526295D01*
X2096581Y522330D01*
X2092866Y515381D01*
X2090579Y507841D01*
X2089807Y500000D01*
X2090579Y492159D01*
X2092866Y484619D01*
X2096581Y477670D01*
X2101579Y471579D01*
X2107670Y466580D01*
X2114619Y462866D01*
X2122159Y460579D01*
X2130000Y459807D01*
X2137841Y460579D01*
X2145382Y462866D01*
X2152330Y466580D01*
X2158421Y471579D01*
X2163420Y477670D01*
X2167134Y484619D01*
X2169421Y492159D01*
X2170194Y500000D01*
X2169421Y507841D01*
X2167134Y515381D01*
X2163420Y522330D01*
X2158421Y528421D01*
X2152330Y533420D01*
X2149883Y534728D01*
X2147346Y549786D01*
X2089354Y893945D01*
X2089193Y894470D01*
X2089114Y895268D01*
X2086514Y903841D01*
X2082290Y911742D01*
X2076607Y918667D01*
X2072188Y922294D01*
X2070908Y923498D01*
X2070870Y923525D01*
X2070786Y923570D01*
X2070716Y923636D01*
X1940565Y1015878D01*
X1941385Y1020292D01*
X1945561Y1027903D01*
X1955000Y1027161D01*
X1967161Y1028118D01*
X1979023Y1030965D01*
X1990293Y1035634D01*
X2000694Y1042007D01*
X2009970Y1049930D01*
X2017893Y1059206D01*
X2024266Y1069607D01*
X2028934Y1080877D01*
X2031782Y1092739D01*
X2032739Y1104900D01*
X2031782Y1117061D01*
X2028934Y1128923D01*
X2024266Y1140193D01*
X2017893Y1150594D01*
X2009970Y1159870D01*
X2000694Y1167793D01*
X1990293Y1174166D01*
X1979023Y1178835D01*
X1967161Y1181682D01*
X1955000Y1182639D01*
X1942839Y1181682D01*
X1930977Y1178835D01*
X1919707Y1174166D01*
X1909306Y1167793D01*
X1906465Y1165366D01*
X1896966Y1168473D01*
X1893702Y1171168D01*
X1896347Y1538291D01*
X1896257Y1539017D01*
X1896316Y1539748D01*
X1896072Y1544609D01*
X1908481Y1550712D01*
X1909306Y1550007D01*
X1919707Y1543634D01*
X1930977Y1538965D01*
X1942839Y1536118D01*
X1955000Y1535161D01*
X1967161Y1536118D01*
X1979023Y1538965D01*
X1990293Y1543634D01*
X2000694Y1550007D01*
X2009970Y1557930D01*
X2017893Y1567206D01*
X2024266Y1577607D01*
X2028934Y1588877D01*
X2031782Y1600739D01*
X2032739Y1612900D01*
X2031782Y1625061D01*
X2028934Y1636923D01*
X2024266Y1648193D01*
X2017893Y1658594D01*
X2009970Y1667870D01*
X2000694Y1675793D01*
X1990293Y1682166D01*
X1979023Y1686835D01*
X1967161Y1689682D01*
X1955000Y1690639D01*
X1942839Y1689682D01*
X1930977Y1686835D01*
X1919707Y1682166D01*
X1909306Y1675793D01*
X1906981Y1673807D01*
X1894432Y1679791D01*
X1895035Y1703042D01*
X1895000Y1703371D01*
X1895043Y1703700D01*
Y2053487D01*
X1907743Y2059342D01*
X1909306Y2058007D01*
X1919707Y2051634D01*
X1930977Y2046965D01*
X1942839Y2044118D01*
X1955000Y2043161D01*
X1967161Y2044118D01*
X1979023Y2046965D01*
X1990293Y2051634D01*
X2000694Y2058007D01*
X2009970Y2065930D01*
X2011725Y2067985D01*
X2025034Y2064012D01*
X2064213Y1756444D01*
X2063545Y1753739D01*
X2063675Y1747158D01*
X2096236Y1532674D01*
X2096681Y1531137D01*
X2097782Y1523716D01*
X2099679Y1516140D01*
X2099868Y1514501D01*
X2100006Y1513947D01*
X2100013Y1513931D01*
X2100014Y1513915D01*
X2113311Y1461070D01*
X2113773Y1459906D01*
X2117508Y1446941D01*
X2124532Y1429983D01*
X2132384Y1415776D01*
X2132512Y1415464D01*
X2132631Y1415273D01*
X2132927Y1414792D01*
X2132980Y1414708D01*
X2133018Y1414624D01*
X2139476Y1404218D01*
X2139610Y1404004D01*
X2139668Y1403910D01*
X2194662Y1315299D01*
X2206251Y1030161D01*
X2193856Y1022394D01*
X2191888Y1022991D01*
Y979000D01*
Y935009D01*
X2197341Y936663D01*
X2203328Y934107D01*
X2210371Y928799D01*
X2212209Y883576D01*
X2212773Y869312D01*
Y846552D01*
X2208980Y841930D01*
X2205266Y834982D01*
X2202979Y827441D01*
X2202206Y819600D01*
X2202979Y811759D01*
X2205266Y804219D01*
X2208980Y797270D01*
X2213979Y791179D01*
X2220069Y786181D01*
X2227018Y782466D01*
X2234559Y780179D01*
X2242400Y779407D01*
X2250241Y780179D01*
X2257781Y782466D01*
X2264730Y786181D01*
X2270821Y791179D01*
X2273807Y794817D01*
X2276016Y795514D01*
X2282377Y795499D01*
X2288404Y793871D01*
X2289580Y791669D01*
X2294579Y785579D01*
X2300670Y780580D01*
X2307618Y776866D01*
X2315159Y774579D01*
X2323000Y773806D01*
X2330841Y774579D01*
X2338381Y776866D01*
X2345330Y780580D01*
X2351421Y785579D01*
X2356419Y791669D01*
X2369550Y789294D01*
X2371808Y787509D01*
Y634965D01*
X2371856Y634601D01*
X2371835Y634401D01*
X2371826Y634331D01*
X2371828Y634322D01*
X2371818Y634234D01*
X2371837Y633600D01*
X2372095Y632000D01*
X2372667Y624719D01*
X2375216Y614102D01*
X2379395Y604014D01*
X2383642Y597084D01*
X2384271Y595865D01*
X2451506Y499217D01*
X2450579Y496162D01*
X2449807Y488321D01*
X2450579Y480480D01*
X2452866Y472939D01*
X2456581Y465990D01*
X2461579Y459900D01*
X2467670Y454901D01*
X2474619Y451187D01*
X2482159Y448900D01*
X2490000Y448127D01*
X2497841Y448900D01*
X2505382Y451187D01*
X2512331Y454901D01*
X2518421Y459900D01*
X2523420Y465990D01*
X2527134Y472939D01*
X2529421Y480480D01*
X2529472Y480998D01*
X2542700Y485731D01*
X2853891Y174539D01*
X2851140Y167898D01*
X2847833Y154123D01*
X2846722Y140000D01*
X2847833Y125877D01*
X2851140Y112102D01*
X2856561Y99015D01*
X2863963Y86936D01*
X2873164Y76164D01*
X2883936Y66963D01*
X2896015Y59561D01*
X2909102Y54140D01*
X2922877Y50833D01*
X2937000Y49722D01*
X2951123Y50833D01*
X2964898Y54140D01*
X2977985Y59561D01*
X2990064Y66963D01*
X3000836Y76164D01*
X3010037Y86936D01*
X3017438Y99015D01*
X3022860Y112102D01*
X3026167Y125877D01*
X3027278Y140000D01*
X3026167Y154123D01*
X3022860Y167898D01*
X3017438Y180985D01*
X3010037Y193064D01*
X3000836Y203836D01*
X2990064Y213037D01*
X2977985Y220438D01*
X2964898Y225860D01*
X2951123Y229167D01*
X2937000Y230278D01*
X2922877Y229167D01*
X2909102Y225860D01*
X2902461Y223109D01*
X2686055Y439515D01*
X2693879Y449403D01*
X2701696Y445224D01*
X2709000Y443009D01*
Y477000D01*
X2675009D01*
X2677224Y469696D01*
X2681403Y461879D01*
X2671515Y454055D01*
X2476534Y649035D01*
X2475739Y1145570D01*
X2475739Y1145571D01*
X2475739D01*
Y1145626D01*
X2475570Y1146891D01*
X2474812Y1158466D01*
X2472290Y1171141D01*
X2468137Y1183377D01*
X2462421Y1194967D01*
X2455242Y1205712D01*
X2452935Y1208343D01*
X2451798Y1210078D01*
X2351096Y1327059D01*
X2275621Y1448402D01*
X2278082Y1456085D01*
X2281978Y1462227D01*
X2287382Y1463866D01*
X2294330Y1467581D01*
X2300421Y1472579D01*
X2305420Y1478670D01*
X2309134Y1485619D01*
X2311421Y1493159D01*
X2312193Y1501000D01*
X2311421Y1508841D01*
X2309134Y1516381D01*
X2308351Y1525052D01*
X2315268Y1529116D01*
X2321359Y1534114D01*
X2326357Y1540205D01*
X2330072Y1547154D01*
X2332359Y1554694D01*
X2333131Y1562535D01*
X2332359Y1570377D01*
X2330072Y1577917D01*
X2326357Y1584866D01*
X2321359Y1590956D01*
X2316765Y1594727D01*
X2292684Y2085132D01*
X2292110Y2088282D01*
X2291570Y2091420D01*
X2291520Y2091529D01*
X2291498Y2091650D01*
X2290122Y2094558D01*
X2288795Y2097435D01*
X2283822Y2105312D01*
X2291298Y2117259D01*
X2293087Y2117082D01*
X2300928Y2117855D01*
X2308468Y2120142D01*
X2315417Y2123856D01*
X2321508Y2128855D01*
X2326506Y2134945D01*
X2330221Y2141894D01*
X2332508Y2149435D01*
X2333280Y2157276D01*
X2332508Y2165117D01*
X2330221Y2172657D01*
X2326506Y2179606D01*
X2321508Y2185697D01*
X2315417Y2190695D01*
X2308468Y2194410D01*
X2300928Y2196697D01*
X2293087Y2197469D01*
X2285246Y2196697D01*
X2277705Y2194410D01*
X2270756Y2190695D01*
X2264666Y2185697D01*
X2259667Y2179606D01*
X2255953Y2172658D01*
X2242234Y2171181D01*
X2156742Y2306584D01*
X2162873Y2317706D01*
X3044156D01*
X3048700Y2305006D01*
X3046577Y2303263D01*
X3041578Y2297173D01*
X3037864Y2290224D01*
X3035577Y2282684D01*
X3034804Y2274842D01*
X3035577Y2267001D01*
X3037864Y2259461D01*
X3041578Y2252512D01*
X3046577Y2246421D01*
X3049477Y2244041D01*
X3048176Y1965158D01*
X2662009Y1578991D01*
X2661531Y1578368D01*
X2660938Y1577852D01*
X2659520Y1575747D01*
X2657976Y1573735D01*
X2657675Y1573009D01*
X2657237Y1572358D01*
X2587582Y1432469D01*
X2587391Y1431916D01*
X2583345Y1422147D01*
X2580577Y1410619D01*
X2579647Y1398800D01*
X2579699Y1398145D01*
X2579668Y1397888D01*
X2583362Y1091820D01*
X2588252Y686614D01*
X2585579Y684421D01*
X2580581Y678330D01*
X2576866Y671381D01*
X2574579Y663841D01*
X2573807Y656000D01*
X2574579Y648159D01*
X2576866Y640618D01*
X2580581Y633670D01*
X2585579Y627579D01*
X2591670Y622580D01*
X2598619Y618866D01*
X2606159Y616579D01*
X2614000Y615806D01*
X2621841Y616579D01*
X2629382Y618866D01*
X2636331Y622580D01*
X2642421Y627579D01*
X2647420Y633670D01*
X2651134Y640618D01*
X2653421Y648159D01*
X2654194Y656000D01*
X2653421Y663841D01*
X2651134Y671381D01*
X2647420Y678330D01*
X2642421Y684421D01*
X2639002Y687227D01*
X2634112Y1092432D01*
X2631876Y1277717D01*
X2644567Y1278579D01*
X2648384Y1247860D01*
X2648475Y1247513D01*
X2648482Y1247153D01*
X2649308Y1244309D01*
X2650052Y1241449D01*
X2650230Y1241136D01*
X2650330Y1240792D01*
X2651862Y1238262D01*
X2653323Y1235688D01*
X2653575Y1235432D01*
X2653762Y1235125D01*
X2696651Y1181582D01*
X2697923Y1178511D01*
X2701956Y1173256D01*
X2771575Y1103637D01*
X2765808Y1091443D01*
X2765300Y1091493D01*
X2757459Y1090721D01*
X2749919Y1088434D01*
X2742970Y1084719D01*
X2739406Y1081795D01*
X2729683Y1075067D01*
X2722837Y1079542D01*
X2715888Y1083257D01*
X2708348Y1085544D01*
X2700507Y1086316D01*
X2692665Y1085544D01*
X2685125Y1083257D01*
X2678176Y1079542D01*
X2672086Y1074544D01*
X2667087Y1068453D01*
X2663373Y1061504D01*
X2661086Y1053964D01*
X2660313Y1046123D01*
X2661086Y1038281D01*
X2663373Y1030741D01*
X2667087Y1023792D01*
X2672086Y1017702D01*
X2678176Y1012703D01*
X2685125Y1008989D01*
X2692665Y1006702D01*
X2700507Y1005929D01*
X2708348Y1006702D01*
X2715888Y1008989D01*
X2722837Y1012703D01*
X2726400Y1015628D01*
X2736123Y1022356D01*
X2742970Y1017880D01*
X2749919Y1014166D01*
X2757459Y1011879D01*
X2761430Y1011488D01*
X2767786Y1006411D01*
X2771722Y998977D01*
X2771341Y995114D01*
X2772114Y987272D01*
X2774401Y979732D01*
X2778115Y972783D01*
X2783114Y966693D01*
X2789204Y961694D01*
X2796153Y957980D01*
X2803694Y955693D01*
X2811535Y954920D01*
X2819376Y955693D01*
X2826916Y957980D01*
X2832479Y960953D01*
X2836434Y960524D01*
X2846738Y955829D01*
X2879201Y818305D01*
X2877580Y816330D01*
X2873866Y809381D01*
X2871579Y801841D01*
X2870807Y794000D01*
X2871579Y786159D01*
X2873866Y778618D01*
X2877580Y771670D01*
X2882579Y765579D01*
X2888670Y760580D01*
X2895619Y756866D01*
X2903159Y754579D01*
X2911000Y753806D01*
X2918841Y754579D01*
X2926381Y756866D01*
X2933330Y760580D01*
X2939421Y765579D01*
X2944420Y771670D01*
X2948134Y778618D01*
X2950421Y786159D01*
X2951193Y794000D01*
X2950421Y801841D01*
X2948134Y809381D01*
X2946123Y813143D01*
X2954908Y822901D01*
X2972714Y813714D01*
X2974866Y806618D01*
X2978581Y799669D01*
X2983579Y793579D01*
X2989670Y788580D01*
X2996619Y784866D01*
X3004159Y782579D01*
X3012000Y781806D01*
X3019841Y782579D01*
X3027382Y784866D01*
X3034330Y788580D01*
X3040421Y793579D01*
X3045420Y799669D01*
X3049134Y806618D01*
X3051421Y814159D01*
X3052194Y822000D01*
X3051421Y829841D01*
X3049134Y837381D01*
X3045420Y844330D01*
X3040421Y850421D01*
X3034330Y855419D01*
X3027382Y859134D01*
X3019841Y861421D01*
X3012000Y862193D01*
X3004159Y861421D01*
X2996619Y859134D01*
X2996008Y858808D01*
X2966578Y873992D01*
X2885305Y1128539D01*
X2884299Y1130675D01*
X2883455Y1132886D01*
X2882892Y1133664D01*
X2882483Y1134533D01*
X2880958Y1136338D01*
X2879572Y1138253D01*
X2876391Y1141618D01*
X2876390Y1141619D01*
X2861903Y1156944D01*
X2763003Y1263629D01*
X2763540Y1269079D01*
X2762767Y1276920D01*
X2760480Y1284460D01*
X2756766Y1291409D01*
X2751767Y1297500D01*
X2745677Y1302498D01*
X2738728Y1306213D01*
X2731188Y1308500D01*
X2723346Y1309272D01*
X2715505Y1308500D01*
X2707965Y1306213D01*
X2705255Y1304764D01*
X2694111Y1308947D01*
X2691652Y1311243D01*
X2684214Y1371102D01*
X2688619Y1376470D01*
X2692334Y1383419D01*
X2694621Y1390959D01*
X2695393Y1398800D01*
X2694621Y1406641D01*
X2692334Y1414182D01*
X2688619Y1421131D01*
X2683621Y1427221D01*
X2677530Y1432220D01*
X2670581Y1435934D01*
X2663041Y1438221D01*
X2661411Y1438382D01*
X2654029Y1449665D01*
X2653815Y1451619D01*
X2700825Y1546029D01*
X3079204Y1924408D01*
X3091786Y1919030D01*
X3075707Y1203946D01*
X3075785Y1203228D01*
X3075604Y1200000D01*
X3076652Y1181335D01*
X3076652D01*
X3076659Y1181329D01*
X3097850Y983152D01*
X3088753Y973871D01*
X3081193Y981000D01*
X3080421Y988841D01*
X3078134Y996382D01*
X3074420Y1003330D01*
X3069421Y1009421D01*
X3063330Y1014420D01*
X3056381Y1018134D01*
X3048841Y1020421D01*
X3041000Y1021194D01*
X3033159Y1020421D01*
X3025619Y1018134D01*
X3018670Y1014420D01*
X3012579Y1009421D01*
X3007580Y1003330D01*
X3003866Y996382D01*
X3001579Y988841D01*
X3000807Y981000D01*
X3001579Y973159D01*
X3003866Y965619D01*
X3007580Y958670D01*
X3012579Y952579D01*
X3018670Y947581D01*
X3025619Y943866D01*
X3028472Y943000D01*
X3030789Y940935D01*
X3035310Y933055D01*
X3036461Y928492D01*
X3036009Y927000D01*
X3080000D01*
Y917000D01*
X3090000D01*
Y867009D01*
X3093172Y864313D01*
X3094800Y861193D01*
X3046568Y602640D01*
X3039213Y599480D01*
X3032907Y598664D01*
X3028330Y602419D01*
X3021382Y606134D01*
X3013841Y608421D01*
X3006000Y609193D01*
X2998159Y608421D01*
X2990619Y606134D01*
X2983670Y602419D01*
X2977579Y597421D01*
X2972581Y591330D01*
X2968866Y584381D01*
X2966579Y576841D01*
X2965807Y569000D01*
X2966579Y561159D01*
X2968866Y553618D01*
X2972581Y546669D01*
X2977579Y540579D01*
X2983670Y535580D01*
X2990619Y531866D01*
X2998159Y529579D01*
X3006000Y528806D01*
X3013841Y529579D01*
X3020390Y531565D01*
X3023680Y529889D01*
X3031708Y522985D01*
X3006724Y389052D01*
X3003670Y387420D01*
X2997579Y382421D01*
X2992581Y376330D01*
X2988866Y369382D01*
X2986579Y361841D01*
X2985807Y354000D01*
X2986579Y346159D01*
X2988084Y341195D01*
X2987925Y339840D01*
X2988883Y333285D01*
X2991505Y327201D01*
X2995612Y322002D01*
X3000925Y318045D01*
X3007081Y315597D01*
X3013660Y314825D01*
X3016148Y315189D01*
X3018159Y314579D01*
X3026000Y313807D01*
X3033841Y314579D01*
X3041382Y316866D01*
X3048330Y320581D01*
X3054421Y325579D01*
X3059420Y331670D01*
X3063134Y338619D01*
X3065421Y346159D01*
X3066194Y354000D01*
X3065421Y361841D01*
X3063134Y369382D01*
X3059420Y376330D01*
X3056618Y379745D01*
X3154256Y903148D01*
X3154291Y903800D01*
X3154623Y905181D01*
X3155553Y917000D01*
X3155518Y917438D01*
X3155534Y917556D01*
X3155472Y918025D01*
X3155064Y923206D01*
X3155109Y925032D01*
X3150956Y963863D01*
X3136484Y1099208D01*
X3148677Y1104622D01*
X3152049Y1100849D01*
X3163774Y1090371D01*
X3176598Y1081272D01*
X3190361Y1073666D01*
X3204888Y1067648D01*
X3219998Y1063295D01*
X3235500Y1060661D01*
X3251200Y1059779D01*
X3266900Y1060661D01*
X3282402Y1063295D01*
X3297512Y1067648D01*
X3312039Y1073666D01*
X3325802Y1081272D01*
X3338626Y1090371D01*
X3350351Y1100849D01*
X3360829Y1112574D01*
X3369928Y1125398D01*
X3377534Y1139161D01*
X3383552Y1153688D01*
X3387905Y1168798D01*
X3390539Y1184300D01*
X3391420Y1200000D01*
X3390539Y1215700D01*
X3387905Y1231202D01*
X3383552Y1246312D01*
X3377534Y1260839D01*
X3369928Y1274602D01*
X3360829Y1287426D01*
X3350351Y1299151D01*
X3338626Y1309629D01*
X3325802Y1318728D01*
X3312039Y1326334D01*
X3297512Y1332352D01*
X3282402Y1336705D01*
X3266900Y1339339D01*
X3251200Y1340220D01*
X3235500Y1339339D01*
X3219998Y1336705D01*
X3204888Y1332352D01*
X3190361Y1326334D01*
X3176598Y1318728D01*
X3163774Y1309629D01*
X3152049Y1299151D01*
X3141571Y1287426D01*
X3141038Y1286674D01*
X3128428Y1290850D01*
X3142498Y1916557D01*
X3150516Y2273144D01*
X3150459Y2273672D01*
X3150551Y2274842D01*
X3150430Y2276373D01*
X3150502Y2277077D01*
X3147220Y2387960D01*
X3129078Y3001035D01*
X3141342Y3005294D01*
X3141658Y3005277D01*
X3152049Y2993649D01*
X3163774Y2983171D01*
X3176598Y2974072D01*
X3190361Y2966466D01*
X3204888Y2960448D01*
X3219998Y2956095D01*
X3235500Y2953461D01*
X3251200Y2952580D01*
X3266900Y2953461D01*
X3282402Y2956095D01*
X3297512Y2960448D01*
X3312039Y2966466D01*
X3325802Y2974072D01*
X3338626Y2983171D01*
X3350351Y2993649D01*
X3360829Y3005374D01*
X3369928Y3018198D01*
X3377534Y3031961D01*
X3383552Y3046488D01*
X3387905Y3061598D01*
X3390539Y3077100D01*
X3391420Y3092800D01*
X3390539Y3108500D01*
X3387905Y3124002D01*
X3383552Y3139112D01*
X3377534Y3153639D01*
X3369928Y3167402D01*
X3360829Y3180226D01*
X3350351Y3191951D01*
X3338626Y3202429D01*
X3325802Y3211528D01*
X3312039Y3219134D01*
X3297512Y3225152D01*
X3282402Y3229505D01*
X3266900Y3232139D01*
X3251200Y3233020D01*
X3235500Y3232139D01*
X3219998Y3229505D01*
X3204888Y3225152D01*
X3190361Y3219134D01*
X3176598Y3211528D01*
X3163774Y3202429D01*
X3152049Y3191951D01*
X3148541Y3188026D01*
X3136341Y3193433D01*
X3161972Y3436389D01*
X3162330Y3436580D01*
X3168421Y3441579D01*
X3173420Y3447670D01*
X3177134Y3454618D01*
X3179421Y3462159D01*
X3180194Y3470000D01*
X3179421Y3477841D01*
X3177134Y3485381D01*
X3173420Y3492330D01*
X3168421Y3498421D01*
X3162330Y3503419D01*
X3155382Y3507134D01*
X3147841Y3509421D01*
X3140000Y3510193D01*
X3132159Y3509421D01*
X3124619Y3507134D01*
X3117670Y3503419D01*
X3111579Y3498421D01*
X3106581Y3492330D01*
X3102866Y3485381D01*
X3100579Y3477841D01*
X3099807Y3470000D01*
X3100579Y3462159D01*
X3102866Y3454618D01*
X3106581Y3447670D01*
X3111494Y3441682D01*
X3097176Y3305959D01*
X3084494Y3306626D01*
Y3813609D01*
X3085635Y3815000D01*
X3435416D01*
X3444390Y3806014D01*
X3439544Y25415D01*
X2014748Y21309D01*
X2010048Y33726D01*
X2010026Y33996D01*
X2017893Y43206D01*
X2024266Y53607D01*
X2028934Y64877D01*
X2031782Y76739D01*
X2032739Y88900D01*
X2031782Y101061D01*
X2028934Y112923D01*
X2024266Y124193D01*
X2017893Y134594D01*
X2009970Y143870D01*
X2000694Y151793D01*
X1990293Y158166D01*
X1979023Y162835D01*
X1967161Y165682D01*
X1955000Y166639D01*
X1942839Y165682D01*
X1930977Y162835D01*
X1919707Y158166D01*
X1909306Y151793D01*
X1900030Y143870D01*
X1892107Y134594D01*
X1885734Y124193D01*
X1881065Y112923D01*
X1878217Y101061D01*
X1877260Y88900D01*
X1878217Y76739D01*
X1881065Y64877D01*
X1885734Y53607D01*
X1892107Y43206D01*
X1900030Y33930D01*
X1900323Y33680D01*
X1895653Y20966D01*
X1505028Y19840D01*
X1500327Y32527D01*
X1501970Y33930D01*
X1509893Y43206D01*
X1516266Y53607D01*
X1520934Y64877D01*
X1523782Y76739D01*
X1524739Y88900D01*
X1523782Y101061D01*
X1520934Y112923D01*
X1516266Y124193D01*
X1509893Y134594D01*
X1501970Y143870D01*
X1492694Y151793D01*
X1482293Y158166D01*
X1471023Y162835D01*
X1459161Y165682D01*
X1447000Y166639D01*
X1434839Y165682D01*
X1422977Y162835D01*
X1411707Y158166D01*
X1401306Y151793D01*
X1392030Y143870D01*
X1384107Y134594D01*
X1383396Y133433D01*
X1190032Y188591D01*
X1186580Y195050D01*
X1181581Y201141D01*
X1175490Y206140D01*
X1168541Y209854D01*
X1161001Y212141D01*
X1153160Y212913D01*
X1145319Y212141D01*
X1137779Y209854D01*
X1130830Y206140D01*
X1124739Y201141D01*
X1119740Y195050D01*
X1116026Y188101D01*
X1113739Y180561D01*
X1112967Y172720D01*
X1113739Y164879D01*
X1116026Y157339D01*
X1119740Y150390D01*
X1124739Y144299D01*
X1130830Y139300D01*
X1137779Y135586D01*
X1145319Y133299D01*
X1153160Y132527D01*
X1161001Y133299D01*
X1168541Y135586D01*
X1175490Y139300D01*
X1176088Y139790D01*
X1369600Y84590D01*
X1370217Y76739D01*
X1373065Y64877D01*
X1377734Y53607D01*
X1384107Y43206D01*
X1392030Y33930D01*
X1394031Y32220D01*
X1389361Y19507D01*
X29534Y15588D01*
X20549Y24563D01*
X22564Y1181443D01*
X22795Y1182520D01*
X27705Y1193672D01*
X49372D01*
X51823Y1193994D01*
X54291Y1194156D01*
X75543Y1198383D01*
X77887Y1199179D01*
X80274Y1199818D01*
X100293Y1208110D01*
X102435Y1209347D01*
X104652Y1210441D01*
X122668Y1222479D01*
X124529Y1224110D01*
X126489Y1225615D01*
X141811Y1240936D01*
X143317Y1242898D01*
X144947Y1244757D01*
X156985Y1262773D01*
X158078Y1264991D01*
X159315Y1267133D01*
X167607Y1287152D01*
X168247Y1289541D01*
X169042Y1291882D01*
X173269Y1313134D01*
X173431Y1315600D01*
X173754Y1318053D01*
Y1339721D01*
X173431Y1342174D01*
X173269Y1344641D01*
X169042Y1365893D01*
X168247Y1368235D01*
X167607Y1370623D01*
X159315Y1390642D01*
X158078Y1392784D01*
X156985Y1395001D01*
X144947Y1413017D01*
X143315Y1414878D01*
X141811Y1416838D01*
X126489Y1432160D01*
X124527Y1433666D01*
X122668Y1435296D01*
X104652Y1447334D01*
X102435Y1448427D01*
X100293Y1449664D01*
X80274Y1457956D01*
X77885Y1458596D01*
X75543Y1459391D01*
X54292Y1463618D01*
X51825Y1463780D01*
X49372Y1464103D01*
X35757D01*
X23762Y1474302D01*
X23077Y1476074D01*
X24512Y2299624D01*
X37213Y2300112D01*
X37564Y2295654D01*
X40595Y2283027D01*
X45565Y2271030D01*
X52350Y2259958D01*
X60783Y2250083D01*
X70658Y2241650D01*
X81730Y2234865D01*
X93727Y2229895D01*
X106354Y2226864D01*
X109300Y2226632D01*
Y2308601D01*
Y2390568D01*
X106354Y2390336D01*
X93727Y2387305D01*
X81730Y2382335D01*
X70658Y2375550D01*
X60783Y2367116D01*
X52350Y2357242D01*
X45565Y2346170D01*
X40595Y2334173D01*
X37564Y2321546D01*
X37243Y2317472D01*
X24544Y2317982D01*
X25471Y2849966D01*
X25225Y2851214D01*
X25351Y2852480D01*
X25161Y2854426D01*
X25026Y2854874D01*
X27590Y2861198D01*
X27802Y2861500D01*
X32748Y2866149D01*
X34838Y2867146D01*
X90000D01*
X100311Y2868161D01*
X110227Y2871169D01*
X119364Y2876053D01*
X127374Y2882626D01*
X133947Y2890636D01*
X138831Y2899773D01*
X141839Y2909689D01*
X142854Y2920000D01*
X141839Y2930311D01*
X138831Y2940227D01*
X133947Y2949364D01*
X127374Y2957374D01*
X119364Y2963947D01*
X113652Y2967000D01*
X116833Y2979700D01*
X248767D01*
X251948Y2967000D01*
X246236Y2963947D01*
X238227Y2957374D01*
X231653Y2949364D01*
X226769Y2940227D01*
X223761Y2930311D01*
X222746Y2920000D01*
X223761Y2909689D01*
X226769Y2899773D01*
X231653Y2890636D01*
X238227Y2882626D01*
X246236Y2876053D01*
X255374Y2871169D01*
X265289Y2868161D01*
X275600Y2867146D01*
X324400D01*
X334712Y2868161D01*
X344627Y2871169D01*
X353764Y2876053D01*
X361774Y2882626D01*
X368347Y2890636D01*
X373231Y2899773D01*
X376239Y2909689D01*
X377255Y2920000D01*
X376239Y2930311D01*
X373231Y2940227D01*
X368347Y2949364D01*
X361774Y2957374D01*
X353764Y2963947D01*
X344627Y2968831D01*
X334712Y2971839D01*
X324400Y2972854D01*
X281639D01*
X278222Y2979401D01*
X276647Y2985554D01*
X279044Y2989141D01*
X280208Y2994994D01*
Y3199692D01*
X400737Y3206346D01*
X402979Y3204472D01*
X408259Y3194041D01*
X406769Y3191253D01*
X404482Y3183713D01*
X403709Y3175871D01*
X404482Y3168030D01*
X406769Y3160490D01*
X410483Y3153541D01*
X415482Y3147451D01*
Y3140595D01*
X413918Y3139312D01*
X408919Y3133221D01*
X405205Y3126272D01*
X402918Y3118732D01*
X402145Y3110891D01*
X402918Y3103049D01*
X405205Y3095509D01*
X408919Y3088560D01*
X413918Y3082470D01*
X420008Y3077471D01*
X426957Y3073757D01*
X434497Y3071470D01*
X442339Y3070697D01*
X450180Y3071470D01*
X457720Y3073757D01*
X464669Y3077471D01*
X470760Y3082470D01*
X475339Y3088049D01*
X590696Y3097192D01*
X592506Y3097578D01*
X597756Y3098095D01*
X609157Y3101554D01*
X619663Y3107170D01*
X628873Y3114727D01*
X636431Y3123936D01*
X636494Y3124055D01*
X637877Y3126157D01*
X649498Y3120788D01*
X617552Y3009129D01*
X603928Y3007678D01*
X602908Y3009585D01*
X597910Y3015675D01*
X591819Y3020674D01*
X584870Y3024388D01*
X577330Y3026675D01*
X569489Y3027448D01*
X561648Y3026675D01*
X554107Y3024388D01*
X547158Y3020674D01*
X541068Y3015675D01*
X536069Y3009585D01*
X532355Y3002636D01*
X530068Y2995095D01*
X529295Y2987254D01*
X530068Y2979413D01*
X532355Y2971873D01*
X536069Y2964924D01*
X541068Y2958833D01*
X547158Y2953835D01*
X554107Y2950120D01*
X557343Y2949139D01*
X558688Y2947558D01*
X561316Y2938767D01*
X561182Y2935117D01*
X559957Y2933843D01*
X559957Y2933842D01*
X558814Y2931769D01*
X555610Y2928564D01*
X553339Y2925605D01*
X552867Y2925011D01*
X550678Y2922822D01*
X550676Y2922820D01*
X476193Y2863277D01*
X475346Y2863150D01*
X461893Y2868066D01*
X461589Y2868971D01*
X457874Y2875920D01*
X452876Y2882010D01*
X446785Y2887009D01*
X439836Y2890723D01*
X432296Y2893010D01*
X424455Y2893783D01*
X416613Y2893010D01*
X409073Y2890723D01*
X402124Y2887009D01*
X396033Y2882010D01*
X391035Y2875920D01*
X387321Y2868971D01*
X385034Y2861430D01*
X384261Y2853589D01*
X385034Y2845748D01*
X387321Y2838208D01*
X391035Y2831259D01*
X392491Y2829485D01*
X390261Y2816835D01*
X388777Y2814693D01*
X206036Y2749910D01*
X205047Y2749405D01*
X203064Y2748803D01*
X192515Y2743165D01*
X183269Y2735577D01*
X175681Y2726331D01*
X174144Y2723456D01*
X173123Y2722081D01*
X127297Y2639711D01*
X119300Y2640340D01*
X107139Y2639383D01*
X95277Y2636535D01*
X84007Y2631867D01*
X73606Y2625494D01*
X64330Y2617571D01*
X56407Y2608295D01*
X50034Y2597894D01*
X45365Y2586624D01*
X42518Y2574762D01*
X41560Y2562601D01*
X42518Y2550440D01*
X45365Y2538578D01*
X50034Y2527308D01*
X56407Y2516907D01*
X64330Y2507631D01*
X73606Y2499708D01*
X84007Y2493335D01*
X95277Y2488666D01*
X107139Y2485818D01*
X119300Y2484861D01*
X131461Y2485818D01*
X143323Y2488666D01*
X154593Y2493335D01*
X164994Y2499708D01*
X174270Y2507631D01*
X182193Y2516907D01*
X188566Y2527308D01*
X193235Y2538578D01*
X196082Y2550440D01*
X197039Y2562601D01*
X196082Y2574762D01*
X193235Y2586624D01*
X188566Y2597894D01*
X182193Y2608295D01*
X180638Y2610115D01*
X226406Y2692379D01*
X226433Y2692377D01*
X226434Y2692378D01*
X226458Y2692388D01*
X226465Y2692403D01*
X226465Y2692404D01*
X226467Y2692424D01*
X238387Y2696657D01*
X453103Y2772776D01*
X454741Y2773611D01*
X463382Y2777191D01*
X471838Y2782372D01*
X472260Y2782547D01*
X472804Y2782964D01*
X474854Y2784220D01*
X476858Y2785932D01*
X477993Y2786618D01*
X495327Y2800476D01*
X584420Y2871698D01*
X588769Y2875174D01*
X588811Y2875211D01*
X588828Y2875221D01*
X588840Y2875231D01*
X590176Y2876304D01*
X592293Y2878247D01*
X592637Y2878511D01*
X593829Y2879657D01*
X593836Y2879663D01*
X593835Y2879664D01*
X598421Y2884295D01*
X600572Y2887099D01*
X602215Y2888901D01*
X603351Y2890037D01*
X603352Y2890037D01*
X604550Y2891235D01*
X604735Y2891476D01*
X608869Y2895778D01*
X609261Y2896490D01*
X649234Y2928444D01*
X649997Y2928926D01*
X652397Y2930924D01*
X654910Y2932786D01*
X655450Y2933466D01*
X656116Y2934021D01*
X657918Y2936573D01*
X659862Y2939020D01*
X660208Y2939816D01*
X660709Y2940525D01*
X661789Y2943458D01*
X663033Y2946324D01*
X726484Y3168101D01*
X726681Y3168207D01*
X732772Y3173205D01*
X737770Y3179296D01*
X741485Y3186245D01*
X743772Y3193785D01*
X744544Y3201626D01*
X743772Y3209468D01*
X741485Y3217008D01*
X737770Y3223957D01*
X732772Y3230047D01*
X726681Y3235046D01*
X719732Y3238760D01*
X714781Y3240262D01*
X709590Y3248117D01*
X707602Y3253517D01*
X707722Y3254248D01*
X710899Y3264720D01*
X711006Y3265068D01*
X712173Y3276925D01*
X712097D01*
Y3293337D01*
X712173D01*
X711940Y3305973D01*
X711940Y3305979D01*
X711016Y3378679D01*
X710874Y3391373D01*
X710803Y3393355D01*
X710496Y3400884D01*
X711082Y3401269D01*
X723045Y3404856D01*
X725762Y3401546D01*
X731852Y3396548D01*
X738801Y3392833D01*
X746342Y3390546D01*
X754183Y3389774D01*
X762024Y3390546D01*
X769564Y3392833D01*
X776513Y3396548D01*
X782604Y3401546D01*
X787602Y3407637D01*
X791317Y3414586D01*
X793604Y3422126D01*
X794376Y3429967D01*
X793604Y3437808D01*
X791317Y3445349D01*
X787602Y3452298D01*
X782604Y3458388D01*
X776513Y3463387D01*
X769564Y3467101D01*
X762024Y3469388D01*
X754183Y3470161D01*
X746342Y3469388D01*
X738801Y3467101D01*
X731852Y3463387D01*
X725762Y3458388D01*
X721100Y3452707D01*
X719608Y3452626D01*
X708261Y3455849D01*
X707799Y3467224D01*
X707585Y3468460D01*
X707646Y3469713D01*
X700344Y3558882D01*
X699958Y3560671D01*
X699454Y3565785D01*
X695996Y3577185D01*
X695436Y3578233D01*
X695372Y3578451D01*
X680711Y3611645D01*
X682134Y3614307D01*
X684421Y3621847D01*
X685193Y3629689D01*
X684421Y3637530D01*
X682134Y3645070D01*
X678420Y3652019D01*
X673421Y3658110D01*
X667330Y3663108D01*
X660381Y3666823D01*
X652841Y3669110D01*
X645000Y3669882D01*
X637159Y3669110D01*
X629619Y3666823D01*
X622670Y3663108D01*
X616579Y3658110D01*
X611580Y3652019D01*
X607866Y3645070D01*
X605579Y3637530D01*
X604807Y3629689D01*
X605579Y3621847D01*
X607866Y3614307D01*
X611580Y3607358D01*
X616579Y3601268D01*
X622670Y3596269D01*
X629619Y3592555D01*
X634284Y3591140D01*
X645495Y3565755D01*
X649741Y3554738D01*
D01*
X650745Y3542698D01*
X653282Y3511715D01*
X651746Y3510179D01*
X641048Y3505508D01*
X476924Y3637741D01*
X476174Y3645359D01*
X473887Y3652899D01*
X470173Y3659848D01*
X465174Y3665939D01*
X459659Y3670465D01*
X459415Y3676168D01*
X461679Y3683951D01*
X467881Y3685832D01*
X475959Y3690150D01*
X483040Y3695961D01*
X488850Y3703041D01*
X493168Y3711119D01*
X495827Y3719885D01*
X496725Y3729000D01*
X495827Y3738116D01*
X493168Y3746881D01*
X488850Y3754959D01*
X483040Y3762040D01*
X475959Y3767850D01*
X467881Y3772168D01*
X459116Y3774827D01*
X450000Y3775725D01*
X440885Y3774827D01*
X432119Y3772168D01*
X424041Y3767850D01*
X416961Y3762040D01*
X411150Y3754959D01*
X406832Y3746881D01*
X404173Y3738116D01*
X403275Y3729000D01*
X404173Y3719885D01*
X406832Y3711119D01*
X411150Y3703041D01*
X416961Y3695961D01*
X424041Y3690150D01*
X426200Y3688996D01*
X424385Y3675566D01*
X421372Y3674652D01*
X414423Y3670937D01*
X408332Y3665939D01*
X403333Y3659848D01*
X399619Y3652899D01*
X397332Y3645359D01*
X396742Y3639373D01*
X391889Y3635847D01*
X384232Y3633106D01*
X343310Y3665754D01*
X343574Y3668425D01*
X342801Y3676266D01*
X340514Y3683806D01*
X336800Y3690755D01*
X331801Y3696846D01*
X325711Y3701845D01*
X318762Y3705559D01*
X311221Y3707846D01*
X303380Y3708618D01*
X295539Y3707846D01*
X292908Y3707048D01*
X282171Y3713217D01*
X280208Y3715795D01*
Y3742994D01*
X279044Y3748847D01*
X276639Y3752446D01*
X278201Y3758565D01*
X281620Y3765146D01*
X324400D01*
X334712Y3766161D01*
X344627Y3769169D01*
X353764Y3774053D01*
X361774Y3780627D01*
X368347Y3788636D01*
X373231Y3797774D01*
X376239Y3807689D01*
X377255Y3818000D01*
X376239Y3828312D01*
X373231Y3838227D01*
X368347Y3847364D01*
X364675Y3851838D01*
X369049Y3863305D01*
X370180Y3864538D01*
X460545D01*
X464202Y3861031D01*
X468983Y3851838D01*
X467779Y3847869D01*
X467006Y3840028D01*
X467779Y3832187D01*
X470066Y3824646D01*
X473780Y3817697D01*
X478779Y3811607D01*
X484869Y3806608D01*
X491818Y3802894D01*
X499359Y3800607D01*
X507200Y3799834D01*
X515041Y3800607D01*
X522581Y3802894D01*
X529530Y3806608D01*
X535621Y3811607D01*
X540619Y3817697D01*
X544334Y3824646D01*
X546621Y3832187D01*
X547393Y3840028D01*
X546621Y3847869D01*
X545417Y3851838D01*
X550198Y3861031D01*
X553855Y3864538D01*
X2145000Y3864538D01*
Y3828903D01*
D02*
G37*
G36*
X396328Y3565084D02*
X394870Y3550120D01*
X388779Y3545121D01*
X383781Y3539031D01*
X380066Y3532082D01*
X377779Y3524541D01*
X377007Y3516700D01*
X377779Y3508859D01*
X380066Y3501319D01*
X383781Y3494370D01*
X388779Y3488279D01*
X394870Y3483281D01*
X401819Y3479566D01*
X409359Y3477279D01*
X417200Y3476507D01*
X425042Y3477279D01*
X432582Y3479566D01*
X439531Y3483281D01*
X445621Y3488279D01*
X450620Y3494369D01*
X465582Y3495814D01*
X469447Y3490967D01*
X469448Y3490967D01*
X541923Y3400085D01*
X543077Y3398973D01*
X544011Y3397880D01*
X544931Y3396558D01*
X560931Y3379001D01*
X560579Y3377841D01*
X559807Y3370000D01*
X560579Y3362159D01*
X562866Y3354619D01*
X566581Y3347670D01*
X571579Y3341579D01*
X572546Y3340786D01*
X573578Y3335677D01*
X572847Y3326870D01*
X572018Y3325201D01*
X569081Y3322790D01*
X564082Y3316699D01*
X560368Y3309751D01*
X558168Y3302497D01*
X491490Y3274279D01*
X486780Y3276087D01*
X478828Y3282711D01*
X478421Y3286841D01*
X476134Y3294382D01*
X472419Y3301330D01*
X467421Y3307421D01*
X470919Y3315485D01*
X475918Y3321575D01*
X479632Y3328524D01*
X481919Y3336064D01*
X482691Y3343906D01*
X481919Y3351747D01*
X479632Y3359287D01*
X475918Y3366236D01*
X470919Y3372327D01*
X464828Y3377325D01*
X457880Y3381040D01*
X458522Y3394116D01*
X459409Y3397042D01*
X460181Y3404883D01*
X459409Y3412724D01*
X457122Y3420265D01*
X453408Y3427214D01*
X448409Y3433304D01*
X442318Y3438303D01*
X435369Y3442017D01*
X427829Y3444304D01*
X419988Y3445077D01*
X412147Y3444304D01*
X404607Y3442017D01*
X397658Y3438303D01*
X391567Y3433304D01*
X386568Y3427214D01*
X384488Y3423322D01*
X290073Y3403381D01*
X280208Y3411380D01*
Y3621055D01*
X282171Y3623633D01*
X292908Y3629802D01*
X295539Y3629004D01*
X303380Y3628232D01*
X311221Y3629004D01*
X314835Y3630100D01*
X396328Y3565084D01*
D02*
G37*
G36*
X-14648Y3863305D02*
X-10275Y3851838D01*
X-13947Y3847364D01*
X-18831Y3838227D01*
X-21839Y3828312D01*
X-22854Y3818000D01*
X-21839Y3807689D01*
X-18831Y3797774D01*
X-13947Y3788636D01*
X-7373Y3780627D01*
X636Y3774053D01*
X6371Y3770988D01*
X3190Y3758288D01*
X-61086D01*
X-66939Y3757124D01*
X-71900Y3753808D01*
X-75216Y3748847D01*
X-76380Y3742994D01*
Y3338251D01*
X-89080Y3330846D01*
X-89619Y3331134D01*
X-97159Y3333421D01*
X-105000Y3334193D01*
X-112841Y3333421D01*
X-120382Y3331134D01*
X-127330Y3327420D01*
X-133421Y3322421D01*
X-138420Y3316330D01*
X-142134Y3309381D01*
X-144421Y3301841D01*
X-145194Y3294000D01*
X-144421Y3286159D01*
X-142134Y3278619D01*
X-138420Y3271670D01*
X-133421Y3265579D01*
X-127330Y3260580D01*
X-120382Y3256866D01*
X-112841Y3254579D01*
X-105000Y3253807D01*
X-97159Y3254579D01*
X-92633Y3255952D01*
X-82189Y3249133D01*
X-81269Y3248176D01*
X-81219Y3244090D01*
X-93473Y3237522D01*
X-94619Y3238134D01*
X-102159Y3240421D01*
X-110000Y3241193D01*
X-117841Y3240421D01*
X-125382Y3238134D01*
X-132330Y3234419D01*
X-138421Y3229421D01*
X-143420Y3223330D01*
X-147134Y3216381D01*
X-149421Y3208841D01*
X-150194Y3201000D01*
X-149421Y3193159D01*
X-147134Y3185618D01*
X-143420Y3178670D01*
X-138421Y3172579D01*
X-132330Y3167580D01*
X-125382Y3163866D01*
X-117841Y3161579D01*
X-110000Y3160806D01*
X-102159Y3161579D01*
X-94619Y3163866D01*
X-89080Y3166827D01*
X-83941Y3165214D01*
X-76380Y3160416D01*
Y2994994D01*
X-75216Y2989141D01*
X-71900Y2984180D01*
X-66939Y2980864D01*
X-61086Y2979700D01*
X3167D01*
X6348Y2967000D01*
X636Y2963947D01*
X-7373Y2957374D01*
X-13947Y2949364D01*
X-18831Y2940227D01*
X-21839Y2930311D01*
X-22854Y2920000D01*
X-21839Y2909689D01*
X-18831Y2899773D01*
X-17983Y2898188D01*
X-25596Y2885488D01*
X-204512Y2885488D01*
X-204512Y3864538D01*
X-15779D01*
X-14648Y3863305D01*
D02*
G37*
G36*
X1706770Y3050573D02*
X1775420Y2910382D01*
X1790827Y2721537D01*
X1790515Y2721218D01*
Y2721218D01*
X1790376Y2720884D01*
X1790542Y2720486D01*
X1790135Y2708256D01*
X1784815Y2619092D01*
X1777749Y2614721D01*
X1771725Y2612926D01*
X1766452Y2615745D01*
X1761140Y2623955D01*
X1763427Y2631495D01*
X1764199Y2639336D01*
X1763427Y2647177D01*
X1761140Y2654718D01*
X1757425Y2661667D01*
X1752427Y2667757D01*
X1746336Y2672756D01*
X1739387Y2676470D01*
X1731847Y2678757D01*
X1724006Y2679530D01*
X1716165Y2678757D01*
X1708624Y2676470D01*
X1706255Y2675204D01*
X1694612Y2679500D01*
X1692422Y2681591D01*
X1647623Y2972400D01*
X1647400Y2973165D01*
X1644887Y2985584D01*
X1644875Y2985715D01*
X1641471Y2996934D01*
X1636622Y3008672D01*
X1629709Y3025618D01*
X1639738Y3034658D01*
X1642608Y3033124D01*
X1650148Y3030837D01*
X1657989Y3030064D01*
X1665831Y3030837D01*
X1673371Y3033124D01*
X1680320Y3036838D01*
X1686410Y3041837D01*
X1691409Y3047927D01*
X1692722Y3050384D01*
X1705601Y3051005D01*
X1706770Y3050573D01*
D02*
G37*
G36*
X2264464Y1269561D02*
X2265459Y1268348D01*
X2267205Y1265499D01*
X2267409Y1265260D01*
X2267509Y1265080D01*
X2292806Y1230802D01*
X2294833Y1228697D01*
X2369902Y1145729D01*
X2371808Y1140819D01*
Y932532D01*
X2359108Y924920D01*
X2359081Y924934D01*
X2351541Y927221D01*
X2343700Y927994D01*
X2335859Y927221D01*
X2328318Y924934D01*
X2321369Y921220D01*
X2315279Y916221D01*
X2310280Y910131D01*
X2306566Y903182D01*
X2304279Y895641D01*
X2303506Y887800D01*
X2304279Y879959D01*
X2306566Y872419D01*
X2310280Y865470D01*
X2310449Y865264D01*
X2307882Y852452D01*
X2306771Y850736D01*
X2306657Y850620D01*
X2300670Y847419D01*
X2294579Y842421D01*
X2291593Y838783D01*
X2289384Y838086D01*
X2283023Y838101D01*
X2276996Y839729D01*
X2275819Y841930D01*
X2270821Y848021D01*
X2264730Y853020D01*
X2263205Y853835D01*
Y869807D01*
X2263139Y870305D01*
X2263185Y870803D01*
X2262600Y885597D01*
X2262597Y885610D01*
X2262599Y885624D01*
X2246784Y1274735D01*
X2258922Y1278470D01*
X2264464Y1269561D01*
D02*
G37*
%LPC*%
G36*
X1030000Y3820194D02*
X1022159Y3819421D01*
X1014618Y3817134D01*
X1007670Y3813420D01*
X1001579Y3808421D01*
X996580Y3802330D01*
X992866Y3795382D01*
X990579Y3787841D01*
X989807Y3780000D01*
X990579Y3772159D01*
X992866Y3764619D01*
X996580Y3757670D01*
X1001579Y3751579D01*
X1007670Y3746581D01*
X1014618Y3742866D01*
X1022159Y3740579D01*
X1030000Y3739807D01*
X1037841Y3740579D01*
X1045381Y3742866D01*
X1052330Y3746581D01*
X1058421Y3751579D01*
X1063420Y3757670D01*
X1067134Y3764619D01*
X1069421Y3772159D01*
X1070193Y3780000D01*
X1069421Y3787841D01*
X1067134Y3795382D01*
X1063420Y3802330D01*
X1058421Y3808421D01*
X1052330Y3813420D01*
X1045381Y3817134D01*
X1037841Y3819421D01*
X1030000Y3820194D01*
D02*
G37*
G36*
X1495800Y3695283D02*
X1487959Y3694511D01*
X1480418Y3692224D01*
X1473469Y3688510D01*
X1467379Y3683511D01*
X1462380Y3677420D01*
X1458666Y3670471D01*
X1456379Y3662931D01*
X1456371Y3662854D01*
X1436012Y3652020D01*
X1432419Y3652905D01*
X1423114Y3659542D01*
X1422780Y3662931D01*
X1420493Y3670471D01*
X1416778Y3677420D01*
X1411780Y3683511D01*
X1405689Y3688510D01*
X1398740Y3692224D01*
X1391200Y3694511D01*
X1383359Y3695283D01*
X1375518Y3694511D01*
X1367977Y3692224D01*
X1361029Y3688510D01*
X1354938Y3683511D01*
X1349939Y3677420D01*
X1346225Y3670471D01*
X1343938Y3662931D01*
X1343502Y3658502D01*
X1236801Y3585219D01*
X1235720Y3584247D01*
X1232063Y3581804D01*
X1221359Y3572416D01*
X1221159Y3572241D01*
X1220984Y3572041D01*
X1215962Y3566315D01*
X1214669Y3565131D01*
X1194849Y3541530D01*
X1098079Y3427328D01*
X1083447Y3429705D01*
X1082929Y3430674D01*
X1077931Y3436764D01*
X1071840Y3441763D01*
X1064891Y3445477D01*
X1057351Y3447764D01*
X1049509Y3448537D01*
X1041668Y3447764D01*
X1034128Y3445477D01*
X1027179Y3441763D01*
X1021088Y3436764D01*
X1016090Y3430674D01*
X1012375Y3423725D01*
X1010088Y3416184D01*
X1009316Y3408343D01*
X1010088Y3400502D01*
X1010893Y3397849D01*
X980013Y3354460D01*
X966050Y3356743D01*
X965762Y3357690D01*
X962048Y3364639D01*
X957049Y3370729D01*
X950959Y3375728D01*
X944010Y3379442D01*
X936470Y3381729D01*
X928628Y3382502D01*
X920787Y3381729D01*
X913247Y3379442D01*
X906298Y3375728D01*
X900207Y3370729D01*
X895209Y3364639D01*
X891494Y3357690D01*
X889207Y3350150D01*
X888435Y3342308D01*
X889207Y3334467D01*
X891494Y3326927D01*
X895209Y3319978D01*
X900207Y3313887D01*
X906298Y3308889D01*
X913247Y3305174D01*
X920787Y3302887D01*
X927266Y3302249D01*
X930188Y3298601D01*
X934057Y3289888D01*
X911631Y3258378D01*
X911586Y3258292D01*
X911520Y3258221D01*
X911509Y3258206D01*
X911509Y3258205D01*
X911508Y3258204D01*
X901643Y3244343D01*
X901642Y3244342D01*
X891599Y3230230D01*
X891420Y3229892D01*
X890504Y3228776D01*
X885879Y3220123D01*
X885484Y3219473D01*
X675366Y2742289D01*
X675194Y2742218D01*
X675154Y2742122D01*
X540399Y2686913D01*
X540398Y2686915D01*
X539974Y2686771D01*
X526537Y2680144D01*
X526536Y2680144D01*
Y2680144D01*
X515578Y2673809D01*
X424098Y2621133D01*
X418994Y2625493D01*
X408593Y2631866D01*
X397323Y2636534D01*
X385461Y2639382D01*
X373300Y2640339D01*
X361139Y2639382D01*
X349277Y2636534D01*
X338007Y2631866D01*
X327606Y2625493D01*
X318330Y2617570D01*
X310407Y2608294D01*
X304034Y2597893D01*
X299365Y2586623D01*
X296518Y2574761D01*
X295560Y2562600D01*
X296518Y2550439D01*
X299365Y2538577D01*
X304034Y2527307D01*
X310407Y2516906D01*
X318330Y2507630D01*
X327606Y2499707D01*
X338007Y2493334D01*
X349277Y2488665D01*
X361139Y2485817D01*
X373300Y2484860D01*
X385461Y2485817D01*
X397323Y2488665D01*
X408593Y2493334D01*
X418994Y2499707D01*
X428270Y2507630D01*
X436193Y2516906D01*
X442566Y2527307D01*
X447235Y2538577D01*
X450082Y2550439D01*
X451039Y2562600D01*
X450082Y2574761D01*
X449499Y2577192D01*
X494399Y2603047D01*
X505472Y2594768D01*
X504941Y2592553D01*
X503953Y2580000D01*
X504941Y2567446D01*
X507880Y2555202D01*
X512699Y2543568D01*
X519279Y2532832D01*
X527457Y2523257D01*
X537032Y2515079D01*
X547769Y2508499D01*
X559402Y2503680D01*
X571647Y2500741D01*
X584200Y2499753D01*
X596753Y2500741D01*
X608998Y2503680D01*
X620631Y2508499D01*
X631368Y2515079D01*
X640943Y2523257D01*
X649121Y2532832D01*
X655701Y2543568D01*
X660520Y2555202D01*
X663459Y2567446D01*
X664447Y2580000D01*
X663459Y2592553D01*
X660520Y2604798D01*
X655701Y2616431D01*
X649121Y2627168D01*
X640943Y2636743D01*
X631368Y2644921D01*
X620916Y2651327D01*
X620657Y2652397D01*
X621011Y2665090D01*
X696452Y2695998D01*
X696643Y2696077D01*
X698584Y2697114D01*
X708631Y2688084D01*
X703858Y2676285D01*
X702926Y2673469D01*
X702871Y2673339D01*
X702865Y2673285D01*
X702005Y2669912D01*
X701916Y2669562D01*
Y2669561D01*
X701914Y2669557D01*
X700747Y2657700D01*
X700823D01*
Y1996819D01*
X692393Y1954779D01*
X687681Y1951680D01*
X678294Y1949066D01*
X674331Y1951184D01*
X666791Y1953471D01*
X658950Y1954243D01*
X651109Y1953471D01*
X643568Y1951184D01*
X641692Y1950181D01*
X635733Y1951485D01*
X629483Y1954611D01*
X627599Y1956496D01*
X626076Y1961519D01*
X621897Y1969336D01*
X616274Y1976189D01*
X612482Y1979300D01*
X616256Y1992000D01*
X664200D01*
Y2152000D01*
X504200D01*
Y1992000D01*
X552344D01*
X556118Y1979300D01*
X552326Y1976189D01*
X546703Y1969336D01*
X542524Y1961519D01*
X540309Y1954215D01*
X584300D01*
Y1944215D01*
X594300D01*
Y1900224D01*
X601604Y1902439D01*
X603607Y1903510D01*
X612095Y1893646D01*
X491811Y1732244D01*
X491177Y1731110D01*
X490369Y1730089D01*
X489567Y1728229D01*
X488579Y1726461D01*
X488260Y1725200D01*
X487745Y1724006D01*
X487451Y1722003D01*
X486955Y1720039D01*
X486973Y1718738D01*
X486784Y1717451D01*
X479026Y1187302D01*
X451718Y1168519D01*
X448461Y1169507D01*
X440620Y1170280D01*
X432779Y1169507D01*
X425239Y1167220D01*
X418290Y1163506D01*
X412199Y1158507D01*
X407201Y1152417D01*
X403486Y1145468D01*
X401199Y1137927D01*
X400427Y1130086D01*
X401199Y1122245D01*
X403486Y1114705D01*
X407201Y1107756D01*
X412199Y1101665D01*
X418290Y1096667D01*
X425239Y1092952D01*
X432779Y1090665D01*
X440620Y1089893D01*
X448461Y1090665D01*
X456002Y1092952D01*
X462951Y1096667D01*
X469041Y1101665D01*
X474040Y1107756D01*
X477754Y1114705D01*
X480041Y1122245D01*
X480480Y1126702D01*
X507411Y1145225D01*
X520087Y1138529D01*
X519723Y1036514D01*
X507021Y1035912D01*
X506921Y1036919D01*
X504634Y1044459D01*
X500920Y1051408D01*
X495921Y1057499D01*
X489831Y1062497D01*
X482882Y1066212D01*
X475341Y1068499D01*
X467500Y1069271D01*
X459659Y1068499D01*
X452119Y1066212D01*
X445170Y1062497D01*
X439079Y1057499D01*
X434081Y1051408D01*
X430366Y1044459D01*
X428079Y1036919D01*
X427307Y1029078D01*
X428079Y1021237D01*
X430366Y1013696D01*
X434081Y1006748D01*
X439079Y1000657D01*
X445170Y995658D01*
X452119Y991944D01*
X459659Y989657D01*
X467500Y988884D01*
X475341Y989657D01*
X482882Y991944D01*
X489831Y995658D01*
X495921Y1000657D01*
X500920Y1006748D01*
X504634Y1013696D01*
X506921Y1021237D01*
X506970Y1021729D01*
X519667Y1021083D01*
X519158Y878595D01*
X495475Y839733D01*
X495474Y839733D01*
X469544Y797185D01*
X467259Y796960D01*
X459719Y794673D01*
X452770Y790958D01*
X446679Y785960D01*
X441681Y779869D01*
X437966Y772920D01*
X435679Y765380D01*
X434907Y757538D01*
X435679Y749697D01*
X437966Y742157D01*
X441681Y735208D01*
X446679Y729117D01*
X452770Y724119D01*
X456679Y722030D01*
X459729Y712656D01*
X459737Y707128D01*
X180176Y427566D01*
X176143Y422310D01*
X173607Y416190D01*
X172743Y409622D01*
Y191376D01*
X171579Y190421D01*
X166581Y184330D01*
X162866Y177381D01*
X160579Y169841D01*
X159807Y162000D01*
X160579Y154159D01*
X162866Y146618D01*
X166581Y139670D01*
X171579Y133579D01*
X177670Y128580D01*
X184619Y124866D01*
X192159Y122579D01*
X200000Y121806D01*
X207841Y122579D01*
X215382Y124866D01*
X222331Y128580D01*
X228421Y133579D01*
X233420Y139670D01*
X237134Y146618D01*
X239421Y154159D01*
X240194Y162000D01*
X239421Y169841D01*
X237134Y177381D01*
X233420Y184330D01*
X228421Y190421D01*
X223497Y194462D01*
Y399110D01*
X515285Y690898D01*
X515286Y690899D01*
X534151Y709764D01*
X534156Y709771D01*
X534164Y709777D01*
X536228Y712470D01*
X538184Y715020D01*
X538188Y715028D01*
X538193Y715035D01*
X604880Y830729D01*
X606114Y833714D01*
X607371Y836704D01*
X607382Y836780D01*
X607411Y836851D01*
X607832Y840065D01*
X608271Y843268D01*
X608299Y848646D01*
X612738Y1683170D01*
X754684Y1853153D01*
X755699Y1854368D01*
X756641Y1855855D01*
X759640Y1859510D01*
X763765Y1867225D01*
X763805Y1867277D01*
X763996Y1867658D01*
X765257Y1870017D01*
X765376Y1870412D01*
X770123Y1882191D01*
X780938Y1908809D01*
X781334Y1910328D01*
X782963Y1914260D01*
X785932Y1926627D01*
X786914Y1939097D01*
X786897Y1951798D01*
X786897Y2015500D01*
Y2564856D01*
X799597Y2568038D01*
X801180Y2565077D01*
X806178Y2558986D01*
X812269Y2553988D01*
X819218Y2550273D01*
X826758Y2547986D01*
X834600Y2547214D01*
X842441Y2547986D01*
X849981Y2550273D01*
X856930Y2553988D01*
X863021Y2558986D01*
X868019Y2565077D01*
X871734Y2572026D01*
X874021Y2579566D01*
X874793Y2587407D01*
X874021Y2595248D01*
X871734Y2602789D01*
X868019Y2609737D01*
X863021Y2615828D01*
X856930Y2620827D01*
X849981Y2624541D01*
X842441Y2626828D01*
X834600Y2627601D01*
X826758Y2626828D01*
X819218Y2624541D01*
X812269Y2620827D01*
X806178Y2615828D01*
X801180Y2609737D01*
X799597Y2606776D01*
X786897Y2609958D01*
Y2643468D01*
X979914Y3124456D01*
X995398Y3128941D01*
X997469Y3127446D01*
X984588Y2982153D01*
X984598Y2981932D01*
X984554Y2981717D01*
X966018Y2721780D01*
X953503Y2714207D01*
X952754Y2714324D01*
X945841Y2716421D01*
X938000Y2717193D01*
X930159Y2716421D01*
X922618Y2714134D01*
X915669Y2710420D01*
X909579Y2705421D01*
X904580Y2699330D01*
X900866Y2692381D01*
X898579Y2684841D01*
X897806Y2677000D01*
X898579Y2669159D01*
X900866Y2661619D01*
X904580Y2654670D01*
X909579Y2648579D01*
X915669Y2643580D01*
X922618Y2639866D01*
X930159Y2637579D01*
X938000Y2636807D01*
X942770Y2637276D01*
X950064Y2631719D01*
X953689Y2626688D01*
X837719Y2014702D01*
X758229Y1662729D01*
X758096Y1661273D01*
X757288Y1657908D01*
X757058Y1654987D01*
X756762Y1653737D01*
X737466Y1464714D01*
X586112Y565725D01*
X583670Y564419D01*
X577579Y559421D01*
X572581Y553330D01*
X568866Y546381D01*
X566579Y538841D01*
X565807Y531000D01*
X566579Y523159D01*
X568866Y515618D01*
X572581Y508670D01*
X577579Y502579D01*
X583670Y497580D01*
X590619Y493866D01*
X598159Y491579D01*
X606000Y490806D01*
X613841Y491579D01*
X621382Y493866D01*
X628330Y497580D01*
X634421Y502579D01*
X639420Y508670D01*
X643134Y515618D01*
X645421Y523159D01*
X646194Y531000D01*
X645421Y538841D01*
X643134Y546381D01*
X639420Y553330D01*
X636162Y557300D01*
X688302Y866995D01*
X701321Y867828D01*
X702211Y864896D01*
X706389Y857078D01*
X712013Y850226D01*
X718865Y844603D01*
X726682Y840424D01*
X733986Y838208D01*
Y882200D01*
Y926191D01*
X726682Y923975D01*
X718865Y919797D01*
X712013Y914173D01*
X708379Y909745D01*
X696294Y914460D01*
X787653Y1457102D01*
X787682Y1457931D01*
X787874Y1458738D01*
X802571Y1602714D01*
X816003Y1609236D01*
X816529Y1608955D01*
X824070Y1606668D01*
X831911Y1605895D01*
X839752Y1606668D01*
X847292Y1608955D01*
X854241Y1612669D01*
X860332Y1617668D01*
X865331Y1623758D01*
X869045Y1630707D01*
X871332Y1638248D01*
X872104Y1646089D01*
X871332Y1653930D01*
X869045Y1661470D01*
X865331Y1668419D01*
X860332Y1674510D01*
X854241Y1679508D01*
X847292Y1683223D01*
X839752Y1685510D01*
X831911Y1686282D01*
X828526Y1685949D01*
X819830Y1693475D01*
X817987Y1696937D01*
X887323Y2003950D01*
X887364Y2004393D01*
X887503Y2004815D01*
X964709Y2412240D01*
X977768Y2412940D01*
X977866Y2412618D01*
X981580Y2405670D01*
X986579Y2399579D01*
X992669Y2394580D01*
X999618Y2390866D01*
X1007159Y2388579D01*
X1015000Y2387807D01*
X1022841Y2388579D01*
X1033558Y2378558D01*
X847269Y1445590D01*
X843770Y1443719D01*
X837679Y1438721D01*
X832681Y1432630D01*
X828966Y1425681D01*
X826679Y1418141D01*
X825907Y1410300D01*
X826679Y1402459D01*
X828966Y1394918D01*
X832681Y1387970D01*
X837679Y1381879D01*
X843770Y1376880D01*
X850719Y1373166D01*
X858259Y1370879D01*
X866100Y1370106D01*
X873941Y1370879D01*
X881482Y1373166D01*
X888431Y1376880D01*
X894521Y1381879D01*
X899520Y1387970D01*
X903234Y1394918D01*
X905521Y1402459D01*
X905531Y1402555D01*
X907679Y1404723D01*
X918861Y1409290D01*
X921458Y1407902D01*
X928998Y1405615D01*
X936840Y1404842D01*
X944681Y1405615D01*
X952221Y1407902D01*
X959170Y1411616D01*
X965261Y1416615D01*
X970259Y1422705D01*
X973974Y1429654D01*
X976261Y1437194D01*
X977033Y1445036D01*
X976356Y1451905D01*
X982250Y1459727D01*
X983651Y1461330D01*
X985773Y1461405D01*
X996581Y1461004D01*
X1000680Y1456009D01*
X1006771Y1451011D01*
X1013720Y1447296D01*
X1021260Y1445009D01*
X1029101Y1444237D01*
X1036942Y1445009D01*
X1044483Y1447296D01*
X1051431Y1451011D01*
X1057522Y1456009D01*
X1062521Y1462100D01*
X1066235Y1469049D01*
X1068522Y1476589D01*
X1069295Y1484430D01*
X1068522Y1492272D01*
X1066235Y1499812D01*
X1062521Y1506761D01*
X1057522Y1512851D01*
X1051431Y1517850D01*
X1044483Y1521564D01*
X1038700Y1523318D01*
X1035414Y1528597D01*
X1032699Y1537031D01*
X1069101Y1590182D01*
X1069143Y1590264D01*
X1069203Y1590333D01*
X1070646Y1593227D01*
X1072099Y1596090D01*
X1072118Y1596179D01*
X1072159Y1596261D01*
X1072800Y1599415D01*
X1073466Y1602572D01*
X1073461Y1602664D01*
X1073479Y1602753D01*
X1109513Y2118539D01*
X1122345Y2119987D01*
X1122366Y2119919D01*
X1126081Y2112970D01*
X1131079Y2106879D01*
X1137170Y2101880D01*
X1144119Y2098166D01*
X1151659Y2095879D01*
X1159500Y2095107D01*
X1167341Y2095879D01*
X1171393Y2097108D01*
X1180449Y2092399D01*
X1184052Y2088667D01*
X1178737Y1016565D01*
X1175539Y1013941D01*
X1170540Y1007850D01*
X1166826Y1000901D01*
X1164539Y993361D01*
X1163767Y985520D01*
X1164539Y977679D01*
X1166826Y970139D01*
X1170540Y963190D01*
X1175539Y957099D01*
X1181630Y952100D01*
X1188579Y948386D01*
X1196119Y946099D01*
X1203960Y945327D01*
X1211801Y946099D01*
X1219341Y948386D01*
X1226290Y952100D01*
X1232381Y957099D01*
X1237380Y963190D01*
X1241094Y970139D01*
X1243381Y977679D01*
X1244153Y985520D01*
X1243381Y993361D01*
X1241094Y1000901D01*
X1237380Y1007850D01*
X1232381Y1013941D01*
X1229490Y1016313D01*
X1233159Y1756183D01*
X1245868Y1758036D01*
X1246106Y1757251D01*
X1249820Y1750302D01*
X1254819Y1744212D01*
X1260910Y1739213D01*
X1267859Y1735499D01*
X1275399Y1733212D01*
X1283240Y1732439D01*
X1291081Y1733212D01*
X1298621Y1735499D01*
X1305570Y1739213D01*
X1311661Y1744212D01*
X1316660Y1750302D01*
X1320374Y1757251D01*
X1322661Y1764791D01*
X1323433Y1772633D01*
X1322661Y1780474D01*
X1320374Y1788014D01*
X1316660Y1794963D01*
X1311661Y1801054D01*
X1305570Y1806052D01*
X1298621Y1809767D01*
X1291081Y1812054D01*
X1283240Y1812826D01*
X1275399Y1812054D01*
X1267859Y1809767D01*
X1260910Y1806052D01*
X1254819Y1801054D01*
X1249820Y1794963D01*
X1246106Y1788014D01*
X1246015Y1787714D01*
X1233324Y1789629D01*
X1235036Y2134805D01*
X1235034Y2134815D01*
X1235036Y2134824D01*
X1235036Y2134944D01*
X1235029Y2134999D01*
X1235053Y2135300D01*
X1234205Y2146069D01*
X1234197Y2146535D01*
X1234178Y2146658D01*
X1234177Y2146663D01*
Y2146666D01*
X1210510Y2303913D01*
X1200075Y2451158D01*
X1199981Y2451617D01*
X1199992Y2452087D01*
X1194507Y2502943D01*
X1194144Y2504436D01*
X1193765Y2508291D01*
X1192016Y2514055D01*
X1191650Y2515904D01*
X1189004Y2523715D01*
X1176026Y2562040D01*
X1184371Y2573721D01*
X1185370Y2574044D01*
X1192384Y2574735D01*
X1199925Y2577022D01*
X1206874Y2580737D01*
X1212964Y2585735D01*
X1217963Y2591826D01*
X1220853Y2597233D01*
X1222208Y2597749D01*
X1226114Y2598364D01*
X1234587Y2597580D01*
X1236133Y2594687D01*
X1241132Y2588596D01*
X1247222Y2583598D01*
X1254171Y2579883D01*
X1261711Y2577596D01*
X1269553Y2576824D01*
X1277394Y2577596D01*
X1280896Y2578658D01*
X1290634Y2573271D01*
X1293432Y2570025D01*
X1292028Y2497390D01*
X1292765Y2490807D01*
X1294335Y2486798D01*
Y2292900D01*
X1294654Y2290483D01*
X1294803Y2288051D01*
X1320661Y2155215D01*
X1320660Y2155212D01*
X1318542Y2151893D01*
X1314921Y2148954D01*
Y2100021D01*
Y2056030D01*
X1322225Y2058245D01*
X1330043Y2062424D01*
X1330998Y2063208D01*
X1336347Y2063665D01*
X1345797Y2061522D01*
X1347153Y2060528D01*
X1352802Y2052073D01*
X1362553Y2040954D01*
X1373672Y2031203D01*
X1385969Y2022986D01*
X1399233Y2016445D01*
X1413237Y2011691D01*
X1427742Y2008806D01*
X1442500Y2007839D01*
X1457258Y2008806D01*
X1470256Y2011391D01*
X1470759Y2011453D01*
X1493915Y2017432D01*
X1493917Y2017432D01*
X1505331Y2020379D01*
X1506670Y2019280D01*
X1513619Y2015566D01*
X1521159Y2013279D01*
X1529000Y2012507D01*
X1536841Y2013279D01*
X1544381Y2015566D01*
X1551330Y2019280D01*
X1557421Y2024279D01*
X1562420Y2030370D01*
X1566134Y2037319D01*
X1568421Y2044859D01*
X1569193Y2052700D01*
X1568421Y2060541D01*
X1566134Y2068081D01*
X1562420Y2075030D01*
X1557421Y2081121D01*
X1551330Y2086120D01*
X1544381Y2089834D01*
X1536841Y2092121D01*
X1529000Y2092893D01*
X1528168Y2092811D01*
X1527854Y2092920D01*
X1518372Y2103477D01*
X1518193Y2104203D01*
X1519282Y2108740D01*
X1519375Y2109913D01*
X1525140Y2115637D01*
X1532889Y2119756D01*
X1537454Y2119307D01*
X1545295Y2120079D01*
X1552836Y2122366D01*
X1559785Y2126081D01*
X1565875Y2131079D01*
X1570874Y2137170D01*
X1574588Y2144119D01*
X1576875Y2151659D01*
X1577648Y2159500D01*
X1576875Y2167341D01*
X1574588Y2174882D01*
X1570874Y2181831D01*
X1565875Y2187921D01*
X1559785Y2192920D01*
X1552836Y2196634D01*
X1545295Y2198921D01*
X1537454Y2199694D01*
X1529613Y2198921D01*
X1522073Y2196634D01*
X1515124Y2192920D01*
X1509033Y2187921D01*
X1506271Y2184555D01*
X1506225Y2184510D01*
X1496261Y2182107D01*
X1489903Y2182334D01*
X1488194Y2183793D01*
X1477793Y2190167D01*
X1466523Y2194835D01*
X1454661Y2197683D01*
X1442500Y2198640D01*
X1430339Y2197683D01*
X1418477Y2194835D01*
X1407207Y2190167D01*
X1396806Y2183793D01*
X1387530Y2175871D01*
X1382445Y2169917D01*
X1371274Y2171777D01*
X1368851Y2173283D01*
X1345090Y2295347D01*
Y2496900D01*
X1344225Y2503468D01*
X1342967Y2506505D01*
X1345076Y2615557D01*
X1345026Y2616002D01*
X1345106Y2617017D01*
X1344175Y2628836D01*
X1344025Y2629463D01*
X1344015Y2629710D01*
X1328122Y2722947D01*
Y2997751D01*
X1333954Y3033469D01*
X1341338Y3037489D01*
X1347740Y3039086D01*
X1352939Y3036307D01*
X1360479Y3034020D01*
X1368320Y3033247D01*
X1376161Y3034020D01*
X1383702Y3036307D01*
X1390651Y3040021D01*
X1396741Y3045020D01*
X1401740Y3051110D01*
X1405454Y3058059D01*
X1407741Y3065600D01*
X1408514Y3073441D01*
X1407741Y3081282D01*
X1405454Y3088822D01*
X1401740Y3095771D01*
X1396741Y3101862D01*
X1390651Y3106860D01*
X1383702Y3110575D01*
X1376161Y3112862D01*
X1368320Y3113634D01*
X1361278Y3112941D01*
X1360377Y3112967D01*
X1350514Y3123111D01*
X1372770Y3224094D01*
X1373006Y3226834D01*
X1373365Y3229556D01*
Y3270777D01*
X1373011Y3273461D01*
X1372787Y3276161D01*
X1360340Y3333494D01*
X1372375Y3337919D01*
X1374624Y3333713D01*
X1379622Y3327622D01*
X1385713Y3322624D01*
X1392662Y3318909D01*
X1400202Y3316622D01*
X1408043Y3315850D01*
X1415885Y3316622D01*
X1423425Y3318909D01*
X1430374Y3322624D01*
X1436464Y3327622D01*
X1441463Y3333713D01*
X1445177Y3340662D01*
X1447464Y3348202D01*
X1448237Y3356043D01*
X1447464Y3363885D01*
X1445177Y3371425D01*
X1441463Y3378374D01*
X1436464Y3384464D01*
X1430374Y3389463D01*
X1423425Y3393177D01*
X1415885Y3395464D01*
X1408043Y3396237D01*
X1400202Y3395464D01*
X1392662Y3393177D01*
X1385713Y3389463D01*
X1379622Y3384464D01*
X1374624Y3378374D01*
X1370909Y3371425D01*
X1368622Y3363885D01*
X1367850Y3356044D01*
X1355505Y3355767D01*
X1330922Y3469000D01*
X1332981Y3471508D01*
X1336695Y3478457D01*
X1338982Y3485998D01*
X1339755Y3493839D01*
X1338982Y3501680D01*
X1336695Y3509220D01*
X1332981Y3516169D01*
X1327982Y3522260D01*
X1327694Y3522497D01*
X1328743Y3537441D01*
X1480229Y3618057D01*
X1480418Y3617956D01*
X1487959Y3615669D01*
X1495800Y3614897D01*
X1503641Y3615669D01*
X1511181Y3617956D01*
X1518130Y3621670D01*
X1524221Y3626669D01*
X1529219Y3632760D01*
X1532934Y3639708D01*
X1535221Y3647249D01*
X1535993Y3655090D01*
X1535221Y3662931D01*
X1532934Y3670471D01*
X1529219Y3677420D01*
X1524221Y3683511D01*
X1518130Y3688510D01*
X1511181Y3692224D01*
X1503641Y3694511D01*
X1495800Y3695283D01*
D02*
G37*
G36*
X1890000Y3550194D02*
X1882159Y3549421D01*
X1874619Y3547134D01*
X1867670Y3543420D01*
X1861579Y3538421D01*
X1856580Y3532331D01*
X1852866Y3525382D01*
X1850579Y3517841D01*
X1849807Y3510000D01*
X1850579Y3502159D01*
X1852866Y3494619D01*
X1856580Y3487670D01*
X1861579Y3481579D01*
X1867670Y3476581D01*
X1874619Y3472866D01*
X1882159Y3470579D01*
X1890000Y3469807D01*
X1897841Y3470579D01*
X1905382Y3472866D01*
X1912330Y3476581D01*
X1918421Y3481579D01*
X1923420Y3487670D01*
X1927134Y3494619D01*
X1929421Y3502159D01*
X1930193Y3510000D01*
X1929421Y3517841D01*
X1927134Y3525382D01*
X1923420Y3532331D01*
X1918421Y3538421D01*
X1912330Y3543420D01*
X1905382Y3547134D01*
X1897841Y3549421D01*
X1890000Y3550194D01*
D02*
G37*
G36*
X450000Y3055725D02*
X440885Y3054827D01*
X432119Y3052168D01*
X424041Y3047850D01*
X416961Y3042040D01*
X411150Y3034959D01*
X406832Y3026881D01*
X404173Y3018116D01*
X403275Y3009000D01*
X404173Y2999885D01*
X406832Y2991119D01*
X411150Y2983041D01*
X416961Y2975961D01*
X424041Y2970150D01*
X432119Y2965832D01*
X440885Y2963173D01*
X450000Y2962275D01*
X459116Y2963173D01*
X467881Y2965832D01*
X475959Y2970150D01*
X483040Y2975961D01*
X488850Y2983041D01*
X493168Y2991119D01*
X495827Y2999885D01*
X496725Y3009000D01*
X495827Y3018116D01*
X493168Y3026881D01*
X488850Y3034959D01*
X483040Y3042040D01*
X475959Y3047850D01*
X467881Y3052168D01*
X459116Y3054827D01*
X450000Y3055725D01*
D02*
G37*
G36*
X1406767Y2551106D02*
X1399463Y2548891D01*
X1391645Y2544712D01*
X1384793Y2539089D01*
X1379170Y2532236D01*
X1374991Y2524419D01*
X1372776Y2517115D01*
X1406767D01*
Y2551106D01*
D02*
G37*
G36*
Y2497115D02*
X1372776D01*
X1374991Y2489811D01*
X1379170Y2481993D01*
X1384793Y2475141D01*
X1391645Y2469518D01*
X1399463Y2465339D01*
X1406767Y2463124D01*
Y2497115D01*
D02*
G37*
G36*
X129300Y2390568D02*
Y2318601D01*
X201268D01*
X201036Y2321546D01*
X198005Y2334173D01*
X193035Y2346170D01*
X186250Y2357242D01*
X177817Y2367116D01*
X167942Y2375550D01*
X156870Y2382335D01*
X144873Y2387305D01*
X132246Y2390336D01*
X129300Y2390568D01*
D02*
G37*
G36*
X584200Y2406247D02*
X571647Y2405259D01*
X559402Y2402320D01*
X547769Y2397501D01*
X537032Y2390921D01*
X527457Y2382743D01*
X519279Y2373168D01*
X512699Y2362431D01*
X507880Y2350798D01*
X504941Y2338553D01*
X503953Y2326000D01*
X504941Y2313446D01*
X507880Y2301202D01*
X512699Y2289568D01*
X519279Y2278832D01*
X527457Y2269257D01*
X537032Y2261079D01*
X547769Y2254499D01*
X559402Y2249680D01*
X571647Y2246741D01*
X584200Y2245753D01*
X596753Y2246741D01*
X608998Y2249680D01*
X620631Y2254499D01*
X631368Y2261079D01*
X640943Y2269257D01*
X649121Y2278832D01*
X655701Y2289568D01*
X660520Y2301202D01*
X663459Y2313446D01*
X664447Y2326000D01*
X663459Y2338553D01*
X660520Y2350798D01*
X655701Y2362431D01*
X649121Y2373168D01*
X640943Y2382743D01*
X631368Y2390921D01*
X620631Y2397501D01*
X608998Y2402320D01*
X596753Y2405259D01*
X584200Y2406247D01*
D02*
G37*
G36*
X372300Y2382140D02*
X360139Y2381183D01*
X348277Y2378335D01*
X337007Y2373667D01*
X326606Y2367293D01*
X317330Y2359371D01*
X309407Y2350095D01*
X303034Y2339694D01*
X298365Y2328424D01*
X295518Y2316562D01*
X294560Y2304401D01*
X295518Y2292240D01*
X298365Y2280378D01*
X303034Y2269108D01*
X309407Y2258707D01*
X317330Y2249431D01*
X326606Y2241508D01*
X337007Y2235134D01*
X348277Y2230466D01*
X360139Y2227618D01*
X372300Y2226661D01*
X384461Y2227618D01*
X396323Y2230466D01*
X407593Y2235134D01*
X417994Y2241508D01*
X427270Y2249431D01*
X435193Y2258707D01*
X441566Y2269108D01*
X446235Y2280378D01*
X449082Y2292240D01*
X450039Y2304401D01*
X449082Y2316562D01*
X446235Y2328424D01*
X441566Y2339694D01*
X435193Y2350095D01*
X427270Y2359371D01*
X417994Y2367293D01*
X407593Y2373667D01*
X396323Y2378335D01*
X384461Y2381183D01*
X372300Y2382140D01*
D02*
G37*
G36*
X201268Y2298601D02*
X129300D01*
Y2226632D01*
X132246Y2226864D01*
X144873Y2229895D01*
X156870Y2234865D01*
X167942Y2241650D01*
X177817Y2250083D01*
X186250Y2259958D01*
X193035Y2271030D01*
X198005Y2283027D01*
X201036Y2295654D01*
X201268Y2298601D01*
D02*
G37*
G36*
X2680000Y2260193D02*
X2672159Y2259421D01*
X2664618Y2257134D01*
X2657670Y2253419D01*
X2651579Y2248421D01*
X2646580Y2242330D01*
X2642866Y2235381D01*
X2640579Y2227841D01*
X2639807Y2220000D01*
X2640579Y2212159D01*
X2642866Y2204618D01*
X2646580Y2197669D01*
X2651579Y2191579D01*
X2657670Y2186580D01*
X2664618Y2182866D01*
X2672159Y2180579D01*
X2680000Y2179806D01*
X2687841Y2180579D01*
X2695381Y2182866D01*
X2702330Y2186580D01*
X2708421Y2191579D01*
X2713420Y2197669D01*
X2717134Y2204618D01*
X2719421Y2212159D01*
X2720193Y2220000D01*
X2719421Y2227841D01*
X2717134Y2235381D01*
X2713420Y2242330D01*
X2708421Y2248421D01*
X2702330Y2253419D01*
X2695381Y2257134D01*
X2687841Y2259421D01*
X2680000Y2260193D01*
D02*
G37*
G36*
X1294921Y2144012D02*
X1287617Y2141797D01*
X1279799Y2137618D01*
X1272947Y2131995D01*
X1267324Y2125143D01*
X1263145Y2117325D01*
X1260930Y2110021D01*
X1294921D01*
Y2144012D01*
D02*
G37*
G36*
X3250000Y2196202D02*
X3240198Y2195237D01*
X3230773Y2192378D01*
X3222087Y2187735D01*
X3214474Y2181487D01*
X3208226Y2173873D01*
X3203583Y2165187D01*
X3200724Y2155762D01*
X3199758Y2145960D01*
X3200724Y2136159D01*
X3203583Y2126734D01*
X3208226Y2118048D01*
X3214474Y2110434D01*
X3222087Y2104186D01*
X3230773Y2099543D01*
X3240198Y2096684D01*
X3250000Y2095719D01*
X3259802Y2096684D01*
X3269227Y2099543D01*
X3277913Y2104186D01*
X3285526Y2110434D01*
X3291774Y2118048D01*
X3296417Y2126734D01*
X3299276Y2136159D01*
X3300242Y2145960D01*
X3299276Y2155762D01*
X3296417Y2165187D01*
X3291774Y2173873D01*
X3285526Y2181487D01*
X3277913Y2187735D01*
X3269227Y2192378D01*
X3259802Y2195237D01*
X3250000Y2196202D01*
D02*
G37*
G36*
X1294921Y2090021D02*
X1260930D01*
X1263145Y2082717D01*
X1267324Y2074899D01*
X1272947Y2068047D01*
X1279799Y2062424D01*
X1287617Y2058245D01*
X1294921Y2056030D01*
Y2090021D01*
D02*
G37*
G36*
X373300Y2132339D02*
X361139Y2131382D01*
X349277Y2128534D01*
X338007Y2123866D01*
X327606Y2117493D01*
X318330Y2109570D01*
X310407Y2100294D01*
X304034Y2089893D01*
X299365Y2078623D01*
X296518Y2066761D01*
X295560Y2054600D01*
X296518Y2042439D01*
X299365Y2030577D01*
X304034Y2019307D01*
X310407Y2008906D01*
X318330Y1999630D01*
X327606Y1991707D01*
X338007Y1985334D01*
X349277Y1980665D01*
X361139Y1977817D01*
X373300Y1976860D01*
X385461Y1977817D01*
X397323Y1980665D01*
X408593Y1985334D01*
X418994Y1991707D01*
X428270Y1999630D01*
X436193Y2008906D01*
X442566Y2019307D01*
X447235Y2030577D01*
X450082Y2042439D01*
X451039Y2054600D01*
X450082Y2066761D01*
X447235Y2078623D01*
X442566Y2089893D01*
X436193Y2100294D01*
X428270Y2109570D01*
X418994Y2117493D01*
X408593Y2123866D01*
X397323Y2128534D01*
X385461Y2131382D01*
X373300Y2132339D01*
D02*
G37*
G36*
X119300D02*
X107139Y2131382D01*
X95277Y2128534D01*
X84007Y2123866D01*
X73606Y2117493D01*
X64330Y2109570D01*
X56407Y2100294D01*
X50034Y2089893D01*
X45365Y2078623D01*
X42518Y2066761D01*
X41560Y2054600D01*
X42518Y2042439D01*
X45365Y2030577D01*
X50034Y2019307D01*
X56407Y2008906D01*
X64330Y1999630D01*
X73606Y1991707D01*
X84007Y1985334D01*
X95277Y1980665D01*
X107139Y1977817D01*
X119300Y1976860D01*
X131461Y1977817D01*
X143323Y1980665D01*
X154593Y1985334D01*
X164994Y1991707D01*
X174270Y1999630D01*
X182193Y2008906D01*
X188566Y2019307D01*
X193235Y2030577D01*
X196082Y2042439D01*
X197039Y2054600D01*
X196082Y2066761D01*
X193235Y2078623D01*
X188566Y2089893D01*
X182193Y2100294D01*
X174270Y2109570D01*
X164994Y2117493D01*
X154593Y2123866D01*
X143323Y2128534D01*
X131461Y2131382D01*
X119300Y2132339D01*
D02*
G37*
G36*
X1294000Y1992293D02*
X1286159Y1991521D01*
X1278618Y1989234D01*
X1271670Y1985520D01*
X1265579Y1980521D01*
X1260580Y1974430D01*
X1256866Y1967481D01*
X1254579Y1959941D01*
X1253806Y1952100D01*
X1254579Y1944259D01*
X1256866Y1936719D01*
X1260580Y1929770D01*
X1265579Y1923679D01*
X1271670Y1918680D01*
X1278618Y1914966D01*
X1286159Y1912679D01*
X1294000Y1911907D01*
X1301841Y1912679D01*
X1309381Y1914966D01*
X1316330Y1918680D01*
X1322421Y1923679D01*
X1327419Y1929770D01*
X1331134Y1936719D01*
X1333421Y1944259D01*
X1334193Y1952100D01*
X1333421Y1959941D01*
X1331134Y1967481D01*
X1327419Y1974430D01*
X1322421Y1980521D01*
X1316330Y1985520D01*
X1309381Y1989234D01*
X1301841Y1991521D01*
X1294000Y1992293D01*
D02*
G37*
G36*
X574300Y1934215D02*
X540309D01*
X542524Y1926911D01*
X546703Y1919093D01*
X552326Y1912241D01*
X559178Y1906618D01*
X566996Y1902439D01*
X574300Y1900224D01*
Y1934215D01*
D02*
G37*
G36*
X2598675Y1902860D02*
X2590834Y1902087D01*
X2583293Y1899800D01*
X2576344Y1896086D01*
X2570254Y1891087D01*
X2565255Y1884997D01*
X2561541Y1878048D01*
X2559254Y1870508D01*
X2558481Y1862666D01*
X2559254Y1854825D01*
X2561541Y1847285D01*
X2565255Y1840336D01*
X2570254Y1834245D01*
X2576344Y1829247D01*
X2583293Y1825532D01*
X2590834Y1823245D01*
X2598675Y1822473D01*
X2606516Y1823245D01*
X2614056Y1825532D01*
X2621005Y1829247D01*
X2627096Y1834245D01*
X2632094Y1840336D01*
X2635809Y1847285D01*
X2638096Y1854825D01*
X2638868Y1862666D01*
X2638096Y1870508D01*
X2635809Y1878048D01*
X2632094Y1884997D01*
X2627096Y1891087D01*
X2621005Y1896086D01*
X2614056Y1899800D01*
X2606516Y1902087D01*
X2598675Y1902860D01*
D02*
G37*
G36*
X2491205Y1890800D02*
X2483364Y1890027D01*
X2475824Y1887740D01*
X2468875Y1884026D01*
X2462784Y1879027D01*
X2457786Y1872937D01*
X2454071Y1865988D01*
X2451784Y1858448D01*
X2451012Y1850606D01*
X2451784Y1842765D01*
X2454071Y1835225D01*
X2457786Y1828276D01*
X2462784Y1822185D01*
X2468875Y1817187D01*
X2475824Y1813472D01*
X2483364Y1811185D01*
X2491205Y1810413D01*
X2499046Y1811185D01*
X2506587Y1813472D01*
X2513535Y1817187D01*
X2519626Y1822185D01*
X2524625Y1828276D01*
X2528339Y1835225D01*
X2530626Y1842765D01*
X2531399Y1850606D01*
X2530626Y1858448D01*
X2528339Y1865988D01*
X2524625Y1872937D01*
X2519626Y1879027D01*
X2513535Y1884026D01*
X2506587Y1887740D01*
X2499046Y1890027D01*
X2491205Y1890800D01*
D02*
G37*
G36*
X1527440Y1716620D02*
X1519598Y1715848D01*
X1512058Y1713561D01*
X1505109Y1709846D01*
X1499019Y1704848D01*
X1494020Y1698757D01*
X1490444Y1692067D01*
X1490227Y1691714D01*
X1489368Y1690681D01*
X1476769Y1684961D01*
X1475334Y1685049D01*
X1471023Y1686835D01*
X1459161Y1689682D01*
X1447000Y1690639D01*
X1434839Y1689682D01*
X1422977Y1686835D01*
X1411707Y1682166D01*
X1401306Y1675793D01*
X1392030Y1667870D01*
X1384107Y1658594D01*
X1377734Y1648193D01*
X1373065Y1636923D01*
X1370217Y1625061D01*
X1369260Y1612900D01*
X1370217Y1600739D01*
X1373065Y1588877D01*
X1377734Y1577607D01*
X1384107Y1567206D01*
X1392030Y1557930D01*
X1401306Y1550007D01*
X1411707Y1543634D01*
X1422977Y1538965D01*
X1434839Y1536118D01*
X1447000Y1535161D01*
X1459161Y1536118D01*
X1471023Y1538965D01*
X1482293Y1543634D01*
X1492694Y1550007D01*
X1501970Y1557930D01*
X1509893Y1567206D01*
X1516266Y1577607D01*
X1520934Y1588877D01*
X1523782Y1600739D01*
X1524739Y1612900D01*
X1523880Y1623823D01*
X1524445Y1625853D01*
X1534006Y1636880D01*
X1535281Y1637006D01*
X1542821Y1639293D01*
X1549770Y1643007D01*
X1555861Y1648006D01*
X1560859Y1654097D01*
X1564574Y1661045D01*
X1566861Y1668586D01*
X1567633Y1676427D01*
X1566861Y1684268D01*
X1564574Y1691808D01*
X1560859Y1698757D01*
X1555861Y1704848D01*
X1549770Y1709846D01*
X1542821Y1713561D01*
X1535281Y1715848D01*
X1527440Y1716620D01*
D02*
G37*
G36*
X2880000Y1610193D02*
X2872159Y1609421D01*
X2864619Y1607134D01*
X2857670Y1603419D01*
X2851579Y1598421D01*
X2846581Y1592330D01*
X2842866Y1585381D01*
X2840579Y1577841D01*
X2839807Y1570000D01*
X2840579Y1562159D01*
X2842866Y1554618D01*
X2846581Y1547669D01*
X2851579Y1541579D01*
X2857670Y1536580D01*
X2864619Y1532866D01*
X2872159Y1530579D01*
X2880000Y1529806D01*
X2887841Y1530579D01*
X2895382Y1532866D01*
X2902330Y1536580D01*
X2908421Y1541579D01*
X2913420Y1547669D01*
X2917134Y1554618D01*
X2919421Y1562159D01*
X2920194Y1570000D01*
X2919421Y1577841D01*
X2917134Y1585381D01*
X2913420Y1592330D01*
X2908421Y1598421D01*
X2902330Y1603419D01*
X2895382Y1607134D01*
X2887841Y1609421D01*
X2880000Y1610193D01*
D02*
G37*
G36*
X1341415Y1553091D02*
Y1519100D01*
X1375406D01*
X1373190Y1526404D01*
X1369012Y1534221D01*
X1363388Y1541074D01*
X1356536Y1546697D01*
X1348719Y1550875D01*
X1341415Y1553091D01*
D02*
G37*
G36*
X1321415D02*
X1314111Y1550875D01*
X1306293Y1546697D01*
X1299441Y1541074D01*
X1293818Y1534221D01*
X1289639Y1526404D01*
X1287423Y1519100D01*
X1321415D01*
Y1553091D01*
D02*
G37*
G36*
X1375406Y1499100D02*
X1341415D01*
Y1465109D01*
X1348719Y1467324D01*
X1356536Y1471503D01*
X1363388Y1477126D01*
X1369012Y1483978D01*
X1373190Y1491796D01*
X1375406Y1499100D01*
D02*
G37*
G36*
X1321415D02*
X1287423D01*
X1289639Y1491796D01*
X1293818Y1483978D01*
X1299441Y1477126D01*
X1306293Y1471503D01*
X1314111Y1467324D01*
X1321415Y1465109D01*
Y1499100D01*
D02*
G37*
G36*
X2479452Y1458944D02*
Y1424953D01*
X2513444D01*
X2511228Y1432257D01*
X2507050Y1440074D01*
X2501426Y1446926D01*
X2494574Y1452550D01*
X2486757Y1456728D01*
X2479452Y1458944D01*
D02*
G37*
G36*
X2459453D02*
X2452149Y1456728D01*
X2444331Y1452550D01*
X2437479Y1446926D01*
X2431855Y1440074D01*
X2427677Y1432257D01*
X2425461Y1424953D01*
X2459453D01*
Y1458944D01*
D02*
G37*
G36*
X2513444Y1404953D02*
X2479452D01*
Y1370961D01*
X2486757Y1373177D01*
X2494574Y1377356D01*
X2501426Y1382979D01*
X2507050Y1389831D01*
X2511228Y1397649D01*
X2513444Y1404953D01*
D02*
G37*
G36*
X2459453D02*
X2425461D01*
X2427677Y1397649D01*
X2431855Y1389831D01*
X2437479Y1382979D01*
X2444331Y1377356D01*
X2452149Y1373177D01*
X2459453Y1370961D01*
Y1404953D01*
D02*
G37*
G36*
X2025000Y1357991D02*
Y1324000D01*
X2058991D01*
X2056776Y1331304D01*
X2052597Y1339122D01*
X2046974Y1345974D01*
X2040122Y1351597D01*
X2032304Y1355776D01*
X2025000Y1357991D01*
D02*
G37*
G36*
X2005000D02*
X1997696Y1355776D01*
X1989878Y1351597D01*
X1983026Y1345974D01*
X1977403Y1339122D01*
X1973224Y1331304D01*
X1971009Y1324000D01*
X2005000D01*
Y1357991D01*
D02*
G37*
G36*
X2058991Y1304000D02*
X2025000D01*
Y1270009D01*
X2032304Y1272224D01*
X2040122Y1276403D01*
X2046974Y1282026D01*
X2052597Y1288878D01*
X2056776Y1296696D01*
X2058991Y1304000D01*
D02*
G37*
G36*
X2005000D02*
X1971009D01*
X1973224Y1296696D01*
X1977403Y1288878D01*
X1983026Y1282026D01*
X1989878Y1276403D01*
X1997696Y1272224D01*
X2005000Y1270009D01*
Y1304000D01*
D02*
G37*
G36*
X1095600Y1193193D02*
X1087759Y1192421D01*
X1080219Y1190134D01*
X1073270Y1186420D01*
X1067179Y1181421D01*
X1062181Y1175330D01*
X1058466Y1168381D01*
X1056179Y1160841D01*
X1055407Y1153000D01*
X1056179Y1145159D01*
X1058466Y1137619D01*
X1062181Y1130670D01*
X1067179Y1124579D01*
X1073270Y1119580D01*
X1080219Y1115866D01*
X1087759Y1113579D01*
X1095600Y1112807D01*
X1103442Y1113579D01*
X1110982Y1115866D01*
X1117931Y1119580D01*
X1124021Y1124579D01*
X1129020Y1130670D01*
X1132734Y1137619D01*
X1135021Y1145159D01*
X1135794Y1153000D01*
X1135021Y1160841D01*
X1132734Y1168381D01*
X1129020Y1175330D01*
X1124021Y1181421D01*
X1117931Y1186420D01*
X1110982Y1190134D01*
X1103442Y1192421D01*
X1095600Y1193193D01*
D02*
G37*
G36*
X2083181Y1074225D02*
X2075340Y1073453D01*
X2067799Y1071165D01*
X2060850Y1067451D01*
X2054760Y1062453D01*
X2049761Y1056362D01*
X2046047Y1049413D01*
X2043760Y1041873D01*
X2042987Y1034031D01*
X2043760Y1026190D01*
X2046047Y1018650D01*
X2049761Y1011701D01*
X2054760Y1005610D01*
X2060850Y1000612D01*
X2067799Y996897D01*
X2075340Y994610D01*
X2083181Y993838D01*
X2091022Y994610D01*
X2098562Y996897D01*
X2105511Y1000612D01*
X2111602Y1005610D01*
X2116600Y1011701D01*
X2120315Y1018650D01*
X2122602Y1026190D01*
X2123374Y1034031D01*
X2122602Y1041873D01*
X2120315Y1049413D01*
X2116600Y1056362D01*
X2111602Y1062453D01*
X2105511Y1067451D01*
X2098562Y1071165D01*
X2091022Y1073453D01*
X2083181Y1074225D01*
D02*
G37*
G36*
X2171888Y1022991D02*
X2164584Y1020776D01*
X2156767Y1016597D01*
X2149915Y1010974D01*
X2144291Y1004122D01*
X2140113Y996304D01*
X2137897Y989000D01*
X2171888D01*
Y1022991D01*
D02*
G37*
G36*
Y969000D02*
X2137897D01*
X2140113Y961696D01*
X2144291Y953878D01*
X2149915Y947026D01*
X2156767Y941403D01*
X2164584Y937224D01*
X2171888Y935009D01*
Y969000D01*
D02*
G37*
G36*
X890000Y1056193D02*
X882159Y1055421D01*
X874619Y1053134D01*
X867670Y1049420D01*
X861579Y1044421D01*
X856580Y1038330D01*
X852866Y1031381D01*
X850579Y1023841D01*
X849807Y1016000D01*
X850579Y1008159D01*
X852866Y1000619D01*
X856580Y993670D01*
X857943Y992009D01*
X860779Y984404D01*
X858149Y973964D01*
X857636Y973339D01*
X853921Y966390D01*
X851634Y958849D01*
X850862Y951008D01*
X851634Y943167D01*
X853921Y935627D01*
X857636Y928678D01*
X862634Y922587D01*
X868725Y917589D01*
X875674Y913874D01*
X883214Y911587D01*
X891055Y910815D01*
X898896Y911587D01*
X906437Y913874D01*
X913386Y917589D01*
X919476Y922587D01*
X924475Y928678D01*
X928189Y935627D01*
X930476Y943167D01*
X931249Y951008D01*
X930476Y958849D01*
X928189Y966390D01*
X924475Y973339D01*
X919476Y979429D01*
X918421Y980295D01*
Y987579D01*
X923420Y993670D01*
X927134Y1000619D01*
X929421Y1008159D01*
X930193Y1016000D01*
X929421Y1023841D01*
X927134Y1031381D01*
X923420Y1038330D01*
X918421Y1044421D01*
X912330Y1049420D01*
X905381Y1053134D01*
X897841Y1055421D01*
X890000Y1056193D01*
D02*
G37*
G36*
X753986Y926191D02*
Y892200D01*
X787978D01*
X785762Y899504D01*
X781583Y907321D01*
X775960Y914173D01*
X769108Y919797D01*
X761290Y923975D01*
X753986Y926191D01*
D02*
G37*
G36*
X3070000Y907000D02*
X3036009D01*
X3038224Y899696D01*
X3042403Y891878D01*
X3048026Y885026D01*
X3054878Y879403D01*
X3062696Y875224D01*
X3070000Y873009D01*
Y907000D01*
D02*
G37*
G36*
X191420Y941532D02*
X183578Y940759D01*
X176038Y938472D01*
X169089Y934758D01*
X162999Y929759D01*
X158000Y923669D01*
X154286Y916720D01*
X151999Y909180D01*
X151226Y901338D01*
X151999Y893497D01*
X154286Y885957D01*
X158000Y879008D01*
X162999Y872917D01*
X169089Y867919D01*
X176038Y864204D01*
X183578Y861917D01*
X191420Y861145D01*
X199261Y861917D01*
X206801Y864204D01*
X213750Y867919D01*
X219841Y872917D01*
X224839Y879008D01*
X228554Y885957D01*
X230841Y893497D01*
X231613Y901338D01*
X230841Y909180D01*
X228554Y916720D01*
X224839Y923669D01*
X219841Y929759D01*
X213750Y934758D01*
X206801Y938472D01*
X199261Y940759D01*
X191420Y941532D01*
D02*
G37*
G36*
X787978Y872200D02*
X753986D01*
Y838208D01*
X761290Y840424D01*
X769108Y844603D01*
X775960Y850226D01*
X781583Y857078D01*
X785762Y864896D01*
X787978Y872200D01*
D02*
G37*
G36*
X340000Y820193D02*
X332159Y819421D01*
X324619Y817134D01*
X317670Y813420D01*
X311579Y808421D01*
X306581Y802330D01*
X302866Y795381D01*
X300579Y787841D01*
X299807Y780000D01*
X300579Y772159D01*
X302866Y764618D01*
X306581Y757670D01*
X311579Y751579D01*
X314260Y749379D01*
X314162Y748897D01*
X313000Y746594D01*
Y703000D01*
X346991D01*
X344776Y710304D01*
X340597Y718121D01*
X334974Y724974D01*
X331420Y727890D01*
X336499Y740151D01*
X340000Y739806D01*
X347841Y740579D01*
X355382Y742866D01*
X362330Y746580D01*
X368421Y751579D01*
X373420Y757670D01*
X377134Y764618D01*
X379421Y772159D01*
X380194Y780000D01*
X379421Y787841D01*
X377134Y795381D01*
X373420Y802330D01*
X368421Y808421D01*
X362330Y813420D01*
X355382Y817134D01*
X347841Y819421D01*
X340000Y820193D01*
D02*
G37*
G36*
X3280160Y801193D02*
X3272319Y800421D01*
X3264778Y798134D01*
X3257829Y794420D01*
X3251739Y789421D01*
X3246740Y783330D01*
X3243026Y776381D01*
X3240739Y768841D01*
X3239966Y761000D01*
X3240739Y753159D01*
X3243026Y745619D01*
X3246740Y738670D01*
X3251739Y732579D01*
X3257829Y727580D01*
X3264778Y723866D01*
X3272319Y721579D01*
X3280160Y720807D01*
X3288001Y721579D01*
X3295541Y723866D01*
X3302490Y727580D01*
X3308581Y732579D01*
X3313579Y738670D01*
X3317294Y745619D01*
X3319581Y753159D01*
X3320353Y761000D01*
X3319581Y768841D01*
X3317294Y776381D01*
X3313579Y783330D01*
X3308581Y789421D01*
X3302490Y794420D01*
X3295541Y798134D01*
X3288001Y800421D01*
X3280160Y801193D01*
D02*
G37*
G36*
X2780200Y788069D02*
X2772359Y787296D01*
X2764818Y785009D01*
X2757870Y781295D01*
X2751779Y776296D01*
X2746780Y770206D01*
X2743066Y763257D01*
X2740779Y755717D01*
X2740006Y747875D01*
X2740779Y740034D01*
X2743066Y732494D01*
X2746780Y725545D01*
X2751779Y719454D01*
X2757870Y714456D01*
X2764818Y710741D01*
X2772359Y708454D01*
X2780200Y707682D01*
X2788041Y708454D01*
X2795581Y710741D01*
X2802530Y714456D01*
X2808621Y719454D01*
X2813619Y725545D01*
X2817334Y732494D01*
X2819621Y740034D01*
X2820393Y747875D01*
X2819621Y755717D01*
X2817334Y763257D01*
X2813619Y770206D01*
X2808621Y776296D01*
X2802530Y781295D01*
X2795581Y785009D01*
X2788041Y787296D01*
X2780200Y788069D01*
D02*
G37*
G36*
X293000Y736991D02*
X285696Y734776D01*
X277878Y730597D01*
X271026Y724974D01*
X265403Y718121D01*
X261224Y710304D01*
X259009Y703000D01*
X293000D01*
Y736991D01*
D02*
G37*
G36*
X1060000Y697991D02*
Y664000D01*
X1093991D01*
X1091776Y671304D01*
X1087597Y679122D01*
X1081974Y685974D01*
X1075122Y691597D01*
X1067304Y695776D01*
X1060000Y697991D01*
D02*
G37*
G36*
X1040000D02*
X1032696Y695776D01*
X1024878Y691597D01*
X1018026Y685974D01*
X1012403Y679122D01*
X1008224Y671304D01*
X1006009Y664000D01*
X1040000D01*
Y697991D01*
D02*
G37*
G36*
X3003000Y744194D02*
X2995159Y743421D01*
X2987619Y741134D01*
X2980670Y737420D01*
X2974579Y732421D01*
X2969581Y726331D01*
X2965866Y719382D01*
X2963579Y711841D01*
X2962807Y704000D01*
X2963579Y696159D01*
X2965866Y688619D01*
X2969581Y681670D01*
X2974579Y675579D01*
X2980670Y670581D01*
X2987619Y666866D01*
X2995159Y664579D01*
X3003000Y663807D01*
X3010841Y664579D01*
X3018382Y666866D01*
X3025330Y670581D01*
X3031421Y675579D01*
X3036420Y681670D01*
X3040134Y688619D01*
X3042421Y696159D01*
X3043194Y704000D01*
X3042421Y711841D01*
X3040134Y719382D01*
X3036420Y726331D01*
X3031421Y732421D01*
X3025330Y737420D01*
X3018382Y741134D01*
X3010841Y743421D01*
X3003000Y744194D01*
D02*
G37*
G36*
X346991Y683000D02*
X313000D01*
Y649009D01*
X320304Y651224D01*
X328122Y655403D01*
X334974Y661026D01*
X340597Y667878D01*
X344776Y675696D01*
X346991Y683000D01*
D02*
G37*
G36*
X293000D02*
X259009D01*
X261224Y675696D01*
X265403Y667878D01*
X271026Y661026D01*
X277878Y655403D01*
X285696Y651224D01*
X293000Y649009D01*
Y683000D01*
D02*
G37*
G36*
X1093991Y644000D02*
X1060000D01*
Y610009D01*
X1067304Y612224D01*
X1075122Y616403D01*
X1081974Y622026D01*
X1087597Y628878D01*
X1091776Y636696D01*
X1093991Y644000D01*
D02*
G37*
G36*
X1040000D02*
X1006009D01*
X1008224Y636696D01*
X1012403Y628878D01*
X1018026Y622026D01*
X1024878Y616403D01*
X1032696Y612224D01*
X1040000Y610009D01*
Y644000D01*
D02*
G37*
G36*
X721000Y643194D02*
X713159Y642421D01*
X705619Y640134D01*
X698670Y636420D01*
X692579Y631421D01*
X687581Y625330D01*
X683866Y618382D01*
X681579Y610841D01*
X680807Y603000D01*
X681579Y595159D01*
X683866Y587619D01*
X687581Y580670D01*
X692579Y574579D01*
X698670Y569581D01*
X705619Y565866D01*
X713159Y563579D01*
X721000Y562807D01*
X728841Y563579D01*
X736382Y565866D01*
X743330Y569581D01*
X749421Y574579D01*
X754420Y580670D01*
X758134Y587619D01*
X760421Y595159D01*
X761194Y603000D01*
X760421Y610841D01*
X758134Y618382D01*
X754420Y625330D01*
X749421Y631421D01*
X743330Y636420D01*
X736382Y640134D01*
X728841Y642421D01*
X721000Y643194D01*
D02*
G37*
G36*
X1955000Y674639D02*
X1942839Y673682D01*
X1930977Y670835D01*
X1919707Y666166D01*
X1909306Y659793D01*
X1900030Y651870D01*
X1892107Y642594D01*
X1885734Y632193D01*
X1881065Y620923D01*
X1878217Y609061D01*
X1877260Y596900D01*
X1878217Y584739D01*
X1881065Y572877D01*
X1885734Y561607D01*
X1892107Y551206D01*
X1900030Y541930D01*
X1904449Y538155D01*
X1897248Y527604D01*
X1894668Y528983D01*
X1887128Y531270D01*
X1879286Y532043D01*
X1871445Y531270D01*
X1863905Y528983D01*
X1856956Y525269D01*
X1850865Y520270D01*
X1845867Y514180D01*
X1842152Y507231D01*
X1839865Y499690D01*
X1839093Y491849D01*
X1839865Y484008D01*
X1842152Y476468D01*
X1845867Y469519D01*
X1850865Y463428D01*
X1856956Y458430D01*
X1863905Y454715D01*
X1871445Y452428D01*
X1879286Y451656D01*
X1887128Y452428D01*
X1894668Y454715D01*
X1901617Y458430D01*
X1907707Y463428D01*
X1912706Y469519D01*
X1916420Y476468D01*
X1918707Y484008D01*
X1919480Y491849D01*
X1918707Y499690D01*
X1916420Y507231D01*
X1912706Y514180D01*
X1907707Y520270D01*
X1915794Y530031D01*
X1919707Y527634D01*
X1930977Y522965D01*
X1942839Y520118D01*
X1955000Y519161D01*
X1967161Y520118D01*
X1979023Y522965D01*
X1990293Y527634D01*
X2000694Y534007D01*
X2009970Y541930D01*
X2017893Y551206D01*
X2024266Y561607D01*
X2028934Y572877D01*
X2031782Y584739D01*
X2032739Y596900D01*
X2031782Y609061D01*
X2028934Y620923D01*
X2024266Y632193D01*
X2017893Y642594D01*
X2009970Y651870D01*
X2000694Y659793D01*
X1990293Y666166D01*
X1979023Y670835D01*
X1967161Y673682D01*
X1955000Y674639D01*
D02*
G37*
G36*
X889000Y604073D02*
X881159Y603301D01*
X873619Y601014D01*
X866670Y597300D01*
X860579Y592301D01*
X855580Y586210D01*
X851866Y579261D01*
X849579Y571721D01*
X848807Y563880D01*
X849579Y556039D01*
X851866Y548499D01*
X855580Y541550D01*
X860579Y535459D01*
X866670Y530460D01*
X873619Y526746D01*
X881159Y524459D01*
X889000Y523687D01*
X896841Y524459D01*
X904381Y526746D01*
X911330Y530460D01*
X917421Y535459D01*
X922420Y541550D01*
X926134Y548499D01*
X928421Y556039D01*
X929193Y563880D01*
X928421Y571721D01*
X926134Y579261D01*
X922420Y586210D01*
X917421Y592301D01*
X911330Y597300D01*
X904381Y601014D01*
X896841Y603301D01*
X889000Y604073D01*
D02*
G37*
G36*
X1447000Y674639D02*
X1434839Y673682D01*
X1422977Y670835D01*
X1411707Y666166D01*
X1401306Y659793D01*
X1392030Y651870D01*
X1384107Y642594D01*
X1377734Y632193D01*
X1373065Y620923D01*
X1370217Y609061D01*
X1369260Y596900D01*
X1370217Y584739D01*
X1373065Y572877D01*
X1377734Y561607D01*
X1384107Y551206D01*
X1392030Y541930D01*
X1401306Y534007D01*
X1411707Y527634D01*
X1422977Y522965D01*
X1434839Y520118D01*
X1447000Y519161D01*
X1459161Y520118D01*
X1471023Y522965D01*
X1482293Y527634D01*
X1492694Y534007D01*
X1501970Y541930D01*
X1509893Y551206D01*
X1516266Y561607D01*
X1520934Y572877D01*
X1523782Y584739D01*
X1524739Y596900D01*
X1523782Y609061D01*
X1520934Y620923D01*
X1516266Y632193D01*
X1509893Y642594D01*
X1501970Y651870D01*
X1492694Y659793D01*
X1482293Y666166D01*
X1471023Y670835D01*
X1459161Y673682D01*
X1447000Y674639D01*
D02*
G37*
G36*
X2729000Y530991D02*
Y497000D01*
X2762991D01*
X2760776Y504304D01*
X2756597Y512122D01*
X2750974Y518974D01*
X2744122Y524597D01*
X2736304Y528776D01*
X2729000Y530991D01*
D02*
G37*
G36*
X2709000D02*
X2701696Y528776D01*
X2693878Y524597D01*
X2687026Y518974D01*
X2681403Y512122D01*
X2677224Y504304D01*
X2675009Y497000D01*
X2709000D01*
Y530991D01*
D02*
G37*
G36*
X2762991Y477000D02*
X2729000D01*
Y443009D01*
X2736304Y445224D01*
X2744122Y449403D01*
X2750974Y455026D01*
X2756597Y461878D01*
X2760776Y469696D01*
X2762991Y477000D01*
D02*
G37*
G36*
X3233200Y310593D02*
X3225359Y309821D01*
X3217819Y307534D01*
X3210870Y303820D01*
X3204779Y298821D01*
X3199780Y292730D01*
X3196066Y285781D01*
X3193779Y278241D01*
X3193007Y270400D01*
X3193779Y262559D01*
X3196066Y255019D01*
X3199780Y248070D01*
X3204779Y241979D01*
X3210870Y236980D01*
X3217819Y233266D01*
X3225359Y230979D01*
X3233200Y230207D01*
X3241041Y230979D01*
X3248582Y233266D01*
X3255530Y236980D01*
X3261621Y241979D01*
X3266620Y248070D01*
X3270334Y255019D01*
X3272621Y262559D01*
X3273394Y270400D01*
X3272621Y278241D01*
X3270334Y285781D01*
X3266620Y292730D01*
X3261621Y298821D01*
X3255530Y303820D01*
X3248582Y307534D01*
X3241041Y309821D01*
X3233200Y310593D01*
D02*
G37*
G36*
X3353000Y282193D02*
X3345159Y281421D01*
X3337618Y279134D01*
X3330669Y275420D01*
X3324579Y270421D01*
X3319580Y264330D01*
X3315866Y257382D01*
X3313579Y249841D01*
X3312806Y242000D01*
X3313579Y234159D01*
X3315866Y226619D01*
X3319580Y219670D01*
X3324579Y213579D01*
X3330669Y208580D01*
X3337618Y204866D01*
X3345159Y202579D01*
X3353000Y201807D01*
X3360841Y202579D01*
X3368381Y204866D01*
X3375330Y208580D01*
X3381421Y213579D01*
X3386419Y219670D01*
X3390134Y226619D01*
X3392421Y234159D01*
X3393193Y242000D01*
X3392421Y249841D01*
X3390134Y257382D01*
X3386419Y264330D01*
X3381421Y270421D01*
X3375330Y275420D01*
X3368381Y279134D01*
X3360841Y281421D01*
X3353000Y282193D01*
D02*
G37*
G36*
X1016000Y212913D02*
X1008159Y212141D01*
X1000619Y209854D01*
X993670Y206140D01*
X987579Y201141D01*
X982580Y195050D01*
X978866Y188101D01*
X976579Y180561D01*
X975807Y172720D01*
X976579Y164879D01*
X978866Y157339D01*
X982580Y150390D01*
X987579Y144299D01*
X993670Y139300D01*
X1000619Y135586D01*
X1008159Y133299D01*
X1016000Y132527D01*
X1023841Y133299D01*
X1031381Y135586D01*
X1038330Y139300D01*
X1044421Y144299D01*
X1049420Y150390D01*
X1053134Y157339D01*
X1055421Y164879D01*
X1056193Y172720D01*
X1055421Y180561D01*
X1053134Y188101D01*
X1049420Y195050D01*
X1044421Y201141D01*
X1038330Y206140D01*
X1031381Y209854D01*
X1023841Y212141D01*
X1016000Y212913D01*
D02*
G37*
G36*
X2154000Y193193D02*
X2146159Y192421D01*
X2138619Y190134D01*
X2131670Y186419D01*
X2125579Y181421D01*
X2120580Y175330D01*
X2116866Y168381D01*
X2114579Y160841D01*
X2113807Y153000D01*
X2114579Y145159D01*
X2116866Y137618D01*
X2120580Y130670D01*
X2125579Y124579D01*
X2131670Y119580D01*
X2138619Y115866D01*
X2146159Y113579D01*
X2154000Y112806D01*
X2161841Y113579D01*
X2169381Y115866D01*
X2176330Y119580D01*
X2182421Y124579D01*
X2187420Y130670D01*
X2191134Y137618D01*
X2193421Y145159D01*
X2194193Y153000D01*
X2193421Y160841D01*
X2191134Y168381D01*
X2187420Y175330D01*
X2182421Y181421D01*
X2176330Y186419D01*
X2169381Y190134D01*
X2161841Y192421D01*
X2154000Y193193D01*
D02*
G37*
G36*
X2370080Y198641D02*
X2360278Y197675D01*
X2350853Y194816D01*
X2342167Y190174D01*
X2334554Y183925D01*
X2328306Y176312D01*
X2323663Y167626D01*
X2320804Y158201D01*
X2319838Y148399D01*
X2320804Y138598D01*
X2323663Y129172D01*
X2328306Y120486D01*
X2334554Y112873D01*
X2342167Y106625D01*
X2350853Y101982D01*
X2360278Y99123D01*
X2370080Y98158D01*
X2379882Y99123D01*
X2389307Y101982D01*
X2397993Y106625D01*
X2405606Y112873D01*
X2411854Y120486D01*
X2416497Y129172D01*
X2419356Y138598D01*
X2420322Y148399D01*
X2419356Y158201D01*
X2416497Y167626D01*
X2411854Y176312D01*
X2405606Y183925D01*
X2397993Y190174D01*
X2389307Y194816D01*
X2379882Y197675D01*
X2370080Y198641D01*
D02*
G37*
G36*
X2773000Y230000D02*
X2593000D01*
Y50000D01*
X2773000D01*
Y230000D01*
D02*
G37*
%LPD*%
G36*
X1265709Y3472317D02*
X1266142Y3471508D01*
X1271140Y3465418D01*
X1277231Y3460419D01*
X1281323Y3458232D01*
X1315755Y3299633D01*
X1305707Y3289460D01*
X1304961Y3289491D01*
X1297828Y3290194D01*
X1289986Y3289421D01*
X1282446Y3287134D01*
X1275497Y3283420D01*
X1269407Y3278421D01*
X1264408Y3272331D01*
X1260694Y3265382D01*
X1258407Y3257841D01*
X1257634Y3250000D01*
X1258407Y3242159D01*
X1260694Y3234619D01*
X1264408Y3227670D01*
X1269407Y3221579D01*
X1275497Y3216581D01*
X1282446Y3212866D01*
X1289986Y3210579D01*
X1297828Y3209807D01*
X1304795Y3210493D01*
X1305852Y3210389D01*
X1315555Y3200306D01*
X1293378Y3099679D01*
X1293317Y3098979D01*
X1293115Y3098307D01*
X1277700Y3003898D01*
X1277636Y3001845D01*
X1277368Y2999809D01*
Y2720800D01*
X1277648Y2718676D01*
X1277729Y2716536D01*
X1286164Y2667050D01*
X1281215Y2661061D01*
X1275050Y2656669D01*
X1269553Y2657211D01*
X1261711Y2656438D01*
X1254171Y2654151D01*
X1247222Y2650437D01*
X1241132Y2645438D01*
X1236133Y2639348D01*
X1233243Y2633940D01*
X1231888Y2633424D01*
X1227982Y2632809D01*
X1219509Y2633593D01*
X1217963Y2636486D01*
X1212964Y2642577D01*
X1206874Y2647576D01*
X1199925Y2651290D01*
X1192384Y2653577D01*
X1184543Y2654350D01*
X1176702Y2653577D01*
X1176236Y2653436D01*
X1164363Y2662530D01*
X1218232Y3214627D01*
X1218330Y3214680D01*
X1224421Y3219678D01*
X1229419Y3225769D01*
X1233134Y3232718D01*
X1235421Y3240258D01*
X1236193Y3248099D01*
X1235421Y3255941D01*
X1233134Y3263481D01*
X1229419Y3270430D01*
X1224421Y3276520D01*
X1218330Y3281519D01*
X1211381Y3285233D01*
X1203841Y3287520D01*
X1197153Y3288179D01*
X1195525Y3288996D01*
X1188116Y3299950D01*
X1192176Y3311500D01*
X1193381Y3311866D01*
X1200330Y3315580D01*
X1206421Y3320579D01*
X1211419Y3326669D01*
X1215134Y3333618D01*
X1217421Y3341159D01*
X1218193Y3349000D01*
X1217421Y3356841D01*
X1215134Y3364381D01*
X1211419Y3371330D01*
X1206421Y3377421D01*
X1200330Y3382419D01*
X1193381Y3386134D01*
X1193344Y3386145D01*
X1188818Y3400505D01*
X1251020Y3474573D01*
X1265709Y3472317D01*
D02*
G37*
G36*
X1065264Y2213413D02*
X1028485Y1686973D01*
X1015450Y1681241D01*
X1008502Y1684955D01*
X1000961Y1687242D01*
X993120Y1688015D01*
X985279Y1687242D01*
X977739Y1684955D01*
X970790Y1681241D01*
X964699Y1676243D01*
X959701Y1670152D01*
X955986Y1663203D01*
X954350Y1657808D01*
X942017Y1660902D01*
X1052676Y2215103D01*
X1065264Y2213413D01*
D02*
G37*
D10*
X2122044Y1531220D02*
G03*
X2124329Y1520622I170894J31316D01*
G01*
X2121166Y1536459D02*
G03*
X2122044Y1531220I171772J26077D01*
G01*
X2041728Y2132498D02*
G03*
X2041150Y2136210I-86728J-11598D01*
G01*
X2137765Y1467223D02*
G03*
X2154350Y1428072I134235J33777D01*
G01*
X2154350Y1428072D02*
G03*
X2154443Y1427921I29967J18389D01*
G01*
X2219797Y1317794D02*
G03*
X2216811Y1327430I-19980J-911D01*
G01*
X2041827Y2131728D02*
G03*
X2041728Y2132498I-86827J-10828D01*
G01*
X1805538Y2543017D02*
G03*
X1805725Y2530993I85191J-4687D01*
G01*
X2009910Y2313208D02*
G03*
X2010857Y2306673I105129J11892D01*
G01*
X1816078Y2719693D02*
G03*
X1816063Y2722307I-19965J1191D01*
G01*
X1834508Y1497614D02*
G03*
X1834507Y1497888I-20000J88D01*
G01*
X1735720Y2202380D02*
G03*
X1736057Y2206024I-34794J5060D01*
G01*
X1134910Y564604D02*
G03*
X1142423Y573002I-10547J16994D01*
G01*
X1144185Y576683D02*
G03*
X1143752Y575794I44715J-22374D01*
G01*
X1368945Y1144444D02*
G03*
X1359738Y1111346I78055J-39544D01*
G01*
X1509523Y2555817D02*
G03*
X1509671Y2555668I60477J60183D01*
G01*
X1508765Y2556588D02*
G03*
X1509523Y2555817I61235J59412D01*
G01*
X1832183Y1612037D02*
G03*
X1832206Y1610386I122817J863D01*
G01*
X2219801Y1317696D02*
X2237404Y884600D01*
X2237989Y824011D02*
X2242400Y819600D01*
X2237989Y824011D02*
Y869807D01*
X2237404Y884600D02*
X2237989Y869807D01*
X2041827Y2131728D02*
X2090300Y1751200D01*
X2154443Y1427921D02*
X2216811Y1327430D01*
X2124329Y1520622D02*
X2124468Y1520068D01*
X2131252Y1493107D01*
X2219797Y1317794D02*
X2219801Y1317696D01*
X1829146Y729692D02*
X1829147Y764267D01*
X1829146Y729692D02*
X1843982Y714856D01*
Y673436D02*
Y714856D01*
X1827492Y645800D02*
X1829163Y649627D01*
X1829279Y658732D01*
X1829147Y764267D02*
X1833380Y1240472D01*
X1829279Y658732D02*
X1843982Y673436D01*
X1625397Y183080D02*
X1827492Y645800D01*
X1833380Y1240493D02*
X1834508Y1497614D01*
X1833380Y1240472D02*
X1833380Y1240493D01*
X1822522Y2339005D02*
X1829240Y2171237D01*
Y2129816D02*
Y2171237D01*
X1729240Y2143166D02*
X1780419Y1743334D01*
X1729240Y2157817D02*
X1734040Y2190831D01*
X1829207Y2089568D02*
X1829240Y2129816D01*
X1729240Y2143166D02*
Y2157817D01*
X1805538Y2543017D02*
X1805557Y2543350D01*
X1829207Y2072999D02*
X1829207Y2089568D01*
X1527632Y2537709D02*
X1617742Y2447599D01*
X1623600Y2441742D01*
X1505802Y1414583D02*
X1621441Y1642839D01*
X1623600Y1647100D02*
Y2441742D01*
X1621441Y1642839D02*
X1623600Y1647100D01*
X1805557Y2543350D02*
X1816078Y2719693D01*
X1805725Y2530993D02*
X1822522Y2339005D01*
X1780419Y1743334D02*
X1780846Y1739997D01*
X1734040Y2190831D02*
X1735720Y2202380D01*
X1829207Y2072999D02*
X1832183Y1612037D01*
X1509671Y2555668D02*
X1527630Y2537709D01*
X1527632D01*
X2003092Y3176745D02*
X2009240Y3170597D01*
X2002682Y2377106D02*
Y2378347D01*
X2002809Y2375984D02*
X2009910Y2313208D01*
X2002682Y2378347D02*
X2009240Y2940704D01*
X1795450Y3368251D02*
X2002799Y3177015D01*
X2003092Y3176745D01*
X2009240Y2940704D02*
Y3170597D01*
X2002682Y2377106D02*
X2002809Y2375984D01*
X2010857Y2306673D02*
X2028838Y2205488D01*
X1800164Y2917187D02*
X1816055Y2722412D01*
X1816063Y2722307D01*
X1834506Y1498014D02*
X1834507Y1497888D01*
X1832206Y1610386D02*
X1834506Y1498014D01*
X1736057Y2206024D02*
X1751070Y2578611D01*
X2028838Y2205488D02*
X2033140Y2181283D01*
X2131252Y1493107D02*
X2137764Y1467223D01*
X2088605Y1750943D02*
X2121166Y1536459D01*
X2033140Y2181283D02*
X2041150Y2136210D01*
X472440Y162560D02*
X497300D01*
X1142423Y573002D02*
X1143752Y575794D01*
X686661Y286418D02*
X1134910Y564604D01*
X497300Y168900D02*
X686661Y286418D01*
X1350735Y989475D02*
X1359738Y1111346D01*
X1350735Y989474D02*
Y989475D01*
X1189614Y667472D02*
X1350735Y989474D01*
X1144185Y576683D02*
X1189614Y667472D01*
X1368945Y1144444D02*
X1505802Y1414583D01*
X1460000Y2606850D02*
X1508765Y2556588D01*
X1790446Y3372866D02*
X1795450Y3368251D01*
X1717175Y3086661D02*
X1800164Y2917187D01*
X1655700Y3212200D02*
X1713781Y3093591D01*
X1717175Y3086661D01*
D11*
X2838365Y1071892D02*
G03*
X2831808Y1079292I-64544J-50588D01*
G01*
X2841708Y1065526D02*
G03*
X2838365Y1071892I-19379J-6114D01*
G01*
X2064330Y889728D02*
G03*
X2056080Y902904I-20038J-3376D01*
G01*
X1868401Y1118499D02*
G03*
X1875719Y1067499I86599J-13599D01*
G01*
X1835216Y2919940D02*
G03*
X1833692Y2927776I-35052J-2753D01*
G01*
X1868411Y1118561D02*
G03*
X1869033Y1127834I-54530J8317D01*
G01*
X1840662Y2541374D02*
G03*
X1840769Y2533854I50067J-3045D01*
G01*
X1857633Y2341061D02*
G03*
X1857555Y2342046I-55028J-3824D01*
G01*
X1674407Y2631854D02*
G03*
X1675055Y2628389I49599J7482D01*
G01*
X1588614Y2956573D02*
G03*
X1588187Y2959024I-49614J-7381D01*
G01*
X1695722Y1732201D02*
G03*
X1696250Y1727735I85124J7796D01*
G01*
X1730897Y1735402D02*
G03*
X1739101Y1712187I49949J4595D01*
G01*
X1063750Y2615463D02*
G03*
X1063778Y2611282I120793J-1307D01*
G01*
X686917Y2719516D02*
G03*
X697726Y2730096I-7789J18769D01*
G01*
X932194Y3243504D02*
G03*
X932183Y3243489I28822J-20416D01*
G01*
X932308Y3243664D02*
G03*
X932194Y3243504I28708J-20575D01*
G01*
X933301Y3244984D02*
G03*
X932308Y3243664I27714J-21896D01*
G01*
X550019Y2663430D02*
G03*
X539210Y2658133I34181J-83430D01*
G01*
X912275Y3215515D02*
G03*
X908710Y3209246I28760J-20502D01*
G01*
X627768Y3156875D02*
G03*
X631588Y3163728I-41768J27775D01*
G01*
X636129Y3173558D02*
G03*
X636122Y3173542I18478J-8455D01*
G01*
X662333Y3229022D02*
G03*
X658816Y3222664I42018J-27395D01*
G01*
X1116361Y3353816D02*
G03*
X1118391Y3356104I-40578J38070D01*
G01*
X727384Y2666770D02*
G03*
X726200Y2657700I34136J-9070D01*
G01*
X2079720Y2324966D02*
G03*
X2084599Y2307188I35320J134D01*
G01*
X2044400Y2325100D02*
G03*
X2049263Y2299342I70640J0D01*
G01*
X1851151Y2724568D02*
G03*
X1851104Y2725199I-55031J-3783D01*
G01*
X1851281Y2720785D02*
G03*
X1851151Y2724568I-55161J0D01*
G01*
X1851178Y2717408D02*
G03*
X1851281Y2720785I-55057J3377D01*
G01*
X1658535Y2534769D02*
G03*
X1658525Y2535883I-50160J113D01*
G01*
X1639524Y2626313D02*
G03*
X1640587Y2620681I84482J13023D01*
G01*
X1692577Y2549607D02*
G03*
X1691794Y2553537I-84202J-14725D01*
G01*
X1658525Y2535883D02*
G03*
X1657326Y2545829I-50150J-1002D01*
G01*
D02*
G03*
X1657295Y2545964I-48951J-10947D01*
G01*
X1134620Y2619027D02*
G03*
X1134407Y2612626I49923J-4871D01*
G01*
X1134383Y2614156D02*
G03*
X1137034Y2598067I50160J0D01*
G01*
X975569Y1498538D02*
G03*
X975753Y1498797I-16460J11916D01*
G01*
X2610298Y1421158D02*
G03*
X2605044Y1398195I44902J-22358D01*
G01*
X3130157Y917556D02*
G03*
X3129875Y922333I-50157J-557D01*
G01*
X3129309Y907801D02*
G03*
X3130157Y917556I-49309J9199D01*
G01*
X3125158Y2274842D02*
G03*
X3125136Y2276326I-50160J0D01*
G01*
X3125145Y2273715D02*
G03*
X3125158Y2274842I-50147J1128D01*
G01*
X3101040Y1200000D02*
G03*
X3101891Y1184034I150160J0D01*
G01*
X3101078Y1203375D02*
G03*
X3101040Y1200000I150122J-3375D01*
G01*
X3101869Y3108554D02*
G03*
X3101106Y3088358I149331J-15754D01*
G01*
X650133Y3368344D02*
G03*
X650119Y3372037I-50132J1656D01*
G01*
X647110Y3446038D02*
G03*
X628462Y3483060I-50119J-2037D01*
G01*
X685478Y3391124D02*
G03*
X685446Y3392324I-35318J-347D01*
G01*
X588691Y3122491D02*
G03*
X615311Y3138142I-2791J35209D01*
G01*
X642468Y3272142D02*
G03*
X647634Y3292713I-44966J22227D01*
G01*
X682442Y3466193D02*
G03*
X682354Y3467641I-35291J-1435D01*
G01*
X686720Y3293338D02*
G03*
X686713Y3294052I-35320J0D01*
G01*
X680987Y3257635D02*
G03*
X686720Y3276925I-29587J19290D01*
G01*
X675051Y3556811D02*
G03*
X672158Y3568198I-35202J-2883D01*
G01*
X1238973Y3554137D02*
G03*
X1234102Y3548811I60588J-60299D01*
G01*
X1239263Y3554427D02*
G03*
X1238973Y3554137I60299J-60588D01*
G01*
X1251168Y3564301D02*
G03*
X1239263Y3554427I48394J-70462D01*
G01*
X1083507Y3370974D02*
G03*
X1085174Y3372844I-36602J34298D01*
G01*
X1264003Y3529217D02*
G03*
X1261149Y3526096I35558J-35379D01*
G01*
X1264183Y3529397D02*
G03*
X1264003Y3529217I35379J-35558D01*
G01*
X1275997Y3538119D02*
G03*
X1264183Y3529397I23564J-44280D01*
G01*
X782013Y1651207D02*
G03*
X782010Y1651183I49898J-5118D01*
G01*
X782983Y1657139D02*
G03*
X782013Y1651207I48928J-11050D01*
G01*
X697723Y1882228D02*
G03*
X708131Y1904188I-38773J31822D01*
G01*
X741827Y1879966D02*
G03*
X741832Y1879978I-32717J13308D01*
G01*
X736220Y1870634D02*
G03*
X741827Y1879966I-27110J22639D01*
G01*
X761520Y1939138D02*
G03*
X761520Y1939163I-55640J168D01*
G01*
X757435Y1918381D02*
G03*
X761520Y1939138I-51556J20925D01*
G01*
X757427Y1918362D02*
G03*
X757435Y1918381I-51548J20944D01*
G01*
X987283Y2667661D02*
G03*
X988070Y2674001I-49283J9339D01*
G01*
X1209660Y2135051D02*
G03*
X1209101Y2142765I-50159J249D01*
G01*
X1099140Y2617778D02*
G03*
X1099087Y2612124I85403J-3622D01*
G01*
X1148667Y3264701D02*
G03*
X1146068Y3252873I47333J-16602D01*
G01*
D02*
G03*
X1145977Y3251798I49932J-4773D01*
G01*
X1099296Y2620459D02*
G03*
X1099140Y2617778I85247J-6303D01*
G01*
X1169276Y2500222D02*
G03*
X1167614Y2507763I-35116J-3787D01*
G01*
X1234360Y533109D02*
G03*
X1235919Y536837I-45460J21200D01*
G01*
X1216704Y512560D02*
G03*
X1232075Y528776I-27804J41749D01*
G01*
X832196Y316749D02*
G03*
X830523Y315585I27804J-41749D01*
G01*
X1700926Y2230487D02*
G03*
X1700918Y2231445I-55641J0D01*
G01*
X1700635Y2224804D02*
G03*
X1700926Y2230487I-55350J5683D01*
G01*
X1867369Y1615174D02*
G03*
X1867450Y1608498I87631J-2274D01*
G01*
X2286013Y1282964D02*
G03*
X2287928Y1280148I37487J23436D01*
G01*
X2171862Y1475803D02*
G03*
X2184318Y1446462I100138J25197D01*
G01*
X2397203Y634331D02*
G03*
X2405103Y610358I44192J1274D01*
G01*
X2154966Y1549566D02*
G03*
X2158531Y1528785I137972J12970D01*
G01*
X2096031Y2176518D02*
G03*
X2093742Y2186169I-35013J-3210D01*
G01*
X2233468Y2050196D02*
G03*
X2230708Y2059882I-20313J-553D01*
G01*
X2238200Y1875106D02*
G03*
X2238198Y1876403I-50156J599D01*
G01*
D02*
G03*
X2238185Y1877071I-50155J-698D01*
G01*
X1319713Y2617017D02*
G03*
X1318999Y2625446I-50160J0D01*
G01*
X1319703Y2616048D02*
G03*
X1319713Y2617017I-50151J970D01*
G01*
X1442500Y2033241D02*
G03*
X1464415Y2036024I0J87660D01*
G01*
X1380609Y2058822D02*
G03*
X1442500Y2033241I61891J62078D01*
G01*
X1380422Y2059009D02*
G03*
X1380609Y2058822I62078J61891D01*
G01*
X1356455Y2104151D02*
G03*
X1380422Y2059009I86045J16750D01*
G01*
X1592366Y3057576D02*
G03*
X1596024Y3041009I50104J2378D01*
G01*
X1619925Y2980675D02*
G03*
X1617943Y2987274I-34656J-6816D01*
G01*
X2242784Y1561767D02*
G03*
X2250268Y1536167I50154J768D01*
G01*
X1867352Y2119463D02*
G03*
X1867430Y2116929I87648J1437D01*
G01*
X1869666Y2067700D02*
G03*
X1869629Y2069323I-35160J0D01*
G01*
X1488851Y2948152D02*
G03*
X1489080Y2944288I50149J1040D01*
G01*
X1522583Y2599638D02*
G03*
X1544392Y2572869I47416J16362D01*
G01*
X1520029Y2611651D02*
G03*
X1522583Y2599638I49971J4349D01*
G01*
X1506609Y2765837D02*
G03*
X1506568Y2766283I-40168J-3496D01*
G01*
X1537862Y3214925D02*
G03*
X1537866Y3214905I49138J10074D01*
G01*
X1537258Y3231461D02*
G03*
X1537862Y3214925I49742J-6462D01*
G01*
X2115040Y3487542D02*
G03*
X2109107Y3501892I-20321J0D01*
G01*
X2673568Y1250990D02*
X2720851Y1191962D01*
X2727748Y1183352D01*
X2831808Y1079292D01*
X2719900Y1191200D02*
X2727748Y1183352D01*
X2841708Y1065526D02*
X2855827Y1021305D01*
X2861130Y1120820D02*
X2944540Y859578D01*
X2857949Y1124186D02*
X2861130Y1120820D01*
X2723346Y1269079D02*
X2843385Y1139592D01*
X2857949Y1124186D01*
X2672858Y1256698D02*
X2673568Y1250990D01*
X2855827Y1021305D02*
X2861695Y1002928D01*
X2655200Y1398800D02*
X2672858Y1256698D01*
X2910852Y794680D02*
X2911000Y794000D01*
X2861695Y1002928D02*
X2910852Y794680D01*
X2944540Y859578D02*
X2950267Y853852D01*
X2953080Y852401D02*
X3012000Y822000D01*
X2950267Y853852D02*
X2953080Y852401D01*
X2064330Y889728D02*
X2122322Y545569D01*
X2129884Y500686D01*
X2130000Y500000D01*
X1875719Y1067499D02*
X1901836Y1012222D01*
X2056042Y902931D02*
X2056080Y902904D01*
X1901836Y1012222D02*
X2056042Y902931D01*
X1793982Y694146D02*
X1793987Y1135200D01*
X1781004Y3096762D02*
X1833692Y2927776D01*
X1840769Y2533854D02*
X1857555Y2342046D01*
X1857632Y2341061D02*
X1865597Y2226445D01*
X1868312Y1169410D02*
X1869033Y1127834D01*
X1835216Y2919940D02*
X1848728Y2754323D01*
X1867450Y1608498D02*
X1870971Y1538474D01*
X1865597Y2226445D02*
X1866900Y2207700D01*
X1868312Y1169413D02*
X1870971Y1538474D01*
X1868312Y1169410D02*
Y1169413D01*
X1729008Y692328D02*
Y1500259D01*
X1728798Y1503174D02*
X1729008Y1500259D01*
X1701349Y1692554D02*
X1728798Y1503174D01*
X1773912Y1620614D02*
X1774252Y1619178D01*
X1789602Y1447121D02*
X1789610Y1446326D01*
X1792900Y1135200D01*
X1760876Y1675472D02*
X1773912Y1620614D01*
X1774252Y1619178D02*
X1789602Y1447121D01*
X1694080Y2140785D02*
X1730897Y1735402D01*
X1694080Y2140785D02*
Y2160103D01*
X1698645Y2205159D01*
X1658760Y2139185D02*
X1695722Y1732201D01*
X1588614Y2956573D02*
X1639524Y2626313D01*
X1658535Y2534769D02*
X1658760Y2456305D01*
X1755825Y1687083D02*
X1760876Y1675472D01*
X1658760Y2139185D02*
Y2456305D01*
X1622542Y2968536D02*
X1674407Y2631854D01*
X1747586Y1699450D02*
X1755825Y1687083D01*
X1588167Y2959124D02*
X1588187Y2959024D01*
X1698645Y2205159D02*
X1700635Y2224804D01*
X1585269Y2973859D02*
X1588167Y2959124D01*
X1104083Y2406232D02*
X1104089Y2405990D01*
Y2405029D02*
Y2405990D01*
X866100Y1410300D02*
X1065160Y2407223D01*
X1045043Y1599966D02*
X1048164Y1604522D01*
X1099087Y2612124D02*
X1104083Y2406232D01*
X1048164Y1604522D02*
X1104089Y2405029D01*
X975816Y1498888D02*
X1045043Y1599966D01*
X1065160Y2407223D02*
Y2448777D01*
X1063777Y2611282D02*
X1065160Y2448777D01*
X516207Y727708D02*
X582894Y843402D01*
X582922Y848781D02*
X587409Y1692431D01*
X497341Y708843D02*
X516207Y727708D01*
X582894Y843402D02*
X582922Y848781D01*
X587409Y1692431D02*
X592093Y1698040D01*
X517144Y826526D02*
X544510Y871430D01*
X504242Y1176115D02*
X512159Y1717080D01*
X547479Y1702450D02*
X696162Y1880325D01*
X592093Y1698040D02*
X735206Y1869419D01*
X512159Y1717080D02*
X658950Y1914050D01*
X544510Y871430D02*
X547479Y1702450D01*
X503354Y1173234D02*
X504242Y1176115D01*
X696162Y1880325D02*
X697723Y1882228D01*
X440620Y1130086D02*
X503354Y1173234D01*
X497341Y708843D02*
X497341D01*
X475100Y757538D02*
X517144Y826526D01*
X198120Y409622D02*
X497341Y708843D01*
X686832Y2719481D02*
X686917Y2719516D01*
X697726Y2730096D02*
X908710Y3209246D01*
X932183Y3243489D02*
X932194Y3243504D01*
X922318Y3229627D02*
X932183Y3243489D01*
X912275Y3215515D02*
X922318Y3229627D01*
X933265Y3245010D02*
X1049509Y3408343D01*
X932308Y3243664D02*
X933265Y3245010D01*
X447119Y2605106D02*
X539210Y2658133D01*
X373300Y2562600D02*
X447119Y2605106D01*
X550019Y2663430D02*
X686832Y2719481D01*
X662333Y3229022D02*
X678750Y3254203D01*
X583400Y3178400D02*
X585900Y3157700D01*
X636160Y3173624D02*
X658816Y3222664D01*
X596625Y3179399D02*
X601725Y3189715D01*
X631588Y3163728D02*
X636122Y3173542D01*
X601725Y3189715D02*
X638412Y3263937D01*
X636129Y3173558D02*
X636160Y3173624D01*
X976355Y3183728D02*
X988080Y3200202D01*
X941035Y3195013D02*
X961016Y3223088D01*
X988160Y2675501D02*
X1009866Y2979912D01*
X727384Y2666770D02*
X941035Y3195013D01*
X1009866Y2979912D02*
X1026515Y3167701D01*
X988070Y2674001D02*
X988160Y2675501D01*
X761520Y2648370D02*
X976355Y3183728D01*
X988080Y3200202D02*
X1116361Y3353816D01*
X961016Y3223088D02*
X1056095Y3341720D01*
X761520Y2015500D02*
Y2648370D01*
X1063750Y2615463D02*
Y2955411D01*
X1060026Y2959135D02*
X1063750Y2955411D01*
X2079720Y3453280D02*
X2079720Y2324966D01*
X2073768Y3459231D02*
X2079720Y3453280D01*
X2313400Y1246000D02*
X2391864Y1159280D01*
X2044400Y2325100D02*
X2044400Y3185161D01*
X2072048Y3460951D02*
X2073768Y3459231D01*
X2040400Y3191050D02*
X2044400Y3185161D01*
X2084701Y2307014D02*
X2230651Y2059979D01*
X2006332Y3237474D02*
X2040400Y3191050D01*
X2084599Y2307187D02*
X2084701Y2307014D01*
X2118178Y2320129D02*
X2125727Y2308173D01*
X2115040Y2325099D02*
Y3487542D01*
X2091061Y2192989D02*
X2093742Y2186169D01*
X2239054Y1817678D02*
X2240039Y1750080D01*
X2391864Y1159280D02*
X2397185Y1145571D01*
X2238199Y1875106D02*
X2239054Y1817678D01*
X2115040Y2325099D02*
X2118178Y2320129D01*
X2049263Y2299342D02*
X2091061Y2192989D01*
X2230651Y2059979D02*
X2230707Y2059882D01*
X2125727Y2308173D02*
X2267337Y2083887D01*
X1840662Y2541374D02*
X1851178Y2717408D01*
X1865905Y2207684D02*
X1867352Y2119463D01*
X1848728Y2754323D02*
X1851104Y2725199D01*
X198120Y163880D02*
Y409622D01*
X726200Y1994300D02*
Y2657700D01*
X708131Y1904188D02*
X726200Y1994300D01*
X3022717Y345816D02*
X3028739Y349408D01*
X3026000Y354000D02*
X3129309Y907801D01*
X1587000Y3225000D02*
X1590903Y3088389D01*
X1619925Y2980675D02*
X1622319Y2968502D01*
X1695752Y2531450D02*
X1700918Y2231445D01*
X1544392Y2572869D02*
X1603469Y2537795D01*
X1640587Y2620681D02*
X1657295Y2545964D01*
X1608726Y2534981D02*
X1621600Y2538600D01*
X1603469Y2537795D02*
X1608375Y2534882D01*
X1675055Y2628389D02*
X1691750Y2553733D01*
X1691794Y2553537D01*
X1692577Y2549607D02*
X1695752Y2531450D01*
X1608375Y2534882D02*
X1608726Y2534981D01*
X1657295Y2545964D02*
Y2545964D01*
X1606500Y2542900D02*
X1608375Y2534882D01*
X2608737Y1092126D02*
X2613829Y670148D01*
X2609900Y670100D02*
X2614000Y656000D01*
X2613829Y670148D02*
X2614000Y656000D01*
X1206278Y985668D02*
X1211500Y986000D01*
X1203960Y985520D02*
X1206278Y985668D01*
X1203990Y991609D02*
X1209659Y2134931D01*
X1203960Y985520D02*
X1205900Y991600D01*
X1137033Y2598067D02*
X1164968Y2515576D01*
X1203960Y985520D02*
X1203990Y991609D01*
X936840Y1445036D02*
X975569Y1498538D01*
X975753Y1498797D02*
X975816Y1498888D01*
X1134620Y2619027D02*
X1196000Y3248099D01*
X2250268Y1536166D02*
X2259544Y1521156D01*
X2605044Y1398195D02*
X2608737Y1092126D01*
X2679953Y1561046D02*
X3073504Y1954597D01*
X2610298Y1421158D02*
X2679953Y1561046D01*
X3101891Y1184034D02*
X3125723Y961164D01*
X3013300Y340200D02*
X3022717Y345816D01*
X3125723Y961164D02*
X3127698Y942697D01*
X3129875Y922333D01*
X3117127Y1917127D02*
X3125145Y2273715D01*
X3101078Y1203375D02*
X3117127Y1917127D01*
X3101106Y3088358D02*
X3121854Y2387209D01*
X3125136Y2276326D01*
X3101869Y3108554D02*
X3140000Y3470000D01*
X3073504Y1954597D02*
X3074998Y2274842D01*
X-105000Y3294000D02*
X419988Y3404883D01*
X428500Y3415900D01*
X593632Y3173342D02*
X596625Y3179399D01*
X585900Y3157700D02*
X593632Y3173342D01*
X638412Y3263937D02*
X642468Y3272142D01*
X647634Y3292713D02*
X650133Y3368344D01*
X647110Y3446038D02*
X650119Y3372037D01*
X436753Y3637518D02*
X628462Y3483060D01*
X685478Y3391124D02*
X686713Y3294052D01*
X442339Y3110891D02*
X588691Y3122490D01*
X682442Y3466193D02*
X685446Y3392324D01*
X615311Y3138142D02*
X627768Y3156875D01*
X678750Y3254203D02*
X680987Y3257635D01*
X686720Y3276925D02*
Y3293338D01*
X645000Y3629689D02*
X651353Y3615304D01*
X672158Y3568198D01*
X675051Y3556811D02*
X682354Y3467641D01*
X1056095Y3341720D02*
X1083507Y3370974D01*
X1094474Y3383819D02*
X1214242Y3525162D01*
X1085174Y3372844D02*
X1094474Y3383819D01*
X1214242Y3525162D02*
X1234102Y3548811D01*
X1251168Y3564301D02*
X1383359Y3655090D01*
X1128737Y3368423D02*
X1261149Y3526096D01*
X1118391Y3356104D02*
X1128737Y3368423D01*
X1295756Y3548634D02*
X1495800Y3655090D01*
X1275997Y3538119D02*
X1295756Y3548634D01*
X761520Y1939163D02*
X761520Y2015500D01*
X762628Y1461315D02*
X782008Y1651160D01*
X608119Y543586D02*
X762628Y1461315D01*
X606000Y531000D02*
X608119Y543586D01*
X782008Y1651160D02*
X782010Y1651183D01*
X862570Y2009540D02*
X983039Y2645270D01*
X782983Y1657139D02*
X862570Y2009540D01*
X735206Y1869419D02*
X736220Y1870634D01*
X741832Y1879978D02*
X757427Y1918362D01*
X983039Y2645270D02*
X987283Y2667661D01*
X1174761Y2449364D02*
X1185267Y2301124D01*
X1209659Y2134931D02*
X1209659Y2135051D01*
X1185267Y2301123D02*
Y2301124D01*
Y2301123D02*
X1209083Y2142889D01*
X1209101Y2142765D01*
X1169276Y2500222D02*
X1174761Y2449365D01*
Y2449364D02*
Y2449365D01*
X1148667Y3264701D02*
X1148672Y3264717D01*
X1176228Y3343907D01*
X1099296Y2620459D02*
X1145976Y3251798D01*
X1176228Y3343907D02*
X1178000Y3349000D01*
X1443975Y89763D02*
X1447000Y88900D01*
X1153160Y172720D02*
X1443975Y89763D01*
X1443700Y88800D02*
X1447000Y88900D01*
X1234309Y533000D02*
X1234360Y533109D01*
X1228200Y519900D02*
X1234309Y533000D01*
X1235953Y536930D02*
X1447000Y1104900D01*
X1235919Y536837D02*
X1235953Y536930D01*
X1436300Y1118100D02*
X1447000Y1104900D01*
X860000Y275000D02*
X1216704Y512560D01*
X851000Y276500D02*
X860000Y275000D01*
X669816Y198863D02*
X830523Y315585D01*
X1179600Y544000D02*
X1188900Y554309D01*
X832196Y316748D02*
X844826Y325160D01*
X1177701Y546851D01*
X1188900Y554309D01*
X1696250Y1727735D02*
X1701349Y1692554D01*
X1739101Y1712187D02*
X1747586Y1699450D01*
X1867369Y1615174D02*
X1869666Y1703700D01*
Y2067700D01*
X2287928Y1280148D02*
X2313224Y1245871D01*
X2397185Y1145571D02*
Y1145571D01*
X2184317Y1446462D02*
X2286013Y1282964D01*
X2397185Y1145571D02*
X2397185D01*
Y634965D02*
Y1145571D01*
Y634965D02*
X2397203Y634331D01*
X1989250Y3260750D02*
X2006332Y3237474D01*
X1722096Y3527904D02*
X1989250Y3260750D01*
X2405103Y610358D02*
X2485518Y494764D01*
X2490000Y488321D01*
X2158531Y1528785D02*
X2171862Y1475803D01*
X2096031Y2176518D02*
X2096178Y2174956D01*
X2154966Y1549566D01*
X2233468Y2050196D02*
X2238181Y1877212D01*
X2267337Y2083887D02*
X2292938Y1562535D01*
X2238181Y1877212D02*
X2238184Y1877071D01*
X2240039Y1750080D02*
X2242784Y1561767D01*
X1302745Y2720800D02*
Y2999809D01*
Y2720800D02*
X1316315Y2641191D01*
X1318999Y2625446D01*
X1319713Y2292900D02*
Y2496900D01*
X1317400D02*
X1319703Y2616048D01*
X1319713Y2292900D02*
X1345571Y2160064D01*
X1354840Y2112447D01*
X1356455Y2104151D01*
X1507006Y2047021D02*
X1529000Y2052700D01*
X1487573Y2042004D02*
X1507006Y2047021D01*
X1464415Y2036024D02*
X1487573Y2042004D01*
X1529000Y2052700D02*
X1539900Y2059000D01*
X1779997Y3099994D02*
X1781004Y3096762D01*
X1596024Y3041009D02*
X1615887Y2992315D01*
X1617943Y2987274D01*
X1590903Y3088389D02*
X1592366Y3057576D01*
X1556990Y3024547D02*
X1585269Y2973859D01*
X1537866Y3214905D02*
X1556990Y3024547D01*
X2259544Y1521156D02*
X2272000Y1501000D01*
X1164968Y2515576D02*
X1167614Y2507763D01*
X1869000Y2082930D02*
X1869629Y2069323D01*
X1867430Y2116929D02*
X1869000Y2082930D01*
X1483149Y3223058D02*
X1488851Y2948152D01*
X1489080Y2944288D02*
X1506568Y2766283D01*
X1506609Y2765837D02*
X1520029Y2611651D01*
X1548224Y3315876D02*
X1559094Y3399553D01*
X1537258Y3231461D02*
X1548224Y3315876D01*
X1347988Y3229556D02*
Y3270777D01*
X1302745Y2999809D02*
X1318160Y3094218D01*
X1347988Y3229556D01*
X1299561Y3493839D02*
X1347988Y3270777D01*
X198120Y163880D02*
X200000Y162000D01*
X2109088Y3501911D02*
X2109107Y3501892D01*
X1940000Y3593000D02*
X2072048Y3460951D01*
X1962900Y3648100D02*
X2109088Y3501911D01*
X1822100Y3648100D02*
X1962900D01*
D13*
X458947Y2810442D02*
G03*
X473376Y2827935I-34493J43147D01*
G01*
X457010Y2808962D02*
G03*
X458947Y2810442I-32555J44627D01*
G01*
X442912Y2801524D02*
G03*
X457010Y2808962I-18457J52065D01*
G01*
X216228Y2721162D02*
G03*
X199777Y2707252I10185J-28729D01*
G01*
X572242Y2901251D02*
G03*
X572244Y2901253I-21551J21554D01*
G01*
X581788Y2911608D02*
G03*
X581786Y2911606I21551J-21554D01*
G01*
X476283Y2824300D02*
X569724Y2898998D01*
X458947Y2810442D02*
X476283Y2824300D01*
X216228Y2721162D02*
X442912Y2801524D01*
X119300Y2562601D02*
X199777Y2707252D01*
X581788Y2911608D02*
X582985Y2912805D01*
X577178Y2906997D02*
X581786Y2911606D01*
X572244Y2901253D02*
X576853Y2905862D01*
X571072Y2900081D02*
X572242Y2901251D01*
X631513Y2953327D02*
X633709Y2954714D01*
X584519Y2915759D02*
X631513Y2953327D01*
X584307Y2913862D02*
X584519Y2915759D01*
X633709Y2954714D02*
X635880Y2962302D01*
X582985Y2912805D02*
X584307Y2913861D01*
X635880Y2962302D02*
X704351Y3201626D01*
X569724Y2898998D02*
X571072Y2900081D01*
X576853Y2905862D02*
X577178Y2906997D01*
D55*
X441625Y3231453D02*
G03*
X457559Y3235145I-2625J47548D01*
G01*
X450792Y3550453D02*
G03*
X446899Y3553925I-33592J-33753D01*
G01*
X450953Y3550292D02*
G03*
X450792Y3550453I-33753J-33592D01*
G01*
X454431Y3546390D02*
G03*
X450953Y3550292I-37231J-29690D01*
G01*
X559761Y3414310D02*
G03*
X561794Y3411925I37231J29690D01*
G01*
X-105736Y3201235D02*
X441625Y3231453D01*
X-110000Y3201000D02*
X-105736Y3201235D01*
X457559Y3235145D02*
X597502Y3294369D01*
X-110000Y3201000D02*
X-105900Y3204200D01*
X561794Y3411925D02*
X600000Y3370000D01*
X433033Y3564987D02*
X446898Y3553925D01*
X309816Y3663290D02*
X433033Y3564987D01*
X303380Y3668425D02*
X309816Y3663290D01*
X454431Y3546390D02*
X487285Y3505192D01*
X559761Y3414310D01*
X600000Y3370000D02*
X606600Y3374600D01*
D66*
X450000Y3009000D02*
D03*
Y3729000D02*
D03*
D67*
X60000Y2920000D02*
D03*
Y3818000D02*
D03*
D68*
X300000D02*
D03*
Y2920000D02*
D03*
D69*
X584200Y2072000D02*
D03*
D70*
Y2580000D02*
D03*
Y2326000D02*
D03*
D71*
X2370080Y148399D02*
D03*
X3250000Y2145960D02*
D03*
D72*
X1442500Y2120901D02*
D03*
X1955000Y2120900D02*
D03*
X119300Y2562601D02*
D03*
Y2308600D02*
D03*
Y2054600D02*
D03*
X1955000Y88900D02*
D03*
X1447000D02*
D03*
Y1104900D02*
D03*
Y596900D02*
D03*
X1955000Y1612900D02*
D03*
X1447000D02*
D03*
X1955000Y1104900D02*
D03*
Y596900D02*
D03*
X373300Y2054600D02*
D03*
Y2562600D02*
D03*
X372300Y2304401D02*
D03*
D73*
X2937000Y140000D02*
D03*
D74*
X2683000D02*
D03*
D75*
X3251200Y3092800D02*
D03*
Y1200000D02*
D03*
D76*
X2700507Y1046123D02*
D03*
X2765300Y1051300D02*
D03*
X2811535Y995114D02*
D03*
X2723346Y1269079D02*
D03*
X1895300Y946000D02*
D03*
X2343700Y887800D02*
D03*
X2780200Y747875D02*
D03*
X2242400Y819600D02*
D03*
X2181888Y979000D02*
D03*
X1793982Y694146D02*
D03*
X1729008Y692328D02*
D03*
X1779240Y2150527D02*
D03*
X949164Y1557589D02*
D03*
X475100Y757538D02*
D03*
X569489Y2987254D02*
D03*
X1026515Y3167701D02*
D03*
X2655200Y1398800D02*
D03*
X3233200Y270400D02*
D03*
X2015000Y1314000D02*
D03*
X993120Y1647821D02*
D03*
X1331415Y1509100D02*
D03*
X1060026Y2959135D02*
D03*
X704351Y3201626D02*
D03*
X424455Y2853589D02*
D03*
X3003000Y704000D02*
D03*
X1890729Y2538329D02*
D03*
X1657989Y3070258D02*
D03*
X1587000Y3225000D02*
D03*
X1751070Y2578611D02*
D03*
X1608375Y2534882D02*
D03*
X2614000Y656000D02*
D03*
X1203960Y985520D02*
D03*
X866100Y1410300D02*
D03*
X2323000Y814000D02*
D03*
X936840Y1445036D02*
D03*
X2083181Y1034031D02*
D03*
X584300Y1944215D02*
D03*
X1294000Y1952100D02*
D03*
X1283240Y1772633D02*
D03*
X1049509Y3408343D02*
D03*
X928628Y3342308D02*
D03*
X1083673Y3228856D02*
D03*
X1196000Y3248099D02*
D03*
X1029101Y1484430D02*
D03*
X1283232Y506768D02*
D03*
X891055Y951008D02*
D03*
X3041000Y981000D02*
D03*
X3080000Y917000D02*
D03*
X3140000Y3470000D02*
D03*
X3074998Y2274842D02*
D03*
X596992Y3444000D02*
D03*
X658950Y1914050D02*
D03*
X831911Y1646089D02*
D03*
X938000Y2677000D02*
D03*
X860000Y275000D02*
D03*
X1159500Y2135300D02*
D03*
X1304921Y2100021D02*
D03*
X1015000Y2428000D02*
D03*
X1529000Y2052700D02*
D03*
X1527440Y1676427D02*
D03*
X2598675Y1862666D02*
D03*
X834600Y2587407D02*
D03*
X1184543Y2614156D02*
D03*
X2188043Y1875705D02*
D03*
X1780846Y1739997D02*
D03*
X1724006Y2639336D02*
D03*
X1368320Y3073441D02*
D03*
X743986Y882200D02*
D03*
X597502Y3294369D02*
D03*
X1383359Y3655090D02*
D03*
X1495800D02*
D03*
X1539000Y2949192D02*
D03*
X1460000Y2606850D02*
D03*
X1570000Y2616000D02*
D03*
X1269553Y2617017D02*
D03*
X1416767Y2507115D02*
D03*
X303380Y3668425D02*
D03*
X645000Y3629689D02*
D03*
X436753Y3637518D02*
D03*
X417200Y3516700D02*
D03*
X507200Y3840028D02*
D03*
X600000Y3370000D02*
D03*
X419988Y3404883D02*
D03*
X442498Y3343906D02*
D03*
X439000Y3279000D02*
D03*
X443903Y3175871D02*
D03*
X442339Y3110891D02*
D03*
X1722096Y3527904D02*
D03*
X1408043Y3356043D02*
D03*
X1299561Y3493839D02*
D03*
X1095600Y1153000D02*
D03*
X890000Y1016000D02*
D03*
X606000Y531000D02*
D03*
X303000Y693000D02*
D03*
X3280160Y761000D02*
D03*
X2469453Y1414953D02*
D03*
X2292938Y1562535D02*
D03*
X2272000Y1501000D02*
D03*
X1537454Y2159500D02*
D03*
X1489315Y2505315D02*
D03*
X1178000Y3349000D02*
D03*
X1297828Y3250000D02*
D03*
X1483149Y3223058D02*
D03*
X754183Y3429967D02*
D03*
X-110000Y3201000D02*
D03*
X-105000Y3294000D02*
D03*
X2719000Y487000D02*
D03*
X2154000Y153000D02*
D03*
X1050000Y654000D02*
D03*
X3012000Y822000D02*
D03*
X2911000Y794000D02*
D03*
X2490000Y488321D02*
D03*
X3026000Y354000D02*
D03*
X2491205Y1850606D02*
D03*
X3006000Y569000D02*
D03*
X3353000Y242000D02*
D03*
X200000Y162000D02*
D03*
X1879286Y491849D02*
D03*
X1625397Y183080D02*
D03*
X191420Y901338D02*
D03*
X472440Y162560D02*
D03*
X467500Y1029078D02*
D03*
X2880000Y1570000D02*
D03*
X1030000Y3780000D02*
D03*
X586000Y3184650D02*
D03*
X2130000Y500000D02*
D03*
X2090000Y3620000D02*
D03*
X1153160Y172720D02*
D03*
X2293087Y2157276D02*
D03*
X889000Y563880D02*
D03*
X669816Y198863D02*
D03*
X1188900Y554309D02*
D03*
X1344413Y484815D02*
D03*
X2680000Y2220000D02*
D03*
X1016000Y172720D02*
D03*
X340000Y780000D02*
D03*
X440620Y1130086D02*
D03*
X1559094Y3399553D02*
D03*
X1655700Y3212200D02*
D03*
X721000Y603000D02*
D03*
X1890000Y3510000D02*
D03*
X1822100Y3648100D02*
D03*
X1790446Y3372866D02*
D03*
X1779997Y3099994D02*
D03*
X1940000Y3593000D02*
D03*
D77*
X2441395Y1145571D02*
G03*
X2425770Y1187671I-64531J0D01*
G01*
X2214735Y1486591D02*
G03*
X2221858Y1469812I57265J14409D01*
G01*
X2198621Y1559381D02*
G03*
X2201420Y1539508I94317J3154D01*
G01*
X2441395Y635605D02*
Y1145413D01*
X2441395Y1145571D02*
X2441395Y1145413D01*
X2442200Y642800D01*
X2441395Y635605D02*
X2937000Y140000D01*
X2323335Y1306665D02*
X2425770Y1187671D01*
X2221858Y1469812D02*
X2323335Y1306665D01*
X2201420Y1539508D02*
X2214735Y1486591D01*
X2188043Y1875705D02*
X2198620Y1559381D01*
%TF.MD5,1ab894ec9e8c31aac18090316c4b67a7*%
M02*
