%TF.GenerationSoftware,Altium Limited,Altium Designer,21.4.1 (30)*%
G04 Layer_Color=255*
%FSLAX45Y45*%
%MOMM*%
%TF.SameCoordinates,F4A6E2B2-E63A-418B-8CEE-B9A354165880*%
%TF.FilePolarity,Positive*%
%TF.FileFunction,Pads,Top*%
%TF.Part,Single*%
G01*
G75*
%TA.AperFunction,SMDPad,CuDef*%
%ADD14R,0.65000X0.90000*%
%ADD15R,0.75000X0.70000*%
%ADD16R,0.75000X0.65000*%
%ADD17R,0.75001X0.65000*%
%ADD18R,0.70000X0.80000*%
%ADD19R,0.65000X0.80000*%
%ADD20R,0.60000X0.40000*%
%ADD21C,0.30000*%
%ADD22R,0.40000X0.60000*%
%TA.AperFunction,ConnectorPad*%
%ADD23R,0.80000X0.30000*%
%ADD24R,0.80000X0.40000*%
%TA.AperFunction,SMDPad,CuDef*%
%ADD25R,0.80000X0.40000*%
%ADD26R,0.80000X0.30000*%
%ADD27R,2.00000X1.00000*%
%ADD28R,0.80000X0.75000*%
%ADD29R,0.80000X0.70000*%
%ADD30R,0.52000X0.52000*%
%ADD31R,0.50000X0.52000*%
%ADD32R,0.80000X0.80000*%
%ADD33R,0.52000X0.50000*%
%ADD34R,0.60000X0.90000*%
%ADD35R,2.20000X1.05000*%
%ADD36R,1.05000X1.00000*%
%ADD37R,0.52000X0.52000*%
%ADD38R,0.70000X1.50000*%
%TA.AperFunction,BGAPad,CuDef*%
%ADD39C,0.60000*%
%TA.AperFunction,SMDPad,CuDef*%
%ADD40R,0.60000X0.60000*%
%ADD41R,1.50000X1.50000*%
%ADD42R,0.45000X0.55000*%
%ADD43R,0.72000X0.76000*%
%ADD44R,0.65000X0.75001*%
%ADD45R,0.65000X0.75000*%
%ADD46R,0.70000X0.75000*%
%ADD47R,0.87500X0.25000*%
%ADD48R,0.25000X0.87500*%
%ADD49C,1.50000*%
%ADD50R,1.40000X0.75000*%
%ADD51O,0.25000X1.40000*%
%ADD52O,1.40000X0.25000*%
%ADD53C,1.00000*%
%TA.AperFunction,ComponentPad*%
%ADD66C,0.63000*%
%ADD67O,1.35200X0.75200*%
%ADD68O,1.24000X0.75200*%
%ADD69R,1.30000X1.30000*%
%ADD70C,1.30000*%
%ADD71C,0.70000*%
%ADD72C,1.25000*%
%ADD73C,1.50000*%
%ADD74R,1.50000X1.50000*%
%TA.AperFunction,WasherPad*%
%ADD75C,2.50000*%
D14*
X519998Y3090000D02*
D03*
X614999D02*
D03*
X710000D02*
D03*
Y3330000D02*
D03*
X519998D02*
D03*
D15*
X1196354Y1940560D02*
D03*
D16*
Y1813560D02*
D03*
D17*
Y2051685D02*
D03*
D18*
X1092500Y2209300D02*
D03*
X1227500D02*
D03*
X1742440Y1649140D02*
D03*
X1607440D02*
D03*
X467500Y1910000D02*
D03*
X332500D02*
D03*
X1607400Y1170000D02*
D03*
X1742400D02*
D03*
D19*
X592500Y3710000D02*
D03*
X727500D02*
D03*
X526860Y3517900D02*
D03*
X661860D02*
D03*
D20*
X2325080Y353399D02*
D03*
Y283399D02*
D03*
X2415080D02*
D03*
Y353399D02*
D03*
D21*
X2370080Y78399D02*
D03*
X3320000Y2145960D02*
D03*
D22*
X3045000Y2190960D02*
D03*
X3115000D02*
D03*
Y2100960D02*
D03*
X3045000D02*
D03*
D23*
X3110000Y861000D02*
D03*
Y811000D02*
D03*
Y761000D02*
D03*
Y711000D02*
D03*
Y661000D02*
D03*
Y611000D02*
D03*
D24*
X3360000Y511000D02*
D03*
Y961000D02*
D03*
D25*
Y75000D02*
D03*
Y425000D02*
D03*
D26*
X3110000Y175000D02*
D03*
Y225000D02*
D03*
Y275000D02*
D03*
Y325000D02*
D03*
D27*
X2800200Y381000D02*
D03*
Y635000D02*
D03*
Y889000D02*
D03*
Y1143000D02*
D03*
Y1397000D02*
D03*
D28*
X2241520Y747499D02*
D03*
Y612499D02*
D03*
D29*
X2390000Y747500D02*
D03*
Y612500D02*
D03*
X915529Y3165884D02*
D03*
Y3030884D02*
D03*
D30*
X2504300Y627319D02*
D03*
Y707319D02*
D03*
X1306099Y415000D02*
D03*
Y335000D02*
D03*
X763243Y415000D02*
D03*
Y335000D02*
D03*
X1088956D02*
D03*
Y415000D02*
D03*
X980385Y415000D02*
D03*
Y335000D02*
D03*
D31*
X327000Y1097500D02*
D03*
X243000D02*
D03*
X573209Y2900674D02*
D03*
X489209D02*
D03*
X115600Y3297400D02*
D03*
X199600D02*
D03*
X114900Y3186500D02*
D03*
X198900D02*
D03*
X227000Y813000D02*
D03*
X143000D02*
D03*
X207000Y351000D02*
D03*
X123000D02*
D03*
X308000Y350000D02*
D03*
X392000D02*
D03*
X198700Y3521700D02*
D03*
X114700D02*
D03*
X199500Y3408500D02*
D03*
X115500D02*
D03*
X327600Y1596800D02*
D03*
X243600D02*
D03*
X243001Y1685700D02*
D03*
X327001D02*
D03*
X243000Y1195086D02*
D03*
X327000D02*
D03*
Y1000000D02*
D03*
X243000D02*
D03*
X2183000Y1775000D02*
D03*
X2267000D02*
D03*
Y1675000D02*
D03*
X2183000D02*
D03*
D32*
X592300Y3824500D02*
D03*
X752300D02*
D03*
D33*
X1088955Y695000D02*
D03*
Y779000D02*
D03*
X654671D02*
D03*
Y695000D02*
D03*
X871814Y333000D02*
D03*
Y417000D02*
D03*
X1306097Y779000D02*
D03*
Y695000D02*
D03*
X546100Y779000D02*
D03*
Y695000D02*
D03*
X980384Y779000D02*
D03*
Y695000D02*
D03*
X763242Y779000D02*
D03*
Y695000D02*
D03*
X1197528Y417000D02*
D03*
Y333000D02*
D03*
D34*
X137500Y656940D02*
D03*
Y506940D02*
D03*
X232500D02*
D03*
Y656940D02*
D03*
D35*
X3300000Y3787500D02*
D03*
Y3492500D02*
D03*
Y1482500D02*
D03*
Y1777500D02*
D03*
D36*
X3147500Y3640000D02*
D03*
Y1630000D02*
D03*
D37*
X3190004Y1925496D02*
D03*
X3110003D02*
D03*
X860000Y3413760D02*
D03*
X940000D02*
D03*
Y3771900D02*
D03*
X860000D02*
D03*
X1597640Y1519478D02*
D03*
X1677640D02*
D03*
X360000Y1790000D02*
D03*
X440000D02*
D03*
X1597640Y1401800D02*
D03*
X1677640D02*
D03*
X325000Y1487714D02*
D03*
X245000D02*
D03*
X1597640Y1290000D02*
D03*
X1677640D02*
D03*
X245000Y1390171D02*
D03*
X325000D02*
D03*
X2427600Y1050000D02*
D03*
X2347600D02*
D03*
X2249800D02*
D03*
X2169800D02*
D03*
X738501Y983301D02*
D03*
X658501D02*
D03*
X997500Y983302D02*
D03*
X1077500D02*
D03*
D38*
X1920200Y3773000D02*
D03*
X1810200D02*
D03*
X1700200D02*
D03*
X1590200D02*
D03*
X1480200D02*
D03*
X1370200D02*
D03*
X1260200D02*
D03*
X1150200D02*
D03*
Y2373000D02*
D03*
X1260200D02*
D03*
X1370200D02*
D03*
X1480200D02*
D03*
X1590200D02*
D03*
X1700200D02*
D03*
X1810200D02*
D03*
X1920200D02*
D03*
D39*
X1840200Y3298000D02*
D03*
Y3148000D02*
D03*
Y2998000D02*
D03*
Y2848000D02*
D03*
X1720200Y3298000D02*
D03*
Y3148000D02*
D03*
Y2998000D02*
D03*
Y2848000D02*
D03*
X1600200Y3298000D02*
D03*
Y3148000D02*
D03*
Y2998000D02*
D03*
Y2848000D02*
D03*
X1480200Y3298000D02*
D03*
Y3148000D02*
D03*
Y2998000D02*
D03*
Y2848000D02*
D03*
X1360200Y3298000D02*
D03*
Y3148000D02*
D03*
Y2998000D02*
D03*
Y2848000D02*
D03*
X1240200Y3298000D02*
D03*
Y3148000D02*
D03*
Y2998000D02*
D03*
Y2848000D02*
D03*
X1840200Y3448000D02*
D03*
Y2698000D02*
D03*
X1120200Y3298000D02*
D03*
Y3148000D02*
D03*
Y2998000D02*
D03*
Y2848000D02*
D03*
X1720200Y2698000D02*
D03*
X1600200D02*
D03*
X1480200D02*
D03*
X1360200D02*
D03*
X1240200D02*
D03*
X1120200D02*
D03*
X1720200Y3448000D02*
D03*
X1600200D02*
D03*
X1480200D02*
D03*
X1360200D02*
D03*
X1240200D02*
D03*
X1120200D02*
D03*
X1360200Y2548000D02*
D03*
X1240200D02*
D03*
D40*
X1120200D02*
D03*
D41*
X2040200Y3410500D02*
D03*
Y3185500D02*
D03*
Y2960500D02*
D03*
Y2735500D02*
D03*
D42*
X240000Y1292629D02*
D03*
X330000D02*
D03*
D43*
X1197526Y688000D02*
D03*
Y786000D02*
D03*
X871813Y688000D02*
D03*
Y786000D02*
D03*
X546100Y326000D02*
D03*
Y424000D02*
D03*
X654671Y326000D02*
D03*
Y424000D02*
D03*
D44*
X679875Y2900680D02*
D03*
D45*
X918000D02*
D03*
D46*
X791000D02*
D03*
D47*
X2449320Y1355000D02*
D03*
X2171920D02*
D03*
X2449320Y1205000D02*
D03*
Y1255000D02*
D03*
Y1305000D02*
D03*
X2171920D02*
D03*
Y1255000D02*
D03*
Y1205000D02*
D03*
D48*
X2260620Y1166300D02*
D03*
X2310620D02*
D03*
X2360620D02*
D03*
X2260620Y1393700D02*
D03*
X2360620D02*
D03*
X2310620D02*
D03*
D49*
X1729097Y120420D02*
D03*
D50*
X900000Y3520500D02*
D03*
Y3665500D02*
D03*
D51*
X688100Y1170001D02*
D03*
X738100D02*
D03*
X788100D02*
D03*
X838100D02*
D03*
X888100D02*
D03*
X938100D02*
D03*
X988100D02*
D03*
X1038100D02*
D03*
Y1790001D02*
D03*
X988100D02*
D03*
X938100D02*
D03*
X888100D02*
D03*
X838100D02*
D03*
X788100D02*
D03*
X738100D02*
D03*
X688100D02*
D03*
D52*
X1173100Y1305001D02*
D03*
Y1355001D02*
D03*
Y1405002D02*
D03*
Y1455001D02*
D03*
Y1505002D02*
D03*
Y1555001D02*
D03*
Y1605001D02*
D03*
Y1655002D02*
D03*
X553100D02*
D03*
Y1605001D02*
D03*
Y1555001D02*
D03*
Y1505002D02*
D03*
Y1455001D02*
D03*
Y1405002D02*
D03*
Y1355001D02*
D03*
Y1305001D02*
D03*
D53*
X1042499Y2001133D02*
D03*
D66*
X450000Y3009000D02*
D03*
Y3729000D02*
D03*
D67*
X60000Y2920000D02*
D03*
Y3818000D02*
D03*
D68*
X300000D02*
D03*
Y2920000D02*
D03*
D69*
X584200Y2072000D02*
D03*
D70*
Y2580000D02*
D03*
Y2326000D02*
D03*
D71*
X2370080Y148399D02*
D03*
X3250000Y2145960D02*
D03*
D72*
X1442500Y2120901D02*
D03*
X1955000Y2120900D02*
D03*
X119300Y2562601D02*
D03*
Y2308600D02*
D03*
Y2054600D02*
D03*
X1955000Y88900D02*
D03*
X1447000D02*
D03*
Y1104900D02*
D03*
Y596900D02*
D03*
X1955000Y1612900D02*
D03*
X1447000D02*
D03*
X1955000Y1104900D02*
D03*
Y596900D02*
D03*
X373300Y2054600D02*
D03*
Y2562600D02*
D03*
X372300Y2304401D02*
D03*
D73*
X2937000Y140000D02*
D03*
D74*
X2683000D02*
D03*
D75*
X3251200Y3092800D02*
D03*
Y1200000D02*
D03*
%TF.MD5,56573545dc206a48d6d5accec60d6c1b*%
M02*
