%TF.GenerationSoftware,Altium Limited,Altium Designer,21.4.1 (30)*%
G04 Layer_Color=0*
%FSLAX45Y45*%
%MOMM*%
%TF.SameCoordinates,F4A6E2B2-E63A-418B-8CEE-B9A354165880*%
%TF.FilePolarity,Positive*%
%TF.FileFunction,Profile,NP*%
%TF.Part,Single*%
G01*
G75*
%TA.AperFunction,Profile*%
%ADD139C,0.02540*%
G36*
X-71462Y1328887D02*
Y1318053D01*
X-67235Y1296801D01*
X-58942Y1276783D01*
X-46904Y1258766D01*
X-31583Y1243445D01*
X-13566Y1231406D01*
X6452Y1223114D01*
X27704Y1218887D01*
X38538D01*
X49372D01*
X70624Y1223114D01*
X90643Y1231406D01*
X108659Y1243445D01*
X123981Y1258766D01*
X136019Y1276783D01*
X144311Y1296801D01*
X148538Y1318053D01*
Y1328887D01*
Y1339721D01*
X144311Y1360973D01*
X136019Y1380992D01*
X123981Y1399008D01*
X108659Y1414330D01*
X90643Y1426368D01*
X70624Y1434660D01*
X49372Y1438887D01*
X38538D01*
X27704D01*
X6452Y1434660D01*
X-13566Y1426368D01*
X-31583Y1414330D01*
X-46904Y1399008D01*
X-58942Y1380992D01*
X-67235Y1360973D01*
X-71462Y1339721D01*
Y1328887D01*
D01*
D02*
G37*
D139*
X3465013Y10021D02*
X3469974Y3880018D01*
D02*
G03*
X3459991Y3890027I-9982J26D01*
G01*
X-219984D01*
D02*
G03*
X-230000Y3879984I21J-10038D01*
G01*
X-230000Y2870000D01*
D02*
G03*
X-220000Y2860000I9997J-3D01*
G01*
X-9990Y2860000D01*
D02*
G02*
X-18Y2850010I4J-9967D01*
G01*
X-5000Y-10000D01*
X3454979Y-29D01*
D02*
G03*
X3465013Y10021I-29J10062D01*
G01*
%TF.MD5,d6b8e0825085bae4b68e8aa4ecbce85a*%
M02*
