%TF.GenerationSoftware,Altium Limited,Altium Designer,21.4.1 (30)*%
G04 Layer_Color=128*
%FSLAX45Y45*%
%MOMM*%
%TF.SameCoordinates,F4A6E2B2-E63A-418B-8CEE-B9A354165880*%
%TF.FilePolarity,Positive*%
%TF.FileFunction,Drillmap*%
%TF.Part,Single*%
G01*
G75*
%TA.AperFunction,NonConductor*%
%ADD103C,0.12700*%
D103*
X418500Y3009000D02*
X481500D01*
X450000Y2977500D02*
Y3040500D01*
X418500Y3729000D02*
X481500D01*
X450000Y3697500D02*
Y3760500D01*
X35000Y2920000D02*
X85000D01*
X60000Y2895000D02*
Y2945000D01*
X35000Y3818000D02*
X85000D01*
X60000Y3793000D02*
Y3843000D01*
X275000Y3818000D02*
X325000D01*
X300000Y3793000D02*
Y3843000D01*
X275000Y2920000D02*
X325000D01*
X300000Y2895000D02*
Y2945000D01*
X544200Y2072000D02*
X624200D01*
X584200Y2032000D02*
Y2112000D01*
X544200Y2580000D02*
X624200D01*
X584200Y2540000D02*
Y2620000D01*
X544200Y2326000D02*
X624200D01*
X584200Y2286000D02*
Y2366000D01*
X2335080Y148399D02*
X2405080D01*
X2370080Y113399D02*
Y183399D01*
X3215000Y2145960D02*
X3285000D01*
X3250000Y2110960D02*
Y2180960D01*
X1397500Y2120901D02*
X1487500D01*
X1442500Y2075901D02*
Y2165901D01*
X1910000Y2120900D02*
X2000000D01*
X1955000Y2075900D02*
Y2165900D01*
X2887000Y140000D02*
X2987000D01*
X2937000Y90000D02*
Y190000D01*
X2633000Y140000D02*
X2733000D01*
X2683000Y90000D02*
Y190000D01*
X3138700Y3092800D02*
X3363700D01*
X3251200Y2980300D02*
Y3205300D01*
X3138700Y1200000D02*
X3363700D01*
X3251200Y1087500D02*
Y1312500D01*
X74300Y2562601D02*
X164300D01*
X119300Y2517601D02*
Y2607601D01*
X74300Y2308600D02*
X164300D01*
X119300Y2263600D02*
Y2353600D01*
X74300Y2054600D02*
X164300D01*
X119300Y2009600D02*
Y2099600D01*
X1910000Y88900D02*
X2000000D01*
X1955000Y43900D02*
Y133900D01*
X1402000Y88900D02*
X1492000D01*
X1447000Y43900D02*
Y133900D01*
X1402000Y1104900D02*
X1492000D01*
X1447000Y1059900D02*
Y1149900D01*
X1402000Y596900D02*
X1492000D01*
X1447000Y551900D02*
Y641900D01*
X1910000Y1612900D02*
X2000000D01*
X1955000Y1567900D02*
Y1657900D01*
X1402000Y1612900D02*
X1492000D01*
X1447000Y1567900D02*
Y1657900D01*
X1910000Y1104900D02*
X2000000D01*
X1955000Y1059900D02*
Y1149900D01*
X1910000Y596900D02*
X2000000D01*
X1955000Y551900D02*
Y641900D01*
X328300Y2054600D02*
X418300D01*
X373300Y2009600D02*
Y2099600D01*
X328300Y2562600D02*
X418300D01*
X373300Y2517600D02*
Y2607600D01*
X327300Y2304401D02*
X417300D01*
X372300Y2259401D02*
Y2349401D01*
X2692907Y1046123D02*
X2708107D01*
X2700507Y1038523D02*
Y1053723D01*
X2757700Y1051300D02*
X2772900D01*
X2765300Y1043700D02*
Y1058900D01*
X2803935Y995114D02*
X2819135D01*
X2811535Y987514D02*
Y1002714D01*
X2715746Y1269079D02*
X2730946D01*
X2723346Y1261479D02*
Y1276679D01*
X1887700Y946000D02*
X1902900D01*
X1895300Y938400D02*
Y953600D01*
X2336100Y887800D02*
X2351300D01*
X2343700Y880200D02*
Y895400D01*
X2772600Y747875D02*
X2787800D01*
X2780200Y740275D02*
Y755475D01*
X2234800Y819600D02*
X2250000D01*
X2242400Y812000D02*
Y827200D01*
X2174289Y979000D02*
X2189488D01*
X2181888Y971400D02*
Y986600D01*
X1786383Y694146D02*
X1801582D01*
X1793982Y686546D02*
Y701746D01*
X1721408Y692328D02*
X1736608D01*
X1729008Y684728D02*
Y699928D01*
X1771640Y2150527D02*
X1786840D01*
X1779240Y2142927D02*
Y2158126D01*
X941564Y1557589D02*
X956764D01*
X949164Y1549989D02*
Y1565189D01*
X467500Y757538D02*
X482700D01*
X475100Y749939D02*
Y765138D01*
X561889Y2987254D02*
X577089D01*
X569489Y2979654D02*
Y2994854D01*
X1018915Y3167701D02*
X1034115D01*
X1026515Y3160101D02*
Y3175301D01*
X2647600Y1398800D02*
X2662800D01*
X2655200Y1391200D02*
Y1406400D01*
X3225600Y270400D02*
X3240800D01*
X3233200Y262800D02*
Y278000D01*
X2007400Y1314000D02*
X2022600D01*
X2015000Y1306400D02*
Y1321600D01*
X985520Y1647821D02*
X1000720D01*
X993120Y1640222D02*
Y1655421D01*
X1323815Y1509100D02*
X1339015D01*
X1331415Y1501500D02*
Y1516700D01*
X1052426Y2959135D02*
X1067626D01*
X1060026Y2951535D02*
Y2966735D01*
X696751Y3201626D02*
X711951D01*
X704351Y3194026D02*
Y3209226D01*
X416855Y2853589D02*
X432055D01*
X424455Y2845989D02*
Y2861189D01*
X2995400Y704000D02*
X3010600D01*
X3003000Y696400D02*
Y711600D01*
X1883129Y2538329D02*
X1898329D01*
X1890729Y2530730D02*
Y2545929D01*
X1650389Y3070258D02*
X1665589D01*
X1657989Y3062658D02*
Y3077858D01*
X1579400Y3225000D02*
X1594600D01*
X1587000Y3217400D02*
Y3232600D01*
X1743470Y2578611D02*
X1758670D01*
X1751070Y2571011D02*
Y2586211D01*
X1600775Y2534882D02*
X1615975D01*
X1608375Y2527282D02*
Y2542482D01*
X2606400Y656000D02*
X2621600D01*
X2614000Y648400D02*
Y663600D01*
X1196360Y985520D02*
X1211560D01*
X1203960Y977920D02*
Y993120D01*
X858500Y1410300D02*
X873700D01*
X866100Y1402700D02*
Y1417900D01*
X2315400Y814000D02*
X2330600D01*
X2323000Y806400D02*
Y821600D01*
X929240Y1445036D02*
X944440D01*
X936840Y1437436D02*
Y1452636D01*
X2075581Y1034031D02*
X2090781D01*
X2083181Y1026432D02*
Y1041631D01*
X576700Y1944215D02*
X591900D01*
X584300Y1936615D02*
Y1951815D01*
X1286400Y1952100D02*
X1301600D01*
X1294000Y1944500D02*
Y1959700D01*
X1275640Y1772633D02*
X1290840D01*
X1283240Y1765033D02*
Y1780233D01*
X1041910Y3408343D02*
X1057109D01*
X1049509Y3400743D02*
Y3415943D01*
X921028Y3342308D02*
X936228D01*
X928628Y3334708D02*
Y3349908D01*
X1076073Y3228856D02*
X1091273D01*
X1083673Y3221256D02*
Y3236456D01*
X1188400Y3248099D02*
X1203600D01*
X1196000Y3240499D02*
Y3255699D01*
X1021501Y1484430D02*
X1036701D01*
X1029101Y1476830D02*
Y1492030D01*
X1275632Y506768D02*
X1290832D01*
X1283232Y499168D02*
Y514368D01*
X883455Y951008D02*
X898655D01*
X891055Y943408D02*
Y958608D01*
X3033400Y981000D02*
X3048600D01*
X3041000Y973400D02*
Y988600D01*
X3072400Y917000D02*
X3087600D01*
X3080000Y909400D02*
Y924600D01*
X3132400Y3470000D02*
X3147600D01*
X3140000Y3462400D02*
Y3477600D01*
X3067398Y2274842D02*
X3082598D01*
X3074998Y2267242D02*
Y2282442D01*
X589392Y3444000D02*
X604592D01*
X596992Y3436400D02*
Y3451600D01*
X651350Y1914050D02*
X666550D01*
X658950Y1906450D02*
Y1921650D01*
X824311Y1646089D02*
X839511D01*
X831911Y1638489D02*
Y1653689D01*
X930400Y2677000D02*
X945600D01*
X938000Y2669400D02*
Y2684600D01*
X852400Y275000D02*
X867600D01*
X860000Y267400D02*
Y282600D01*
X1151900Y2135300D02*
X1167100D01*
X1159500Y2127700D02*
Y2142900D01*
X1297321Y2100021D02*
X1312521D01*
X1304921Y2092421D02*
Y2107621D01*
X1007400Y2428000D02*
X1022600D01*
X1015000Y2420400D02*
Y2435600D01*
X1521400Y2052700D02*
X1536600D01*
X1529000Y2045100D02*
Y2060300D01*
X1519840Y1676427D02*
X1535040D01*
X1527440Y1668827D02*
Y1684027D01*
X2591075Y1862666D02*
X2606275D01*
X2598675Y1855066D02*
Y1870266D01*
X827000Y2587407D02*
X842199D01*
X834600Y2579807D02*
Y2595007D01*
X1176943Y2614156D02*
X1192143D01*
X1184543Y2606556D02*
Y2621756D01*
X2180443Y1875705D02*
X2195643D01*
X2188043Y1868105D02*
Y1883305D01*
X1773246Y1739997D02*
X1788446D01*
X1780846Y1732397D02*
Y1747597D01*
X1716406Y2639336D02*
X1731606D01*
X1724006Y2631736D02*
Y2646936D01*
X1360720Y3073441D02*
X1375920D01*
X1368320Y3065841D02*
Y3081041D01*
X736386Y882200D02*
X751586D01*
X743986Y874600D02*
Y889800D01*
X589902Y3294369D02*
X605102D01*
X597502Y3286769D02*
Y3301969D01*
X1375759Y3655090D02*
X1390959D01*
X1383359Y3647490D02*
Y3662690D01*
X1488200Y3655090D02*
X1503400D01*
X1495800Y3647490D02*
Y3662690D01*
X1531400Y2949192D02*
X1546600D01*
X1539000Y2941592D02*
Y2956792D01*
X1452400Y2606850D02*
X1467600D01*
X1460000Y2599250D02*
Y2614450D01*
X1562400Y2616000D02*
X1577600D01*
X1570000Y2608400D02*
Y2623600D01*
X1261953Y2617017D02*
X1277153D01*
X1269553Y2609417D02*
Y2624617D01*
X1409167Y2507115D02*
X1424367D01*
X1416767Y2499515D02*
Y2514715D01*
X295780Y3668425D02*
X310980D01*
X303380Y3660825D02*
Y3676025D01*
X637400Y3629689D02*
X652600D01*
X645000Y3622089D02*
Y3637289D01*
X429153Y3637518D02*
X444353D01*
X436753Y3629918D02*
Y3645118D01*
X409600Y3516700D02*
X424800D01*
X417200Y3509100D02*
Y3524300D01*
X499600Y3840028D02*
X514800D01*
X507200Y3832428D02*
Y3847628D01*
X592400Y3370000D02*
X607600D01*
X600000Y3362400D02*
Y3377600D01*
X412388Y3404883D02*
X427588D01*
X419988Y3397283D02*
Y3412483D01*
X434898Y3343906D02*
X450098D01*
X442498Y3336306D02*
Y3351506D01*
X431400Y3279000D02*
X446600D01*
X439000Y3271400D02*
Y3286600D01*
X436303Y3175871D02*
X451503D01*
X443903Y3168272D02*
Y3183471D01*
X434739Y3110891D02*
X449939D01*
X442339Y3103291D02*
Y3118491D01*
X1714496Y3527904D02*
X1729696D01*
X1722096Y3520304D02*
Y3535504D01*
X1400443Y3356043D02*
X1415643D01*
X1408043Y3348443D02*
Y3363643D01*
X1291961Y3493839D02*
X1307161D01*
X1299561Y3486239D02*
Y3501439D01*
X1088000Y1153000D02*
X1103200D01*
X1095600Y1145400D02*
Y1160600D01*
X882400Y1016000D02*
X897600D01*
X890000Y1008400D02*
Y1023600D01*
X598400Y531000D02*
X613600D01*
X606000Y523400D02*
Y538600D01*
X295400Y693000D02*
X310600D01*
X303000Y685400D02*
Y700600D01*
X3272560Y761000D02*
X3287760D01*
X3280160Y753400D02*
Y768600D01*
X2461853Y1414953D02*
X2477052D01*
X2469453Y1407353D02*
Y1422553D01*
X2285338Y1562535D02*
X2300538D01*
X2292938Y1554935D02*
Y1570135D01*
X2264400Y1501000D02*
X2279600D01*
X2272000Y1493400D02*
Y1508600D01*
X1529854Y2159500D02*
X1545054D01*
X1537454Y2151900D02*
Y2167100D01*
X1481715Y2505315D02*
X1496915D01*
X1489315Y2497715D02*
Y2512915D01*
X1170400Y3349000D02*
X1185600D01*
X1178000Y3341400D02*
Y3356600D01*
X1290228Y3250000D02*
X1305428D01*
X1297828Y3242400D02*
Y3257600D01*
X1475549Y3223058D02*
X1490749D01*
X1483149Y3215458D02*
Y3230658D01*
X746583Y3429967D02*
X761783D01*
X754183Y3422367D02*
Y3437567D01*
X-117600Y3201000D02*
X-102400D01*
X-110000Y3193400D02*
Y3208600D01*
X-112600Y3294000D02*
X-97400D01*
X-105000Y3286400D02*
Y3301600D01*
X2711400Y487000D02*
X2726600D01*
X2719000Y479400D02*
Y494600D01*
X2146400Y153000D02*
X2161600D01*
X2154000Y145400D02*
Y160600D01*
X1042400Y654000D02*
X1057600D01*
X1050000Y646400D02*
Y661600D01*
X3004400Y822000D02*
X3019600D01*
X3012000Y814400D02*
Y829600D01*
X2903400Y794000D02*
X2918600D01*
X2911000Y786400D02*
Y801600D01*
X2482400Y488321D02*
X2497600D01*
X2490000Y480721D02*
Y495921D01*
X3018400Y354000D02*
X3033600D01*
X3026000Y346400D02*
Y361600D01*
X2483605Y1850606D02*
X2498805D01*
X2491205Y1843006D02*
Y1858206D01*
X2998400Y569000D02*
X3013600D01*
X3006000Y561400D02*
Y576600D01*
X3345400Y242000D02*
X3360600D01*
X3353000Y234400D02*
Y249600D01*
X192400Y162000D02*
X207600D01*
X200000Y154400D02*
Y169600D01*
X1871686Y491849D02*
X1886886D01*
X1879286Y484249D02*
Y499449D01*
X1617797Y183080D02*
X1632997D01*
X1625397Y175480D02*
Y190680D01*
X183820Y901338D02*
X199020D01*
X191420Y893738D02*
Y908938D01*
X464840Y162560D02*
X480040D01*
X472440Y154960D02*
Y170160D01*
X459900Y1029078D02*
X475100D01*
X467500Y1021478D02*
Y1036678D01*
X2872400Y1570000D02*
X2887600D01*
X2880000Y1562400D02*
Y1577600D01*
X1022400Y3780000D02*
X1037600D01*
X1030000Y3772400D02*
Y3787600D01*
X578400Y3184650D02*
X593600D01*
X586000Y3177051D02*
Y3192250D01*
X2122400Y500000D02*
X2137600D01*
X2130000Y492400D02*
Y507600D01*
X2082400Y3620000D02*
X2097600D01*
X2090000Y3612400D02*
Y3627600D01*
X1145560Y172720D02*
X1160760D01*
X1153160Y165120D02*
Y180320D01*
X2285487Y2157276D02*
X2300687D01*
X2293087Y2149676D02*
Y2164876D01*
X881400Y563880D02*
X896600D01*
X889000Y556280D02*
Y571480D01*
X662216Y198863D02*
X677416D01*
X669816Y191264D02*
Y206463D01*
X1181300Y554309D02*
X1196500D01*
X1188900Y546709D02*
Y561909D01*
X1336813Y484815D02*
X1352013D01*
X1344413Y477215D02*
Y492415D01*
X2672400Y2220000D02*
X2687600D01*
X2680000Y2212400D02*
Y2227600D01*
X1008400Y172720D02*
X1023600D01*
X1016000Y165120D02*
Y180320D01*
X332400Y780000D02*
X347600D01*
X340000Y772400D02*
Y787600D01*
X433020Y1130086D02*
X448220D01*
X440620Y1122486D02*
Y1137686D01*
X1551494Y3399553D02*
X1566694D01*
X1559094Y3391953D02*
Y3407152D01*
X1648100Y3212200D02*
X1663300D01*
X1655700Y3204600D02*
Y3219800D01*
X713400Y603000D02*
X728600D01*
X721000Y595400D02*
Y610600D01*
X1882400Y3510000D02*
X1897600D01*
X1890000Y3502400D02*
Y3517600D01*
X1814500Y3648100D02*
X1829700D01*
X1822100Y3640500D02*
Y3655700D01*
X1782846Y3372866D02*
X1798046D01*
X1790446Y3365266D02*
Y3380466D01*
X1772397Y3099994D02*
X1787597D01*
X1779997Y3092394D02*
Y3107593D01*
X1932400Y3593000D02*
X1947600D01*
X1940000Y3585400D02*
Y3600600D01*
%TF.MD5,182952f672aa8ac008e6a19c0894cc55*%
M02*
