%TF.GenerationSoftware,Altium Limited,Altium Designer,21.8.1 (53)*%
G04 Layer_Color=65535*
%FSLAX45Y45*%
%MOMM*%
%TF.SameCoordinates,7374835A-4B4A-4399-96A1-91FF428CB2AC*%
%TF.FilePolarity,Positive*%
%TF.FileFunction,Legend,Top*%
%TF.Part,Single*%
G01*
G75*
%TA.AperFunction,NonConductor*%
%ADD19C,0.33020*%
%ADD20C,0.20000*%
%ADD24C,0.15240*%
G36*
X528349Y223124D02*
X452022D01*
X452149Y222870D01*
X452657Y222362D01*
X453546Y221346D01*
X454562Y220076D01*
X455832Y218425D01*
X457229Y216393D01*
X458753Y214234D01*
X460277Y211694D01*
Y211567D01*
X460404Y211440D01*
X460658Y211059D01*
X460912Y210551D01*
X461674Y209154D01*
X462563Y207503D01*
X463579Y205598D01*
X464595Y203439D01*
X465611Y201280D01*
X466500Y199121D01*
X454816D01*
Y199248D01*
X454562Y199629D01*
X454308Y200137D01*
X453927Y200772D01*
X453546Y201661D01*
X452911Y202677D01*
X451641Y205090D01*
X449990Y207757D01*
X447958Y210805D01*
X445799Y213726D01*
X443386Y216647D01*
X443259Y216774D01*
X443132Y217028D01*
X442751Y217409D01*
X442243Y217917D01*
X440973Y219187D01*
X439195Y220838D01*
X437290Y222489D01*
X435004Y224267D01*
X432718Y225918D01*
X430305Y227315D01*
Y235062D01*
X528349D01*
Y223124D01*
D02*
G37*
G36*
X500282Y173594D02*
X501425D01*
X502822Y173467D01*
X504219Y173340D01*
X507267Y172959D01*
X510442Y172451D01*
X513490Y171689D01*
X515014Y171181D01*
X516284Y170673D01*
X516411D01*
X516538Y170546D01*
X516919Y170419D01*
X517427Y170165D01*
X518570Y169403D01*
X520094Y168387D01*
X521745Y167117D01*
X523396Y165466D01*
X525047Y163561D01*
X526571Y161275D01*
Y161148D01*
X526698Y161021D01*
X526825Y160640D01*
X527079Y160132D01*
X527714Y158862D01*
X528222Y156957D01*
X528857Y154798D01*
X529492Y152258D01*
X529873Y149337D01*
X530000Y146162D01*
Y144892D01*
X529873Y144003D01*
X529746Y142987D01*
X529619Y141717D01*
X529365Y140320D01*
X529111Y138923D01*
X528222Y135748D01*
X527587Y134097D01*
X526825Y132446D01*
X526063Y130795D01*
X525047Y129271D01*
X523904Y127874D01*
X522634Y126477D01*
X522507Y126350D01*
X522253Y126223D01*
X521872Y125842D01*
X521237Y125461D01*
X520475Y124953D01*
X519586Y124318D01*
X518443Y123683D01*
X517173Y123048D01*
X515649Y122540D01*
X513998Y121905D01*
X512220Y121397D01*
X510315Y120889D01*
X508156Y120508D01*
X505870Y120127D01*
X503457Y120000D01*
X500790D01*
X499139Y131684D01*
X499266D01*
X499647D01*
X500155D01*
X500917Y131811D01*
X501806Y131938D01*
X502822Y132065D01*
X505235Y132319D01*
X507775Y132827D01*
X510315Y133589D01*
X512601Y134478D01*
X513490Y135113D01*
X514379Y135748D01*
X514506Y135875D01*
X515014Y136510D01*
X515649Y137272D01*
X516411Y138542D01*
X517173Y139939D01*
X517808Y141717D01*
X518316Y143876D01*
X518443Y146162D01*
Y146924D01*
X518316Y147940D01*
X518189Y149083D01*
X517935Y150353D01*
X517554Y151750D01*
X517046Y153147D01*
X516284Y154544D01*
X516157Y154671D01*
X515903Y155179D01*
X515395Y155687D01*
X514633Y156449D01*
X513744Y157338D01*
X512728Y158100D01*
X511585Y158862D01*
X510188Y159370D01*
X510061Y159497D01*
X509426Y159624D01*
X508537Y159878D01*
X507267Y160132D01*
X505489Y160386D01*
X503457Y160513D01*
X500917Y160767D01*
X497996D01*
X430686D01*
Y173721D01*
X497234D01*
X497361D01*
X497742D01*
X498377D01*
X499266D01*
X500282Y173594D01*
D02*
G37*
G36*
X3026349Y1435031D02*
X2975515D01*
X2975599Y1434862D01*
X2975938Y1434524D01*
X2976530Y1433847D01*
X2977206Y1433001D01*
X2978052Y1431902D01*
X2978983Y1430548D01*
X2979998Y1429110D01*
X2981013Y1427419D01*
Y1427334D01*
X2981097Y1427250D01*
X2981266Y1426996D01*
X2981435Y1426658D01*
X2981943Y1425727D01*
X2982535Y1424628D01*
X2983212Y1423359D01*
X2983888Y1421921D01*
X2984565Y1420483D01*
X2985157Y1419045D01*
X2977376D01*
Y1419130D01*
X2977206Y1419383D01*
X2977037Y1419722D01*
X2976783Y1420145D01*
X2976530Y1420737D01*
X2976107Y1421413D01*
X2975261Y1423021D01*
X2974161Y1424797D01*
X2972808Y1426827D01*
X2971370Y1428772D01*
X2969763Y1430717D01*
X2969679Y1430802D01*
X2969594Y1430971D01*
X2969340Y1431225D01*
X2969002Y1431563D01*
X2968156Y1432409D01*
X2966972Y1433509D01*
X2965703Y1434608D01*
X2964181Y1435792D01*
X2962658Y1436892D01*
X2961051Y1437822D01*
Y1442982D01*
X3026349D01*
Y1435031D01*
D02*
G37*
G36*
Y1397054D02*
X3012900Y1388511D01*
X3012815D01*
X3012646Y1388342D01*
X3012308Y1388173D01*
X3011970Y1387919D01*
X3011462Y1387581D01*
X3010870Y1387158D01*
X3009601Y1386312D01*
X3008163Y1385297D01*
X3006726Y1384282D01*
X3005288Y1383267D01*
X3004019Y1382252D01*
X3003850Y1382167D01*
X3003511Y1381829D01*
X3002919Y1381406D01*
X3002327Y1380814D01*
X3001566Y1380137D01*
X3000805Y1379376D01*
X3000213Y1378615D01*
X2999621Y1377854D01*
X2999536Y1377769D01*
X2999451Y1377515D01*
X2999198Y1377177D01*
X2998944Y1376670D01*
X2998606Y1376078D01*
X2998352Y1375401D01*
X2997844Y1373963D01*
Y1373878D01*
X2997760Y1373709D01*
Y1373371D01*
X2997675Y1372863D01*
X2997591Y1372187D01*
Y1371341D01*
X2997506Y1370411D01*
Y1359246D01*
X3026349D01*
Y1350618D01*
X2961305D01*
Y1380899D01*
X2961390Y1381660D01*
Y1382421D01*
X2961474Y1383352D01*
X2961559Y1384367D01*
X2961728Y1386481D01*
X2962066Y1388680D01*
X2962489Y1390795D01*
X2962743Y1391810D01*
X2963081Y1392656D01*
Y1392740D01*
X2963166Y1392825D01*
X2963250Y1393078D01*
X2963420Y1393417D01*
X2963842Y1394263D01*
X2964519Y1395278D01*
X2965365Y1396462D01*
X2966464Y1397646D01*
X2967818Y1398830D01*
X2969340Y1399930D01*
X2969425D01*
X2969509Y1400014D01*
X2969763Y1400183D01*
X2970102Y1400353D01*
X2971032Y1400775D01*
X2972216Y1401283D01*
X2973654Y1401790D01*
X2975346Y1402213D01*
X2977206Y1402552D01*
X2979152Y1402636D01*
X2979236D01*
X2979490D01*
X2979828D01*
X2980336Y1402552D01*
X2980928Y1402467D01*
X2981605Y1402383D01*
X2983212Y1402044D01*
X2985073Y1401537D01*
X2987018Y1400775D01*
X2987948Y1400268D01*
X2988963Y1399676D01*
X2989894Y1398915D01*
X2990824Y1398153D01*
X2990909Y1398069D01*
X2990993Y1397984D01*
X2991247Y1397646D01*
X2991585Y1397308D01*
X2991924Y1396800D01*
X2992347Y1396208D01*
X2992854Y1395531D01*
X2993362Y1394770D01*
X2993869Y1393840D01*
X2994377Y1392825D01*
X2994884Y1391641D01*
X2995392Y1390372D01*
X2995814Y1389019D01*
X2996237Y1387581D01*
X2996576Y1385974D01*
X2996829Y1384282D01*
X2996914Y1384451D01*
X2997083Y1384874D01*
X2997421Y1385466D01*
X2997844Y1386227D01*
X2998944Y1387919D01*
X2999536Y1388680D01*
X3000128Y1389441D01*
Y1389526D01*
X3000297Y1389611D01*
X3000720Y1390118D01*
X3001481Y1390795D01*
X3002496Y1391810D01*
X3003681Y1392909D01*
X3005203Y1394093D01*
X3006895Y1395362D01*
X3008755Y1396631D01*
X3026349Y1407880D01*
Y1397054D01*
D02*
G37*
G36*
X2842522Y1449542D02*
X2791688D01*
X2791772Y1449373D01*
X2792111Y1449035D01*
X2792703Y1448358D01*
X2793379Y1447512D01*
X2794225Y1446413D01*
X2795156Y1445059D01*
X2796171Y1443621D01*
X2797186Y1441930D01*
Y1441845D01*
X2797270Y1441761D01*
X2797439Y1441507D01*
X2797609Y1441169D01*
X2798116Y1440238D01*
X2798708Y1439139D01*
X2799385Y1437870D01*
X2800061Y1436432D01*
X2800738Y1434994D01*
X2801330Y1433556D01*
X2793549D01*
Y1433641D01*
X2793379Y1433895D01*
X2793210Y1434233D01*
X2792957Y1434656D01*
X2792703Y1435248D01*
X2792280Y1435924D01*
X2791434Y1437532D01*
X2790335Y1439308D01*
X2788981Y1441338D01*
X2787543Y1443283D01*
X2785936Y1445229D01*
X2785852Y1445313D01*
X2785767Y1445482D01*
X2785513Y1445736D01*
X2785175Y1446074D01*
X2784329Y1446920D01*
X2783145Y1448020D01*
X2781876Y1449119D01*
X2780354Y1450303D01*
X2778831Y1451403D01*
X2777224Y1452333D01*
Y1457493D01*
X2842522D01*
Y1449542D01*
D02*
G37*
G36*
X2822391Y1419938D02*
X2822983Y1419769D01*
X2823744Y1419600D01*
X2824590Y1419262D01*
X2825605Y1418839D01*
X2826705Y1418416D01*
X2827974Y1417824D01*
X2829242Y1417232D01*
X2830596Y1416471D01*
X2831864Y1415709D01*
X2833218Y1414779D01*
X2834571Y1413849D01*
X2835840Y1412749D01*
X2837024Y1411565D01*
X2838123Y1410296D01*
X2838208Y1410212D01*
X2838377Y1409958D01*
X2838631Y1409619D01*
X2838969Y1409027D01*
X2839392Y1408351D01*
X2839900Y1407505D01*
X2840322Y1406575D01*
X2840830Y1405560D01*
X2841422Y1404291D01*
X2841845Y1403022D01*
X2842352Y1401584D01*
X2842775Y1400062D01*
X2843114Y1398455D01*
X2843367Y1396763D01*
X2843537Y1394987D01*
X2843621Y1393126D01*
Y1392111D01*
X2843537Y1391350D01*
X2843452Y1390504D01*
X2843367Y1389404D01*
X2843283Y1388305D01*
X2843114Y1387036D01*
X2842606Y1384329D01*
X2841845Y1381454D01*
X2841337Y1380016D01*
X2840745Y1378578D01*
X2840153Y1377225D01*
X2839392Y1375956D01*
X2839308Y1375871D01*
X2839223Y1375702D01*
X2838969Y1375364D01*
X2838546Y1374856D01*
X2838123Y1374349D01*
X2837616Y1373672D01*
X2836939Y1372995D01*
X2836178Y1372234D01*
X2835417Y1371388D01*
X2834486Y1370627D01*
X2833471Y1369781D01*
X2832287Y1368936D01*
X2831103Y1368090D01*
X2829834Y1367328D01*
X2828396Y1366567D01*
X2826959Y1365891D01*
X2826874D01*
X2826620Y1365721D01*
X2826113Y1365552D01*
X2825521Y1365383D01*
X2824759Y1365129D01*
X2823914Y1364791D01*
X2822899Y1364537D01*
X2821714Y1364199D01*
X2820446Y1363861D01*
X2819092Y1363607D01*
X2817655Y1363269D01*
X2816217Y1363015D01*
X2812918Y1362676D01*
X2809535Y1362507D01*
X2809450D01*
X2809112D01*
X2808520D01*
X2807843Y1362592D01*
X2806913D01*
X2805898Y1362676D01*
X2804798Y1362846D01*
X2803529Y1363015D01*
X2802176Y1363184D01*
X2800738Y1363438D01*
X2797778Y1364114D01*
X2794817Y1365045D01*
X2793295Y1365637D01*
X2791857Y1366313D01*
X2791772Y1366398D01*
X2791519Y1366483D01*
X2791096Y1366736D01*
X2790588Y1367075D01*
X2789996Y1367413D01*
X2789235Y1367921D01*
X2788474Y1368513D01*
X2787543Y1369189D01*
X2785683Y1370712D01*
X2783822Y1372657D01*
X2781961Y1374856D01*
X2781115Y1376125D01*
X2780354Y1377394D01*
X2780269Y1377478D01*
X2780185Y1377732D01*
X2780016Y1378155D01*
X2779762Y1378662D01*
X2779423Y1379339D01*
X2779085Y1380100D01*
X2778747Y1381031D01*
X2778324Y1382046D01*
X2777986Y1383230D01*
X2777647Y1384414D01*
X2776971Y1387121D01*
X2776548Y1390081D01*
X2776378Y1391604D01*
Y1394141D01*
X2776463Y1394818D01*
X2776548Y1395663D01*
X2776632Y1396678D01*
X2776801Y1397778D01*
X2776971Y1398962D01*
X2777563Y1401500D01*
X2777986Y1402853D01*
X2778493Y1404291D01*
X2779085Y1405644D01*
X2779677Y1406997D01*
X2780523Y1408351D01*
X2781369Y1409619D01*
X2781453Y1409704D01*
X2781623Y1409873D01*
X2781876Y1410296D01*
X2782299Y1410719D01*
X2782807Y1411227D01*
X2783399Y1411903D01*
X2784160Y1412580D01*
X2785006Y1413341D01*
X2785936Y1414102D01*
X2786951Y1414864D01*
X2788135Y1415625D01*
X2789320Y1416386D01*
X2790673Y1417147D01*
X2792111Y1417824D01*
X2793718Y1418501D01*
X2795325Y1419008D01*
X2797355Y1410550D01*
X2797270D01*
X2797017Y1410465D01*
X2796678Y1410296D01*
X2796171Y1410127D01*
X2795579Y1409873D01*
X2794902Y1409619D01*
X2793379Y1408858D01*
X2791688Y1407928D01*
X2789996Y1406828D01*
X2788389Y1405475D01*
X2787712Y1404714D01*
X2787036Y1403952D01*
Y1403868D01*
X2786867Y1403783D01*
X2786698Y1403530D01*
X2786528Y1403191D01*
X2786275Y1402768D01*
X2786021Y1402261D01*
X2785344Y1400992D01*
X2784752Y1399385D01*
X2784245Y1397524D01*
X2783906Y1395410D01*
X2783737Y1393041D01*
Y1392280D01*
X2783822Y1391773D01*
Y1391181D01*
X2783906Y1390419D01*
X2784075Y1389574D01*
X2784160Y1388643D01*
X2784583Y1386698D01*
X2785260Y1384583D01*
X2786190Y1382469D01*
X2786698Y1381454D01*
X2787374Y1380439D01*
Y1380354D01*
X2787543Y1380185D01*
X2787712Y1379931D01*
X2788051Y1379593D01*
X2788812Y1378747D01*
X2789912Y1377732D01*
X2791265Y1376548D01*
X2792957Y1375364D01*
X2794817Y1374264D01*
X2797017Y1373418D01*
X2797101D01*
X2797270Y1373334D01*
X2797609Y1373249D01*
X2798031Y1373080D01*
X2798624Y1372911D01*
X2799300Y1372742D01*
X2800061Y1372573D01*
X2800823Y1372403D01*
X2802768Y1372065D01*
X2804883Y1371727D01*
X2807166Y1371473D01*
X2809535Y1371388D01*
X2809619D01*
X2809873D01*
X2810296D01*
X2810888D01*
X2811649Y1371473D01*
X2812495Y1371558D01*
X2813425D01*
X2814440Y1371727D01*
X2816724Y1371980D01*
X2819092Y1372403D01*
X2821630Y1372995D01*
X2823998Y1373757D01*
X2824083D01*
X2824252Y1373841D01*
X2824590Y1374010D01*
X2825013Y1374264D01*
X2825521Y1374518D01*
X2826113Y1374772D01*
X2827466Y1375618D01*
X2828988Y1376717D01*
X2830511Y1377986D01*
X2831949Y1379508D01*
X2833218Y1381285D01*
Y1381369D01*
X2833387Y1381538D01*
X2833471Y1381792D01*
X2833725Y1382215D01*
X2833894Y1382638D01*
X2834148Y1383230D01*
X2834740Y1384583D01*
X2835332Y1386275D01*
X2835755Y1388136D01*
X2836093Y1390166D01*
X2836263Y1392365D01*
Y1393041D01*
X2836178Y1393549D01*
X2836093Y1394226D01*
X2836009Y1394902D01*
X2835924Y1395748D01*
X2835755Y1396594D01*
X2835248Y1398539D01*
X2834486Y1400569D01*
X2834063Y1401669D01*
X2833471Y1402684D01*
X2832879Y1403699D01*
X2832118Y1404629D01*
X2832033Y1404714D01*
X2831949Y1404883D01*
X2831695Y1405137D01*
X2831357Y1405475D01*
X2830934Y1405813D01*
X2830342Y1406321D01*
X2829750Y1406828D01*
X2828988Y1407336D01*
X2828227Y1407928D01*
X2827297Y1408520D01*
X2826282Y1409027D01*
X2825182Y1409619D01*
X2823914Y1410127D01*
X2822645Y1410634D01*
X2821292Y1411057D01*
X2819769Y1411480D01*
X2821968Y1420108D01*
X2822053D01*
X2822391Y1419938D01*
D02*
G37*
G36*
X2778353Y1824369D02*
X2778184D01*
X2777846D01*
X2777338D01*
X2776577Y1824454D01*
X2775731Y1824538D01*
X2774801Y1824707D01*
X2773870Y1824961D01*
X2772856Y1825299D01*
X2772771D01*
X2772686Y1825384D01*
X2772433Y1825469D01*
X2772094Y1825638D01*
X2771248Y1825976D01*
X2770149Y1826568D01*
X2768796Y1827329D01*
X2767358Y1828175D01*
X2765835Y1829275D01*
X2764228Y1830543D01*
X2764144Y1830628D01*
X2764059Y1830713D01*
X2763805Y1830966D01*
X2763467Y1831220D01*
X2762537Y1832066D01*
X2761352Y1833250D01*
X2759914Y1834688D01*
X2758223Y1836464D01*
X2756362Y1838579D01*
X2754332Y1841032D01*
X2754247Y1841116D01*
X2753909Y1841455D01*
X2753486Y1842047D01*
X2752894Y1842723D01*
X2752133Y1843569D01*
X2751287Y1844584D01*
X2750357Y1845684D01*
X2749342Y1846783D01*
X2747143Y1849151D01*
X2744859Y1851520D01*
X2743675Y1852619D01*
X2742575Y1853634D01*
X2741560Y1854565D01*
X2740545Y1855326D01*
X2740461Y1855411D01*
X2740291Y1855495D01*
X2740038Y1855664D01*
X2739699Y1855918D01*
X2739192Y1856172D01*
X2738684Y1856510D01*
X2737416Y1857271D01*
X2735978Y1857948D01*
X2734371Y1858540D01*
X2732594Y1858963D01*
X2731749Y1859132D01*
X2730903D01*
X2730818D01*
X2730649D01*
X2730480D01*
X2730142Y1859048D01*
X2729211Y1858963D01*
X2728112Y1858709D01*
X2726843Y1858286D01*
X2725574Y1857694D01*
X2724221Y1856848D01*
X2722952Y1855664D01*
X2722783Y1855495D01*
X2722445Y1855072D01*
X2721937Y1854311D01*
X2721260Y1853296D01*
X2720668Y1852027D01*
X2720161Y1850505D01*
X2719823Y1848729D01*
X2719653Y1846783D01*
Y1846191D01*
X2719738Y1845853D01*
Y1845345D01*
X2719823Y1844753D01*
X2720076Y1843485D01*
X2720499Y1842047D01*
X2721091Y1840440D01*
X2721937Y1838917D01*
X2723121Y1837564D01*
X2723290Y1837395D01*
X2723713Y1837056D01*
X2724559Y1836464D01*
X2725574Y1835872D01*
X2727012Y1835195D01*
X2728619Y1834603D01*
X2730480Y1834265D01*
X2732679Y1834096D01*
X2731833Y1825891D01*
X2731749D01*
X2731410Y1825976D01*
X2730987D01*
X2730311Y1826061D01*
X2729550Y1826230D01*
X2728704Y1826399D01*
X2727689Y1826653D01*
X2726674Y1826991D01*
X2724390Y1827752D01*
X2723206Y1828260D01*
X2722106Y1828852D01*
X2720922Y1829528D01*
X2719823Y1830290D01*
X2718808Y1831136D01*
X2717877Y1832151D01*
X2717793Y1832235D01*
X2717708Y1832404D01*
X2717454Y1832743D01*
X2717116Y1833165D01*
X2716778Y1833758D01*
X2716355Y1834434D01*
X2715932Y1835195D01*
X2715424Y1836126D01*
X2715001Y1837141D01*
X2714579Y1838240D01*
X2714156Y1839425D01*
X2713817Y1840778D01*
X2713479Y1842131D01*
X2713225Y1843654D01*
X2713141Y1845261D01*
X2713056Y1846952D01*
Y1847883D01*
X2713141Y1848475D01*
X2713225Y1849321D01*
X2713310Y1850251D01*
X2713479Y1851266D01*
X2713733Y1852366D01*
X2714325Y1854734D01*
X2714748Y1855918D01*
X2715255Y1857187D01*
X2715847Y1858456D01*
X2716608Y1859640D01*
X2717370Y1860739D01*
X2718300Y1861839D01*
X2718385Y1861923D01*
X2718554Y1862093D01*
X2718808Y1862346D01*
X2719231Y1862685D01*
X2719738Y1863108D01*
X2720330Y1863615D01*
X2721007Y1864038D01*
X2721853Y1864630D01*
X2722698Y1865137D01*
X2723713Y1865560D01*
X2725913Y1866491D01*
X2727097Y1866829D01*
X2728365Y1867083D01*
X2729719Y1867252D01*
X2731157Y1867337D01*
X2731326D01*
X2731833D01*
X2732594Y1867252D01*
X2733609Y1867167D01*
X2734709Y1866914D01*
X2736062Y1866660D01*
X2737416Y1866237D01*
X2738854Y1865730D01*
X2739023Y1865645D01*
X2739530Y1865391D01*
X2740291Y1865053D01*
X2741222Y1864461D01*
X2742406Y1863700D01*
X2743759Y1862769D01*
X2745282Y1861670D01*
X2746804Y1860401D01*
X2746889D01*
X2746973Y1860232D01*
X2747227Y1859978D01*
X2747565Y1859724D01*
X2747988Y1859301D01*
X2748496Y1858794D01*
X2749088Y1858202D01*
X2749765Y1857441D01*
X2750526Y1856679D01*
X2751372Y1855749D01*
X2752387Y1854734D01*
X2753402Y1853634D01*
X2754501Y1852366D01*
X2755601Y1851097D01*
X2756870Y1849574D01*
X2758223Y1848052D01*
X2758307Y1847967D01*
X2758477Y1847714D01*
X2758815Y1847375D01*
X2759153Y1846868D01*
X2759661Y1846360D01*
X2760253Y1845684D01*
X2761522Y1844246D01*
X2762875Y1842639D01*
X2764228Y1841116D01*
X2764820Y1840440D01*
X2765412Y1839847D01*
X2766004Y1839255D01*
X2766427Y1838832D01*
X2766512Y1838748D01*
X2766766Y1838494D01*
X2767189Y1838156D01*
X2767781Y1837648D01*
X2768373Y1837141D01*
X2769134Y1836549D01*
X2770656Y1835449D01*
Y1867421D01*
X2778353D01*
Y1824369D01*
D02*
G37*
G36*
X2758223Y1818025D02*
X2758815Y1817856D01*
X2759576Y1817687D01*
X2760422Y1817349D01*
X2761437Y1816926D01*
X2762537Y1816503D01*
X2763805Y1815911D01*
X2765074Y1815319D01*
X2766427Y1814557D01*
X2767696Y1813796D01*
X2769049Y1812866D01*
X2770403Y1811935D01*
X2771671Y1810836D01*
X2772856Y1809652D01*
X2773955Y1808383D01*
X2774040Y1808298D01*
X2774209Y1808045D01*
X2774463Y1807706D01*
X2774801Y1807114D01*
X2775224Y1806438D01*
X2775731Y1805592D01*
X2776154Y1804661D01*
X2776662Y1803646D01*
X2777254Y1802378D01*
X2777677Y1801109D01*
X2778184Y1799671D01*
X2778607Y1798149D01*
X2778945Y1796541D01*
X2779199Y1794850D01*
X2779368Y1793074D01*
X2779453Y1791213D01*
Y1790198D01*
X2779368Y1789437D01*
X2779284Y1788591D01*
X2779199Y1787491D01*
X2779115Y1786392D01*
X2778945Y1785123D01*
X2778438Y1782416D01*
X2777677Y1779541D01*
X2777169Y1778103D01*
X2776577Y1776665D01*
X2775985Y1775311D01*
X2775224Y1774043D01*
X2775139Y1773958D01*
X2775055Y1773789D01*
X2774801Y1773451D01*
X2774378Y1772943D01*
X2773955Y1772436D01*
X2773448Y1771759D01*
X2772771Y1771082D01*
X2772010Y1770321D01*
X2771248Y1769475D01*
X2770318Y1768714D01*
X2769303Y1767868D01*
X2768119Y1767022D01*
X2766935Y1766177D01*
X2765666Y1765415D01*
X2764228Y1764654D01*
X2762790Y1763977D01*
X2762706D01*
X2762452Y1763808D01*
X2761944Y1763639D01*
X2761352Y1763470D01*
X2760591Y1763216D01*
X2759745Y1762878D01*
X2758730Y1762624D01*
X2757546Y1762286D01*
X2756277Y1761947D01*
X2754924Y1761694D01*
X2753486Y1761355D01*
X2752048Y1761102D01*
X2748750Y1760763D01*
X2745366Y1760594D01*
X2745282D01*
X2744943D01*
X2744351D01*
X2743675Y1760679D01*
X2742744D01*
X2741729Y1760763D01*
X2740630Y1760932D01*
X2739361Y1761102D01*
X2738008Y1761271D01*
X2736570Y1761525D01*
X2733609Y1762201D01*
X2730649Y1763132D01*
X2729127Y1763724D01*
X2727689Y1764400D01*
X2727604Y1764485D01*
X2727350Y1764569D01*
X2726927Y1764823D01*
X2726420Y1765162D01*
X2725828Y1765500D01*
X2725067Y1766007D01*
X2724305Y1766599D01*
X2723375Y1767276D01*
X2721514Y1768799D01*
X2719653Y1770744D01*
X2717793Y1772943D01*
X2716947Y1774212D01*
X2716186Y1775481D01*
X2716101Y1775565D01*
X2716016Y1775819D01*
X2715847Y1776242D01*
X2715594Y1776749D01*
X2715255Y1777426D01*
X2714917Y1778187D01*
X2714579Y1779118D01*
X2714156Y1780133D01*
X2713817Y1781317D01*
X2713479Y1782501D01*
X2712802Y1785208D01*
X2712379Y1788168D01*
X2712210Y1789690D01*
Y1792228D01*
X2712295Y1792904D01*
X2712379Y1793750D01*
X2712464Y1794765D01*
X2712633Y1795865D01*
X2712802Y1797049D01*
X2713394Y1799586D01*
X2713817Y1800940D01*
X2714325Y1802378D01*
X2714917Y1803731D01*
X2715509Y1805084D01*
X2716355Y1806438D01*
X2717201Y1807706D01*
X2717285Y1807791D01*
X2717454Y1807960D01*
X2717708Y1808383D01*
X2718131Y1808806D01*
X2718638Y1809313D01*
X2719231Y1809990D01*
X2719992Y1810667D01*
X2720838Y1811428D01*
X2721768Y1812189D01*
X2722783Y1812950D01*
X2723967Y1813712D01*
X2725151Y1814473D01*
X2726505Y1815234D01*
X2727942Y1815911D01*
X2729550Y1816587D01*
X2731157Y1817095D01*
X2733187Y1808637D01*
X2733102D01*
X2732848Y1808552D01*
X2732510Y1808383D01*
X2732002Y1808214D01*
X2731410Y1807960D01*
X2730734Y1807706D01*
X2729211Y1806945D01*
X2727520Y1806015D01*
X2725828Y1804915D01*
X2724221Y1803562D01*
X2723544Y1802801D01*
X2722868Y1802039D01*
Y1801955D01*
X2722698Y1801870D01*
X2722529Y1801616D01*
X2722360Y1801278D01*
X2722106Y1800855D01*
X2721853Y1800348D01*
X2721176Y1799079D01*
X2720584Y1797472D01*
X2720076Y1795611D01*
X2719738Y1793497D01*
X2719569Y1791128D01*
Y1790367D01*
X2719653Y1789860D01*
Y1789267D01*
X2719738Y1788506D01*
X2719907Y1787660D01*
X2719992Y1786730D01*
X2720415Y1784785D01*
X2721091Y1782670D01*
X2722022Y1780555D01*
X2722529Y1779541D01*
X2723206Y1778526D01*
Y1778441D01*
X2723375Y1778272D01*
X2723544Y1778018D01*
X2723883Y1777680D01*
X2724644Y1776834D01*
X2725743Y1775819D01*
X2727097Y1774635D01*
X2728788Y1773451D01*
X2730649Y1772351D01*
X2732848Y1771505D01*
X2732933D01*
X2733102Y1771421D01*
X2733440Y1771336D01*
X2733863Y1771167D01*
X2734455Y1770998D01*
X2735132Y1770829D01*
X2735893Y1770659D01*
X2736654Y1770490D01*
X2738600Y1770152D01*
X2740714Y1769814D01*
X2742998Y1769560D01*
X2745366Y1769475D01*
X2745451D01*
X2745705D01*
X2746128D01*
X2746720D01*
X2747481Y1769560D01*
X2748327Y1769644D01*
X2749257D01*
X2750272Y1769814D01*
X2752556Y1770067D01*
X2754924Y1770490D01*
X2757462Y1771082D01*
X2759830Y1771844D01*
X2759914D01*
X2760084Y1771928D01*
X2760422Y1772097D01*
X2760845Y1772351D01*
X2761352Y1772605D01*
X2761944Y1772859D01*
X2763298Y1773704D01*
X2764820Y1774804D01*
X2766343Y1776073D01*
X2767781Y1777595D01*
X2769049Y1779371D01*
Y1779456D01*
X2769218Y1779625D01*
X2769303Y1779879D01*
X2769557Y1780302D01*
X2769726Y1780725D01*
X2769980Y1781317D01*
X2770572Y1782670D01*
X2771164Y1784362D01*
X2771587Y1786222D01*
X2771925Y1788252D01*
X2772094Y1790452D01*
Y1791128D01*
X2772010Y1791636D01*
X2771925Y1792312D01*
X2771841Y1792989D01*
X2771756Y1793835D01*
X2771587Y1794681D01*
X2771079Y1796626D01*
X2770318Y1798656D01*
X2769895Y1799756D01*
X2769303Y1800771D01*
X2768711Y1801786D01*
X2767950Y1802716D01*
X2767865Y1802801D01*
X2767781Y1802970D01*
X2767527Y1803223D01*
X2767189Y1803562D01*
X2766766Y1803900D01*
X2766174Y1804408D01*
X2765581Y1804915D01*
X2764820Y1805423D01*
X2764059Y1806015D01*
X2763129Y1806607D01*
X2762114Y1807114D01*
X2761014Y1807706D01*
X2759745Y1808214D01*
X2758477Y1808721D01*
X2757123Y1809144D01*
X2755601Y1809567D01*
X2757800Y1818194D01*
X2757885D01*
X2758223Y1818025D01*
D02*
G37*
G36*
X2913067Y1437846D02*
X2913829Y1437761D01*
X2914674Y1437592D01*
X2915605Y1437423D01*
X2916620Y1437169D01*
X2917719Y1436831D01*
X2918903Y1436408D01*
X2920088Y1435900D01*
X2921356Y1435308D01*
X2922541Y1434547D01*
X2923809Y1433701D01*
X2924993Y1432771D01*
X2926093Y1431671D01*
X2926178Y1431587D01*
X2926347Y1431418D01*
X2926600Y1431079D01*
X2927023Y1430572D01*
X2927446Y1429980D01*
X2927954Y1429218D01*
X2928461Y1428373D01*
X2928969Y1427442D01*
X2929561Y1426343D01*
X2930068Y1425158D01*
X2930576Y1423890D01*
X2930999Y1422452D01*
X2931422Y1421014D01*
X2931675Y1419407D01*
X2931845Y1417800D01*
X2931929Y1416024D01*
Y1415178D01*
X2931845Y1414586D01*
X2931760Y1413909D01*
X2931675Y1413063D01*
X2931506Y1412048D01*
X2931252Y1411033D01*
X2930660Y1408834D01*
X2930237Y1407650D01*
X2929815Y1406466D01*
X2929222Y1405197D01*
X2928546Y1404013D01*
X2927785Y1402913D01*
X2926854Y1401814D01*
X2926770Y1401729D01*
X2926600Y1401560D01*
X2926347Y1401306D01*
X2925924Y1400883D01*
X2925416Y1400460D01*
X2924824Y1399953D01*
X2924063Y1399446D01*
X2923302Y1398853D01*
X2922371Y1398346D01*
X2921356Y1397754D01*
X2920257Y1397246D01*
X2919073Y1396739D01*
X2917804Y1396231D01*
X2916535Y1395893D01*
X2915097Y1395555D01*
X2913575Y1395386D01*
X2912475Y1403336D01*
X2912560D01*
X2912814Y1403421D01*
X2913152Y1403505D01*
X2913575Y1403590D01*
X2914167Y1403759D01*
X2914759Y1403928D01*
X2916281Y1404436D01*
X2917888Y1405028D01*
X2919496Y1405874D01*
X2921103Y1406804D01*
X2921779Y1407312D01*
X2922371Y1407904D01*
X2922456Y1408073D01*
X2922794Y1408496D01*
X2923302Y1409172D01*
X2923809Y1410187D01*
X2924401Y1411372D01*
X2924824Y1412725D01*
X2925163Y1414332D01*
X2925332Y1416024D01*
Y1416616D01*
X2925247Y1416954D01*
Y1417461D01*
X2925163Y1418054D01*
X2924824Y1419322D01*
X2924401Y1420845D01*
X2923725Y1422452D01*
X2922710Y1424059D01*
X2922118Y1424820D01*
X2921441Y1425581D01*
X2921356Y1425666D01*
X2921272Y1425751D01*
X2921018Y1425920D01*
X2920764Y1426173D01*
X2919918Y1426850D01*
X2918734Y1427527D01*
X2917381Y1428203D01*
X2915689Y1428880D01*
X2913829Y1429303D01*
X2912814Y1429472D01*
X2911799D01*
X2911714D01*
X2911545D01*
X2911291D01*
X2910868Y1429388D01*
X2910445D01*
X2909853Y1429303D01*
X2908584Y1429049D01*
X2907147Y1428626D01*
X2905624Y1427950D01*
X2904186Y1427019D01*
X2903425Y1426512D01*
X2902748Y1425835D01*
X2902579Y1425666D01*
X2902156Y1425158D01*
X2901649Y1424397D01*
X2900972Y1423382D01*
X2900295Y1422029D01*
X2899788Y1420506D01*
X2899365Y1418730D01*
X2899196Y1416700D01*
Y1415770D01*
X2899280Y1415178D01*
X2899365Y1414332D01*
X2899534Y1413317D01*
X2899788Y1412217D01*
X2900042Y1411033D01*
X2893021Y1411964D01*
Y1412133D01*
X2893106Y1412387D01*
X2893191Y1412809D01*
Y1413740D01*
X2893106Y1414078D01*
X2893021Y1415093D01*
X2892852Y1416277D01*
X2892514Y1417715D01*
X2892091Y1419238D01*
X2891414Y1420845D01*
X2890569Y1422367D01*
Y1422452D01*
X2890399Y1422536D01*
X2890061Y1423044D01*
X2889384Y1423721D01*
X2888539Y1424482D01*
X2887354Y1425243D01*
X2885917Y1425835D01*
X2884225Y1426343D01*
X2883294Y1426427D01*
X2882279Y1426512D01*
X2882195D01*
X2882110D01*
X2881518Y1426427D01*
X2880757Y1426343D01*
X2879742Y1426173D01*
X2878642Y1425751D01*
X2877458Y1425243D01*
X2876190Y1424482D01*
X2875090Y1423467D01*
X2874921Y1423298D01*
X2874583Y1422959D01*
X2874160Y1422283D01*
X2873568Y1421437D01*
X2873060Y1420337D01*
X2872553Y1418984D01*
X2872214Y1417546D01*
X2872130Y1415854D01*
Y1415432D01*
X2872214Y1415093D01*
X2872299Y1414163D01*
X2872468Y1413063D01*
X2872891Y1411879D01*
X2873398Y1410526D01*
X2874075Y1409257D01*
X2875090Y1407988D01*
X2875259Y1407819D01*
X2875597Y1407481D01*
X2876274Y1406973D01*
X2877289Y1406381D01*
X2878473Y1405705D01*
X2879996Y1405028D01*
X2881772Y1404520D01*
X2883802Y1404098D01*
X2882364Y1396147D01*
X2882279D01*
X2882026Y1396231D01*
X2881603Y1396316D01*
X2881011Y1396485D01*
X2880419Y1396654D01*
X2879573Y1396908D01*
X2878727Y1397162D01*
X2877797Y1397500D01*
X2875851Y1398431D01*
X2873821Y1399530D01*
X2871791Y1400968D01*
X2870861Y1401814D01*
X2870015Y1402744D01*
X2869931Y1402829D01*
X2869846Y1402998D01*
X2869592Y1403252D01*
X2869338Y1403675D01*
X2869000Y1404182D01*
X2868577Y1404774D01*
X2868154Y1405535D01*
X2867731Y1406297D01*
X2867393Y1407227D01*
X2866970Y1408157D01*
X2866209Y1410357D01*
X2865701Y1412894D01*
X2865617Y1414247D01*
X2865532Y1415685D01*
Y1416616D01*
X2865617Y1417039D01*
Y1417631D01*
X2865786Y1418899D01*
X2866124Y1420422D01*
X2866463Y1422029D01*
X2867055Y1423721D01*
X2867816Y1425412D01*
Y1425497D01*
X2867901Y1425581D01*
X2868070Y1425835D01*
X2868239Y1426173D01*
X2868746Y1426935D01*
X2869423Y1427950D01*
X2870353Y1429049D01*
X2871453Y1430233D01*
X2872637Y1431333D01*
X2874075Y1432263D01*
X2874160D01*
X2874244Y1432348D01*
X2874752Y1432686D01*
X2875597Y1433025D01*
X2876612Y1433532D01*
X2877881Y1433955D01*
X2879319Y1434378D01*
X2880842Y1434632D01*
X2882449Y1434716D01*
X2882533D01*
X2882618D01*
X2883125D01*
X2883971Y1434632D01*
X2884986Y1434462D01*
X2886170Y1434124D01*
X2887439Y1433786D01*
X2888792Y1433194D01*
X2890146Y1432432D01*
X2890315Y1432348D01*
X2890738Y1432010D01*
X2891330Y1431502D01*
X2892091Y1430741D01*
X2893021Y1429810D01*
X2893952Y1428626D01*
X2894798Y1427273D01*
X2895643Y1425751D01*
Y1425835D01*
X2895728Y1426004D01*
X2895813Y1426343D01*
X2895897Y1426681D01*
X2896066Y1427188D01*
X2896320Y1427780D01*
X2896828Y1429049D01*
X2897589Y1430487D01*
X2898604Y1431925D01*
X2899788Y1433447D01*
X2901226Y1434716D01*
X2901310D01*
X2901395Y1434885D01*
X2901649Y1435055D01*
X2901987Y1435224D01*
X2902410Y1435477D01*
X2902833Y1435731D01*
X2904102Y1436323D01*
X2905624Y1436915D01*
X2907400Y1437423D01*
X2909346Y1437761D01*
X2911629Y1437930D01*
X2911714D01*
X2911968D01*
X2912475D01*
X2913067Y1437846D01*
D02*
G37*
G36*
X2910699Y1387858D02*
X2911291Y1387689D01*
X2912052Y1387519D01*
X2912898Y1387181D01*
X2913913Y1386758D01*
X2915013Y1386335D01*
X2916281Y1385743D01*
X2917550Y1385151D01*
X2918903Y1384390D01*
X2920172Y1383629D01*
X2921526Y1382698D01*
X2922879Y1381768D01*
X2924148Y1380668D01*
X2925332Y1379484D01*
X2926431Y1378215D01*
X2926516Y1378131D01*
X2926685Y1377877D01*
X2926939Y1377539D01*
X2927277Y1376947D01*
X2927700Y1376270D01*
X2928208Y1375424D01*
X2928630Y1374494D01*
X2929138Y1373479D01*
X2929730Y1372210D01*
X2930153Y1370941D01*
X2930660Y1369503D01*
X2931083Y1367981D01*
X2931422Y1366374D01*
X2931675Y1364682D01*
X2931845Y1362906D01*
X2931929Y1361045D01*
Y1360030D01*
X2931845Y1359269D01*
X2931760Y1358423D01*
X2931675Y1357324D01*
X2931591Y1356224D01*
X2931422Y1354955D01*
X2930914Y1352249D01*
X2930153Y1349373D01*
X2929645Y1347935D01*
X2929053Y1346497D01*
X2928461Y1345144D01*
X2927700Y1343875D01*
X2927615Y1343791D01*
X2927531Y1343621D01*
X2927277Y1343283D01*
X2926854Y1342776D01*
X2926431Y1342268D01*
X2925924Y1341591D01*
X2925247Y1340915D01*
X2924486Y1340154D01*
X2923725Y1339308D01*
X2922794Y1338546D01*
X2921779Y1337701D01*
X2920595Y1336855D01*
X2919411Y1336009D01*
X2918142Y1335248D01*
X2916704Y1334487D01*
X2915266Y1333810D01*
X2915182D01*
X2914928Y1333641D01*
X2914421Y1333472D01*
X2913829Y1333302D01*
X2913067Y1333049D01*
X2912222Y1332710D01*
X2911207Y1332457D01*
X2910022Y1332118D01*
X2908754Y1331780D01*
X2907400Y1331526D01*
X2905962Y1331188D01*
X2904525Y1330934D01*
X2901226Y1330596D01*
X2897843Y1330427D01*
X2897758D01*
X2897420D01*
X2896828D01*
X2896151Y1330511D01*
X2895221D01*
X2894206Y1330596D01*
X2893106Y1330765D01*
X2891837Y1330934D01*
X2890484Y1331103D01*
X2889046Y1331357D01*
X2886086Y1332034D01*
X2883125Y1332964D01*
X2881603Y1333556D01*
X2880165Y1334233D01*
X2880080Y1334317D01*
X2879827Y1334402D01*
X2879404Y1334656D01*
X2878896Y1334994D01*
X2878304Y1335332D01*
X2877543Y1335840D01*
X2876782Y1336432D01*
X2875851Y1337109D01*
X2873990Y1338631D01*
X2872130Y1340576D01*
X2870269Y1342776D01*
X2869423Y1344044D01*
X2868662Y1345313D01*
X2868577Y1345398D01*
X2868493Y1345651D01*
X2868323Y1346074D01*
X2868070Y1346582D01*
X2867731Y1347258D01*
X2867393Y1348020D01*
X2867055Y1348950D01*
X2866632Y1349965D01*
X2866293Y1351149D01*
X2865955Y1352333D01*
X2865278Y1355040D01*
X2864856Y1358000D01*
X2864686Y1359523D01*
Y1362060D01*
X2864771Y1362737D01*
X2864856Y1363583D01*
X2864940Y1364598D01*
X2865109Y1365697D01*
X2865278Y1366881D01*
X2865871Y1369419D01*
X2866293Y1370772D01*
X2866801Y1372210D01*
X2867393Y1373563D01*
X2867985Y1374917D01*
X2868831Y1376270D01*
X2869677Y1377539D01*
X2869761Y1377623D01*
X2869931Y1377793D01*
X2870184Y1378215D01*
X2870607Y1378638D01*
X2871115Y1379146D01*
X2871707Y1379822D01*
X2872468Y1380499D01*
X2873314Y1381260D01*
X2874244Y1382022D01*
X2875259Y1382783D01*
X2876443Y1383544D01*
X2877627Y1384305D01*
X2878981Y1385067D01*
X2880419Y1385743D01*
X2882026Y1386420D01*
X2883633Y1386927D01*
X2885663Y1378469D01*
X2885578D01*
X2885324Y1378385D01*
X2884986Y1378215D01*
X2884479Y1378046D01*
X2883887Y1377793D01*
X2883210Y1377539D01*
X2881687Y1376778D01*
X2879996Y1375847D01*
X2878304Y1374748D01*
X2876697Y1373394D01*
X2876020Y1372633D01*
X2875344Y1371872D01*
Y1371787D01*
X2875175Y1371703D01*
X2875005Y1371449D01*
X2874836Y1371111D01*
X2874583Y1370688D01*
X2874329Y1370180D01*
X2873652Y1368911D01*
X2873060Y1367304D01*
X2872553Y1365444D01*
X2872214Y1363329D01*
X2872045Y1360961D01*
Y1360199D01*
X2872130Y1359692D01*
Y1359100D01*
X2872214Y1358339D01*
X2872383Y1357493D01*
X2872468Y1356562D01*
X2872891Y1354617D01*
X2873568Y1352503D01*
X2874498Y1350388D01*
X2875005Y1349373D01*
X2875682Y1348358D01*
Y1348273D01*
X2875851Y1348104D01*
X2876020Y1347850D01*
X2876359Y1347512D01*
X2877120Y1346666D01*
X2878220Y1345651D01*
X2879573Y1344467D01*
X2881264Y1343283D01*
X2883125Y1342183D01*
X2885324Y1341338D01*
X2885409D01*
X2885578Y1341253D01*
X2885917Y1341169D01*
X2886339Y1340999D01*
X2886931Y1340830D01*
X2887608Y1340661D01*
X2888369Y1340492D01*
X2889131Y1340323D01*
X2891076Y1339984D01*
X2893191Y1339646D01*
X2895474Y1339392D01*
X2897843Y1339308D01*
X2897927D01*
X2898181D01*
X2898604D01*
X2899196D01*
X2899957Y1339392D01*
X2900803Y1339477D01*
X2901733D01*
X2902748Y1339646D01*
X2905032Y1339900D01*
X2907400Y1340323D01*
X2909938Y1340915D01*
X2912306Y1341676D01*
X2912391D01*
X2912560Y1341761D01*
X2912898Y1341930D01*
X2913321Y1342183D01*
X2913829Y1342437D01*
X2914421Y1342691D01*
X2915774Y1343537D01*
X2917296Y1344636D01*
X2918819Y1345905D01*
X2920257Y1347428D01*
X2921526Y1349204D01*
Y1349288D01*
X2921695Y1349458D01*
X2921779Y1349711D01*
X2922033Y1350134D01*
X2922202Y1350557D01*
X2922456Y1351149D01*
X2923048Y1352503D01*
X2923640Y1354194D01*
X2924063Y1356055D01*
X2924401Y1358085D01*
X2924570Y1360284D01*
Y1360961D01*
X2924486Y1361468D01*
X2924401Y1362145D01*
X2924317Y1362822D01*
X2924232Y1363667D01*
X2924063Y1364513D01*
X2923555Y1366459D01*
X2922794Y1368489D01*
X2922371Y1369588D01*
X2921779Y1370603D01*
X2921187Y1371618D01*
X2920426Y1372548D01*
X2920341Y1372633D01*
X2920257Y1372802D01*
X2920003Y1373056D01*
X2919665Y1373394D01*
X2919242Y1373733D01*
X2918650Y1374240D01*
X2918058Y1374748D01*
X2917296Y1375255D01*
X2916535Y1375847D01*
X2915605Y1376439D01*
X2914590Y1376947D01*
X2913490Y1377539D01*
X2912222Y1378046D01*
X2910953Y1378554D01*
X2909599Y1378977D01*
X2908077Y1379400D01*
X2910276Y1388027D01*
X2910361D01*
X2910699Y1387858D01*
D02*
G37*
G36*
X3116958Y1894829D02*
X3132521D01*
Y1886878D01*
X3116958D01*
Y1858628D01*
X3109600D01*
X3067478Y1888316D01*
Y1894829D01*
X3109600D01*
Y1903625D01*
X3116958D01*
Y1894829D01*
D02*
G37*
G36*
X3112391Y1853807D02*
X3112983Y1853637D01*
X3113744Y1853468D01*
X3114590Y1853130D01*
X3115605Y1852707D01*
X3116704Y1852284D01*
X3117973Y1851692D01*
X3119242Y1851100D01*
X3120595Y1850339D01*
X3121864Y1849577D01*
X3123217Y1848647D01*
X3124571Y1847717D01*
X3125839Y1846617D01*
X3127023Y1845433D01*
X3128123Y1844164D01*
X3128208Y1844080D01*
X3128377Y1843826D01*
X3128631Y1843488D01*
X3128969Y1842895D01*
X3129392Y1842219D01*
X3129899Y1841373D01*
X3130322Y1840443D01*
X3130830Y1839428D01*
X3131422Y1838159D01*
X3131845Y1836890D01*
X3132352Y1835452D01*
X3132775Y1833930D01*
X3133113Y1832323D01*
X3133367Y1830631D01*
X3133536Y1828855D01*
X3133621Y1826994D01*
Y1825979D01*
X3133536Y1825218D01*
X3133452Y1824372D01*
X3133367Y1823272D01*
X3133283Y1822173D01*
X3133113Y1820904D01*
X3132606Y1818198D01*
X3131845Y1815322D01*
X3131337Y1813884D01*
X3130745Y1812446D01*
X3130153Y1811093D01*
X3129392Y1809824D01*
X3129307Y1809739D01*
X3129223Y1809570D01*
X3128969Y1809232D01*
X3128546Y1808724D01*
X3128123Y1808217D01*
X3127616Y1807540D01*
X3126939Y1806864D01*
X3126178Y1806102D01*
X3125416Y1805256D01*
X3124486Y1804495D01*
X3123471Y1803649D01*
X3122287Y1802804D01*
X3121103Y1801958D01*
X3119834Y1801197D01*
X3118396Y1800435D01*
X3116958Y1799759D01*
X3116874D01*
X3116620Y1799589D01*
X3116112Y1799420D01*
X3115520Y1799251D01*
X3114759Y1798997D01*
X3113913Y1798659D01*
X3112898Y1798405D01*
X3111714Y1798067D01*
X3110445Y1797729D01*
X3109092Y1797475D01*
X3107654Y1797137D01*
X3106216Y1796883D01*
X3102918Y1796545D01*
X3099534Y1796375D01*
X3099450D01*
X3099111D01*
X3098519D01*
X3097843Y1796460D01*
X3096912D01*
X3095897Y1796545D01*
X3094798Y1796714D01*
X3093529Y1796883D01*
X3092176Y1797052D01*
X3090738Y1797306D01*
X3087777Y1797982D01*
X3084817Y1798913D01*
X3083295Y1799505D01*
X3081857Y1800182D01*
X3081772Y1800266D01*
X3081518Y1800351D01*
X3081095Y1800604D01*
X3080588Y1800943D01*
X3079996Y1801281D01*
X3079235Y1801789D01*
X3078473Y1802381D01*
X3077543Y1803057D01*
X3075682Y1804580D01*
X3073821Y1806525D01*
X3071961Y1808724D01*
X3071115Y1809993D01*
X3070354Y1811262D01*
X3070269Y1811346D01*
X3070184Y1811600D01*
X3070015Y1812023D01*
X3069761Y1812531D01*
X3069423Y1813207D01*
X3069085Y1813968D01*
X3068746Y1814899D01*
X3068324Y1815914D01*
X3067985Y1817098D01*
X3067647Y1818282D01*
X3066970Y1820989D01*
X3066547Y1823949D01*
X3066378Y1825472D01*
Y1828009D01*
X3066463Y1828686D01*
X3066547Y1829532D01*
X3066632Y1830547D01*
X3066801Y1831646D01*
X3066970Y1832830D01*
X3067562Y1835368D01*
X3067985Y1836721D01*
X3068493Y1838159D01*
X3069085Y1839512D01*
X3069677Y1840866D01*
X3070523Y1842219D01*
X3071369Y1843488D01*
X3071453Y1843572D01*
X3071622Y1843741D01*
X3071876Y1844164D01*
X3072299Y1844587D01*
X3072806Y1845095D01*
X3073398Y1845771D01*
X3074160Y1846448D01*
X3075006Y1847209D01*
X3075936Y1847970D01*
X3076951Y1848732D01*
X3078135Y1849493D01*
X3079319Y1850254D01*
X3080673Y1851015D01*
X3082110Y1851692D01*
X3083717Y1852369D01*
X3085325Y1852876D01*
X3087355Y1844418D01*
X3087270D01*
X3087016Y1844333D01*
X3086678Y1844164D01*
X3086170Y1843995D01*
X3085578Y1843741D01*
X3084902Y1843488D01*
X3083379Y1842726D01*
X3081688Y1841796D01*
X3079996Y1840696D01*
X3078389Y1839343D01*
X3077712Y1838582D01*
X3077036Y1837821D01*
Y1837736D01*
X3076866Y1837651D01*
X3076697Y1837398D01*
X3076528Y1837059D01*
X3076274Y1836636D01*
X3076021Y1836129D01*
X3075344Y1834860D01*
X3074752Y1833253D01*
X3074244Y1831392D01*
X3073906Y1829278D01*
X3073737Y1826909D01*
Y1826148D01*
X3073821Y1825641D01*
Y1825049D01*
X3073906Y1824287D01*
X3074075Y1823442D01*
X3074160Y1822511D01*
X3074583Y1820566D01*
X3075259Y1818451D01*
X3076190Y1816337D01*
X3076697Y1815322D01*
X3077374Y1814307D01*
Y1814222D01*
X3077543Y1814053D01*
X3077712Y1813799D01*
X3078050Y1813461D01*
X3078812Y1812615D01*
X3079911Y1811600D01*
X3081265Y1810416D01*
X3082956Y1809232D01*
X3084817Y1808132D01*
X3087016Y1807286D01*
X3087101D01*
X3087270Y1807202D01*
X3087608Y1807117D01*
X3088031Y1806948D01*
X3088623Y1806779D01*
X3089300Y1806610D01*
X3090061Y1806441D01*
X3090822Y1806271D01*
X3092768Y1805933D01*
X3094882Y1805595D01*
X3097166Y1805341D01*
X3099534Y1805256D01*
X3099619D01*
X3099873D01*
X3100296D01*
X3100888D01*
X3101649Y1805341D01*
X3102495Y1805426D01*
X3103425D01*
X3104440Y1805595D01*
X3106724Y1805849D01*
X3109092Y1806271D01*
X3111630Y1806864D01*
X3113998Y1807625D01*
X3114082D01*
X3114252Y1807709D01*
X3114590Y1807879D01*
X3115013Y1808132D01*
X3115520Y1808386D01*
X3116112Y1808640D01*
X3117466Y1809486D01*
X3118988Y1810585D01*
X3120511Y1811854D01*
X3121949Y1813376D01*
X3123217Y1815153D01*
Y1815237D01*
X3123386Y1815406D01*
X3123471Y1815660D01*
X3123725Y1816083D01*
X3123894Y1816506D01*
X3124148Y1817098D01*
X3124740Y1818451D01*
X3125332Y1820143D01*
X3125755Y1822004D01*
X3126093Y1824034D01*
X3126262Y1826233D01*
Y1826909D01*
X3126178Y1827417D01*
X3126093Y1828094D01*
X3126008Y1828770D01*
X3125924Y1829616D01*
X3125755Y1830462D01*
X3125247Y1832407D01*
X3124486Y1834437D01*
X3124063Y1835537D01*
X3123471Y1836552D01*
X3122879Y1837567D01*
X3122118Y1838497D01*
X3122033Y1838582D01*
X3121949Y1838751D01*
X3121695Y1839005D01*
X3121356Y1839343D01*
X3120934Y1839681D01*
X3120341Y1840189D01*
X3119749Y1840696D01*
X3118988Y1841204D01*
X3118227Y1841796D01*
X3117297Y1842388D01*
X3116282Y1842895D01*
X3115182Y1843488D01*
X3113913Y1843995D01*
X3112645Y1844503D01*
X3111291Y1844925D01*
X3109769Y1845348D01*
X3111968Y1853976D01*
X3112052D01*
X3112391Y1853807D01*
D02*
G37*
%LPC*%
G36*
X2979152Y1393755D02*
X2979067D01*
X2978983D01*
X2978729D01*
X2978391Y1393671D01*
X2977545Y1393586D01*
X2976445Y1393332D01*
X2975261Y1392909D01*
X2973992Y1392317D01*
X2972724Y1391471D01*
X2971539Y1390372D01*
X2971370Y1390203D01*
X2971032Y1389695D01*
X2970609Y1388934D01*
X2970017Y1387750D01*
X2969763Y1387073D01*
X2969425Y1386312D01*
X2969171Y1385466D01*
X2969002Y1384451D01*
X2968748Y1383436D01*
X2968664Y1382337D01*
X2968494Y1381068D01*
Y1359246D01*
X2990063D01*
Y1379122D01*
X2989978Y1379715D01*
X2989894Y1381068D01*
X2989809Y1382506D01*
X2989555Y1384113D01*
X2989302Y1385551D01*
X2988879Y1386904D01*
X2988794Y1387073D01*
X2988625Y1387496D01*
X2988371Y1388088D01*
X2987948Y1388849D01*
X2987441Y1389611D01*
X2986764Y1390456D01*
X2985918Y1391302D01*
X2984988Y1391979D01*
X2984903Y1392064D01*
X2984480Y1392233D01*
X2983973Y1392571D01*
X2983212Y1392909D01*
X2982366Y1393163D01*
X2981351Y1393501D01*
X2980336Y1393671D01*
X2979152Y1393755D01*
D02*
G37*
G36*
X3109600Y1886878D02*
X3080250D01*
X3109600Y1866409D01*
Y1886878D01*
D02*
G37*
%LPD*%
D19*
X396300Y286860D02*
G03*
X396300Y286860I-15240J0D01*
G01*
D20*
X2817508Y1801709D02*
Y1811706D01*
X2887505Y1801709D02*
Y1811706D01*
D24*
X2951009Y1581068D02*
Y1642079D01*
Y1472076D02*
Y1531070D01*
X2861006Y1581068D02*
Y1642079D01*
Y1472076D02*
Y1531070D01*
Y1472076D02*
X2951009D01*
X2861006Y1642079D02*
X2951009D01*
X2969228D02*
X3059226D01*
X2969228Y1472076D02*
X3059226D01*
X2969228D02*
Y1532081D01*
Y1582079D02*
Y1642079D01*
X3059226Y1472076D02*
Y1532081D01*
Y1582079D02*
Y1642079D01*
X2854516Y1581072D02*
Y1642077D01*
Y1472080D02*
Y1531069D01*
X2764514Y1581072D02*
Y1642077D01*
Y1472080D02*
Y1531069D01*
Y1472080D02*
X2854516D01*
X2764514Y1642077D02*
X2854516D01*
X2910208Y1684407D02*
Y1780708D01*
X2794805Y1684407D02*
X2910208D01*
Y1831706D02*
Y1929410D01*
X2795806D02*
X2910208D01*
X2794805Y1684407D02*
Y1781709D01*
Y1831706D02*
Y1929410D01*
X2955928Y1741707D02*
Y1802718D01*
Y1852715D02*
Y1911709D01*
X3045931Y1741707D02*
Y1802718D01*
Y1852715D02*
Y1911709D01*
X2955928D02*
X3045931D01*
X2955928Y1741707D02*
X3045931D01*
%TF.MD5,588b27ab1d5d07c69ac91a9f1270b7a7*%
M02*
