%TF.GenerationSoftware,Altium Limited,Altium Designer,21.8.1 (53)*%
G04 Layer_Color=39423*
%FSLAX45Y45*%
%MOMM*%
%TF.SameCoordinates,7374835A-4B4A-4399-96A1-91FF428CB2AC*%
%TF.FilePolarity,Positive*%
%TF.FileFunction,Legend,Bot*%
%TF.Part,Single*%
G01*
G75*
%TA.AperFunction,NonConductor*%
%ADD19C,0.33020*%
%ADD20C,0.20000*%
%ADD21C,0.10000*%
G36*
X505718Y237404D02*
X508004Y237023D01*
X510163Y236642D01*
X512068Y236134D01*
X513846Y235626D01*
X515497Y234991D01*
X517021Y234483D01*
X518291Y233848D01*
X519434Y233213D01*
X520323Y232578D01*
X521085Y232070D01*
X521720Y231689D01*
X522101Y231308D01*
X522355Y231181D01*
X522482Y231054D01*
X523752Y229657D01*
X524895Y228260D01*
X525911Y226736D01*
X526673Y225085D01*
X527435Y223434D01*
X528070Y221783D01*
X528959Y218608D01*
X529213Y217211D01*
X529467Y215814D01*
X529594Y214544D01*
X529721Y213528D01*
X529848Y212639D01*
Y211369D01*
X529721Y208194D01*
X529340Y205273D01*
X528705Y202733D01*
X528070Y200574D01*
X527562Y198669D01*
X526927Y197399D01*
X526673Y196891D01*
X526546Y196510D01*
X526419Y196383D01*
Y196256D01*
X524895Y193970D01*
X523244Y192065D01*
X521593Y190414D01*
X519942Y189144D01*
X518418Y188128D01*
X517275Y187366D01*
X516767Y187112D01*
X516386Y186985D01*
X516259Y186858D01*
X516132D01*
X514862Y186350D01*
X513338Y185842D01*
X510290Y185080D01*
X507115Y184572D01*
X504067Y184191D01*
X502670Y184064D01*
X501273Y183937D01*
X500130D01*
X499114Y183810D01*
X498225D01*
X497590D01*
X497209D01*
X497082D01*
X430534D01*
Y196764D01*
X497844D01*
X500765D01*
X503305Y197018D01*
X505337Y197145D01*
X507115Y197399D01*
X508385Y197653D01*
X509274Y197907D01*
X509909Y198034D01*
X510036Y198161D01*
X511433Y198669D01*
X512576Y199431D01*
X513592Y200193D01*
X514481Y201082D01*
X515243Y201844D01*
X515751Y202352D01*
X516005Y202860D01*
X516132Y202987D01*
X516894Y204384D01*
X517402Y205781D01*
X517783Y207178D01*
X518037Y208448D01*
X518164Y209591D01*
X518291Y210607D01*
Y211369D01*
X518164Y213655D01*
X517656Y215814D01*
X517021Y217592D01*
X516259Y218989D01*
X515497Y220259D01*
X514862Y221021D01*
X514354Y221656D01*
X514227Y221783D01*
X513338Y222418D01*
X512449Y223053D01*
X510163Y223942D01*
X507623Y224704D01*
X505083Y225212D01*
X502670Y225466D01*
X501654Y225593D01*
X500765Y225720D01*
X500003Y225847D01*
X499495D01*
X499114D01*
X498987D01*
X500638Y237531D01*
X503305D01*
X505718Y237404D01*
D02*
G37*
G36*
X465459Y156251D02*
X464443Y154092D01*
X463427Y151933D01*
X462411Y150028D01*
X461522Y148377D01*
X460760Y146980D01*
X460506Y146472D01*
X460252Y146091D01*
X460125Y145964D01*
Y145837D01*
X458601Y143297D01*
X457077Y141138D01*
X455680Y139106D01*
X454410Y137455D01*
X453394Y136185D01*
X452505Y135169D01*
X451997Y134661D01*
X451870Y134407D01*
X528197D01*
Y122469D01*
X430153D01*
Y130216D01*
X432566Y131613D01*
X434852Y133264D01*
X437138Y135042D01*
X439043Y136693D01*
X440821Y138344D01*
X442091Y139614D01*
X442599Y140122D01*
X442980Y140503D01*
X443107Y140757D01*
X443234Y140884D01*
X445647Y143805D01*
X447806Y146726D01*
X449838Y149774D01*
X451489Y152441D01*
X452759Y154854D01*
X453394Y155870D01*
X453775Y156759D01*
X454156Y157394D01*
X454410Y157902D01*
X454664Y158283D01*
Y158410D01*
X466348D01*
X465459Y156251D01*
D02*
G37*
G36*
X2928393Y1457351D02*
X2930084Y1457266D01*
X2933383Y1456843D01*
X2934905Y1456505D01*
X2936259Y1456167D01*
X2937612Y1455828D01*
X2938796Y1455406D01*
X2939896Y1455067D01*
X2940911Y1454644D01*
X2941757Y1454306D01*
X2942433Y1454052D01*
X2943025Y1453714D01*
X2943448Y1453545D01*
X2943702Y1453460D01*
X2943787Y1453376D01*
X2945140Y1452614D01*
X2946409Y1451684D01*
X2948692Y1449823D01*
X2949707Y1448808D01*
X2950638Y1447793D01*
X2951484Y1446778D01*
X2952245Y1445763D01*
X2952921Y1444833D01*
X2953514Y1443987D01*
X2954021Y1443226D01*
X2954444Y1442549D01*
X2954782Y1441957D01*
X2955036Y1441534D01*
X2955121Y1441280D01*
X2955205Y1441196D01*
X2955882Y1439673D01*
X2956474Y1438066D01*
X2957489Y1434937D01*
X2958166Y1431976D01*
X2958419Y1430538D01*
X2958588Y1429270D01*
X2958758Y1428001D01*
X2958927Y1426901D01*
X2959011Y1425886D01*
Y1425041D01*
X2959096Y1424364D01*
Y1423856D01*
Y1423518D01*
Y1423434D01*
X2959011Y1421657D01*
X2958927Y1419966D01*
X2958504Y1416667D01*
X2958166Y1415144D01*
X2957827Y1413791D01*
X2957489Y1412438D01*
X2957066Y1411169D01*
X2956728Y1410070D01*
X2956389Y1409055D01*
X2956051Y1408209D01*
X2955713Y1407448D01*
X2955459Y1406855D01*
X2955290Y1406433D01*
X2955121Y1406179D01*
Y1406094D01*
X2954359Y1404656D01*
X2953514Y1403388D01*
X2952583Y1402119D01*
X2951568Y1401019D01*
X2950638Y1399920D01*
X2949623Y1398989D01*
X2948692Y1398059D01*
X2947762Y1397298D01*
X2946832Y1396621D01*
X2946070Y1395944D01*
X2945309Y1395437D01*
X2944632Y1395014D01*
X2944125Y1394676D01*
X2943702Y1394422D01*
X2943448Y1394337D01*
X2943364Y1394253D01*
X2941841Y1393576D01*
X2940319Y1392899D01*
X2937358Y1391884D01*
X2934398Y1391208D01*
X2933045Y1390954D01*
X2931691Y1390700D01*
X2930507Y1390531D01*
X2929408Y1390447D01*
X2928393Y1390277D01*
X2927547D01*
X2926870Y1390193D01*
X2925940D01*
X2923318Y1390277D01*
X2920780Y1390616D01*
X2918412Y1391039D01*
X2916297Y1391462D01*
X2915452Y1391715D01*
X2914606Y1391969D01*
X2913845Y1392138D01*
X2913252Y1392307D01*
X2912745Y1392477D01*
X2912407Y1392646D01*
X2912153Y1392730D01*
X2912068D01*
X2909531Y1393745D01*
X2907163Y1395014D01*
X2904963Y1396198D01*
X2902933Y1397467D01*
X2902088Y1398059D01*
X2901326Y1398566D01*
X2900650Y1398989D01*
X2900058Y1399412D01*
X2899550Y1399751D01*
X2899212Y1400004D01*
X2899043Y1400173D01*
X2898958Y1400258D01*
Y1424449D01*
X2926532D01*
Y1416752D01*
X2907416D01*
Y1404572D01*
X2908600Y1403641D01*
X2909869Y1402796D01*
X2911223Y1402034D01*
X2912491Y1401358D01*
X2913675Y1400766D01*
X2914690Y1400343D01*
X2915029Y1400258D01*
X2915282Y1400089D01*
X2915452Y1400004D01*
X2915536D01*
X2917566Y1399328D01*
X2919512Y1398820D01*
X2921288Y1398397D01*
X2922979Y1398144D01*
X2924417Y1397974D01*
X2925009D01*
X2925517Y1397890D01*
X2926447D01*
X2928816Y1397974D01*
X2931099Y1398313D01*
X2933129Y1398736D01*
X2934905Y1399328D01*
X2935751Y1399581D01*
X2936428Y1399835D01*
X2937105Y1400004D01*
X2937612Y1400258D01*
X2938035Y1400427D01*
X2938373Y1400596D01*
X2938543Y1400681D01*
X2938627D01*
X2940657Y1401865D01*
X2942349Y1403218D01*
X2943871Y1404741D01*
X2945055Y1406094D01*
X2945986Y1407363D01*
X2946409Y1407955D01*
X2946662Y1408463D01*
X2946916Y1408801D01*
X2947085Y1409139D01*
X2947254Y1409308D01*
Y1409393D01*
X2948269Y1411677D01*
X2948946Y1414130D01*
X2949454Y1416582D01*
X2949876Y1418866D01*
X2949961Y1419881D01*
X2950046Y1420896D01*
X2950130Y1421742D01*
Y1422503D01*
X2950215Y1423095D01*
Y1423518D01*
Y1423856D01*
Y1423941D01*
X2950130Y1426563D01*
X2949792Y1429016D01*
X2949454Y1431215D01*
X2948946Y1433160D01*
X2948777Y1434006D01*
X2948523Y1434768D01*
X2948354Y1435444D01*
X2948100Y1436036D01*
X2948016Y1436459D01*
X2947847Y1436797D01*
X2947762Y1436967D01*
Y1437051D01*
X2947170Y1438320D01*
X2946493Y1439589D01*
X2945817Y1440688D01*
X2945224Y1441619D01*
X2944632Y1442380D01*
X2944125Y1442972D01*
X2943787Y1443310D01*
X2943702Y1443479D01*
X2942687Y1444494D01*
X2941503Y1445509D01*
X2940319Y1446271D01*
X2939219Y1446947D01*
X2938289Y1447539D01*
X2937443Y1447878D01*
X2936935Y1448131D01*
X2936851Y1448216D01*
X2936766D01*
X2935075Y1448808D01*
X2933383Y1449316D01*
X2931607Y1449654D01*
X2930000Y1449823D01*
X2928646Y1449992D01*
X2928054D01*
X2927547Y1450077D01*
X2926532D01*
X2924756Y1449992D01*
X2923064Y1449823D01*
X2921542Y1449485D01*
X2920273Y1449231D01*
X2919173Y1448893D01*
X2918327Y1448554D01*
X2917820Y1448385D01*
X2917735Y1448301D01*
X2917651D01*
X2916213Y1447624D01*
X2914944Y1446863D01*
X2913845Y1446102D01*
X2912999Y1445425D01*
X2912322Y1444748D01*
X2911815Y1444241D01*
X2911476Y1443902D01*
X2911392Y1443733D01*
X2910630Y1442634D01*
X2909869Y1441365D01*
X2909277Y1440012D01*
X2908770Y1438827D01*
X2908347Y1437643D01*
X2908008Y1436797D01*
X2907924Y1436459D01*
X2907839Y1436205D01*
X2907755Y1436036D01*
Y1435952D01*
X2899973Y1438066D01*
X2900650Y1440435D01*
X2901496Y1442549D01*
X2902257Y1444325D01*
X2903103Y1445848D01*
X2903864Y1447116D01*
X2904118Y1447624D01*
X2904456Y1447962D01*
X2904625Y1448301D01*
X2904794Y1448554D01*
X2904963Y1448639D01*
Y1448724D01*
X2906232Y1450161D01*
X2907670Y1451430D01*
X2909193Y1452530D01*
X2910630Y1453460D01*
X2911899Y1454137D01*
X2912407Y1454391D01*
X2912914Y1454644D01*
X2913337Y1454813D01*
X2913591Y1454983D01*
X2913760Y1455067D01*
X2913845D01*
X2916044Y1455828D01*
X2918243Y1456421D01*
X2920357Y1456843D01*
X2922387Y1457182D01*
X2923233Y1457266D01*
X2924079Y1457351D01*
X2924756D01*
X2925432Y1457435D01*
X2926616D01*
X2928393Y1457351D01*
D02*
G37*
G36*
X3078018Y1391292D02*
X3069391D01*
Y1417682D01*
X3052813D01*
X3050360Y1417767D01*
X3048076Y1417936D01*
X3045962Y1418189D01*
X3044016Y1418612D01*
X3042325Y1419035D01*
X3040718Y1419543D01*
X3039364Y1420050D01*
X3038096Y1420558D01*
X3037081Y1421065D01*
X3036150Y1421657D01*
X3035389Y1422080D01*
X3034797Y1422503D01*
X3034374Y1422926D01*
X3034036Y1423180D01*
X3033866Y1423349D01*
X3033782Y1423434D01*
X3032851Y1424533D01*
X3032006Y1425717D01*
X3031329Y1426901D01*
X3030737Y1428086D01*
X3030145Y1429270D01*
X3029722Y1430369D01*
X3029130Y1432653D01*
X3028876Y1433583D01*
X3028707Y1434514D01*
X3028622Y1435360D01*
X3028538Y1436121D01*
X3028453Y1436713D01*
Y1437136D01*
Y1437390D01*
Y1437474D01*
X3028538Y1439250D01*
X3028792Y1440857D01*
X3029130Y1442380D01*
X3029468Y1443733D01*
X3029806Y1444833D01*
X3030145Y1445679D01*
X3030314Y1445932D01*
X3030399Y1446186D01*
X3030483Y1446271D01*
Y1446355D01*
X3031244Y1447793D01*
X3032090Y1449062D01*
X3033021Y1450161D01*
X3033866Y1451007D01*
X3034543Y1451684D01*
X3035220Y1452191D01*
X3035558Y1452530D01*
X3035727Y1452614D01*
X3036996Y1453376D01*
X3038349Y1454052D01*
X3039618Y1454560D01*
X3040887Y1454983D01*
X3041986Y1455321D01*
X3042917Y1455490D01*
X3043255Y1455575D01*
X3043424Y1455659D01*
X3043678D01*
X3045031Y1455913D01*
X3046638Y1456082D01*
X3048330Y1456167D01*
X3049852Y1456251D01*
X3051290Y1456336D01*
X3078018D01*
Y1391292D01*
D02*
G37*
G36*
X3017458D02*
X3008830D01*
Y1417682D01*
X2992252D01*
X2989799Y1417767D01*
X2987515Y1417936D01*
X2985401Y1418189D01*
X2983456Y1418612D01*
X2981764Y1419035D01*
X2980157Y1419543D01*
X2978804Y1420050D01*
X2977535Y1420558D01*
X2976520Y1421065D01*
X2975589Y1421657D01*
X2974828Y1422080D01*
X2974236Y1422503D01*
X2973813Y1422926D01*
X2973475Y1423180D01*
X2973306Y1423349D01*
X2973221Y1423434D01*
X2972291Y1424533D01*
X2971445Y1425717D01*
X2970768Y1426901D01*
X2970176Y1428086D01*
X2969584Y1429270D01*
X2969161Y1430369D01*
X2968569Y1432653D01*
X2968315Y1433583D01*
X2968146Y1434514D01*
X2968062Y1435360D01*
X2967977Y1436121D01*
X2967892Y1436713D01*
Y1437136D01*
Y1437390D01*
Y1437474D01*
X2967977Y1439250D01*
X2968231Y1440857D01*
X2968569Y1442380D01*
X2968907Y1443733D01*
X2969246Y1444833D01*
X2969584Y1445679D01*
X2969753Y1445932D01*
X2969838Y1446186D01*
X2969922Y1446271D01*
Y1446355D01*
X2970684Y1447793D01*
X2971529Y1449062D01*
X2972460Y1450161D01*
X2973306Y1451007D01*
X2973982Y1451684D01*
X2974659Y1452191D01*
X2974997Y1452530D01*
X2975167Y1452614D01*
X2976435Y1453376D01*
X2977789Y1454052D01*
X2979057Y1454560D01*
X2980326Y1454983D01*
X2981426Y1455321D01*
X2982356Y1455490D01*
X2982694Y1455575D01*
X2982863Y1455659D01*
X2983117D01*
X2984471Y1455913D01*
X2986078Y1456082D01*
X2987769Y1456167D01*
X2989292Y1456251D01*
X2990730Y1456336D01*
X3017458D01*
Y1391292D01*
D02*
G37*
%LPC*%
G36*
X3069391Y1448639D02*
X3050783D01*
X3049091Y1448554D01*
X3047738Y1448470D01*
X3046638Y1448385D01*
X3045877Y1448216D01*
X3045285Y1448131D01*
X3044947Y1448047D01*
X3044862D01*
X3043678Y1447624D01*
X3042578Y1447032D01*
X3041648Y1446440D01*
X3040887Y1445763D01*
X3040295Y1445171D01*
X3039787Y1444664D01*
X3039533Y1444325D01*
X3039449Y1444156D01*
X3038772Y1443057D01*
X3038265Y1441872D01*
X3037842Y1440688D01*
X3037588Y1439589D01*
X3037419Y1438658D01*
X3037334Y1437897D01*
Y1437390D01*
Y1437305D01*
Y1437220D01*
X3037503Y1435190D01*
X3037926Y1433499D01*
X3038434Y1431976D01*
X3039111Y1430708D01*
X3039787Y1429693D01*
X3040295Y1429016D01*
X3040718Y1428593D01*
X3040887Y1428424D01*
X3041563Y1427916D01*
X3042409Y1427409D01*
X3044185Y1426648D01*
X3046131Y1426140D01*
X3048076Y1425802D01*
X3049852Y1425548D01*
X3050614Y1425463D01*
X3051290D01*
X3051882Y1425379D01*
X3069391D01*
Y1448639D01*
D02*
G37*
G36*
X3008830D02*
X2990222D01*
X2988530Y1448554D01*
X2987177Y1448470D01*
X2986078Y1448385D01*
X2985316Y1448216D01*
X2984724Y1448131D01*
X2984386Y1448047D01*
X2984301D01*
X2983117Y1447624D01*
X2982018Y1447032D01*
X2981087Y1446440D01*
X2980326Y1445763D01*
X2979734Y1445171D01*
X2979226Y1444664D01*
X2978973Y1444325D01*
X2978888Y1444156D01*
X2978211Y1443057D01*
X2977704Y1441872D01*
X2977281Y1440688D01*
X2977027Y1439589D01*
X2976858Y1438658D01*
X2976774Y1437897D01*
Y1437390D01*
Y1437305D01*
Y1437220D01*
X2976943Y1435190D01*
X2977366Y1433499D01*
X2977873Y1431976D01*
X2978550Y1430708D01*
X2979226Y1429693D01*
X2979734Y1429016D01*
X2980157Y1428593D01*
X2980326Y1428424D01*
X2981003Y1427916D01*
X2981848Y1427409D01*
X2983625Y1426648D01*
X2985570Y1426140D01*
X2987515Y1425802D01*
X2989292Y1425548D01*
X2990053Y1425463D01*
X2990730D01*
X2991322Y1425379D01*
X3008830D01*
Y1448639D01*
D02*
G37*
%LPD*%
D19*
X396300Y286860D02*
G03*
X396300Y286860I-15240J0D01*
G01*
D20*
X2714507Y1516708D02*
G03*
X2704507Y1516708I-5000J0D01*
G01*
D02*
G03*
X2714507Y1516708I5000J0D01*
G01*
D21*
X2769507Y1491707D02*
Y1921708D01*
X3059507D01*
Y1491707D02*
Y1921708D01*
X2769507Y1491707D02*
X3059507D01*
%TF.MD5,3e4b0567ee4328a8456b22171390cea8*%
M02*
