%TF.GenerationSoftware,Altium Limited,Altium Designer,21.8.1 (53)*%
G04 Layer_Physical_Order=2*
G04 Layer_Color=16711680*
%FSLAX45Y45*%
%MOMM*%
%TF.SameCoordinates,7374835A-4B4A-4399-96A1-91FF428CB2AC*%
%TF.FilePolarity,Positive*%
%TF.FileFunction,Copper,L2,Bot,Signal*%
%TF.Part,Single*%
G01*
G75*
%TA.AperFunction,Conductor*%
%ADD11C,0.25400*%
%TA.AperFunction,SMDPad,CuDef*%
%ADD13R,2.50000X0.30000*%
%TA.AperFunction,ViaPad*%
%ADD17C,0.45000*%
%TA.AperFunction,ConnectorPad*%
%ADD18R,0.66000X0.40000*%
G36*
X2746270Y2061182D02*
X2746289Y2061185D01*
X2746307Y2061182D01*
X3072008Y2061182D01*
X3072018Y2061184D01*
X3072029Y2061182D01*
X3078717Y2061187D01*
X3091838Y2058587D01*
X3104198Y2053475D01*
X3115321Y2046046D01*
X3124777Y2036590D01*
X3132205Y2025468D01*
X3137318Y2013108D01*
X3139917Y1999989D01*
X3139911Y1993303D01*
X3139913Y1993290D01*
X3139911Y1993278D01*
X3139908Y1408343D01*
X3139908Y1408339D01*
X3139908Y1408336D01*
X3139910Y1400809D01*
X3136305Y1386196D01*
X3129302Y1372876D01*
X3119308Y1361624D01*
X3113710Y1357775D01*
X3112197Y1356856D01*
X3107618Y1354868D01*
X3102809Y1353522D01*
X3097861Y1352842D01*
X3095366Y1352843D01*
X3095365Y1352842D01*
X3095364Y1352843D01*
X3056947Y1352842D01*
X3047036Y1350871D01*
X3043096Y1348238D01*
X3033646Y1351529D01*
X3030396Y1354046D01*
X3030396Y1376887D01*
X3031406Y1389572D01*
X3031433Y1389637D01*
X3031432Y1389638D01*
X3036309Y1399814D01*
X3040773Y1405148D01*
X3043034Y1409114D01*
X3045572Y1412912D01*
X3045771Y1413915D01*
X3046278Y1414803D01*
X3046850Y1419336D01*
X3047740Y1423814D01*
Y1425766D01*
X3050212Y1427418D01*
X3058553Y1439902D01*
X3061483Y1454627D01*
X3058553Y1469352D01*
X3052263Y1478768D01*
X3052894Y1480491D01*
X3057748Y1491468D01*
X3057748Y1491468D01*
X3057747Y1491468D01*
Y1551468D01*
Y1627196D01*
X3060222Y1627689D01*
X3069464Y1633864D01*
X3100391Y1664790D01*
X3100391Y1664791D01*
X3106567Y1674033D01*
X3108735Y1684935D01*
X3108735Y1684936D01*
Y1742804D01*
X3115798Y1753375D01*
X3118727Y1768100D01*
X3115798Y1782825D01*
X3107457Y1795309D01*
X3094973Y1803650D01*
X3080248Y1806579D01*
X3077725Y1806077D01*
X3068062Y1814008D01*
X2951107D01*
Y1781308D01*
Y1779407D01*
X3009507D01*
Y1754007D01*
X2951107D01*
Y1719408D01*
X3009507D01*
Y1694008D01*
X2951107D01*
Y1690377D01*
X2939333Y1682863D01*
X2938407Y1682985D01*
X2930640Y1694611D01*
X2918156Y1702952D01*
X2903431Y1705881D01*
X2900597Y1705317D01*
X2886363Y1719551D01*
X2877121Y1725727D01*
X2867747Y1727591D01*
Y1851467D01*
Y1921947D01*
X2771267D01*
Y1851467D01*
Y1786219D01*
X2768792Y1785726D01*
X2759550Y1779551D01*
X2759550Y1779550D01*
X2724843Y1744844D01*
X2718668Y1735602D01*
X2716500Y1724701D01*
X2716500Y1724699D01*
Y1678882D01*
X2716091Y1678609D01*
X2707750Y1666125D01*
X2704821Y1651400D01*
X2707750Y1636675D01*
X2716091Y1624191D01*
X2728575Y1615850D01*
X2743300Y1612921D01*
X2758025Y1615850D01*
X2758567Y1616212D01*
X2767081Y1613031D01*
X2771267Y1609424D01*
Y1491468D01*
X2782685D01*
X2785381Y1488664D01*
X2791024Y1482183D01*
X2792155Y1476980D01*
X2793206Y1471741D01*
X2793336Y1471547D01*
X2793385Y1471322D01*
X2815237Y1421084D01*
X2817965Y1417152D01*
X2820472Y1413076D01*
X2851623Y1379487D01*
X2854450Y1365275D01*
X2862791Y1352791D01*
X2875275Y1344450D01*
X2890000Y1341521D01*
X2904725Y1344450D01*
X2916944Y1352614D01*
X2918639Y1352302D01*
X2929644Y1348541D01*
Y340617D01*
X2928812Y321346D01*
X2928907Y320729D01*
X2928785Y320118D01*
Y312411D01*
X2928951Y311579D01*
X2925162Y273111D01*
X2917534Y247964D01*
X2917459Y247935D01*
X2917186Y247278D01*
X2916285Y245567D01*
X2911494Y236528D01*
X2900625Y218453D01*
X2898883Y216239D01*
X2882942Y200532D01*
X2882877Y200470D01*
X2873194Y192365D01*
X2865086Y185718D01*
X2857280Y180143D01*
X2847007Y174473D01*
X2846687Y174341D01*
X2845624Y173820D01*
X2836374Y169454D01*
X2827937Y166523D01*
X2827452Y166323D01*
X2818974Y163536D01*
X2809600Y161681D01*
X2809117Y161481D01*
X2795494Y159688D01*
X2794542Y159877D01*
X1902179D01*
X1578017Y163591D01*
X1577940Y163577D01*
X1577865Y163593D01*
X1577574Y163595D01*
X1577487Y163578D01*
X1577400Y163595D01*
X878248D01*
X537143Y170288D01*
X525815Y177856D01*
X511090Y180785D01*
X496365Y177856D01*
X483881Y169515D01*
X475540Y157031D01*
X472611Y142306D01*
X475540Y127581D01*
X483881Y115097D01*
X477275Y104237D01*
X471990Y96327D01*
X469061Y81602D01*
X471990Y66876D01*
X480332Y54393D01*
X492815Y46051D01*
X507541Y43122D01*
X522266Y46051D01*
X534750Y54393D01*
X539300Y61204D01*
X540885Y62262D01*
X588784D01*
X593699Y50552D01*
X569503Y25896D01*
X446022Y25896D01*
X438091Y36690D01*
X390000D01*
Y49390D01*
X377300D01*
Y95702D01*
X371310Y94511D01*
X369834Y93524D01*
X358139Y99830D01*
X358139Y99831D01*
X358142Y99854D01*
X358143Y99858D01*
X358144Y99863D01*
X360476Y111996D01*
X375201Y114925D01*
X387685Y123266D01*
X396026Y135750D01*
X398955Y150475D01*
X398442Y153053D01*
X407422Y162034D01*
X410000Y161521D01*
X424725Y164450D01*
X437209Y172791D01*
X445550Y185275D01*
X448479Y200000D01*
X446726Y208812D01*
X448318Y211346D01*
X464165Y215191D01*
X465275Y214450D01*
X480000Y211521D01*
X494725Y214450D01*
X507209Y222791D01*
X515550Y235275D01*
X518479Y250000D01*
X516671Y259093D01*
X528100Y266730D01*
X532346Y263894D01*
X547072Y260964D01*
X561797Y263894D01*
X574281Y272235D01*
X582622Y284718D01*
X583961Y291455D01*
X597742Y295635D01*
X611211Y282166D01*
X619612Y276552D01*
X629523Y274581D01*
X2745466Y274582D01*
X2746717Y274831D01*
X2747985Y274705D01*
X2757072Y275593D01*
X2760716Y276695D01*
X2764451Y277436D01*
X2781244Y284383D01*
X2781248Y284385D01*
X2781251Y284386D01*
X2785363Y287132D01*
X2789649Y289993D01*
X2789651Y289996D01*
X2789654Y289998D01*
X2802507Y302846D01*
X2802510Y302850D01*
X2802513Y302852D01*
X2805302Y307027D01*
X2808123Y311247D01*
X2808124Y311251D01*
X2808126Y311254D01*
X2815079Y328045D01*
X2815821Y331779D01*
X2816925Y335424D01*
X2817817Y344511D01*
X2817691Y345784D01*
X2817940Y347038D01*
X2817997Y1317897D01*
X2816026Y1327808D01*
X2810412Y1336210D01*
X2799740Y1346883D01*
X2799739Y1346884D01*
X2795551Y1349683D01*
X2791339Y1352497D01*
X2781428Y1354469D01*
X2724460D01*
X2724101Y1354489D01*
X2721973Y1354960D01*
X2719949Y1355767D01*
X2718079Y1356889D01*
X2717796Y1357128D01*
X2711418Y1363157D01*
X2700541Y1378717D01*
X2693032Y1396155D01*
X2689201Y1414749D01*
X2689204Y1424243D01*
X2689203Y1424247D01*
X2689204Y1424251D01*
X2689204Y2004078D01*
X2689200Y2004098D01*
X2689204Y2004117D01*
X2689196Y2009739D01*
X2691377Y2020770D01*
X2695674Y2031164D01*
X2701917Y2040515D01*
X2709870Y2048468D01*
X2719222Y2054712D01*
X2729615Y2059008D01*
X2740648Y2061190D01*
X2746270Y2061182D01*
D02*
G37*
%LPC*%
G36*
X3034200Y2029712D02*
Y1996100D01*
X3067812D01*
X3066621Y2002089D01*
X3056034Y2017934D01*
X3040189Y2028521D01*
X3034200Y2029712D01*
D02*
G37*
G36*
X3008800D02*
X3002810Y2028521D01*
X2986966Y2017934D01*
X2976379Y2002089D01*
X2975188Y1996100D01*
X3008800D01*
Y2029712D01*
D02*
G37*
G36*
X3067812Y1970700D02*
X3034200D01*
Y1937088D01*
X3040189Y1938279D01*
X3056034Y1948866D01*
X3066621Y1964710D01*
X3067812Y1970700D01*
D02*
G37*
G36*
X3008800D02*
X2975188D01*
X2976379Y1964710D01*
X2986966Y1948866D01*
X3002810Y1938279D01*
X3008800Y1937088D01*
Y1970700D01*
D02*
G37*
G36*
X3057747Y1921947D02*
X2961267D01*
Y1872108D01*
X2951107D01*
Y1839408D01*
X3067907D01*
Y1872108D01*
X3057747D01*
Y1921947D01*
D02*
G37*
G36*
X402700Y95702D02*
Y62090D01*
X436312D01*
X435121Y68080D01*
X424534Y83924D01*
X408690Y94511D01*
X402700Y95702D01*
D02*
G37*
%LPD*%
D11*
X2869406Y108096D02*
G03*
X2869405Y108095I9719J-23468D01*
G01*
X2878804Y112269D02*
G03*
X2883129Y114691I-30089J58789D01*
G01*
X2934700Y1567349D02*
G03*
X2916122Y1590431I-111741J-70918D01*
G01*
X2915446Y1591006D02*
G03*
X2915336Y1591100I-16556J-19263D01*
G01*
X2959258Y1434652D02*
G03*
X2958131Y1427281I24272J-7485D01*
G01*
X2881611Y1546169D02*
G03*
X2879281Y1558851I-186274J-27662D01*
G01*
X2881612Y1546169D02*
G03*
X2882678Y1541917I25079J4026D01*
G01*
X2879281Y1558851D02*
G03*
X2859704Y1578187I-24792J-5523D01*
G01*
X3011351Y1414705D02*
G03*
X3001913Y1390082I29164J-25299D01*
G01*
X3001912Y1390035D02*
G03*
X3001909Y1389628I25398J-399D01*
G01*
X2858047Y147379D02*
G03*
X2859774Y148183I-9850J23413D01*
G01*
X2942483Y232783D02*
G03*
X2944655Y237337I-21728J13155D01*
G01*
X2859884Y148240D02*
G03*
X2859785Y148189I18554J-36158D01*
G01*
X2794542Y131390D02*
G03*
X2813306Y132573I0J149426D01*
G01*
X2813442Y132590D02*
G03*
X2816724Y133246I-3326J25182D01*
G01*
X2862068Y149449D02*
G03*
X2862076Y149454I-13353J21608D01*
G01*
X2860082Y148341D02*
G03*
X2862068Y149449I-11366J22716D01*
G01*
X2838887Y139443D02*
G03*
X2838893Y139446I-9943J23373D01*
G01*
X2835599Y138304D02*
G03*
X2838887Y139443I-6655J24513D01*
G01*
X2883369Y162739D02*
G03*
X2883384Y162752I-15813J19878D01*
G01*
X2883198Y162605D02*
G03*
X2883369Y162739I-15642J20012D01*
G01*
X2891947Y169602D02*
G03*
X2893907Y171343I-15867J19834D01*
G01*
X2951626Y261792D02*
G03*
X2957273Y312411I-224036J50618D01*
G01*
X2944704Y237471D02*
G03*
X2951626Y261792I-217114J74939D01*
G01*
X2996918Y259704D02*
G03*
X3000500Y300477I-230269J40774D01*
G01*
X2995032Y253961D02*
G03*
X2995337Y254874I-62466J21435D01*
G01*
X2806763Y90753D02*
G03*
X2810386Y91025I-86J25401D01*
G01*
X2819962Y92469D02*
G03*
X2826905Y93901I-9846J65302D01*
G01*
X2846245Y99083D02*
G03*
X2854115Y101761I-17301J63733D01*
G01*
X2901653Y125999D02*
G03*
X2908630Y130904I-34411J56367D01*
G01*
X2918975Y139180D02*
G03*
X2920934Y140921I-15868J19835D01*
G01*
X2952321Y171846D02*
G03*
X2956284Y176871I-17805J18115D01*
G01*
X3001900Y326707D02*
G03*
X3001901Y327111I-254000J404D01*
G01*
X3000500Y300478D02*
G03*
X3001900Y326707I-252600J26633D01*
G01*
X2842118Y1581915D02*
G03*
X2839807Y1582282I-5147J-24873D01*
G01*
X150853Y99965D02*
X319525D01*
X360205Y150270D02*
X360476Y150000D01*
X298497D02*
X298767Y150270D01*
X160000Y150000D02*
X298497D01*
X298767Y150270D02*
X360205D01*
X360476Y150000D02*
Y150475D01*
X511291Y85352D02*
X525150D01*
X530548Y90750D02*
X2806760D01*
X507541Y81602D02*
X511291Y85352D01*
X525150D02*
X530548Y90750D01*
X511090Y142306D02*
X877974Y135108D01*
X1577400D01*
X200000Y250000D02*
X388667D01*
X431333D02*
X480000D01*
X388667D02*
X389107Y250440D01*
X430893D01*
X431333Y250000D01*
X2878577Y112081D02*
X2878722Y112226D01*
X2878437Y112081D02*
X2878438D01*
X2878438Y112081D01*
X2869406Y108096D02*
X2873671Y109862D01*
X2867076Y107130D02*
X2869405Y108095D01*
X2878438Y112081D02*
X2878577D01*
X2878722Y112226D02*
X2878804Y112269D01*
X409016Y200984D02*
X410000Y200000D01*
X249307Y200984D02*
X409016D01*
X319525Y99965D02*
X319660Y99830D01*
X155710Y49390D02*
X390000D01*
X2948567Y1495135D02*
Y1553482D01*
X2934700Y1567349D02*
X2948567Y1553482D01*
X2806760Y90750D02*
X2806763Y90753D01*
X248731Y299266D02*
X472575Y305713D01*
X514360D01*
X547072Y299444D01*
X2743300Y1651400D02*
X2744987Y1653087D01*
Y1724701D01*
X2779694Y1759407D01*
X2812207D02*
X2819507Y1766707D01*
X2779694Y1759407D02*
X2812207D01*
X3009507Y1766707D02*
Y1826708D01*
Y1706708D02*
Y1766707D01*
X2895704Y1453340D02*
Y1524324D01*
X2885088Y1534940D02*
X2895704Y1524324D01*
X2841360Y1432447D02*
X2890000Y1380000D01*
X2819507Y1482844D02*
X2819507Y1482685D01*
X2841360Y1432447D01*
X2819507Y1482844D02*
Y1526708D01*
X2882678Y1541917D02*
X2885088Y1534940D01*
X2898225Y1667402D02*
X2903431D01*
X2866219Y1699408D02*
X2898225Y1667402D01*
X2826807Y1699408D02*
X2866219D01*
X2839807Y1639408D02*
X2864080Y1634647D01*
X2819507Y1706708D02*
X2826807Y1699408D01*
X2864080Y1634647D02*
X2915336Y1591100D01*
X2916119Y1590434D02*
X2916122Y1590431D01*
X2915446Y1591006D02*
X2916119Y1590434D01*
X2948567Y1495135D02*
X2959258Y1484443D01*
X2958131Y340000D02*
Y1427281D01*
X2959258Y1434652D02*
Y1484443D01*
X2842118Y1581914D02*
X2859704Y1578187D01*
X2881611Y1546169D02*
X2881612D01*
X3019253Y1423814D02*
Y1450877D01*
X3001901Y327111D02*
Y358084D01*
X3001912Y1390035D02*
X3001913Y1390082D01*
X3001901Y358084D02*
X3001909Y1389628D01*
X3011351Y1414705D02*
X3019253Y1423814D01*
Y1450877D02*
X3023003Y1454627D01*
X2883129Y114691D02*
X2901653Y125999D01*
X2819507Y1646708D02*
X2839807Y1639408D01*
X2859774Y148183D02*
X2859785Y148189D01*
X2859884Y148240D02*
X2860082Y148341D01*
X2862076Y149454D02*
X2880246Y160546D01*
X2920161Y197211D02*
X2924119Y202244D01*
X2942483Y232783D01*
X2840031Y139917D02*
X2842008Y140735D01*
X2855066Y146144D01*
X2944655Y237337D02*
X2944703Y237471D01*
X2838893Y139446D02*
X2840031Y139917D01*
X2893907Y171343D02*
X2920161Y197211D01*
X2880246Y160546D02*
X2883198Y162605D01*
X2839807Y1579408D02*
Y1582282D01*
X3049321Y1654008D02*
X3080248Y1684935D01*
Y1768100D01*
X2813306Y132572D02*
X2813442Y132590D01*
X2858023Y147369D02*
X2858047Y147379D01*
X2855066Y146144D02*
X2858023Y147369D01*
X2883384Y162752D02*
X2891947Y169602D01*
X2957273Y312411D02*
Y320118D01*
X2958131Y340000D01*
X2996918Y259702D02*
X2996918Y259704D01*
X2995337Y254874D02*
X2996918Y259702D01*
X2810462Y91037D02*
X2819962Y92469D01*
X2810386Y91025D02*
X2810462Y91037D01*
X2854115Y101761D02*
X2867076Y107130D01*
X2908630Y130904D02*
X2918975Y139180D01*
X2984919Y224491D02*
X2995032Y253961D01*
X2920934Y140921D02*
X2952321Y171846D01*
X2956284Y176871D02*
X2984919Y224491D01*
X1577400Y135108D02*
X1577691Y135106D01*
X1902008Y131390D02*
X2794542D01*
X1577691Y135106D02*
X1902008Y131390D01*
X2826905Y93901D02*
X2846245Y99083D01*
X2816724Y133246D02*
X2835599Y138304D01*
X2819507Y1586708D02*
X2838892Y1579736D01*
X2839807Y1579408D01*
X3009507Y1526708D02*
X3011953D01*
X3009507Y1646708D02*
X3016807Y1654008D01*
X3011953Y1526708D02*
X3019253Y1519408D01*
Y1458377D02*
X3023003Y1454627D01*
X3019253Y1458377D02*
Y1519408D01*
X3016807Y1654008D02*
X3049321D01*
D13*
X155000Y300100D02*
D03*
Y250100D02*
D03*
Y200100D02*
D03*
Y150100D02*
D03*
Y100100D02*
D03*
Y50100D02*
D03*
D17*
X511090Y142306D02*
D03*
X507541Y81602D02*
D03*
X410000Y200000D02*
D03*
X319660Y99830D02*
D03*
X390000Y49390D02*
D03*
X480000Y250000D02*
D03*
X360476Y150475D02*
D03*
X547072Y299444D02*
D03*
X2743300Y1651400D02*
D03*
X2895704Y1453340D02*
D03*
X2903431Y1667402D02*
D03*
X3080248Y1768100D02*
D03*
X2890000Y1380000D02*
D03*
X3023003Y1454627D02*
D03*
X3021500Y1983400D02*
D03*
D18*
X3009507Y1526708D02*
D03*
Y1586708D02*
D03*
Y1646708D02*
D03*
Y1706708D02*
D03*
Y1766707D02*
D03*
Y1826708D02*
D03*
Y1886707D02*
D03*
X2819507D02*
D03*
Y1826708D02*
D03*
Y1766707D02*
D03*
Y1706708D02*
D03*
Y1646708D02*
D03*
Y1586708D02*
D03*
Y1526708D02*
D03*
%TF.MD5,ba40c953574e3eebe0edc7c48f6e7c33*%
M02*
