%TF.GenerationSoftware,Altium Limited,Altium Designer,21.8.1 (53)*%
G04 Layer_Color=16711935*
%FSLAX45Y45*%
%MOMM*%
%TF.SameCoordinates,7374835A-4B4A-4399-96A1-91FF428CB2AC*%
%TF.FilePolarity,Positive*%
%TF.FileFunction,Other,Mechanical_1*%
%TF.Part,Single*%
G01*
G75*
%TA.AperFunction,NonConductor*%
%ADD24C,0.15240*%
D24*
X2745469Y300478D02*
G03*
X2792044Y347040I27J46548D01*
G01*
X2700529Y1337816D02*
G03*
X2723726Y1328573I25421J30067D01*
G01*
X2663308Y1424251D02*
G03*
X2700529Y1337816I118897J-31D01*
G01*
X2746307Y2087078D02*
G03*
X2663308Y2004078I-109J-82891D01*
G01*
X3165807Y1993278D02*
G03*
X3072008Y2087078I-93719J81D01*
G01*
X3127780Y1336022D02*
G03*
X3165804Y1408342I-49706J72290D01*
G01*
X3095364Y1326946D02*
G03*
X3127780Y1336022I0J62426D01*
G01*
X2777187Y50478D02*
G03*
X3042000Y315290I0J264813D01*
G01*
X2006Y41560D02*
G03*
X43460Y106I41453J0D01*
G01*
Y350108D02*
G03*
X2006Y308654I0J-41453D01*
G01*
X629910Y50478D02*
X2777187Y50478D01*
X44999Y-0D02*
X580372Y0D01*
X629910Y50478D01*
X629522Y300478D02*
X2745469D01*
X45015Y350015D02*
X579984Y350016D01*
X629522Y300478D01*
X3042005Y315298D02*
X3042005Y1326946D01*
X3095364D01*
X2792044Y347040D02*
X2792101Y1328573D01*
X2723726D02*
X2792101D01*
X2663308Y2004078D02*
X2663308Y1424251D01*
X2746308Y2087078D02*
X3072008D01*
X3165804Y1408343D02*
X3165808Y1993278D01*
X2006Y41560D02*
Y308654D01*
%TF.MD5,9e9cffb3fd4f0b70880cd71d53c37098*%
M02*
