%TF.GenerationSoftware,Altium Limited,Altium Designer,21.8.1 (53)*%
G04 Layer_Color=32768*
%FSLAX45Y45*%
%MOMM*%
%TF.SameCoordinates,7374835A-4B4A-4399-96A1-91FF428CB2AC*%
%TF.FilePolarity,Positive*%
%TF.FileFunction,Other,Top_Assembly*%
%TF.Part,Single*%
G01*
G75*
%TA.AperFunction,NonConductor*%
%ADD28C,0.07620*%
D28*
X2866010Y1477080D02*
Y1637080D01*
X2876007Y1557080D02*
X2936007D01*
X2906010Y1527077D02*
Y1587077D01*
X2866010Y1477080D02*
X2946010D01*
Y1637080D01*
X2866010D02*
X2946010D01*
X2986729Y1557080D02*
X3041725D01*
X3014227Y1529577D02*
Y1584578D01*
X3054725Y1473179D02*
Y1638980D01*
X2973927Y1473179D02*
Y1638980D01*
X3054725D01*
X2973927Y1473179D02*
X3054725D01*
X2769517Y1477079D02*
Y1637079D01*
X2779515Y1557079D02*
X2839515D01*
X2809517Y1527076D02*
Y1587076D01*
X2769517Y1477079D02*
X2849517D01*
Y1637079D01*
X2769517D02*
X2849517D01*
X2809329Y1806708D02*
X2895008D01*
X2852509Y1759210D02*
Y1854206D01*
X2905849Y1691707D02*
Y1921709D01*
X2799169D02*
X2905849D01*
X2799169Y1691707D02*
Y1921709D01*
Y1691707D02*
X2905849D01*
X3040927Y1746706D02*
Y1906706D01*
X2970930Y1826706D02*
X3030929D01*
X3000927Y1796708D02*
Y1856708D01*
X2960927Y1906706D02*
X3040927D01*
X2960927Y1746706D02*
Y1906706D01*
Y1746706D02*
X3040927D01*
%TF.MD5,d101bee5b7cdad1b6bdff9db71f3dd8d*%
M02*
